
<svg xmlns="http://www.w3.org/2000/svg" xmlns:xlink="http://www.w3.org/1999/xlink" width="48px" height="48px" viewBox="0 0 48 48" version="1.1">
<g id="surface1">
<path style=" stroke:none;fill-rule:nonzero;fill:rgb(37.647059%,41.960784%,50.980392%);fill-opacity:1;" d="M 46.59375 41.035156 L 46.59375 9.304688 C 46.589844 4.175781 42.441406 0.0078125 37.308594 0 L 21.277344 0 C 16.148438 0.0234375 12 4.175781 12 9.304688 L 12 28.996094 C 10.96875 28.589844 9.867188 28.378906 8.746094 28.378906 C 4.683594 28.378906 1.363281 31.125 1.363281 34.523438 C 1.363281 37.917969 4.683594 40.683594 8.746094 40.683594 C 12.839844 40.683594 16.128906 37.917969 16.128906 34.523438 C 16.128906 34.429688 16.128906 34.335938 16.128906 34.242188 L 16.191406 34.242188 L 16.191406 13.027344 C 16.191406 10.925781 17.902344 9.214844 19.992188 9.214844 L 38.625 9.214844 C 40.714844 9.238281 42.402344 10.925781 42.417969 13.027344 L 42.417969 36.277344 C 41.414062 35.882812 40.339844 35.675781 39.28125 35.675781 C 35.199219 35.675781 31.898438 38.433594 31.898438 41.816406 C 31.898438 45.214844 35.199219 48 39.28125 48 C 43.363281 48 46.664062 45.253906 46.664062 41.839844 C 46.664062 41.558594 46.636719 41.300781 46.59375 41.035156 Z M 46.59375 41.035156 "/>
<path style=" stroke:none;fill-rule:nonzero;fill:rgb(37.647059%,41.960784%,50.980392%);fill-opacity:1;" d="M 36.660156 21.09375 L 23.628906 13.59375 C 23.246094 13.378906 22.753906 13.378906 22.339844 13.59375 C 21.941406 13.824219 21.699219 14.25 21.699219 14.714844 L 21.699219 29.742188 C 21.699219 30.191406 21.941406 30.628906 22.339844 30.84375 C 22.753906 31.074219 23.246094 31.074219 23.628906 30.847656 L 36.660156 23.347656 C 37.074219 23.132812 37.335938 22.691406 37.335938 22.222656 C 37.335938 21.75 37.074219 21.308594 36.660156 21.09375 Z M 36.660156 21.09375 "/>
</g>
</svg>
