
<svg xmlns="http://www.w3.org/2000/svg" xmlns:xlink="http://www.w3.org/1999/xlink" width="48px" height="48px" viewBox="0 0 48 48" version="1.1">
<g id="surface1">
<path style=" stroke:none;fill-rule:nonzero;fill:rgb(37.647059%,41.960784%,50.980392%);fill-opacity:1;" d="M 24 43.269531 C 10.777344 43.269531 0 34.621094 0 24 C 0 13.378906 10.777344 4.730469 24 4.730469 C 37.222656 4.730469 48 13.378906 48 24 C 47.996094 26.855469 47.207031 29.652344 45.75 32.113281 C 45.136719 33.183594 44.058594 33.894531 42.84375 34.035156 C 41.601562 34.214844 40.339844 33.792969 39.464844 32.90625 L 36.117188 29.550781 C 35.628906 29.011719 34.878906 28.78125 34.175781 28.964844 C 33.472656 29.136719 32.925781 29.691406 32.742188 30.394531 C 32.558594 31.101562 32.792969 31.847656 33.332031 32.339844 L 35.789062 34.78125 C 36.753906 35.746094 37.167969 37.144531 36.871094 38.464844 C 36.605469 39.792969 35.691406 40.875 34.429688 41.363281 C 31.101562 42.636719 27.5625 43.289062 24 43.269531 Z M 24 8.816406 C 13.027344 8.816406 4.097656 15.632812 4.097656 24 C 4.097656 32.367188 13.027344 39.183594 24 39.183594 C 27.066406 39.191406 30.09375 38.644531 32.957031 37.550781 L 30.445312 35.25 C 28.058594 32.886719 28.054688 29.042969 30.425781 26.675781 C 32.789062 24.300781 36.632812 24.285156 39 26.652344 L 42.355469 30 C 43.355469 28.152344 43.894531 26.089844 43.902344 24 C 43.902344 15.632812 34.972656 8.816406 24 8.816406 Z M 24 8.816406 "/>
<path style=" stroke:none;fill-rule:nonzero;fill:rgb(37.647059%,41.960784%,50.980392%);fill-opacity:1;" d="M 23.949219 19.542969 C 23.949219 16.714844 21.160156 14.4375 17.699219 14.4375 C 14.25 14.4375 11.457031 16.714844 11.457031 19.542969 C 11.457031 22.363281 14.25 24.65625 17.699219 24.65625 C 21.160156 24.65625 23.949219 22.363281 23.949219 19.542969 Z M 23.949219 19.542969 "/>
<path style=" stroke:none;fill-rule:nonzero;fill:rgb(37.647059%,41.960784%,50.980392%);fill-opacity:1;" d="M 22.527344 30.167969 C 22.527344 28.148438 20.339844 26.507812 17.621094 26.507812 C 14.902344 26.507812 12.699219 28.148438 12.699219 30.167969 C 12.699219 32.199219 14.902344 33.84375 17.621094 33.84375 C 20.339844 33.84375 22.527344 32.199219 22.527344 30.167969 Z M 22.527344 30.167969 "/>
</g>
</svg>
