
<svg xmlns="http://www.w3.org/2000/svg" xmlns:xlink="http://www.w3.org/1999/xlink" width="48px" height="48px" viewBox="0 0 48 48" version="1.1">
<g id="surface1">
<path style=" stroke:none;fill-rule:nonzero;fill:rgb(37.647059%,41.960784%,50.980392%);fill-opacity:1;" d="M 24 48 C 10.753906 48 0 37.246094 0 24 C 0 10.753906 10.753906 0 24 0 C 37.246094 0 48 10.753906 48 24 C 48 37.246094 37.246094 48 24 48 Z M 24 5.039062 C 13.523438 5.039062 5.039062 13.523438 5.039062 24 C 5.039062 34.476562 13.523438 42.960938 24 42.960938 C 34.476562 42.960938 42.960938 34.476562 42.960938 24 C 42.941406 13.527344 34.472656 5.058594 24 5.039062 Z M 24 5.039062 "/>
<path style=" stroke:none;fill-rule:nonzero;fill:rgb(37.647059%,41.960784%,50.980392%);fill-opacity:1;" d="M 23.316406 32.25 C 15.679688 32.300781 8.222656 30.070312 1.871094 25.847656 L 3.371094 23.816406 C 9.304688 27.683594 16.222656 29.742188 23.316406 29.722656 C 30.777344 29.625 38.128906 27.773438 44.746094 24.324219 L 46.007812 26.507812 C 39.003906 30.210938 31.222656 32.179688 23.316406 32.25 Z M 23.316406 32.25 "/>
<path style=" stroke:none;fill-rule:nonzero;fill:rgb(37.647059%,41.960784%,50.980392%);fill-opacity:1;" d="M 44.628906 22.925781 C 38.695312 19.054688 31.777344 16.996094 24.683594 17.011719 C 17.222656 17.113281 9.871094 18.960938 3.253906 22.410156 L 1.992188 20.25 C 8.996094 16.566406 16.777344 14.597656 24.683594 14.527344 C 32.320312 14.464844 39.777344 16.691406 46.128906 20.910156 Z M 44.628906 22.925781 "/>
<path style=" stroke:none;fill-rule:nonzero;fill:rgb(37.647059%,41.960784%,50.980392%);fill-opacity:1;" d="M 19.636719 45.558594 C 19.308594 45.136719 11.4375 35.410156 11.4375 22.683594 C 11.4375 9.960938 20.25 1.429688 20.597656 1.082031 L 22.316406 2.90625 C 22.242188 3 13.964844 10.992188 13.964844 22.683594 C 13.964844 34.378906 21.511719 43.871094 21.589844 43.964844 Z M 19.636719 45.558594 "/>
<path style=" stroke:none;fill-rule:nonzero;fill:rgb(37.647059%,41.960784%,50.980392%);fill-opacity:1;" d="M 27.402344 45.660156 L 25.683594 43.847656 C 25.757812 43.757812 34.035156 35.761719 34.035156 24.066406 C 34.035156 12.371094 26.480469 2.882812 26.410156 2.789062 L 28.363281 1.195312 C 28.691406 1.59375 36.5625 11.34375 36.5625 24.066406 C 36.5625 36.777344 27.777344 45.308594 27.402344 45.660156 Z M 27.402344 45.660156 "/>
<path style=" stroke:none;fill-rule:nonzero;fill:rgb(37.647059%,41.960784%,50.980392%);fill-opacity:1;" d="M 22.738281 2.320312 L 25.261719 2.320312 L 25.261719 47.132812 L 22.738281 47.132812 Z M 22.738281 2.320312 "/>
</g>
</svg>
