
<svg xmlns="http://www.w3.org/2000/svg" xmlns:xlink="http://www.w3.org/1999/xlink" width="48px" height="48px" viewBox="0 0 48 48" version="1.1">
<g id="surface1">
<path style=" stroke:none;fill-rule:nonzero;fill:rgb(37.647059%,41.960784%,50.980392%);fill-opacity:1;" d="M 25.171875 48 L 23.25 48 C 20.339844 47.1875 18.488281 45.445312 18.242188 42.304688 C 18.179688 41.554688 18.007812 40.90625 17.226562 40.605469 C 16.445312 40.304688 15.898438 40.695312 15.328125 41.195312 C 12.980469 43.355469 9.34375 43.265625 7.101562 40.996094 C 4.863281 38.726562 4.820312 35.085938 7.011719 32.765625 C 7.484375 32.226562 7.875 31.71875 7.546875 30.96875 C 7.214844 30.21875 6.539062 30.097656 5.78125 30.074219 C 3.296875 30.023438 1.109375 28.410156 0.328125 26.046875 C 0.226562 25.757812 0.113281 25.5 0 25.171875 L 0 23.25 C 0.820312 20.296875 2.609375 18.445312 5.796875 18.234375 C 6.484375 18.289062 7.128906 17.890625 7.386719 17.25 C 7.609375 16.597656 7.40625 15.875 6.875 15.4375 C 4.570312 13.109375 4.578125 9.355469 6.90625 7.046875 C 9.226562 4.734375 12.984375 4.75 15.292969 7.070312 C 15.773438 7.640625 16.578125 7.8125 17.25 7.5 C 18 7.171875 18.097656 6.539062 18.125 5.84375 C 18.132812 3.125 20.023438 0.773438 22.671875 0.179688 C 22.800781 0.132812 22.921875 0.0703125 23.039062 0 L 24.960938 0 C 25.039062 0.0625 25.125 0.117188 25.222656 0.15625 C 28.164062 0.960938 29.648438 2.804688 29.945312 5.851562 C 30.003906 6.460938 30.335938 7.015625 30.855469 7.351562 C 31.453125 7.453125 32.0625 7.28125 32.527344 6.890625 C 35.117188 4.757812 38.527344 4.777344 40.820312 7.027344 C 43.046875 9.3125 43.09375 12.933594 40.9375 15.277344 C 40.382812 15.757812 40.207031 16.539062 40.5 17.203125 C 40.8125 17.953125 41.445312 18.082031 42.148438 18.089844 C 43.59375 18 45.003906 18.570312 45.984375 19.632812 C 46.75 20.710938 47.425781 21.851562 48 23.039062 L 48 24.960938 C 47.085938 28.035156 45.1875 29.867188 41.828125 29.96875 C 41.316406 30.046875 40.875 30.375 40.65625 30.839844 C 40.59375 31.441406 40.761719 32.046875 41.132812 32.527344 C 43.257812 35.109375 43.238281 38.570312 40.988281 40.835938 C 38.671875 43.046875 35.046875 43.101562 32.671875 40.964844 C 32.21875 40.570312 31.609375 40.40625 31.019531 40.515625 C 30.511719 40.894531 30.1875 41.472656 30.125 42.105469 C 30 43.605469 29.664062 45 28.5625 45.953125 C 27.492188 46.734375 26.359375 47.421875 25.171875 48 Z M 24.105469 44.136719 C 24.679688 44.15625 25.234375 43.941406 25.640625 43.535156 C 26.046875 43.128906 26.269531 42.574219 26.25 42 C 26.304688 39.695312 27.261719 37.9375 29.390625 36.992188 C 31.367188 36.039062 33.730469 36.46875 35.25 38.046875 C 36.078125 38.851562 37.402344 38.835938 38.210938 38.007812 C 39.015625 37.179688 38.996094 35.851562 38.167969 35.046875 C 36.625 33.53125 36.195312 31.21875 37.085938 29.25 C 37.957031 27.164062 39.644531 26.203125 41.84375 26.046875 C 43.289062 25.949219 44.167969 25.132812 44.136719 23.929688 C 44.109375 22.734375 43.230469 21.984375 41.75 21.90625 C 39.660156 21.949219 37.757812 20.703125 36.960938 18.765625 C 36.007812 16.777344 36.402344 14.40625 37.945312 12.832031 C 38.917969 11.757812 38.945312 10.582031 38.078125 9.703125 C 37.207031 8.828125 36.0625 8.953125 35.03125 9.847656 C 33.527344 11.347656 31.25 11.769531 29.3125 10.90625 C 27.179688 10.027344 26.203125 8.320312 26.070312 6.074219 C 25.988281 4.710938 25.171875 3.824219 24 3.824219 C 23.421875 3.835938 22.875 4.078125 22.484375 4.507812 C 22.09375 4.929688 21.898438 5.5 21.9375 6.074219 C 21.855469 8.324219 20.925781 10.09375 18.824219 10.992188 C 16.816406 11.972656 14.40625 11.570312 12.824219 10 C 12.023438 9.171875 10.699219 9.148438 9.867188 9.953125 C 9.039062 10.757812 9.023438 12.078125 9.824219 12.90625 C 11.378906 14.433594 11.8125 16.765625 10.914062 18.75 C 10.171875 20.746094 8.273438 22.070312 6.140625 22.070312 C 5.75 22.070312 5.363281 22.160156 5.007812 22.328125 C 4.171875 22.71875 3.707031 23.632812 3.890625 24.539062 C 4.066406 25.578125 4.996094 26.3125 6.046875 26.25 C 8.347656 26.304688 10.109375 27.261719 11.046875 29.398438 C 11.984375 31.382812 11.546875 33.742188 9.953125 35.25 C 9.703125 35.503906 9.523438 35.8125 9.414062 36.148438 C 9.101562 37.023438 9.4375 37.992188 10.214844 38.492188 C 11.039062 39.054688 12.148438 38.945312 12.839844 38.21875 C 14.15625 36.863281 16.101562 36.320312 17.929688 36.796875 C 20.28125 37.289062 21.984375 39.328125 22.050781 41.730469 C 22.1875 43.25 22.921875 44.109375 24.105469 44.136719 Z M 24.105469 44.136719 "/>
<path style=" stroke:none;fill-rule:nonzero;fill:rgb(37.647059%,41.960784%,50.980392%);fill-opacity:1;" d="M 24 31.957031 C 19.605469 31.957031 16.042969 28.394531 16.042969 24 C 16.042969 19.605469 19.605469 16.042969 24 16.042969 C 28.394531 16.042969 31.957031 19.605469 31.957031 24 C 31.925781 28.382812 28.382812 31.925781 24 31.957031 Z M 28.101562 24 C 28.09375 22.335938 27.085938 20.84375 25.546875 20.214844 C 24.003906 19.585938 22.238281 19.953125 21.070312 21.140625 C 19.90625 22.328125 19.574219 24.101562 20.226562 25.632812 C 20.882812 27.160156 22.398438 28.140625 24.0625 28.117188 C 26.292969 28.046875 28.078125 26.234375 28.101562 24 Z M 28.101562 24 "/>
</g>
</svg>
