
<svg xmlns="http://www.w3.org/2000/svg" xmlns:xlink="http://www.w3.org/1999/xlink" width="48px" height="48px" viewBox="0 0 48 48" version="1.1">
<g id="surface1">
<path style=" stroke:none;fill-rule:nonzero;fill:rgb(37.647059%,41.960784%,50.980392%);fill-opacity:1;" d="M 45.492188 42.980469 L 41.25 42.980469 L 41.25 11.652344 C 41.25 9.886719 39.820312 8.464844 38.0625 8.464844 L 37.40625 8.464844 C 36.5625 8.464844 35.742188 8.808594 35.15625 9.398438 C 34.566406 10.003906 34.21875 10.804688 34.21875 11.652344 L 34.21875 42.980469 L 30 42.980469 L 30 22.316406 C 30 20.558594 28.589844 19.128906 26.816406 19.128906 L 26.15625 19.128906 C 24.398438 19.128906 22.96875 20.558594 22.96875 22.316406 L 22.96875 42.980469 L 18.75 42.980469 L 18.75 31.101562 C 18.75 30.257812 18.402344 29.441406 17.8125 28.851562 C 17.222656 28.246094 16.40625 27.933594 15.5625 27.933594 L 14.90625 27.933594 C 13.148438 27.933594 11.71875 29.34375 11.71875 31.101562 L 11.71875 42.980469 L 6.117188 42.980469 C 5.507812 42.980469 5.011719 42.492188 5.011719 41.882812 L 5.011719 2.507812 C 5.0625 1.589844 4.597656 0.699219 3.816406 0.214844 C 3.003906 -0.257812 2.019531 -0.257812 1.21875 0.214844 C 0.402344 0.699219 -0.0507812 1.589844 0 2.507812 L 0 41.882812 C 0 45.257812 2.742188 48 6.117188 48 L 45.492188 48 C 46.410156 48.050781 47.300781 47.597656 47.785156 46.78125 C 48.257812 45.980469 48.257812 44.996094 47.785156 44.183594 C 47.300781 43.402344 46.410156 42.9375 45.492188 42.980469 Z M 45.492188 42.980469 "/>
</g>
</svg>
