
<svg xmlns="http://www.w3.org/2000/svg" xmlns:xlink="http://www.w3.org/1999/xlink" width="48px" height="48px" viewBox="0 0 48 48" version="1.1">
<g id="surface1">
<path style=" stroke:none;fill-rule:nonzero;fill:rgb(37.647059%,41.960784%,50.980392%);fill-opacity:1;" d="M 35.273438 10.3125 L 35.273438 38.601562 L 36.5625 40.847656 L 40.691406 48 L 44.835938 40.847656 L 46.125 38.601562 L 46.125 10.3125 Z M 35.273438 10.3125 "/>
<path style=" stroke:none;fill-rule:nonzero;fill:rgb(37.647059%,41.960784%,50.980392%);fill-opacity:1;" d="M 46.125 7.78125 L 35.25 7.78125 L 35.25 3.847656 C 35.25 2.816406 35.652344 1.847656 36.378906 1.125 C 37.121094 0.398438 38.089844 -0.0078125 39.121094 0 L 42.277344 0 C 44.410156 0 46.125 1.714844 46.125 3.847656 Z M 46.125 7.78125 "/>
<path style=" stroke:none;fill-rule:nonzero;fill:rgb(37.647059%,41.960784%,50.980392%);fill-opacity:1;" d="M 35.863281 48 L 8.785156 48 C 4.96875 48 1.875 44.90625 1.875 41.089844 L 1.875 6.910156 C 1.875 3.09375 4.96875 0 8.785156 0 L 31.074219 0 L 31.074219 2.554688 L 8.785156 2.554688 C 6.375 2.554688 4.429688 4.5 4.429688 6.910156 L 4.429688 41.089844 C 4.429688 43.5 6.375 45.445312 8.785156 45.445312 L 35.863281 45.445312 Z M 35.863281 48 "/>
<path style=" stroke:none;fill-rule:nonzero;fill:rgb(37.647059%,41.960784%,50.980392%);fill-opacity:1;" d="M 11.089844 7.058594 L 28.757812 7.058594 C 29.949219 7.058594 30.914062 8.035156 30.914062 9.214844 L 30.914062 12.285156 C 30.914062 13.476562 29.949219 14.441406 28.757812 14.441406 L 11.089844 14.441406 C 9.914062 14.441406 8.949219 13.476562 8.949219 12.285156 L 8.949219 9.214844 C 8.949219 8.035156 9.914062 7.058594 11.089844 7.058594 Z M 11.089844 7.058594 "/>
<path style=" stroke:none;fill-rule:nonzero;fill:rgb(37.647059%,41.960784%,50.980392%);fill-opacity:1;" d="M 10.476562 18.285156 L 13.035156 18.285156 C 13.964844 18.285156 14.714844 19.035156 14.714844 19.964844 L 14.714844 22.523438 C 14.714844 23.4375 13.964844 24.1875 13.035156 24.1875 L 10.476562 24.1875 C 9.5625 24.1875 8.8125 23.4375 8.8125 22.523438 L 8.8125 19.964844 C 8.8125 19.035156 9.5625 18.285156 10.476562 18.285156 Z M 10.476562 18.285156 "/>
<path style=" stroke:none;fill-rule:nonzero;fill:rgb(37.647059%,41.960784%,50.980392%);fill-opacity:1;" d="M 18.652344 18.285156 L 21.210938 18.285156 C 22.125 18.285156 22.875 19.035156 22.875 19.964844 L 22.875 22.523438 C 22.875 23.4375 22.125 24.1875 21.210938 24.1875 L 18.652344 24.1875 C 17.722656 24.1875 16.972656 23.4375 16.972656 22.523438 L 16.972656 19.964844 C 16.972656 19.035156 17.722656 18.285156 18.652344 18.285156 Z M 18.652344 18.285156 "/>
<path style=" stroke:none;fill-rule:nonzero;fill:rgb(37.647059%,41.960784%,50.980392%);fill-opacity:1;" d="M 26.816406 18.285156 L 29.386719 18.285156 C 30.304688 18.285156 31.054688 19.035156 31.054688 19.964844 L 31.054688 22.523438 C 31.054688 23.4375 30.304688 24.1875 29.386719 24.1875 L 26.816406 24.1875 C 25.898438 24.1875 25.152344 23.4375 25.152344 22.523438 L 25.152344 19.964844 C 25.152344 19.035156 25.898438 18.285156 26.816406 18.285156 Z M 26.816406 18.285156 "/>
<path style=" stroke:none;fill-rule:nonzero;fill:rgb(37.647059%,41.960784%,50.980392%);fill-opacity:1;" d="M 10.476562 26.652344 L 13.035156 26.652344 C 13.964844 26.652344 14.714844 27.398438 14.714844 28.316406 L 14.714844 30.886719 C 14.714844 31.804688 13.964844 32.554688 13.035156 32.554688 L 10.476562 32.554688 C 9.5625 32.554688 8.8125 31.804688 8.8125 30.886719 L 8.8125 28.316406 C 8.8125 27.398438 9.5625 26.652344 10.476562 26.652344 Z M 10.476562 26.652344 "/>
<path style=" stroke:none;fill-rule:nonzero;fill:rgb(37.647059%,41.960784%,50.980392%);fill-opacity:1;" d="M 18.652344 26.652344 L 21.210938 26.652344 C 22.125 26.652344 22.875 27.398438 22.875 28.316406 L 22.875 30.886719 C 22.875 31.804688 22.125 32.554688 21.210938 32.554688 L 18.652344 32.554688 C 17.722656 32.554688 16.972656 31.804688 16.972656 30.886719 L 16.972656 28.316406 C 16.972656 27.398438 17.722656 26.652344 18.652344 26.652344 Z M 18.652344 26.652344 "/>
<path style=" stroke:none;fill-rule:nonzero;fill:rgb(37.647059%,41.960784%,50.980392%);fill-opacity:1;" d="M 26.816406 26.652344 L 29.386719 26.652344 C 30.304688 26.652344 31.054688 27.398438 31.054688 28.316406 L 31.054688 30.886719 C 31.054688 31.804688 30.304688 32.554688 29.386719 32.554688 L 26.816406 32.554688 C 25.898438 32.554688 25.152344 31.804688 25.152344 30.886719 L 25.152344 28.316406 C 25.152344 27.398438 25.898438 26.652344 26.816406 26.652344 Z M 26.816406 26.652344 "/>
<path style=" stroke:none;fill-rule:nonzero;fill:rgb(37.647059%,41.960784%,50.980392%);fill-opacity:1;" d="M 10.476562 35.011719 L 13.035156 35.011719 C 13.964844 35.011719 14.714844 35.761719 14.714844 36.679688 L 14.714844 39.253906 C 14.714844 40.175781 13.964844 40.902344 13.035156 40.902344 L 10.476562 40.902344 C 9.5625 40.902344 8.8125 40.175781 8.8125 39.253906 L 8.8125 36.679688 C 8.8125 35.761719 9.5625 35.011719 10.476562 35.011719 Z M 10.476562 35.011719 "/>
<path style=" stroke:none;fill-rule:nonzero;fill:rgb(37.647059%,41.960784%,50.980392%);fill-opacity:1;" d="M 18.652344 35.011719 L 21.210938 35.011719 C 22.125 35.011719 22.875 35.761719 22.875 36.679688 L 22.875 39.253906 C 22.875 40.175781 22.125 40.902344 21.210938 40.902344 L 18.652344 40.902344 C 17.722656 40.902344 16.972656 40.175781 16.972656 39.253906 L 16.972656 36.679688 C 16.972656 35.761719 17.722656 35.011719 18.652344 35.011719 Z M 18.652344 35.011719 "/>
<path style=" stroke:none;fill-rule:nonzero;fill:rgb(37.647059%,41.960784%,50.980392%);fill-opacity:1;" d="M 26.816406 35.011719 L 29.386719 35.011719 C 30.304688 35.011719 31.054688 35.761719 31.054688 36.679688 L 31.054688 39.253906 C 31.054688 40.175781 30.304688 40.902344 29.386719 40.902344 L 26.816406 40.902344 C 25.898438 40.902344 25.152344 40.175781 25.152344 39.253906 L 25.152344 36.679688 C 25.152344 35.761719 25.898438 35.011719 26.816406 35.011719 Z M 26.816406 35.011719 "/>
</g>
</svg>
