
<svg xmlns="http://www.w3.org/2000/svg" xmlns:xlink="http://www.w3.org/1999/xlink" width="48px" height="48px" viewBox="0 0 48 48" version="1.1">
<g id="surface1">
<path style=" stroke:none;fill-rule:nonzero;fill:rgb(37.647059%,41.960784%,50.980392%);fill-opacity:1;" d="M 47.53125 10.621094 C 47.507812 10.035156 47.152344 9.535156 46.597656 9.304688 L 24.472656 0.1875 C 24.097656 0.0234375 23.691406 0.0234375 23.300781 0.1875 L 1.175781 9.304688 C 0.589844 9.535156 0.210938 10.101562 0.214844 10.714844 C 0.214844 10.777344 0.214844 10.804688 0.214844 10.851562 C 0.0703125 11.089844 0 11.371094 0 11.667969 L 0 37.261719 C -0.0078125 37.878906 0.375 38.460938 0.941406 38.691406 L 23.011719 47.8125 C 23.199219 47.902344 23.410156 47.929688 23.621094 47.929688 C 23.742188 47.90625 23.878906 47.878906 24 47.8125 C 24.121094 47.878906 24.257812 47.90625 24.378906 47.929688 C 24.589844 47.929688 24.800781 47.902344 24.980469 47.8125 L 47.058594 38.691406 C 47.625 38.460938 48.003906 37.878906 48 37.261719 L 48 11.667969 C 47.996094 11.273438 47.8125 10.898438 47.53125 10.621094 Z M 22.058594 44.085938 L 3.089844 36.230469 L 3.089844 13.96875 L 22.058594 21.820312 Z M 44.910156 36.230469 L 25.941406 44.085938 L 25.941406 21.820312 L 44.910156 13.96875 Z M 44.910156 36.230469 "/>
</g>
</svg>
