
<svg xmlns="http://www.w3.org/2000/svg" xmlns:xlink="http://www.w3.org/1999/xlink" width="48px" height="48px" viewBox="0 0 48 48" version="1.1">
<defs>
<linearGradient id="linear0" gradientUnits="userSpaceOnUse" x1="31.18" y1="-3.52" x2="31.18" y2="47.91" gradientTransform="matrix(0.75,0,0,0.75,0,0)">
<stop offset="0" style="stop-color:rgb(16.078431%,71.372549%,96.470588%);stop-opacity:1;"/>
<stop offset="1" style="stop-color:rgb(49.411765%,34.117647%,76.862745%);stop-opacity:1;"/>
</linearGradient>
</defs>
<g id="surface1">
<path style=" stroke:none;fill-rule:nonzero;fill:rgb(91.764706%,92.156863%,93.72549%);fill-opacity:1;" d="M 4.035156 0 L 43.964844 0 C 46.195312 0 48 1.804688 48 4.035156 L 48 43.964844 C 48 46.195312 46.195312 48 43.964844 48 L 4.035156 48 C 1.804688 48 0 46.195312 0 43.964844 L 0 4.035156 C 0 1.804688 1.804688 0 4.035156 0 Z M 4.035156 0 "/>
<path style=" stroke:none;fill-rule:nonzero;fill:url(#linear0);" d="M 36.675781 23.582031 C 35.902344 22.804688 34.667969 22.425781 33 22.425781 C 32.0625 22.425781 31.144531 22.566406 30.253906 22.847656 C 29.386719 23.105469 28.570312 23.488281 27.820312 24 L 27.820312 25.875 C 27.820312 26.019531 27.820312 26.089844 27.917969 26.128906 C 28.03125 26.152344 28.058594 26.128906 28.148438 26.039062 C 28.851562 25.523438 29.601562 25.105469 30.398438 24.800781 C 31.148438 24.519531 31.941406 24.378906 32.722656 24.394531 C 33.164062 24.378906 33.605469 24.425781 34.03125 24.539062 C 34.378906 24.613281 34.683594 24.773438 34.941406 25.027344 C 35.199219 25.289062 35.386719 25.617188 35.464844 25.972656 C 35.605469 26.488281 35.667969 27 35.648438 27.535156 L 35.648438 27.75 L 31.238281 28.386719 C 29.886719 28.5 28.617188 29.066406 27.636719 30 L 22.101562 13.5 C 21.660156 12.210938 20.457031 11.339844 19.101562 11.324219 C 17.738281 11.339844 16.523438 12.210938 16.101562 13.5 L 9 34.621094 C 8.792969 35.230469 8.902344 35.90625 9.277344 36.425781 C 9.652344 36.941406 10.246094 37.246094 10.894531 37.246094 C 11.746094 37.246094 12.519531 36.699219 12.777344 35.878906 L 14.34375 31.101562 C 14.53125 30.535156 15.066406 30.144531 15.65625 30.144531 L 22.5 30.144531 C 23.105469 30.136719 23.644531 30.539062 23.816406 31.105469 L 25.316406 35.863281 C 25.589844 36.683594 26.347656 37.246094 27.210938 37.246094 L 31.050781 37.332031 C 31.941406 37.332031 32.8125 37.121094 33.605469 36.726562 C 34.007812 36.535156 34.382812 36.277344 34.710938 35.976562 C 35.042969 35.695312 35.324219 35.347656 35.550781 34.96875 L 35.601562 36.210938 C 35.621094 36.820312 36.117188 37.308594 36.726562 37.289062 C 37.332031 37.269531 37.804688 36.769531 37.785156 36.164062 L 37.785156 27.378906 C 37.824219 25.621094 37.457031 24.355469 36.675781 23.582031 Z M 20.746094 26.789062 L 17.417969 26.789062 C 16.972656 26.789062 16.570312 26.582031 16.308594 26.226562 C 16.035156 25.871094 15.964844 25.40625 16.101562 24.988281 L 18.417969 17.605469 C 18.496094 17.316406 18.773438 17.089844 19.097656 17.089844 C 19.402344 17.089844 19.683594 17.316406 19.757812 17.605469 L 22.074219 24.988281 C 22.214844 25.40625 22.128906 25.871094 21.867188 26.226562 C 21.613281 26.582031 21.191406 26.789062 20.746094 26.789062 Z M 35.746094 31.289062 C 35.746094 31.824219 35.628906 32.347656 35.414062 32.835938 C 35.199219 33.347656 34.878906 33.792969 34.5 34.191406 C 34.121094 34.570312 33.660156 34.894531 33.164062 35.128906 C 32.675781 35.363281 32.132812 35.488281 31.589844 35.480469 C 30.863281 35.511719 30.144531 35.292969 29.558594 34.855469 C 29.316406 34.664062 29.113281 34.40625 28.988281 34.105469 L 28.949219 34.003906 C 28.847656 33.707031 28.78125 33.394531 28.78125 33.089844 C 28.730469 32.25 29.0625 31.433594 29.691406 30.886719 C 30.355469 30.351562 31.167969 30.003906 32.035156 29.910156 L 35.15625 29.53125 C 35.300781 29.511719 35.457031 29.554688 35.574219 29.652344 C 35.695312 29.761719 35.746094 29.90625 35.746094 30.066406 Z M 35.746094 31.289062 "/>
</g>
</svg>
