
<svg xmlns="http://www.w3.org/2000/svg" xmlns:xlink="http://www.w3.org/1999/xlink" width="48px" height="48px" viewBox="0 0 48 48" version="1.1">
<g id="surface1">
<path style=" stroke:none;fill-rule:nonzero;fill:rgb(37.647059%,41.960784%,50.980392%);fill-opacity:1;" d="M 24.09375 16.074219 C 22.566406 16.054688 21.167969 16.96875 20.574219 18.378906 C 19.972656 19.800781 20.277344 21.441406 21.371094 22.523438 C 22.449219 23.621094 24.074219 23.949219 25.5 23.363281 C 26.925781 22.78125 27.84375 21.394531 27.84375 19.855469 C 27.839844 17.789062 26.160156 16.105469 24.09375 16.074219 Z M 24.09375 16.074219 "/>
<path style=" stroke:none;fill-rule:nonzero;fill:rgb(37.647059%,41.960784%,50.980392%);fill-opacity:1;" d="M 43.402344 2.957031 L 4.597656 2.957031 C 3.378906 2.957031 2.207031 3.445312 1.339844 4.308594 C 0.488281 5.175781 0 6.347656 0 7.570312 L 0 30.820312 C 0 33.355469 2.0625 35.417969 4.597656 35.417969 L 15.75 35.417969 C 17.011719 35.460938 18.003906 36.492188 18 37.757812 L 18 38.089844 C 18 39.355469 16.996094 40.382812 15.75 40.410156 L 11.742188 40.410156 C 10.519531 40.496094 9.5625 41.507812 9.5625 42.730469 C 9.5625 43.964844 10.519531 44.976562 11.742188 45.042969 L 36.257812 45.042969 C 37.480469 44.976562 38.4375 43.964844 38.4375 42.730469 C 38.4375 41.507812 37.480469 40.496094 36.257812 40.410156 L 32.277344 40.410156 C 31.027344 40.402344 30 39.371094 30 38.089844 L 30 37.757812 C 30 36.472656 31.035156 35.441406 32.320312 35.441406 L 43.402344 35.441406 C 45.9375 35.441406 48 33.378906 48 30.84375 L 48 7.59375 C 48.003906 6.371094 47.527344 5.179688 46.664062 4.3125 C 45.800781 3.445312 44.625 2.957031 43.402344 2.957031 Z M 34.550781 21.074219 C 33.324219 21.113281 32.230469 21.867188 31.777344 22.996094 C 31.308594 24.136719 31.550781 25.433594 32.410156 26.324219 C 32.644531 26.554688 32.789062 26.882812 32.789062 27.214844 C 32.789062 27.558594 32.644531 27.871094 32.410156 28.105469 C 32.160156 28.335938 31.851562 28.457031 31.519531 28.449219 C 31.195312 28.433594 30.886719 28.308594 30.65625 28.058594 C 29.769531 27.121094 28.378906 26.878906 27.207031 27.425781 C 26.035156 27.917969 25.292969 29.089844 25.363281 30.371094 C 25.382812 30.707031 25.246094 31.03125 25.011719 31.285156 C 24.777344 31.519531 24.464844 31.644531 24.117188 31.644531 C 23.417969 31.644531 22.992188 31.121094 22.902344 30.230469 C 22.832031 28.992188 22.035156 27.914062 20.878906 27.46875 C 19.710938 27.023438 18.398438 27.300781 17.511719 28.175781 C 17.105469 28.597656 16.449219 28.667969 15.964844 28.335938 C 15.539062 28.035156 15.355469 27.492188 15.535156 27 C 15.589844 26.808594 15.707031 26.625 15.84375 26.464844 C 16.785156 25.589844 17.058594 24.1875 16.5 23.011719 C 16.011719 21.839844 14.832031 21.09375 13.566406 21.164062 C 12.941406 21.207031 12.402344 20.785156 12.300781 20.175781 C 12.191406 19.644531 12.46875 19.105469 12.960938 18.871094 C 13.167969 18.777344 13.386719 18.730469 13.617188 18.726562 C 14.863281 18.726562 15.980469 17.949219 16.410156 16.78125 C 16.945312 15.613281 16.667969 14.25 15.75 13.378906 C 15.402344 13.058594 15.261719 12.605469 15.375 12.164062 C 15.492188 11.71875 15.839844 11.371094 16.289062 11.269531 C 16.730469 11.160156 17.183594 11.320312 17.488281 11.652344 C 18.425781 12.585938 19.847656 12.824219 21.023438 12.253906 C 22.175781 11.761719 22.898438 10.613281 22.847656 9.355469 C 22.804688 8.90625 23.035156 8.464844 23.417969 8.226562 C 23.8125 7.988281 24.300781 7.988281 24.683594 8.226562 C 25.082031 8.464844 25.308594 8.90625 25.269531 9.355469 C 25.285156 10.59375 26.035156 11.714844 27.167969 12.1875 C 28.308594 12.675781 29.625 12.425781 30.519531 11.574219 C 31.003906 11.089844 31.78125 11.089844 32.253906 11.582031 C 32.738281 12.066406 32.738281 12.84375 32.25 13.316406 C 31.335938 14.246094 31.105469 15.632812 31.667969 16.800781 L 34.5 18.652344 C 35.367188 18.683594 35.886719 19.125 35.90625 19.832031 C 35.910156 20.53125 35.410156 21 34.550781 21.074219 Z M 34.550781 21.074219 "/>
</g>
</svg>
