
<svg xmlns="http://www.w3.org/2000/svg" xmlns:xlink="http://www.w3.org/1999/xlink" width="48px" height="48px" viewBox="0 0 48 48" version="1.1">
<g id="surface1">
<path style=" stroke:none;fill-rule:nonzero;fill:rgb(49.411765%,34.117647%,76.862745%);fill-opacity:1;" d="M 4.042969 0 L 43.957031 0 C 46.1875 0 48 1.8125 48 4.042969 L 48 43.957031 C 48 46.1875 46.1875 48 43.957031 48 L 4.042969 48 C 1.8125 48 0 46.1875 0 43.957031 L 0 4.042969 C 0 1.8125 1.8125 0 4.042969 0 Z M 4.042969 0 "/>
<path style=" stroke:none;fill-rule:nonzero;fill:rgb(100%,100%,100%);fill-opacity:1;" d="M 8.8125 11.367188 L 12.863281 11.367188 C 13.632812 11.367188 14.257812 11.992188 14.257812 12.765625 L 14.257812 16.8125 C 14.257812 17.585938 13.632812 18.210938 12.863281 18.210938 L 8.8125 18.210938 C 8.042969 18.210938 7.417969 17.585938 7.417969 16.8125 L 7.417969 12.765625 C 7.417969 11.992188 8.042969 11.367188 8.8125 11.367188 Z M 8.8125 11.367188 "/>
<path style=" stroke:none;fill-rule:nonzero;fill:rgb(100%,100%,100%);fill-opacity:1;" d="M 17.585938 11.367188 L 21.636719 11.367188 C 22.40625 11.367188 23.03125 11.992188 23.03125 12.765625 L 23.03125 16.8125 C 23.03125 17.585938 22.40625 18.210938 21.636719 18.210938 L 17.585938 18.210938 C 16.816406 18.210938 16.195312 17.585938 16.195312 16.8125 L 16.195312 12.765625 C 16.195312 11.992188 16.816406 11.367188 17.585938 11.367188 Z M 17.585938 11.367188 "/>
<path style=" stroke:none;fill-rule:nonzero;fill:rgb(100%,100%,100%);fill-opacity:1;" d="M 26.363281 11.367188 L 30.414062 11.367188 C 31.183594 11.367188 31.804688 11.992188 31.804688 12.765625 L 31.804688 16.8125 C 31.804688 17.585938 31.183594 18.210938 30.414062 18.210938 L 26.363281 18.210938 C 25.59375 18.210938 24.96875 17.585938 24.96875 16.8125 L 24.96875 12.765625 C 24.96875 11.992188 25.59375 11.367188 26.363281 11.367188 Z M 26.363281 11.367188 "/>
<path style=" stroke:none;fill-rule:nonzero;fill:rgb(100%,100%,100%);fill-opacity:1;" d="M 35.132812 11.367188 L 39.179688 11.367188 C 39.953125 11.367188 40.574219 11.992188 40.574219 12.765625 L 40.574219 16.8125 C 40.574219 17.585938 39.953125 18.210938 39.179688 18.210938 L 35.132812 18.210938 C 34.359375 18.210938 33.734375 17.585938 33.734375 16.8125 L 33.734375 12.765625 C 33.734375 11.992188 34.359375 11.367188 35.132812 11.367188 Z M 35.132812 11.367188 "/>
<path style=" stroke:none;fill-rule:nonzero;fill:rgb(100%,100%,100%);fill-opacity:1;" d="M 8.8125 21.601562 L 12.863281 21.601562 C 13.632812 21.601562 14.257812 22.226562 14.257812 22.992188 L 14.257812 27.046875 C 14.257812 27.816406 13.632812 28.4375 12.863281 28.4375 L 8.8125 28.4375 C 8.042969 28.4375 7.417969 27.816406 7.417969 27.046875 L 7.417969 22.992188 C 7.417969 22.226562 8.042969 21.601562 8.8125 21.601562 Z M 8.8125 21.601562 "/>
<path style=" stroke:none;fill-rule:nonzero;fill:rgb(100%,100%,100%);fill-opacity:1;" d="M 17.585938 21.601562 L 21.636719 21.601562 C 22.40625 21.601562 23.03125 22.226562 23.03125 22.992188 L 23.03125 27.046875 C 23.03125 27.816406 22.40625 28.4375 21.636719 28.4375 L 17.585938 28.4375 C 16.816406 28.4375 16.195312 27.816406 16.195312 27.046875 L 16.195312 22.992188 C 16.195312 22.226562 16.816406 21.601562 17.585938 21.601562 Z M 17.585938 21.601562 "/>
</g>
</svg>
