
<svg xmlns="http://www.w3.org/2000/svg" xmlns:xlink="http://www.w3.org/1999/xlink" width="48px" height="48px" viewBox="0 0 48 48" version="1.1">
<g id="surface1">
<path style=" stroke:none;fill-rule:nonzero;fill:rgb(36.078431%,41.960784%,75.294118%);fill-opacity:1;" d="M 4.042969 0 L 43.957031 0 C 46.1875 0 48 1.8125 48 4.042969 L 48 43.957031 C 48 46.1875 46.1875 48 43.957031 48 L 4.042969 48 C 1.8125 48 0 46.1875 0 43.957031 L 0 4.042969 C 0 1.8125 1.8125 0 4.042969 0 Z M 4.042969 0 "/>
<path style=" stroke:none;fill-rule:nonzero;fill:rgb(100%,100%,100%);fill-opacity:1;" d="M 26.347656 24 L 31.914062 18.4375 C 32.359375 17.984375 32.359375 17.253906 31.914062 16.800781 L 25.367188 10.25 C 25.03125 9.921875 24.535156 9.828125 24.101562 10.003906 C 23.671875 10.183594 23.390625 10.601562 23.382812 11.070312 L 23.382812 21.039062 L 17.789062 15.445312 C 17.335938 14.992188 16.609375 14.992188 16.15625 15.445312 C 15.703125 15.894531 15.703125 16.625 16.15625 17.078125 L 23.078125 24 L 16.085938 30.984375 C 15.695312 31.445312 15.71875 32.128906 16.148438 32.558594 C 16.574219 32.988281 17.257812 33.015625 17.722656 32.625 L 23.382812 27 L 23.382812 36.929688 C 23.390625 37.40625 23.6875 37.828125 24.132812 37.992188 C 24.273438 38.054688 24.425781 38.085938 24.578125 38.085938 C 24.882812 38.082031 25.175781 37.960938 25.394531 37.75 L 31.945312 31.199219 C 32.390625 30.746094 32.390625 30.015625 31.945312 29.5625 Z M 25.703125 13.867188 L 29.453125 17.617188 L 25.703125 21.367188 Z M 25.703125 34.117188 L 25.703125 26.617188 L 29.453125 30.367188 Z M 25.703125 34.117188 "/>
</g>
</svg>
