
<svg xmlns="http://www.w3.org/2000/svg" xmlns:xlink="http://www.w3.org/1999/xlink" width="48px" height="48px" viewBox="0 0 48 48" version="1.1">
<defs>
<linearGradient id="linear0" gradientUnits="userSpaceOnUse" x1="31.18" y1="-3.52" x2="31.18" y2="47.91" gradientTransform="matrix(0.75,0,0,0.75,0,0)">
<stop offset="0" style="stop-color:rgb(16.078431%,71.372549%,96.470588%);stop-opacity:1;"/>
<stop offset="1" style="stop-color:rgb(49.411765%,34.117647%,76.862745%);stop-opacity:1;"/>
</linearGradient>
</defs>
<g id="surface1">
<path style=" stroke:none;fill-rule:nonzero;fill:rgb(91.764706%,92.156863%,93.72549%);fill-opacity:1;" d="M 4.042969 0 L 43.957031 0 C 46.1875 0 48 1.8125 48 4.042969 L 48 43.957031 C 48 46.1875 46.1875 48 43.957031 48 L 4.042969 48 C 1.8125 48 0 46.1875 0 43.957031 L 0 4.042969 C 0 1.8125 1.8125 0 4.042969 0 Z M 4.042969 0 "/>
<path style=" stroke:none;fill-rule:nonzero;fill:url(#linear0);" d="M 36.675781 23.578125 C 35.894531 22.8125 34.671875 22.425781 33 22.425781 C 32.066406 22.421875 31.140625 22.5625 30.25 22.835938 C 29.382812 23.101562 28.5625 23.492188 27.820312 24 L 27.820312 25.875 C 27.820312 26.015625 27.820312 26.101562 27.921875 26.125 C 28.027344 26.144531 28.0625 26.125 28.15625 26.03125 C 28.84375 25.523438 29.601562 25.109375 30.40625 24.804688 C 31.148438 24.523438 31.9375 24.382812 32.730469 24.390625 C 33.164062 24.382812 33.601562 24.429688 34.027344 24.53125 C 34.367188 24.609375 34.679688 24.78125 34.9375 25.019531 C 35.195312 25.289062 35.382812 25.617188 35.476562 25.980469 C 35.605469 26.484375 35.664062 27.003906 35.65625 27.523438 L 35.65625 27.75 L 31.238281 28.386719 C 29.890625 28.5 28.617188 29.070312 27.636719 30 L 22.09375 13.5 C 21.664062 12.210938 20.457031 11.335938 19.09375 11.324219 C 17.734375 11.335938 16.527344 12.210938 16.09375 13.5 L 9 34.625 C 8.796875 35.234375 8.898438 35.902344 9.273438 36.421875 C 9.648438 36.945312 10.25 37.25 10.890625 37.25 C 11.753906 37.25 12.523438 36.695312 12.789062 35.875 L 14.339844 31.101562 C 14.527344 30.53125 15.058594 30.144531 15.660156 30.140625 L 22.5 30.140625 C 23.101562 30.140625 23.640625 30.53125 23.820312 31.109375 L 25.320312 35.867188 C 25.582031 36.691406 26.351562 37.253906 27.21875 37.25 L 31.050781 37.328125 C 31.9375 37.328125 32.8125 37.117188 33.609375 36.726562 C 34.007812 36.523438 34.382812 36.273438 34.71875 35.976562 C 35.046875 35.6875 35.328125 35.351562 35.550781 34.972656 L 35.601562 36.21875 C 35.617188 36.820312 36.117188 37.300781 36.726562 37.289062 C 37.328125 37.273438 37.804688 36.769531 37.792969 36.164062 L 37.792969 27.382812 C 37.828125 25.625 37.453125 24.359375 36.675781 23.578125 Z M 20.75 26.789062 L 17.421875 26.789062 C 16.980469 26.789062 16.5625 26.582031 16.304688 26.226562 C 16.042969 25.867188 15.96875 25.410156 16.101562 24.992188 L 18.421875 17.609375 C 18.5 17.304688 18.773438 17.09375 19.085938 17.09375 C 19.398438 17.09375 19.675781 17.304688 19.757812 17.609375 L 22.070312 24.992188 C 22.207031 25.410156 22.132812 25.867188 21.871094 26.226562 C 21.609375 26.582031 21.195312 26.789062 20.75 26.789062 Z M 35.75 31.289062 C 35.75 31.824219 35.636719 32.351562 35.414062 32.835938 C 35.195312 33.335938 34.882812 33.796875 34.5 34.1875 C 34.113281 34.570312 33.664062 34.890625 33.164062 35.125 C 32.671875 35.359375 32.132812 35.484375 31.582031 35.484375 C 30.859375 35.511719 30.148438 35.289062 29.5625 34.859375 C 29.3125 34.664062 29.117188 34.40625 28.988281 34.109375 L 28.949219 34 C 28.835938 33.703125 28.78125 33.394531 28.785156 33.082031 C 28.730469 32.25 29.0625 31.4375 29.6875 30.882812 C 30.359375 30.347656 31.171875 30.011719 32.023438 29.917969 L 35.152344 29.535156 C 35.304688 29.515625 35.457031 29.558594 35.574219 29.660156 C 35.6875 29.757812 35.753906 29.90625 35.75 30.0625 Z M 35.75 31.289062 "/>
</g>
</svg>
