
<svg xmlns="http://www.w3.org/2000/svg" xmlns:xlink="http://www.w3.org/1999/xlink" width="48px" height="48px" viewBox="0 0 48 48" version="1.1">
<g id="surface1">
<path style=" stroke:none;fill-rule:nonzero;fill:rgb(36.078431%,41.960784%,75.294118%);fill-opacity:1;" d="M 4.042969 0 L 43.957031 0 C 46.1875 0 48 1.8125 48 4.042969 L 48 43.957031 C 48 46.1875 46.1875 48 43.957031 48 L 4.042969 48 C 1.8125 48 0 46.1875 0 43.957031 L 0 4.042969 C 0 1.8125 1.8125 0 4.042969 0 Z M 4.042969 0 "/>
<path style=" stroke:none;fill-rule:nonzero;fill:rgb(16.078431%,71.372549%,96.470588%);fill-opacity:1;" d="M 34.992188 19.757812 L 33.070312 19.757812 L 33.070312 16.5 C 33.046875 15.640625 32.359375 14.953125 31.5 14.929688 L 18.070312 14.929688 C 16.125 14.929688 14.554688 13.355469 14.550781 11.414062 L 14.550781 9.75 L 16.5 9.75 L 16.5 11.4375 C 16.5 12.316406 17.210938 13.027344 18.089844 13.027344 L 31.5 13.027344 C 33.445312 13.03125 35.023438 14.609375 35.023438 16.554688 Z M 34.992188 19.757812 "/>
<path style=" stroke:none;fill-rule:nonzero;fill:rgb(100%,100%,100%);fill-opacity:1;" d="M 37.402344 18.601562 L 10.597656 18.601562 C 9.476562 18.601562 8.570312 19.507812 8.570312 20.625 L 8.570312 36.25 C 8.570312 37.367188 9.476562 38.273438 10.597656 38.273438 L 37.402344 38.273438 C 38.523438 38.273438 39.429688 37.367188 39.429688 36.25 L 39.429688 20.625 C 39.429688 19.507812 38.523438 18.601562 37.402344 18.601562 Z M 37.402344 18.601562 "/>
<path style=" stroke:none;fill-rule:nonzero;fill:rgb(79.607843%,79.607843%,79.607843%);fill-opacity:1;" d="M 31.359375 31.394531 L 16.625 31.394531 C 16.371094 31.394531 16.125 31.5 15.945312 31.679688 C 15.765625 31.859375 15.664062 32.109375 15.667969 32.363281 L 15.667969 33.5625 C 15.679688 34.085938 16.105469 34.5 16.625 34.5 L 31.359375 34.5 C 31.613281 34.5 31.859375 34.402344 32.039062 34.21875 C 32.222656 34.039062 32.324219 33.796875 32.324219 33.539062 L 32.324219 32.339844 C 32.324219 31.804688 31.890625 31.375 31.359375 31.375 Z M 31.359375 31.394531 "/>
<path style=" stroke:none;fill-rule:nonzero;fill:rgb(92.54902%,25.098039%,47.843137%);fill-opacity:1;" d="M 13.65625 31.394531 L 12.984375 31.394531 C 12.722656 31.390625 12.472656 31.492188 12.289062 31.671875 C 12.101562 31.855469 12 32.101562 12 32.363281 L 12 33.5625 C 12.011719 34.09375 12.453125 34.511719 12.984375 34.5 L 13.65625 34.5 C 13.914062 34.5 14.160156 34.402344 14.34375 34.21875 C 14.523438 34.039062 14.625 33.796875 14.625 33.539062 L 14.625 32.339844 C 14.625 31.804688 14.191406 31.375 13.65625 31.375 Z M 13.65625 31.394531 "/>
<path style=" stroke:none;fill-rule:nonzero;fill:rgb(79.607843%,79.607843%,79.607843%);fill-opacity:1;" d="M 35.179688 31.394531 L 34.5 31.394531 C 33.964844 31.394531 33.53125 31.828125 33.53125 32.363281 L 33.53125 33.5625 C 33.546875 34.085938 33.976562 34.503906 34.5 34.5 L 35.175781 34.5 C 35.429688 34.5 35.679688 34.402344 35.859375 34.21875 C 36.039062 34.039062 36.140625 33.796875 36.140625 33.539062 L 36.140625 32.339844 C 36.140625 31.804688 35.710938 31.375 35.175781 31.375 Z M 35.179688 31.394531 "/>
<path style=" stroke:none;fill-rule:nonzero;fill:rgb(79.607843%,79.607843%,79.607843%);fill-opacity:1;" d="M 20.5625 26.929688 L 19.882812 26.929688 C 19.351562 26.929688 18.921875 27.363281 18.921875 27.890625 L 18.921875 29.09375 C 18.921875 29.347656 19.023438 29.59375 19.203125 29.773438 C 19.382812 29.957031 19.625 30.0625 19.882812 30.0625 L 20.5625 30.0625 C 20.820312 30.0625 21.066406 29.957031 21.246094 29.773438 C 21.425781 29.59375 21.527344 29.347656 21.523438 29.09375 L 21.523438 27.890625 C 21.523438 27.363281 21.09375 26.929688 20.5625 26.929688 Z M 20.5625 26.929688 "/>
<path style=" stroke:none;fill-rule:nonzero;fill:rgb(92.54902%,25.098039%,47.843137%);fill-opacity:1;" d="M 17.144531 26.929688 L 12.984375 26.929688 C 12.726562 26.925781 12.476562 27.023438 12.289062 27.203125 C 12.101562 27.386719 12 27.632812 12 27.890625 L 12 29.09375 C 12 29.625 12.433594 30.0625 12.96875 30.0625 L 17.132812 30.0625 C 17.664062 30.0625 18.097656 29.625 18.097656 29.09375 L 18.097656 27.890625 C 18.097656 27.636719 17.996094 27.390625 17.8125 27.210938 C 17.632812 27.03125 17.386719 26.929688 17.132812 26.929688 Z M 17.144531 26.929688 "/>
<path style=" stroke:none;fill-rule:nonzero;fill:rgb(79.607843%,79.607843%,79.607843%);fill-opacity:1;" d="M 24.21875 26.929688 L 23.542969 26.929688 C 23.289062 26.929688 23.039062 27.03125 22.859375 27.210938 C 22.679688 27.390625 22.574219 27.636719 22.574219 27.890625 L 22.574219 29.09375 C 22.574219 29.625 23.007812 30.0625 23.542969 30.0625 L 24.21875 30.0625 C 24.75 30.0625 25.1875 29.625 25.1875 29.09375 L 25.1875 27.890625 C 25.1875 27.636719 25.082031 27.390625 24.898438 27.210938 C 24.71875 27.03125 24.472656 26.929688 24.21875 26.929688 Z M 24.21875 26.929688 "/>
<path style=" stroke:none;fill-rule:nonzero;fill:rgb(79.607843%,79.607843%,79.607843%);fill-opacity:1;" d="M 27.875 26.929688 L 27.195312 26.929688 C 26.671875 26.941406 26.25 27.367188 26.25 27.890625 L 26.25 29.09375 C 26.25 29.347656 26.347656 29.59375 26.53125 29.773438 C 26.710938 29.957031 26.953125 30.0625 27.210938 30.0625 L 27.890625 30.0625 C 28.148438 30.0625 28.394531 29.957031 28.574219 29.773438 C 28.753906 29.59375 28.855469 29.347656 28.851562 29.09375 L 28.851562 27.890625 C 28.851562 27.363281 28.421875 26.929688 27.890625 26.929688 Z M 27.875 26.929688 "/>
<path style=" stroke:none;fill-rule:nonzero;fill:rgb(79.607843%,79.607843%,79.607843%);fill-opacity:1;" d="M 31.5 26.929688 L 30.824219 26.929688 C 30.570312 26.929688 30.320312 27.03125 30.140625 27.210938 C 29.960938 27.390625 29.859375 27.636719 29.859375 27.890625 L 29.859375 29.09375 C 29.859375 29.625 30.289062 30.0625 30.824219 30.0625 L 31.5 30.0625 C 32.035156 30.0625 32.46875 29.625 32.46875 29.09375 L 32.46875 27.890625 C 32.46875 27.636719 32.367188 27.390625 32.183594 27.210938 C 32 27.03125 31.757812 26.929688 31.5 26.929688 Z M 31.5 26.929688 "/>
<path style=" stroke:none;fill-rule:nonzero;fill:rgb(79.607843%,79.607843%,79.607843%);fill-opacity:1;" d="M 35.179688 26.929688 L 34.5 26.929688 C 34.242188 26.929688 34 27.03125 33.816406 27.210938 C 33.632812 27.390625 33.53125 27.636719 33.53125 27.890625 L 33.53125 29.09375 C 33.53125 29.625 33.964844 30.0625 34.5 30.0625 L 35.175781 30.0625 C 35.710938 30.0625 36.140625 29.625 36.140625 29.09375 L 36.140625 27.890625 C 36.140625 27.636719 36.039062 27.390625 35.859375 27.210938 C 35.679688 27.03125 35.429688 26.929688 35.175781 26.929688 Z M 35.179688 26.929688 "/>
<path style=" stroke:none;fill-rule:nonzero;fill:rgb(79.607843%,79.607843%,79.607843%);fill-opacity:1;" d="M 18.53125 22.5 L 17.859375 22.5 C 17.601562 22.5 17.355469 22.597656 17.171875 22.78125 C 16.992188 22.960938 16.890625 23.203125 16.890625 23.460938 L 16.890625 24.660156 C 16.890625 25.195312 17.320312 25.625 17.859375 25.625 L 18.53125 25.625 C 18.796875 25.625 19.046875 25.523438 19.230469 25.328125 C 19.414062 25.140625 19.507812 24.882812 19.5 24.625 L 19.5 23.421875 C 19.480469 22.90625 19.050781 22.496094 18.53125 22.5 Z M 18.53125 22.5 "/>
<path style=" stroke:none;fill-rule:nonzero;fill:rgb(79.607843%,79.607843%,79.607843%);fill-opacity:1;" d="M 22.195312 22.5 L 21.507812 22.5 C 21.253906 22.5 21.007812 22.597656 20.828125 22.78125 C 20.644531 22.960938 20.542969 23.203125 20.542969 23.460938 L 20.542969 24.660156 C 20.542969 25.195312 20.976562 25.625 21.507812 25.625 L 22.195312 25.625 C 22.449219 25.625 22.695312 25.523438 22.875 25.34375 C 23.054688 25.164062 23.15625 24.914062 23.152344 24.660156 L 23.152344 23.460938 C 23.152344 22.929688 22.722656 22.5 22.195312 22.5 Z M 22.195312 22.5 "/>
<path style=" stroke:none;fill-rule:nonzero;fill:rgb(79.607843%,79.607843%,79.607843%);fill-opacity:1;" d="M 25.84375 22.5 L 25.164062 22.5 C 24.632812 22.5 24.203125 22.929688 24.203125 23.460938 L 24.203125 24.660156 C 24.203125 24.914062 24.300781 25.164062 24.480469 25.34375 C 24.664062 25.523438 24.90625 25.625 25.164062 25.625 L 25.84375 25.625 C 26.101562 25.625 26.34375 25.523438 26.527344 25.34375 C 26.707031 25.164062 26.804688 24.914062 26.804688 24.660156 L 26.804688 23.460938 C 26.804688 22.929688 26.375 22.5 25.84375 22.5 Z M 25.84375 22.5 "/>
<path style=" stroke:none;fill-rule:nonzero;fill:rgb(79.607843%,79.607843%,79.607843%);fill-opacity:1;" d="M 29.5 22.5 L 28.820312 22.5 C 28.566406 22.5 28.320312 22.597656 28.140625 22.78125 C 27.957031 22.960938 27.855469 23.203125 27.855469 23.460938 L 27.855469 24.660156 C 27.855469 25.195312 28.289062 25.625 28.820312 25.625 L 29.5 25.625 C 30.03125 25.625 30.464844 25.195312 30.464844 24.660156 L 30.464844 23.460938 C 30.464844 23.203125 30.363281 22.960938 30.179688 22.78125 C 30 22.597656 29.753906 22.5 29.5 22.5 Z M 29.5 22.5 "/>
<path style=" stroke:none;fill-rule:nonzero;fill:rgb(79.607843%,79.607843%,79.607843%);fill-opacity:1;" d="M 35.015625 22.5 L 32.367188 22.5 C 32.113281 22.5 31.867188 22.597656 31.6875 22.78125 C 31.503906 22.960938 31.402344 23.203125 31.402344 23.460938 L 31.402344 24.660156 C 31.402344 25.195312 31.835938 25.625 32.367188 25.625 L 35.015625 25.625 C 35.28125 25.632812 35.539062 25.53125 35.726562 25.339844 C 35.914062 25.148438 36.011719 24.890625 36 24.625 L 36 23.421875 C 35.980469 22.898438 35.542969 22.488281 35.015625 22.5 Z M 35.015625 22.5 "/>
<path style=" stroke:none;fill-rule:nonzero;fill:rgb(92.54902%,25.098039%,47.843137%);fill-opacity:1;" d="M 14.707031 22.5 L 12.867188 22.5 C 12.339844 22.5 11.910156 22.929688 11.910156 23.460938 L 11.910156 24.660156 C 11.90625 24.914062 12.007812 25.164062 12.1875 25.34375 C 12.367188 25.523438 12.613281 25.625 12.867188 25.625 L 14.707031 25.625 C 15.242188 25.625 15.675781 25.195312 15.675781 24.660156 L 15.675781 23.460938 C 15.675781 23.203125 15.570312 22.960938 15.390625 22.78125 C 15.210938 22.597656 14.960938 22.5 14.707031 22.5 Z M 14.707031 22.5 "/>
</g>
</svg>
