
<svg xmlns="http://www.w3.org/2000/svg" xmlns:xlink="http://www.w3.org/1999/xlink" width="48px" height="48px" viewBox="0 0 48 48" version="1.1">
<defs>
<clipPath id="clip1">
  <path d="M 22.5 38 L 39.5 38 L 39.5 48 L 22.5 48 Z M 22.5 38 "/>
</clipPath>
<clipPath id="clip2">
  <path d="M 4.042969 0 L 43.957031 0 C 46.1875 0 48 1.8125 48 4.042969 L 48 43.957031 C 48 46.1875 46.1875 48 43.957031 48 L 4.042969 48 C 1.8125 48 0 46.1875 0 43.957031 L 0 4.042969 C 0 1.8125 1.8125 0 4.042969 0 Z M 4.042969 0 "/>
</clipPath>
<clipPath id="clip3">
  <path d="M 29.5 33.5 L 37.5 33.5 L 37.5 38 L 29.5 38 Z M 29.5 33.5 "/>
</clipPath>
<clipPath id="clip4">
  <path d="M 4.042969 0 L 43.957031 0 C 46.1875 0 48 1.8125 48 4.042969 L 48 43.957031 C 48 46.1875 46.1875 48 43.957031 48 L 4.042969 48 C 1.8125 48 0 46.1875 0 43.957031 L 0 4.042969 C 0 1.8125 1.8125 0 4.042969 0 Z M 4.042969 0 "/>
</clipPath>
<clipPath id="clip5">
  <path d="M 36.5 35.5 L 38 35.5 L 38 36.5 L 36.5 36.5 Z M 36.5 35.5 "/>
</clipPath>
<clipPath id="clip6">
  <path d="M 4.042969 0 L 43.957031 0 C 46.1875 0 48 1.8125 48 4.042969 L 48 43.957031 C 48 46.1875 46.1875 48 43.957031 48 L 4.042969 48 C 1.8125 48 0 46.1875 0 43.957031 L 0 4.042969 C 0 1.8125 1.8125 0 4.042969 0 Z M 4.042969 0 "/>
</clipPath>
<clipPath id="clip7">
  <path d="M 19.5 35.5 L 24 35.5 L 24 37.5 L 19.5 37.5 Z M 19.5 35.5 "/>
</clipPath>
<clipPath id="clip8">
  <path d="M 4.042969 0 L 43.957031 0 C 46.1875 0 48 1.8125 48 4.042969 L 48 43.957031 C 48 46.1875 46.1875 48 43.957031 48 L 4.042969 48 C 1.8125 48 0 46.1875 0 43.957031 L 0 4.042969 C 0 1.8125 1.8125 0 4.042969 0 Z M 4.042969 0 "/>
</clipPath>
<clipPath id="clip9">
  <path d="M 27.5 36.5 L 28.5 36.5 L 28.5 37.5 L 27.5 37.5 Z M 27.5 36.5 "/>
</clipPath>
<clipPath id="clip10">
  <path d="M 4.042969 0 L 43.957031 0 C 46.1875 0 48 1.8125 48 4.042969 L 48 43.957031 C 48 46.1875 46.1875 48 43.957031 48 L 4.042969 48 C 1.8125 48 0 46.1875 0 43.957031 L 0 4.042969 C 0 1.8125 1.8125 0 4.042969 0 Z M 4.042969 0 "/>
</clipPath>
<clipPath id="clip11">
  <path d="M 15.5 31 L 20.5 31 L 20.5 36 L 15.5 36 Z M 15.5 31 "/>
</clipPath>
<clipPath id="clip12">
  <path d="M 4.042969 0 L 43.957031 0 C 46.1875 0 48 1.8125 48 4.042969 L 48 43.957031 C 48 46.1875 46.1875 48 43.957031 48 L 4.042969 48 C 1.8125 48 0 46.1875 0 43.957031 L 0 4.042969 C 0 1.8125 1.8125 0 4.042969 0 Z M 4.042969 0 "/>
</clipPath>
<clipPath id="clip13">
  <path d="M 0 0 L 44.5 0 L 44.5 45 L 0 45 Z M 0 0 "/>
</clipPath>
<clipPath id="clip14">
  <path d="M 4.042969 0 L 43.957031 0 C 46.1875 0 48 1.8125 48 4.042969 L 48 43.957031 C 48 46.1875 46.1875 48 43.957031 48 L 4.042969 48 C 1.8125 48 0 46.1875 0 43.957031 L 0 4.042969 C 0 1.8125 1.8125 0 4.042969 0 Z M 4.042969 0 "/>
</clipPath>
<clipPath id="clip15">
  <path d="M 21 31.5 L 25 31.5 L 25 35.5 L 21 35.5 Z M 21 31.5 "/>
</clipPath>
<clipPath id="clip16">
  <path d="M 4.042969 0 L 43.957031 0 C 46.1875 0 48 1.8125 48 4.042969 L 48 43.957031 C 48 46.1875 46.1875 48 43.957031 48 L 4.042969 48 C 1.8125 48 0 46.1875 0 43.957031 L 0 4.042969 C 0 1.8125 1.8125 0 4.042969 0 Z M 4.042969 0 "/>
</clipPath>
<clipPath id="clip17">
  <path d="M 26 32.5 L 27.5 32.5 L 27.5 34 L 26 34 Z M 26 32.5 "/>
</clipPath>
<clipPath id="clip18">
  <path d="M 4.042969 0 L 43.957031 0 C 46.1875 0 48 1.8125 48 4.042969 L 48 43.957031 C 48 46.1875 46.1875 48 43.957031 48 L 4.042969 48 C 1.8125 48 0 46.1875 0 43.957031 L 0 4.042969 C 0 1.8125 1.8125 0 4.042969 0 Z M 4.042969 0 "/>
</clipPath>
<clipPath id="clip19">
  <path d="M 28 32.5 L 29 32.5 L 29 34 L 28 34 Z M 28 32.5 "/>
</clipPath>
<clipPath id="clip20">
  <path d="M 4.042969 0 L 43.957031 0 C 46.1875 0 48 1.8125 48 4.042969 L 48 43.957031 C 48 46.1875 46.1875 48 43.957031 48 L 4.042969 48 C 1.8125 48 0 46.1875 0 43.957031 L 0 4.042969 C 0 1.8125 1.8125 0 4.042969 0 Z M 4.042969 0 "/>
</clipPath>
<clipPath id="clip21">
  <path d="M 25 33.5 L 27 33.5 L 27 36 L 25 36 Z M 25 33.5 "/>
</clipPath>
<clipPath id="clip22">
  <path d="M 4.042969 0 L 43.957031 0 C 46.1875 0 48 1.8125 48 4.042969 L 48 43.957031 C 48 46.1875 46.1875 48 43.957031 48 L 4.042969 48 C 1.8125 48 0 46.1875 0 43.957031 L 0 4.042969 C 0 1.8125 1.8125 0 4.042969 0 Z M 4.042969 0 "/>
</clipPath>
<clipPath id="clip23">
  <path d="M 20.5 20.5 L 22 20.5 L 22 22 L 20.5 22 Z M 20.5 20.5 "/>
</clipPath>
<clipPath id="clip24">
  <path d="M 4.042969 0 L 43.957031 0 C 46.1875 0 48 1.8125 48 4.042969 L 48 43.957031 C 48 46.1875 46.1875 48 43.957031 48 L 4.042969 48 C 1.8125 48 0 46.1875 0 43.957031 L 0 4.042969 C 0 1.8125 1.8125 0 4.042969 0 Z M 4.042969 0 "/>
</clipPath>
<clipPath id="clip25">
  <path d="M 17 28 L 20.5 28 L 20.5 30.5 L 17 30.5 Z M 17 28 "/>
</clipPath>
<clipPath id="clip26">
  <path d="M 4.042969 0 L 43.957031 0 C 46.1875 0 48 1.8125 48 4.042969 L 48 43.957031 C 48 46.1875 46.1875 48 43.957031 48 L 4.042969 48 C 1.8125 48 0 46.1875 0 43.957031 L 0 4.042969 C 0 1.8125 1.8125 0 4.042969 0 Z M 4.042969 0 "/>
</clipPath>
<clipPath id="clip27">
  <path d="M 25.5 11.5 L 30.5 11.5 L 30.5 17.5 L 25.5 17.5 Z M 25.5 11.5 "/>
</clipPath>
<clipPath id="clip28">
  <path d="M 4.042969 0 L 43.957031 0 C 46.1875 0 48 1.8125 48 4.042969 L 48 43.957031 C 48 46.1875 46.1875 48 43.957031 48 L 4.042969 48 C 1.8125 48 0 46.1875 0 43.957031 L 0 4.042969 C 0 1.8125 1.8125 0 4.042969 0 Z M 4.042969 0 "/>
</clipPath>
<clipPath id="clip29">
  <path d="M 24.5 16.5 L 26 16.5 L 26 18.5 L 24.5 18.5 Z M 24.5 16.5 "/>
</clipPath>
<clipPath id="clip30">
  <path d="M 4.042969 0 L 43.957031 0 C 46.1875 0 48 1.8125 48 4.042969 L 48 43.957031 C 48 46.1875 46.1875 48 43.957031 48 L 4.042969 48 C 1.8125 48 0 46.1875 0 43.957031 L 0 4.042969 C 0 1.8125 1.8125 0 4.042969 0 Z M 4.042969 0 "/>
</clipPath>
<clipPath id="clip31">
  <path d="M 21.5 27 L 23.5 27 L 23.5 28.5 L 21.5 28.5 Z M 21.5 27 "/>
</clipPath>
<clipPath id="clip32">
  <path d="M 4.042969 0 L 43.957031 0 C 46.1875 0 48 1.8125 48 4.042969 L 48 43.957031 C 48 46.1875 46.1875 48 43.957031 48 L 4.042969 48 C 1.8125 48 0 46.1875 0 43.957031 L 0 4.042969 C 0 1.8125 1.8125 0 4.042969 0 Z M 4.042969 0 "/>
</clipPath>
<clipPath id="clip33">
  <path d="M 20.5 23 L 22.5 23 L 22.5 26 L 20.5 26 Z M 20.5 23 "/>
</clipPath>
<clipPath id="clip34">
  <path d="M 4.042969 0 L 43.957031 0 C 46.1875 0 48 1.8125 48 4.042969 L 48 43.957031 C 48 46.1875 46.1875 48 43.957031 48 L 4.042969 48 C 1.8125 48 0 46.1875 0 43.957031 L 0 4.042969 C 0 1.8125 1.8125 0 4.042969 0 Z M 4.042969 0 "/>
</clipPath>
<clipPath id="clip35">
  <path d="M 21.5 26.5 L 22.5 26.5 L 22.5 27.5 L 21.5 27.5 Z M 21.5 26.5 "/>
</clipPath>
<clipPath id="clip36">
  <path d="M 4.042969 0 L 43.957031 0 C 46.1875 0 48 1.8125 48 4.042969 L 48 43.957031 C 48 46.1875 46.1875 48 43.957031 48 L 4.042969 48 C 1.8125 48 0 46.1875 0 43.957031 L 0 4.042969 C 0 1.8125 1.8125 0 4.042969 0 Z M 4.042969 0 "/>
</clipPath>
<clipPath id="clip37">
  <path d="M 5 27 L 6 27 L 6 28.5 L 5 28.5 Z M 5 27 "/>
</clipPath>
<clipPath id="clip38">
  <path d="M 4.042969 0 L 43.957031 0 C 46.1875 0 48 1.8125 48 4.042969 L 48 43.957031 C 48 46.1875 46.1875 48 43.957031 48 L 4.042969 48 C 1.8125 48 0 46.1875 0 43.957031 L 0 4.042969 C 0 1.8125 1.8125 0 4.042969 0 Z M 4.042969 0 "/>
</clipPath>
</defs>
<g id="surface1">
<path style=" stroke:none;fill-rule:nonzero;fill:rgb(49.411765%,34.117647%,76.862745%);fill-opacity:1;" d="M 4.042969 0 L 43.957031 0 C 46.1875 0 48 1.8125 48 4.042969 L 48 43.957031 C 48 46.1875 46.1875 48 43.957031 48 L 4.042969 48 C 1.8125 48 0 46.1875 0 43.957031 L 0 4.042969 C 0 1.8125 1.8125 0 4.042969 0 Z M 4.042969 0 "/>
<g clip-path="url(#clip1)" clip-rule="nonzero">
<g clip-path="url(#clip2)" clip-rule="nonzero">
<path style=" stroke:none;fill-rule:nonzero;fill:rgb(27.058824%,89.019608%,100%);fill-opacity:1;" d="M 38.707031 44.25 L 37.539062 42.636719 C 37.507812 42.453125 37.359375 42.304688 37.171875 42.285156 L 37.125 42.285156 C 36.921875 41.789062 36.507812 41.40625 36 41.234375 C 36.011719 41.1875 36.011719 41.140625 36 41.09375 C 36.328125 40.605469 36.105469 40.242188 35.730469 39.921875 L 35.492188 39.636719 C 34.617188 39.515625 34.992188 38.390625 34.3125 38.085938 C 34.011719 38.460938 34.15625 38.835938 34.171875 39.179688 C 33.742188 40.726562 33.164062 40.835938 31.820312 39.660156 C 31.757812 39.59375 31.664062 39.578125 31.582031 39.617188 C 31.429688 39.226562 31.851562 39.132812 32 38.867188 C 32.152344 38.117188 31.617188 38.527344 31.359375 38.484375 L 30.863281 38.25 C 30.792969 38.289062 30.707031 38.269531 30.660156 38.203125 L 30.398438 38.414062 L 29.738281 38.414062 C 29.6875 38.460938 29.652344 38.523438 29.640625 38.585938 C 29.582031 38.578125 29.523438 38.617188 29.507812 38.671875 C 29.136719 38.882812 29.355469 39.636719 28.671875 39.539062 C 27.921875 38.714844 27.5 39.257812 27.171875 39.960938 C 27.109375 39.984375 27.046875 40 26.976562 40.007812 C 26.902344 40.429688 25.9375 40.238281 26.289062 40.980469 L 25.375 41.6875 C 24.75 41.96875 23.976562 41.929688 23.5 42.53125 C 22.640625 42.75 22.820312 43.429688 22.820312 44.03125 C 22.835938 44.40625 22.921875 44.773438 23.0625 45.117188 C 23.101562 45.410156 23.273438 45.667969 23.527344 45.820312 C 23.527344 46.375 23.78125 46.875 23.796875 47.445312 C 23.8125 48.015625 24.179688 48.492188 24.90625 48.113281 C 25.28125 47.96875 25.5 47.484375 26 47.632812 C 26 47.570312 26.078125 47.519531 26.117188 47.453125 L 26.757812 47.453125 C 27.117188 47.519531 27.171875 47.242188 27.261719 47 L 27.6875 46.777344 C 28.742188 46.25 29.964844 46.171875 31.078125 46.554688 C 31.402344 46.867188 31.25 47.695312 32.0625 47.460938 C 32.351562 47.554688 32.554688 47.8125 32.578125 48.113281 L 32.976562 48.15625 C 33.328125 49.273438 33.984375 49.890625 35.226562 49.546875 C 35.304688 49.546875 35.414062 49.632812 35.511719 49.6875 C 36.839844 49.828125 37.28125 48.9375 37.617188 47.910156 C 37.914062 47.773438 38.179688 47.617188 38.085938 47.21875 L 38.476562 46.507812 C 38.476562 46.375 38.476562 46.230469 38.511719 46.09375 L 38.625 46.09375 C 39.113281 45.820312 39.054688 45.34375 39.046875 44.894531 C 39.015625 44.644531 38.898438 44.414062 38.707031 44.25 Z M 35.707031 45.625 Z M 31.597656 41.25 Z M 31.597656 41.054688 L 31.597656 41.007812 Z M 35.765625 41.695312 Z M 35.765625 41.695312 "/>
</g>
</g>
<g clip-path="url(#clip3)" clip-rule="nonzero">
<g clip-path="url(#clip4)" clip-rule="nonzero">
<path style=" stroke:none;fill-rule:nonzero;fill:rgb(27.058824%,89.019608%,100%);fill-opacity:1;" d="M 35.542969 35.84375 C 35.542969 35.1875 35.046875 35.09375 34.582031 35.007812 C 34.199219 34.914062 33.726562 34.921875 33.457031 34.6875 C 32.707031 34.0625 32.179688 34.359375 31.582031 34.804688 C 31.410156 34.804688 31.140625 34.804688 31.101562 34.589844 C 30.945312 33.601562 30.40625 33.679688 29.730469 34.070312 C 29.773438 34.132812 29.800781 34.203125 29.8125 34.273438 C 30.382812 34.679688 30.839844 35.257812 31.582031 35.382812 L 32.28125 35.617188 L 32.796875 36.367188 C 32.796875 36.539062 32.460938 36.667969 32.738281 36.875 C 33.046875 36.675781 33.21875 36.945312 33.429688 37.078125 C 33.640625 37.265625 33.921875 37.335938 34.195312 37.28125 C 34.46875 37.21875 34.699219 37.035156 34.8125 36.78125 L 35.507812 36.78125 C 35.730469 36.855469 35.757812 37.035156 35.75 37.238281 C 36.113281 37.417969 36.328125 37.867188 36.832031 37.761719 C 37.019531 37.761719 37.289062 37.515625 37.148438 37.46875 C 36.328125 37.195312 36.585938 35.875 35.542969 35.84375 Z M 35.542969 35.84375 "/>
</g>
</g>
<g clip-path="url(#clip5)" clip-rule="nonzero">
<g clip-path="url(#clip6)" clip-rule="nonzero">
<path style=" stroke:none;fill-rule:nonzero;fill:rgb(27.058824%,89.019608%,100%);fill-opacity:1;" d="M 37.8125 35.609375 C 37.5 35.796875 37.0625 35.554688 36.75 35.9375 C 37 36.195312 37.304688 36.117188 37.582031 36.140625 C 37.5 35.910156 38.332031 36.054688 37.8125 35.609375 Z M 37.8125 35.609375 "/>
</g>
</g>
<g clip-path="url(#clip7)" clip-rule="nonzero">
<g clip-path="url(#clip8)" clip-rule="nonzero">
<path style=" stroke:none;fill-rule:nonzero;fill:rgb(27.058824%,89.019608%,100%);fill-opacity:1;" d="M 23.730469 36.863281 L 22.777344 36.644531 C 22.429688 36.449219 22.101562 36.15625 21.660156 36.382812 L 19.945312 35.929688 C 20.03125 36.96875 20.796875 36.757812 21.445312 36.734375 C 21.839844 36.679688 22.085938 37.222656 22.523438 37.019531 L 23.484375 37.085938 Z M 23.730469 36.863281 "/>
</g>
</g>
<g clip-path="url(#clip9)" clip-rule="nonzero">
<g clip-path="url(#clip10)" clip-rule="nonzero">
<path style=" stroke:none;fill-rule:nonzero;fill:rgb(27.058824%,89.019608%,100%);fill-opacity:1;" d="M 27.570312 37.320312 L 28.320312 37.0625 C 27.953125 36.75 27.601562 36.5625 27.570312 37.320312 Z M 27.570312 37.320312 "/>
</g>
</g>
<g clip-path="url(#clip11)" clip-rule="nonzero">
<g clip-path="url(#clip12)" clip-rule="nonzero">
<path style=" stroke:none;fill-rule:nonzero;fill:rgb(27.058824%,89.019608%,100%);fill-opacity:1;" d="M 20.09375 34.761719 C 20.296875 34.6875 20.265625 34.554688 20.160156 34.425781 C 19.929688 34.15625 19.785156 34.484375 19.589844 34.523438 L 19.375 34.265625 L 19.15625 34.050781 C 19.042969 33.847656 19.273438 33.492188 18.875 33.414062 C 18.71875 33.34375 18.492188 33.414062 18.4375 33.140625 C 18.382812 33.15625 18.335938 33.15625 18.285156 33.140625 C 18.28125 33.070312 18.28125 33 18.285156 32.925781 C 17.996094 32.476562 17.648438 32.078125 17.25 31.726562 C 16.875 31.367188 16.453125 31.078125 15.953125 31.5625 C 16.785156 32.714844 17.625 33.863281 18.457031 35.007812 C 18.824219 35.527344 19.207031 36.03125 19.957031 35.917969 L 20.136719 34.769531 Z M 20.09375 34.761719 "/>
</g>
</g>
<g clip-path="url(#clip13)" clip-rule="nonzero">
<g clip-path="url(#clip14)" clip-rule="nonzero">
<path style=" stroke:none;fill-rule:nonzero;fill:rgb(27.058824%,89.019608%,100%);fill-opacity:1;" d="M 44.085938 2.25 L 43.992188 2.023438 C 44.039062 1.617188 43.402344 1.5 43.589844 1.042969 C 43.769531 1.042969 43.945312 1.042969 44.039062 0.867188 L 44.25 0.867188 L 44.25 0.414062 C 44.3125 0.363281 44.34375 0.289062 44.332031 0.210938 C 44.359375 -0.0625 44.328125 -0.335938 44.25 -0.601562 C 44.25 -0.789062 44.25 -0.984375 44.25 -1.179688 C 44.363281 -1.402344 44.363281 -1.664062 44.25 -1.890625 C 43.394531 -2.289062 42.445312 -2.457031 41.507812 -2.367188 C 41 -2.59375 40.476562 -2.917969 40.757812 -1.882812 C 40.882812 -1.429688 40.515625 -1.589844 40.289062 -1.640625 L 39.882812 -1.640625 C 39.667969 -2.242188 39.34375 -2.390625 38.882812 -1.867188 C 38.820312 -1.851562 38.757812 -1.851562 38.699219 -1.867188 C 38.25 -2.527344 37.695312 -2.25 37.125 -2.132812 C 36.277344 -1.90625 36.554688 -3.140625 35.851562 -3.105469 C 35.390625 -3.382812 34.8125 -3.382812 34.351562 -3.105469 L 33.898438 -3 L 32.25 -3.882812 C 31.734375 -4.492188 30.992188 -3.757812 30.445312 -4.195312 C 29.992188 -4.195312 29.648438 -4.777344 29.132812 -4.445312 C 29.046875 -4.179688 28.617188 -4.320312 28.582031 -3.992188 C 28.546875 -3.660156 28.085938 -3.742188 27.90625 -3.507812 L 27.675781 -3.449219 C 26.6875 -3.882812 25.8125 -3.375 24.914062 -3.113281 C 24.636719 -3.113281 24.53125 -3.351562 24.398438 -3.539062 C 24.328125 -3.820312 24.070312 -4.015625 23.78125 -4.011719 L 23.535156 -4.460938 C 23.707031 -4.515625 23.984375 -4.71875 23.929688 -4.734375 C 23.382812 -4.859375 22.75 -5.609375 22.359375 -5.132812 C 21.847656 -4.5 21.300781 -4.761719 20.765625 -4.65625 C 20.265625 -4.9375 19.8125 -5.40625 19.15625 -5.144531 C 19.035156 -5.210938 18.953125 -5.144531 18.890625 -5.054688 L 18.351562 -4.945312 C 18.304688 -5.078125 18.257812 -5.203125 18.203125 -5.332031 C 17.894531 -5.109375 17.59375 -5.40625 17.289062 -5.332031 L 17.289062 -5.40625 C 16.957031 -5.542969 16.679688 -5.304688 16.375 -5.273438 L 16.429688 -5.363281 L 16.582031 -5.363281 C 16.871094 -5.394531 17.125 -5.5625 17.273438 -5.8125 C 17.535156 -5.925781 17.785156 -6.0625 18.023438 -6.226562 C 18.472656 -6.578125 18.679688 -6.976562 17.9375 -7.242188 C 17.433594 -7.710938 16.671875 -7.773438 16.09375 -7.394531 L 15 -8.347656 C 14.175781 -8.398438 13.5 -8.25 13.546875 -7.25 L 12 -6.960938 L 11.601562 -7.035156 C 10.414062 -7.085938 9.234375 -6.828125 8.175781 -6.285156 C 7.90625 -6.054688 8.175781 -5.492188 7.617188 -5.429688 L 7.1875 -5.429688 C 6.96875 -5.265625 6.695312 -5.367188 6.4375 -5.296875 L 6.367188 -5.25 C 6.171875 -5.339844 5.945312 -5.339844 5.742188 -5.25 C 5.25 -4.867188 5.421875 -4.5 6.226562 -4.054688 L 6.179688 -4.054688 L 6.179688 -4 C 6.414062 -3.796875 6.382812 -3.523438 6.398438 -3.25 C 6.320312 -3.421875 6.25 -3.585938 6.1875 -3.765625 C 5.859375 -3.726562 5.523438 -3.804688 5.25 -3.992188 C 5.089844 -4.1875 4.8125 -4.257812 4.582031 -4.148438 L 3.636719 -3.945312 C 3.324219 -4.027344 2.992188 -3.953125 2.738281 -3.75 C 2.65625 -3.523438 2.773438 -3.390625 2.886719 -3.25 L 2.75 -3.039062 C 2.375 -2.289062 2.507812 -1.777344 3.300781 -1.617188 C 3.226562 -1.570312 3.1875 -1.445312 3.21875 -1.214844 C 3.21875 -1.070312 3.15625 -0.929688 3.132812 -0.789062 C 2.6875 -0.140625 1.886719 0.160156 1.125 -0.0390625 C 1.1875 -0.507812 2.046875 -0.0390625 1.929688 -0.703125 L 2.132812 -0.90625 C 2.796875 -1.65625 2.070312 -2.5 2.355469 -3.269531 L 2.054688 -3.492188 C 2.039062 -3.570312 2.039062 -3.648438 2.054688 -3.71875 C 2.40625 -3.9375 2.257812 -4.265625 2.242188 -4.570312 C 1.648438 -4.5625 0.882812 -4.792969 0.882812 -3.75 C 0.5 -3.660156 -0.015625 -3.75 0.179688 -3.046875 C 0.488281 -2.699219 -0.203125 -2.507812 0.046875 -2.167969 C 0.0820312 -2.070312 0.125 -1.976562 0.179688 -1.890625 C 0.046875 -1.953125 -0.109375 -1.976562 -0.257812 -1.949219 C -0.679688 -1.777344 -1.007812 -2.203125 -1.410156 -2.167969 C -1.6875 -2.46875 -1.957031 -2.535156 -2.203125 -2.167969 C -2.054688 -1.800781 -2.445312 -1.71875 -2.5625 -1.5 C -2.722656 -1.417969 -2.867188 -1.742188 -3.03125 -1.5 C -3.648438 -1.691406 -4.316406 -1.609375 -4.867188 -1.273438 C -5.347656 -2.234375 -5.789062 -1.273438 -6.257812 -1.273438 L -7.289062 -0.847656 C -7.589844 -0.0976562 -8.085938 -0.457031 -8.542969 -0.625 C -8.542969 -0.863281 -8.542969 -1.019531 -8.234375 -1.042969 C -7.769531 -1.042969 -7.945312 -1.3125 -8.109375 -1.53125 C -8.414062 -1.617188 -8.738281 -1.769531 -8.859375 -1.28125 C -8.953125 -0.96875 -9.105469 -0.636719 -8.773438 -0.359375 C -8.867188 -0.257812 -8.945312 -0.148438 -9.039062 -0.0546875 L -9.695312 -0.105469 C -9.882812 0.015625 -10.230469 -0.105469 -10.207031 0.300781 L -10.289062 0.300781 C -10.523438 0.472656 -10.625 0.769531 -10.554688 1.050781 L -10.679688 1.085938 C -10.949219 1.085938 -11.195312 0.695312 -11.484375 1.042969 C -11.5625 1.148438 -11.484375 1.238281 -11.363281 1.273438 C -11.355469 1.347656 -11.355469 1.421875 -11.363281 1.492188 C -12.113281 1.492188 -12.75 1.320312 -12.710938 0.359375 C -12.789062 0.242188 -12.855469 0.117188 -12.929688 0.0078125 C -13.101562 -0.132812 -13.320312 -0.242188 -13.394531 -0.480469 C -13.335938 -0.484375 -13.28125 -0.507812 -13.238281 -0.546875 C -13.160156 -0.34375 -12.96875 -0.195312 -12.75 -0.179688 L -12.632812 -0.179688 C -12.523438 -0.0390625 -12.382812 0.0703125 -12.226562 0.140625 C -11.714844 0.292969 -11.195312 0.632812 -10.726562 0.140625 C -10.585938 0.0078125 -10.453125 -0.132812 -10.328125 -0.285156 L -10.242188 -0.34375 L -10.148438 -0.492188 C -10.222656 -0.789062 -10.289062 -1.09375 -10.671875 -1.148438 C -11.054688 -1.199219 -11.421875 -1.648438 -11.835938 -1.828125 C -11.929688 -2.039062 -12.097656 -2 -12.269531 -1.949219 C -12.289062 -1.9375 -12.304688 -1.914062 -12.3125 -1.890625 C -12.609375 -1.992188 -12.96875 -1.828125 -13.214844 -2.125 C -13.289062 -2.109375 -13.359375 -2.109375 -13.429688 -2.125 C -13.4375 -2.1875 -13.4375 -2.25 -13.429688 -2.3125 L -13.867188 -2.3125 L -14.136719 -2.585938 C -14.085938 -2.652344 -14.085938 -2.742188 -14.136719 -2.804688 C -14.9375 -3.335938 -15.8125 -2.917969 -16.640625 -2.976562 L -18 -2.175781 L -18.703125 -1.9375 C -19.582031 -1.875 -19.8125 -1.070312 -20.3125 -0.554688 C -21.179688 -0.449219 -21.148438 0.25 -21.277344 0.839844 L -21.492188 1.050781 L -22.125 1.328125 L -22.171875 1.5625 L -22.695312 1.964844 C -23.195312 1.964844 -23.445312 2.421875 -23.820312 2.617188 C -24.367188 3.429688 -23.882812 4.179688 -23.695312 4.949219 C -23.214844 5.125 -22.679688 4.9375 -22.417969 4.5 L -21.75 4.359375 C -21.75 4.875 -21.53125 5.363281 -21.148438 5.707031 C -21.148438 6.039062 -21.300781 6.257812 -21.675781 6.234375 C -21.667969 6.328125 -21.621094 6.417969 -21.546875 6.476562 C -21.46875 6.539062 -21.375 6.5625 -21.277344 6.546875 C -21.164062 6.585938 -21.046875 6.53125 -21 6.421875 C -20.953125 6.464844 -20.890625 6.5 -20.828125 6.515625 C -19.46875 6.292969 -19.132812 5.84375 -19.523438 4.742188 L -19.445312 4.742188 C -19.101562 4.742188 -18.804688 4.65625 -18.78125 4.222656 C -18.789062 4.183594 -18.800781 4.148438 -18.820312 4.109375 C -18.667969 3.742188 -18.90625 3.679688 -19.125 3.609375 C -19.183594 3.5 -19.203125 3.382812 -19.1875 3.261719 C -19.195312 3.121094 -19.261719 2.992188 -19.367188 2.894531 L -19.117188 2.273438 L -18.367188 1.800781 L -18 1.800781 C -17.867188 1.699219 -17.78125 1.546875 -17.757812 1.382812 C -17.757812 1.382812 -17.757812 1.328125 -17.757812 1.304688 C -17.632812 1.019531 -17.796875 0.617188 -17.5 0.40625 L -16.34375 0.367188 C -15.863281 1.035156 -16.851562 1.0625 -16.84375 1.523438 C -17.160156 1.804688 -17.730469 1.859375 -17.707031 2.460938 C -17.671875 2.835938 -17.757812 3.210938 -17.492188 3.570312 L -17.039062 3.898438 C -16.800781 3.960938 -16.554688 4 -16.289062 4.054688 L -16.207031 4.054688 C -16.34375 4.09375 -16.464844 4.164062 -16.5625 4.265625 C -16.761719 4.351562 -16.875 4.539062 -16.761719 4.703125 C -16.011719 5.875 -16.945312 5.5 -17.46875 5.5 C -17.894531 5.707031 -17.8125 6.039062 -17.679688 6.382812 C -17.679688 6.839844 -18.261719 6.726562 -18.382812 7.070312 L -18.824219 7.027344 C -19.085938 6.726562 -19.3125 6.9375 -19.539062 7.09375 C -20.046875 7.359375 -20.660156 7.347656 -21.15625 7.054688 C -21.328125 7.296875 -21.65625 7.367188 -21.90625 7.214844 C -21.960938 7.125 -22.039062 7.054688 -22.125 7 C -22.179688 6.984375 -22.230469 6.984375 -22.28125 7 C -22.382812 6.601562 -22.226562 6.1875 -21.890625 5.953125 L -21.847656 5.707031 C -21.890625 5.550781 -21.804688 5.226562 -22.027344 5.28125 C -22.25 5.332031 -22.742188 5.476562 -22.726562 5.953125 C -22.875 6.367188 -22.613281 6.703125 -22.515625 7.085938 C -22.515625 7.222656 -22.574219 7.367188 -22.597656 7.5 C -23.320312 7.398438 -24.039062 7.734375 -24.429688 8.355469 C -24.636719 8.699219 -24.976562 8.707031 -25.296875 8.78125 C -25.695312 7.878906 -26.273438 7.070312 -27 6.398438 C -27.0625 6.300781 -27.1875 6.148438 -27.15625 6.105469 C -26.554688 5.175781 -27.515625 5.070312 -27.90625 5.007812 C -28.417969 4.929688 -28.3125 5.550781 -28.386719 5.910156 C -27.992188 6.203125 -27.914062 6.804688 -27.457031 7.042969 C -27.585938 7.265625 -27.796875 7.46875 -27.765625 7.792969 L -27.71875 7.875 L -28.148438 8.492188 C -28.125 8.546875 -28.074219 8.59375 -28.015625 8.605469 C -27.953125 8.621094 -27.886719 8.605469 -27.839844 8.5625 C -27.839844 8.867188 -27.882812 9.15625 -27.464844 9.179688 C -27.367188 9.101562 -27.25 9.039062 -27.125 9.007812 C -26.867188 9.109375 -26.578125 9.109375 -26.320312 9.007812 L -25.875 8.917969 L -25.386719 8.960938 C -25.386719 9.046875 -25.386719 9.125 -25.386719 9.210938 C -25.71875 9.765625 -26.453125 9.472656 -26.886719 9.890625 C -27.070312 10.15625 -27.601562 9.832031 -27.636719 10.34375 L -26.886719 11.265625 C -26.722656 11.644531 -26.722656 12.078125 -26.886719 12.457031 C -26.96875 12.507812 -27.015625 12.597656 -27 12.6875 C -27.851562 12.53125 -28.726562 12.511719 -29.585938 12.632812 C -29.984375 13.46875 -29.632812 14.363281 -29.765625 15.21875 C -29.765625 15.96875 -29.152344 15.4375 -28.90625 15.652344 C -28.898438 15.609375 -28.898438 15.566406 -28.90625 15.523438 C -28.6875 15.6875 -28.554688 15.992188 -28.214844 15.953125 C -27.945312 15.675781 -27.554688 15.804688 -27.234375 15.695312 C -27.148438 15.710938 -27.070312 15.734375 -26.992188 15.765625 C -26.722656 15.734375 -26.515625 15.507812 -26.511719 15.242188 C -25.679688 14.582031 -25.046875 13.707031 -24.679688 12.710938 C -24.59375 12.757812 -24.507812 12.804688 -24.429688 12.863281 C -23.804688 13.058594 -23.125 12.886719 -22.671875 12.421875 L -22.605469 12.34375 C -22.476562 12.359375 -22.34375 12.328125 -22.238281 12.257812 C -22.050781 12.84375 -21.589844 13.3125 -21 13.5 L -20.339844 13.828125 L -19.820312 14.453125 C -19.882812 14.746094 -20.066406 15 -20.324219 15.148438 C -20.578125 15.226562 -20.902344 14.84375 -21.074219 15.234375 C -21.074219 15.277344 -20.730469 15.5 -20.542969 15.652344 C -20.1875 15.652344 -19.980469 15.523438 -20.175781 15.132812 C -19.695312 15.015625 -19.28125 14.84375 -19.425781 14.21875 L -19.351562 14.21875 C -19.429688 13.648438 -19.6875 13.265625 -20.332031 13.320312 C -20.6875 13.207031 -20.640625 12.824219 -20.835938 12.570312 C -20.992188 12.40625 -21.132812 12.21875 -21.242188 12.015625 L -21.15625 11.96875 C -20.445312 11.75 -20.265625 12.765625 -19.597656 12.644531 L -19.515625 12.609375 L -18.492188 13.257812 C -18.421875 13.546875 -18.625 13.90625 -18.320312 14.136719 C -18.351562 14.367188 -18.226562 14.59375 -18.015625 14.695312 L -18 14.695312 C -17.929688 14.894531 -17.65625 15.039062 -17.828125 15.304688 C -17.535156 15.625 -17.332031 15.625 -17.03125 15.234375 C -16.582031 14.65625 -17.332031 14.542969 -17.363281 14.167969 C -17.007812 13.664062 -16.484375 13.703125 -15.96875 13.6875 C -15.765625 13.90625 -15.921875 14.324219 -15.546875 14.4375 C -15.546875 14.648438 -15.773438 14.882812 -15.488281 15.0625 C -15.195312 15.679688 -14.738281 15.929688 -14.101562 15.570312 C -14.027344 15.558594 -13.957031 15.539062 -13.890625 15.507812 C -13.523438 15.679688 -13.140625 16.109375 -12.78125 15.507812 C -12.570312 15.75 -12.074219 15.507812 -12.03125 15.960938 C -12.148438 16.796875 -12.488281 17.589844 -13.011719 18.257812 L -13.425781 18.257812 C -13.710938 17.9375 -14.179688 17.855469 -14.554688 18.0625 C -15.203125 18.226562 -15.882812 18.179688 -16.5 17.929688 C -17.117188 17.730469 -17.835938 16.679688 -18.257812 18.140625 C -18.257812 18.21875 -18.292969 18.292969 -18.304688 18.367188 C -19.222656 18.625 -19.804688 17.902344 -20.554688 17.617188 L -21.898438 17.179688 C -22.164062 17 -22.242188 16.792969 -22.011719 16.53125 C -21.703125 15.90625 -21.914062 15.5625 -22.589844 15.554688 C -23.265625 15.546875 -23.722656 15.625 -24.285156 15.667969 C -25.210938 15.5625 -26.136719 15.828125 -26.859375 16.417969 C -26.882812 16.40625 -26.90625 16.410156 -26.929688 16.421875 C -26.953125 16.429688 -26.96875 16.453125 -26.976562 16.476562 C -27.351562 16.164062 -27.804688 16.359375 -28.214844 16.28125 L -28.214844 16.199219 C -28.703125 16.417969 -28.898438 17.160156 -29.59375 17.007812 C -29.972656 17.441406 -30.140625 18.019531 -30.046875 18.585938 C -30.359375 19.410156 -31.632812 19.335938 -31.710938 20.390625 L -32.136719 20.925781 C -32.203125 20.914062 -32.265625 20.914062 -32.332031 20.925781 C -32.152344 21.472656 -33.082031 21.820312 -32.722656 22.425781 L -32.8125 22.640625 C -32.894531 23.324219 -32.679688 24.039062 -33.046875 24.6875 C -33.054688 24.742188 -33.054688 24.800781 -33.046875 24.855469 C -32.65625 25.386719 -32.859375 26.226562 -32.144531 26.59375 C -31.71875 26.820312 -31.546875 27.277344 -31.257812 27.625 L -30.789062 28.28125 L -30.5625 28.28125 C -29.875 28.460938 -29.363281 29.476562 -28.484375 28.734375 C -27.976562 28.648438 -27.460938 28.722656 -27 28.949219 L -25.15625 28.257812 L -24.234375 28.257812 L -24 28.5 C -23.9375 29.203125 -23.4375 28.929688 -23.054688 28.921875 L -22.828125 28.980469 L -22.386719 29.046875 L -22.171875 29.429688 C -22.515625 30.703125 -22.582031 31.914062 -21.261719 32.730469 C -20.914062 33.664062 -20.742188 34.65625 -20.757812 35.65625 C -21.335938 35.851562 -21.105469 36.5 -21.429688 36.847656 L -21.429688 37.042969 C -21.617188 38.3125 -20.550781 39.148438 -20.3125 40.265625 C -20.3125 40.523438 -20.398438 40.800781 -20.117188 41.015625 C -20.09375 41.082031 -20.09375 41.148438 -20.117188 41.210938 C -20.445312 41.570312 -20.023438 41.714844 -19.90625 41.960938 C -19.5 42.710938 -18.929688 43.410156 -18.96875 44.347656 C -18.96875 44.664062 -18.757812 44.820312 -18.472656 44.886719 C -18.492188 44.917969 -18.492188 44.960938 -18.472656 44.992188 L -18.210938 44.992188 L -18.210938 44.894531 C -17.109375 44.550781 -15.710938 45.074219 -14.929688 43.792969 C -14.289062 43.664062 -14.109375 43.085938 -13.792969 42.632812 L -13.605469 42.632812 C -13.265625 42.234375 -13.21875 41.664062 -13.5 41.21875 C -13.492188 41.171875 -13.515625 41.128906 -13.5625 41.117188 C -13.011719 41.117188 -12.679688 40.6875 -12.21875 40.523438 C -12.375 39.375 -12.515625 38.234375 -11.210938 37.597656 C -10.972656 37.625 -10.738281 37.523438 -10.589844 37.335938 L -10.28125 37.101562 C -10.222656 36.796875 -10.171875 36.488281 -10.109375 36.179688 C -9.507812 35.332031 -10.199219 34.582031 -10.289062 33.78125 C -10.613281 33.203125 -10.222656 32.609375 -10.328125 32.023438 C -10.078125 31.617188 -9.578125 31.394531 -9.480469 30.875 L -9.414062 30.652344 C -8.902344 30.652344 -8.664062 30.15625 -8.28125 29.945312 C -7.40625 29.320312 -6.757812 28.433594 -6.429688 27.414062 C -6.023438 27.089844 -6.257812 26.664062 -6.21875 26.265625 C -7.007812 25.921875 -7.921875 26.085938 -8.542969 26.6875 C -9.070312 26.476562 -9.164062 25.9375 -9.382812 25.507812 L -9.480469 25.507812 C -9.632812 25.25 -9.859375 25.046875 -10.132812 24.921875 L -10.8125 24.609375 C -10.808594 24.535156 -10.808594 24.460938 -10.8125 24.390625 C -11.1875 22.976562 -11.792969 21.632812 -12.609375 20.414062 L -12.863281 19.777344 L -12.375 19.328125 C -12.304688 19.304688 -12.234375 19.289062 -12.164062 19.289062 C -11.867188 20.085938 -11.398438 20.808594 -10.792969 21.40625 C -10.640625 21.78125 -10.792969 22.242188 -10.386719 22.539062 C -10.394531 22.570312 -10.394531 22.601562 -10.386719 22.632812 C -10.375 23.070312 -10.0625 23.4375 -9.636719 23.527344 L -9.554688 23.527344 C -9.414062 23.722656 -9.285156 23.929688 -9.179688 24.148438 C -9.226562 24.296875 -9.253906 24.445312 -9.257812 24.601562 C -9.28125 24.761719 -9.222656 24.921875 -9.105469 25.035156 L -8.929688 25.15625 C -8.929688 25.554688 -8.84375 25.859375 -8.355469 25.6875 C -7.867188 25.515625 -7.320312 25.265625 -6.8125 25.054688 C -6.070312 24.742188 -5.359375 24.367188 -4.679688 23.929688 L -4.265625 23.929688 L -3.097656 22.554688 C -1.945312 21.625 -2.9375 21.457031 -3.601562 21.171875 C -3.820312 20.789062 -3.914062 20.046875 -4.515625 20.910156 C -4.785156 21.304688 -5.265625 21.0625 -5.65625 21.195312 C -5.648438 21.257812 -5.648438 21.328125 -5.65625 21.390625 L -5.707031 21.390625 C -5.671875 21.335938 -5.652344 21.269531 -5.65625 21.203125 C -5.65625 20.738281 -5.820312 20.453125 -6.320312 20.453125 C -6.320312 19.757812 -7.011719 19.4375 -7.242188 18.863281 C -7.195312 18.820312 -7.167969 18.757812 -7.179688 18.6875 C -7.117188 18.695312 -7.0625 18.667969 -7.035156 18.617188 C -6.40625 18.457031 -6.089844 18.8125 -5.859375 19.320312 C -5.804688 19.539062 -5.632812 19.582031 -5.4375 19.597656 C -5.207031 20.019531 -4.6875 20.1875 -4.25 19.980469 C -4.160156 19.914062 -4.046875 19.890625 -3.933594 19.90625 C -3.820312 19.929688 -3.726562 19.992188 -3.660156 20.085938 C -3.179688 20.628906 -2.441406 20.859375 -1.742188 20.6875 L -0.113281 20.6875 L 0.34375 20.960938 C 0.472656 21.269531 0.726562 21.507812 1.042969 21.617188 C 1.460938 21.8125 0.875 22.101562 1.117188 22.3125 C 1.476562 22.3125 1.726562 22.734375 2.125 22.546875 C 2.210938 22.480469 2.257812 22.375 2.25 22.265625 C 2.3125 22.394531 2.390625 22.507812 2.453125 22.625 C 2.332031 22.800781 2.40625 23 2.453125 23.195312 C 2.382812 23.796875 2.582031 24.398438 3 24.832031 C 3.105469 25.640625 3.75 26.273438 3.75 27.125 C 4.050781 27.125 4.304688 28.109375 4.640625 27.125 C 5.1875 26.917969 4.945312 26.265625 5.296875 25.945312 C 5.417969 25.820312 5.421875 25.625 5.304688 25.5 C 5.304688 25.28125 5.304688 25.054688 5.265625 24.832031 C 5.265625 24.804688 5.265625 24.773438 5.265625 24.742188 C 5.34375 24.6875 5.40625 24.617188 5.460938 24.539062 C 5.449219 24.484375 5.449219 24.429688 5.460938 24.375 C 5.851562 24.375 6.015625 24.015625 6.3125 23.886719 C 6.351562 23.820312 6.375 23.75 6.382812 23.679688 C 6.65625 23.625 6.902344 23.472656 7.070312 23.25 C 7.777344 23.078125 7.921875 22.09375 8.738281 22.078125 C 9.171875 22.257812 9.882812 21.277344 10.09375 22.402344 C 10.164062 22.640625 10.367188 22.726562 10.570312 22.8125 C 10.625 23.109375 10.78125 23.371094 11.007812 23.5625 C 11.007812 23.9375 10.5625 24.609375 11.519531 24.449219 L 11.519531 24.359375 C 12.226562 23.894531 12.375 24.203125 12.269531 24.882812 C 12.054688 25.273438 12.617188 25.453125 12.515625 25.8125 L 12.515625 26.257812 C 12.515625 26.5 12.515625 26.742188 12.515625 27.007812 C 12.515625 27.269531 12.097656 27.292969 12.464844 27.523438 C 12.875 27.84375 13.140625 28.304688 13.214844 28.8125 L 13.214844 29.273438 C 13.53125 29.679688 13.859375 30.074219 14.46875 29.953125 C 14.46875 29.507812 14.59375 29.039062 14.296875 28.632812 C 14.230469 28.347656 13.957031 28.15625 13.664062 28.199219 L 13.570312 28.199219 L 12.945312 27.171875 L 12.890625 26.476562 C 12.90625 26.398438 12.90625 26.324219 12.898438 26.25 C 13.164062 25.335938 13.648438 25.570312 13.992188 26.125 C 14.203125 26.46875 14.574219 26.6875 14.976562 26.699219 C 15.0625 26.960938 14.882812 27.140625 14.757812 27.34375 C 15.429688 27.382812 15.660156 26.742188 16.132812 26.476562 C 16.957031 26.109375 16.769531 25.484375 16.53125 24.855469 C 16.289062 24.226562 15.113281 23.835938 15.4375 22.777344 L 15.898438 22.328125 L 16.574219 22.328125 C 16.609375 22.390625 16.65625 22.453125 16.710938 22.507812 C 16.988281 22.6875 16.296875 23.117188 16.882812 23.195312 C 17.46875 23.28125 17.234375 22.882812 17.226562 22.613281 C 17.21875 22.34375 17.617188 22.3125 17.742188 22.085938 L 18.429688 21.855469 C 18.539062 21.726562 18.773438 21.75 18.90625 21.644531 C 19.140625 21.71875 19.375 21.796875 19.574219 21.570312 C 19.578125 21.507812 19.578125 21.449219 19.574219 21.390625 C 20.671875 21.113281 20.722656 19.957031 21.34375 19.28125 C 21.40625 19.0625 21.789062 18.867188 21.390625 18.617188 C 21.617188 18.023438 21.464844 17.355469 21 16.929688 C 20.851562 16.789062 20.769531 16.59375 20.769531 16.386719 C 20.769531 16.183594 20.851562 15.988281 21 15.847656 C 21.195312 15.804688 21.53125 15.847656 21.429688 15.515625 C 21.234375 14.835938 20.796875 15.757812 20.527344 15.414062 C 20.539062 15.347656 20.523438 15.28125 20.484375 15.226562 C 20.4375 15.171875 20.375 15.140625 20.3125 15.140625 C 20 14.910156 20.101562 14.6875 20.3125 14.476562 C 20.59375 14.433594 20.839844 14.257812 20.96875 14 C 21.179688 13.949219 21.5 13.640625 21.546875 13.820312 C 21.789062 14.742188 22.992188 14.367188 23.273438 15.171875 C 23.609375 15.570312 23.210938 16.117188 23.542969 16.515625 C 24.40625 16.554688 24.898438 16.3125 24.457031 15.335938 L 24.15625 14.9375 C 24.117188 14.695312 23.820312 14.519531 23.960938 14.1875 C 24.601562 14.078125 24.710938 13.523438 24.9375 13.050781 L 25.367188 12.839844 L 25.367188 12.78125 L 25.613281 12.78125 C 25.980469 13.035156 26.273438 12.882812 26.535156 12.601562 L 27.601562 11.550781 L 27.75 11.550781 C 28.425781 11.164062 28.90625 10.507812 29.070312 9.75 C 29.058594 9.398438 29.117188 9.046875 29.25 8.714844 C 29.25 8.714844 29.25 8.664062 29.25 8.640625 C 29.269531 8.773438 29.34375 8.898438 29.453125 8.976562 C 29.429688 9.007812 29.429688 9.046875 29.453125 9.074219 L 29.398438 9.074219 C 28.921875 9.644531 28.902344 10.46875 29.355469 11.0625 C 29.460938 11.085938 29.570312 11.074219 29.671875 11.023438 C 29.675781 10.433594 29.835938 9.855469 30.132812 9.34375 C 30.15625 9.09375 30.070312 8.839844 29.894531 8.65625 C 29.804688 8.289062 30.148438 7.75 29.730469 7.554688 C 29.3125 7.359375 29.648438 8.152344 29.21875 8.152344 C 29.109375 7.914062 29.117188 7.613281 28.851562 7.453125 L 28.507812 7.042969 L 28.054688 7.28125 L 27.601562 7.28125 C 27.351562 7.050781 27.03125 6.890625 26.902344 6.53125 L 27.148438 6.328125 L 27.367188 6.097656 L 28.582031 5.25 C 29.519531 4.117188 30.773438 4.199219 32.046875 4.351562 L 32.289062 4.101562 L 32.742188 4.171875 C 32.882812 4.203125 33.007812 4.257812 33.125 4.335938 C 33.125 4.617188 33.277344 4.703125 33.652344 4.582031 C 34.027344 4.460938 34.402344 4.417969 34.402344 3.875 C 34.695312 3.742188 34.921875 3.488281 35.023438 3.179688 L 35.09375 2.953125 L 35.757812 2.859375 C 36.304688 2.742188 36.457031 3.609375 37.0625 3.375 C 37.507812 3.375 37.742188 3.03125 38.0625 2.828125 C 37.929688 2.972656 37.898438 3.179688 37.972656 3.359375 C 37.785156 3.285156 37.65625 3.304688 37.605469 3.480469 C 37.515625 3.496094 37.433594 3.535156 37.367188 3.59375 C 37.1875 4.1875 36.445312 4.242188 36.226562 4.800781 C 35.9375 4.867188 35.65625 4.929688 35.542969 5.257812 L 35.3125 5.511719 C 34.5625 5.976562 35.015625 6.703125 34.9375 7.3125 C 34.9375 7.394531 34.9375 7.476562 34.882812 7.570312 C 35.117188 7.90625 35.015625 8.585938 35.742188 8.421875 C 36.039062 8.304688 35.976562 8.039062 36 7.804688 L 36.414062 7.769531 C 36.542969 7.46875 36.730469 7.195312 36.96875 6.96875 C 37.5625 6.601562 37.78125 5.847656 37.476562 5.21875 C 37.476562 5.054688 37.035156 4.949219 37.3125 4.828125 C 37.769531 4.617188 37.804688 4.171875 38.0625 3.863281 C 38.324219 3.863281 38.601562 3.976562 38.8125 3.695312 C 38.882812 3.707031 38.953125 3.679688 39 3.632812 C 39.015625 3.589844 39.046875 3.554688 39.089844 3.539062 L 39 3.632812 L 39.695312 3.578125 L 40.617188 3.644531 C 40.902344 3.609375 41.140625 3.421875 41.25 3.15625 C 42 2.984375 42.53125 2.40625 43.328125 2.40625 C 43.605469 2.398438 43.90625 2.550781 44.085938 2.25 Z M -19.757812 25.207031 L -19.921875 25.207031 Z M -17.796875 29.460938 Z M -14.101562 24.609375 Z M -17.789062 24.609375 L -17.851562 24.609375 Z M -20.289062 29.109375 L -20.347656 29.109375 L -20.25 29.109375 Z M -13.859375 29.40625 Z M -30.480469 24.570312 Z M -27 20.6875 Z M -27 24.59375 Z M -26.742188 24.59375 C -26.75 24.632812 -26.75 24.667969 -26.742188 24.703125 Z M -27 21.148438 Z M -20.363281 29.25 C -20.3125 29.363281 -20.40625 29.25 -20.363281 29.195312 C -20.367188 29.214844 -20.367188 29.234375 -20.363281 29.25 Z M -13.875 29.625 Z M -22.179688 24.59375 Z M -18.257812 40.972656 Z M 15.53125 -5.175781 C 15.582031 -5.105469 15.640625 -5.042969 15.703125 -4.988281 C 15.570312 -4.921875 15.453125 -4.828125 15.359375 -4.710938 C 15.316406 -4.71875 15.269531 -4.71875 15.226562 -4.710938 C 15.1875 -4.890625 15.265625 -5.070312 15.421875 -5.167969 L 15.53125 -5.167969 Z M -13.867188 -1.011719 Z M -13.867188 -0.773438 Z M 10.820312 -0.839844 L 10.859375 -0.789062 L 10.820312 -0.789062 Z M -1.402344 7.546875 Z M 11.054688 3.148438 Z M 15.195312 12.414062 L 15.242188 12.414062 C 15.226562 12.40625 15.210938 12.40625 15.195312 12.414062 Z M 15.449219 12.367188 Z M 15.449219 3.367188 L 15.449219 3.292969 C 15.441406 3.320312 15.441406 3.347656 15.449219 3.375 Z M 6.449219 7.757812 Z M 15.449219 3.140625 Z M 19.148438 3.140625 Z M -5.78125 3.382812 Z M -1.402344 15.832031 Z M 2.519531 16.0625 L 2.519531 16.007812 L 2.519531 16.101562 Z M 15.449219 16.0625 L 15.488281 16.0625 Z M 27.449219 -0.820312 C 27.449219 -0.820312 27.429688 -0.75 27.429688 -0.796875 Z M 23.742188 -0.75 C 23.742188 -0.75 23.742188 -0.75 23.742188 -0.796875 Z M 19.359375 -0.75 Z M 19.125 -0.75 Z M 2.511719 3.171875 Z M -1.402344 -0.75 L -1.402344 -0.855469 C -1.40625 -0.820312 -1.40625 -0.785156 -1.402344 -0.75 Z M -6.976562 14.460938 C -6.816406 14.328125 -6.71875 14.132812 -6.707031 13.925781 C -6.695312 13.71875 -6.773438 13.515625 -6.914062 13.367188 C -7.210938 13.113281 -7.414062 12.773438 -7.5 12.398438 C -7.5 12.164062 -7.582031 11.929688 -7.625 11.707031 L -7.109375 11.28125 L -5.820312 10.742188 C -5.175781 10.980469 -4.957031 11.265625 -5.730469 11.632812 C -5.960938 11.742188 -6.25 11.8125 -6.097656 12.171875 C -6.171875 12.660156 -5.40625 12.734375 -5.570312 13.257812 C -5.414062 13.429688 -5.304688 13.445312 -5.210938 13.382812 C -5.160156 13.453125 -5.117188 13.53125 -5.078125 13.613281 C -5.179688 13.617188 -5.28125 13.65625 -5.363281 13.71875 C -5.828125 14.339844 -4.859375 14.273438 -4.898438 14.695312 L -4.898438 15.652344 C -4.921875 15.605469 -4.949219 15.5625 -4.980469 15.515625 C -5.328125 15.28125 -5.796875 15.296875 -6.125 15.5625 C -6.191406 15.550781 -6.257812 15.550781 -6.320312 15.5625 L -6.445312 15.617188 C -7.007812 15.351562 -6.921875 14.882812 -6.976562 14.460938 Z M 19.125 16.070312 Z M 19.351562 16.070312 Z M 36 -1.019531 C 35.984375 -1 35.972656 -0.984375 35.960938 -0.960938 Z M 35.742188 -2.519531 C 35.65625 -2.476562 35.742188 -2.554688 35.742188 -2.5625 Z M -1.875 16.320312 L -1.875 16.417969 C -1.875 16.382812 -1.875 16.351562 -1.929688 16.320312 Z M -1.875 18.8125 Z M 6.898438 22.757812 Z M 38.511719 2.945312 Z M -15.34375 3.75 L -15.203125 3.75 L -15.257812 3.796875 C -15.359375 3.882812 -15.484375 3.945312 -15.625 3.96875 C -15.515625 3.917969 -15.417969 3.84375 -15.34375 3.75 Z M -13.75 13.5 C -14.101562 13.203125 -14.625 13.226562 -14.953125 13.554688 C -15.039062 12.546875 -14.265625 11.886719 -13.921875 11.054688 C -13.761719 11.367188 -13.425781 11.476562 -13.109375 11.609375 L -13.0625 11.609375 C -13.148438 11.886719 -12.96875 12.015625 -12.667969 12.007812 C -12.496094 11.972656 -12.335938 11.90625 -12.1875 11.8125 L -12.523438 11.535156 C -12.367188 11.457031 -12.234375 11.335938 -12.140625 11.1875 C -12.117188 11.136719 -12.078125 11.089844 -12.039062 11.046875 C -11.886719 11.03125 -11.742188 10.992188 -11.601562 10.929688 L -11.429688 10.964844 C -11.1875 10.964844 -10.921875 10.964844 -11.195312 11.304688 C -11.210938 11.335938 -11.210938 11.367188 -11.195312 11.398438 C -11.390625 11.578125 -11.773438 11.75 -11.195312 11.992188 L -11.085938 11.992188 C -11.117188 12.027344 -11.160156 12.054688 -11.203125 12.074219 C -11.179688 12.234375 -11.085938 12.367188 -10.953125 12.449219 C -10.8125 12.527344 -10.648438 12.539062 -10.5 12.480469 C -10.589844 12.929688 -10.304688 13.117188 -9.90625 13.230469 C -9.824219 13.296875 -9.820312 13.125 -9.773438 13.117188 C -9.78125 13.144531 -9.789062 13.171875 -9.8125 13.195312 C -9.835938 13.242188 -9.835938 13.300781 -9.8125 13.351562 C -10.148438 13.28125 -10.265625 13.554688 -10.410156 13.785156 C -10.539062 13.773438 -10.671875 13.773438 -10.800781 13.785156 C -11.242188 13.71875 -11.75 13.785156 -12.046875 13.367188 C -12.578125 13.039062 -13.253906 13.074219 -13.75 13.453125 Z M -13.75 13.5 "/>
</g>
</g>
<g clip-path="url(#clip15)" clip-rule="nonzero">
<g clip-path="url(#clip16)" clip-rule="nonzero">
<path style=" stroke:none;fill-rule:nonzero;fill:rgb(27.058824%,89.019608%,100%);fill-opacity:1;" d="M 23.046875 33.15625 C 22.515625 32.820312 22 33.644531 21.449219 33.15625 C 21.351562 33.070312 21.15625 33.210938 21.203125 33.40625 C 21.300781 33.914062 21.59375 34.695312 21.875 34.6875 C 22.574219 34.6875 23.273438 35.5625 23.960938 34.742188 C 24.15625 33.898438 25.273438 33.242188 24.523438 32.195312 C 24.367188 31.761719 24.074219 31.820312 23.773438 31.992188 C 23.773438 32.421875 23.597656 32.828125 23.289062 33.117188 Z M 23.046875 33.15625 "/>
</g>
</g>
<g clip-path="url(#clip17)" clip-rule="nonzero">
<g clip-path="url(#clip18)" clip-rule="nonzero">
<path style=" stroke:none;fill-rule:nonzero;fill:rgb(27.058824%,89.019608%,100%);fill-opacity:1;" d="M 26.007812 33.375 C 26.4375 33.675781 27.007812 33.675781 27.4375 33.375 L 27.4375 32.929688 C 27.039062 33.351562 26.375 32.902344 26.007812 33.375 Z M 26.007812 33.375 "/>
</g>
</g>
<g clip-path="url(#clip19)" clip-rule="nonzero">
<g clip-path="url(#clip20)" clip-rule="nonzero">
<path style=" stroke:none;fill-rule:nonzero;fill:rgb(27.058824%,89.019608%,100%);fill-opacity:1;" d="M 28.375 32.953125 C 28.292969 33.285156 28.367188 33.632812 28.574219 33.898438 C 29.144531 33.125 29.132812 33.054688 28.375 32.953125 Z M 28.375 32.953125 "/>
</g>
</g>
<g clip-path="url(#clip21)" clip-rule="nonzero">
<g clip-path="url(#clip22)" clip-rule="nonzero">
<path style=" stroke:none;fill-rule:nonzero;fill:rgb(27.058824%,89.019608%,100%);fill-opacity:1;" d="M 25.5 35.886719 C 25.761719 35.605469 25.808594 35.183594 25.613281 34.851562 C 25.703125 34.910156 25.804688 34.941406 25.914062 34.945312 C 25.898438 35.046875 25.933594 35.152344 26.007812 35.226562 C 26.175781 35.429688 26.347656 35.511719 26.511719 35.226562 L 26.25 34.761719 C 26.132812 34.46875 26.367188 34.289062 26.484375 34.070312 C 26.1875 33.71875 25.84375 34.296875 25.546875 34.011719 L 25.546875 34.070312 L 25.597656 34.070312 C 24.644531 34.648438 25.304688 35.25 25.5 35.886719 Z M 25.5 35.886719 "/>
</g>
</g>
<g clip-path="url(#clip23)" clip-rule="nonzero">
<g clip-path="url(#clip24)" clip-rule="nonzero">
<path style=" stroke:none;fill-rule:nonzero;fill:rgb(27.058824%,89.019608%,100%);fill-opacity:1;" d="M 20.910156 21.660156 C 20.960938 21.765625 21.046875 21.859375 21.148438 21.921875 C 21.523438 21.660156 21.449219 21.171875 21.71875 20.617188 C 21.070312 20.886719 20.78125 21.148438 20.910156 21.660156 Z M 20.910156 21.660156 "/>
</g>
</g>
<g clip-path="url(#clip25)" clip-rule="nonzero">
<g clip-path="url(#clip26)" clip-rule="nonzero">
<path style=" stroke:none;fill-rule:nonzero;fill:rgb(27.058824%,89.019608%,100%);fill-opacity:1;" d="M 18.6875 29.925781 C 19.125 29.925781 19.101562 29.554688 19.140625 29.257812 C 19.492188 28.851562 20.40625 29.492188 20.476562 28.546875 C 20.046875 28.394531 19.664062 27.867188 19.15625 28.386719 L 18.675781 28.992188 C 18.515625 29.160156 18.359375 29.320312 18.210938 29.484375 C 17.835938 29.632812 17.414062 29.714844 17.226562 30.148438 C 17.710938 30.394531 18.300781 30.304688 18.6875 29.925781 Z M 18.6875 29.925781 "/>
</g>
</g>
<g clip-path="url(#clip27)" clip-rule="nonzero">
<g clip-path="url(#clip28)" clip-rule="nonzero">
<path style=" stroke:none;fill-rule:nonzero;fill:rgb(27.058824%,89.019608%,100%);fill-opacity:1;" d="M 28.429688 14.527344 C 28.359375 14.742188 28.273438 14.953125 28.164062 15.15625 L 27.984375 15.421875 C 27.828125 15.34375 27.644531 15.34375 27.488281 15.421875 L 27.140625 16.078125 C 27.082031 16.171875 26.976562 16.214844 26.902344 16.296875 L 25.8125 16.296875 L 25.726562 16.5 C 25.476562 16.605469 25.523438 16.785156 25.589844 16.980469 C 25.851562 17.160156 26.171875 17.242188 26.492188 17.203125 C 26.667969 17.023438 26.699219 16.746094 26.5625 16.53125 L 26.835938 16.570312 L 26.835938 16.617188 C 26.914062 16.789062 27.070312 16.914062 27.257812 16.949219 C 27.5625 16.707031 27.9375 16.550781 28.328125 16.5 C 28.613281 16.453125 29.144531 16.5 29.023438 15.875 C 29.023438 15.171875 30 14.59375 29.265625 13.804688 C 29.160156 13.386719 29.109375 13.011719 29.742188 13.101562 C 30.382812 13.195312 30.5625 12.960938 30.257812 12.351562 L 29.75 11.742188 C 29.398438 11.742188 29.296875 12.0625 29.179688 12.328125 C 29.175781 12.378906 29.175781 12.429688 29.179688 12.480469 L 29.054688 12.480469 C 28.78125 12.5 28.542969 12.671875 28.429688 12.921875 C 28.304688 13.234375 28.429688 13.59375 28.71875 13.769531 L 28.792969 13.769531 C 28.617188 13.992188 28.492188 14.25 28.429688 14.527344 Z M 28.429688 14.527344 "/>
</g>
</g>
<g clip-path="url(#clip29)" clip-rule="nonzero">
<g clip-path="url(#clip30)" clip-rule="nonzero">
<path style=" stroke:none;fill-rule:nonzero;fill:rgb(27.058824%,89.019608%,100%);fill-opacity:1;" d="M 24.882812 17.714844 L 25.117188 18.03125 C 25.304688 17.941406 25.445312 17.773438 25.5 17.570312 C 25.550781 17.371094 25.507812 17.15625 25.386719 16.988281 C 24.8125 16.949219 24.6875 17.25 24.882812 17.714844 Z M 24.882812 17.714844 "/>
</g>
</g>
<g clip-path="url(#clip31)" clip-rule="nonzero">
<g clip-path="url(#clip32)" clip-rule="nonzero">
<path style=" stroke:none;fill-rule:nonzero;fill:rgb(27.058824%,89.019608%,100%);fill-opacity:1;" d="M 23.3125 27.601562 C 23.3125 27.40625 23.3125 27.179688 23.046875 27.113281 L 22.613281 27.445312 C 22.242188 27.304688 21.828125 27.476562 21.667969 27.839844 L 21.890625 27.90625 C 22.125 27.804688 22.320312 27.789062 22.410156 28.085938 C 22.5 28.386719 22.6875 28.242188 22.8125 28.335938 C 22.945312 28.425781 23.078125 28.296875 23.132812 28.148438 C 23.132812 28.125 23.132812 28.097656 23.132812 28.070312 L 23.25 28.070312 C 23.390625 27.921875 23.632812 27.789062 23.3125 27.601562 Z M 23.3125 27.601562 "/>
</g>
</g>
<g clip-path="url(#clip33)" clip-rule="nonzero">
<g clip-path="url(#clip34)" clip-rule="nonzero">
<path style=" stroke:none;fill-rule:nonzero;fill:rgb(27.058824%,89.019608%,100%);fill-opacity:1;" d="M 21.292969 23.484375 C 21.023438 23.847656 20.921875 24.304688 21 24.75 C 21 24.804688 21.097656 24.847656 21.148438 24.898438 C 21.089844 25.648438 21.710938 25.5 22.140625 25.589844 C 22.203125 25.375 22.101562 25.152344 21.898438 25.054688 L 21.464844 24.855469 C 21.53125 24.6875 21.601562 24.515625 21.679688 24.351562 C 21.945312 23.773438 21.609375 23.152344 21.292969 23.484375 Z M 21.292969 23.484375 "/>
</g>
</g>
<g clip-path="url(#clip35)" clip-rule="nonzero">
<g clip-path="url(#clip36)" clip-rule="nonzero">
<path style=" stroke:none;fill-rule:nonzero;fill:rgb(27.058824%,89.019608%,100%);fill-opacity:1;" d="M 22.164062 26.578125 C 21.976562 26.519531 21.90625 26.648438 21.90625 26.8125 C 21.929688 26.929688 21.964844 27.050781 22.007812 27.164062 C 22.109375 27.023438 22.199219 26.945312 22.214844 26.859375 C 22.230469 26.765625 22.207031 26.59375 22.164062 26.578125 Z M 22.164062 26.578125 "/>
</g>
</g>
<g clip-path="url(#clip37)" clip-rule="nonzero">
<g clip-path="url(#clip38)" clip-rule="nonzero">
<path style=" stroke:none;fill-rule:nonzero;fill:rgb(27.058824%,89.019608%,100%);fill-opacity:1;" d="M 5.398438 27.105469 C 5.023438 27.03125 5.039062 27.367188 5.039062 27.644531 C 5.019531 27.796875 5.058594 27.949219 5.152344 28.070312 C 5.246094 28.1875 5.382812 28.265625 5.535156 28.28125 C 5.796875 28.28125 5.976562 28.199219 5.945312 27.867188 C 5.78125 27.617188 5.78125 27.171875 5.398438 27.105469 Z M 5.398438 27.105469 "/>
</g>
</g>
</g>
</svg>
