
<svg xmlns="http://www.w3.org/2000/svg" xmlns:xlink="http://www.w3.org/1999/xlink" width="48px" height="48px" viewBox="0 0 48 48" version="1.1">
<g id="surface1">
<path style=" stroke:none;fill-rule:nonzero;fill:rgb(36.078431%,41.960784%,75.294118%);fill-opacity:1;" d="M 4.042969 0 L 43.957031 0 C 46.1875 0 48 1.8125 48 4.042969 L 48 43.957031 C 48 46.1875 46.1875 48 43.957031 48 L 4.042969 48 C 1.8125 48 0 46.1875 0 43.957031 L 0 4.042969 C 0 1.8125 1.8125 0 4.042969 0 Z M 4.042969 0 "/>
<path style=" stroke:none;fill-rule:nonzero;fill:rgb(100%,100%,100%);fill-opacity:1;" d="M 25.605469 16.164062 L 24.5 16.164062 L 24.5 20.886719 C 24.988281 21.085938 25.304688 21.5625 25.304688 22.085938 L 25.304688 25.085938 C 25.304688 25.808594 24.71875 26.390625 24 26.390625 C 23.28125 26.390625 22.695312 25.808594 22.695312 25.085938 L 22.695312 22.085938 C 22.695312 21.5625 23.011719 21.085938 23.5 20.886719 L 23.5 16.164062 L 22.394531 16.164062 C 18.515625 16.175781 15.375 19.316406 15.359375 23.195312 L 15.359375 31.632812 C 15.628906 36.203125 19.410156 39.765625 23.984375 39.765625 C 28.558594 39.765625 32.339844 36.203125 32.609375 31.632812 L 32.609375 23.195312 C 32.597656 19.328125 29.472656 16.191406 25.605469 16.164062 Z M 25.605469 16.164062 "/>
<path style=" stroke:none;fill-rule:nonzero;fill:rgb(16.078431%,71.372549%,96.470588%);fill-opacity:1;" d="M 24.675781 16.164062 L 23.476562 16.164062 L 23.476562 15.5625 C 23.476562 13.90625 24.820312 12.5625 26.476562 12.5625 L 28.6875 12.5625 C 29.6875 12.5625 30.492188 11.753906 30.492188 10.757812 C 30.492188 9.757812 29.6875 8.945312 28.6875 8.945312 L 17.507812 8.945312 L 17.507812 7.726562 L 28.695312 7.726562 C 30.351562 7.726562 31.695312 9.070312 31.695312 10.726562 C 31.695312 12.382812 30.351562 13.726562 28.695312 13.726562 L 26.484375 13.726562 C 25.484375 13.726562 24.675781 14.535156 24.675781 15.53125 Z M 24.675781 16.164062 "/>
</g>
</svg>
