
<svg xmlns="http://www.w3.org/2000/svg" xmlns:xlink="http://www.w3.org/1999/xlink" width="48px" height="48px" viewBox="0 0 48 48" version="1.1">
<g id="surface1">
<path style=" stroke:none;fill-rule:nonzero;fill:rgb(49.411765%,34.117647%,76.862745%);fill-opacity:1;" d="M 4.042969 0 L 43.957031 0 C 46.1875 0 48 1.8125 48 4.042969 L 48 43.957031 C 48 46.1875 46.1875 48 43.957031 48 L 4.042969 48 C 1.8125 48 0 46.1875 0 43.957031 L 0 4.042969 C 0 1.8125 1.8125 0 4.042969 0 Z M 4.042969 0 "/>
<path style=" stroke:none;fill-rule:nonzero;fill:rgb(92.54902%,25.098039%,47.843137%);fill-opacity:1;" d="M 26.917969 20.167969 C 28.410156 19.191406 29.3125 17.53125 29.324219 15.75 L 29.324219 14.0625 C 29.320312 11.125 26.9375 8.742188 24 8.738281 C 21.0625 8.742188 18.679688 11.125 18.675781 14.0625 L 18.675781 15.75 C 18.679688 17.539062 19.585938 19.210938 21.082031 20.1875 L 21.082031 21.445312 C 21.082031 22.09375 20.734375 22.691406 20.167969 23.007812 L 15.515625 25.632812 C 13.542969 26.75 12.320312 28.835938 12.320312 31.101562 L 12.320312 33.492188 L 19.640625 33.492188 L 24 30.492188 L 25.5 30.695312 L 28.5 33.472656 L 35.714844 33.472656 L 35.714844 31.078125 C 35.714844 28.8125 34.492188 26.726562 32.519531 25.613281 L 27.867188 22.988281 C 27.304688 22.667969 26.953125 22.070312 26.953125 21.421875 L 26.953125 20.167969 "/>
<path style=" stroke:none;fill-rule:nonzero;fill:rgb(100%,100%,100%);fill-opacity:1;" d="M 28.605469 29.453125 L 28.351562 29.453125 L 28.351562 26.953125 C 28.351562 25.378906 27.078125 24.101562 25.5 24.097656 L 22.695312 24.097656 C 21.117188 24.101562 19.84375 25.378906 19.84375 26.953125 L 19.84375 29.453125 L 19.394531 29.453125 C 19.078125 29.453125 18.769531 29.578125 18.542969 29.804688 C 18.320312 30.03125 18.195312 30.339844 18.195312 30.660156 L 18.195312 38.0625 C 18.195312 38.382812 18.320312 38.6875 18.546875 38.914062 C 18.769531 39.140625 19.078125 39.265625 19.394531 39.261719 L 28.605469 39.261719 C 29.265625 39.261719 29.804688 38.726562 29.804688 38.0625 L 29.804688 30.660156 C 29.804688 29.996094 29.269531 29.457031 28.605469 29.453125 Z M 24.578125 34.296875 L 24.578125 36.75 C 24.578125 37.070312 24.320312 37.328125 24 37.328125 C 23.679688 37.328125 23.421875 37.070312 23.421875 36.75 L 23.421875 34.296875 C 22.742188 34.023438 22.351562 33.300781 22.492188 32.578125 C 22.632812 31.855469 23.265625 31.335938 24 31.335938 C 24.734375 31.335938 25.367188 31.855469 25.507812 32.578125 C 25.648438 33.300781 25.257812 34.023438 24.578125 34.296875 Z M 26.828125 29.453125 L 21.34375 29.453125 L 21.34375 26.953125 C 21.34375 26.210938 21.949219 25.605469 22.695312 25.605469 L 25.5 25.605469 C 26.246094 25.605469 26.851562 26.210938 26.851562 26.953125 Z M 26.828125 29.453125 "/>
</g>
</svg>
