
<svg xmlns="http://www.w3.org/2000/svg" xmlns:xlink="http://www.w3.org/1999/xlink" width="48px" height="48px" viewBox="0 0 48 48" version="1.1">
<defs>
<linearGradient id="linear0" gradientUnits="userSpaceOnUse" x1="-571.81" y1="-2840.37" x2="-571.81" y2="-2826.56" gradientTransform="matrix(0.53033,-0.53033,0.53033,0.53033,1828.143591,1222.027509)">
<stop offset="0" style="stop-color:rgb(100%,100%,100%);stop-opacity:0;"/>
<stop offset="1" style="stop-color:rgb(100%,100%,100%);stop-opacity:1;"/>
</linearGradient>
</defs>
<g id="surface1">
<path style=" stroke:none;fill-rule:nonzero;fill:rgb(36.078431%,41.960784%,75.294118%);fill-opacity:1;" d="M 4.042969 0 L 43.957031 0 C 46.1875 0 48 1.8125 48 4.042969 L 48 43.957031 C 48 46.1875 46.1875 48 43.957031 48 L 4.042969 48 C 1.8125 48 0 46.1875 0 43.957031 L 0 4.042969 C 0 1.8125 1.8125 0 4.042969 0 Z M 4.042969 0 "/>
<path style=" stroke:none;fill-rule:nonzero;fill:rgb(100%,100%,100%);fill-opacity:1;" d="M 21.90625 11.5625 C 22.375 11.539062 22.835938 11.703125 23.179688 12.015625 L 34.5 23.332031 L 38.4375 27.269531 C 39.71875 28.554688 38.160156 32.179688 34.964844 35.375 C 32.527344 37.8125 29.835938 39.300781 28.125 39.300781 C 27.65625 39.328125 27.195312 39.164062 26.851562 38.851562 L 11.585938 23.585938 C 10.304688 22.304688 11.859375 18.675781 15.0625 15.472656 C 17.5 13.035156 20.179688 11.550781 21.890625 11.550781 M 21.890625 10.425781 C 19.804688 10.425781 16.882812 12.054688 14.265625 14.679688 C 11 18 8.757812 22.351562 10.804688 24.398438 L 25.054688 38.648438 L 26.070312 39.660156 C 26.628906 40.179688 27.375 40.453125 28.140625 40.410156 C 30.226562 40.410156 33.148438 38.78125 35.773438 36.15625 C 37.296875 34.6875 38.53125 32.953125 39.429688 31.035156 C 40.574219 28.359375 39.804688 27.015625 39.25 26.460938 L 35.296875 22.5 L 24 11.25 C 23.441406 10.726562 22.695312 10.460938 21.929688 10.5 Z M 21.890625 10.425781 "/>
<path style=" stroke:none;fill-rule:nonzero;fill:url(#linear0);" d="M 11.601562 23.601562 L 23.179688 12.023438 L 32.175781 21.015625 L 20.59375 32.597656 Z M 11.601562 23.601562 "/>
<path style=" stroke:none;fill-rule:nonzero;fill:rgb(100%,100%,100%);fill-opacity:1;" d="M 23.179688 12.015625 C 21.898438 10.734375 18.269531 12.289062 15.070312 15.484375 C 11.875 18.6875 10.316406 22.316406 11.597656 23.59375 C 12.875 24.875 16.507812 23.320312 19.703125 20.121094 C 22.90625 16.921875 24.460938 13.292969 23.179688 12.015625 Z M 23.179688 12.015625 "/>
<path style=" stroke:none;fill-rule:nonzero;fill:rgb(70.196078%,70.196078%,70.196078%);fill-opacity:1;" d="M 19.359375 12.835938 C 18.589844 12.070312 16.414062 13 14.5 14.914062 C 12.585938 16.828125 11.65625 19.007812 12.421875 19.773438 C 13.1875 20.539062 15.363281 19.609375 17.28125 17.695312 C 19.195312 15.777344 20.125 13.601562 19.359375 12.835938 Z M 19.359375 12.835938 "/>
<path style=" stroke:none;fill-rule:nonzero;fill:rgb(100%,100%,100%);fill-opacity:1;" d="M 18.179688 11.726562 C 17.410156 10.960938 15.234375 11.890625 13.320312 13.804688 C 11.40625 15.71875 10.472656 17.898438 11.242188 18.664062 C 12.007812 19.429688 14.183594 18.5 16.101562 16.585938 C 18.015625 14.667969 18.945312 12.492188 18.179688 11.726562 Z M 18.179688 11.726562 "/>
<path style=" stroke:none;fill-rule:nonzero;fill:rgb(16.078431%,71.372549%,96.470588%);fill-opacity:1;" d="M 22.914062 34.914062 L 26.851562 38.851562 C 28.132812 40.132812 31.761719 38.578125 34.964844 35.375 C 38.167969 32.175781 39.71875 28.554688 38.4375 27.269531 L 34.5 23.332031 Z M 22.914062 34.914062 "/>
<path style=" stroke:none;fill-rule:nonzero;fill:rgb(100%,100%,100%);fill-opacity:1;" d="M 34.492188 23.335938 C 33.210938 22.054688 29.582031 23.609375 26.382812 26.808594 C 23.1875 30.007812 21.628906 33.640625 22.910156 34.917969 C 24.1875 36.195312 27.820312 34.640625 31.015625 31.445312 C 34.21875 28.246094 35.773438 24.617188 34.492188 23.335938 Z M 34.492188 23.335938 "/>
<path style=" stroke:none;fill-rule:nonzero;fill:rgb(16.078431%,71.372549%,96.470588%);fill-opacity:1;" d="M 17.929688 29.929688 L 21.867188 33.867188 C 23.152344 35.152344 26.78125 33.601562 29.984375 30.398438 C 33.1875 27.195312 34.742188 23.570312 33.457031 22.289062 L 29.519531 18.351562 Z M 17.929688 29.929688 "/>
<path style=" stroke:none;fill-rule:nonzero;fill:rgb(100%,100%,100%);fill-opacity:1;" d="M 29.511719 18.355469 C 28.234375 17.078125 24.601562 18.632812 21.402344 21.828125 C 18.203125 25.027344 16.648438 28.65625 17.929688 29.9375 C 19.210938 31.21875 22.839844 29.664062 26.039062 26.464844 C 29.234375 23.265625 30.789062 19.632812 29.511719 18.355469 Z M 29.511719 18.355469 "/>
</g>
</svg>
