
<svg xmlns="http://www.w3.org/2000/svg" xmlns:xlink="http://www.w3.org/1999/xlink" width="48px" height="48px" viewBox="0 0 48 48" version="1.1">
<g id="surface1">
<path style=" stroke:none;fill-rule:nonzero;fill:rgb(92.54902%,25.098039%,47.843137%);fill-opacity:1;" d="M 4.042969 0 L 43.957031 0 C 46.1875 0 48 1.8125 48 4.042969 L 48 43.957031 C 48 46.1875 46.1875 48 43.957031 48 L 4.042969 48 C 1.8125 48 0 46.1875 0 43.957031 L 0 4.042969 C 0 1.8125 1.8125 0 4.042969 0 Z M 4.042969 0 "/>
<path style=" stroke:none;fill-rule:nonzero;fill:rgb(100%,100%,100%);fill-opacity:1;" d="M 24.125 9.03125 L 16.6875 13.019531 L 24.125 17.007812 L 31.570312 13.019531 Z M 24.125 9.03125 "/>
<path style=" stroke:none;fill-rule:nonzero;fill:rgb(79.607843%,79.607843%,79.607843%);fill-opacity:1;" d="M 24.125 24.96875 L 16.6875 20.976562 L 16.6875 13.019531 L 24.125 17.007812 Z M 24.125 24.96875 "/>
<path style=" stroke:none;fill-rule:nonzero;fill:rgb(16.078431%,71.372549%,96.470588%);fill-opacity:1;" d="M 24.125 17.007812 L 31.570312 13.019531 L 31.570312 20.976562 L 24.125 24.96875 Z M 24.125 17.007812 "/>
<path style=" stroke:none;fill-rule:nonzero;fill:rgb(100%,100%,100%);fill-opacity:1;" d="M 16.582031 23.03125 L 9.140625 27.023438 L 16.582031 31.011719 L 24.023438 27.023438 Z M 16.582031 23.03125 "/>
<path style=" stroke:none;fill-rule:nonzero;fill:rgb(79.607843%,79.607843%,79.607843%);fill-opacity:1;" d="M 16.582031 38.960938 L 9.140625 34.980469 L 9.140625 27.023438 L 16.582031 31.011719 Z M 16.582031 38.960938 "/>
<path style=" stroke:none;fill-rule:nonzero;fill:rgb(16.078431%,71.372549%,96.470588%);fill-opacity:1;" d="M 16.582031 31.011719 L 24.023438 27.023438 L 24.023438 34.980469 L 16.582031 38.960938 Z M 16.582031 31.011719 "/>
<path style=" stroke:none;fill-rule:nonzero;fill:rgb(100%,100%,100%);fill-opacity:1;" d="M 31.417969 23.03125 L 23.976562 27.023438 L 31.417969 31.011719 L 38.859375 27.023438 Z M 31.417969 23.03125 "/>
<path style=" stroke:none;fill-rule:nonzero;fill:rgb(79.607843%,79.607843%,79.607843%);fill-opacity:1;" d="M 31.417969 38.960938 L 23.976562 34.980469 L 23.976562 27.023438 L 31.417969 31.011719 Z M 31.417969 38.960938 "/>
<path style=" stroke:none;fill-rule:nonzero;fill:rgb(16.078431%,71.372549%,96.470588%);fill-opacity:1;" d="M 31.417969 31.011719 L 38.859375 27.023438 L 38.859375 34.980469 L 31.417969 38.960938 Z M 31.417969 31.011719 "/>
</g>
</svg>
