
<svg xmlns="http://www.w3.org/2000/svg" xmlns:xlink="http://www.w3.org/1999/xlink" width="48px" height="48px" viewBox="0 0 48 48" version="1.1">
<g id="surface1">
<path style=" stroke:none;fill-rule:nonzero;fill:rgb(49.411765%,34.117647%,76.862745%);fill-opacity:1;" d="M 4.042969 0 L 43.957031 0 C 46.1875 0 48 1.8125 48 4.042969 L 48 43.957031 C 48 46.1875 46.1875 48 43.957031 48 L 4.042969 48 C 1.8125 48 0 46.1875 0 43.957031 L 0 4.042969 C 0 1.8125 1.8125 0 4.042969 0 Z M 4.042969 0 "/>
<path style=" stroke:none;fill-rule:nonzero;fill:rgb(100%,100%,100%);fill-opacity:1;" d="M 38.828125 38.429688 L 13.5625 38.429688 C 12.8125 38.429688 12.210938 37.828125 12.210938 37.078125 L 12.210938 15.636719 C 12.210938 14.890625 12.8125 14.289062 13.5625 14.289062 L 38.828125 14.289062 C 39.570312 14.289062 40.179688 14.890625 40.179688 15.636719 L 40.179688 37.078125 C 40.179688 37.828125 39.570312 38.429688 38.828125 38.429688 Z M 38.828125 38.429688 "/>
<path style=" stroke:none;fill-rule:nonzero;fill:rgb(92.54902%,25.098039%,47.843137%);fill-opacity:1;" d="M 13.570312 13.664062 L 38.828125 13.664062 C 39.921875 13.664062 40.804688 14.550781 40.804688 15.644531 L 40.804688 37.078125 C 40.804688 38.171875 39.917969 39.054688 38.828125 39.054688 L 13.570312 39.054688 C 12.476562 39.054688 11.59375 38.171875 11.59375 37.078125 L 11.59375 15.644531 C 11.59375 14.554688 12.476562 13.671875 13.570312 13.664062 Z M 38.828125 37.804688 C 39.242188 37.804688 39.578125 37.472656 39.578125 37.054688 L 39.578125 15.644531 C 39.578125 15.230469 39.242188 14.894531 38.828125 14.894531 L 13.570312 14.894531 C 13.152344 14.894531 12.820312 15.230469 12.820312 15.644531 L 12.820312 37.078125 C 12.820312 37.492188 13.152344 37.828125 13.570312 37.828125 Z M 38.828125 37.804688 "/>
<path style=" stroke:none;fill-rule:nonzero;fill:rgb(100%,100%,100%);fill-opacity:1;" d="M 34.429688 33.710938 L 9.164062 33.710938 C 8.421875 33.710938 7.8125 33.109375 7.8125 32.363281 L 7.8125 10.921875 C 7.8125 10.171875 8.421875 9.570312 9.164062 9.570312 L 34.429688 9.570312 C 35.179688 9.570312 35.78125 10.171875 35.78125 10.921875 L 35.78125 32.363281 C 35.78125 33.109375 35.179688 33.710938 34.429688 33.710938 Z M 34.429688 33.710938 "/>
<path style=" stroke:none;fill-rule:nonzero;fill:rgb(92.54902%,25.098039%,47.843137%);fill-opacity:1;" d="M 9.171875 8.945312 L 34.429688 8.945312 C 35.523438 8.945312 36.40625 9.828125 36.40625 10.921875 L 36.40625 32.355469 C 36.40625 33.445312 35.523438 34.328125 34.429688 34.335938 L 9.171875 34.335938 C 8.078125 34.335938 7.195312 33.449219 7.195312 32.355469 L 7.195312 10.921875 C 7.195312 9.828125 8.082031 8.945312 9.171875 8.945312 Z M 34.429688 33.082031 C 34.847656 33.082031 35.179688 32.746094 35.179688 32.332031 L 35.179688 10.921875 C 35.179688 10.507812 34.847656 10.171875 34.429688 10.171875 L 9.171875 10.171875 C 8.757812 10.171875 8.421875 10.507812 8.421875 10.921875 L 8.421875 32.355469 C 8.421875 32.769531 8.757812 33.105469 9.171875 33.105469 Z M 34.429688 33.082031 "/>
<path style=" stroke:none;fill-rule:nonzero;fill:rgb(92.54902%,25.098039%,47.843137%);fill-opacity:1;" d="M 36.234375 12.34375 L 7.429688 12.34375 L 7.429688 10.785156 C 7.429688 9.921875 8.132812 9.226562 8.992188 9.226562 L 34.664062 9.226562 C 35.527344 9.226562 36.226562 9.921875 36.226562 10.785156 L 36.226562 12.34375 Z M 36.234375 12.34375 "/>
<path style=" stroke:none;fill-rule:nonzero;fill:rgb(100%,100%,100%);fill-opacity:1;" d="M 29.046875 10.828125 C 29.046875 11.351562 28.625 11.773438 28.101562 11.773438 C 27.578125 11.773438 27.15625 11.351562 27.15625 10.828125 C 27.15625 10.308594 27.578125 9.882812 28.101562 9.882812 C 28.625 9.882812 29.046875 10.308594 29.046875 10.828125 Z M 29.046875 10.828125 "/>
<path style=" stroke:none;fill-rule:nonzero;fill:rgb(100%,100%,100%);fill-opacity:1;" d="M 32.195312 10.828125 C 32.195312 11.351562 31.773438 11.773438 31.25 11.773438 C 30.730469 11.773438 30.304688 11.351562 30.304688 10.828125 C 30.304688 10.308594 30.730469 9.882812 31.25 9.882812 C 31.773438 9.882812 32.195312 10.308594 32.195312 10.828125 Z M 32.195312 10.828125 "/>
<path style=" stroke:none;fill-rule:nonzero;fill:rgb(100%,100%,100%);fill-opacity:1;" d="M 35.355469 10.828125 C 35.355469 11.351562 34.929688 11.773438 34.410156 11.773438 C 33.890625 11.773438 33.464844 11.351562 33.464844 10.828125 C 33.464844 10.308594 33.890625 9.882812 34.410156 9.882812 C 34.929688 9.882812 35.355469 10.308594 35.355469 10.828125 Z M 35.355469 10.828125 "/>
</g>
</svg>
