
<svg xmlns="http://www.w3.org/2000/svg" xmlns:xlink="http://www.w3.org/1999/xlink" width="48px" height="48px" viewBox="0 0 48 48" version="1.1">
<g id="surface1">
<path style=" stroke:none;fill-rule:nonzero;fill:rgb(49.411765%,34.117647%,76.862745%);fill-opacity:1;" d="M 4.042969 0 L 43.957031 0 C 46.1875 0 48 1.8125 48 4.042969 L 48 43.957031 C 48 46.1875 46.1875 48 43.957031 48 L 4.042969 48 C 1.8125 48 0 46.1875 0 43.957031 L 0 4.042969 C 0 1.8125 1.8125 0 4.042969 0 Z M 4.042969 0 "/>
<path style=" stroke:none;fill-rule:nonzero;fill:rgb(100%,100%,100%);fill-opacity:1;" d="M 26.570312 14.007812 C 26.570312 15.429688 25.421875 16.582031 24 16.582031 C 22.578125 16.582031 21.429688 15.429688 21.429688 14.007812 C 21.429688 12.589844 22.578125 11.4375 24 11.4375 C 25.421875 11.4375 26.570312 12.589844 26.570312 14.007812 Z M 26.570312 14.007812 "/>
<path style=" stroke:none;fill-rule:nonzero;fill:rgb(100%,100%,100%);fill-opacity:1;" d="M 27.546875 20.542969 L 34.238281 17.671875 C 34.574219 17.539062 34.84375 17.273438 34.984375 16.945312 C 35.125 16.609375 35.125 16.234375 34.988281 15.898438 C 34.695312 15.214844 33.902344 14.898438 33.21875 15.1875 L 27.742188 17.535156 C 26.570312 18.03125 25.3125 18.289062 24.039062 18.285156 C 22.765625 18.289062 21.503906 18.03125 20.332031 17.535156 L 14.859375 15.1875 C 14.171875 14.898438 13.378906 15.214844 13.085938 15.898438 C 12.945312 16.234375 12.945312 16.609375 13.089844 16.945312 C 13.230469 17.273438 13.5 17.539062 13.835938 17.671875 L 20.25 20.460938 C 20.632812 20.625 20.882812 21 20.882812 21.421875 L 20.648438 26.132812 C 20.640625 26.304688 20.59375 26.476562 20.507812 26.625 L 15.882812 34.5 C 15.71875 34.765625 15.671875 35.085938 15.75 35.390625 C 15.832031 35.691406 16.03125 35.945312 16.304688 36.097656 L 16.90625 36.429688 C 17.496094 36.730469 18.222656 36.511719 18.546875 35.929688 L 22.859375 28.328125 C 23.066406 27.96875 23.453125 27.75 23.867188 27.75 C 24.28125 27.742188 24.664062 27.960938 24.867188 28.320312 L 29.175781 35.929688 C 29.5 36.515625 30.226562 36.734375 30.820312 36.429688 L 31.417969 36.097656 C 31.6875 35.945312 31.886719 35.6875 31.96875 35.390625 C 32.046875 35.085938 32 34.765625 31.835938 34.5 L 27.285156 26.742188 C 27.195312 26.59375 27.144531 26.421875 27.140625 26.25 L 26.910156 21.492188 C 26.914062 21.078125 27.164062 20.703125 27.546875 20.542969 Z M 27.546875 20.542969 "/>
</g>
</svg>
