
<svg xmlns="http://www.w3.org/2000/svg" xmlns:xlink="http://www.w3.org/1999/xlink" width="48px" height="48px" viewBox="0 0 48 48" version="1.1">
<g id="surface1">
<path style=" stroke:none;fill-rule:nonzero;fill:rgb(92.54902%,25.098039%,47.843137%);fill-opacity:1;" d="M 48 24 L 48 4.042969 C 48 1.8125 46.1875 0 43.957031 0 L 24 0 L 24 24 Z M 48 24 "/>
<path style=" stroke:none;fill-rule:nonzero;fill:rgb(91.764706%,92.156863%,93.72549%);fill-opacity:1;" d="M 24 0 L 4.042969 0 C 1.8125 0 0 1.8125 0 4.042969 L 0 24 L 24 24 Z M 24 0 "/>
<path style=" stroke:none;fill-rule:nonzero;fill:rgb(16.078431%,71.372549%,96.470588%);fill-opacity:1;" d="M 24 24 L 24 48 L 43.957031 48 C 46.1875 48 48 46.1875 48 43.957031 L 48 24 Z M 24 24 "/>
<path style=" stroke:none;fill-rule:nonzero;fill:rgb(63.137255%,38.431373%,96.862745%);fill-opacity:1;" d="M 0 24 L 0 43.957031 C 0 46.1875 1.8125 48 4.042969 48 L 24 48 L 24 24 Z M 0 24 "/>
<path style=" stroke:none;fill-rule:nonzero;fill:rgb(100%,100%,100%);fill-opacity:1;" d="M 38.015625 40.273438 L 34.394531 40.273438 C 33.53125 40.273438 32.832031 39.570312 32.828125 38.707031 L 32.828125 35.707031 C 32.832031 34.84375 33.53125 34.144531 34.394531 34.140625 L 36.6875 34.140625 C 36.953125 34.140625 37.171875 34.355469 37.171875 34.617188 C 37.171875 34.882812 36.953125 35.101562 36.6875 35.101562 L 34.394531 35.101562 C 34.0625 35.101562 33.789062 35.375 33.789062 35.707031 L 33.789062 38.707031 C 33.789062 39.039062 34.0625 39.304688 34.394531 39.304688 L 38.015625 39.304688 C 38.179688 39.308594 38.332031 39.25 38.445312 39.132812 C 38.5625 39.023438 38.625 38.867188 38.625 38.707031 L 38.625 35.707031 C 38.625 35.371094 38.351562 35.101562 38.015625 35.101562 L 37.539062 35.101562 L 37.539062 33.082031 C 37.515625 32.617188 37.132812 32.25 36.667969 32.25 L 36.105469 32.25 C 35.644531 32.257812 35.269531 32.625 35.25 33.082031 L 35.25 33.285156 C 35.273438 33.472656 35.1875 33.65625 35.027344 33.757812 C 34.867188 33.859375 34.664062 33.859375 34.507812 33.757812 C 34.34375 33.65625 34.257812 33.472656 34.28125 33.285156 L 34.28125 33.082031 C 34.289062 32.074219 35.101562 31.257812 36.113281 31.25 L 36.675781 31.25 C 37.6875 31.25 38.507812 32.070312 38.511719 33.082031 L 38.511719 34.179688 C 39.164062 34.386719 39.601562 34.992188 39.601562 35.679688 L 39.601562 38.679688 C 39.605469 39.101562 39.441406 39.507812 39.144531 39.808594 C 38.84375 40.109375 38.441406 40.277344 38.015625 40.273438 Z M 38.015625 40.273438 "/>
<path style=" stroke:none;fill-rule:nonzero;fill:rgb(100%,100%,100%);fill-opacity:1;" d="M 35.78125 9.292969 C 36.398438 9.292969 36.890625 9.789062 36.890625 10.402344 C 36.890625 11.015625 36.398438 11.511719 35.78125 11.511719 C 35.171875 11.511719 34.671875 11.015625 34.671875 10.402344 C 34.671875 10.109375 34.789062 9.824219 34.996094 9.617188 C 35.203125 9.40625 35.488281 9.289062 35.78125 9.292969 M 35.78125 8.398438 C 35.039062 8.351562 34.332031 8.726562 33.945312 9.363281 C 33.5625 10 33.5625 10.796875 33.945312 11.4375 C 34.332031 12.070312 35.039062 12.445312 35.78125 12.398438 C 36.523438 12.445312 37.234375 12.070312 37.617188 11.4375 C 38.003906 10.796875 38.003906 10 37.617188 9.363281 C 37.234375 8.726562 36.523438 8.351562 35.78125 8.398438 Z M 35.78125 8.398438 "/>
<path style=" stroke:none;fill-rule:nonzero;fill:rgb(100%,100%,100%);fill-opacity:1;" d="M 35.78125 13.742188 C 37.410156 13.742188 38.835938 14.832031 39.261719 16.402344 C 39.273438 16.414062 39.273438 16.433594 39.261719 16.445312 L 32.304688 16.445312 C 32.304688 16.445312 32.304688 16.410156 32.304688 16.402344 C 32.734375 14.832031 34.160156 13.742188 35.789062 13.742188 M 35.789062 12.847656 C 33.757812 12.84375 31.972656 14.207031 31.4375 16.171875 C 31.359375 16.453125 31.414062 16.75 31.59375 16.984375 C 31.765625 17.21875 32.039062 17.351562 32.332031 17.355469 L 39.25 17.355469 C 39.539062 17.351562 39.8125 17.210938 39.984375 16.984375 C 40.160156 16.75 40.21875 16.449219 40.140625 16.171875 C 39.609375 14.207031 37.824219 12.84375 35.789062 12.847656 Z M 35.789062 12.847656 "/>
<path style=" stroke:none;fill-rule:nonzero;fill:rgb(50.196078%,50.196078%,50.196078%);fill-opacity:1;" d="M 16.140625 16.042969 L 16.140625 10.042969 C 16.136719 9.078125 15.355469 8.296875 14.390625 8.296875 L 11.390625 8.296875 C 10.429688 8.296875 9.644531 9.078125 9.644531 10.042969 L 9.644531 13.75 C 9.453125 13.671875 9.246094 13.628906 9.039062 13.625 C 8.335938 13.566406 7.71875 14.082031 7.648438 14.78125 C 7.71875 15.464844 8.316406 15.96875 9 15.929688 C 9.695312 15.984375 10.3125 15.472656 10.382812 14.773438 L 10.382812 10.742188 C 10.378906 10.339844 10.695312 10.007812 11.09375 9.992188 L 14.601562 9.992188 C 15 10.007812 15.316406 10.339844 15.3125 10.742188 L 15.3125 15.105469 C 15.128906 15.03125 14.929688 14.992188 14.730469 14.992188 C 14.03125 14.9375 13.414062 15.449219 13.34375 16.148438 C 13.414062 16.84375 14.03125 17.359375 14.730469 17.304688 C 15.429688 17.359375 16.046875 16.84375 16.117188 16.148438 C 16.15625 16.109375 16.140625 16.070312 16.140625 16.042969 Z M 16.140625 16.042969 "/>
<path style=" stroke:none;fill-rule:nonzero;fill:rgb(100%,100%,100%);fill-opacity:1;" d="M 18.132812 33.515625 L 15.9375 32.765625 C 15.773438 32.710938 15.660156 32.558594 15.660156 32.382812 C 15.660156 32.164062 15.484375 31.988281 15.261719 31.988281 L 8.664062 31.988281 C 8.445312 31.988281 8.265625 32.164062 8.265625 32.382812 L 8.265625 39.488281 C 8.265625 39.710938 8.441406 39.890625 8.664062 39.890625 L 15.261719 39.890625 C 15.367188 39.890625 15.46875 39.851562 15.546875 39.773438 C 15.621094 39.695312 15.664062 39.59375 15.660156 39.488281 C 15.660156 39.359375 15.722656 39.234375 15.828125 39.164062 C 15.9375 39.085938 16.070312 39.070312 16.195312 39.113281 L 16.257812 39.113281 C 16.359375 39.148438 16.46875 39.136719 16.5625 39.089844 C 16.65625 39.039062 16.730469 38.960938 16.761719 38.859375 L 18.390625 34 C 18.4375 33.796875 18.328125 33.59375 18.132812 33.515625 Z M 14.382812 38.210938 L 9.5625 38.210938 C 9.34375 38.210938 9.164062 38.035156 9.15625 37.8125 L 9.15625 33.3125 C 9.15625 33.09375 9.335938 32.910156 9.5625 32.910156 L 14.367188 32.910156 C 14.589844 32.914062 14.765625 33.09375 14.765625 33.3125 L 14.765625 37.8125 C 14.777344 37.925781 14.742188 38.039062 14.664062 38.121094 C 14.589844 38.203125 14.484375 38.25 14.367188 38.25 Z M 15.675781 37.3125 L 15.675781 33.953125 C 15.671875 33.820312 15.738281 33.703125 15.84375 33.625 C 15.949219 33.550781 16.085938 33.53125 16.207031 33.578125 L 17.304688 33.945312 C 17.402344 33.976562 17.484375 34.046875 17.535156 34.140625 C 17.582031 34.238281 17.589844 34.347656 17.554688 34.445312 L 16.5 37.5 C 16.46875 37.601562 16.398438 37.683594 16.300781 37.734375 C 16.207031 37.78125 16.097656 37.789062 16 37.757812 L 15.90625 37.757812 C 15.734375 37.679688 15.632812 37.5 15.660156 37.3125 Z M 15.675781 37.3125 "/>
</g>
</svg>
