
<svg xmlns="http://www.w3.org/2000/svg" xmlns:xlink="http://www.w3.org/1999/xlink" width="48px" height="48px" viewBox="0 0 48 48" version="1.1">
<g id="surface1">
<path style=" stroke:none;fill-rule:nonzero;fill:rgb(37.647059%,41.960784%,50.980392%);fill-opacity:1;" d="M 43.40625 2.25 L 33.210938 2.25 C 31.21875 2.253906 29.441406 3.5625 28.851562 5.460938 L 0 5.460938 L 0 9.886719 L 28.851562 9.886719 C 29.441406 11.789062 31.214844 13.097656 33.210938 13.101562 L 43.40625 13.101562 C 45.941406 13.097656 48 11.039062 48 8.507812 L 48 6.839844 C 47.996094 4.308594 45.9375 2.253906 43.40625 2.25 Z M 43.40625 2.25 "/>
<path style=" stroke:none;fill-rule:nonzero;fill:rgb(37.647059%,41.960784%,50.980392%);fill-opacity:1;" d="M 4.59375 29.433594 L 14.789062 29.433594 C 16.78125 29.433594 18.535156 28.128906 19.148438 26.25 L 48 26.25 L 48 21.820312 L 19.148438 21.820312 C 18.558594 19.925781 16.78125 18.628906 14.789062 18.613281 L 4.59375 18.613281 C 2.066406 18.628906 0.0234375 20.648438 0 23.160156 L 0 24.84375 C 0.0078125 27.375 2.0625 29.414062 4.59375 29.433594 Z M 4.59375 29.433594 "/>
<path style=" stroke:none;fill-rule:nonzero;fill:rgb(37.647059%,41.960784%,50.980392%);fill-opacity:1;" d="M 43.40625 34.898438 L 33.210938 34.898438 C 31.21875 34.902344 29.441406 36.210938 28.851562 38.105469 L 0 38.105469 L 0 42.539062 L 28.851562 42.539062 C 29.460938 44.4375 31.21875 45.746094 33.210938 45.75 L 43.40625 45.75 C 45.9375 45.75 48 43.6875 48 41.15625 L 48 39.492188 C 47.996094 36.960938 45.9375 34.902344 43.40625 34.898438 Z M 43.40625 34.898438 "/>
</g>
</svg>
