
<svg xmlns="http://www.w3.org/2000/svg" xmlns:xlink="http://www.w3.org/1999/xlink" width="48px" height="48px" viewBox="0 0 48 48" version="1.1">
<g id="surface1">
<path style=" stroke:none;fill-rule:nonzero;fill:rgb(37.647059%,41.960784%,50.980392%);fill-opacity:1;" d="M 28.914062 4.914062 C 28.914062 7.625 26.714844 9.824219 24 9.824219 C 21.285156 9.824219 19.085938 7.625 19.085938 4.914062 C 19.085938 2.199219 21.285156 0 24 0 C 26.714844 0 28.914062 2.199219 28.914062 4.914062 Z M 28.914062 4.914062 "/>
<path style=" stroke:none;fill-rule:nonzero;fill:rgb(37.647059%,41.960784%,50.980392%);fill-opacity:1;" d="M 30.75 17.390625 L 43.5 11.910156 C 44.808594 11.351562 45.414062 9.835938 44.859375 8.527344 C 44.292969 7.222656 42.78125 6.617188 41.476562 7.175781 L 31.019531 11.675781 C 28.800781 12.621094 26.414062 13.109375 24 13.109375 C 21.566406 13.109375 19.160156 12.613281 16.925781 11.65625 L 6.472656 7.15625 C 5.164062 6.597656 3.652344 7.199219 3.089844 8.503906 C 2.53125 9.8125 3.140625 11.328125 4.449219 11.886719 L 16.882812 17.25 C 17.617188 17.5625 18.089844 18.28125 18.089844 19.078125 L 17.632812 28.078125 C 17.625 28.414062 17.53125 28.738281 17.363281 29.023438 L 8.503906 44.023438 C 8.191406 44.53125 8.101562 45.148438 8.25 45.722656 C 8.398438 46.300781 8.777344 46.792969 9.300781 47.085938 L 10.453125 47.707031 C 11.582031 48.292969 12.96875 47.875 13.582031 46.761719 L 21.824219 32.25 C 22.222656 31.566406 22.953125 31.148438 23.746094 31.15625 C 24.535156 31.148438 25.269531 31.566406 25.664062 32.25 L 33.914062 46.769531 C 34.527344 47.882812 35.917969 48.300781 37.042969 47.714844 L 38.199219 47.09375 C 38.714844 46.800781 39.09375 46.3125 39.246094 45.738281 C 39.394531 45.167969 39.308594 44.554688 39 44.046875 L 30.269531 29.25 C 30.097656 28.957031 30.007812 28.628906 30 28.289062 L 29.566406 19.222656 C 29.558594 18.429688 30.027344 17.710938 30.75 17.390625 Z M 30.75 17.390625 "/>
</g>
</svg>
