
<svg xmlns="http://www.w3.org/2000/svg" xmlns:xlink="http://www.w3.org/1999/xlink" width="32px" height="32px" viewBox="0 0 32 32" version="1.1">
<g id="surface1">
<path style=" stroke:none;fill-rule:nonzero;fill:rgb(37.647059%,41.960784%,50.980392%);fill-opacity:1;" d="M 30.328125 28.652344 L 27.5 28.652344 L 27.5 7.769531 C 27.5 6.589844 26.546875 5.644531 25.375 5.644531 L 24.9375 5.644531 C 24.375 5.644531 23.828125 5.871094 23.4375 6.265625 C 23.042969 6.667969 22.8125 7.203125 22.8125 7.769531 L 22.8125 28.652344 L 20 28.652344 L 20 14.878906 C 20 13.707031 19.058594 12.753906 17.878906 12.753906 L 17.4375 12.753906 C 16.265625 12.753906 15.3125 13.707031 15.3125 14.878906 L 15.3125 28.652344 L 12.5 28.652344 L 12.5 20.734375 C 12.5 20.171875 12.269531 19.628906 11.875 19.234375 C 11.480469 18.832031 10.9375 18.621094 10.375 18.621094 L 9.9375 18.621094 C 8.765625 18.621094 7.8125 19.5625 7.8125 20.734375 L 7.8125 28.652344 L 4.078125 28.652344 C 3.671875 28.652344 3.339844 28.328125 3.339844 27.921875 L 3.339844 1.671875 C 3.375 1.058594 3.066406 0.464844 2.542969 0.144531 C 2.003906 -0.171875 1.347656 -0.171875 0.8125 0.144531 C 0.269531 0.464844 -0.0351562 1.058594 0 1.671875 L 0 27.921875 C 0 30.171875 1.828125 32 4.078125 32 L 30.328125 32 C 30.941406 32.035156 31.535156 31.730469 31.855469 31.1875 C 32.171875 30.652344 32.171875 29.996094 31.855469 29.457031 C 31.535156 28.933594 30.941406 28.625 30.328125 28.652344 Z M 30.328125 28.652344 "/>
</g>
</svg>
