
<svg xmlns="http://www.w3.org/2000/svg" xmlns:xlink="http://www.w3.org/1999/xlink" width="32px" height="32px" viewBox="0 0 32 32" version="1.1">
<g id="surface1">
<path style=" stroke:none;fill-rule:nonzero;fill:rgb(37.647059%,41.960784%,50.980392%);fill-opacity:1;" d="M 31.6875 7.082031 C 31.671875 6.691406 31.433594 6.355469 31.066406 6.203125 L 16.316406 0.125 C 16.066406 0.015625 15.792969 0.015625 15.535156 0.125 L 0.785156 6.203125 C 0.394531 6.355469 0.140625 6.734375 0.144531 7.144531 C 0.144531 7.183594 0.144531 7.203125 0.144531 7.234375 C 0.046875 7.394531 0 7.582031 0 7.777344 L 0 24.839844 C -0.00390625 25.253906 0.25 25.640625 0.628906 25.792969 L 15.339844 31.875 C 15.464844 31.933594 15.605469 31.953125 15.746094 31.953125 C 15.828125 31.9375 15.917969 31.917969 16 31.875 C 16.082031 31.917969 16.171875 31.9375 16.253906 31.953125 C 16.394531 31.953125 16.535156 31.933594 16.652344 31.875 L 31.371094 25.792969 C 31.75 25.640625 32.003906 25.253906 32 24.839844 L 32 7.777344 C 31.996094 7.515625 31.875 7.265625 31.6875 7.082031 Z M 14.707031 29.390625 L 2.058594 24.152344 L 2.058594 9.3125 L 14.707031 14.546875 Z M 29.941406 24.152344 L 17.292969 29.390625 L 17.292969 14.546875 L 29.941406 9.3125 Z M 29.941406 24.152344 "/>
</g>
</svg>
