
<svg xmlns="http://www.w3.org/2000/svg" xmlns:xlink="http://www.w3.org/1999/xlink" width="32px" height="32px" viewBox="0 0 32 32" version="1.1">
<g id="surface1">
<path style=" stroke:none;fill-rule:nonzero;fill:rgb(37.647059%,41.960784%,50.980392%);fill-opacity:1;" d="M 16.0625 10.714844 C 15.042969 10.703125 14.113281 11.3125 13.714844 12.253906 C 13.316406 13.199219 13.519531 14.292969 14.246094 15.015625 C 14.964844 15.746094 16.050781 15.964844 17 15.574219 C 17.949219 15.1875 18.5625 14.261719 18.5625 13.238281 C 18.558594 11.859375 17.441406 10.738281 16.0625 10.714844 Z M 16.0625 10.714844 "/>
<path style=" stroke:none;fill-rule:nonzero;fill:rgb(37.647059%,41.960784%,50.980392%);fill-opacity:1;" d="M 28.933594 1.972656 L 3.066406 1.972656 C 2.253906 1.972656 1.472656 2.296875 0.894531 2.871094 C 0.324219 3.449219 0 4.230469 0 5.046875 L 0 20.546875 C 0 22.238281 1.375 23.613281 3.066406 23.613281 L 10.5 23.613281 C 11.339844 23.640625 12.003906 24.328125 12 25.171875 L 12 25.394531 C 12 26.238281 11.332031 26.921875 10.5 26.941406 L 7.828125 26.941406 C 7.011719 26.996094 6.375 27.671875 6.375 28.488281 C 6.375 29.308594 7.011719 29.984375 7.828125 30.027344 L 24.171875 30.027344 C 24.988281 29.984375 25.625 29.308594 25.625 28.488281 C 25.625 27.671875 24.988281 26.996094 24.171875 26.941406 L 21.519531 26.941406 C 20.683594 26.933594 20 26.246094 20 25.394531 L 20 25.171875 C 20 24.316406 20.691406 23.628906 21.546875 23.628906 L 28.933594 23.628906 C 30.625 23.628906 32 22.253906 32 20.5625 L 32 5.0625 C 32.003906 4.246094 31.683594 3.453125 31.109375 2.875 C 30.535156 2.296875 29.75 1.972656 28.933594 1.972656 Z M 23.035156 14.050781 C 22.214844 14.074219 21.488281 14.578125 21.183594 15.332031 C 20.871094 16.089844 21.035156 16.957031 21.605469 17.550781 C 21.761719 17.703125 21.859375 17.921875 21.859375 18.144531 C 21.859375 18.371094 21.761719 18.582031 21.605469 18.738281 C 21.441406 18.890625 21.234375 18.972656 21.011719 18.964844 C 20.796875 18.957031 20.589844 18.871094 20.4375 18.707031 C 19.847656 18.082031 18.917969 17.917969 18.136719 18.285156 C 17.355469 18.613281 16.863281 19.394531 16.910156 20.246094 C 16.921875 20.472656 16.832031 20.6875 16.675781 20.855469 C 16.519531 21.011719 16.308594 21.097656 16.078125 21.097656 C 15.613281 21.097656 15.328125 20.746094 15.269531 20.152344 C 15.222656 19.328125 14.691406 18.609375 13.917969 18.3125 C 13.140625 18.015625 12.265625 18.199219 11.675781 18.785156 C 11.402344 19.066406 10.964844 19.113281 10.644531 18.890625 C 10.359375 18.691406 10.238281 18.328125 10.355469 18 C 10.394531 17.871094 10.472656 17.75 10.5625 17.644531 C 11.191406 17.058594 11.371094 16.125 11 15.339844 C 10.675781 14.558594 9.886719 14.0625 9.042969 14.109375 C 8.628906 14.136719 8.269531 13.855469 8.199219 13.449219 C 8.128906 13.097656 8.3125 12.738281 8.640625 12.582031 C 8.777344 12.519531 8.925781 12.488281 9.078125 12.484375 C 9.910156 12.484375 10.652344 11.964844 10.941406 11.1875 C 11.296875 10.410156 11.113281 9.5 10.5 8.917969 C 10.269531 8.707031 10.175781 8.402344 10.25 8.109375 C 10.328125 7.8125 10.558594 7.582031 10.859375 7.511719 C 11.152344 7.441406 11.457031 7.546875 11.660156 7.769531 C 12.285156 8.390625 13.230469 8.550781 14.015625 8.167969 C 14.785156 7.839844 15.265625 7.074219 15.230469 6.238281 C 15.203125 5.9375 15.355469 5.644531 15.613281 5.484375 C 15.875 5.324219 16.199219 5.324219 16.457031 5.484375 C 16.722656 5.644531 16.871094 5.9375 16.847656 6.238281 C 16.855469 7.0625 17.355469 7.808594 18.113281 8.125 C 18.871094 8.449219 19.75 8.285156 20.347656 7.714844 C 20.667969 7.394531 21.1875 7.394531 21.503906 7.722656 C 21.824219 8.042969 21.824219 8.5625 21.5 8.878906 C 20.890625 9.496094 20.738281 10.421875 21.113281 11.199219 L 23 12.433594 C 23.578125 12.457031 23.925781 12.75 23.9375 13.222656 C 23.941406 13.6875 23.605469 14 23.035156 14.050781 Z M 23.035156 14.050781 "/>
</g>
</svg>
