
<svg xmlns="http://www.w3.org/2000/svg" xmlns:xlink="http://www.w3.org/1999/xlink" width="32px" height="32px" viewBox="0 0 32 32" version="1.1">
<defs>
<linearGradient id="linear0" gradientUnits="userSpaceOnUse" x1="31.18" y1="-3.52" x2="31.18" y2="47.91" gradientTransform="matrix(0.5,0,0,0.5,0,0)">
<stop offset="0" style="stop-color:rgb(16.078431%,71.372549%,96.470588%);stop-opacity:1;"/>
<stop offset="1" style="stop-color:rgb(49.411765%,34.117647%,76.862745%);stop-opacity:1;"/>
</linearGradient>
</defs>
<g id="surface1">
<path style=" stroke:none;fill-rule:nonzero;fill:rgb(91.764706%,92.156863%,93.72549%);fill-opacity:1;" d="M 2.691406 0 L 29.308594 0 C 30.796875 0 32 1.203125 32 2.691406 L 32 29.308594 C 32 30.796875 30.796875 32 29.308594 32 L 2.691406 32 C 1.203125 32 0 30.796875 0 29.308594 L 0 2.691406 C 0 1.203125 1.203125 0 2.691406 0 Z M 2.691406 0 "/>
<path style=" stroke:none;fill-rule:nonzero;fill:url(#linear0);" d="M 24.449219 15.722656 C 23.933594 15.203125 23.113281 14.949219 22 14.949219 C 21.375 14.949219 20.761719 15.042969 20.167969 15.230469 C 19.589844 15.402344 19.046875 15.660156 18.546875 16 L 18.546875 17.25 C 18.546875 17.347656 18.546875 17.394531 18.613281 17.417969 C 18.6875 17.433594 18.707031 17.417969 18.765625 17.359375 C 19.234375 17.015625 19.734375 16.738281 20.265625 16.535156 C 20.765625 16.347656 21.292969 16.253906 21.816406 16.261719 C 22.109375 16.253906 22.402344 16.285156 22.6875 16.359375 C 22.917969 16.410156 23.121094 16.515625 23.292969 16.683594 C 23.464844 16.859375 23.589844 17.078125 23.644531 17.316406 C 23.738281 17.660156 23.777344 18 23.765625 18.355469 L 23.765625 18.5 L 20.824219 18.925781 C 19.925781 19 19.078125 19.378906 18.425781 20 L 14.734375 9 C 14.441406 8.140625 13.636719 7.558594 12.734375 7.550781 C 11.824219 7.558594 11.015625 8.140625 10.734375 9 L 6 23.082031 C 5.863281 23.488281 5.933594 23.9375 6.183594 24.285156 C 6.433594 24.628906 6.832031 24.832031 7.261719 24.832031 C 7.832031 24.832031 8.347656 24.464844 8.519531 23.917969 L 9.5625 20.734375 C 9.6875 20.355469 10.042969 20.097656 10.4375 20.097656 L 15 20.097656 C 15.402344 20.089844 15.761719 20.359375 15.878906 20.738281 L 16.878906 23.910156 C 17.058594 24.457031 17.566406 24.832031 18.140625 24.832031 L 20.699219 24.886719 C 21.292969 24.886719 21.875 24.746094 22.402344 24.484375 C 22.671875 24.355469 22.921875 24.183594 23.140625 23.984375 C 23.363281 23.796875 23.550781 23.566406 23.699219 23.3125 L 23.734375 24.140625 C 23.746094 24.546875 24.078125 24.871094 24.484375 24.859375 C 24.886719 24.847656 25.203125 24.511719 25.191406 24.109375 L 25.191406 18.253906 C 25.214844 17.082031 24.972656 16.238281 24.449219 15.722656 Z M 13.832031 17.859375 L 11.613281 17.859375 C 11.316406 17.859375 11.046875 17.722656 10.871094 17.484375 C 10.691406 17.246094 10.644531 16.9375 10.734375 16.660156 L 12.277344 11.738281 C 12.332031 11.542969 12.515625 11.394531 12.730469 11.394531 C 12.933594 11.394531 13.121094 11.542969 13.171875 11.738281 L 14.714844 16.660156 C 14.808594 16.9375 14.753906 17.246094 14.578125 17.484375 C 14.410156 17.722656 14.128906 17.859375 13.832031 17.859375 Z M 23.832031 20.859375 C 23.832031 21.214844 23.753906 21.566406 23.609375 21.890625 C 23.464844 22.230469 23.253906 22.527344 23 22.792969 C 22.746094 23.046875 22.441406 23.261719 22.109375 23.417969 C 21.785156 23.574219 21.421875 23.660156 21.058594 23.652344 C 20.574219 23.675781 20.097656 23.527344 19.707031 23.238281 C 19.542969 23.109375 19.410156 22.9375 19.324219 22.738281 L 19.300781 22.667969 C 19.230469 22.472656 19.1875 22.261719 19.1875 22.058594 C 19.152344 21.5 19.375 20.957031 19.792969 20.589844 C 20.238281 20.234375 20.777344 20.003906 21.355469 19.941406 L 23.4375 19.6875 C 23.535156 19.675781 23.636719 19.703125 23.714844 19.769531 C 23.796875 19.839844 23.832031 19.9375 23.832031 20.042969 Z M 23.832031 20.859375 "/>
</g>
</svg>
