
<svg xmlns="http://www.w3.org/2000/svg" xmlns:xlink="http://www.w3.org/1999/xlink" width="32px" height="32px" viewBox="0 0 32 32" version="1.1">
<g id="surface1">
<path style=" stroke:none;fill-rule:nonzero;fill:rgb(37.647059%,41.960784%,50.980392%);fill-opacity:1;" d="M 23.515625 6.875 L 23.515625 25.734375 L 24.375 27.230469 L 27.128906 32 L 29.890625 27.230469 L 30.75 25.734375 L 30.75 6.875 Z M 23.515625 6.875 "/>
<path style=" stroke:none;fill-rule:nonzero;fill:rgb(37.647059%,41.960784%,50.980392%);fill-opacity:1;" d="M 30.75 5.1875 L 23.5 5.1875 L 23.5 2.566406 C 23.5 1.878906 23.769531 1.230469 24.253906 0.75 C 24.746094 0.265625 25.394531 -0.00390625 26.082031 0 L 28.183594 0 C 29.605469 0 30.75 1.144531 30.75 2.566406 Z M 30.75 5.1875 "/>
<path style=" stroke:none;fill-rule:nonzero;fill:rgb(37.647059%,41.960784%,50.980392%);fill-opacity:1;" d="M 23.910156 32 L 5.855469 32 C 3.3125 32 1.25 29.9375 1.25 27.394531 L 1.25 4.605469 C 1.25 2.0625 3.3125 0 5.855469 0 L 20.714844 0 L 20.714844 1.703125 L 5.855469 1.703125 C 4.25 1.703125 2.953125 3 2.953125 4.605469 L 2.953125 27.394531 C 2.953125 29 4.25 30.296875 5.855469 30.296875 L 23.910156 30.296875 Z M 23.910156 32 "/>
<path style=" stroke:none;fill-rule:nonzero;fill:rgb(37.647059%,41.960784%,50.980392%);fill-opacity:1;" d="M 7.394531 4.707031 L 19.171875 4.707031 C 19.964844 4.707031 20.609375 5.355469 20.609375 6.144531 L 20.609375 8.191406 C 20.609375 8.984375 19.964844 9.628906 19.171875 9.628906 L 7.394531 9.628906 C 6.609375 9.628906 5.964844 8.984375 5.964844 8.191406 L 5.964844 6.144531 C 5.964844 5.355469 6.609375 4.707031 7.394531 4.707031 Z M 7.394531 4.707031 "/>
<path style=" stroke:none;fill-rule:nonzero;fill:rgb(37.647059%,41.960784%,50.980392%);fill-opacity:1;" d="M 6.984375 12.191406 L 8.691406 12.191406 C 9.308594 12.191406 9.808594 12.691406 9.808594 13.308594 L 9.808594 15.015625 C 9.808594 15.625 9.308594 16.125 8.691406 16.125 L 6.984375 16.125 C 6.375 16.125 5.875 15.625 5.875 15.015625 L 5.875 13.308594 C 5.875 12.691406 6.375 12.191406 6.984375 12.191406 Z M 6.984375 12.191406 "/>
<path style=" stroke:none;fill-rule:nonzero;fill:rgb(37.647059%,41.960784%,50.980392%);fill-opacity:1;" d="M 12.433594 12.191406 L 14.140625 12.191406 C 14.75 12.191406 15.25 12.691406 15.25 13.308594 L 15.25 15.015625 C 15.25 15.625 14.75 16.125 14.140625 16.125 L 12.433594 16.125 C 11.816406 16.125 11.316406 15.625 11.316406 15.015625 L 11.316406 13.308594 C 11.316406 12.691406 11.816406 12.191406 12.433594 12.191406 Z M 12.433594 12.191406 "/>
<path style=" stroke:none;fill-rule:nonzero;fill:rgb(37.647059%,41.960784%,50.980392%);fill-opacity:1;" d="M 17.878906 12.191406 L 19.589844 12.191406 C 20.203125 12.191406 20.703125 12.691406 20.703125 13.308594 L 20.703125 15.015625 C 20.703125 15.625 20.203125 16.125 19.589844 16.125 L 17.878906 16.125 C 17.265625 16.125 16.769531 15.625 16.769531 15.015625 L 16.769531 13.308594 C 16.769531 12.691406 17.265625 12.191406 17.878906 12.191406 Z M 17.878906 12.191406 "/>
<path style=" stroke:none;fill-rule:nonzero;fill:rgb(37.647059%,41.960784%,50.980392%);fill-opacity:1;" d="M 6.984375 17.769531 L 8.691406 17.769531 C 9.308594 17.769531 9.808594 18.265625 9.808594 18.878906 L 9.808594 20.589844 C 9.808594 21.203125 9.308594 21.703125 8.691406 21.703125 L 6.984375 21.703125 C 6.375 21.703125 5.875 21.203125 5.875 20.589844 L 5.875 18.878906 C 5.875 18.265625 6.375 17.769531 6.984375 17.769531 Z M 6.984375 17.769531 "/>
<path style=" stroke:none;fill-rule:nonzero;fill:rgb(37.647059%,41.960784%,50.980392%);fill-opacity:1;" d="M 12.433594 17.769531 L 14.140625 17.769531 C 14.75 17.769531 15.25 18.265625 15.25 18.878906 L 15.25 20.589844 C 15.25 21.203125 14.75 21.703125 14.140625 21.703125 L 12.433594 21.703125 C 11.816406 21.703125 11.316406 21.203125 11.316406 20.589844 L 11.316406 18.878906 C 11.316406 18.265625 11.816406 17.769531 12.433594 17.769531 Z M 12.433594 17.769531 "/>
<path style=" stroke:none;fill-rule:nonzero;fill:rgb(37.647059%,41.960784%,50.980392%);fill-opacity:1;" d="M 17.878906 17.769531 L 19.589844 17.769531 C 20.203125 17.769531 20.703125 18.265625 20.703125 18.878906 L 20.703125 20.589844 C 20.703125 21.203125 20.203125 21.703125 19.589844 21.703125 L 17.878906 21.703125 C 17.265625 21.703125 16.769531 21.203125 16.769531 20.589844 L 16.769531 18.878906 C 16.769531 18.265625 17.265625 17.769531 17.878906 17.769531 Z M 17.878906 17.769531 "/>
<path style=" stroke:none;fill-rule:nonzero;fill:rgb(37.647059%,41.960784%,50.980392%);fill-opacity:1;" d="M 6.984375 23.339844 L 8.691406 23.339844 C 9.308594 23.339844 9.808594 23.839844 9.808594 24.453125 L 9.808594 26.167969 C 9.808594 26.785156 9.308594 27.269531 8.691406 27.269531 L 6.984375 27.269531 C 6.375 27.269531 5.875 26.785156 5.875 26.167969 L 5.875 24.453125 C 5.875 23.839844 6.375 23.339844 6.984375 23.339844 Z M 6.984375 23.339844 "/>
<path style=" stroke:none;fill-rule:nonzero;fill:rgb(37.647059%,41.960784%,50.980392%);fill-opacity:1;" d="M 12.433594 23.339844 L 14.140625 23.339844 C 14.75 23.339844 15.25 23.839844 15.25 24.453125 L 15.25 26.167969 C 15.25 26.785156 14.75 27.269531 14.140625 27.269531 L 12.433594 27.269531 C 11.816406 27.269531 11.316406 26.785156 11.316406 26.167969 L 11.316406 24.453125 C 11.316406 23.839844 11.816406 23.339844 12.433594 23.339844 Z M 12.433594 23.339844 "/>
<path style=" stroke:none;fill-rule:nonzero;fill:rgb(37.647059%,41.960784%,50.980392%);fill-opacity:1;" d="M 17.878906 23.339844 L 19.589844 23.339844 C 20.203125 23.339844 20.703125 23.839844 20.703125 24.453125 L 20.703125 26.167969 C 20.703125 26.785156 20.203125 27.269531 19.589844 27.269531 L 17.878906 27.269531 C 17.265625 27.269531 16.769531 26.785156 16.769531 26.167969 L 16.769531 24.453125 C 16.769531 23.839844 17.265625 23.339844 17.878906 23.339844 Z M 17.878906 23.339844 "/>
</g>
</svg>
