
<svg xmlns="http://www.w3.org/2000/svg" xmlns:xlink="http://www.w3.org/1999/xlink" width="32px" height="32px" viewBox="0 0 32 32" version="1.1">
<g id="surface1">
<path style=" stroke:none;fill-rule:nonzero;fill:rgb(37.647059%,41.960784%,50.980392%);fill-opacity:1;" d="M 31.0625 27.355469 L 31.0625 6.203125 C 31.058594 2.785156 28.292969 0.00390625 24.871094 0 L 14.183594 0 C 10.765625 0.015625 8 2.785156 8 6.203125 L 8 19.332031 C 7.3125 19.058594 6.578125 18.917969 5.832031 18.917969 C 3.121094 18.917969 0.910156 20.75 0.910156 23.015625 C 0.910156 25.277344 3.121094 27.121094 5.832031 27.121094 C 8.558594 27.121094 10.753906 25.277344 10.753906 23.015625 C 10.753906 22.953125 10.753906 22.890625 10.753906 22.828125 L 10.792969 22.828125 L 10.792969 8.683594 C 10.792969 7.285156 11.933594 6.144531 13.328125 6.144531 L 25.75 6.144531 C 27.144531 6.160156 28.269531 7.285156 28.277344 8.683594 L 28.277344 24.183594 C 27.609375 23.921875 26.894531 23.785156 26.1875 23.785156 C 23.464844 23.785156 21.265625 25.621094 21.265625 27.878906 C 21.265625 30.144531 23.464844 32 26.1875 32 C 28.910156 32 31.109375 30.167969 31.109375 27.894531 C 31.109375 27.707031 31.089844 27.535156 31.0625 27.355469 Z M 31.0625 27.355469 "/>
<path style=" stroke:none;fill-rule:nonzero;fill:rgb(37.647059%,41.960784%,50.980392%);fill-opacity:1;" d="M 24.441406 14.0625 L 15.753906 9.0625 C 15.496094 8.917969 15.167969 8.917969 14.894531 9.0625 C 14.628906 9.214844 14.464844 9.5 14.464844 9.808594 L 14.464844 19.828125 C 14.464844 20.128906 14.628906 20.417969 14.894531 20.5625 C 15.167969 20.714844 15.496094 20.714844 15.753906 20.566406 L 24.441406 15.566406 C 24.714844 15.421875 24.890625 15.128906 24.890625 14.816406 C 24.890625 14.5 24.714844 14.207031 24.441406 14.0625 Z M 24.441406 14.0625 "/>
</g>
</svg>
