
<svg xmlns="http://www.w3.org/2000/svg" xmlns:xlink="http://www.w3.org/1999/xlink" width="32px" height="32px" viewBox="0 0 32 32" version="1.1">
<g id="surface1">
<path style=" stroke:none;fill-rule:nonzero;fill:rgb(37.647059%,41.960784%,50.980392%);fill-opacity:1;" d="M 16 32 C 7.167969 32 0 24.832031 0 16 C 0 7.167969 7.167969 0 16 0 C 24.832031 0 32 7.167969 32 16 C 32 24.832031 24.832031 32 16 32 Z M 16 3.359375 C 9.015625 3.359375 3.359375 9.015625 3.359375 16 C 3.359375 22.984375 9.015625 28.640625 16 28.640625 C 22.984375 28.640625 28.640625 22.984375 28.640625 16 C 28.628906 9.019531 22.980469 3.371094 16 3.359375 Z M 16 3.359375 "/>
<path style=" stroke:none;fill-rule:nonzero;fill:rgb(37.647059%,41.960784%,50.980392%);fill-opacity:1;" d="M 15.542969 21.5 C 10.453125 21.535156 5.480469 20.046875 1.246094 17.230469 L 2.246094 15.878906 C 6.203125 18.457031 10.816406 19.828125 15.542969 19.816406 C 20.519531 19.75 25.417969 18.515625 29.832031 16.214844 L 30.671875 17.671875 C 26.003906 20.140625 20.816406 21.453125 15.542969 21.5 Z M 15.542969 21.5 "/>
<path style=" stroke:none;fill-rule:nonzero;fill:rgb(37.647059%,41.960784%,50.980392%);fill-opacity:1;" d="M 29.753906 15.285156 C 25.796875 12.703125 21.183594 11.332031 16.457031 11.339844 C 11.480469 11.410156 6.582031 12.640625 2.167969 14.941406 L 1.328125 13.5 C 5.996094 11.042969 11.183594 9.730469 16.457031 9.683594 C 21.546875 9.644531 26.519531 11.128906 30.753906 13.941406 Z M 29.753906 15.285156 "/>
<path style=" stroke:none;fill-rule:nonzero;fill:rgb(37.647059%,41.960784%,50.980392%);fill-opacity:1;" d="M 13.089844 30.371094 C 12.871094 30.089844 7.625 23.605469 7.625 15.121094 C 7.625 6.640625 13.5 0.953125 13.730469 0.722656 L 14.878906 1.9375 C 14.828125 2 9.308594 7.328125 9.308594 15.121094 C 9.308594 22.917969 14.339844 29.246094 14.394531 29.308594 Z M 13.089844 30.371094 "/>
<path style=" stroke:none;fill-rule:nonzero;fill:rgb(37.647059%,41.960784%,50.980392%);fill-opacity:1;" d="M 18.269531 30.441406 L 17.121094 29.230469 C 17.171875 29.171875 22.691406 23.839844 22.691406 16.042969 C 22.691406 8.246094 17.652344 1.921875 17.605469 1.859375 L 18.910156 0.796875 C 19.128906 1.0625 24.375 7.5625 24.375 16.042969 C 24.375 24.519531 18.519531 30.207031 18.269531 30.441406 Z M 18.269531 30.441406 "/>
<path style=" stroke:none;fill-rule:nonzero;fill:rgb(37.647059%,41.960784%,50.980392%);fill-opacity:1;" d="M 15.160156 1.546875 L 16.839844 1.546875 L 16.839844 31.421875 L 15.160156 31.421875 Z M 15.160156 1.546875 "/>
</g>
</svg>
