
<svg xmlns="http://www.w3.org/2000/svg" xmlns:xlink="http://www.w3.org/1999/xlink" width="32px" height="32px" viewBox="0 0 32 32" version="1.1">
<g id="surface1">
<path style=" stroke:none;fill-rule:nonzero;fill:rgb(100%,100%,100%);fill-opacity:1;" d="M 16.78125 32 L 15.5 32 C 13.558594 31.460938 12.324219 30.296875 12.160156 28.203125 C 12.121094 27.703125 12.003906 27.269531 11.484375 27.070312 C 10.964844 26.871094 10.601562 27.128906 10.21875 27.464844 C 8.652344 28.902344 6.230469 28.84375 4.734375 27.332031 C 3.242188 25.816406 3.214844 23.390625 4.675781 21.84375 C 4.988281 21.484375 5.25 21.144531 5.03125 20.644531 C 4.808594 20.144531 4.359375 20.066406 3.855469 20.050781 C 2.195312 20.015625 0.738281 18.941406 0.21875 17.363281 C 0.148438 17.171875 0.0742188 17 0 16.78125 L 0 15.5 C 0.546875 13.53125 1.738281 12.296875 3.863281 12.15625 C 4.324219 12.191406 4.753906 11.925781 4.925781 11.5 C 5.074219 11.066406 4.9375 10.585938 4.585938 10.289062 C 3.046875 8.742188 3.054688 6.238281 4.601562 4.699219 C 6.152344 3.15625 8.65625 3.164062 10.195312 4.714844 C 10.515625 5.09375 11.050781 5.207031 11.5 5 C 12 4.78125 12.066406 4.359375 12.085938 3.894531 C 12.089844 2.082031 13.347656 0.515625 15.113281 0.121094 C 15.199219 0.0859375 15.28125 0.046875 15.359375 0 L 16.640625 0 C 16.691406 0.0429688 16.75 0.078125 16.816406 0.105469 C 18.773438 0.640625 19.765625 1.871094 19.964844 3.898438 C 20.003906 4.308594 20.226562 4.675781 20.570312 4.898438 C 20.96875 4.96875 21.375 4.855469 21.683594 4.59375 C 23.410156 3.171875 25.683594 3.183594 27.214844 4.683594 C 28.695312 6.207031 28.730469 8.621094 27.289062 10.183594 C 26.921875 10.503906 26.804688 11.023438 27 11.46875 C 27.210938 11.96875 27.628906 12.054688 28.101562 12.058594 C 29.0625 12 30.003906 12.378906 30.65625 13.089844 C 31.167969 13.808594 31.617188 14.566406 32 15.359375 L 32 16.640625 C 31.390625 18.691406 30.125 19.910156 27.886719 19.980469 C 27.542969 20.03125 27.25 20.25 27.105469 20.558594 C 27.0625 20.960938 27.175781 21.363281 27.421875 21.683594 C 28.839844 23.40625 28.824219 25.714844 27.324219 27.226562 C 25.78125 28.699219 23.367188 28.734375 21.78125 27.308594 C 21.476562 27.046875 21.074219 26.9375 20.679688 27.011719 C 20.339844 27.261719 20.125 27.648438 20.085938 28.070312 C 20 29.070312 19.773438 30 19.039062 30.636719 C 18.328125 31.15625 17.574219 31.613281 16.78125 32 Z M 16.070312 29.425781 C 16.453125 29.4375 16.824219 29.292969 17.09375 29.023438 C 17.367188 28.753906 17.511719 28.382812 17.5 28 C 17.535156 26.464844 18.175781 25.289062 19.59375 24.660156 C 20.914062 24.027344 22.488281 24.3125 23.5 25.363281 C 24.050781 25.902344 24.933594 25.890625 25.472656 25.335938 C 26.007812 24.785156 25.996094 23.902344 25.445312 23.363281 C 24.417969 22.355469 24.128906 20.8125 24.726562 19.5 C 25.304688 18.109375 26.429688 17.46875 27.894531 17.363281 C 28.859375 17.300781 29.445312 16.753906 29.425781 15.953125 C 29.40625 15.15625 28.820312 14.65625 27.835938 14.605469 C 26.441406 14.632812 25.171875 13.800781 24.640625 12.511719 C 24.007812 11.183594 24.269531 9.605469 25.296875 8.554688 C 25.945312 7.839844 25.964844 7.054688 25.386719 6.46875 C 24.804688 5.886719 24.039062 5.96875 23.355469 6.566406 C 22.351562 7.566406 20.835938 7.847656 19.539062 7.269531 C 18.121094 6.683594 17.46875 5.546875 17.378906 4.050781 C 17.324219 3.140625 16.78125 2.550781 16 2.550781 C 15.613281 2.554688 15.25 2.71875 14.988281 3.003906 C 14.730469 3.289062 14.597656 3.664062 14.625 4.050781 C 14.570312 5.550781 13.949219 6.730469 12.550781 7.328125 C 11.210938 7.980469 9.605469 7.714844 8.550781 6.664062 C 8.015625 6.113281 7.132812 6.097656 6.578125 6.636719 C 6.027344 7.171875 6.015625 8.050781 6.550781 8.605469 C 7.585938 9.621094 7.875 11.179688 7.273438 12.5 C 6.78125 13.832031 5.515625 14.714844 4.09375 14.714844 C 3.832031 14.714844 3.574219 14.773438 3.339844 14.886719 C 2.78125 15.144531 2.472656 15.753906 2.59375 16.359375 C 2.710938 17.050781 3.332031 17.542969 4.03125 17.5 C 5.566406 17.535156 6.738281 18.175781 7.363281 19.601562 C 7.992188 20.921875 7.695312 22.496094 6.636719 23.5 C 6.46875 23.667969 6.347656 23.875 6.273438 24.101562 C 6.070312 24.679688 6.289062 25.328125 6.808594 25.660156 C 7.359375 26.039062 8.101562 25.960938 8.558594 25.480469 C 9.4375 24.574219 10.734375 24.210938 11.953125 24.53125 C 13.519531 24.859375 14.65625 26.21875 14.699219 27.820312 C 14.789062 28.835938 15.28125 29.40625 16.070312 29.425781 Z M 16.070312 29.425781 "/>
<path style=" stroke:none;fill-rule:nonzero;fill:rgb(100%,100%,100%);fill-opacity:1;" d="M 16 21.304688 C 13.070312 21.304688 10.695312 18.929688 10.695312 16 C 10.695312 13.070312 13.070312 10.695312 16 10.695312 C 18.929688 10.695312 21.304688 13.070312 21.304688 16 C 21.285156 18.921875 18.921875 21.285156 16 21.304688 Z M 18.734375 16 C 18.730469 14.890625 18.058594 13.894531 17.03125 13.476562 C 16.003906 13.058594 14.824219 13.304688 14.046875 14.09375 C 13.273438 14.886719 13.050781 16.066406 13.484375 17.085938 C 13.921875 18.105469 14.929688 18.761719 16.039062 18.746094 C 17.527344 18.699219 18.71875 17.488281 18.734375 16 Z M 18.734375 16 "/>
</g>
</svg>
