
<svg xmlns="http://www.w3.org/2000/svg" xmlns:xlink="http://www.w3.org/1999/xlink" width="32px" height="32px" viewBox="0 0 32 32" version="1.1">
<g id="surface1">
<path style=" stroke:none;fill-rule:nonzero;fill:rgb(37.647059%,41.960784%,50.980392%);fill-opacity:1;" d="M 16 28.847656 C 7.183594 28.847656 0 23.082031 0 16 C 0 8.917969 7.183594 3.152344 16 3.152344 C 24.816406 3.152344 32 8.917969 32 16 C 31.996094 17.902344 31.472656 19.769531 30.5 21.410156 C 30.089844 22.121094 29.371094 22.597656 28.5625 22.691406 C 27.734375 22.808594 26.894531 22.527344 26.308594 21.9375 L 24.078125 19.699219 C 23.753906 19.339844 23.253906 19.1875 22.785156 19.308594 C 22.316406 19.425781 21.949219 19.792969 21.828125 20.261719 C 21.707031 20.734375 21.863281 21.230469 22.222656 21.558594 L 23.859375 23.1875 C 24.503906 23.832031 24.777344 24.761719 24.582031 25.644531 C 24.402344 26.527344 23.792969 27.25 22.953125 27.574219 C 20.734375 28.425781 18.375 28.859375 16 28.847656 Z M 16 5.878906 C 8.683594 5.878906 2.730469 10.421875 2.730469 16 C 2.730469 21.578125 8.683594 26.121094 16 26.121094 C 18.042969 26.128906 20.0625 25.761719 21.972656 25.035156 L 20.296875 23.5 C 18.707031 21.925781 18.703125 19.363281 20.285156 17.785156 C 21.859375 16.199219 24.421875 16.191406 26 17.769531 L 28.238281 20 C 28.902344 18.769531 29.261719 17.394531 29.269531 16 C 29.269531 10.421875 23.316406 5.878906 16 5.878906 Z M 16 5.878906 "/>
<path style=" stroke:none;fill-rule:nonzero;fill:rgb(37.647059%,41.960784%,50.980392%);fill-opacity:1;" d="M 15.964844 13.027344 C 15.964844 11.144531 14.105469 9.625 11.800781 9.625 C 9.5 9.625 7.636719 11.144531 7.636719 13.027344 C 7.636719 14.910156 9.5 16.4375 11.800781 16.4375 C 14.105469 16.4375 15.964844 14.910156 15.964844 13.027344 Z M 15.964844 13.027344 "/>
<path style=" stroke:none;fill-rule:nonzero;fill:rgb(37.647059%,41.960784%,50.980392%);fill-opacity:1;" d="M 15.019531 20.113281 C 15.019531 18.765625 13.558594 17.671875 11.746094 17.671875 C 9.933594 17.671875 8.464844 18.765625 8.464844 20.113281 C 8.464844 21.464844 9.933594 22.5625 11.746094 22.5625 C 13.558594 22.5625 15.019531 21.464844 15.019531 20.113281 Z M 15.019531 20.113281 "/>
</g>
</svg>
