
<svg xmlns="http://www.w3.org/2000/svg" xmlns:xlink="http://www.w3.org/1999/xlink" width="32px" height="32px" viewBox="0 0 32 32" version="1.1">
<g id="surface1">
<path style=" stroke:none;fill-rule:nonzero;fill:rgb(49.411765%,34.117647%,76.862745%);fill-opacity:1;" d="M 2.695312 0 L 29.304688 0 C 30.792969 0 32 1.207031 32 2.695312 L 32 29.304688 C 32 30.792969 30.792969 32 29.304688 32 L 2.695312 32 C 1.207031 32 0 30.792969 0 29.304688 L 0 2.695312 C 0 1.207031 1.207031 0 2.695312 0 Z M 2.695312 0 "/>
<path style=" stroke:none;fill-rule:nonzero;fill:rgb(100%,100%,100%);fill-opacity:1;" d="M 5.875 7.578125 L 8.574219 7.578125 C 9.089844 7.578125 9.503906 7.996094 9.503906 8.511719 L 9.503906 11.210938 C 9.503906 11.722656 9.089844 12.140625 8.574219 12.140625 L 5.875 12.140625 C 5.363281 12.140625 4.945312 11.722656 4.945312 11.210938 L 4.945312 8.511719 C 4.945312 7.996094 5.363281 7.578125 5.875 7.578125 Z M 5.875 7.578125 "/>
<path style=" stroke:none;fill-rule:nonzero;fill:rgb(100%,100%,100%);fill-opacity:1;" d="M 11.726562 7.578125 L 14.425781 7.578125 C 14.9375 7.578125 15.355469 7.996094 15.355469 8.511719 L 15.355469 11.210938 C 15.355469 11.722656 14.9375 12.140625 14.425781 12.140625 L 11.726562 12.140625 C 11.210938 12.140625 10.796875 11.722656 10.796875 11.210938 L 10.796875 8.511719 C 10.796875 7.996094 11.210938 7.578125 11.726562 7.578125 Z M 11.726562 7.578125 "/>
<path style=" stroke:none;fill-rule:nonzero;fill:rgb(100%,100%,100%);fill-opacity:1;" d="M 17.574219 7.578125 L 20.273438 7.578125 C 20.789062 7.578125 21.203125 7.996094 21.203125 8.511719 L 21.203125 11.210938 C 21.203125 11.722656 20.789062 12.140625 20.273438 12.140625 L 17.574219 12.140625 C 17.0625 12.140625 16.644531 11.722656 16.644531 11.210938 L 16.644531 8.511719 C 16.644531 7.996094 17.0625 7.578125 17.574219 7.578125 Z M 17.574219 7.578125 "/>
<path style=" stroke:none;fill-rule:nonzero;fill:rgb(100%,100%,100%);fill-opacity:1;" d="M 23.421875 7.578125 L 26.121094 7.578125 C 26.632812 7.578125 27.050781 7.996094 27.050781 8.511719 L 27.050781 11.210938 C 27.050781 11.722656 26.632812 12.140625 26.121094 12.140625 L 23.421875 12.140625 C 22.90625 12.140625 22.488281 11.722656 22.488281 11.210938 L 22.488281 8.511719 C 22.488281 7.996094 22.90625 7.578125 23.421875 7.578125 Z M 23.421875 7.578125 "/>
<path style=" stroke:none;fill-rule:nonzero;fill:rgb(100%,100%,100%);fill-opacity:1;" d="M 5.875 14.398438 L 8.574219 14.398438 C 9.089844 14.398438 9.503906 14.816406 9.503906 15.328125 L 9.503906 18.03125 C 9.503906 18.542969 9.089844 18.960938 8.574219 18.960938 L 5.875 18.960938 C 5.363281 18.960938 4.945312 18.542969 4.945312 18.03125 L 4.945312 15.328125 C 4.945312 14.816406 5.363281 14.398438 5.875 14.398438 Z M 5.875 14.398438 "/>
<path style=" stroke:none;fill-rule:nonzero;fill:rgb(100%,100%,100%);fill-opacity:1;" d="M 11.726562 14.398438 L 14.425781 14.398438 C 14.9375 14.398438 15.355469 14.816406 15.355469 15.328125 L 15.355469 18.03125 C 15.355469 18.542969 14.9375 18.960938 14.425781 18.960938 L 11.726562 18.960938 C 11.210938 18.960938 10.796875 18.542969 10.796875 18.03125 L 10.796875 15.328125 C 10.796875 14.816406 11.210938 14.398438 11.726562 14.398438 Z M 11.726562 14.398438 "/>
</g>
</svg>
