
<svg xmlns="http://www.w3.org/2000/svg" xmlns:xlink="http://www.w3.org/1999/xlink" width="32px" height="32px" viewBox="0 0 32 32" version="1.1">
<g id="surface1">
<path style=" stroke:none;fill-rule:nonzero;fill:rgb(36.078431%,41.960784%,75.294118%);fill-opacity:1;" d="M 2.695312 0 L 29.304688 0 C 30.792969 0 32 1.207031 32 2.695312 L 32 29.304688 C 32 30.792969 30.792969 32 29.304688 32 L 2.695312 32 C 1.207031 32 0 30.792969 0 29.304688 L 0 2.695312 C 0 1.207031 1.207031 0 2.695312 0 Z M 2.695312 0 "/>
<path style=" stroke:none;fill-rule:nonzero;fill:rgb(100%,100%,100%);fill-opacity:1;" d="M 17.566406 16 L 21.273438 12.289062 C 21.574219 11.988281 21.574219 11.503906 21.273438 11.199219 L 16.910156 6.835938 C 16.6875 6.617188 16.355469 6.550781 16.070312 6.667969 C 15.78125 6.789062 15.59375 7.070312 15.589844 7.378906 L 15.589844 14.023438 L 11.859375 10.296875 C 11.558594 9.992188 11.070312 9.992188 10.769531 10.296875 C 10.46875 10.597656 10.46875 11.085938 10.769531 11.386719 L 15.386719 16 L 10.726562 20.65625 C 10.460938 20.960938 10.480469 21.417969 10.765625 21.707031 C 11.050781 21.992188 11.507812 22.011719 11.816406 21.75 L 15.589844 18 L 15.589844 24.621094 C 15.59375 24.9375 15.792969 25.21875 16.089844 25.328125 C 16.183594 25.371094 16.285156 25.390625 16.386719 25.390625 C 16.589844 25.386719 16.785156 25.308594 16.929688 25.164062 L 21.296875 20.800781 C 21.59375 20.496094 21.59375 20.011719 21.296875 19.710938 Z M 17.136719 9.246094 L 19.636719 11.746094 L 17.136719 14.246094 Z M 17.136719 22.746094 L 17.136719 17.746094 L 19.636719 20.246094 Z M 17.136719 22.746094 "/>
</g>
</svg>
