
<svg xmlns="http://www.w3.org/2000/svg" xmlns:xlink="http://www.w3.org/1999/xlink" width="32px" height="32px" viewBox="0 0 32 32" version="1.1">
<defs>
<linearGradient id="linear0" gradientUnits="userSpaceOnUse" x1="32.86" y1="52.99" x2="32.86" y2="54.6" gradientTransform="matrix(0.5,0,0,0.5,-0.065,0.025)">
<stop offset="0" style="stop-color:rgb(86.27451%,87.058824%,88.627451%);stop-opacity:1;"/>
<stop offset="0.57" style="stop-color:rgb(87.058824%,87.843137%,89.411765%);stop-opacity:1;"/>
<stop offset="0.81" style="stop-color:rgb(89.803922%,90.588235%,91.764706%);stop-opacity:1;"/>
<stop offset="0.99" style="stop-color:rgb(94.901961%,95.294118%,95.686275%);stop-opacity:1;"/>
<stop offset="1" style="stop-color:rgb(95.294118%,95.686275%,96.078431%);stop-opacity:1;"/>
</linearGradient>
</defs>
<g id="surface1">
<path style=" stroke:none;fill-rule:nonzero;fill:rgb(36.078431%,41.960784%,75.294118%);fill-opacity:1;" d="M 2.695312 0 L 29.304688 0 C 30.792969 0 32 1.207031 32 2.695312 L 32 29.304688 C 32 30.792969 30.792969 32 29.304688 32 L 2.695312 32 C 1.207031 32 0 30.792969 0 29.304688 L 0 2.695312 C 0 1.207031 1.207031 0 2.695312 0 Z M 2.695312 0 "/>
<path style=" stroke:none;fill-rule:nonzero;fill:url(#linear0);" d="M 21.941406 27.195312 L 21 27.195312 C 20.59375 27.195312 20.265625 26.867188 20.265625 26.460938 L 20.265625 23.074219 L 12.5 23.074219 L 12.5 26.453125 C 12.5 26.859375 12.171875 27.191406 11.765625 27.191406 L 10.789062 27.191406 C 10.390625 27.191406 10.066406 27.515625 10.066406 27.914062 C 10.066406 28.316406 10.390625 28.640625 10.789062 28.640625 L 21.941406 28.640625 C 22.132812 28.640625 22.320312 28.566406 22.457031 28.429688 C 22.59375 28.292969 22.671875 28.109375 22.671875 27.914062 C 22.667969 27.515625 22.339844 27.191406 21.941406 27.195312 Z M 21.941406 27.195312 "/>
<path style=" stroke:none;fill-rule:nonzero;fill:rgb(16.078431%,71.372549%,96.470588%);fill-opacity:1;" d="M 4.570312 5.929688 L 27.429688 5.929688 C 27.957031 5.929688 28.386719 6.359375 28.386719 6.886719 L 28.386719 21.976562 C 28.386719 22.503906 27.957031 22.929688 27.429688 22.929688 L 4.570312 22.929688 C 4.042969 22.929688 3.613281 22.503906 3.613281 21.976562 L 3.613281 6.886719 C 3.613281 6.359375 4.042969 5.929688 4.570312 5.929688 Z M 4.570312 5.929688 "/>
<path style=" stroke:none;fill-rule:nonzero;fill:rgb(100%,100%,100%);fill-opacity:1;" d="M 27.429688 23.371094 L 4.570312 23.371094 C 3.808594 23.371094 3.1875 22.761719 3.175781 22 L 3.175781 6.886719 C 3.179688 6.117188 3.804688 5.5 4.570312 5.5 L 27.429688 5.5 C 28.199219 5.5 28.824219 6.125 28.824219 6.894531 L 28.824219 22 C 28.8125 22.761719 28.191406 23.371094 27.429688 23.371094 Z M 4.570312 6.371094 C 4.292969 6.371094 4.070312 6.59375 4.070312 6.871094 L 4.070312 22 C 4.070312 22.277344 4.292969 22.5 4.570312 22.5 L 27.429688 22.5 C 27.707031 22.5 27.929688 22.277344 27.929688 22 L 27.929688 6.886719 C 27.929688 6.609375 27.707031 6.386719 27.429688 6.386719 Z M 4.570312 6.371094 "/>
<path style=" stroke:none;fill-rule:nonzero;fill:rgb(100%,100%,100%);fill-opacity:1;" d="M 3.300781 21 L 28.65625 21 L 28.65625 22.101562 C 28.65625 22.707031 28.164062 23.199219 27.554688 23.199219 L 4.398438 23.199219 C 3.792969 23.199219 3.300781 22.707031 3.300781 22.101562 Z M 3.300781 21 "/>
<path style=" stroke:none;fill-rule:nonzero;fill:rgb(100%,100%,100%);fill-opacity:1;" d="M 20.683594 12.945312 C 20.574219 12.847656 20.429688 12.800781 20.285156 12.816406 C 19.855469 12.847656 19.449219 12.601562 19.285156 12.199219 C 19.117188 11.808594 19.203125 11.355469 19.5 11.054688 C 19.789062 10.761719 19.789062 10.292969 19.5 10 C 19.367188 9.863281 19.1875 9.785156 19 9.785156 C 18.789062 9.789062 18.589844 9.867188 18.429688 10.003906 C 18.222656 10.175781 17.960938 10.273438 17.691406 10.28125 C 17.582031 10.28125 17.472656 10.261719 17.371094 10.21875 C 17.019531 10.050781 16.78125 9.707031 16.738281 9.320312 C 16.757812 8.941406 16.484375 8.609375 16.109375 8.550781 L 15.851562 8.550781 C 15.5 8.613281 15.25 8.925781 15.261719 9.28125 C 15.28125 9.699219 15.035156 10.085938 14.648438 10.25 C 14.519531 10.304688 14.378906 10.332031 14.234375 10.335938 C 13.964844 10.335938 13.699219 10.234375 13.5 10.050781 C 13.351562 9.910156 13.15625 9.832031 12.953125 9.828125 C 12.765625 9.832031 12.585938 9.90625 12.453125 10.039062 C 12.167969 10.328125 12.167969 10.796875 12.453125 11.085938 C 12.75 11.371094 12.84375 11.804688 12.699219 12.191406 C 12.554688 12.589844 12.175781 12.855469 11.75 12.851562 C 11.382812 12.84375 11.0625 13.105469 11 13.46875 L 11 13.703125 C 11.011719 13.746094 11.023438 13.78125 11.039062 13.820312 C 11.136719 14.113281 11.410156 14.316406 11.71875 14.320312 C 12.152344 14.269531 12.570312 14.507812 12.746094 14.90625 C 12.925781 15.300781 12.824219 15.769531 12.5 16.058594 C 12.230469 16.351562 12.230469 16.804688 12.5 17.09375 C 12.632812 17.226562 12.8125 17.304688 13 17.308594 C 13.183594 17.304688 13.359375 17.234375 13.5 17.113281 C 13.703125 16.914062 13.972656 16.796875 14.253906 16.789062 C 14.378906 16.789062 14.5 16.8125 14.613281 16.855469 C 15.015625 17.011719 15.28125 17.394531 15.28125 17.824219 C 15.28125 18.1875 15.542969 18.496094 15.898438 18.558594 L 16.085938 18.558594 L 16.199219 18.5 C 16.351562 18.425781 16.492188 18.335938 16.625 18.234375 C 16.722656 18.101562 16.773438 17.9375 16.769531 17.769531 C 16.800781 17.394531 17.011719 17.058594 17.335938 16.863281 C 17.453125 16.804688 17.582031 16.773438 17.714844 16.773438 C 17.984375 16.78125 18.242188 16.878906 18.449219 17.050781 C 18.609375 17.1875 18.808594 17.265625 19.019531 17.269531 C 19.207031 17.269531 19.386719 17.195312 19.519531 17.066406 C 19.808594 16.761719 19.808594 16.285156 19.519531 15.984375 C 19.308594 15.726562 19.21875 15.390625 19.269531 15.058594 C 19.375 14.636719 19.738281 14.328125 20.175781 14.300781 C 20.570312 14.332031 20.921875 14.0625 21 13.675781 L 21 13.5 L 20.941406 13.386719 C 20.871094 13.230469 20.785156 13.082031 20.683594 12.945312 Z M 16.003906 15.445312 C 15.242188 15.445312 14.554688 14.988281 14.265625 14.285156 C 13.972656 13.582031 14.132812 12.773438 14.671875 12.234375 C 15.207031 11.699219 16.019531 11.535156 16.722656 11.828125 C 17.425781 12.121094 17.882812 12.808594 17.878906 13.570312 C 17.859375 14.597656 17.027344 15.421875 16 15.429688 Z M 16.003906 15.445312 "/>
<path style=" stroke:none;fill-rule:nonzero;fill:rgb(100%,100%,100%);fill-opacity:1;" d="M 16 12.585938 C 15.605469 12.582031 15.25 12.816406 15.097656 13.179688 C 14.941406 13.539062 15.023438 13.960938 15.300781 14.238281 C 15.578125 14.519531 16 14.601562 16.363281 14.449219 C 16.726562 14.300781 16.960938 13.945312 16.960938 13.550781 C 16.941406 13.027344 16.523438 12.605469 16 12.585938 Z M 16 12.585938 "/>
</g>
</svg>
