
<svg xmlns="http://www.w3.org/2000/svg" xmlns:xlink="http://www.w3.org/1999/xlink" width="32px" height="32px" viewBox="0 0 32 32" version="1.1">
<defs>
<clipPath id="clip1">
  <path d="M 15.332031 4.332031 L 16.332031 4.332031 L 16.332031 7.667969 L 15.332031 7.667969 Z M 15.332031 4.332031 "/>
</clipPath>
<clipPath id="clip2">
  <path d="M 27.636719 16 C 27.636719 22.425781 22.425781 27.636719 16 27.636719 C 9.574219 27.636719 4.363281 22.425781 4.363281 16 C 4.363281 9.574219 9.574219 4.363281 16 4.363281 C 22.425781 4.363281 27.636719 9.574219 27.636719 16 Z M 27.636719 16 "/>
</clipPath>
<clipPath id="clip3">
  <path d="M 15.332031 24.332031 L 16.332031 24.332031 L 16.332031 27.667969 L 15.332031 27.667969 Z M 15.332031 24.332031 "/>
</clipPath>
<clipPath id="clip4">
  <path d="M 27.636719 16 C 27.636719 22.425781 22.425781 27.636719 16 27.636719 C 9.574219 27.636719 4.363281 22.425781 4.363281 16 C 4.363281 9.574219 9.574219 4.363281 16 4.363281 C 22.425781 4.363281 27.636719 9.574219 27.636719 16 Z M 27.636719 16 "/>
</clipPath>
<clipPath id="clip5">
  <path d="M 24.332031 15.667969 L 27.667969 15.667969 L 27.667969 16.667969 L 24.332031 16.667969 Z M 24.332031 15.667969 "/>
</clipPath>
<clipPath id="clip6">
  <path d="M 27.636719 16 C 27.636719 22.425781 22.425781 27.636719 16 27.636719 C 9.574219 27.636719 4.363281 22.425781 4.363281 16 C 4.363281 9.574219 9.574219 4.363281 16 4.363281 C 22.425781 4.363281 27.636719 9.574219 27.636719 16 Z M 27.636719 16 "/>
</clipPath>
<clipPath id="clip7">
  <path d="M 4.332031 15.667969 L 7.332031 15.667969 L 7.332031 16.332031 L 4.332031 16.332031 Z M 4.332031 15.667969 "/>
</clipPath>
<clipPath id="clip8">
  <path d="M 27.636719 16 C 27.636719 22.425781 22.425781 27.636719 16 27.636719 C 9.574219 27.636719 4.363281 22.425781 4.363281 16 C 4.363281 9.574219 9.574219 4.363281 16 4.363281 C 22.425781 4.363281 27.636719 9.574219 27.636719 16 Z M 27.636719 16 "/>
</clipPath>
<clipPath id="clip9">
  <path d="M 24 20.667969 L 27.667969 20.667969 L 27.667969 24.667969 L 24 24.667969 Z M 24 20.667969 "/>
</clipPath>
<clipPath id="clip10">
  <path d="M 27.636719 16 C 27.636719 22.425781 22.425781 27.636719 16 27.636719 C 9.574219 27.636719 4.363281 22.425781 4.363281 16 C 4.363281 9.574219 9.574219 4.363281 16 4.363281 C 22.425781 4.363281 27.636719 9.574219 27.636719 16 Z M 27.636719 16 "/>
</clipPath>
<clipPath id="clip11">
  <path d="M 4.332031 7.332031 L 7.667969 7.332031 L 7.667969 11.332031 L 4.332031 11.332031 Z M 4.332031 7.332031 "/>
</clipPath>
<clipPath id="clip12">
  <path d="M 27.636719 16 C 27.636719 22.425781 22.425781 27.636719 16 27.636719 C 9.574219 27.636719 4.363281 22.425781 4.363281 16 C 4.363281 9.574219 9.574219 4.363281 16 4.363281 C 22.425781 4.363281 27.636719 9.574219 27.636719 16 Z M 27.636719 16 "/>
</clipPath>
<clipPath id="clip13">
  <path d="M 20 24.332031 L 23.667969 24.332031 L 23.667969 27.667969 L 20 27.667969 Z M 20 24.332031 "/>
</clipPath>
<clipPath id="clip14">
  <path d="M 27.636719 16 C 27.636719 22.425781 22.425781 27.636719 16 27.636719 C 9.574219 27.636719 4.363281 22.425781 4.363281 16 C 4.363281 9.574219 9.574219 4.363281 16 4.363281 C 22.425781 4.363281 27.636719 9.574219 27.636719 16 Z M 27.636719 16 "/>
</clipPath>
<clipPath id="clip15">
  <path d="M 8 4.332031 L 11.667969 4.332031 L 11.667969 7.667969 L 8 7.667969 Z M 8 4.332031 "/>
</clipPath>
<clipPath id="clip16">
  <path d="M 27.636719 16 C 27.636719 22.425781 22.425781 27.636719 16 27.636719 C 9.574219 27.636719 4.363281 22.425781 4.363281 16 C 4.363281 9.574219 9.574219 4.363281 16 4.363281 C 22.425781 4.363281 27.636719 9.574219 27.636719 16 Z M 27.636719 16 "/>
</clipPath>
<clipPath id="clip17">
  <path d="M 4.332031 20.667969 L 7.667969 20.667969 L 7.667969 24.667969 L 4.332031 24.667969 Z M 4.332031 20.667969 "/>
</clipPath>
<clipPath id="clip18">
  <path d="M 27.636719 16 C 27.636719 22.425781 22.425781 27.636719 16 27.636719 C 9.574219 27.636719 4.363281 22.425781 4.363281 16 C 4.363281 9.574219 9.574219 4.363281 16 4.363281 C 22.425781 4.363281 27.636719 9.574219 27.636719 16 Z M 27.636719 16 "/>
</clipPath>
<clipPath id="clip19">
  <path d="M 24 7.332031 L 27.667969 7.332031 L 27.667969 11.332031 L 24 11.332031 Z M 24 7.332031 "/>
</clipPath>
<clipPath id="clip20">
  <path d="M 27.636719 16 C 27.636719 22.425781 22.425781 27.636719 16 27.636719 C 9.574219 27.636719 4.363281 22.425781 4.363281 16 C 4.363281 9.574219 9.574219 4.363281 16 4.363281 C 22.425781 4.363281 27.636719 9.574219 27.636719 16 Z M 27.636719 16 "/>
</clipPath>
<clipPath id="clip21">
  <path d="M 8 24.332031 L 11.667969 24.332031 L 11.667969 27.667969 L 8 27.667969 Z M 8 24.332031 "/>
</clipPath>
<clipPath id="clip22">
  <path d="M 27.636719 16 C 27.636719 22.425781 22.425781 27.636719 16 27.636719 C 9.574219 27.636719 4.363281 22.425781 4.363281 16 C 4.363281 9.574219 9.574219 4.363281 16 4.363281 C 22.425781 4.363281 27.636719 9.574219 27.636719 16 Z M 27.636719 16 "/>
</clipPath>
<clipPath id="clip23">
  <path d="M 20 4.332031 L 23.667969 4.332031 L 23.667969 7.667969 L 20 7.667969 Z M 20 4.332031 "/>
</clipPath>
<clipPath id="clip24">
  <path d="M 27.636719 16 C 27.636719 22.425781 22.425781 27.636719 16 27.636719 C 9.574219 27.636719 4.363281 22.425781 4.363281 16 C 4.363281 9.574219 9.574219 4.363281 16 4.363281 C 22.425781 4.363281 27.636719 9.574219 27.636719 16 Z M 27.636719 16 "/>
</clipPath>
</defs>
<g id="surface1">
<path style=" stroke:none;fill-rule:nonzero;fill:rgb(91.764706%,92.156863%,93.72549%);fill-opacity:1;" d="M 2.695312 0 L 29.304688 0 C 30.792969 0 32 1.207031 32 2.695312 L 32 29.304688 C 32 30.792969 30.792969 32 29.304688 32 L 2.695312 32 C 1.207031 32 0 30.792969 0 29.304688 L 0 2.695312 C 0 1.207031 1.207031 0 2.695312 0 Z M 2.695312 0 "/>
<path style=" stroke:none;fill-rule:nonzero;fill:rgb(49.411765%,34.117647%,76.862745%);fill-opacity:1;" d="M 27.636719 16 C 27.636719 22.425781 22.425781 27.636719 16 27.636719 C 9.574219 27.636719 4.363281 22.425781 4.363281 16 C 4.363281 9.574219 9.574219 4.363281 16 4.363281 C 22.425781 4.363281 27.636719 9.574219 27.636719 16 Z M 27.636719 16 "/>
<path style=" stroke:none;fill-rule:nonzero;fill:rgb(100%,100%,100%);fill-opacity:1;" d="M 15.886719 9.316406 C 16.09375 9.316406 16.261719 9.484375 16.261719 9.691406 L 16.261719 15.714844 C 16.261719 15.921875 16.09375 16.089844 15.886719 16.089844 C 15.679688 16.089844 15.511719 15.921875 15.511719 15.714844 L 15.511719 9.691406 C 15.511719 9.484375 15.679688 9.316406 15.886719 9.316406 Z M 15.886719 9.316406 "/>
<path style=" stroke:none;fill-rule:nonzero;fill:rgb(100%,40%,84.313725%);fill-opacity:1;" d="M 16.179688 16.046875 L 22.382812 22.25 C 22.449219 22.316406 22.449219 22.421875 22.382812 22.488281 C 22.316406 22.554688 22.210938 22.554688 22.144531 22.488281 L 15.941406 16.289062 C 15.875 16.222656 15.875 16.113281 15.941406 16.046875 C 16.007812 15.980469 16.113281 15.980469 16.179688 16.046875 Z M 16.179688 16.046875 "/>
<path style=" stroke:none;fill-rule:nonzero;fill:rgb(100%,100%,100%);fill-opacity:1;" d="M 16.578125 16 C 16.578125 16.363281 16.285156 16.65625 15.925781 16.65625 C 15.5625 16.65625 15.269531 16.363281 15.269531 16 C 15.269531 15.636719 15.5625 15.34375 15.925781 15.34375 C 16.285156 15.34375 16.578125 15.636719 16.578125 16 Z M 16.578125 16 "/>
<g clip-path="url(#clip1)" clip-rule="nonzero">
<g clip-path="url(#clip2)" clip-rule="nonzero">
<path style=" stroke:none;fill-rule:nonzero;fill:rgb(100%,100%,100%);fill-opacity:1;" d="M 15.886719 1.453125 C 16.066406 1.453125 16.214844 1.601562 16.214844 1.785156 L 16.214844 7.09375 C 16.214844 7.277344 16.066406 7.425781 15.886719 7.425781 C 15.703125 7.425781 15.554688 7.277344 15.554688 7.09375 L 15.554688 1.785156 C 15.554688 1.601562 15.703125 1.453125 15.886719 1.453125 Z M 15.886719 1.453125 "/>
</g>
</g>
<g clip-path="url(#clip3)" clip-rule="nonzero">
<g clip-path="url(#clip4)" clip-rule="nonzero">
<path style=" stroke:none;fill-rule:nonzero;fill:rgb(100%,100%,100%);fill-opacity:1;" d="M 15.886719 24.574219 C 16.066406 24.574219 16.214844 24.722656 16.214844 24.90625 L 16.214844 30.214844 C 16.214844 30.398438 16.066406 30.546875 15.886719 30.546875 C 15.703125 30.546875 15.554688 30.398438 15.554688 30.214844 L 15.554688 24.90625 C 15.554688 24.722656 15.703125 24.574219 15.886719 24.574219 Z M 15.886719 24.574219 "/>
</g>
</g>
<g clip-path="url(#clip5)" clip-rule="nonzero">
<g clip-path="url(#clip6)" clip-rule="nonzero">
<path style=" stroke:none;fill-rule:nonzero;fill:rgb(100%,100%,100%);fill-opacity:1;" d="M 30.429688 16.003906 C 30.429688 16.1875 30.28125 16.335938 30.101562 16.335938 L 24.789062 16.335938 C 24.609375 16.335938 24.460938 16.1875 24.460938 16.003906 C 24.460938 15.824219 24.609375 15.675781 24.789062 15.675781 L 30.101562 15.675781 C 30.28125 15.675781 30.429688 15.824219 30.429688 16.003906 Z M 30.429688 16.003906 "/>
</g>
</g>
<g clip-path="url(#clip7)" clip-rule="nonzero">
<g clip-path="url(#clip8)" clip-rule="nonzero">
<path style=" stroke:none;fill-rule:nonzero;fill:rgb(100%,100%,100%);fill-opacity:1;" d="M 7.308594 16 C 7.308594 16.183594 7.164062 16.328125 6.980469 16.328125 L 1.671875 16.328125 C 1.488281 16.328125 1.339844 16.183594 1.339844 16 C 1.339844 15.816406 1.488281 15.671875 1.671875 15.671875 L 6.980469 15.671875 C 7.164062 15.671875 7.308594 15.816406 7.308594 16 Z M 7.308594 16 "/>
</g>
</g>
<g clip-path="url(#clip9)" clip-rule="nonzero">
<g clip-path="url(#clip10)" clip-rule="nonzero">
<path style=" stroke:none;fill-rule:nonzero;fill:rgb(100%,100%,100%);fill-opacity:1;" d="M 30.144531 24.320312 C 30.113281 24.378906 30.035156 24.398438 29.976562 24.363281 L 24.339844 21.074219 C 24.28125 21.039062 24.261719 20.964844 24.296875 20.90625 C 24.328125 20.847656 24.40625 20.828125 24.464844 20.863281 L 30.101562 24.152344 C 30.160156 24.1875 30.179688 24.261719 30.144531 24.320312 Z M 30.144531 24.320312 "/>
</g>
</g>
<g clip-path="url(#clip11)" clip-rule="nonzero">
<g clip-path="url(#clip12)" clip-rule="nonzero">
<path style=" stroke:none;fill-rule:nonzero;fill:rgb(100%,100%,100%);fill-opacity:1;" d="M 7.476562 11.09375 C 7.441406 11.152344 7.367188 11.171875 7.308594 11.136719 L 1.671875 7.847656 C 1.613281 7.8125 1.589844 7.738281 1.625 7.679688 C 1.660156 7.621094 1.734375 7.601562 1.792969 7.636719 L 7.429688 10.925781 C 7.488281 10.960938 7.511719 11.035156 7.476562 11.09375 Z M 7.476562 11.09375 "/>
</g>
</g>
<g clip-path="url(#clip13)" clip-rule="nonzero">
<g clip-path="url(#clip14)" clip-rule="nonzero">
<path style=" stroke:none;fill-rule:nonzero;fill:rgb(100%,100%,100%);fill-opacity:1;" d="M 23.402344 30.707031 C 23.34375 30.738281 23.265625 30.710938 23.234375 30.648438 L 20.269531 24.839844 C 20.238281 24.777344 20.261719 24.703125 20.320312 24.671875 C 20.382812 24.640625 20.457031 24.667969 20.488281 24.726562 L 23.453125 30.539062 C 23.484375 30.601562 23.460938 30.675781 23.402344 30.707031 Z M 23.402344 30.707031 "/>
</g>
</g>
<g clip-path="url(#clip15)" clip-rule="nonzero">
<g clip-path="url(#clip16)" clip-rule="nonzero">
<path style=" stroke:none;fill-rule:nonzero;fill:rgb(100%,100%,100%);fill-opacity:1;" d="M 11.453125 7.339844 C 11.394531 7.371094 11.320312 7.34375 11.289062 7.285156 L 8.320312 1.472656 C 8.289062 1.410156 8.3125 1.335938 8.371094 1.304688 C 8.433594 1.273438 8.507812 1.300781 8.539062 1.363281 L 11.507812 7.171875 C 11.539062 7.234375 11.515625 7.308594 11.453125 7.339844 Z M 11.453125 7.339844 "/>
</g>
</g>
<g clip-path="url(#clip17)" clip-rule="nonzero">
<g clip-path="url(#clip18)" clip-rule="nonzero">
<path style=" stroke:none;fill-rule:nonzero;fill:rgb(100%,100%,100%);fill-opacity:1;" d="M 7.476562 20.902344 C 7.511719 20.960938 7.492188 21.039062 7.433594 21.070312 L 1.796875 24.359375 C 1.738281 24.394531 1.660156 24.375 1.628906 24.320312 C 1.59375 24.261719 1.613281 24.183594 1.671875 24.148438 L 7.308594 20.859375 C 7.367188 20.824219 7.445312 20.84375 7.476562 20.902344 Z M 7.476562 20.902344 "/>
</g>
</g>
<g clip-path="url(#clip19)" clip-rule="nonzero">
<g clip-path="url(#clip20)" clip-rule="nonzero">
<path style=" stroke:none;fill-rule:nonzero;fill:rgb(100%,100%,100%);fill-opacity:1;" d="M 30.054688 7.558594 C 30.089844 7.617188 30.066406 7.691406 30.007812 7.726562 L 24.398438 10.988281 C 24.335938 11.023438 24.261719 11.003906 24.226562 10.945312 C 24.195312 10.890625 24.214844 10.8125 24.273438 10.777344 L 29.886719 7.515625 C 29.945312 7.480469 30.019531 7.5 30.054688 7.558594 Z M 30.054688 7.558594 "/>
</g>
</g>
<g clip-path="url(#clip21)" clip-rule="nonzero">
<g clip-path="url(#clip22)" clip-rule="nonzero">
<path style=" stroke:none;fill-rule:nonzero;fill:rgb(100%,100%,100%);fill-opacity:1;" d="M 11.453125 24.667969 C 11.511719 24.699219 11.535156 24.773438 11.503906 24.835938 L 8.539062 30.648438 C 8.503906 30.710938 8.429688 30.734375 8.371094 30.703125 C 8.3125 30.671875 8.289062 30.597656 8.320312 30.535156 L 11.285156 24.726562 C 11.316406 24.664062 11.390625 24.640625 11.453125 24.667969 Z M 11.453125 24.667969 "/>
</g>
</g>
<g clip-path="url(#clip23)" clip-rule="nonzero">
<g clip-path="url(#clip24)" clip-rule="nonzero">
<path style=" stroke:none;fill-rule:nonzero;fill:rgb(100%,100%,100%);fill-opacity:1;" d="M 23.394531 1.300781 C 23.453125 1.332031 23.476562 1.40625 23.445312 1.46875 L 20.480469 7.28125 C 20.449219 7.339844 20.375 7.367188 20.3125 7.335938 C 20.253906 7.304688 20.230469 7.230469 20.261719 7.167969 L 23.226562 1.355469 C 23.257812 1.296875 23.332031 1.269531 23.394531 1.300781 Z M 23.394531 1.300781 "/>
</g>
</g>
</g>
</svg>
