
<svg xmlns="http://www.w3.org/2000/svg" xmlns:xlink="http://www.w3.org/1999/xlink" width="32px" height="32px" viewBox="0 0 32 32" version="1.1">
<g id="surface1">
<path style=" stroke:none;fill-rule:nonzero;fill:rgb(79.607843%,79.607843%,79.607843%);fill-opacity:1;" d="M 32 16 L 32 2.695312 C 32 1.207031 30.792969 0 29.304688 0 L 16 0 L 16 16 Z M 32 16 "/>
<path style=" stroke:none;fill-rule:nonzero;fill:rgb(49.411765%,34.117647%,76.862745%);fill-opacity:1;" d="M 20.769531 7.71875 C 20.632812 7.023438 20.105469 6.472656 19.414062 6.304688 C 18.726562 6.140625 18.003906 6.390625 17.566406 6.945312 C 17.40625 7.15625 17.15625 7.285156 16.890625 7.289062 L 16.664062 7.289062 C 16.296875 7.289062 16 6.988281 16 6.621094 L 16 0 L 2.695312 0 C 1.207031 0 0 1.207031 0 2.695312 L 0 16 L 16 16 L 16 9.5 C 16 9.132812 16.296875 8.835938 16.664062 8.835938 L 16.890625 8.835938 C 17.15625 8.839844 17.40625 8.964844 17.566406 9.179688 C 18.085938 9.847656 19 10.066406 19.765625 9.707031 C 20.53125 9.347656 20.949219 8.507812 20.769531 7.679688 Z M 20.769531 7.71875 "/>
<path style=" stroke:none;fill-rule:nonzero;fill:rgb(91.764706%,92.156863%,93.72549%);fill-opacity:1;" d="M 8.558594 15.5 L 8.558594 14.835938 C 8.566406 14.570312 8.691406 14.320312 8.90625 14.160156 C 9.574219 13.640625 9.792969 12.726562 9.433594 11.960938 C 9.074219 11.191406 8.230469 10.777344 7.40625 10.953125 C 6.710938 11.089844 6.15625 11.621094 5.992188 12.308594 C 5.824219 12.996094 6.074219 13.722656 6.628906 14.160156 C 6.851562 14.316406 6.988281 14.566406 7 14.835938 L 7 15.429688 C 7.019531 15.574219 6.976562 15.71875 6.878906 15.828125 C 6.785156 15.9375 6.644531 16 6.5 16 L 0 16 L 0 29.304688 C 0 30.792969 1.207031 32 2.695312 32 L 16 32 L 16 16 L 9.046875 16 C 8.773438 15.992188 8.558594 15.769531 8.558594 15.5 Z M 8.558594 15.5 "/>
<path style=" stroke:none;fill-rule:nonzero;fill:rgb(92.54902%,25.098039%,47.843137%);fill-opacity:1;" d="M 24.886719 15.359375 L 24.886719 14.789062 C 24.890625 14.523438 25.019531 14.273438 25.234375 14.113281 C 25.902344 13.59375 26.121094 12.679688 25.761719 11.914062 C 25.402344 11.148438 24.5625 10.730469 23.734375 10.910156 C 23.046875 11.058594 22.503906 11.59375 22.347656 12.277344 C 22.191406 12.964844 22.445312 13.679688 23 14.113281 C 23.214844 14.273438 23.339844 14.523438 23.34375 14.789062 L 23.34375 15.289062 C 23.359375 15.472656 23.296875 15.65625 23.171875 15.789062 C 23.046875 15.925781 22.871094 16.003906 22.683594 16 L 16 16 L 16 22.5 C 16 22.851562 15.714844 23.140625 15.359375 23.140625 L 14.820312 23.140625 C 14.550781 23.132812 14.300781 23.003906 14.140625 22.789062 C 13.644531 22.171875 12.804688 21.945312 12.0625 22.234375 C 11.324219 22.523438 10.859375 23.257812 10.914062 24.046875 C 10.96875 24.839844 11.527344 25.503906 12.300781 25.691406 C 12.988281 25.851562 13.707031 25.597656 14.144531 25.046875 C 14.304688 24.832031 14.554688 24.703125 14.820312 24.699219 L 15.296875 24.699219 C 15.472656 24.6875 15.644531 24.746094 15.777344 24.863281 C 15.910156 24.980469 15.992188 25.148438 16 25.324219 L 16 32 L 29.304688 32 C 30.792969 32 32 30.792969 32 29.304688 L 32 16 L 25.5 16 C 25.15625 15.988281 24.882812 15.703125 24.886719 15.359375 Z M 24.886719 15.359375 "/>
</g>
</svg>
