
<svg xmlns="http://www.w3.org/2000/svg" xmlns:xlink="http://www.w3.org/1999/xlink" width="32px" height="32px" viewBox="0 0 32 32" version="1.1">
<g id="surface1">
<path style=" stroke:none;fill-rule:nonzero;fill:rgb(92.54902%,25.098039%,47.843137%);fill-opacity:1;" d="M 2.695312 0 L 29.304688 0 C 30.792969 0 32 1.207031 32 2.695312 L 32 29.304688 C 32 30.792969 30.792969 32 29.304688 32 L 2.695312 32 C 1.207031 32 0 30.792969 0 29.304688 L 0 2.695312 C 0 1.207031 1.207031 0 2.695312 0 Z M 2.695312 0 "/>
<path style=" stroke:none;fill-rule:nonzero;fill:rgb(100%,100%,100%);fill-opacity:1;" d="M 16.058594 8.046875 C 16.042969 8.019531 16.023438 7.992188 16.011719 7.964844 L 16.011719 7.921875 L 16.011719 7.945312 L 16.011719 7.921875 L 16.011719 7.964844 C 15.839844 8.34375 13.511719 10.863281 8.71875 11.378906 C 8.648438 12.851562 8.832031 14.324219 9.265625 15.734375 L 16.058594 15.734375 Z M 16.058594 8.046875 "/>
<path style=" stroke:none;fill-rule:nonzero;fill:rgb(16.078431%,71.372549%,96.470588%);fill-opacity:1;" d="M 16.058594 24.039062 C 19.300781 22.265625 21.707031 19.277344 22.753906 15.734375 L 16.058594 15.734375 Z M 16.058594 24.039062 "/>
<path style=" stroke:none;fill-rule:nonzero;fill:rgb(100%,100%,100%);fill-opacity:1;" d="M 16 24.585938 C 15.910156 24.582031 15.824219 24.558594 15.746094 24.515625 C 15.71875 24.496094 15.691406 24.476562 15.664062 24.453125 C 12.417969 22.652344 9.976562 19.683594 8.84375 16.144531 C 8.332031 14.59375 8.113281 12.964844 8.199219 11.335938 C 8.222656 11.097656 8.410156 10.910156 8.644531 10.886719 C 12.914062 10.425781 15.144531 8.324219 15.5 7.804688 C 15.542969 7.609375 15.699219 7.460938 15.894531 7.425781 C 15.960938 7.414062 16.03125 7.414062 16.101562 7.425781 C 16.289062 7.457031 16.445312 7.597656 16.496094 7.785156 C 18.324219 9.613281 20.753906 10.710938 23.335938 10.875 C 23.582031 10.890625 23.777344 11.085938 23.800781 11.328125 C 23.886719 12.960938 23.667969 14.589844 23.15625 16.140625 C 22.023438 19.675781 19.589844 22.652344 16.34375 24.453125 C 16.320312 24.480469 16.292969 24.5 16.261719 24.515625 C 16.179688 24.5625 16.089844 24.585938 16 24.585938 Z M 9.179688 11.828125 C 9.1875 16.664062 11.792969 21.121094 16 23.5 C 18.949219 21.832031 21.15625 19.113281 22.183594 15.886719 C 22.605469 14.578125 22.816406 13.214844 22.820312 11.84375 C 20.269531 11.578125 17.875 10.488281 16 8.738281 C 15.101562 9.703125 12.816406 11.335938 9.179688 11.828125 Z M 9.179688 11.828125 "/>
</g>
</svg>
