
<svg xmlns="http://www.w3.org/2000/svg" xmlns:xlink="http://www.w3.org/1999/xlink" width="32px" height="32px" viewBox="0 0 32 32" version="1.1">
<g id="surface1">
<path style=" stroke:none;fill-rule:nonzero;fill:rgb(91.764706%,92.156863%,93.72549%);fill-opacity:1;" d="M 2.695312 0 L 29.304688 0 C 30.792969 0 32 1.207031 32 2.695312 L 32 29.304688 C 32 30.792969 30.792969 32 29.304688 32 L 2.695312 32 C 1.207031 32 0 30.792969 0 29.304688 L 0 2.695312 C 0 1.207031 1.207031 0 2.695312 0 Z M 2.695312 0 "/>
<path style=" stroke:none;fill-rule:nonzero;fill:rgb(49.411765%,34.117647%,76.862745%);fill-opacity:1;" d="M 17.785156 11.320312 L 8.074219 11.320312 L 8.074219 9.78125 L 12.039062 9.78125 L 12.039062 7.746094 L 13.839844 7.746094 L 13.839844 9.78125 L 17.785156 9.78125 Z M 12.941406 18.753906 C 12.355469 18.769531 11.769531 18.683594 11.214844 18.5 C 10.769531 18.339844 10.355469 18.09375 10 17.78125 C 9.683594 17.503906 9.429688 17.164062 9.253906 16.78125 C 9.089844 16.421875 9.003906 16.03125 9 15.636719 L 9 15.085938 C 9 14.683594 9.082031 14.285156 9.246094 13.921875 C 9.417969 13.535156 9.671875 13.195312 9.988281 12.921875 C 10.351562 12.613281 10.769531 12.378906 11.21875 12.226562 C 11.777344 12.039062 12.359375 11.949219 12.945312 11.960938 C 13.53125 11.949219 14.113281 12.039062 14.671875 12.226562 C 15.121094 12.378906 15.539062 12.621094 15.898438 12.929688 C 16.214844 13.207031 16.46875 13.546875 16.644531 13.929688 C 16.808594 14.292969 16.890625 14.683594 16.890625 15.078125 L 16.890625 15.628906 C 16.890625 16.023438 16.808594 16.414062 16.644531 16.773438 C 16.472656 17.160156 16.21875 17.5 15.898438 17.773438 C 15.539062 18.09375 15.121094 18.339844 14.664062 18.5 C 14.109375 18.683594 13.523438 18.769531 12.941406 18.753906 Z M 12.941406 17.304688 C 13.269531 17.308594 13.601562 17.257812 13.914062 17.15625 C 14.171875 17.074219 14.40625 16.941406 14.609375 16.765625 C 14.789062 16.605469 14.929688 16.414062 15.023438 16.195312 C 15.113281 15.988281 15.160156 15.765625 15.160156 15.539062 L 15.160156 15.175781 C 15.160156 14.953125 15.113281 14.730469 15.023438 14.523438 C 14.929688 14.308594 14.789062 14.113281 14.609375 13.953125 C 14.40625 13.78125 14.171875 13.648438 13.921875 13.558594 C 13.28125 13.367188 12.597656 13.367188 11.960938 13.558594 C 11.707031 13.648438 11.472656 13.78125 11.269531 13.953125 C 11.09375 14.113281 10.949219 14.308594 10.855469 14.523438 C 10.765625 14.730469 10.722656 14.953125 10.71875 15.175781 L 10.71875 15.539062 C 10.71875 15.765625 10.765625 15.988281 10.855469 16.195312 C 10.949219 16.414062 11.09375 16.605469 11.269531 16.765625 C 11.472656 16.941406 11.710938 17.074219 11.96875 17.15625 C 12.28125 17.261719 12.609375 17.3125 12.941406 17.304688 Z M 12.71875 23.066406 L 21.71875 23.066406 L 21.71875 24.644531 L 10.90625 24.644531 L 10.90625 19.964844 L 12.71875 19.964844 Z M 23.640625 14.5 L 21.234375 14.5 L 21.234375 20.183594 L 19.433594 20.183594 L 19.433594 7.910156 L 21.234375 7.910156 L 21.234375 12.933594 L 23.640625 12.933594 Z M 23.640625 14.5 "/>
<path style=" stroke:none;fill-rule:nonzero;fill:rgb(92.54902%,25.098039%,47.843137%);fill-opacity:1;" d="M 20.710938 24.238281 L 19.113281 24.808594 L 18.890625 15.984375 L 24.324219 22.941406 L 22.636719 23.546875 L 23.546875 26.078125 L 21.621094 26.773438 Z M 20.710938 24.238281 "/>
<path style=" stroke:none;fill-rule:nonzero;fill:rgb(100%,100%,100%);fill-opacity:1;" d="M 19.46875 17.605469 L 23.441406 22.683594 L 21.941406 23.21875 L 22.851562 25.753906 L 21.933594 26.085938 L 21.035156 23.550781 L 19.636719 24.050781 L 19.46875 17.605469 M 18.304688 14.371094 L 18.390625 17.628906 L 18.554688 24.078125 L 18.59375 25.578125 L 19.996094 25.078125 L 20.386719 24.941406 L 20.929688 26.441406 L 21.296875 27.441406 L 22.296875 27.074219 L 23.203125 26.746094 L 24.203125 26.378906 L 23.839844 25.378906 L 23.296875 23.878906 L 23.796875 23.703125 L 25.195312 23.203125 L 24.289062 22 L 20.316406 16.941406 L 18.316406 14.371094 Z M 18.304688 14.371094 "/>
</g>
</svg>
