
<svg xmlns="http://www.w3.org/2000/svg" xmlns:xlink="http://www.w3.org/1999/xlink" width="32px" height="32px" viewBox="0 0 32 32" version="1.1">
<defs>
<clipPath id="clip1">
  <path d="M 15 25.332031 L 26.332031 25.332031 L 26.332031 32 L 15 32 Z M 15 25.332031 "/>
</clipPath>
<clipPath id="clip2">
  <path d="M 2.695312 0 L 29.304688 0 C 30.792969 0 32 1.207031 32 2.695312 L 32 29.304688 C 32 30.792969 30.792969 32 29.304688 32 L 2.695312 32 C 1.207031 32 0 30.792969 0 29.304688 L 0 2.695312 C 0 1.207031 1.207031 0 2.695312 0 Z M 2.695312 0 "/>
</clipPath>
<clipPath id="clip3">
  <path d="M 19.667969 22.332031 L 25 22.332031 L 25 25.332031 L 19.667969 25.332031 Z M 19.667969 22.332031 "/>
</clipPath>
<clipPath id="clip4">
  <path d="M 2.695312 0 L 29.304688 0 C 30.792969 0 32 1.207031 32 2.695312 L 32 29.304688 C 32 30.792969 30.792969 32 29.304688 32 L 2.695312 32 C 1.207031 32 0 30.792969 0 29.304688 L 0 2.695312 C 0 1.207031 1.207031 0 2.695312 0 Z M 2.695312 0 "/>
</clipPath>
<clipPath id="clip5">
  <path d="M 24.332031 23.667969 L 25.332031 23.667969 L 25.332031 24.332031 L 24.332031 24.332031 Z M 24.332031 23.667969 "/>
</clipPath>
<clipPath id="clip6">
  <path d="M 2.695312 0 L 29.304688 0 C 30.792969 0 32 1.207031 32 2.695312 L 32 29.304688 C 32 30.792969 30.792969 32 29.304688 32 L 2.695312 32 C 1.207031 32 0 30.792969 0 29.304688 L 0 2.695312 C 0 1.207031 1.207031 0 2.695312 0 Z M 2.695312 0 "/>
</clipPath>
<clipPath id="clip7">
  <path d="M 13 23.667969 L 16 23.667969 L 16 25 L 13 25 Z M 13 23.667969 "/>
</clipPath>
<clipPath id="clip8">
  <path d="M 2.695312 0 L 29.304688 0 C 30.792969 0 32 1.207031 32 2.695312 L 32 29.304688 C 32 30.792969 30.792969 32 29.304688 32 L 2.695312 32 C 1.207031 32 0 30.792969 0 29.304688 L 0 2.695312 C 0 1.207031 1.207031 0 2.695312 0 Z M 2.695312 0 "/>
</clipPath>
<clipPath id="clip9">
  <path d="M 18.332031 24.332031 L 19 24.332031 L 19 25 L 18.332031 25 Z M 18.332031 24.332031 "/>
</clipPath>
<clipPath id="clip10">
  <path d="M 2.695312 0 L 29.304688 0 C 30.792969 0 32 1.207031 32 2.695312 L 32 29.304688 C 32 30.792969 30.792969 32 29.304688 32 L 2.695312 32 C 1.207031 32 0 30.792969 0 29.304688 L 0 2.695312 C 0 1.207031 1.207031 0 2.695312 0 Z M 2.695312 0 "/>
</clipPath>
<clipPath id="clip11">
  <path d="M 10.332031 20.667969 L 13.667969 20.667969 L 13.667969 24 L 10.332031 24 Z M 10.332031 20.667969 "/>
</clipPath>
<clipPath id="clip12">
  <path d="M 2.695312 0 L 29.304688 0 C 30.792969 0 32 1.207031 32 2.695312 L 32 29.304688 C 32 30.792969 30.792969 32 29.304688 32 L 2.695312 32 C 1.207031 32 0 30.792969 0 29.304688 L 0 2.695312 C 0 1.207031 1.207031 0 2.695312 0 Z M 2.695312 0 "/>
</clipPath>
<clipPath id="clip13">
  <path d="M 0 0 L 29.667969 0 L 29.667969 30 L 0 30 Z M 0 0 "/>
</clipPath>
<clipPath id="clip14">
  <path d="M 2.695312 0 L 29.304688 0 C 30.792969 0 32 1.207031 32 2.695312 L 32 29.304688 C 32 30.792969 30.792969 32 29.304688 32 L 2.695312 32 C 1.207031 32 0 30.792969 0 29.304688 L 0 2.695312 C 0 1.207031 1.207031 0 2.695312 0 Z M 2.695312 0 "/>
</clipPath>
<clipPath id="clip15">
  <path d="M 14 21 L 16.667969 21 L 16.667969 23.667969 L 14 23.667969 Z M 14 21 "/>
</clipPath>
<clipPath id="clip16">
  <path d="M 2.695312 0 L 29.304688 0 C 30.792969 0 32 1.207031 32 2.695312 L 32 29.304688 C 32 30.792969 30.792969 32 29.304688 32 L 2.695312 32 C 1.207031 32 0 30.792969 0 29.304688 L 0 2.695312 C 0 1.207031 1.207031 0 2.695312 0 Z M 2.695312 0 "/>
</clipPath>
<clipPath id="clip17">
  <path d="M 17.332031 21.667969 L 18.332031 21.667969 L 18.332031 22.667969 L 17.332031 22.667969 Z M 17.332031 21.667969 "/>
</clipPath>
<clipPath id="clip18">
  <path d="M 2.695312 0 L 29.304688 0 C 30.792969 0 32 1.207031 32 2.695312 L 32 29.304688 C 32 30.792969 30.792969 32 29.304688 32 L 2.695312 32 C 1.207031 32 0 30.792969 0 29.304688 L 0 2.695312 C 0 1.207031 1.207031 0 2.695312 0 Z M 2.695312 0 "/>
</clipPath>
<clipPath id="clip19">
  <path d="M 18.667969 21.667969 L 19.332031 21.667969 L 19.332031 22.667969 L 18.667969 22.667969 Z M 18.667969 21.667969 "/>
</clipPath>
<clipPath id="clip20">
  <path d="M 2.695312 0 L 29.304688 0 C 30.792969 0 32 1.207031 32 2.695312 L 32 29.304688 C 32 30.792969 30.792969 32 29.304688 32 L 2.695312 32 C 1.207031 32 0 30.792969 0 29.304688 L 0 2.695312 C 0 1.207031 1.207031 0 2.695312 0 Z M 2.695312 0 "/>
</clipPath>
<clipPath id="clip21">
  <path d="M 16.667969 22.332031 L 18 22.332031 L 18 24 L 16.667969 24 Z M 16.667969 22.332031 "/>
</clipPath>
<clipPath id="clip22">
  <path d="M 2.695312 0 L 29.304688 0 C 30.792969 0 32 1.207031 32 2.695312 L 32 29.304688 C 32 30.792969 30.792969 32 29.304688 32 L 2.695312 32 C 1.207031 32 0 30.792969 0 29.304688 L 0 2.695312 C 0 1.207031 1.207031 0 2.695312 0 Z M 2.695312 0 "/>
</clipPath>
<clipPath id="clip23">
  <path d="M 13.667969 13.667969 L 14.667969 13.667969 L 14.667969 14.667969 L 13.667969 14.667969 Z M 13.667969 13.667969 "/>
</clipPath>
<clipPath id="clip24">
  <path d="M 2.695312 0 L 29.304688 0 C 30.792969 0 32 1.207031 32 2.695312 L 32 29.304688 C 32 30.792969 30.792969 32 29.304688 32 L 2.695312 32 C 1.207031 32 0 30.792969 0 29.304688 L 0 2.695312 C 0 1.207031 1.207031 0 2.695312 0 Z M 2.695312 0 "/>
</clipPath>
<clipPath id="clip25">
  <path d="M 11.332031 18.667969 L 13.667969 18.667969 L 13.667969 20.332031 L 11.332031 20.332031 Z M 11.332031 18.667969 "/>
</clipPath>
<clipPath id="clip26">
  <path d="M 2.695312 0 L 29.304688 0 C 30.792969 0 32 1.207031 32 2.695312 L 32 29.304688 C 32 30.792969 30.792969 32 29.304688 32 L 2.695312 32 C 1.207031 32 0 30.792969 0 29.304688 L 0 2.695312 C 0 1.207031 1.207031 0 2.695312 0 Z M 2.695312 0 "/>
</clipPath>
<clipPath id="clip27">
  <path d="M 17 7.667969 L 20.332031 7.667969 L 20.332031 11.667969 L 17 11.667969 Z M 17 7.667969 "/>
</clipPath>
<clipPath id="clip28">
  <path d="M 2.695312 0 L 29.304688 0 C 30.792969 0 32 1.207031 32 2.695312 L 32 29.304688 C 32 30.792969 30.792969 32 29.304688 32 L 2.695312 32 C 1.207031 32 0 30.792969 0 29.304688 L 0 2.695312 C 0 1.207031 1.207031 0 2.695312 0 Z M 2.695312 0 "/>
</clipPath>
<clipPath id="clip29">
  <path d="M 16.332031 11 L 17.332031 11 L 17.332031 12.332031 L 16.332031 12.332031 Z M 16.332031 11 "/>
</clipPath>
<clipPath id="clip30">
  <path d="M 2.695312 0 L 29.304688 0 C 30.792969 0 32 1.207031 32 2.695312 L 32 29.304688 C 32 30.792969 30.792969 32 29.304688 32 L 2.695312 32 C 1.207031 32 0 30.792969 0 29.304688 L 0 2.695312 C 0 1.207031 1.207031 0 2.695312 0 Z M 2.695312 0 "/>
</clipPath>
<clipPath id="clip31">
  <path d="M 14.332031 18 L 15.667969 18 L 15.667969 19 L 14.332031 19 Z M 14.332031 18 "/>
</clipPath>
<clipPath id="clip32">
  <path d="M 2.695312 0 L 29.304688 0 C 30.792969 0 32 1.207031 32 2.695312 L 32 29.304688 C 32 30.792969 30.792969 32 29.304688 32 L 2.695312 32 C 1.207031 32 0 30.792969 0 29.304688 L 0 2.695312 C 0 1.207031 1.207031 0 2.695312 0 Z M 2.695312 0 "/>
</clipPath>
<clipPath id="clip33">
  <path d="M 13.667969 15.332031 L 15 15.332031 L 15 17.332031 L 13.667969 17.332031 Z M 13.667969 15.332031 "/>
</clipPath>
<clipPath id="clip34">
  <path d="M 2.695312 0 L 29.304688 0 C 30.792969 0 32 1.207031 32 2.695312 L 32 29.304688 C 32 30.792969 30.792969 32 29.304688 32 L 2.695312 32 C 1.207031 32 0 30.792969 0 29.304688 L 0 2.695312 C 0 1.207031 1.207031 0 2.695312 0 Z M 2.695312 0 "/>
</clipPath>
<clipPath id="clip35">
  <path d="M 14.332031 17.667969 L 15 17.667969 L 15 18.332031 L 14.332031 18.332031 Z M 14.332031 17.667969 "/>
</clipPath>
<clipPath id="clip36">
  <path d="M 2.695312 0 L 29.304688 0 C 30.792969 0 32 1.207031 32 2.695312 L 32 29.304688 C 32 30.792969 30.792969 32 29.304688 32 L 2.695312 32 C 1.207031 32 0 30.792969 0 29.304688 L 0 2.695312 C 0 1.207031 1.207031 0 2.695312 0 Z M 2.695312 0 "/>
</clipPath>
<clipPath id="clip37">
  <path d="M 3.332031 18 L 4 18 L 4 19 L 3.332031 19 Z M 3.332031 18 "/>
</clipPath>
<clipPath id="clip38">
  <path d="M 2.695312 0 L 29.304688 0 C 30.792969 0 32 1.207031 32 2.695312 L 32 29.304688 C 32 30.792969 30.792969 32 29.304688 32 L 2.695312 32 C 1.207031 32 0 30.792969 0 29.304688 L 0 2.695312 C 0 1.207031 1.207031 0 2.695312 0 Z M 2.695312 0 "/>
</clipPath>
</defs>
<g id="surface1">
<path style=" stroke:none;fill-rule:nonzero;fill:rgb(49.411765%,34.117647%,76.862745%);fill-opacity:1;" d="M 2.695312 0 L 29.304688 0 C 30.792969 0 32 1.207031 32 2.695312 L 32 29.304688 C 32 30.792969 30.792969 32 29.304688 32 L 2.695312 32 C 1.207031 32 0 30.792969 0 29.304688 L 0 2.695312 C 0 1.207031 1.207031 0 2.695312 0 Z M 2.695312 0 "/>
<g clip-path="url(#clip1)" clip-rule="nonzero">
<g clip-path="url(#clip2)" clip-rule="nonzero">
<path style=" stroke:none;fill-rule:nonzero;fill:rgb(27.058824%,89.019608%,100%);fill-opacity:1;" d="M 25.804688 29.5 L 25.023438 28.425781 C 25.003906 28.300781 24.90625 28.203125 24.78125 28.191406 L 24.75 28.191406 C 24.613281 27.859375 24.339844 27.605469 24 27.488281 C 24.007812 27.457031 24.007812 27.425781 24 27.394531 C 24.21875 27.070312 24.070312 26.828125 23.820312 26.613281 L 23.660156 26.425781 C 23.078125 26.34375 23.328125 25.59375 22.875 25.390625 C 22.675781 25.640625 22.769531 25.890625 22.78125 26.121094 C 22.496094 27.148438 22.109375 27.226562 21.214844 26.441406 C 21.171875 26.398438 21.109375 26.386719 21.054688 26.410156 C 20.953125 26.148438 21.234375 26.089844 21.335938 25.910156 C 21.433594 25.410156 21.078125 25.683594 20.90625 25.65625 L 20.574219 25.5 C 20.527344 25.523438 20.472656 25.511719 20.441406 25.46875 L 20.265625 25.609375 L 19.824219 25.609375 C 19.792969 25.640625 19.769531 25.679688 19.761719 25.726562 C 19.722656 25.71875 19.683594 25.742188 19.671875 25.78125 C 19.425781 25.921875 19.570312 26.425781 19.113281 26.359375 C 18.613281 25.808594 18.335938 26.171875 18.113281 26.640625 C 18.074219 26.65625 18.03125 26.667969 17.984375 26.671875 C 17.933594 26.953125 17.289062 26.824219 17.523438 27.320312 L 16.914062 27.789062 C 16.5 27.980469 15.984375 27.953125 15.664062 28.355469 C 15.09375 28.5 15.214844 28.953125 15.214844 29.355469 C 15.226562 29.605469 15.28125 29.851562 15.375 30.078125 C 15.402344 30.273438 15.515625 30.445312 15.683594 30.546875 C 15.683594 30.914062 15.855469 31.25 15.863281 31.628906 C 15.875 32.011719 16.121094 32.328125 16.605469 32.074219 C 16.855469 31.980469 17 31.65625 17.335938 31.753906 C 17.335938 31.714844 17.386719 31.679688 17.410156 31.636719 L 17.839844 31.636719 C 18.078125 31.679688 18.113281 31.496094 18.175781 31.335938 L 18.460938 31.183594 C 19.164062 30.835938 19.976562 30.78125 20.71875 31.035156 C 20.933594 31.246094 20.835938 31.796875 21.375 31.640625 C 21.566406 31.703125 21.703125 31.875 21.71875 32.074219 L 21.984375 32.105469 C 22.21875 32.851562 22.65625 33.261719 23.484375 33.03125 C 23.535156 33.03125 23.609375 33.089844 23.675781 33.125 C 24.558594 33.21875 24.855469 32.625 25.078125 31.941406 C 25.273438 31.851562 25.453125 31.746094 25.390625 31.480469 L 25.648438 31.003906 C 25.648438 30.914062 25.648438 30.820312 25.675781 30.730469 L 25.75 30.730469 C 26.074219 30.546875 26.035156 30.230469 26.03125 29.929688 C 26.011719 29.761719 25.933594 29.609375 25.804688 29.5 Z M 23.804688 30.414062 Z M 21.066406 27.5 Z M 21.066406 27.371094 L 21.066406 27.339844 Z M 23.84375 27.796875 Z M 23.84375 27.796875 "/>
</g>
</g>
<g clip-path="url(#clip3)" clip-rule="nonzero">
<g clip-path="url(#clip4)" clip-rule="nonzero">
<path style=" stroke:none;fill-rule:nonzero;fill:rgb(27.058824%,89.019608%,100%);fill-opacity:1;" d="M 23.695312 23.894531 C 23.695312 23.460938 23.363281 23.394531 23.054688 23.339844 C 22.800781 23.273438 22.484375 23.28125 22.304688 23.125 C 21.804688 22.710938 21.453125 22.90625 21.054688 23.203125 C 20.941406 23.203125 20.761719 23.203125 20.734375 23.058594 C 20.628906 22.398438 20.269531 22.453125 19.820312 22.714844 C 19.847656 22.753906 19.867188 22.800781 19.875 22.851562 C 20.253906 23.121094 20.558594 23.503906 21.054688 23.589844 L 21.519531 23.746094 L 21.863281 24.246094 C 21.863281 24.359375 21.640625 24.445312 21.824219 24.585938 C 22.03125 24.449219 22.144531 24.628906 22.285156 24.71875 C 22.425781 24.84375 22.617188 24.890625 22.796875 24.851562 C 22.980469 24.8125 23.132812 24.691406 23.210938 24.519531 L 23.671875 24.519531 C 23.820312 24.570312 23.839844 24.691406 23.835938 24.824219 C 24.074219 24.945312 24.21875 25.246094 24.554688 25.175781 C 24.679688 25.175781 24.859375 25.011719 24.765625 24.980469 C 24.21875 24.796875 24.390625 23.914062 23.695312 23.894531 Z M 23.695312 23.894531 "/>
</g>
</g>
<g clip-path="url(#clip5)" clip-rule="nonzero">
<g clip-path="url(#clip6)" clip-rule="nonzero">
<path style=" stroke:none;fill-rule:nonzero;fill:rgb(27.058824%,89.019608%,100%);fill-opacity:1;" d="M 25.210938 23.738281 C 25 23.863281 24.710938 23.703125 24.5 23.960938 C 24.664062 24.128906 24.871094 24.078125 25.054688 24.09375 C 25 23.941406 25.554688 24.035156 25.210938 23.738281 Z M 25.210938 23.738281 "/>
</g>
</g>
<g clip-path="url(#clip7)" clip-rule="nonzero">
<g clip-path="url(#clip8)" clip-rule="nonzero">
<path style=" stroke:none;fill-rule:nonzero;fill:rgb(27.058824%,89.019608%,100%);fill-opacity:1;" d="M 15.820312 24.574219 L 15.183594 24.429688 C 14.953125 24.300781 14.734375 24.105469 14.441406 24.253906 L 13.296875 23.953125 C 13.355469 24.644531 13.863281 24.503906 14.296875 24.488281 C 14.558594 24.453125 14.726562 24.816406 15.015625 24.679688 L 15.65625 24.726562 Z M 15.820312 24.574219 "/>
</g>
</g>
<g clip-path="url(#clip9)" clip-rule="nonzero">
<g clip-path="url(#clip10)" clip-rule="nonzero">
<path style=" stroke:none;fill-rule:nonzero;fill:rgb(27.058824%,89.019608%,100%);fill-opacity:1;" d="M 18.378906 24.878906 L 18.878906 24.710938 C 18.636719 24.5 18.398438 24.375 18.378906 24.878906 Z M 18.378906 24.878906 "/>
</g>
</g>
<g clip-path="url(#clip11)" clip-rule="nonzero">
<g clip-path="url(#clip12)" clip-rule="nonzero">
<path style=" stroke:none;fill-rule:nonzero;fill:rgb(27.058824%,89.019608%,100%);fill-opacity:1;" d="M 13.394531 23.175781 C 13.53125 23.125 13.511719 23.035156 13.441406 22.949219 C 13.285156 22.769531 13.191406 22.988281 13.058594 23.015625 L 12.914062 22.84375 L 12.769531 22.699219 C 12.695312 22.566406 12.851562 22.328125 12.585938 22.273438 C 12.480469 22.230469 12.328125 22.273438 12.289062 22.09375 C 12.257812 22.101562 12.222656 22.101562 12.191406 22.09375 C 12.1875 22.046875 12.1875 22 12.191406 21.949219 C 11.996094 21.652344 11.765625 21.382812 11.5 21.148438 C 11.25 20.910156 10.96875 20.71875 10.636719 21.039062 C 11.191406 21.808594 11.75 22.574219 12.304688 23.339844 C 12.550781 23.683594 12.804688 24.019531 13.304688 23.945312 L 13.425781 23.179688 Z M 13.394531 23.175781 "/>
</g>
</g>
<g clip-path="url(#clip13)" clip-rule="nonzero">
<g clip-path="url(#clip14)" clip-rule="nonzero">
<path style=" stroke:none;fill-rule:nonzero;fill:rgb(27.058824%,89.019608%,100%);fill-opacity:1;" d="M 29.390625 1.5 L 29.328125 1.351562 C 29.359375 1.078125 28.933594 1 29.058594 0.695312 C 29.179688 0.695312 29.296875 0.695312 29.359375 0.578125 L 29.5 0.578125 L 29.5 0.273438 C 29.539062 0.242188 29.5625 0.191406 29.554688 0.140625 C 29.570312 -0.0429688 29.554688 -0.226562 29.5 -0.398438 C 29.5 -0.523438 29.5 -0.65625 29.5 -0.785156 C 29.574219 -0.933594 29.574219 -1.109375 29.5 -1.261719 C 28.929688 -1.527344 28.296875 -1.636719 27.671875 -1.578125 C 27.335938 -1.730469 26.984375 -1.945312 27.171875 -1.253906 C 27.253906 -0.953125 27.011719 -1.058594 26.859375 -1.09375 L 26.589844 -1.09375 C 26.445312 -1.496094 26.230469 -1.59375 25.921875 -1.246094 C 25.878906 -1.234375 25.839844 -1.234375 25.800781 -1.246094 C 25.5 -1.683594 25.128906 -1.5 24.75 -1.421875 C 24.183594 -1.269531 24.371094 -2.09375 23.898438 -2.070312 C 23.59375 -2.257812 23.207031 -2.257812 22.898438 -2.070312 L 22.601562 -2 L 21.5 -2.589844 C 21.15625 -2.996094 20.660156 -2.503906 20.296875 -2.796875 C 19.996094 -2.796875 19.765625 -3.183594 19.421875 -2.964844 C 19.363281 -2.785156 19.078125 -2.878906 19.054688 -2.660156 C 19.03125 -2.441406 18.726562 -2.496094 18.605469 -2.339844 L 18.449219 -2.300781 C 17.789062 -2.589844 17.210938 -2.25 16.609375 -2.074219 C 16.425781 -2.074219 16.355469 -2.234375 16.265625 -2.359375 C 16.21875 -2.546875 16.046875 -2.675781 15.855469 -2.675781 L 15.691406 -2.976562 C 15.804688 -3.011719 15.988281 -3.144531 15.953125 -3.15625 C 15.589844 -3.238281 15.164062 -3.738281 14.90625 -3.421875 C 14.566406 -3 14.199219 -3.175781 13.84375 -3.105469 C 13.511719 -3.289062 13.210938 -3.605469 12.769531 -3.429688 C 12.691406 -3.476562 12.636719 -3.429688 12.59375 -3.371094 L 12.234375 -3.296875 C 12.203125 -3.386719 12.171875 -3.46875 12.136719 -3.554688 C 11.929688 -3.40625 11.730469 -3.605469 11.523438 -3.554688 L 11.523438 -3.605469 C 11.304688 -3.695312 11.121094 -3.535156 10.914062 -3.515625 L 10.953125 -3.574219 L 11.054688 -3.574219 C 11.246094 -3.597656 11.417969 -3.707031 11.515625 -3.875 C 11.691406 -3.949219 11.855469 -4.042969 12.015625 -4.148438 C 12.316406 -4.386719 12.453125 -4.648438 11.960938 -4.828125 C 11.621094 -5.140625 11.113281 -5.183594 10.730469 -4.929688 L 10 -5.566406 C 9.449219 -5.601562 9 -5.5 9.03125 -4.835938 L 8 -4.640625 L 7.734375 -4.691406 C 6.941406 -4.726562 6.15625 -4.554688 5.449219 -4.191406 C 5.269531 -4.035156 5.449219 -3.660156 5.078125 -3.621094 L 4.789062 -3.621094 C 4.644531 -3.511719 4.464844 -3.578125 4.289062 -3.53125 L 4.246094 -3.5 C 4.113281 -3.558594 3.960938 -3.558594 3.828125 -3.5 C 3.5 -3.246094 3.613281 -3 4.148438 -2.703125 L 4.121094 -2.703125 L 4.121094 -2.664062 C 4.273438 -2.53125 4.253906 -2.351562 4.265625 -2.164062 C 4.214844 -2.28125 4.164062 -2.390625 4.125 -2.511719 C 3.90625 -2.484375 3.683594 -2.539062 3.5 -2.660156 C 3.394531 -2.792969 3.210938 -2.835938 3.054688 -2.765625 L 2.425781 -2.628906 C 2.214844 -2.683594 1.992188 -2.636719 1.824219 -2.5 C 1.769531 -2.351562 1.851562 -2.261719 1.925781 -2.164062 L 1.835938 -2.023438 C 1.585938 -1.523438 1.671875 -1.183594 2.199219 -1.078125 C 2.148438 -1.046875 2.125 -0.964844 2.144531 -0.808594 C 2.144531 -0.714844 2.105469 -0.621094 2.089844 -0.523438 C 1.792969 -0.09375 1.257812 0.105469 0.75 -0.0234375 C 0.789062 -0.339844 1.363281 -0.0234375 1.285156 -0.46875 L 1.421875 -0.605469 C 1.863281 -1.105469 1.378906 -1.664062 1.570312 -2.179688 L 1.371094 -2.328125 C 1.359375 -2.378906 1.359375 -2.429688 1.371094 -2.480469 C 1.605469 -2.625 1.503906 -2.84375 1.496094 -3.046875 C 1.101562 -3.039062 0.589844 -3.195312 0.589844 -2.5 C 0.335938 -2.441406 -0.0117188 -2.5 0.121094 -2.03125 C 0.324219 -1.800781 -0.136719 -1.671875 0.03125 -1.445312 C 0.0546875 -1.382812 0.0859375 -1.320312 0.121094 -1.261719 C 0.03125 -1.300781 -0.0703125 -1.316406 -0.171875 -1.300781 C -0.453125 -1.183594 -0.671875 -1.46875 -0.941406 -1.445312 C -1.125 -1.644531 -1.304688 -1.691406 -1.46875 -1.445312 C -1.371094 -1.199219 -1.628906 -1.144531 -1.710938 -1 C -1.816406 -0.945312 -1.910156 -1.160156 -2.019531 -1 C -2.429688 -1.128906 -2.878906 -1.074219 -3.246094 -0.851562 C -3.566406 -1.488281 -3.859375 -0.851562 -4.171875 -0.851562 L -4.859375 -0.566406 C -5.058594 -0.0664062 -5.390625 -0.304688 -5.695312 -0.414062 C -5.695312 -0.574219 -5.695312 -0.679688 -5.488281 -0.695312 C -5.179688 -0.695312 -5.296875 -0.875 -5.40625 -1.019531 C -5.609375 -1.078125 -5.824219 -1.179688 -5.90625 -0.855469 C -5.96875 -0.644531 -6.070312 -0.425781 -5.851562 -0.238281 C -5.910156 -0.171875 -5.964844 -0.101562 -6.023438 -0.0351562 L -6.464844 -0.0703125 C -6.589844 0.0117188 -6.820312 -0.0703125 -6.804688 0.199219 L -6.859375 0.199219 C -7.015625 0.316406 -7.085938 0.511719 -7.035156 0.699219 L -7.121094 0.726562 C -7.300781 0.726562 -7.464844 0.464844 -7.65625 0.695312 C -7.710938 0.765625 -7.65625 0.824219 -7.574219 0.851562 C -7.570312 0.898438 -7.570312 0.945312 -7.574219 0.996094 C -8.074219 0.996094 -8.5 0.878906 -8.476562 0.238281 C -8.523438 0.160156 -8.570312 0.078125 -8.621094 0.00390625 C -8.734375 -0.0898438 -8.878906 -0.160156 -8.929688 -0.320312 C -8.890625 -0.320312 -8.855469 -0.339844 -8.824219 -0.363281 C -8.773438 -0.226562 -8.648438 -0.132812 -8.5 -0.121094 L -8.421875 -0.121094 C -8.347656 -0.0273438 -8.257812 0.046875 -8.148438 0.09375 C -7.808594 0.195312 -7.464844 0.421875 -7.148438 0.09375 C -7.054688 0.00390625 -6.96875 -0.0898438 -6.886719 -0.191406 L -6.828125 -0.230469 L -6.765625 -0.328125 C -6.816406 -0.523438 -6.859375 -0.730469 -7.113281 -0.765625 C -7.371094 -0.800781 -7.613281 -1.101562 -7.890625 -1.21875 C -7.953125 -1.359375 -8.066406 -1.335938 -8.179688 -1.300781 C -8.195312 -1.289062 -8.203125 -1.277344 -8.210938 -1.261719 C -8.40625 -1.328125 -8.644531 -1.21875 -8.808594 -1.414062 C -8.859375 -1.40625 -8.90625 -1.40625 -8.953125 -1.414062 C -8.957031 -1.457031 -8.957031 -1.5 -8.953125 -1.539062 L -9.246094 -1.539062 L -9.425781 -1.726562 C -9.390625 -1.769531 -9.390625 -1.828125 -9.425781 -1.871094 C -9.960938 -2.226562 -10.539062 -1.945312 -11.09375 -1.984375 L -12 -1.449219 L -12.46875 -1.289062 C -13.054688 -1.25 -13.210938 -0.714844 -13.539062 -0.371094 C -14.121094 -0.300781 -14.101562 0.164062 -14.183594 0.558594 L -14.328125 0.699219 L -14.75 0.886719 L -14.78125 1.039062 L -15.128906 1.308594 C -15.464844 1.308594 -15.628906 1.613281 -15.878906 1.746094 C -16.246094 2.285156 -15.921875 2.785156 -15.796875 3.300781 C -15.476562 3.417969 -15.117188 3.292969 -14.945312 3 L -14.5 2.90625 C -14.5 3.25 -14.355469 3.574219 -14.101562 3.804688 C -14.101562 4.023438 -14.199219 4.171875 -14.449219 4.15625 C -14.445312 4.21875 -14.414062 4.277344 -14.363281 4.316406 C -14.3125 4.359375 -14.25 4.375 -14.183594 4.363281 C -14.109375 4.390625 -14.03125 4.351562 -14 4.28125 C -13.96875 4.308594 -13.929688 4.332031 -13.886719 4.34375 C -12.980469 4.195312 -12.753906 3.894531 -13.015625 3.160156 L -12.964844 3.160156 C -12.734375 3.160156 -12.535156 3.105469 -12.519531 2.816406 C -12.527344 2.789062 -12.535156 2.765625 -12.546875 2.738281 C -12.445312 2.496094 -12.605469 2.453125 -12.75 2.40625 C -12.789062 2.335938 -12.804688 2.253906 -12.789062 2.175781 C -12.796875 2.082031 -12.839844 1.992188 -12.910156 1.929688 L -12.746094 1.515625 L -12.246094 1.199219 L -12 1.199219 C -11.910156 1.132812 -11.851562 1.03125 -11.839844 0.921875 C -11.839844 0.921875 -11.839844 0.886719 -11.839844 0.871094 C -11.753906 0.679688 -11.863281 0.410156 -11.664062 0.269531 L -10.894531 0.246094 C -10.574219 0.691406 -11.234375 0.710938 -11.230469 1.015625 C -11.441406 1.203125 -11.820312 1.238281 -11.804688 1.640625 C -11.78125 1.890625 -11.839844 2.140625 -11.660156 2.378906 L -11.359375 2.601562 C -11.199219 2.640625 -11.035156 2.664062 -10.859375 2.703125 L -10.804688 2.703125 C -10.894531 2.730469 -10.976562 2.777344 -11.039062 2.84375 C -11.175781 2.898438 -11.25 3.023438 -11.175781 3.136719 C -10.675781 3.914062 -11.296875 3.664062 -11.644531 3.664062 C -11.929688 3.804688 -11.875 4.023438 -11.785156 4.253906 C -11.785156 4.558594 -12.175781 4.484375 -12.253906 4.714844 L -12.550781 4.683594 C -12.726562 4.484375 -12.875 4.625 -13.023438 4.730469 C -13.367188 4.90625 -13.773438 4.898438 -14.105469 4.703125 C -14.21875 4.867188 -14.4375 4.910156 -14.605469 4.808594 C -14.640625 4.75 -14.691406 4.703125 -14.75 4.664062 C -14.785156 4.65625 -14.820312 4.65625 -14.855469 4.664062 C -14.921875 4.402344 -14.816406 4.125 -14.59375 3.96875 L -14.566406 3.804688 C -14.59375 3.699219 -14.535156 3.484375 -14.683594 3.519531 C -14.835938 3.554688 -15.160156 3.648438 -15.148438 3.96875 C -15.25 4.246094 -15.074219 4.46875 -15.011719 4.726562 C -15.011719 4.816406 -15.050781 4.910156 -15.066406 5 C -15.546875 4.929688 -16.027344 5.15625 -16.285156 5.570312 C -16.425781 5.800781 -16.648438 5.804688 -16.863281 5.855469 C -17.132812 5.253906 -17.515625 4.710938 -18 4.265625 C -18.039062 4.199219 -18.125 4.101562 -18.105469 4.070312 C -17.703125 3.449219 -18.34375 3.378906 -18.605469 3.339844 C -18.945312 3.285156 -18.875 3.699219 -18.925781 3.941406 C -18.660156 4.136719 -18.609375 4.535156 -18.304688 4.695312 C -18.390625 4.84375 -18.53125 4.980469 -18.511719 5.195312 L -18.480469 5.25 L -18.765625 5.660156 C -18.75 5.699219 -18.714844 5.726562 -18.675781 5.738281 C -18.632812 5.746094 -18.589844 5.738281 -18.558594 5.710938 C -18.558594 5.910156 -18.589844 6.105469 -18.308594 6.121094 C -18.242188 6.066406 -18.167969 6.027344 -18.085938 6.003906 C -17.910156 6.074219 -17.71875 6.074219 -17.546875 6.003906 L -17.25 5.945312 L -16.925781 5.976562 C -16.925781 6.03125 -16.925781 6.085938 -16.925781 6.140625 C -17.144531 6.511719 -17.636719 6.316406 -17.925781 6.59375 C -18.046875 6.769531 -18.398438 6.554688 -18.425781 6.894531 L -17.925781 7.511719 C -17.816406 7.761719 -17.816406 8.050781 -17.925781 8.304688 C -17.980469 8.335938 -18.007812 8.398438 -18 8.460938 C -18.570312 8.355469 -19.152344 8.339844 -19.726562 8.421875 C -19.988281 8.980469 -19.753906 9.574219 -19.84375 10.144531 C -19.84375 10.644531 -19.433594 10.289062 -19.269531 10.433594 C -19.265625 10.40625 -19.265625 10.378906 -19.269531 10.351562 C -19.125 10.460938 -19.035156 10.660156 -18.808594 10.636719 C -18.628906 10.449219 -18.371094 10.535156 -18.15625 10.464844 C -18.101562 10.476562 -18.046875 10.492188 -17.996094 10.511719 C -17.816406 10.488281 -17.679688 10.339844 -17.675781 10.160156 C -17.121094 9.722656 -16.699219 9.136719 -16.453125 8.476562 C -16.394531 8.503906 -16.339844 8.535156 -16.285156 8.574219 C -15.871094 8.707031 -15.417969 8.589844 -15.113281 8.28125 L -15.070312 8.230469 C -14.984375 8.242188 -14.898438 8.21875 -14.824219 8.171875 C -14.699219 8.5625 -14.394531 8.875 -14 9 L -13.558594 9.21875 L -13.214844 9.636719 C -13.257812 9.832031 -13.378906 10 -13.550781 10.101562 C -13.71875 10.148438 -13.933594 9.894531 -14.050781 10.15625 C -14.050781 10.183594 -13.820312 10.335938 -13.695312 10.433594 C -13.460938 10.433594 -13.320312 10.351562 -13.449219 10.089844 C -13.128906 10.011719 -12.855469 9.894531 -12.949219 9.480469 L -12.898438 9.480469 C -12.953125 9.101562 -13.125 8.84375 -13.554688 8.878906 C -13.789062 8.804688 -13.761719 8.550781 -13.890625 8.378906 C -13.996094 8.269531 -14.085938 8.144531 -14.160156 8.011719 L -14.105469 7.980469 C -13.628906 7.835938 -13.511719 8.511719 -13.066406 8.429688 L -13.011719 8.40625 L -12.328125 8.839844 C -12.28125 9.03125 -12.414062 9.269531 -12.214844 9.425781 C -12.234375 9.578125 -12.152344 9.730469 -12.011719 9.796875 L -12 9.796875 C -11.953125 9.929688 -11.769531 10.023438 -11.886719 10.203125 C -11.691406 10.414062 -11.554688 10.414062 -11.355469 10.15625 C -11.054688 9.769531 -11.554688 9.695312 -11.574219 9.445312 C -11.339844 9.109375 -10.988281 9.136719 -10.644531 9.125 C -10.511719 9.269531 -10.613281 9.550781 -10.363281 9.625 C -10.363281 9.765625 -10.515625 9.921875 -10.324219 10.039062 C -10.128906 10.453125 -9.824219 10.621094 -9.398438 10.378906 C -9.351562 10.371094 -9.304688 10.359375 -9.261719 10.339844 C -9.015625 10.453125 -8.761719 10.738281 -8.519531 10.339844 C -8.378906 10.5 -8.050781 10.339844 -8.019531 10.640625 C -8.097656 11.199219 -8.324219 11.726562 -8.675781 12.171875 L -8.949219 12.171875 C -9.140625 11.957031 -9.453125 11.902344 -9.703125 12.039062 C -10.132812 12.152344 -10.589844 12.121094 -11 11.953125 C -11.410156 11.820312 -11.890625 11.121094 -12.171875 12.09375 C -12.171875 12.144531 -12.195312 12.195312 -12.203125 12.246094 C -12.816406 12.414062 -13.203125 11.933594 -13.703125 11.746094 L -14.601562 11.453125 C -14.773438 11.335938 -14.828125 11.195312 -14.675781 11.019531 C -14.46875 10.605469 -14.609375 10.375 -15.058594 10.371094 C -15.511719 10.363281 -15.816406 10.414062 -16.191406 10.445312 C -16.804688 10.375 -17.425781 10.554688 -17.90625 10.945312 C -17.921875 10.9375 -17.9375 10.941406 -17.953125 10.945312 C -17.96875 10.953125 -17.980469 10.96875 -17.984375 10.984375 C -18.234375 10.773438 -18.535156 10.90625 -18.808594 10.855469 L -18.808594 10.800781 C -19.136719 10.945312 -19.265625 11.441406 -19.730469 11.339844 C -19.980469 11.628906 -20.09375 12.011719 -20.03125 12.390625 C -20.238281 12.941406 -21.089844 12.890625 -21.140625 13.59375 L -21.425781 13.949219 C -21.46875 13.941406 -21.511719 13.941406 -21.554688 13.949219 C -21.433594 14.316406 -22.054688 14.546875 -21.816406 14.949219 L -21.875 15.09375 C -21.929688 15.550781 -21.785156 16.023438 -22.03125 16.460938 C -22.035156 16.496094 -22.035156 16.535156 -22.03125 16.570312 C -21.769531 16.925781 -21.90625 17.484375 -21.429688 17.730469 C -21.144531 17.878906 -21.03125 18.183594 -20.839844 18.414062 L -20.523438 18.855469 L -20.375 18.855469 C -19.914062 18.976562 -19.574219 19.648438 -18.988281 19.15625 C -18.652344 19.097656 -18.304688 19.148438 -18 19.300781 L -16.769531 18.839844 L -16.15625 18.839844 L -16 19 C -15.960938 19.46875 -15.625 19.285156 -15.371094 19.28125 L -15.21875 19.320312 L -14.925781 19.363281 L -14.78125 19.621094 C -15.011719 20.46875 -15.054688 21.273438 -14.175781 21.820312 C -13.941406 22.441406 -13.828125 23.105469 -13.839844 23.769531 C -14.226562 23.898438 -14.070312 24.335938 -14.285156 24.566406 L -14.285156 24.695312 C -14.410156 25.539062 -13.699219 26.101562 -13.539062 26.84375 C -13.539062 27.015625 -13.601562 27.199219 -13.410156 27.34375 C -13.398438 27.386719 -13.398438 27.433594 -13.410156 27.476562 C -13.628906 27.714844 -13.351562 27.808594 -13.269531 27.976562 C -13 28.476562 -12.621094 28.941406 -12.644531 29.566406 C -12.644531 29.773438 -12.503906 29.878906 -12.316406 29.925781 C -12.328125 29.945312 -12.328125 29.972656 -12.316406 29.996094 L -12.140625 29.996094 L -12.140625 29.929688 C -11.40625 29.699219 -10.476562 30.050781 -9.953125 29.195312 C -9.523438 29.109375 -9.40625 28.726562 -9.195312 28.421875 L -9.070312 28.421875 C -8.84375 28.15625 -8.8125 27.773438 -9 27.480469 C -8.992188 27.449219 -9.011719 27.417969 -9.039062 27.410156 C -8.675781 27.410156 -8.453125 27.125 -8.144531 27.015625 C -8.25 26.25 -8.34375 25.488281 -7.476562 25.066406 C -7.316406 25.082031 -7.160156 25.015625 -7.058594 24.890625 L -6.855469 24.734375 C -6.816406 24.53125 -6.78125 24.324219 -6.738281 24.121094 C -6.339844 23.554688 -6.800781 23.054688 -6.859375 22.519531 C -7.074219 22.136719 -6.816406 21.738281 -6.886719 21.351562 C -6.71875 21.078125 -6.386719 20.929688 -6.320312 20.585938 L -6.273438 20.433594 C -5.933594 20.433594 -5.773438 20.105469 -5.519531 19.964844 C -4.9375 19.546875 -4.503906 18.957031 -4.285156 18.273438 C -4.015625 18.058594 -4.171875 17.773438 -4.144531 17.511719 C -4.671875 17.28125 -5.28125 17.390625 -5.695312 17.789062 C -6.046875 17.648438 -6.109375 17.289062 -6.253906 17.003906 L -6.320312 17.003906 C -6.421875 16.835938 -6.574219 16.699219 -6.753906 16.613281 L -7.210938 16.40625 C -7.207031 16.355469 -7.207031 16.308594 -7.210938 16.261719 C -7.457031 15.316406 -7.863281 14.421875 -8.40625 13.609375 L -8.574219 13.183594 L -8.25 12.886719 C -8.203125 12.871094 -8.15625 12.859375 -8.109375 12.859375 C -7.910156 13.390625 -7.597656 13.871094 -7.195312 14.269531 C -7.09375 14.519531 -7.195312 14.828125 -6.925781 15.023438 C -6.929688 15.046875 -6.929688 15.070312 -6.925781 15.089844 C -6.914062 15.378906 -6.707031 15.625 -6.425781 15.683594 L -6.371094 15.683594 C -6.273438 15.816406 -6.191406 15.953125 -6.121094 16.101562 C -6.152344 16.195312 -6.167969 16.296875 -6.171875 16.398438 C -6.1875 16.507812 -6.148438 16.617188 -6.070312 16.691406 L -5.953125 16.769531 C -5.953125 17.035156 -5.894531 17.238281 -5.570312 17.125 C -5.246094 17.011719 -4.878906 16.84375 -4.539062 16.703125 C -4.046875 16.496094 -3.570312 16.246094 -3.121094 15.953125 L -2.84375 15.953125 L -2.066406 15.035156 C -1.296875 14.414062 -1.960938 14.304688 -2.398438 14.113281 C -2.546875 13.859375 -2.609375 13.363281 -3.011719 13.941406 C -3.191406 14.203125 -3.511719 14.039062 -3.769531 14.128906 C -3.765625 14.171875 -3.765625 14.21875 -3.769531 14.261719 L -3.804688 14.261719 C -3.78125 14.222656 -3.769531 14.179688 -3.769531 14.136719 C -3.769531 13.824219 -3.878906 13.636719 -4.214844 13.636719 C -4.214844 13.171875 -4.675781 12.960938 -4.828125 12.574219 C -4.796875 12.546875 -4.777344 12.503906 -4.785156 12.460938 C -4.746094 12.464844 -4.707031 12.445312 -4.691406 12.410156 C -4.269531 12.304688 -4.058594 12.539062 -3.90625 12.878906 C -3.871094 13.023438 -3.753906 13.054688 -3.625 13.066406 C -3.472656 13.347656 -3.125 13.457031 -2.835938 13.320312 C -2.773438 13.277344 -2.695312 13.257812 -2.621094 13.273438 C -2.546875 13.285156 -2.484375 13.328125 -2.441406 13.390625 C -2.121094 13.753906 -1.628906 13.90625 -1.160156 13.789062 L -0.0742188 13.789062 L 0.230469 13.976562 C 0.316406 14.179688 0.484375 14.339844 0.695312 14.410156 C 0.976562 14.539062 0.585938 14.734375 0.746094 14.875 C 0.984375 14.875 1.148438 15.15625 1.414062 15.03125 C 1.472656 14.988281 1.503906 14.917969 1.5 14.84375 C 1.539062 14.929688 1.59375 15.003906 1.636719 15.085938 C 1.554688 15.199219 1.605469 15.335938 1.636719 15.464844 C 1.585938 15.863281 1.722656 16.265625 2 16.554688 C 2.070312 17.09375 2.5 17.515625 2.5 18.085938 C 2.699219 18.085938 2.871094 18.738281 3.09375 18.085938 C 3.460938 17.945312 3.296875 17.511719 3.53125 17.296875 C 3.613281 17.214844 3.613281 17.082031 3.535156 17 C 3.535156 16.855469 3.535156 16.703125 3.511719 16.554688 C 3.511719 16.535156 3.511719 16.515625 3.511719 16.496094 C 3.5625 16.457031 3.605469 16.414062 3.640625 16.359375 C 3.632812 16.324219 3.632812 16.285156 3.640625 16.25 C 3.898438 16.25 4.011719 16.011719 4.210938 15.925781 C 4.234375 15.882812 4.25 15.835938 4.253906 15.785156 C 4.4375 15.75 4.601562 15.648438 4.714844 15.5 C 5.183594 15.386719 5.28125 14.730469 5.824219 14.71875 C 6.113281 14.839844 6.589844 14.183594 6.730469 14.933594 C 6.773438 15.09375 6.910156 15.148438 7.046875 15.210938 C 7.085938 15.40625 7.1875 15.582031 7.339844 15.710938 C 7.339844 15.960938 7.039062 16.40625 7.679688 16.300781 L 7.679688 16.238281 C 8.148438 15.929688 8.25 16.136719 8.179688 16.589844 C 8.035156 16.851562 8.410156 16.96875 8.34375 17.210938 L 8.34375 17.503906 C 8.34375 17.664062 8.34375 17.828125 8.34375 18.003906 C 8.34375 18.179688 8.066406 18.195312 8.308594 18.351562 C 8.582031 18.5625 8.761719 18.871094 8.808594 19.210938 L 8.808594 19.515625 C 9.019531 19.785156 9.238281 20.050781 9.644531 19.96875 C 9.644531 19.671875 9.730469 19.359375 9.53125 19.089844 C 9.488281 18.898438 9.304688 18.773438 9.109375 18.800781 L 9.046875 18.800781 L 8.628906 18.113281 L 8.59375 17.648438 C 8.601562 17.601562 8.605469 17.550781 8.601562 17.5 C 8.773438 16.890625 9.101562 17.046875 9.328125 17.414062 C 9.46875 17.644531 9.714844 17.789062 9.984375 17.800781 C 10.039062 17.976562 9.921875 18.09375 9.839844 18.230469 C 10.285156 18.253906 10.441406 17.828125 10.753906 17.648438 C 11.304688 17.40625 11.179688 16.988281 11.019531 16.570312 C 10.859375 16.148438 10.074219 15.890625 10.289062 15.183594 L 10.601562 14.886719 L 11.050781 14.886719 C 11.074219 14.929688 11.105469 14.96875 11.140625 15.003906 C 11.324219 15.125 10.863281 15.410156 11.253906 15.464844 C 11.644531 15.519531 11.488281 15.253906 11.484375 15.074219 C 11.480469 14.894531 11.746094 14.875 11.828125 14.726562 L 12.285156 14.570312 C 12.359375 14.484375 12.515625 14.5 12.605469 14.429688 C 12.761719 14.480469 12.914062 14.53125 13.050781 14.378906 C 13.050781 14.339844 13.050781 14.300781 13.050781 14.261719 C 13.78125 14.074219 13.816406 13.304688 14.230469 12.855469 C 14.269531 12.710938 14.523438 12.578125 14.261719 12.410156 C 14.414062 12.015625 14.308594 11.570312 14 11.285156 C 13.902344 11.191406 13.847656 11.0625 13.847656 10.925781 C 13.847656 10.789062 13.902344 10.660156 14 10.566406 C 14.128906 10.535156 14.355469 10.566406 14.285156 10.34375 C 14.15625 9.890625 13.863281 10.503906 13.683594 10.273438 C 13.695312 10.230469 13.683594 10.1875 13.65625 10.152344 C 13.625 10.117188 13.585938 10.09375 13.539062 10.09375 C 13.335938 9.941406 13.398438 9.789062 13.539062 9.648438 C 13.730469 9.621094 13.894531 9.503906 13.980469 9.335938 C 14.121094 9.300781 14.335938 9.09375 14.363281 9.214844 C 14.523438 9.828125 15.328125 9.578125 15.515625 10.113281 C 15.738281 10.378906 15.476562 10.746094 15.695312 11.011719 C 16.269531 11.035156 16.601562 10.875 16.304688 10.226562 L 16.105469 9.960938 C 16.078125 9.796875 15.878906 9.679688 15.976562 9.460938 C 16.398438 9.386719 16.476562 9.015625 16.625 8.699219 L 16.910156 8.558594 L 16.910156 8.519531 L 17.074219 8.519531 C 17.320312 8.691406 17.515625 8.589844 17.691406 8.398438 L 18.398438 7.699219 L 18.5 7.699219 C 18.949219 7.441406 19.269531 7.007812 19.378906 6.5 C 19.371094 6.265625 19.414062 6.03125 19.5 5.808594 C 19.5 5.808594 19.5 5.773438 19.5 5.761719 C 19.511719 5.851562 19.5625 5.929688 19.636719 5.984375 C 19.621094 6.003906 19.621094 6.03125 19.636719 6.050781 L 19.601562 6.050781 C 19.28125 6.429688 19.269531 6.980469 19.570312 7.375 C 19.640625 7.390625 19.714844 7.382812 19.78125 7.351562 C 19.785156 6.957031 19.890625 6.570312 20.089844 6.230469 C 20.105469 6.0625 20.046875 5.894531 19.929688 5.769531 C 19.871094 5.523438 20.101562 5.164062 19.820312 5.035156 C 19.539062 4.90625 19.765625 5.433594 19.480469 5.433594 C 19.40625 5.273438 19.410156 5.074219 19.234375 4.96875 L 19.003906 4.695312 L 18.703125 4.855469 L 18.398438 4.855469 C 18.234375 4.699219 18.019531 4.59375 17.933594 4.355469 L 18.101562 4.21875 L 18.246094 4.066406 L 19.054688 3.5 C 19.679688 2.746094 20.515625 2.800781 21.363281 2.898438 L 21.523438 2.734375 L 21.828125 2.78125 C 21.921875 2.804688 22.007812 2.839844 22.085938 2.890625 C 22.085938 3.078125 22.183594 3.136719 22.433594 3.054688 C 22.683594 2.976562 22.933594 2.945312 22.933594 2.585938 C 23.128906 2.492188 23.28125 2.324219 23.351562 2.121094 L 23.394531 1.96875 L 23.839844 1.90625 C 24.203125 1.828125 24.304688 2.40625 24.710938 2.25 C 25.003906 2.25 25.160156 2.019531 25.375 1.886719 C 25.289062 1.980469 25.265625 2.121094 25.316406 2.238281 C 25.191406 2.191406 25.105469 2.203125 25.070312 2.320312 C 25.011719 2.332031 24.957031 2.355469 24.910156 2.394531 C 24.789062 2.789062 24.296875 2.828125 24.148438 3.199219 C 23.960938 3.246094 23.769531 3.285156 23.695312 3.503906 L 23.539062 3.675781 C 23.039062 3.984375 23.34375 4.46875 23.289062 4.875 C 23.289062 4.929688 23.289062 4.984375 23.253906 5.046875 C 23.410156 5.269531 23.34375 5.726562 23.828125 5.613281 C 24.023438 5.535156 23.984375 5.359375 24 5.203125 L 24.273438 5.179688 C 24.363281 4.980469 24.488281 4.796875 24.644531 4.644531 C 25.039062 4.402344 25.1875 3.898438 24.984375 3.480469 C 24.984375 3.371094 24.691406 3.300781 24.875 3.21875 C 25.179688 3.078125 25.203125 2.78125 25.375 2.574219 C 25.550781 2.574219 25.734375 2.648438 25.875 2.464844 C 25.921875 2.472656 25.96875 2.453125 26 2.421875 C 26.011719 2.394531 26.03125 2.371094 26.058594 2.359375 L 26 2.421875 L 26.464844 2.386719 L 27.078125 2.429688 C 27.269531 2.40625 27.429688 2.28125 27.5 2.105469 C 28 1.988281 28.355469 1.605469 28.886719 1.605469 C 29.070312 1.601562 29.269531 1.699219 29.390625 1.5 Z M -13.171875 16.804688 L -13.28125 16.804688 Z M -11.863281 19.640625 Z M -9.398438 16.40625 Z M -11.859375 16.40625 L -11.898438 16.40625 Z M -13.523438 19.40625 L -13.566406 19.40625 L -13.5 19.40625 Z M -9.238281 19.605469 Z M -20.320312 16.378906 Z M -18 13.789062 Z M -18 16.394531 Z M -17.828125 16.394531 C -17.832031 16.421875 -17.832031 16.445312 -17.828125 16.46875 Z M -18 14.101562 Z M -13.574219 19.5 C -13.539062 19.574219 -13.605469 19.5 -13.574219 19.464844 C -13.578125 19.476562 -13.578125 19.488281 -13.574219 19.5 Z M -9.25 19.75 Z M -14.785156 16.394531 Z M -12.171875 27.316406 Z M 10.355469 -3.449219 C 10.386719 -3.402344 10.425781 -3.363281 10.46875 -3.324219 C 10.382812 -3.28125 10.300781 -3.21875 10.238281 -3.140625 C 10.210938 -3.148438 10.179688 -3.148438 10.148438 -3.140625 C 10.125 -3.257812 10.179688 -3.378906 10.28125 -3.445312 L 10.355469 -3.445312 Z M -9.246094 -0.675781 Z M -9.246094 -0.515625 Z M 7.214844 -0.558594 L 7.238281 -0.523438 L 7.214844 -0.523438 Z M -0.933594 5.03125 Z M 7.371094 2.101562 Z M 10.128906 8.273438 L 10.160156 8.273438 C 10.148438 8.273438 10.140625 8.273438 10.128906 8.273438 Z M 10.300781 8.246094 Z M 10.300781 2.246094 L 10.300781 2.195312 C 10.292969 2.214844 10.292969 2.230469 10.300781 2.25 Z M 4.300781 5.171875 Z M 10.300781 2.09375 Z M 12.765625 2.09375 Z M -3.855469 2.253906 Z M -0.933594 10.554688 Z M 1.679688 10.710938 L 1.679688 10.671875 L 1.679688 10.734375 Z M 10.300781 10.710938 L 10.324219 10.710938 Z M 18.300781 -0.546875 C 18.300781 -0.546875 18.285156 -0.5 18.285156 -0.53125 Z M 15.828125 -0.5 C 15.828125 -0.5 15.828125 -0.5 15.828125 -0.53125 Z M 12.90625 -0.5 Z M 12.75 -0.5 Z M 1.675781 2.113281 Z M -0.933594 -0.5 L -0.933594 -0.570312 C -0.9375 -0.546875 -0.9375 -0.523438 -0.933594 -0.5 Z M -4.648438 9.640625 C -4.542969 9.550781 -4.480469 9.421875 -4.472656 9.285156 C -4.464844 9.144531 -4.515625 9.011719 -4.609375 8.910156 C -4.804688 8.742188 -4.941406 8.515625 -5 8.265625 C -5 8.109375 -5.054688 7.953125 -5.085938 7.804688 L -4.738281 7.519531 L -3.878906 7.160156 C -3.449219 7.320312 -3.304688 7.511719 -3.820312 7.753906 C -3.976562 7.828125 -4.164062 7.875 -4.066406 8.113281 C -4.113281 8.441406 -3.605469 8.488281 -3.714844 8.839844 C -3.609375 8.953125 -3.535156 8.964844 -3.476562 8.921875 C -3.441406 8.96875 -3.410156 9.019531 -3.386719 9.074219 C -3.453125 9.078125 -3.519531 9.101562 -3.574219 9.144531 C -3.886719 9.558594 -3.238281 9.515625 -3.265625 9.796875 L -3.265625 10.433594 C -3.28125 10.402344 -3.300781 10.375 -3.320312 10.34375 C -3.554688 10.1875 -3.863281 10.199219 -4.085938 10.375 C -4.128906 10.367188 -4.171875 10.367188 -4.214844 10.375 L -4.296875 10.410156 C -4.671875 10.234375 -4.613281 9.921875 -4.648438 9.640625 Z M 12.75 10.714844 Z M 12.898438 10.714844 Z M 24 -0.679688 C 23.988281 -0.667969 23.980469 -0.65625 23.976562 -0.640625 Z M 23.828125 -1.679688 C 23.769531 -1.648438 23.828125 -1.703125 23.828125 -1.710938 Z M -1.25 10.878906 L -1.25 10.945312 C -1.25 10.921875 -1.25 10.898438 -1.285156 10.878906 Z M -1.25 12.539062 Z M 4.601562 15.171875 Z M 25.675781 1.964844 Z M -10.230469 2.5 L -10.136719 2.5 L -10.171875 2.53125 C -10.238281 2.589844 -10.324219 2.628906 -10.414062 2.644531 C -10.34375 2.613281 -10.277344 2.5625 -10.230469 2.5 Z M -9.164062 9 C -9.402344 8.804688 -9.75 8.816406 -9.96875 9.035156 C -10.023438 8.363281 -9.511719 7.925781 -9.28125 7.371094 C -9.175781 7.578125 -8.949219 7.648438 -8.738281 7.738281 L -8.710938 7.738281 C -8.765625 7.925781 -8.644531 8.011719 -8.445312 8.003906 C -8.332031 7.980469 -8.222656 7.9375 -8.125 7.875 L -8.351562 7.691406 C -8.246094 7.636719 -8.15625 7.558594 -8.09375 7.460938 C -8.078125 7.425781 -8.054688 7.394531 -8.023438 7.363281 C -7.925781 7.355469 -7.828125 7.328125 -7.734375 7.285156 L -7.621094 7.308594 C -7.460938 7.308594 -7.28125 7.308594 -7.464844 7.535156 C -7.472656 7.554688 -7.472656 7.578125 -7.464844 7.601562 C -7.59375 7.71875 -7.851562 7.835938 -7.464844 7.996094 L -7.390625 7.996094 C -7.414062 8.019531 -7.441406 8.035156 -7.46875 8.050781 C -7.453125 8.15625 -7.390625 8.246094 -7.300781 8.300781 C -7.207031 8.351562 -7.097656 8.359375 -7 8.320312 C -7.058594 8.621094 -6.871094 8.746094 -6.605469 8.820312 C -6.550781 8.863281 -6.546875 8.75 -6.515625 8.746094 C -6.519531 8.761719 -6.527344 8.78125 -6.539062 8.796875 C -6.558594 8.828125 -6.558594 8.867188 -6.539062 8.898438 C -6.765625 8.855469 -6.84375 9.035156 -6.941406 9.191406 C -7.027344 9.183594 -7.113281 9.183594 -7.199219 9.191406 C -7.496094 9.144531 -7.835938 9.191406 -8.03125 8.910156 C -8.382812 8.691406 -8.835938 8.714844 -9.164062 8.96875 Z M -9.164062 9 "/>
</g>
</g>
<g clip-path="url(#clip15)" clip-rule="nonzero">
<g clip-path="url(#clip16)" clip-rule="nonzero">
<path style=" stroke:none;fill-rule:nonzero;fill:rgb(27.058824%,89.019608%,100%);fill-opacity:1;" d="M 15.363281 22.105469 C 15.011719 21.878906 14.664062 22.429688 14.300781 22.105469 C 14.234375 22.046875 14.105469 22.140625 14.136719 22.269531 C 14.199219 22.609375 14.394531 23.128906 14.585938 23.125 C 15.050781 23.125 15.515625 23.710938 15.976562 23.160156 C 16.105469 22.601562 16.851562 22.160156 16.351562 21.464844 C 16.246094 21.175781 16.050781 21.214844 15.851562 21.328125 C 15.847656 21.613281 15.730469 21.886719 15.523438 22.078125 Z M 15.363281 22.105469 "/>
</g>
</g>
<g clip-path="url(#clip17)" clip-rule="nonzero">
<g clip-path="url(#clip18)" clip-rule="nonzero">
<path style=" stroke:none;fill-rule:nonzero;fill:rgb(27.058824%,89.019608%,100%);fill-opacity:1;" d="M 17.339844 22.25 C 17.625 22.449219 18.003906 22.449219 18.289062 22.25 L 18.289062 21.953125 C 18.023438 22.234375 17.585938 21.933594 17.339844 22.25 Z M 17.339844 22.25 "/>
</g>
</g>
<g clip-path="url(#clip19)" clip-rule="nonzero">
<g clip-path="url(#clip20)" clip-rule="nonzero">
<path style=" stroke:none;fill-rule:nonzero;fill:rgb(27.058824%,89.019608%,100%);fill-opacity:1;" d="M 18.914062 21.96875 C 18.863281 22.191406 18.910156 22.421875 19.050781 22.601562 C 19.429688 22.085938 19.421875 22.035156 18.914062 21.96875 Z M 18.914062 21.96875 "/>
</g>
</g>
<g clip-path="url(#clip21)" clip-rule="nonzero">
<g clip-path="url(#clip22)" clip-rule="nonzero">
<path style=" stroke:none;fill-rule:nonzero;fill:rgb(27.058824%,89.019608%,100%);fill-opacity:1;" d="M 17 23.925781 C 17.175781 23.738281 17.207031 23.457031 17.074219 23.234375 C 17.132812 23.273438 17.203125 23.292969 17.273438 23.296875 C 17.265625 23.363281 17.289062 23.433594 17.339844 23.484375 C 17.449219 23.621094 17.566406 23.675781 17.675781 23.484375 L 17.5 23.175781 C 17.421875 22.980469 17.578125 22.859375 17.65625 22.714844 C 17.460938 22.480469 17.230469 22.863281 17.03125 22.675781 L 17.03125 22.714844 L 17.066406 22.714844 C 16.429688 23.101562 16.871094 23.5 17 23.925781 Z M 17 23.925781 "/>
</g>
</g>
<g clip-path="url(#clip23)" clip-rule="nonzero">
<g clip-path="url(#clip24)" clip-rule="nonzero">
<path style=" stroke:none;fill-rule:nonzero;fill:rgb(27.058824%,89.019608%,100%);fill-opacity:1;" d="M 13.941406 14.441406 C 13.976562 14.511719 14.03125 14.574219 14.101562 14.613281 C 14.351562 14.441406 14.300781 14.113281 14.480469 13.746094 C 14.046875 13.925781 13.855469 14.101562 13.941406 14.441406 Z M 13.941406 14.441406 "/>
</g>
</g>
<g clip-path="url(#clip25)" clip-rule="nonzero">
<g clip-path="url(#clip26)" clip-rule="nonzero">
<path style=" stroke:none;fill-rule:nonzero;fill:rgb(27.058824%,89.019608%,100%);fill-opacity:1;" d="M 12.460938 19.949219 C 12.75 19.949219 12.734375 19.703125 12.761719 19.503906 C 12.996094 19.234375 13.605469 19.660156 13.648438 19.03125 C 13.363281 18.929688 13.109375 18.578125 12.769531 18.925781 L 12.449219 19.328125 C 12.34375 19.441406 12.238281 19.546875 12.140625 19.65625 C 11.890625 19.753906 11.609375 19.808594 11.484375 20.101562 C 11.808594 20.261719 12.199219 20.203125 12.460938 19.949219 Z M 12.460938 19.949219 "/>
</g>
</g>
<g clip-path="url(#clip27)" clip-rule="nonzero">
<g clip-path="url(#clip28)" clip-rule="nonzero">
<path style=" stroke:none;fill-rule:nonzero;fill:rgb(27.058824%,89.019608%,100%);fill-opacity:1;" d="M 18.953125 9.683594 C 18.90625 9.828125 18.847656 9.96875 18.773438 10.105469 L 18.65625 10.28125 C 18.550781 10.230469 18.429688 10.230469 18.324219 10.28125 L 18.09375 10.71875 C 18.054688 10.78125 17.984375 10.808594 17.933594 10.863281 L 17.210938 10.863281 L 17.148438 11 C 16.984375 11.070312 17.015625 11.191406 17.058594 11.320312 C 17.234375 11.441406 17.449219 11.492188 17.660156 11.46875 C 17.777344 11.351562 17.800781 11.164062 17.710938 11.019531 L 17.890625 11.046875 L 17.890625 11.078125 C 17.941406 11.195312 18.046875 11.277344 18.171875 11.300781 C 18.375 11.136719 18.625 11.035156 18.886719 11 C 19.074219 10.96875 19.429688 11 19.351562 10.585938 C 19.351562 10.113281 20 9.730469 19.511719 9.203125 C 19.441406 8.925781 19.40625 8.675781 19.828125 8.734375 C 20.253906 8.796875 20.375 8.640625 20.171875 8.234375 L 19.835938 7.828125 C 19.601562 7.828125 19.53125 8.039062 19.453125 8.21875 C 19.449219 8.253906 19.449219 8.285156 19.453125 8.320312 L 19.371094 8.320312 C 19.1875 8.335938 19.027344 8.449219 18.953125 8.613281 C 18.871094 8.824219 18.953125 9.0625 19.144531 9.179688 L 19.195312 9.179688 C 19.078125 9.328125 18.996094 9.5 18.953125 9.683594 Z M 18.953125 9.683594 "/>
</g>
</g>
<g clip-path="url(#clip29)" clip-rule="nonzero">
<g clip-path="url(#clip30)" clip-rule="nonzero">
<path style=" stroke:none;fill-rule:nonzero;fill:rgb(27.058824%,89.019608%,100%);fill-opacity:1;" d="M 16.589844 11.808594 L 16.746094 12.019531 C 16.871094 11.960938 16.964844 11.847656 17 11.714844 C 17.035156 11.582031 17.007812 11.4375 16.925781 11.324219 C 16.539062 11.300781 16.460938 11.5 16.589844 11.808594 Z M 16.589844 11.808594 "/>
</g>
</g>
<g clip-path="url(#clip31)" clip-rule="nonzero">
<g clip-path="url(#clip32)" clip-rule="nonzero">
<path style=" stroke:none;fill-rule:nonzero;fill:rgb(27.058824%,89.019608%,100%);fill-opacity:1;" d="M 15.539062 18.398438 C 15.539062 18.269531 15.539062 18.121094 15.363281 18.074219 L 15.074219 18.296875 C 14.828125 18.203125 14.550781 18.320312 14.445312 18.558594 L 14.59375 18.605469 C 14.75 18.535156 14.878906 18.523438 14.941406 18.726562 C 15 18.925781 15.125 18.828125 15.210938 18.890625 C 15.296875 18.949219 15.386719 18.863281 15.421875 18.765625 C 15.421875 18.75 15.421875 18.730469 15.421875 18.714844 L 15.5 18.714844 C 15.59375 18.613281 15.753906 18.523438 15.539062 18.398438 Z M 15.539062 18.398438 "/>
</g>
</g>
<g clip-path="url(#clip33)" clip-rule="nonzero">
<g clip-path="url(#clip34)" clip-rule="nonzero">
<path style=" stroke:none;fill-rule:nonzero;fill:rgb(27.058824%,89.019608%,100%);fill-opacity:1;" d="M 14.195312 15.65625 C 14.015625 15.898438 13.945312 16.203125 14 16.5 C 14 16.535156 14.066406 16.566406 14.101562 16.601562 C 14.058594 17.101562 14.476562 17 14.761719 17.058594 C 14.800781 16.917969 14.734375 16.769531 14.601562 16.703125 L 14.308594 16.570312 C 14.355469 16.460938 14.398438 16.34375 14.453125 16.234375 C 14.628906 15.851562 14.40625 15.433594 14.195312 15.65625 Z M 14.195312 15.65625 "/>
</g>
</g>
<g clip-path="url(#clip35)" clip-rule="nonzero">
<g clip-path="url(#clip36)" clip-rule="nonzero">
<path style=" stroke:none;fill-rule:nonzero;fill:rgb(27.058824%,89.019608%,100%);fill-opacity:1;" d="M 14.773438 17.71875 C 14.648438 17.679688 14.605469 17.765625 14.605469 17.875 C 14.621094 17.953125 14.644531 18.035156 14.671875 18.109375 C 14.738281 18.015625 14.800781 17.964844 14.808594 17.90625 C 14.820312 17.84375 14.804688 17.730469 14.773438 17.71875 Z M 14.773438 17.71875 "/>
</g>
</g>
<g clip-path="url(#clip37)" clip-rule="nonzero">
<g clip-path="url(#clip38)" clip-rule="nonzero">
<path style=" stroke:none;fill-rule:nonzero;fill:rgb(27.058824%,89.019608%,100%);fill-opacity:1;" d="M 3.601562 18.070312 C 3.351562 18.019531 3.359375 18.246094 3.359375 18.429688 C 3.347656 18.53125 3.371094 18.632812 3.433594 18.710938 C 3.496094 18.792969 3.589844 18.84375 3.691406 18.855469 C 3.863281 18.855469 3.984375 18.800781 3.964844 18.578125 C 3.855469 18.410156 3.855469 18.113281 3.601562 18.070312 Z M 3.601562 18.070312 "/>
</g>
</g>
</g>
</svg>
