
<svg xmlns="http://www.w3.org/2000/svg" xmlns:xlink="http://www.w3.org/1999/xlink" width="32px" height="32px" viewBox="0 0 32 32" version="1.1">
<g id="surface1">
<path style=" stroke:none;fill-rule:nonzero;fill:rgb(36.078431%,41.960784%,75.294118%);fill-opacity:1;" d="M 2.695312 0 L 29.304688 0 C 30.792969 0 32 1.207031 32 2.695312 L 32 29.304688 C 32 30.792969 30.792969 32 29.304688 32 L 2.695312 32 C 1.207031 32 0 30.792969 0 29.304688 L 0 2.695312 C 0 1.207031 1.207031 0 2.695312 0 Z M 2.695312 0 "/>
<path style=" stroke:none;fill-rule:nonzero;fill:rgb(100%,100%,100%);fill-opacity:1;" d="M 17.070312 10.773438 L 16.335938 10.773438 L 16.335938 13.925781 C 16.660156 14.058594 16.871094 14.375 16.871094 14.726562 L 16.871094 16.726562 C 16.871094 17.207031 16.480469 17.59375 16 17.59375 C 15.519531 17.59375 15.128906 17.207031 15.128906 16.726562 L 15.128906 14.726562 C 15.128906 14.375 15.339844 14.058594 15.664062 13.925781 L 15.664062 10.773438 L 14.929688 10.773438 C 12.34375 10.785156 10.25 12.878906 10.238281 15.464844 L 10.238281 21.089844 C 10.417969 24.132812 12.941406 26.511719 15.988281 26.511719 C 19.039062 26.511719 21.558594 24.132812 21.738281 21.089844 L 21.738281 15.464844 C 21.730469 12.886719 19.648438 10.792969 17.070312 10.773438 Z M 17.070312 10.773438 "/>
<path style=" stroke:none;fill-rule:nonzero;fill:rgb(16.078431%,71.372549%,96.470588%);fill-opacity:1;" d="M 16.449219 10.773438 L 15.648438 10.773438 L 15.648438 10.375 C 15.648438 9.269531 16.546875 8.375 17.648438 8.375 L 19.125 8.375 C 19.789062 8.375 20.328125 7.835938 20.328125 7.171875 C 20.328125 6.503906 19.789062 5.964844 19.125 5.964844 L 11.671875 5.964844 L 11.671875 5.148438 L 19.128906 5.148438 C 20.234375 5.148438 21.128906 6.046875 21.128906 7.148438 C 21.128906 8.253906 20.234375 9.148438 19.128906 9.148438 L 17.65625 9.148438 C 16.988281 9.148438 16.449219 9.691406 16.449219 10.355469 Z M 16.449219 10.773438 "/>
</g>
</svg>
