
<svg xmlns="http://www.w3.org/2000/svg" xmlns:xlink="http://www.w3.org/1999/xlink" width="32px" height="32px" viewBox="0 0 32 32" version="1.1">
<g id="surface1">
<path style=" stroke:none;fill-rule:nonzero;fill:rgb(49.411765%,34.117647%,76.862745%);fill-opacity:1;" d="M 2.695312 0 L 29.304688 0 C 30.792969 0 32 1.207031 32 2.695312 L 32 29.304688 C 32 30.792969 30.792969 32 29.304688 32 L 2.695312 32 C 1.207031 32 0 30.792969 0 29.304688 L 0 2.695312 C 0 1.207031 1.207031 0 2.695312 0 Z M 2.695312 0 "/>
<path style=" stroke:none;fill-rule:nonzero;fill:rgb(92.54902%,25.098039%,47.843137%);fill-opacity:1;" d="M 17.945312 13.445312 C 18.941406 12.792969 19.542969 11.6875 19.550781 10.5 L 19.550781 9.375 C 19.546875 7.414062 17.960938 5.828125 16 5.824219 C 14.039062 5.828125 12.453125 7.414062 12.449219 9.375 L 12.449219 10.5 C 12.453125 11.695312 13.054688 12.804688 14.054688 13.460938 L 14.054688 14.296875 C 14.054688 14.726562 13.820312 15.128906 13.445312 15.339844 L 10.34375 17.089844 C 9.027344 17.832031 8.214844 19.226562 8.214844 20.734375 L 8.214844 22.328125 L 13.09375 22.328125 L 16 20.328125 L 17 20.464844 L 19 22.316406 L 23.808594 22.316406 L 23.808594 20.71875 C 23.808594 19.210938 22.996094 17.816406 21.679688 17.074219 L 18.578125 15.324219 C 18.203125 15.113281 17.96875 14.710938 17.96875 14.28125 L 17.96875 13.445312 "/>
<path style=" stroke:none;fill-rule:nonzero;fill:rgb(100%,100%,100%);fill-opacity:1;" d="M 19.070312 19.636719 L 18.898438 19.636719 L 18.898438 17.96875 C 18.898438 16.917969 18.050781 16.066406 17 16.066406 L 15.128906 16.066406 C 14.078125 16.066406 13.230469 16.917969 13.230469 17.96875 L 13.230469 19.636719 L 12.929688 19.636719 C 12.71875 19.636719 12.511719 19.71875 12.363281 19.871094 C 12.210938 20.023438 12.128906 20.226562 12.128906 20.441406 L 12.128906 25.375 C 12.128906 25.585938 12.210938 25.792969 12.363281 25.941406 C 12.511719 26.09375 12.71875 26.175781 12.929688 26.175781 L 19.070312 26.175781 C 19.511719 26.175781 19.871094 25.816406 19.871094 25.375 L 19.871094 20.441406 C 19.871094 19.996094 19.511719 19.636719 19.070312 19.636719 Z M 16.386719 22.863281 L 16.386719 24.5 C 16.386719 24.710938 16.210938 24.886719 16 24.886719 C 15.789062 24.886719 15.613281 24.710938 15.613281 24.5 L 15.613281 22.863281 C 15.160156 22.679688 14.898438 22.199219 14.992188 21.71875 C 15.085938 21.238281 15.507812 20.890625 16 20.890625 C 16.492188 20.890625 16.914062 21.238281 17.007812 21.71875 C 17.101562 22.199219 16.839844 22.679688 16.386719 22.863281 Z M 17.886719 19.636719 L 14.230469 19.636719 L 14.230469 17.96875 C 14.230469 17.472656 14.632812 17.070312 15.128906 17.070312 L 17 17.070312 C 17.496094 17.070312 17.898438 17.472656 17.898438 17.96875 Z M 17.886719 19.636719 "/>
</g>
</svg>
