
<svg xmlns="http://www.w3.org/2000/svg" xmlns:xlink="http://www.w3.org/1999/xlink" width="32px" height="32px" viewBox="0 0 32 32" version="1.1">
<defs>
<linearGradient id="linear0" gradientUnits="userSpaceOnUse" x1="32.86" y1="52.99" x2="32.86" y2="54.61" gradientTransform="matrix(0.5,0,0,0.5,-0.06,0.025)">
<stop offset="0" style="stop-color:rgb(86.27451%,87.058824%,88.627451%);stop-opacity:1;"/>
<stop offset="0.57" style="stop-color:rgb(87.058824%,87.843137%,89.411765%);stop-opacity:1;"/>
<stop offset="0.81" style="stop-color:rgb(89.803922%,90.588235%,91.764706%);stop-opacity:1;"/>
<stop offset="0.99" style="stop-color:rgb(94.901961%,95.294118%,95.686275%);stop-opacity:1;"/>
<stop offset="1" style="stop-color:rgb(95.294118%,95.686275%,96.078431%);stop-opacity:1;"/>
</linearGradient>
</defs>
<g id="surface1">
<path style=" stroke:none;fill-rule:nonzero;fill:rgb(49.411765%,34.117647%,76.862745%);fill-opacity:1;" d="M 2.695312 0 L 29.304688 0 C 30.792969 0 32 1.207031 32 2.695312 L 32 29.304688 C 32 30.792969 30.792969 32 29.304688 32 L 2.695312 32 C 1.207031 32 0 30.792969 0 29.304688 L 0 2.695312 C 0 1.207031 1.207031 0 2.695312 0 Z M 2.695312 0 "/>
<path style=" stroke:none;fill-rule:nonzero;fill:url(#linear0);" d="M 21.941406 27.195312 L 21 27.195312 C 20.59375 27.195312 20.265625 26.867188 20.265625 26.460938 L 20.265625 23.074219 L 12.5 23.074219 L 12.5 26.453125 C 12.5 26.859375 12.171875 27.191406 11.765625 27.191406 L 10.789062 27.191406 C 10.390625 27.191406 10.066406 27.515625 10.066406 27.914062 C 10.066406 28.316406 10.390625 28.640625 10.789062 28.640625 L 21.941406 28.640625 C 22.132812 28.640625 22.320312 28.566406 22.457031 28.429688 C 22.59375 28.292969 22.671875 28.109375 22.671875 27.914062 C 22.667969 27.515625 22.339844 27.191406 21.941406 27.195312 Z M 21.941406 27.195312 "/>
<path style=" stroke:none;fill-rule:nonzero;fill:rgb(92.54902%,25.098039%,47.843137%);fill-opacity:1;" d="M 4.570312 5.929688 L 27.429688 5.929688 C 27.957031 5.929688 28.386719 6.359375 28.386719 6.886719 L 28.386719 21.976562 C 28.386719 22.503906 27.957031 22.929688 27.429688 22.929688 L 4.570312 22.929688 C 4.042969 22.929688 3.613281 22.503906 3.613281 21.976562 L 3.613281 6.886719 C 3.613281 6.359375 4.042969 5.929688 4.570312 5.929688 Z M 4.570312 5.929688 "/>
<path style=" stroke:none;fill-rule:nonzero;fill:rgb(100%,100%,100%);fill-opacity:1;" d="M 27.429688 23.371094 L 4.570312 23.371094 C 3.808594 23.371094 3.1875 22.761719 3.175781 22 L 3.175781 6.886719 C 3.179688 6.117188 3.804688 5.5 4.570312 5.5 L 27.429688 5.5 C 28.199219 5.5 28.824219 6.125 28.824219 6.894531 L 28.824219 22 C 28.8125 22.761719 28.191406 23.371094 27.429688 23.371094 Z M 4.570312 6.371094 C 4.292969 6.371094 4.070312 6.59375 4.070312 6.871094 L 4.070312 22 C 4.070312 22.277344 4.292969 22.5 4.570312 22.5 L 27.429688 22.5 C 27.707031 22.5 27.929688 22.277344 27.929688 22 L 27.929688 6.886719 C 27.929688 6.609375 27.707031 6.386719 27.429688 6.386719 Z M 4.570312 6.371094 "/>
<path style=" stroke:none;fill-rule:nonzero;fill:rgb(100%,100%,100%);fill-opacity:1;" d="M 3.300781 21 L 28.65625 21 L 28.65625 22.101562 C 28.65625 22.707031 28.164062 23.199219 27.554688 23.199219 L 4.398438 23.199219 C 3.792969 23.199219 3.300781 22.707031 3.300781 22.101562 Z M 3.300781 21 "/>
<path style=" stroke:none;fill-rule:nonzero;fill:rgb(100%,100%,100%);fill-opacity:1;" d="M 19.070312 11.808594 L 18.90625 11.808594 L 18.90625 10.140625 C 18.902344 9.089844 18.050781 8.238281 17 8.238281 L 15.136719 8.238281 C 14.085938 8.238281 13.234375 9.089844 13.230469 10.140625 L 13.230469 11.808594 L 12.929688 11.808594 C 12.488281 11.808594 12.128906 12.167969 12.128906 12.609375 L 12.128906 17.550781 C 12.128906 17.992188 12.488281 18.351562 12.929688 18.351562 L 19.070312 18.351562 C 19.511719 18.351562 19.871094 17.992188 19.871094 17.550781 L 19.871094 12.609375 C 19.871094 12.167969 19.511719 11.808594 19.070312 11.808594 Z M 16.386719 15.039062 L 16.386719 16.675781 C 16.386719 16.886719 16.210938 17.058594 16 17.058594 C 15.789062 17.058594 15.613281 16.886719 15.613281 16.675781 L 15.613281 15.039062 C 15.15625 14.855469 14.894531 14.371094 14.988281 13.886719 C 15.082031 13.40625 15.507812 13.054688 16 13.054688 C 16.492188 13.054688 16.917969 13.40625 17.011719 13.886719 C 17.105469 14.371094 16.84375 14.855469 16.386719 15.039062 Z M 17.886719 11.808594 L 14.230469 11.808594 L 14.230469 10.140625 C 14.234375 9.640625 14.636719 9.238281 15.136719 9.238281 L 17 9.238281 C 17.496094 9.238281 17.898438 9.644531 17.898438 10.140625 Z M 17.886719 11.808594 "/>
</g>
</svg>
