
<svg xmlns="http://www.w3.org/2000/svg" xmlns:xlink="http://www.w3.org/1999/xlink" width="32px" height="32px" viewBox="0 0 32 32" version="1.1">
<g id="surface1">
<path style=" stroke:none;fill-rule:nonzero;fill:rgb(92.54902%,25.098039%,47.843137%);fill-opacity:1;" d="M 2.695312 0 L 29.304688 0 C 30.792969 0 32 1.207031 32 2.695312 L 32 29.304688 C 32 30.792969 30.792969 32 29.304688 32 L 2.695312 32 C 1.207031 32 0 30.792969 0 29.304688 L 0 2.695312 C 0 1.207031 1.207031 0 2.695312 0 Z M 2.695312 0 "/>
<path style=" stroke:none;fill-rule:nonzero;fill:rgb(100%,100%,100%);fill-opacity:1;" d="M 16.085938 6.019531 L 11.125 8.679688 L 16.085938 11.339844 L 21.046875 8.679688 Z M 16.085938 6.019531 "/>
<path style=" stroke:none;fill-rule:nonzero;fill:rgb(79.607843%,79.607843%,79.607843%);fill-opacity:1;" d="M 16.085938 16.644531 L 11.125 13.984375 L 11.125 8.679688 L 16.085938 11.339844 Z M 16.085938 16.644531 "/>
<path style=" stroke:none;fill-rule:nonzero;fill:rgb(16.078431%,71.372549%,96.470588%);fill-opacity:1;" d="M 16.085938 11.339844 L 21.046875 8.679688 L 21.046875 13.984375 L 16.085938 16.644531 Z M 16.085938 11.339844 "/>
<path style=" stroke:none;fill-rule:nonzero;fill:rgb(100%,100%,100%);fill-opacity:1;" d="M 11.054688 15.355469 L 6.09375 18.015625 L 11.054688 20.675781 L 16.015625 18.015625 Z M 11.054688 15.355469 "/>
<path style=" stroke:none;fill-rule:nonzero;fill:rgb(79.607843%,79.607843%,79.607843%);fill-opacity:1;" d="M 11.054688 25.976562 L 6.09375 23.320312 L 6.09375 18.015625 L 11.054688 20.675781 Z M 11.054688 25.976562 "/>
<path style=" stroke:none;fill-rule:nonzero;fill:rgb(16.078431%,71.372549%,96.470588%);fill-opacity:1;" d="M 11.054688 20.675781 L 16.015625 18.015625 L 16.015625 23.320312 L 11.054688 25.976562 Z M 11.054688 20.675781 "/>
<path style=" stroke:none;fill-rule:nonzero;fill:rgb(100%,100%,100%);fill-opacity:1;" d="M 20.945312 15.355469 L 15.984375 18.015625 L 20.945312 20.675781 L 25.90625 18.015625 Z M 20.945312 15.355469 "/>
<path style=" stroke:none;fill-rule:nonzero;fill:rgb(79.607843%,79.607843%,79.607843%);fill-opacity:1;" d="M 20.945312 25.976562 L 15.984375 23.320312 L 15.984375 18.015625 L 20.945312 20.675781 Z M 20.945312 25.976562 "/>
<path style=" stroke:none;fill-rule:nonzero;fill:rgb(16.078431%,71.372549%,96.470588%);fill-opacity:1;" d="M 20.945312 20.675781 L 25.90625 18.015625 L 25.90625 23.320312 L 20.945312 25.976562 Z M 20.945312 20.675781 "/>
</g>
</svg>
