
<svg xmlns="http://www.w3.org/2000/svg" xmlns:xlink="http://www.w3.org/1999/xlink" width="32px" height="32px" viewBox="0 0 32 32" version="1.1">
<g id="surface1">
<path style=" stroke:none;fill-rule:nonzero;fill:rgb(49.411765%,34.117647%,76.862745%);fill-opacity:1;" d="M 2.695312 0 L 29.304688 0 C 30.792969 0 32 1.207031 32 2.695312 L 32 29.304688 C 32 30.792969 30.792969 32 29.304688 32 L 2.695312 32 C 1.207031 32 0 30.792969 0 29.304688 L 0 2.695312 C 0 1.207031 1.207031 0 2.695312 0 Z M 2.695312 0 "/>
<path style=" stroke:none;fill-rule:nonzero;fill:rgb(100%,100%,100%);fill-opacity:1;" d="M 17.945312 15.375 C 18.945312 14.71875 19.550781 13.605469 19.550781 12.410156 L 19.550781 11.304688 C 19.546875 9.34375 17.960938 7.757812 16 7.753906 C 14.039062 7.757812 12.453125 9.34375 12.449219 11.304688 L 12.449219 12.414062 C 12.453125 13.609375 13.054688 14.722656 14.054688 15.375 L 14.054688 16.210938 C 14.054688 16.644531 13.820312 17.042969 13.445312 17.253906 L 10.34375 19 C 9.027344 19.742188 8.214844 21.132812 8.214844 22.644531 L 8.214844 24.238281 L 23.785156 24.238281 L 23.785156 22.648438 C 23.785156 21.136719 22.972656 19.742188 21.65625 19 L 18.554688 17.25 C 18.179688 17.035156 17.945312 16.636719 17.945312 16.203125 L 17.945312 15.375 "/>
</g>
</svg>
