
<svg xmlns="http://www.w3.org/2000/svg" xmlns:xlink="http://www.w3.org/1999/xlink" width="32px" height="32px" viewBox="0 0 32 32" version="1.1">
<g id="surface1">
<path style=" stroke:none;fill-rule:nonzero;fill:rgb(37.647059%,41.960784%,50.980392%);fill-opacity:1;" d="M 28.9375 1.5 L 22.140625 1.5 C 20.8125 1.503906 19.628906 2.375 19.234375 3.640625 L 0 3.640625 L 0 6.589844 L 19.234375 6.589844 C 19.628906 7.859375 20.808594 8.730469 22.140625 8.734375 L 28.9375 8.734375 C 30.628906 8.730469 32 7.359375 32 5.671875 L 32 4.558594 C 31.996094 2.871094 30.625 1.503906 28.9375 1.5 Z M 28.9375 1.5 "/>
<path style=" stroke:none;fill-rule:nonzero;fill:rgb(37.647059%,41.960784%,50.980392%);fill-opacity:1;" d="M 3.0625 19.621094 L 9.859375 19.621094 C 11.1875 19.621094 12.355469 18.753906 12.765625 17.5 L 32 17.5 L 32 14.546875 L 12.765625 14.546875 C 12.371094 13.285156 11.1875 12.417969 9.859375 12.410156 L 3.0625 12.410156 C 1.378906 12.417969 0.015625 13.765625 0 15.441406 L 0 16.5625 C 0.00390625 18.25 1.375 19.609375 3.0625 19.621094 Z M 3.0625 19.621094 "/>
<path style=" stroke:none;fill-rule:nonzero;fill:rgb(37.647059%,41.960784%,50.980392%);fill-opacity:1;" d="M 28.9375 23.265625 L 22.140625 23.265625 C 20.8125 23.269531 19.628906 24.140625 19.234375 25.402344 L 0 25.402344 L 0 28.359375 L 19.234375 28.359375 C 19.640625 29.625 20.8125 30.496094 22.140625 30.5 L 28.9375 30.5 C 30.625 30.5 32 29.125 32 27.4375 L 32 26.328125 C 31.996094 24.640625 30.625 23.269531 28.9375 23.265625 Z M 28.9375 23.265625 "/>
</g>
</svg>
