
<svg xmlns="http://www.w3.org/2000/svg" xmlns:xlink="http://www.w3.org/1999/xlink" width="32px" height="32px" viewBox="0 0 32 32" version="1.1">
<g id="surface1">
<path style=" stroke:none;fill-rule:nonzero;fill:rgb(37.647059%,41.960784%,50.980392%);fill-opacity:1;" d="M 19.277344 3.277344 C 19.277344 5.082031 17.808594 6.550781 16 6.550781 C 14.191406 6.550781 12.722656 5.082031 12.722656 3.277344 C 12.722656 1.464844 14.191406 0 16 0 C 17.808594 0 19.277344 1.464844 19.277344 3.277344 Z M 19.277344 3.277344 "/>
<path style=" stroke:none;fill-rule:nonzero;fill:rgb(37.647059%,41.960784%,50.980392%);fill-opacity:1;" d="M 20.5 11.59375 L 29 7.941406 C 29.871094 7.566406 30.277344 6.558594 29.90625 5.683594 C 29.527344 4.816406 28.519531 4.410156 27.652344 4.785156 L 20.679688 7.785156 C 19.199219 8.414062 17.609375 8.738281 16 8.738281 C 14.378906 8.738281 12.773438 8.410156 11.285156 7.769531 L 4.316406 4.769531 C 3.441406 4.398438 2.433594 4.800781 2.058594 5.667969 C 1.6875 6.542969 2.09375 7.550781 2.964844 7.925781 L 11.253906 11.5 C 11.746094 11.707031 12.058594 12.1875 12.058594 12.71875 L 11.753906 18.71875 C 11.75 18.941406 11.6875 19.160156 11.574219 19.347656 L 5.667969 29.347656 C 5.460938 29.6875 5.402344 30.097656 5.5 30.480469 C 5.597656 30.867188 5.851562 31.195312 6.199219 31.390625 L 6.96875 31.804688 C 7.722656 32.195312 8.644531 31.917969 9.054688 31.175781 L 14.550781 21.5 C 14.816406 21.042969 15.300781 20.765625 15.832031 20.769531 C 16.355469 20.765625 16.847656 21.042969 17.109375 21.5 L 22.609375 31.179688 C 23.019531 31.921875 23.945312 32.199219 24.695312 31.808594 L 25.464844 31.394531 C 25.808594 31.199219 26.0625 30.875 26.164062 30.492188 C 26.261719 30.113281 26.207031 29.703125 26 29.363281 L 20.179688 19.5 C 20.066406 19.304688 20.003906 19.085938 20 18.859375 L 19.710938 12.816406 C 19.707031 12.285156 20.019531 11.808594 20.5 11.59375 Z M 20.5 11.59375 "/>
</g>
</svg>
