
<svg xmlns="http://www.w3.org/2000/svg" xmlns:xlink="http://www.w3.org/1999/xlink" width="24px" height="24px" viewBox="0 0 24 24" version="1.1">
<g id="surface1">
<path style=" stroke:none;fill-rule:nonzero;fill:rgb(37.647059%,41.960784%,50.980392%);fill-opacity:1;" d="M 12.046875 8.035156 C 11.28125 8.027344 10.585938 8.484375 10.285156 9.191406 C 9.988281 9.898438 10.140625 10.71875 10.683594 11.261719 C 11.222656 11.808594 12.039062 11.972656 12.75 11.679688 C 13.460938 11.390625 13.921875 10.695312 13.921875 9.929688 C 13.917969 8.894531 13.082031 8.054688 12.046875 8.035156 Z M 12.046875 8.035156 "/>
<path style=" stroke:none;fill-rule:nonzero;fill:rgb(37.647059%,41.960784%,50.980392%);fill-opacity:1;" d="M 21.699219 1.480469 L 2.300781 1.480469 C 1.691406 1.480469 1.105469 1.722656 0.671875 2.152344 C 0.242188 2.585938 0 3.171875 0 3.785156 L 0 15.410156 C 0 16.679688 1.03125 17.710938 2.300781 17.710938 L 7.875 17.710938 C 8.503906 17.730469 9.003906 18.246094 9 18.878906 L 9 19.046875 C 9 19.679688 8.5 20.191406 7.875 20.207031 L 5.871094 20.207031 C 5.257812 20.246094 4.78125 20.753906 4.78125 21.367188 C 4.78125 21.980469 5.257812 22.488281 5.871094 22.519531 L 18.128906 22.519531 C 18.742188 22.488281 19.21875 21.980469 19.21875 21.367188 C 19.21875 20.753906 18.742188 20.246094 18.128906 20.207031 L 16.140625 20.207031 C 15.511719 20.199219 15 19.683594 15 19.046875 L 15 18.878906 C 15 18.238281 15.519531 17.722656 16.160156 17.722656 L 21.699219 17.722656 C 22.96875 17.722656 24 16.691406 24 15.421875 L 24 3.796875 C 24.003906 3.183594 23.761719 2.589844 23.332031 2.15625 C 22.902344 1.722656 22.3125 1.480469 21.699219 1.480469 Z M 17.277344 10.539062 C 16.660156 10.554688 16.117188 10.933594 15.886719 11.5 C 15.652344 12.066406 15.777344 12.71875 16.203125 13.164062 C 16.320312 13.277344 16.394531 13.441406 16.394531 13.609375 C 16.394531 13.777344 16.320312 13.9375 16.203125 14.054688 C 16.082031 14.167969 15.925781 14.230469 15.757812 14.222656 C 15.597656 14.21875 15.441406 14.152344 15.328125 14.03125 C 14.886719 13.5625 14.1875 13.4375 13.601562 13.714844 C 13.015625 13.960938 12.648438 14.546875 12.683594 15.183594 C 12.691406 15.355469 12.625 15.515625 12.507812 15.640625 C 12.390625 15.757812 12.230469 15.824219 12.058594 15.824219 C 11.710938 15.824219 11.496094 15.558594 11.453125 15.113281 C 11.417969 14.496094 11.019531 13.957031 10.4375 13.734375 C 9.855469 13.511719 9.199219 13.648438 8.757812 14.089844 C 8.550781 14.300781 8.222656 14.335938 7.984375 14.167969 C 7.769531 14.019531 7.679688 13.746094 7.765625 13.5 C 7.796875 13.402344 7.855469 13.3125 7.921875 13.234375 C 8.394531 12.792969 8.527344 12.09375 8.25 11.503906 C 8.007812 10.917969 7.414062 10.546875 6.78125 10.582031 C 6.472656 10.601562 6.203125 10.390625 6.148438 10.085938 C 6.097656 9.824219 6.234375 9.554688 6.480469 9.4375 C 6.582031 9.390625 6.695312 9.367188 6.808594 9.363281 C 7.433594 9.363281 7.988281 8.972656 8.207031 8.390625 C 8.472656 7.808594 8.335938 7.125 7.875 6.6875 C 7.703125 6.53125 7.632812 6.300781 7.6875 6.082031 C 7.746094 5.859375 7.917969 5.6875 8.144531 5.632812 C 8.363281 5.582031 8.59375 5.660156 8.746094 5.828125 C 9.214844 6.292969 9.921875 6.414062 10.511719 6.125 C 11.089844 5.878906 11.449219 5.304688 11.421875 4.679688 C 11.402344 4.453125 11.515625 4.234375 11.710938 4.113281 C 11.90625 3.992188 12.148438 3.992188 12.34375 4.113281 C 12.542969 4.234375 12.652344 4.453125 12.636719 4.679688 C 12.640625 5.296875 13.015625 5.855469 13.585938 6.09375 C 14.152344 6.335938 14.8125 6.214844 15.261719 5.785156 C 15.5 5.546875 15.890625 5.546875 16.128906 5.792969 C 16.367188 6.03125 16.367188 6.421875 16.125 6.660156 C 15.667969 7.121094 15.554688 7.816406 15.835938 8.398438 L 17.25 9.324219 C 17.683594 9.34375 17.945312 9.5625 17.953125 9.917969 C 17.957031 10.265625 17.703125 10.5 17.277344 10.539062 Z M 17.277344 10.539062 "/>
</g>
</svg>
