
<svg xmlns="http://www.w3.org/2000/svg" xmlns:xlink="http://www.w3.org/1999/xlink" width="24px" height="24px" viewBox="0 0 24 24" version="1.1">
<g id="surface1">
<path style=" stroke:none;fill-rule:nonzero;fill:rgb(37.647059%,41.960784%,50.980392%);fill-opacity:1;" d="M 12.585938 24 L 11.625 24 C 10.171875 23.59375 9.242188 22.722656 9.121094 21.152344 C 9.089844 20.777344 9.003906 20.453125 8.613281 20.304688 C 8.222656 20.152344 7.949219 20.347656 7.664062 20.597656 C 6.492188 21.679688 4.671875 21.632812 3.550781 20.5 C 2.429688 19.363281 2.410156 17.542969 3.507812 16.382812 C 3.742188 16.113281 3.9375 15.859375 3.773438 15.484375 C 3.609375 15.109375 3.269531 15.046875 2.890625 15.039062 C 1.648438 15.011719 0.554688 14.203125 0.164062 13.023438 C 0.113281 12.878906 0.0546875 12.75 0 12.585938 L 0 11.625 C 0.410156 10.148438 1.304688 9.222656 2.898438 9.117188 C 3.242188 9.144531 3.5625 8.945312 3.695312 8.625 C 3.804688 8.296875 3.703125 7.9375 3.4375 7.71875 C 2.285156 6.554688 2.289062 4.679688 3.453125 3.523438 C 4.613281 2.367188 6.492188 2.375 7.648438 3.535156 C 7.886719 3.820312 8.289062 3.90625 8.625 3.75 C 9 3.585938 9.046875 3.269531 9.0625 2.921875 C 9.066406 1.5625 10.011719 0.386719 11.335938 0.0898438 C 11.398438 0.0664062 11.460938 0.0351562 11.519531 0 L 12.480469 0 C 12.519531 0.03125 12.5625 0.0585938 12.609375 0.078125 C 14.082031 0.480469 14.824219 1.402344 14.972656 2.925781 C 15 3.230469 15.167969 3.507812 15.429688 3.675781 C 15.726562 3.726562 16.03125 3.640625 16.265625 3.445312 C 17.558594 2.378906 19.265625 2.390625 20.410156 3.515625 C 21.523438 4.65625 21.546875 6.46875 20.46875 7.640625 C 20.191406 7.878906 20.101562 8.269531 20.25 8.601562 C 20.40625 8.976562 20.722656 9.039062 21.074219 9.046875 C 21.796875 9 22.5 9.285156 22.992188 9.816406 C 23.375 10.355469 23.710938 10.925781 24 11.519531 L 24 12.480469 C 23.542969 14.015625 22.59375 14.933594 20.914062 14.984375 C 20.65625 15.023438 20.4375 15.1875 20.328125 15.421875 C 20.296875 15.71875 20.382812 16.023438 20.566406 16.265625 C 21.628906 17.554688 21.617188 19.285156 20.492188 20.417969 C 19.335938 21.523438 17.523438 21.550781 16.335938 20.484375 C 16.109375 20.285156 15.804688 20.203125 15.507812 20.257812 C 15.257812 20.445312 15.09375 20.734375 15.0625 21.054688 C 15 21.804688 14.832031 22.5 14.28125 22.976562 C 13.746094 23.367188 13.179688 23.710938 12.585938 24 Z M 12.054688 22.070312 C 12.339844 22.078125 12.617188 21.96875 12.820312 21.765625 C 13.023438 21.5625 13.132812 21.289062 13.125 21 C 13.152344 19.847656 13.632812 18.96875 14.695312 18.496094 C 15.683594 18.019531 16.867188 18.234375 17.625 19.023438 C 18.039062 19.425781 18.703125 19.417969 19.105469 19.003906 C 19.507812 18.589844 19.5 17.925781 19.085938 17.523438 C 18.3125 16.765625 18.097656 15.609375 18.542969 14.625 C 18.976562 13.582031 19.820312 13.101562 20.921875 13.023438 C 21.644531 12.976562 22.085938 12.566406 22.070312 11.964844 C 22.054688 11.367188 21.617188 10.992188 20.875 10.953125 C 19.828125 10.976562 18.878906 10.351562 18.480469 9.382812 C 18.003906 8.390625 18.203125 7.203125 18.972656 6.414062 C 19.460938 5.878906 19.472656 5.289062 19.039062 4.851562 C 18.601562 4.414062 18.03125 4.476562 17.515625 4.921875 C 16.765625 5.671875 15.625 5.882812 14.65625 5.453125 C 13.589844 5.015625 13.101562 4.160156 13.035156 3.039062 C 12.992188 2.355469 12.585938 1.914062 12 1.914062 C 11.710938 1.917969 11.4375 2.039062 11.242188 2.253906 C 11.046875 2.464844 10.949219 2.75 10.96875 3.039062 C 10.929688 4.164062 10.460938 5.046875 9.414062 5.496094 C 8.40625 5.984375 7.203125 5.785156 6.414062 5 C 6.011719 4.585938 5.351562 4.574219 4.933594 4.976562 C 4.519531 5.378906 4.511719 6.039062 4.914062 6.453125 C 5.6875 7.21875 5.90625 8.382812 5.457031 9.375 C 5.085938 10.375 4.136719 11.035156 3.070312 11.035156 C 2.875 11.035156 2.679688 11.078125 2.503906 11.164062 C 2.085938 11.359375 1.851562 11.816406 1.945312 12.269531 C 2.03125 12.789062 2.5 13.15625 3.023438 13.125 C 4.171875 13.152344 5.054688 13.632812 5.523438 14.699219 C 5.992188 15.691406 5.773438 16.871094 4.976562 17.625 C 4.851562 17.75 4.761719 17.90625 4.707031 18.074219 C 4.550781 18.511719 4.71875 18.996094 5.109375 19.246094 C 5.519531 19.527344 6.074219 19.472656 6.421875 19.109375 C 7.078125 18.429688 8.050781 18.160156 8.964844 18.398438 C 10.140625 18.644531 10.992188 19.664062 11.023438 20.867188 C 11.09375 21.625 11.460938 22.054688 12.054688 22.070312 Z M 12.054688 22.070312 "/>
<path style=" stroke:none;fill-rule:nonzero;fill:rgb(37.647059%,41.960784%,50.980392%);fill-opacity:1;" d="M 12 15.976562 C 9.804688 15.976562 8.023438 14.195312 8.023438 12 C 8.023438 9.804688 9.804688 8.023438 12 8.023438 C 14.195312 8.023438 15.976562 9.804688 15.976562 12 C 15.960938 14.191406 14.191406 15.960938 12 15.976562 Z M 14.050781 12 C 14.046875 11.167969 13.542969 10.421875 12.773438 10.109375 C 12 9.792969 11.117188 9.976562 10.535156 10.570312 C 9.953125 11.164062 9.789062 12.050781 10.113281 12.816406 C 10.441406 13.578125 11.199219 14.070312 12.03125 14.058594 C 13.148438 14.023438 14.039062 13.117188 14.050781 12 Z M 14.050781 12 "/>
</g>
</svg>
