
<svg xmlns="http://www.w3.org/2000/svg" xmlns:xlink="http://www.w3.org/1999/xlink" width="24px" height="24px" viewBox="0 0 24 24" version="1.1">
<g id="surface1">
<path style=" stroke:none;fill-rule:nonzero;fill:rgb(37.647059%,41.960784%,50.980392%);fill-opacity:1;" d="M 22.746094 21.488281 L 20.625 21.488281 L 20.625 5.828125 C 20.625 4.941406 19.910156 4.234375 19.03125 4.234375 L 18.703125 4.234375 C 18.28125 4.234375 17.871094 4.402344 17.578125 4.699219 C 17.28125 5 17.109375 5.402344 17.109375 5.828125 L 17.109375 21.488281 L 15 21.488281 L 15 11.160156 C 15 10.28125 14.292969 9.566406 13.410156 9.566406 L 13.078125 9.566406 C 12.199219 9.566406 11.484375 10.28125 11.484375 11.160156 L 11.484375 21.488281 L 9.375 21.488281 L 9.375 15.550781 C 9.375 15.128906 9.203125 14.722656 8.90625 14.425781 C 8.609375 14.125 8.203125 13.964844 7.78125 13.964844 L 7.453125 13.964844 C 6.574219 13.964844 5.859375 14.671875 5.859375 15.550781 L 5.859375 21.488281 L 3.058594 21.488281 C 2.753906 21.488281 2.503906 21.246094 2.503906 20.941406 L 2.503906 1.253906 C 2.53125 0.792969 2.300781 0.347656 1.90625 0.109375 C 1.503906 -0.128906 1.011719 -0.128906 0.609375 0.109375 C 0.203125 0.347656 -0.0273438 0.792969 0 1.253906 L 0 20.941406 C 0 22.628906 1.371094 24 3.058594 24 L 22.746094 24 C 23.207031 24.027344 23.652344 23.796875 23.890625 23.390625 C 24.128906 22.988281 24.128906 22.496094 23.890625 22.09375 C 23.652344 21.699219 23.207031 21.46875 22.746094 21.488281 Z M 22.746094 21.488281 "/>
</g>
</svg>
