
<svg xmlns="http://www.w3.org/2000/svg" xmlns:xlink="http://www.w3.org/1999/xlink" width="24px" height="24px" viewBox="0 0 24 24" version="1.1">
<g id="surface1">
<path style=" stroke:none;fill-rule:nonzero;fill:rgb(37.647059%,41.960784%,50.980392%);fill-opacity:1;" d="M 23.765625 5.3125 C 23.753906 5.019531 23.574219 4.765625 23.300781 4.652344 L 12.238281 0.09375 C 12.050781 0.0117188 11.84375 0.0117188 11.652344 0.09375 L 0.589844 4.652344 C 0.296875 4.765625 0.105469 5.050781 0.109375 5.359375 C 0.109375 5.386719 0.109375 5.402344 0.109375 5.425781 C 0.0351562 5.546875 0 5.6875 0 5.832031 L 0 18.628906 C -0.00390625 18.941406 0.1875 19.230469 0.472656 19.34375 L 11.503906 23.90625 C 11.597656 23.949219 11.703125 23.964844 11.808594 23.964844 C 11.871094 23.953125 11.9375 23.9375 12 23.90625 C 12.0625 23.9375 12.128906 23.953125 12.191406 23.964844 C 12.296875 23.964844 12.402344 23.949219 12.488281 23.90625 L 23.527344 19.34375 C 23.8125 19.230469 24.003906 18.941406 24 18.628906 L 24 5.832031 C 23.996094 5.636719 23.90625 5.449219 23.765625 5.3125 Z M 11.03125 22.042969 L 1.542969 18.113281 L 1.542969 6.984375 L 11.03125 10.910156 Z M 22.457031 18.113281 L 12.96875 22.042969 L 12.96875 10.910156 L 22.457031 6.984375 Z M 22.457031 18.113281 "/>
</g>
</svg>
