
<svg xmlns="http://www.w3.org/2000/svg" xmlns:xlink="http://www.w3.org/1999/xlink" width="24px" height="24px" viewBox="0 0 24 24" version="1.1">
<g id="surface1">
<path style=" stroke:none;fill-rule:nonzero;fill:rgb(37.647059%,41.960784%,50.980392%);fill-opacity:1;" d="M 23.296875 20.515625 L 23.296875 4.652344 C 23.292969 2.089844 21.21875 0.00390625 18.652344 0 L 10.636719 0 C 8.074219 0.0117188 6 2.089844 6 4.652344 L 6 14.5 C 5.484375 14.292969 4.933594 14.1875 4.375 14.1875 C 2.339844 14.1875 0.683594 15.5625 0.683594 17.261719 C 0.683594 18.957031 2.339844 20.339844 4.375 20.339844 C 6.417969 20.339844 8.066406 18.957031 8.066406 17.261719 C 8.066406 17.214844 8.066406 17.167969 8.066406 17.121094 L 8.09375 17.121094 L 8.09375 6.511719 C 8.09375 5.464844 8.949219 4.609375 9.996094 4.609375 L 19.3125 4.609375 C 20.359375 4.621094 21.203125 5.464844 21.207031 6.511719 L 21.207031 18.136719 C 20.707031 17.941406 20.171875 17.839844 19.640625 17.839844 C 17.597656 17.839844 15.949219 19.214844 15.949219 20.910156 C 15.949219 22.609375 17.597656 24 19.640625 24 C 21.683594 24 23.332031 22.625 23.332031 20.921875 C 23.332031 20.78125 23.316406 20.652344 23.296875 20.515625 Z M 23.296875 20.515625 "/>
<path style=" stroke:none;fill-rule:nonzero;fill:rgb(37.647059%,41.960784%,50.980392%);fill-opacity:1;" d="M 18.332031 10.546875 L 11.816406 6.796875 C 11.621094 6.6875 11.375 6.6875 11.171875 6.796875 C 10.972656 6.910156 10.847656 7.125 10.847656 7.355469 L 10.847656 14.871094 C 10.847656 15.097656 10.972656 15.3125 11.171875 15.421875 C 11.375 15.535156 11.621094 15.535156 11.816406 15.425781 L 18.332031 11.675781 C 18.535156 11.566406 18.667969 11.347656 18.667969 11.113281 C 18.667969 10.875 18.535156 10.65625 18.332031 10.546875 Z M 18.332031 10.546875 "/>
</g>
</svg>
