
<svg xmlns="http://www.w3.org/2000/svg" xmlns:xlink="http://www.w3.org/1999/xlink" width="24px" height="24px" viewBox="0 0 24 24" version="1.1">
<g id="surface1">
<path style=" stroke:none;fill-rule:nonzero;fill:rgb(37.647059%,41.960784%,50.980392%);fill-opacity:1;" d="M 12 21.636719 C 5.386719 21.636719 0 17.3125 0 12 C 0 6.6875 5.386719 2.363281 12 2.363281 C 18.613281 2.363281 24 6.6875 24 12 C 23.996094 13.425781 23.605469 14.828125 22.875 16.058594 C 22.566406 16.589844 22.027344 16.949219 21.421875 17.019531 C 20.800781 17.105469 20.171875 16.894531 19.730469 16.453125 L 18.058594 14.773438 C 17.816406 14.503906 17.441406 14.390625 17.089844 14.480469 C 16.738281 14.570312 16.460938 14.84375 16.371094 15.195312 C 16.28125 15.550781 16.398438 15.921875 16.667969 16.167969 L 17.894531 17.390625 C 18.378906 17.875 18.582031 18.570312 18.4375 19.234375 C 18.300781 19.894531 17.84375 20.4375 17.214844 20.679688 C 15.550781 21.320312 13.78125 21.644531 12 21.636719 Z M 12 4.410156 C 6.511719 4.410156 2.046875 7.816406 2.046875 12 C 2.046875 16.183594 6.511719 19.589844 12 19.589844 C 13.53125 19.597656 15.046875 19.320312 16.480469 18.777344 L 15.222656 17.625 C 14.03125 16.445312 14.027344 14.523438 15.214844 13.339844 C 16.394531 12.148438 18.316406 12.144531 19.5 13.328125 L 21.179688 15 C 21.675781 14.078125 21.945312 13.046875 21.953125 12 C 21.953125 7.816406 17.488281 4.410156 12 4.410156 Z M 12 4.410156 "/>
<path style=" stroke:none;fill-rule:nonzero;fill:rgb(37.647059%,41.960784%,50.980392%);fill-opacity:1;" d="M 11.972656 9.769531 C 11.972656 8.359375 10.578125 7.21875 8.851562 7.21875 C 7.125 7.21875 5.726562 8.359375 5.726562 9.769531 C 5.726562 11.183594 7.125 12.328125 8.851562 12.328125 C 10.578125 12.328125 11.972656 11.183594 11.972656 9.769531 Z M 11.972656 9.769531 "/>
<path style=" stroke:none;fill-rule:nonzero;fill:rgb(37.647059%,41.960784%,50.980392%);fill-opacity:1;" d="M 11.265625 15.085938 C 11.265625 14.074219 10.167969 13.253906 8.808594 13.253906 C 7.449219 13.253906 6.347656 14.074219 6.347656 15.085938 C 6.347656 16.097656 7.449219 16.921875 8.808594 16.921875 C 10.167969 16.921875 11.265625 16.097656 11.265625 15.085938 Z M 11.265625 15.085938 "/>
</g>
</svg>
