
<svg xmlns="http://www.w3.org/2000/svg" xmlns:xlink="http://www.w3.org/1999/xlink" width="24px" height="24px" viewBox="0 0 24 24" version="1.1">
<g id="surface1">
<path style=" stroke:none;fill-rule:nonzero;fill:rgb(37.647059%,41.960784%,50.980392%);fill-opacity:1;" d="M 17.636719 5.15625 L 17.636719 19.300781 L 18.28125 20.421875 L 20.347656 24 L 22.417969 20.421875 L 23.0625 19.300781 L 23.0625 5.15625 Z M 17.636719 5.15625 "/>
<path style=" stroke:none;fill-rule:nonzero;fill:rgb(37.647059%,41.960784%,50.980392%);fill-opacity:1;" d="M 23.0625 3.890625 L 17.625 3.890625 L 17.625 1.925781 C 17.625 1.410156 17.828125 0.921875 18.191406 0.5625 C 18.558594 0.199219 19.046875 -0.00390625 19.5625 0 L 21.136719 0 C 22.203125 0 23.0625 0.859375 23.0625 1.925781 Z M 23.0625 3.890625 "/>
<path style=" stroke:none;fill-rule:nonzero;fill:rgb(37.647059%,41.960784%,50.980392%);fill-opacity:1;" d="M 17.933594 24 L 4.390625 24 C 2.484375 24 0.9375 22.453125 0.9375 20.546875 L 0.9375 3.453125 C 0.9375 1.546875 2.484375 0 4.390625 0 L 15.535156 0 L 15.535156 1.277344 L 4.390625 1.277344 C 3.1875 1.277344 2.214844 2.25 2.214844 3.453125 L 2.214844 20.546875 C 2.214844 21.75 3.1875 22.722656 4.390625 22.722656 L 17.933594 22.722656 Z M 17.933594 24 "/>
<path style=" stroke:none;fill-rule:nonzero;fill:rgb(37.647059%,41.960784%,50.980392%);fill-opacity:1;" d="M 5.546875 3.53125 L 14.378906 3.53125 C 14.972656 3.53125 15.457031 4.015625 15.457031 4.609375 L 15.457031 6.144531 C 15.457031 6.738281 14.972656 7.222656 14.378906 7.222656 L 5.546875 7.222656 C 4.957031 7.222656 4.472656 6.738281 4.472656 6.144531 L 4.472656 4.609375 C 4.472656 4.015625 4.957031 3.53125 5.546875 3.53125 Z M 5.546875 3.53125 "/>
<path style=" stroke:none;fill-rule:nonzero;fill:rgb(37.647059%,41.960784%,50.980392%);fill-opacity:1;" d="M 5.238281 9.144531 L 6.519531 9.144531 C 6.980469 9.144531 7.355469 9.519531 7.355469 9.980469 L 7.355469 11.261719 C 7.355469 11.71875 6.980469 12.09375 6.519531 12.09375 L 5.238281 12.09375 C 4.78125 12.09375 4.40625 11.71875 4.40625 11.261719 L 4.40625 9.980469 C 4.40625 9.519531 4.78125 9.144531 5.238281 9.144531 Z M 5.238281 9.144531 "/>
<path style=" stroke:none;fill-rule:nonzero;fill:rgb(37.647059%,41.960784%,50.980392%);fill-opacity:1;" d="M 9.324219 9.144531 L 10.605469 9.144531 C 11.0625 9.144531 11.4375 9.519531 11.4375 9.980469 L 11.4375 11.261719 C 11.4375 11.71875 11.0625 12.09375 10.605469 12.09375 L 9.324219 12.09375 C 8.863281 12.09375 8.488281 11.71875 8.488281 11.261719 L 8.488281 9.980469 C 8.488281 9.519531 8.863281 9.144531 9.324219 9.144531 Z M 9.324219 9.144531 "/>
<path style=" stroke:none;fill-rule:nonzero;fill:rgb(37.647059%,41.960784%,50.980392%);fill-opacity:1;" d="M 13.410156 9.144531 L 14.691406 9.144531 C 15.152344 9.144531 15.527344 9.519531 15.527344 9.980469 L 15.527344 11.261719 C 15.527344 11.71875 15.152344 12.09375 14.691406 12.09375 L 13.410156 12.09375 C 12.949219 12.09375 12.578125 11.71875 12.578125 11.261719 L 12.578125 9.980469 C 12.578125 9.519531 12.949219 9.144531 13.410156 9.144531 Z M 13.410156 9.144531 "/>
<path style=" stroke:none;fill-rule:nonzero;fill:rgb(37.647059%,41.960784%,50.980392%);fill-opacity:1;" d="M 5.238281 13.328125 L 6.519531 13.328125 C 6.980469 13.328125 7.355469 13.699219 7.355469 14.160156 L 7.355469 15.441406 C 7.355469 15.902344 6.980469 16.277344 6.519531 16.277344 L 5.238281 16.277344 C 4.78125 16.277344 4.40625 15.902344 4.40625 15.441406 L 4.40625 14.160156 C 4.40625 13.699219 4.78125 13.328125 5.238281 13.328125 Z M 5.238281 13.328125 "/>
<path style=" stroke:none;fill-rule:nonzero;fill:rgb(37.647059%,41.960784%,50.980392%);fill-opacity:1;" d="M 9.324219 13.328125 L 10.605469 13.328125 C 11.0625 13.328125 11.4375 13.699219 11.4375 14.160156 L 11.4375 15.441406 C 11.4375 15.902344 11.0625 16.277344 10.605469 16.277344 L 9.324219 16.277344 C 8.863281 16.277344 8.488281 15.902344 8.488281 15.441406 L 8.488281 14.160156 C 8.488281 13.699219 8.863281 13.328125 9.324219 13.328125 Z M 9.324219 13.328125 "/>
<path style=" stroke:none;fill-rule:nonzero;fill:rgb(37.647059%,41.960784%,50.980392%);fill-opacity:1;" d="M 13.410156 13.328125 L 14.691406 13.328125 C 15.152344 13.328125 15.527344 13.699219 15.527344 14.160156 L 15.527344 15.441406 C 15.527344 15.902344 15.152344 16.277344 14.691406 16.277344 L 13.410156 16.277344 C 12.949219 16.277344 12.578125 15.902344 12.578125 15.441406 L 12.578125 14.160156 C 12.578125 13.699219 12.949219 13.328125 13.410156 13.328125 Z M 13.410156 13.328125 "/>
<path style=" stroke:none;fill-rule:nonzero;fill:rgb(37.647059%,41.960784%,50.980392%);fill-opacity:1;" d="M 5.238281 17.503906 L 6.519531 17.503906 C 6.980469 17.503906 7.355469 17.878906 7.355469 18.339844 L 7.355469 19.625 C 7.355469 20.089844 6.980469 20.453125 6.519531 20.453125 L 5.238281 20.453125 C 4.78125 20.453125 4.40625 20.089844 4.40625 19.625 L 4.40625 18.339844 C 4.40625 17.878906 4.78125 17.503906 5.238281 17.503906 Z M 5.238281 17.503906 "/>
<path style=" stroke:none;fill-rule:nonzero;fill:rgb(37.647059%,41.960784%,50.980392%);fill-opacity:1;" d="M 9.324219 17.503906 L 10.605469 17.503906 C 11.0625 17.503906 11.4375 17.878906 11.4375 18.339844 L 11.4375 19.625 C 11.4375 20.089844 11.0625 20.453125 10.605469 20.453125 L 9.324219 20.453125 C 8.863281 20.453125 8.488281 20.089844 8.488281 19.625 L 8.488281 18.339844 C 8.488281 17.878906 8.863281 17.503906 9.324219 17.503906 Z M 9.324219 17.503906 "/>
<path style=" stroke:none;fill-rule:nonzero;fill:rgb(37.647059%,41.960784%,50.980392%);fill-opacity:1;" d="M 13.410156 17.503906 L 14.691406 17.503906 C 15.152344 17.503906 15.527344 17.878906 15.527344 18.339844 L 15.527344 19.625 C 15.527344 20.089844 15.152344 20.453125 14.691406 20.453125 L 13.410156 20.453125 C 12.949219 20.453125 12.578125 20.089844 12.578125 19.625 L 12.578125 18.339844 C 12.578125 17.878906 12.949219 17.503906 13.410156 17.503906 Z M 13.410156 17.503906 "/>
</g>
</svg>
