
<svg xmlns="http://www.w3.org/2000/svg" xmlns:xlink="http://www.w3.org/1999/xlink" width="24px" height="24px" viewBox="0 0 24 24" version="1.1">
<g id="surface1">
<path style=" stroke:none;fill-rule:nonzero;fill:rgb(37.647059%,41.960784%,50.980392%);fill-opacity:1;" d="M 12 24 C 5.375 24 0 18.625 0 12 C 0 5.375 5.375 0 12 0 C 18.625 0 24 5.375 24 12 C 24 18.625 18.625 24 12 24 Z M 12 2.519531 C 6.761719 2.519531 2.519531 6.761719 2.519531 12 C 2.519531 17.238281 6.761719 21.480469 12 21.480469 C 17.238281 21.480469 21.480469 17.238281 21.480469 12 C 21.472656 6.765625 17.234375 2.527344 12 2.519531 Z M 12 2.519531 "/>
<path style=" stroke:none;fill-rule:nonzero;fill:rgb(37.647059%,41.960784%,50.980392%);fill-opacity:1;" d="M 11.65625 16.125 C 7.839844 16.152344 4.109375 15.035156 0.933594 12.921875 L 1.683594 11.910156 C 4.652344 13.84375 8.113281 14.871094 11.65625 14.863281 C 15.390625 14.8125 19.0625 13.886719 22.375 12.160156 L 23.003906 13.253906 C 19.503906 15.105469 15.613281 16.089844 11.65625 16.125 Z M 11.65625 16.125 "/>
<path style=" stroke:none;fill-rule:nonzero;fill:rgb(37.647059%,41.960784%,50.980392%);fill-opacity:1;" d="M 22.316406 11.464844 C 19.347656 9.527344 15.886719 8.5 12.34375 8.503906 C 8.609375 8.558594 4.9375 9.480469 1.625 11.207031 L 0.996094 10.125 C 4.496094 8.28125 8.386719 7.296875 12.34375 7.261719 C 16.160156 7.234375 19.890625 8.347656 23.066406 10.457031 Z M 22.316406 11.464844 "/>
<path style=" stroke:none;fill-rule:nonzero;fill:rgb(37.647059%,41.960784%,50.980392%);fill-opacity:1;" d="M 9.816406 22.777344 C 9.652344 22.566406 5.71875 17.703125 5.71875 11.339844 C 5.71875 4.980469 10.125 0.714844 10.296875 0.542969 L 11.160156 1.453125 C 11.121094 1.5 6.980469 5.496094 6.980469 11.339844 C 6.980469 17.1875 10.753906 21.933594 10.796875 21.980469 Z M 9.816406 22.777344 "/>
<path style=" stroke:none;fill-rule:nonzero;fill:rgb(37.647059%,41.960784%,50.980392%);fill-opacity:1;" d="M 13.703125 22.832031 L 12.839844 21.921875 C 12.878906 21.878906 17.019531 17.878906 17.019531 12.03125 C 17.019531 6.183594 13.238281 1.441406 13.203125 1.394531 L 14.183594 0.597656 C 14.347656 0.796875 18.28125 5.671875 18.28125 12.03125 C 18.28125 18.390625 13.890625 22.65625 13.703125 22.832031 Z M 13.703125 22.832031 "/>
<path style=" stroke:none;fill-rule:nonzero;fill:rgb(37.647059%,41.960784%,50.980392%);fill-opacity:1;" d="M 11.371094 1.160156 L 12.628906 1.160156 L 12.628906 23.566406 L 11.371094 23.566406 Z M 11.371094 1.160156 "/>
</g>
</svg>
