
<svg xmlns="http://www.w3.org/2000/svg" xmlns:xlink="http://www.w3.org/1999/xlink" width="24px" height="24px" viewBox="0 0 24 24" version="1.1">
<g id="surface1">
<path style=" stroke:none;fill-rule:nonzero;fill:rgb(100%,100%,100%);fill-opacity:1;" d="M 12.585938 24 L 11.625 24 C 10.171875 23.597656 9.246094 22.722656 9.117188 21.152344 C 9.089844 20.777344 9.003906 20.457031 8.613281 20.300781 C 8.226562 20.152344 7.949219 20.347656 7.664062 20.601562 C 6.492188 21.679688 4.667969 21.632812 3.550781 20.496094 C 2.433594 19.363281 2.414062 17.542969 3.503906 16.382812 C 3.746094 16.113281 3.9375 15.863281 3.773438 15.488281 C 3.609375 15.113281 3.269531 15.046875 2.886719 15.035156 C 1.644531 15.011719 0.558594 14.203125 0.164062 13.027344 C 0.113281 12.878906 0.0585938 12.75 0 12.585938 L 0 11.625 C 0.410156 10.148438 1.308594 9.222656 2.902344 9.117188 C 3.238281 9.140625 3.5625 8.949219 3.691406 8.625 C 3.800781 8.296875 3.703125 7.941406 3.441406 7.714844 C 2.285156 6.558594 2.292969 4.675781 3.449219 3.519531 C 4.613281 2.367188 6.492188 2.371094 7.644531 3.539062 C 7.886719 3.820312 8.285156 3.910156 8.625 3.75 C 9 3.585938 9.046875 3.269531 9.066406 2.925781 C 9.070312 1.566406 10.007812 0.386719 11.339844 0.0898438 C 11.402344 0.0664062 11.460938 0.0351562 11.519531 0 L 12.480469 0 C 12.519531 0.0351562 12.5625 0.0585938 12.609375 0.0742188 C 14.082031 0.480469 14.824219 1.402344 14.976562 2.925781 C 15 3.230469 15.167969 3.511719 15.425781 3.675781 C 15.726562 3.726562 16.03125 3.644531 16.265625 3.445312 C 17.554688 2.378906 19.265625 2.390625 20.414062 3.515625 C 21.519531 4.660156 21.542969 6.46875 20.464844 7.640625 C 20.191406 7.875 20.105469 8.269531 20.25 8.601562 C 20.410156 8.976562 20.722656 9.042969 21.074219 9.046875 C 21.796875 9 22.5 9.28125 22.992188 9.820312 C 23.371094 10.355469 23.714844 10.925781 24 11.519531 L 24 12.480469 C 23.542969 14.015625 22.59375 14.929688 20.910156 14.980469 C 20.660156 15.023438 20.4375 15.1875 20.324219 15.421875 C 20.296875 15.722656 20.378906 16.027344 20.566406 16.265625 C 21.632812 17.554688 21.621094 19.289062 20.496094 20.417969 C 19.335938 21.519531 17.527344 21.550781 16.335938 20.484375 C 16.105469 20.285156 15.800781 20.203125 15.511719 20.253906 C 15.257812 20.449219 15.09375 20.738281 15.066406 21.050781 C 15 21.800781 14.832031 22.5 14.277344 22.972656 C 13.746094 23.367188 13.175781 23.707031 12.585938 24 Z M 12.050781 22.066406 C 12.339844 22.078125 12.613281 21.972656 12.820312 21.769531 C 13.027344 21.5625 13.136719 21.285156 13.125 21 C 13.148438 19.851562 13.628906 18.964844 14.695312 18.492188 C 15.683594 18.023438 16.863281 18.234375 17.625 19.027344 C 18.042969 19.425781 18.703125 19.417969 19.101562 19.003906 C 19.503906 18.589844 19.5 17.925781 19.082031 17.527344 C 18.308594 16.769531 18.097656 15.609375 18.542969 14.625 C 18.980469 13.582031 19.824219 13.101562 20.925781 13.027344 C 21.644531 12.972656 22.082031 12.566406 22.066406 11.964844 C 22.054688 11.367188 21.613281 10.992188 20.878906 10.949219 C 19.828125 10.972656 18.878906 10.355469 18.480469 9.378906 C 18.003906 8.390625 18.199219 7.199219 18.972656 6.417969 C 19.457031 5.882812 19.476562 5.292969 19.035156 4.851562 C 18.605469 4.410156 18.027344 4.476562 17.511719 4.921875 C 16.761719 5.671875 15.628906 5.882812 14.652344 5.457031 C 13.589844 5.015625 13.101562 4.160156 13.035156 3.035156 C 12.996094 2.355469 12.585938 1.910156 12 1.910156 C 11.714844 1.917969 11.4375 2.039062 11.246094 2.25 C 11.042969 2.464844 10.945312 2.746094 10.96875 3.035156 C 10.925781 4.160156 10.464844 5.042969 9.410156 5.496094 C 8.410156 5.988281 7.207031 5.789062 6.410156 4.996094 C 6.011719 4.582031 5.347656 4.574219 4.933594 4.972656 C 4.523438 5.378906 4.511719 6.042969 4.910156 6.449219 C 5.691406 7.21875 5.90625 8.386719 5.457031 9.375 C 5.085938 10.371094 4.136719 11.035156 3.070312 11.039062 C 2.878906 11.035156 2.683594 11.082031 2.507812 11.160156 C 2.085938 11.355469 1.851562 11.816406 1.945312 12.269531 C 2.035156 12.792969 2.496094 13.160156 3.023438 13.125 C 4.171875 13.148438 5.058594 13.628906 5.527344 14.699219 C 5.996094 15.691406 5.769531 16.871094 4.972656 17.625 C 4.851562 17.753906 4.757812 17.90625 4.707031 18.074219 C 4.550781 18.511719 4.714844 18.996094 5.109375 19.242188 C 5.519531 19.527344 6.074219 19.472656 6.421875 19.105469 C 7.078125 18.433594 8.050781 18.160156 8.964844 18.398438 C 10.144531 18.644531 10.992188 19.664062 11.027344 20.863281 C 11.089844 21.628906 11.460938 22.054688 12.050781 22.066406 Z M 12.050781 22.066406 "/>
<path style=" stroke:none;fill-rule:nonzero;fill:rgb(100%,100%,100%);fill-opacity:1;" d="M 12 15.980469 C 9.800781 15.980469 8.019531 14.199219 8.019531 12 C 8.019531 9.800781 9.800781 8.019531 12 8.019531 C 14.199219 8.019531 15.980469 9.800781 15.980469 12 C 15.960938 14.191406 14.191406 15.960938 12 15.980469 Z M 14.050781 12 C 14.050781 11.167969 13.542969 10.417969 12.773438 10.105469 C 12 9.796875 11.121094 9.980469 10.535156 10.570312 C 9.957031 11.160156 9.785156 12.050781 10.113281 12.816406 C 10.441406 13.582031 11.199219 14.066406 12.027344 14.058594 C 13.148438 14.027344 14.039062 13.121094 14.050781 12 Z M 14.050781 12 "/>
</g>
</svg>
