
<svg xmlns="http://www.w3.org/2000/svg" xmlns:xlink="http://www.w3.org/1999/xlink" width="24px" height="24px" viewBox="0 0 24 24" version="1.1">
<g id="surface1">
<path style=" stroke:none;fill-rule:nonzero;fill:rgb(49.411765%,34.117647%,76.862745%);fill-opacity:1;" d="M 2.023438 0 L 21.976562 0 C 23.09375 0 24 0.90625 24 2.023438 L 24 21.976562 C 24 23.09375 23.09375 24 21.976562 24 L 2.023438 24 C 0.90625 24 0 23.09375 0 21.976562 L 0 2.023438 C 0 0.90625 0.90625 0 2.023438 0 Z M 2.023438 0 "/>
<path style=" stroke:none;fill-rule:nonzero;fill:rgb(100%,100%,100%);fill-opacity:1;" d="M 4.40625 5.683594 L 6.429688 5.683594 C 6.816406 5.683594 7.128906 5.996094 7.128906 6.382812 L 7.128906 8.40625 C 7.128906 8.792969 6.816406 9.105469 6.429688 9.105469 L 4.40625 9.105469 C 4.023438 9.105469 3.710938 8.792969 3.710938 8.40625 L 3.710938 6.382812 C 3.710938 5.996094 4.023438 5.683594 4.40625 5.683594 Z M 4.40625 5.683594 "/>
<path style=" stroke:none;fill-rule:nonzero;fill:rgb(100%,100%,100%);fill-opacity:1;" d="M 8.792969 5.683594 L 10.820312 5.683594 C 11.203125 5.683594 11.515625 5.996094 11.515625 6.382812 L 11.515625 8.40625 C 11.515625 8.792969 11.203125 9.105469 10.820312 9.105469 L 8.792969 9.105469 C 8.40625 9.105469 8.097656 8.792969 8.097656 8.40625 L 8.097656 6.382812 C 8.097656 5.996094 8.40625 5.683594 8.792969 5.683594 Z M 8.792969 5.683594 "/>
<path style=" stroke:none;fill-rule:nonzero;fill:rgb(100%,100%,100%);fill-opacity:1;" d="M 13.179688 5.683594 L 15.207031 5.683594 C 15.59375 5.683594 15.902344 5.996094 15.902344 6.382812 L 15.902344 8.40625 C 15.902344 8.792969 15.59375 9.105469 15.207031 9.105469 L 13.179688 9.105469 C 12.796875 9.105469 12.484375 8.792969 12.484375 8.40625 L 12.484375 6.382812 C 12.484375 5.996094 12.796875 5.683594 13.179688 5.683594 Z M 13.179688 5.683594 "/>
<path style=" stroke:none;fill-rule:nonzero;fill:rgb(100%,100%,100%);fill-opacity:1;" d="M 17.566406 5.683594 L 19.589844 5.683594 C 19.976562 5.683594 20.289062 5.996094 20.289062 6.382812 L 20.289062 8.40625 C 20.289062 8.792969 19.976562 9.105469 19.589844 9.105469 L 17.566406 9.105469 C 17.179688 9.105469 16.867188 8.792969 16.867188 8.40625 L 16.867188 6.382812 C 16.867188 5.996094 17.179688 5.683594 17.566406 5.683594 Z M 17.566406 5.683594 "/>
<path style=" stroke:none;fill-rule:nonzero;fill:rgb(100%,100%,100%);fill-opacity:1;" d="M 4.40625 10.800781 L 6.429688 10.800781 C 6.816406 10.800781 7.128906 11.113281 7.128906 11.496094 L 7.128906 13.523438 C 7.128906 13.90625 6.816406 14.21875 6.429688 14.21875 L 4.40625 14.21875 C 4.023438 14.21875 3.710938 13.90625 3.710938 13.523438 L 3.710938 11.496094 C 3.710938 11.113281 4.023438 10.800781 4.40625 10.800781 Z M 4.40625 10.800781 "/>
<path style=" stroke:none;fill-rule:nonzero;fill:rgb(100%,100%,100%);fill-opacity:1;" d="M 8.792969 10.800781 L 10.820312 10.800781 C 11.203125 10.800781 11.515625 11.113281 11.515625 11.496094 L 11.515625 13.523438 C 11.515625 13.90625 11.203125 14.21875 10.820312 14.21875 L 8.792969 14.21875 C 8.40625 14.21875 8.097656 13.90625 8.097656 13.523438 L 8.097656 11.496094 C 8.097656 11.113281 8.40625 10.800781 8.792969 10.800781 Z M 8.792969 10.800781 "/>
</g>
</svg>
