
<svg xmlns="http://www.w3.org/2000/svg" xmlns:xlink="http://www.w3.org/1999/xlink" width="24px" height="24px" viewBox="0 0 24 24" version="1.1">
<g id="surface1">
<path style=" stroke:none;fill-rule:nonzero;fill:rgb(36.078431%,41.960784%,75.294118%);fill-opacity:1;" d="M 2.023438 0 L 21.976562 0 C 23.09375 0 24 0.90625 24 2.023438 L 24 21.976562 C 24 23.09375 23.09375 24 21.976562 24 L 2.023438 24 C 0.90625 24 0 23.09375 0 21.976562 L 0 2.023438 C 0 0.90625 0.90625 0 2.023438 0 Z M 2.023438 0 "/>
<path style=" stroke:none;fill-rule:nonzero;fill:rgb(100%,100%,100%);fill-opacity:1;" d="M 13.171875 12 L 15.957031 9.21875 C 16.179688 8.992188 16.179688 8.625 15.957031 8.398438 L 12.683594 5.125 C 12.515625 4.960938 12.265625 4.914062 12.050781 5 C 11.835938 5.09375 11.695312 5.300781 11.691406 5.535156 L 11.691406 10.519531 L 8.894531 7.722656 C 8.667969 7.496094 8.304688 7.496094 8.078125 7.722656 C 7.851562 7.945312 7.851562 8.3125 8.078125 8.539062 L 11.539062 12 L 8.042969 15.492188 C 7.847656 15.722656 7.859375 16.0625 8.074219 16.28125 C 8.289062 16.492188 8.628906 16.507812 8.859375 16.3125 L 11.691406 13.5 L 11.691406 18.464844 C 11.695312 18.703125 11.84375 18.914062 12.066406 18.996094 C 12.136719 19.027344 12.210938 19.042969 12.289062 19.042969 C 12.441406 19.039062 12.585938 18.980469 12.695312 18.875 L 15.972656 15.601562 C 16.195312 15.375 16.195312 15.007812 15.972656 14.78125 Z M 12.851562 6.933594 L 14.726562 8.808594 L 12.851562 10.683594 Z M 12.851562 17.058594 L 12.851562 13.308594 L 14.726562 15.183594 Z M 12.851562 17.058594 "/>
</g>
</svg>
