
<svg xmlns="http://www.w3.org/2000/svg" xmlns:xlink="http://www.w3.org/1999/xlink" width="24px" height="24px" viewBox="0 0 24 24" version="1.1">
<defs>
<clipPath id="clip1">
  <path d="M 5 0 L 11.25 0 L 11.25 4.25 L 5 4.25 Z M 5 0 "/>
</clipPath>
<clipPath id="clip2">
  <path d="M 2.023438 0 L 21.976562 0 C 23.09375 0 24 0.90625 24 2.023438 L 24 21.976562 C 24 23.09375 23.09375 24 21.976562 24 L 2.023438 24 C 0.90625 24 0 23.09375 0 21.976562 L 0 2.023438 C 0 0.90625 0.90625 0 2.023438 0 Z M 2.023438 0 "/>
</clipPath>
<clipPath id="clip3">
  <path d="M 0 0 L 0.5 0 L 0.5 3 L 0 3 Z M 0 0 "/>
</clipPath>
<clipPath id="clip4">
  <path d="M 2.023438 0 L 21.976562 0 C 23.09375 0 24 0.90625 24 2.023438 L 24 21.976562 C 24 23.09375 23.09375 24 21.976562 24 L 2.023438 24 C 0.90625 24 0 23.09375 0 21.976562 L 0 2.023438 C 0 0.90625 0.90625 0 2.023438 0 Z M 2.023438 0 "/>
</clipPath>
<clipPath id="clip5">
  <path d="M 0 0 L 6 0 L 6 3.5 L 0 3.5 Z M 0 0 "/>
</clipPath>
<clipPath id="clip6">
  <path d="M 2.023438 0 L 21.976562 0 C 23.09375 0 24 0.90625 24 2.023438 L 24 21.976562 C 24 23.09375 23.09375 24 21.976562 24 L 2.023438 24 C 0.90625 24 0 23.09375 0 21.976562 L 0 2.023438 C 0 0.90625 0.90625 0 2.023438 0 Z M 2.023438 0 "/>
</clipPath>
<clipPath id="clip7">
  <path d="M 13 20.75 L 19.25 20.75 L 19.25 24 L 13 24 Z M 13 20.75 "/>
</clipPath>
<clipPath id="clip8">
  <path d="M 2.023438 0 L 21.976562 0 C 23.09375 0 24 0.90625 24 2.023438 L 24 21.976562 C 24 23.09375 23.09375 24 21.976562 24 L 2.023438 24 C 0.90625 24 0 23.09375 0 21.976562 L 0 2.023438 C 0 0.90625 0.90625 0 2.023438 0 Z M 2.023438 0 "/>
</clipPath>
<clipPath id="clip9">
  <path d="M 18.5 21 L 24 21 L 24 24 L 18.5 24 Z M 18.5 21 "/>
</clipPath>
<clipPath id="clip10">
  <path d="M 2.023438 0 L 21.976562 0 C 23.09375 0 24 0.90625 24 2.023438 L 24 21.976562 C 24 23.09375 23.09375 24 21.976562 24 L 2.023438 24 C 0.90625 24 0 23.09375 0 21.976562 L 0 2.023438 C 0 0.90625 0.90625 0 2.023438 0 Z M 2.023438 0 "/>
</clipPath>
<clipPath id="clip11">
  <path d="M 19 15.75 L 24 15.75 L 24 22 L 19 22 Z M 19 15.75 "/>
</clipPath>
<clipPath id="clip12">
  <path d="M 2.023438 0 L 21.976562 0 C 23.09375 0 24 0.90625 24 2.023438 L 24 21.976562 C 24 23.09375 23.09375 24 21.976562 24 L 2.023438 24 C 0.90625 24 0 23.09375 0 21.976562 L 0 2.023438 C 0 0.90625 0.90625 0 2.023438 0 Z M 2.023438 0 "/>
</clipPath>
<clipPath id="clip13">
  <path d="M 2.5 19.25 L 8.75 19.25 L 8.75 24 L 2.5 24 Z M 2.5 19.25 "/>
</clipPath>
<clipPath id="clip14">
  <path d="M 2.023438 0 L 21.976562 0 C 23.09375 0 24 0.90625 24 2.023438 L 24 21.976562 C 24 23.09375 23.09375 24 21.976562 24 L 2.023438 24 C 0.90625 24 0 23.09375 0 21.976562 L 0 2.023438 C 0 0.90625 0.90625 0 2.023438 0 Z M 2.023438 0 "/>
</clipPath>
<clipPath id="clip15">
  <path d="M 7.75 20 L 14 20 L 14 24 L 7.75 24 Z M 7.75 20 "/>
</clipPath>
<clipPath id="clip16">
  <path d="M 2.023438 0 L 21.976562 0 C 23.09375 0 24 0.90625 24 2.023438 L 24 21.976562 C 24 23.09375 23.09375 24 21.976562 24 L 2.023438 24 C 0.90625 24 0 23.09375 0 21.976562 L 0 2.023438 C 0 0.90625 0.90625 0 2.023438 0 Z M 2.023438 0 "/>
</clipPath>
<clipPath id="clip17">
  <path d="M 0 18.75 L 3.5 18.75 L 3.5 24 L 0 24 Z M 0 18.75 "/>
</clipPath>
<clipPath id="clip18">
  <path d="M 2.023438 0 L 21.976562 0 C 23.09375 0 24 0.90625 24 2.023438 L 24 21.976562 C 24 23.09375 23.09375 24 21.976562 24 L 2.023438 24 C 0.90625 24 0 23.09375 0 21.976562 L 0 2.023438 C 0 0.90625 0.90625 0 2.023438 0 Z M 2.023438 0 "/>
</clipPath>
<clipPath id="clip19">
  <path d="M 10.25 0 L 16.5 0 L 16.5 4.75 L 10.25 4.75 Z M 10.25 0 "/>
</clipPath>
<clipPath id="clip20">
  <path d="M 2.023438 0 L 21.976562 0 C 23.09375 0 24 0.90625 24 2.023438 L 24 21.976562 C 24 23.09375 23.09375 24 21.976562 24 L 2.023438 24 C 0.90625 24 0 23.09375 0 21.976562 L 0 2.023438 C 0 0.90625 0.90625 0 2.023438 0 Z M 2.023438 0 "/>
</clipPath>
<clipPath id="clip21">
  <path d="M 4.5 3.25 L 10.5 3.25 L 10.5 9.5 L 4.5 9.5 Z M 4.5 3.25 "/>
</clipPath>
<clipPath id="clip22">
  <path d="M 2.023438 0 L 21.976562 0 C 23.09375 0 24 0.90625 24 2.023438 L 24 21.976562 C 24 23.09375 23.09375 24 21.976562 24 L 2.023438 24 C 0.90625 24 0 23.09375 0 21.976562 L 0 2.023438 C 0 0.90625 0.90625 0 2.023438 0 Z M 2.023438 0 "/>
</clipPath>
<clipPath id="clip23">
  <path d="M 9.75 4 L 16 4 L 16 10.25 L 9.75 10.25 Z M 9.75 4 "/>
</clipPath>
<clipPath id="clip24">
  <path d="M 2.023438 0 L 21.976562 0 C 23.09375 0 24 0.90625 24 2.023438 L 24 21.976562 C 24 23.09375 23.09375 24 21.976562 24 L 2.023438 24 C 0.90625 24 0 23.09375 0 21.976562 L 0 2.023438 C 0 0.90625 0.90625 0 2.023438 0 Z M 2.023438 0 "/>
</clipPath>
<clipPath id="clip25">
  <path d="M 0 8 L 4.75 8 L 4.75 14.25 L 0 14.25 Z M 0 8 "/>
</clipPath>
<clipPath id="clip26">
  <path d="M 2.023438 0 L 21.976562 0 C 23.09375 0 24 0.90625 24 2.023438 L 24 21.976562 C 24 23.09375 23.09375 24 21.976562 24 L 2.023438 24 C 0.90625 24 0 23.09375 0 21.976562 L 0 2.023438 C 0 0.90625 0.90625 0 2.023438 0 Z M 2.023438 0 "/>
</clipPath>
<clipPath id="clip27">
  <path d="M 19.75 10.5 L 24 10.5 L 24 16.75 L 19.75 16.75 Z M 19.75 10.5 "/>
</clipPath>
<clipPath id="clip28">
  <path d="M 2.023438 0 L 21.976562 0 C 23.09375 0 24 0.90625 24 2.023438 L 24 21.976562 C 24 23.09375 23.09375 24 21.976562 24 L 2.023438 24 C 0.90625 24 0 23.09375 0 21.976562 L 0 2.023438 C 0 0.90625 0.90625 0 2.023438 0 Z M 2.023438 0 "/>
</clipPath>
<clipPath id="clip29">
  <path d="M 3.75 8.75 L 10 8.75 L 10 14.75 L 3.75 14.75 Z M 3.75 8.75 "/>
</clipPath>
<clipPath id="clip30">
  <path d="M 2.023438 0 L 21.976562 0 C 23.09375 0 24 0.90625 24 2.023438 L 24 21.976562 C 24 23.09375 23.09375 24 21.976562 24 L 2.023438 24 C 0.90625 24 0 23.09375 0 21.976562 L 0 2.023438 C 0 0.90625 0.90625 0 2.023438 0 Z M 2.023438 0 "/>
</clipPath>
<clipPath id="clip31">
  <path d="M 9 9.25 L 15.25 9.25 L 15.25 15.5 L 9 15.5 Z M 9 9.25 "/>
</clipPath>
<clipPath id="clip32">
  <path d="M 2.023438 0 L 21.976562 0 C 23.09375 0 24 0.90625 24 2.023438 L 24 21.976562 C 24 23.09375 23.09375 24 21.976562 24 L 2.023438 24 C 0.90625 24 0 23.09375 0 21.976562 L 0 2.023438 C 0 0.90625 0.90625 0 2.023438 0 Z M 2.023438 0 "/>
</clipPath>
<clipPath id="clip33">
  <path d="M 0 2.75 L 5.25 2.75 L 5.25 9 L 0 9 Z M 0 2.75 "/>
</clipPath>
<clipPath id="clip34">
  <path d="M 2.023438 0 L 21.976562 0 C 23.09375 0 24 0.90625 24 2.023438 L 24 21.976562 C 24 23.09375 23.09375 24 21.976562 24 L 2.023438 24 C 0.90625 24 0 23.09375 0 21.976562 L 0 2.023438 C 0 0.90625 0.90625 0 2.023438 0 Z M 2.023438 0 "/>
</clipPath>
<clipPath id="clip35">
  <path d="M 15 4.5 L 21.25 4.5 L 21.25 10.75 L 15 10.75 Z M 15 4.5 "/>
</clipPath>
<clipPath id="clip36">
  <path d="M 2.023438 0 L 21.976562 0 C 23.09375 0 24 0.90625 24 2.023438 L 24 21.976562 C 24 23.09375 23.09375 24 21.976562 24 L 2.023438 24 C 0.90625 24 0 23.09375 0 21.976562 L 0 2.023438 C 0 0.90625 0.90625 0 2.023438 0 Z M 2.023438 0 "/>
</clipPath>
<clipPath id="clip37">
  <path d="M 15.75 0 L 21.75 0 L 21.75 5.5 L 15.75 5.5 Z M 15.75 0 "/>
</clipPath>
<clipPath id="clip38">
  <path d="M 2.023438 0 L 21.976562 0 C 23.09375 0 24 0.90625 24 2.023438 L 24 21.976562 C 24 23.09375 23.09375 24 21.976562 24 L 2.023438 24 C 0.90625 24 0 23.09375 0 21.976562 L 0 2.023438 C 0 0.90625 0.90625 0 2.023438 0 Z M 2.023438 0 "/>
</clipPath>
<clipPath id="clip39">
  <path d="M 0 13.25 L 4 13.25 L 4 19.5 L 0 19.5 Z M 0 13.25 "/>
</clipPath>
<clipPath id="clip40">
  <path d="M 2.023438 0 L 21.976562 0 C 23.09375 0 24 0.90625 24 2.023438 L 24 21.976562 C 24 23.09375 23.09375 24 21.976562 24 L 2.023438 24 C 0.90625 24 0 23.09375 0 21.976562 L 0 2.023438 C 0 0.90625 0.90625 0 2.023438 0 Z M 2.023438 0 "/>
</clipPath>
<clipPath id="clip41">
  <path d="M 14.5 10 L 20.5 10 L 20.5 16 L 14.5 16 Z M 14.5 10 "/>
</clipPath>
<clipPath id="clip42">
  <path d="M 2.023438 0 L 21.976562 0 C 23.09375 0 24 0.90625 24 2.023438 L 24 21.976562 C 24 23.09375 23.09375 24 21.976562 24 L 2.023438 24 C 0.90625 24 0 23.09375 0 21.976562 L 0 2.023438 C 0 0.90625 0.90625 0 2.023438 0 Z M 2.023438 0 "/>
</clipPath>
<clipPath id="clip43">
  <path d="M 3.25 14 L 9.25 14 L 9.25 20.25 L 3.25 20.25 Z M 3.25 14 "/>
</clipPath>
<clipPath id="clip44">
  <path d="M 2.023438 0 L 21.976562 0 C 23.09375 0 24 0.90625 24 2.023438 L 24 21.976562 C 24 23.09375 23.09375 24 21.976562 24 L 2.023438 24 C 0.90625 24 0 23.09375 0 21.976562 L 0 2.023438 C 0 0.90625 0.90625 0 2.023438 0 Z M 2.023438 0 "/>
</clipPath>
<clipPath id="clip45">
  <path d="M 13.75 15.25 L 20 15.25 L 20 21.25 L 13.75 21.25 Z M 13.75 15.25 "/>
</clipPath>
<clipPath id="clip46">
  <path d="M 2.023438 0 L 21.976562 0 C 23.09375 0 24 0.90625 24 2.023438 L 24 21.976562 C 24 23.09375 23.09375 24 21.976562 24 L 2.023438 24 C 0.90625 24 0 23.09375 0 21.976562 L 0 2.023438 C 0 0.90625 0.90625 0 2.023438 0 Z M 2.023438 0 "/>
</clipPath>
<clipPath id="clip47">
  <path d="M 8.5 14.75 L 14.75 14.75 L 14.75 20.75 L 8.5 20.75 Z M 8.5 14.75 "/>
</clipPath>
<clipPath id="clip48">
  <path d="M 2.023438 0 L 21.976562 0 C 23.09375 0 24 0.90625 24 2.023438 L 24 21.976562 C 24 23.09375 23.09375 24 21.976562 24 L 2.023438 24 C 0.90625 24 0 23.09375 0 21.976562 L 0 2.023438 C 0 0.90625 0.90625 0 2.023438 0 Z M 2.023438 0 "/>
</clipPath>
<clipPath id="clip49">
  <path d="M 20.25 5.25 L 24 5.25 L 24 11.5 L 20.25 11.5 Z M 20.25 5.25 "/>
</clipPath>
<clipPath id="clip50">
  <path d="M 2.023438 0 L 21.976562 0 C 23.09375 0 24 0.90625 24 2.023438 L 24 21.976562 C 24 23.09375 23.09375 24 21.976562 24 L 2.023438 24 C 0.90625 24 0 23.09375 0 21.976562 L 0 2.023438 C 0 0.90625 0.90625 0 2.023438 0 Z M 2.023438 0 "/>
</clipPath>
<clipPath id="clip51">
  <path d="M 21 0 L 24 0 L 24 6 L 21 6 Z M 21 0 "/>
</clipPath>
<clipPath id="clip52">
  <path d="M 2.023438 0 L 21.976562 0 C 23.09375 0 24 0.90625 24 2.023438 L 24 21.976562 C 24 23.09375 23.09375 24 21.976562 24 L 2.023438 24 C 0.90625 24 0 23.09375 0 21.976562 L 0 2.023438 C 0 0.90625 0.90625 0 2.023438 0 Z M 2.023438 0 "/>
</clipPath>
</defs>
<g id="surface1">
<g clip-path="url(#clip1)" clip-rule="nonzero">
<g clip-path="url(#clip2)" clip-rule="nonzero">
<path style=" stroke:none;fill-rule:nonzero;fill:rgb(53.333333%,32.941176%,61.960784%);fill-opacity:1;" d="M 5.152344 3.464844 L 5.777344 -1.839844 L 11.078125 -1.214844 L 10.457031 4.085938 Z M 5.152344 3.464844 "/>
</g>
</g>
<g clip-path="url(#clip3)" clip-rule="nonzero">
<g clip-path="url(#clip4)" clip-rule="nonzero">
<path style=" stroke:none;fill-rule:nonzero;fill:rgb(84.313725%,21.176471%,57.647059%);fill-opacity:1;" d="M -5.453125 2.21875 L -4.832031 -3.085938 L 0.472656 -2.460938 L -0.148438 2.84375 Z M -5.453125 2.21875 "/>
</g>
</g>
<g clip-path="url(#clip5)" clip-rule="nonzero">
<g clip-path="url(#clip6)" clip-rule="nonzero">
<path style=" stroke:none;fill-rule:nonzero;fill:rgb(47.843137%,33.333333%,60.784314%);fill-opacity:1;" d="M -0.152344 2.84375 L 0.46875 -2.460938 L 5.773438 -1.839844 L 5.152344 3.464844 Z M -0.152344 2.84375 "/>
</g>
</g>
<g clip-path="url(#clip7)" clip-rule="nonzero">
<g clip-path="url(#clip8)" clip-rule="nonzero">
<path style=" stroke:none;fill-rule:nonzero;fill:rgb(74.509804%,84.705882%,18.431373%);fill-opacity:1;" d="M 13.25 26.046875 L 13.890625 20.757812 L 19.175781 21.398438 L 18.535156 26.6875 Z M 13.25 26.046875 "/>
</g>
</g>
<g clip-path="url(#clip9)" clip-rule="nonzero">
<g clip-path="url(#clip10)" clip-rule="nonzero">
<path style=" stroke:none;fill-rule:nonzero;fill:rgb(93.333333%,90.588235%,15.294118%);fill-opacity:1;" d="M 18.574219 26.546875 L 19.195312 21.246094 L 24.5 21.867188 L 23.875 27.171875 Z M 18.574219 26.546875 "/>
</g>
</g>
<g clip-path="url(#clip11)" clip-rule="nonzero">
<g clip-path="url(#clip12)" clip-rule="nonzero">
<path style=" stroke:none;fill-rule:nonzero;fill:rgb(74.509804%,84.705882%,18.431373%);fill-opacity:1;" d="M 19.191406 21.246094 L 19.8125 15.941406 L 25.117188 16.566406 L 24.496094 21.867188 Z M 19.191406 21.246094 "/>
</g>
</g>
<g clip-path="url(#clip13)" clip-rule="nonzero">
<g clip-path="url(#clip14)" clip-rule="nonzero">
<path style=" stroke:none;fill-rule:nonzero;fill:rgb(32.54902%,74.901961%,62.352941%);fill-opacity:1;" d="M 2.664062 24.683594 L 3.285156 19.382812 L 8.589844 20.003906 L 7.96875 25.308594 Z M 2.664062 24.683594 "/>
</g>
</g>
<g clip-path="url(#clip15)" clip-rule="nonzero">
<g clip-path="url(#clip16)" clip-rule="nonzero">
<path style=" stroke:none;fill-rule:nonzero;fill:rgb(50.196078%,76.470588%,25.882353%);fill-opacity:1;" d="M 7.964844 25.3125 L 8.585938 20.007812 L 13.890625 20.628906 L 13.269531 25.933594 Z M 7.964844 25.3125 "/>
</g>
</g>
<g clip-path="url(#clip17)" clip-rule="nonzero">
<g clip-path="url(#clip18)" clip-rule="nonzero">
<path style=" stroke:none;fill-rule:nonzero;fill:rgb(26.27451%,76.078431%,81.960784%);fill-opacity:1;" d="M -2.640625 24.0625 L -2.015625 18.757812 L 3.289062 19.382812 L 2.664062 24.683594 Z M -2.640625 24.0625 "/>
</g>
</g>
<g clip-path="url(#clip19)" clip-rule="nonzero">
<g clip-path="url(#clip20)" clip-rule="nonzero">
<path style=" stroke:none;fill-rule:nonzero;fill:rgb(27.843137%,52.941176%,78.039216%);fill-opacity:1;" d="M 10.460938 4.085938 L 11.082031 -1.21875 L 16.386719 -0.59375 L 15.761719 4.710938 Z M 10.460938 4.085938 "/>
</g>
</g>
<g clip-path="url(#clip21)" clip-rule="nonzero">
<g clip-path="url(#clip22)" clip-rule="nonzero">
<path style=" stroke:none;fill-rule:nonzero;fill:rgb(27.843137%,52.941176%,78.039216%);fill-opacity:1;" d="M 4.53125 8.769531 L 5.152344 3.46875 L 10.457031 4.089844 L 9.835938 9.394531 Z M 4.53125 8.769531 "/>
</g>
</g>
<g clip-path="url(#clip23)" clip-rule="nonzero">
<g clip-path="url(#clip24)" clip-rule="nonzero">
<path style=" stroke:none;fill-rule:nonzero;fill:rgb(13.72549%,65.098039%,87.058824%);fill-opacity:1;" d="M 9.835938 9.398438 L 10.460938 4.09375 L 15.761719 4.71875 L 15.140625 10.019531 Z M 9.835938 9.398438 "/>
</g>
</g>
<g clip-path="url(#clip25)" clip-rule="nonzero">
<g clip-path="url(#clip26)" clip-rule="nonzero">
<path style=" stroke:none;fill-rule:nonzero;fill:rgb(21.176471%,35.686275%,66.27451%);fill-opacity:1;" d="M -1.394531 13.449219 L -0.769531 8.148438 L 4.53125 8.769531 L 3.910156 14.074219 Z M -1.394531 13.449219 "/>
</g>
</g>
<g clip-path="url(#clip27)" clip-rule="nonzero">
<g clip-path="url(#clip28)" clip-rule="nonzero">
<path style=" stroke:none;fill-rule:nonzero;fill:rgb(50.196078%,76.470588%,25.882353%);fill-opacity:1;" d="M 19.820312 15.941406 L 20.441406 10.636719 L 25.742188 11.257812 L 25.121094 16.5625 Z M 19.820312 15.941406 "/>
</g>
</g>
<g clip-path="url(#clip29)" clip-rule="nonzero">
<g clip-path="url(#clip30)" clip-rule="nonzero">
<path style=" stroke:none;fill-rule:nonzero;fill:rgb(18.823529%,41.568627%,70.196078%);fill-opacity:1;" d="M 3.90625 14.078125 L 4.53125 8.773438 L 9.835938 9.394531 L 9.210938 14.699219 Z M 3.90625 14.078125 "/>
</g>
</g>
<g clip-path="url(#clip31)" clip-rule="nonzero">
<g clip-path="url(#clip32)" clip-rule="nonzero">
<path style=" stroke:none;fill-rule:nonzero;fill:rgb(14.509804%,72.54902%,86.666667%);fill-opacity:1;" d="M 9.210938 14.699219 L 9.832031 9.394531 L 15.136719 10.019531 L 14.515625 15.320312 Z M 9.210938 14.699219 "/>
</g>
</g>
<g clip-path="url(#clip33)" clip-rule="nonzero">
<g clip-path="url(#clip34)" clip-rule="nonzero">
<path style=" stroke:none;fill-rule:nonzero;fill:rgb(65.098039%,32.941176%,62.745098%);fill-opacity:1;" d="M -0.773438 8.144531 L -0.148438 2.839844 L 5.15625 3.460938 L 4.53125 8.765625 Z M -0.773438 8.144531 "/>
</g>
</g>
<g clip-path="url(#clip35)" clip-rule="nonzero">
<g clip-path="url(#clip36)" clip-rule="nonzero">
<path style=" stroke:none;fill-rule:nonzero;fill:rgb(32.156863%,75.294118%,70.196078%);fill-opacity:1;" d="M 15.140625 10.015625 L 15.761719 4.710938 L 21.066406 5.335938 L 20.441406 10.640625 Z M 15.140625 10.015625 "/>
</g>
</g>
<g clip-path="url(#clip37)" clip-rule="nonzero">
<g clip-path="url(#clip38)" clip-rule="nonzero">
<path style=" stroke:none;fill-rule:nonzero;fill:rgb(14.509804%,72.54902%,86.666667%);fill-opacity:1;" d="M 15.761719 4.710938 L 16.382812 -0.59375 L 21.6875 0.03125 L 21.0625 5.332031 Z M 15.761719 4.710938 "/>
</g>
</g>
<g clip-path="url(#clip39)" clip-rule="nonzero">
<g clip-path="url(#clip40)" clip-rule="nonzero">
<path style=" stroke:none;fill-rule:nonzero;fill:rgb(27.843137%,52.941176%,78.039216%);fill-opacity:1;" d="M -2.019531 18.757812 L -1.398438 13.453125 L 3.90625 14.074219 L 3.28125 19.378906 Z M -2.019531 18.757812 "/>
</g>
</g>
<g clip-path="url(#clip41)" clip-rule="nonzero">
<g clip-path="url(#clip42)" clip-rule="nonzero">
<path style=" stroke:none;fill-rule:nonzero;fill:rgb(32.54902%,74.901961%,62.352941%);fill-opacity:1;" d="M 14.511719 15.316406 L 15.136719 10.015625 L 20.4375 10.636719 L 19.816406 15.941406 Z M 14.511719 15.316406 "/>
</g>
</g>
<g clip-path="url(#clip43)" clip-rule="nonzero">
<g clip-path="url(#clip44)" clip-rule="nonzero">
<path style=" stroke:none;fill-rule:nonzero;fill:rgb(13.72549%,65.098039%,87.058824%);fill-opacity:1;" d="M 3.28125 19.382812 L 3.90625 14.078125 L 9.207031 14.703125 L 8.585938 20.003906 Z M 3.28125 19.382812 "/>
</g>
</g>
<g clip-path="url(#clip45)" clip-rule="nonzero">
<g clip-path="url(#clip46)" clip-rule="nonzero">
<path style=" stroke:none;fill-rule:nonzero;fill:rgb(34.117647%,72.941176%,46.666667%);fill-opacity:1;" d="M 13.890625 20.625 L 14.511719 15.324219 L 19.816406 15.945312 L 19.191406 21.25 Z M 13.890625 20.625 "/>
</g>
</g>
<g clip-path="url(#clip47)" clip-rule="nonzero">
<g clip-path="url(#clip48)" clip-rule="nonzero">
<path style=" stroke:none;fill-rule:nonzero;fill:rgb(32.156863%,75.294118%,70.196078%);fill-opacity:1;" d="M 8.574219 20.082031 L 9.214844 14.796875 L 14.5 15.4375 L 13.859375 20.722656 Z M 8.574219 20.082031 "/>
</g>
</g>
<g clip-path="url(#clip49)" clip-rule="nonzero">
<g clip-path="url(#clip50)" clip-rule="nonzero">
<path style=" stroke:none;fill-rule:nonzero;fill:rgb(32.54902%,74.901961%,62.352941%);fill-opacity:1;" d="M 20.441406 10.640625 L 21.0625 5.335938 L 26.367188 5.957031 L 25.742188 11.261719 Z M 20.441406 10.640625 "/>
</g>
</g>
<g clip-path="url(#clip51)" clip-rule="nonzero">
<g clip-path="url(#clip52)" clip-rule="nonzero">
<path style=" stroke:none;fill-rule:nonzero;fill:rgb(26.27451%,76.078431%,81.960784%);fill-opacity:1;" d="M 21.0625 5.335938 L 21.6875 0.03125 L 26.992188 0.65625 L 26.367188 5.960938 Z M 21.0625 5.335938 "/>
</g>
</g>
<path style=" stroke:none;fill-rule:nonzero;fill:rgb(100%,100%,100%);fill-opacity:1;" d="M 14.960938 11.507812 L 12.335938 7.070312 C 12.261719 6.949219 12.132812 6.875 11.992188 6.875 C 11.851562 6.875 11.71875 6.949219 11.648438 7.070312 L 9.023438 11.507812 C 7.996094 13.003906 8.246094 15.027344 9.601562 16.226562 C 10.960938 17.429688 13 17.429688 14.359375 16.226562 C 15.71875 15.027344 15.964844 13.003906 14.941406 11.507812 Z M 14.960938 11.507812 "/>
</g>
</svg>
