
<svg xmlns="http://www.w3.org/2000/svg" xmlns:xlink="http://www.w3.org/1999/xlink" width="24px" height="24px" viewBox="0 0 24 24" version="1.1">
<g id="surface1">
<path style=" stroke:none;fill-rule:nonzero;fill:rgb(79.607843%,79.607843%,79.607843%);fill-opacity:1;" d="M 24 12 L 24 2.023438 C 24 0.90625 23.09375 0 21.976562 0 L 12 0 L 12 12 Z M 24 12 "/>
<path style=" stroke:none;fill-rule:nonzero;fill:rgb(49.411765%,34.117647%,76.862745%);fill-opacity:1;" d="M 15.578125 5.789062 C 15.476562 5.269531 15.078125 4.855469 14.5625 4.730469 C 14.046875 4.605469 13.503906 4.792969 13.171875 5.210938 C 13.054688 5.367188 12.867188 5.464844 12.667969 5.46875 L 12.5 5.46875 C 12.222656 5.464844 12 5.242188 12 4.964844 L 12 0 L 2.023438 0 C 0.90625 0 0 0.90625 0 2.023438 L 0 12 L 12 12 L 12 7.125 C 12 6.851562 12.222656 6.625 12.5 6.625 L 12.667969 6.625 C 12.867188 6.628906 13.054688 6.726562 13.171875 6.882812 C 13.5625 7.386719 14.25 7.550781 14.824219 7.28125 C 15.398438 7.011719 15.710938 6.382812 15.578125 5.757812 Z M 15.578125 5.789062 "/>
<path style=" stroke:none;fill-rule:nonzero;fill:rgb(91.764706%,92.156863%,93.72549%);fill-opacity:1;" d="M 6.421875 11.625 L 6.421875 11.125 C 6.421875 10.925781 6.519531 10.742188 6.679688 10.621094 C 7.179688 10.230469 7.34375 9.546875 7.074219 8.96875 C 6.804688 8.394531 6.171875 8.082031 5.554688 8.214844 C 5.03125 8.320312 4.617188 8.714844 4.492188 9.234375 C 4.367188 9.75 4.554688 10.289062 4.972656 10.621094 C 5.140625 10.734375 5.242188 10.921875 5.25 11.125 L 5.25 11.570312 C 5.265625 11.679688 5.234375 11.789062 5.160156 11.871094 C 5.089844 11.953125 4.984375 12 4.875 12 L 0 12 L 0 21.976562 C 0 23.09375 0.90625 24 2.023438 24 L 12 24 L 12 12 L 6.785156 12 C 6.582031 11.992188 6.421875 11.828125 6.421875 11.625 Z M 6.421875 11.625 "/>
<path style=" stroke:none;fill-rule:nonzero;fill:rgb(92.54902%,25.098039%,47.843137%);fill-opacity:1;" d="M 18.664062 11.519531 L 18.664062 11.09375 C 18.667969 10.890625 18.765625 10.703125 18.925781 10.585938 C 19.425781 10.195312 19.589844 9.511719 19.320312 8.9375 C 19.054688 8.359375 18.421875 8.046875 17.800781 8.183594 C 17.285156 8.292969 16.878906 8.695312 16.761719 9.210938 C 16.640625 9.722656 16.832031 10.261719 17.25 10.585938 C 17.410156 10.707031 17.507812 10.890625 17.507812 11.09375 L 17.507812 11.46875 C 17.519531 11.605469 17.472656 11.742188 17.378906 11.84375 C 17.285156 11.945312 17.152344 12 17.015625 12 L 12 12 L 12 16.875 C 12 17.140625 11.785156 17.355469 11.519531 17.355469 L 11.117188 17.355469 C 10.914062 17.351562 10.726562 17.253906 10.605469 17.09375 C 10.234375 16.628906 9.601562 16.460938 9.046875 16.675781 C 8.492188 16.890625 8.144531 17.445312 8.183594 18.035156 C 8.226562 18.628906 8.648438 19.128906 9.226562 19.265625 C 9.742188 19.386719 10.28125 19.199219 10.609375 18.785156 C 10.726562 18.625 10.914062 18.527344 11.117188 18.523438 L 11.472656 18.523438 C 11.601562 18.515625 11.734375 18.5625 11.835938 18.648438 C 11.933594 18.734375 11.992188 18.859375 12 18.992188 L 12 24 L 21.976562 24 C 23.09375 24 24 23.09375 24 21.976562 L 24 12 L 19.125 12 C 18.867188 11.992188 18.664062 11.777344 18.664062 11.519531 Z M 18.664062 11.519531 "/>
</g>
</svg>
