
<svg xmlns="http://www.w3.org/2000/svg" xmlns:xlink="http://www.w3.org/1999/xlink" width="24px" height="24px" viewBox="0 0 24 24" version="1.1">
<g id="surface1">
<path style=" stroke:none;fill-rule:nonzero;fill:rgb(92.54902%,25.098039%,47.843137%);fill-opacity:1;" d="M 2.023438 0 L 21.976562 0 C 23.09375 0 24 0.90625 24 2.023438 L 24 21.976562 C 24 23.09375 23.09375 24 21.976562 24 L 2.023438 24 C 0.90625 24 0 23.09375 0 21.976562 L 0 2.023438 C 0 0.90625 0.90625 0 2.023438 0 Z M 2.023438 0 "/>
<path style=" stroke:none;fill-rule:nonzero;fill:rgb(100%,100%,100%);fill-opacity:1;" d="M 12.046875 6.035156 C 12.03125 6.015625 12.019531 5.996094 12.007812 5.972656 L 12.007812 5.941406 L 12.007812 5.960938 L 12.007812 5.941406 L 12.007812 5.972656 C 11.878906 6.257812 10.132812 8.148438 6.539062 8.535156 C 6.484375 9.640625 6.625 10.742188 6.949219 11.800781 L 12.046875 11.800781 Z M 12.046875 6.035156 "/>
<path style=" stroke:none;fill-rule:nonzero;fill:rgb(16.078431%,71.372549%,96.470588%);fill-opacity:1;" d="M 12.046875 18.03125 C 14.476562 16.699219 16.28125 14.460938 17.066406 11.800781 L 12.046875 11.800781 Z M 12.046875 18.03125 "/>
<path style=" stroke:none;fill-rule:nonzero;fill:rgb(100%,100%,100%);fill-opacity:1;" d="M 12 18.4375 C 11.933594 18.4375 11.867188 18.421875 11.808594 18.386719 C 11.789062 18.371094 11.765625 18.359375 11.75 18.339844 C 9.3125 16.992188 7.484375 14.761719 6.632812 12.109375 C 6.25 10.945312 6.085938 9.722656 6.148438 8.5 C 6.167969 8.324219 6.304688 8.183594 6.484375 8.164062 C 9.6875 7.820312 11.359375 6.242188 11.625 5.851562 C 11.65625 5.707031 11.773438 5.597656 11.921875 5.570312 C 11.972656 5.558594 12.023438 5.558594 12.074219 5.570312 C 12.21875 5.59375 12.332031 5.699219 12.371094 5.839844 C 13.742188 7.210938 15.566406 8.03125 17.5 8.15625 C 17.6875 8.167969 17.835938 8.3125 17.851562 8.496094 C 17.914062 9.71875 17.75 10.941406 17.367188 12.105469 C 16.519531 14.757812 14.691406 16.988281 12.257812 18.339844 C 12.242188 18.359375 12.21875 18.375 12.195312 18.386719 C 12.136719 18.421875 12.070312 18.4375 12 18.4375 Z M 6.882812 8.871094 C 6.890625 12.5 8.84375 15.839844 12 17.625 C 14.210938 16.375 15.867188 14.335938 16.640625 11.914062 C 16.953125 10.933594 17.113281 9.914062 17.117188 8.882812 C 15.203125 8.683594 13.40625 7.867188 12 6.554688 C 11.324219 7.277344 9.609375 8.5 6.882812 8.871094 Z M 6.882812 8.871094 "/>
</g>
</svg>
