
<svg xmlns="http://www.w3.org/2000/svg" xmlns:xlink="http://www.w3.org/1999/xlink" width="24px" height="24px" viewBox="0 0 24 24" version="1.1">
<g id="surface1">
<path style=" stroke:none;fill-rule:nonzero;fill:rgb(92.54902%,25.098039%,47.843137%);fill-opacity:1;" d="M 2.023438 0 L 21.976562 0 C 23.09375 0 24 0.90625 24 2.023438 L 24 21.976562 C 24 23.09375 23.09375 24 21.976562 24 L 2.023438 24 C 0.90625 24 0 23.09375 0 21.976562 L 0 2.023438 C 0 0.90625 0.90625 0 2.023438 0 Z M 2.023438 0 "/>
<path style=" stroke:none;fill-rule:nonzero;fill:rgb(16.078431%,71.372549%,96.470588%);fill-opacity:1;" d="M 7.875 16.679688 L 8.785156 15.246094 L 9.011719 14.894531 L 13.660156 14.894531 C 13.882812 14.167969 14.550781 13.671875 15.3125 13.671875 L 15.375 13.671875 C 15.320312 13.632812 15.265625 13.59375 15.207031 13.558594 L 13.011719 12.320312 C 12.742188 12.171875 12.578125 11.882812 12.582031 11.570312 L 12.582031 10.996094 C 13.285156 10.53125 13.707031 9.742188 13.707031 8.898438 L 13.707031 8.117188 C 13.742188 7.195312 13.273438 6.328125 12.480469 5.859375 C 11.6875 5.386719 10.703125 5.386719 9.910156 5.859375 C 9.121094 6.328125 8.648438 7.195312 8.683594 8.117188 L 8.683594 8.898438 C 8.683594 9.742188 9.105469 10.53125 9.808594 10.996094 L 9.808594 11.585938 C 9.8125 11.894531 9.648438 12.179688 9.378906 12.335938 L 7.1875 13.570312 C 6.261719 14.097656 5.6875 15.082031 5.6875 16.148438 L 5.6875 17.273438 L 7.5625 17.273438 L 7.507812 17.222656 Z M 7.875 16.679688 "/>
<path style=" stroke:none;fill-rule:nonzero;fill:rgb(89.803922%,89.803922%,89.803922%);fill-opacity:1;" d="M 14.367188 16.300781 L 9.015625 16.300781 L 8.960938 16.371094 L 8.730469 16.734375 L 14.367188 16.734375 Z M 14.367188 16.300781 "/>
<path style=" stroke:none;fill-rule:nonzero;fill:rgb(100%,100%,100%);fill-opacity:1;" d="M 18.109375 14.433594 L 15.3125 14.433594 C 14.78125 14.433594 14.347656 14.867188 14.347656 15.398438 L 14.347656 15.65625 L 9.421875 15.65625 L 8.960938 16.371094 L 9.011719 16.300781 L 14.367188 16.300781 L 14.367188 16.734375 L 8.742188 16.734375 L 8.515625 17.089844 L 8.707031 17.265625 L 9.429688 17.933594 L 14.347656 17.933594 L 14.347656 18.191406 C 14.347656 18.726562 14.777344 19.15625 15.3125 19.160156 L 18.109375 19.160156 C 18.640625 19.15625 19.070312 18.726562 19.070312 18.191406 L 19.070312 15.398438 C 19.070312 14.867188 18.640625 14.433594 18.109375 14.433594 Z M 18.175781 17.324219 C 18.171875 17.609375 17.945312 17.835938 17.664062 17.835938 C 17.59375 17.835938 17.523438 17.820312 17.460938 17.789062 C 17.273438 17.710938 17.152344 17.527344 17.152344 17.324219 L 17.152344 16.265625 C 17.15625 16.074219 17.265625 15.898438 17.4375 15.8125 C 17.507812 15.777344 17.585938 15.757812 17.664062 15.753906 C 17.945312 15.757812 18.171875 15.984375 18.175781 16.265625 Z M 18.175781 17.324219 "/>
<path style=" stroke:none;fill-rule:nonzero;fill:rgb(100%,100%,100%);fill-opacity:1;" d="M 8.710938 16.734375 L 8.730469 16.734375 L 8.960938 16.371094 Z M 8.710938 16.734375 "/>
</g>
</svg>
