
<svg xmlns="http://www.w3.org/2000/svg" xmlns:xlink="http://www.w3.org/1999/xlink" width="24px" height="24px" viewBox="0 0 24 24" version="1.1">
<g id="surface1">
<path style=" stroke:none;fill-rule:nonzero;fill:rgb(36.078431%,41.960784%,75.294118%);fill-opacity:1;" d="M 2.023438 0 L 21.976562 0 C 23.09375 0 24 0.90625 24 2.023438 L 24 21.976562 C 24 23.09375 23.09375 24 21.976562 24 L 2.023438 24 C 0.90625 24 0 23.09375 0 21.976562 L 0 2.023438 C 0 0.90625 0.90625 0 2.023438 0 Z M 2.023438 0 "/>
<path style=" stroke:none;fill-rule:nonzero;fill:rgb(100%,100%,100%);fill-opacity:1;" d="M 19.621094 9.472656 L 4.378906 9.472656 L 6.722656 6.683594 C 6.835938 6.550781 7 6.476562 7.171875 6.476562 L 16.828125 6.476562 C 17 6.476562 17.164062 6.550781 17.277344 6.683594 Z M 19.621094 9.472656 "/>
<path style=" stroke:none;fill-rule:nonzero;fill:rgb(89.803922%,89.803922%,89.803922%);fill-opacity:1;" d="M 4.378906 9.472656 L 19.621094 9.472656 L 19.621094 15.636719 C 19.621094 15.960938 19.359375 16.21875 19.039062 16.21875 L 4.960938 16.21875 C 4.640625 16.21875 4.378906 15.960938 4.378906 15.636719 Z M 4.378906 9.472656 "/>
<path style=" stroke:none;fill-rule:nonzero;fill:rgb(16.078431%,71.372549%,96.470588%);fill-opacity:1;" d="M 17.917969 19.246094 L 6.082031 19.246094 C 5.917969 19.242188 5.765625 19.164062 5.671875 19.03125 C 5.574219 18.898438 5.550781 18.726562 5.601562 18.570312 L 7.292969 13.722656 L 16.707031 13.722656 L 18.398438 18.570312 C 18.453125 18.726562 18.429688 18.898438 18.332031 19.03125 C 18.238281 19.164062 18.082031 19.246094 17.917969 19.246094 Z M 17.917969 19.246094 "/>
<path style=" stroke:none;fill-rule:nonzero;fill:rgb(16.078431%,71.372549%,96.470588%);fill-opacity:1;" d="M 7.292969 6.476562 L 16.707031 6.476562 L 16.707031 10.585938 L 7.292969 10.585938 Z M 7.292969 6.476562 "/>
<path style=" stroke:none;fill-rule:nonzero;fill:rgb(100%,100%,100%);fill-opacity:1;" d="M 16.988281 18.023438 L 7.011719 18.023438 L 7.960938 14.414062 L 16.039062 14.414062 Z M 16.988281 18.023438 "/>
<path style=" stroke:none;fill-rule:nonzero;fill:rgb(79.607843%,79.607843%,79.607843%);fill-opacity:1;" d="M 4.378906 11.972656 L 19.621094 11.972656 L 19.621094 12.640625 L 4.378906 12.640625 Z M 4.378906 11.972656 "/>
<path style=" stroke:none;fill-rule:nonzero;fill:rgb(92.54902%,25.098039%,47.843137%);fill-opacity:1;" d="M 9.0625 15.03125 L 14.941406 15.03125 C 15.140625 15.03125 15.308594 15.195312 15.308594 15.398438 C 15.308594 15.601562 15.140625 15.765625 14.941406 15.765625 L 9.0625 15.765625 C 8.859375 15.765625 8.695312 15.601562 8.695312 15.398438 C 8.695312 15.195312 8.859375 15.03125 9.0625 15.03125 Z M 9.0625 15.03125 "/>
<path style=" stroke:none;fill-rule:nonzero;fill:rgb(92.54902%,25.098039%,47.843137%);fill-opacity:1;" d="M 8.597656 16.328125 L 15.40625 16.328125 C 15.609375 16.328125 15.773438 16.492188 15.773438 16.695312 C 15.773438 16.898438 15.609375 17.0625 15.40625 17.0625 L 8.597656 17.0625 C 8.394531 17.0625 8.230469 16.898438 8.230469 16.695312 C 8.230469 16.492188 8.394531 16.328125 8.597656 16.328125 Z M 8.597656 16.328125 "/>
<path style=" stroke:none;fill-rule:nonzero;fill:rgb(92.54902%,25.098039%,47.843137%);fill-opacity:1;" d="M 18.628906 10.75 C 18.628906 11.035156 18.398438 11.265625 18.117188 11.265625 C 17.832031 11.265625 17.601562 11.035156 17.601562 10.75 C 17.601562 10.46875 17.832031 10.238281 18.117188 10.238281 C 18.398438 10.238281 18.628906 10.46875 18.628906 10.75 Z M 18.628906 10.75 "/>
<path style=" stroke:none;fill-rule:nonzero;fill:rgb(100%,100%,100%);fill-opacity:1;" d="M 14.359375 4.753906 L 7.960938 4.753906 L 7.960938 8.378906 L 16.039062 8.378906 L 16.039062 6.300781 Z M 14.359375 4.753906 "/>
<path style=" stroke:none;fill-rule:nonzero;fill:rgb(79.607843%,79.607843%,79.607843%);fill-opacity:1;" d="M 14.359375 6.300781 L 16.039062 6.300781 L 14.359375 4.753906 Z M 14.359375 6.300781 "/>
</g>
</svg>
