
<svg xmlns="http://www.w3.org/2000/svg" xmlns:xlink="http://www.w3.org/1999/xlink" width="24px" height="24px" viewBox="0 0 24 24" version="1.1">
<g id="surface1">
<path style=" stroke:none;fill-rule:nonzero;fill:rgb(92.54902%,25.098039%,47.843137%);fill-opacity:1;" d="M 2.023438 0 L 21.976562 0 C 23.09375 0 24 0.90625 24 2.023438 L 24 21.976562 C 24 23.09375 23.09375 24 21.976562 24 L 2.023438 24 C 0.90625 24 0 23.09375 0 21.976562 L 0 2.023438 C 0 0.90625 0.90625 0 2.023438 0 Z M 2.023438 0 "/>
<path style=" stroke:none;fill-rule:nonzero;fill:rgb(100%,100%,100%);fill-opacity:1;" d="M 12.0625 4.515625 L 8.34375 6.507812 L 12.0625 8.503906 L 15.785156 6.507812 Z M 12.0625 4.515625 "/>
<path style=" stroke:none;fill-rule:nonzero;fill:rgb(79.607843%,79.607843%,79.607843%);fill-opacity:1;" d="M 12.0625 12.484375 L 8.34375 10.488281 L 8.34375 6.507812 L 12.0625 8.503906 Z M 12.0625 12.484375 "/>
<path style=" stroke:none;fill-rule:nonzero;fill:rgb(16.078431%,71.372549%,96.470588%);fill-opacity:1;" d="M 12.0625 8.503906 L 15.785156 6.507812 L 15.785156 10.488281 L 12.0625 12.484375 Z M 12.0625 8.503906 "/>
<path style=" stroke:none;fill-rule:nonzero;fill:rgb(100%,100%,100%);fill-opacity:1;" d="M 8.289062 11.515625 L 4.570312 13.511719 L 8.289062 15.507812 L 12.011719 13.511719 Z M 8.289062 11.515625 "/>
<path style=" stroke:none;fill-rule:nonzero;fill:rgb(79.607843%,79.607843%,79.607843%);fill-opacity:1;" d="M 8.289062 19.480469 L 4.570312 17.492188 L 4.570312 13.511719 L 8.289062 15.507812 Z M 8.289062 19.480469 "/>
<path style=" stroke:none;fill-rule:nonzero;fill:rgb(16.078431%,71.372549%,96.470588%);fill-opacity:1;" d="M 8.289062 15.507812 L 12.011719 13.511719 L 12.011719 17.492188 L 8.289062 19.480469 Z M 8.289062 15.507812 "/>
<path style=" stroke:none;fill-rule:nonzero;fill:rgb(100%,100%,100%);fill-opacity:1;" d="M 15.710938 11.515625 L 11.988281 13.511719 L 15.710938 15.507812 L 19.429688 13.511719 Z M 15.710938 11.515625 "/>
<path style=" stroke:none;fill-rule:nonzero;fill:rgb(79.607843%,79.607843%,79.607843%);fill-opacity:1;" d="M 15.710938 19.480469 L 11.988281 17.492188 L 11.988281 13.511719 L 15.710938 15.507812 Z M 15.710938 19.480469 "/>
<path style=" stroke:none;fill-rule:nonzero;fill:rgb(16.078431%,71.372549%,96.470588%);fill-opacity:1;" d="M 15.710938 15.507812 L 19.429688 13.511719 L 19.429688 17.492188 L 15.710938 19.480469 Z M 15.710938 15.507812 "/>
</g>
</svg>
