
<svg xmlns="http://www.w3.org/2000/svg" xmlns:xlink="http://www.w3.org/1999/xlink" width="24px" height="24px" viewBox="0 0 24 24" version="1.1">
<defs>
<linearGradient id="linear0" gradientUnits="userSpaceOnUse" x1="32.86" y1="52.99" x2="32.86" y2="54.61" gradientTransform="matrix(0.375,0,0,0.375,-0.045,0.01875)">
<stop offset="0" style="stop-color:rgb(86.27451%,87.058824%,88.627451%);stop-opacity:1;"/>
<stop offset="0.57" style="stop-color:rgb(87.058824%,87.843137%,89.411765%);stop-opacity:1;"/>
<stop offset="0.81" style="stop-color:rgb(89.803922%,90.588235%,91.764706%);stop-opacity:1;"/>
<stop offset="0.99" style="stop-color:rgb(94.901961%,95.294118%,95.686275%);stop-opacity:1;"/>
<stop offset="1" style="stop-color:rgb(95.294118%,95.686275%,96.078431%);stop-opacity:1;"/>
</linearGradient>
</defs>
<g id="surface1">
<path style=" stroke:none;fill-rule:nonzero;fill:rgb(49.411765%,34.117647%,76.862745%);fill-opacity:1;" d="M 2.023438 0 L 21.976562 0 C 23.09375 0 24 0.90625 24 2.023438 L 24 21.976562 C 24 23.09375 23.09375 24 21.976562 24 L 2.023438 24 C 0.90625 24 0 23.09375 0 21.976562 L 0 2.023438 C 0 0.90625 0.90625 0 2.023438 0 Z M 2.023438 0 "/>
<path style=" stroke:none;fill-rule:nonzero;fill:url(#linear0);" d="M 16.453125 20.398438 L 15.75 20.398438 C 15.445312 20.398438 15.199219 20.148438 15.199219 19.84375 L 15.199219 17.304688 L 9.375 17.304688 L 9.375 19.839844 C 9.375 20.144531 9.128906 20.390625 8.824219 20.390625 L 8.09375 20.390625 C 7.792969 20.390625 7.546875 20.636719 7.546875 20.9375 C 7.546875 21.234375 7.792969 21.480469 8.09375 21.480469 L 16.453125 21.480469 C 16.601562 21.480469 16.738281 21.421875 16.84375 21.320312 C 16.945312 21.21875 17.003906 21.082031 17.003906 20.9375 C 17 20.636719 16.753906 20.394531 16.453125 20.398438 Z M 16.453125 20.398438 "/>
<path style=" stroke:none;fill-rule:nonzero;fill:rgb(92.54902%,25.098039%,47.843137%);fill-opacity:1;" d="M 3.429688 4.445312 L 20.570312 4.445312 C 20.96875 4.445312 21.289062 4.769531 21.289062 5.164062 L 21.289062 16.480469 C 21.289062 16.875 20.96875 17.195312 20.570312 17.195312 L 3.429688 17.195312 C 3.03125 17.195312 2.710938 16.875 2.710938 16.480469 L 2.710938 5.164062 C 2.710938 4.769531 3.03125 4.445312 3.429688 4.445312 Z M 3.429688 4.445312 "/>
<path style=" stroke:none;fill-rule:nonzero;fill:rgb(100%,100%,100%);fill-opacity:1;" d="M 20.570312 17.527344 L 3.429688 17.527344 C 2.855469 17.527344 2.390625 17.070312 2.382812 16.5 L 2.382812 5.164062 C 2.386719 4.589844 2.851562 4.125 3.429688 4.125 L 20.570312 4.125 C 21.148438 4.125 21.617188 4.59375 21.617188 5.171875 L 21.617188 16.5 C 21.609375 17.070312 21.144531 17.527344 20.570312 17.527344 Z M 3.429688 4.777344 C 3.21875 4.777344 3.054688 4.945312 3.054688 5.152344 L 3.054688 16.5 C 3.054688 16.707031 3.21875 16.875 3.429688 16.875 L 20.570312 16.875 C 20.78125 16.875 20.945312 16.707031 20.945312 16.5 L 20.945312 5.164062 C 20.945312 4.957031 20.78125 4.789062 20.570312 4.789062 Z M 3.429688 4.777344 "/>
<path style=" stroke:none;fill-rule:nonzero;fill:rgb(100%,100%,100%);fill-opacity:1;" d="M 2.476562 15.75 L 21.492188 15.75 L 21.492188 16.574219 C 21.492188 17.03125 21.121094 17.398438 20.664062 17.398438 L 3.300781 17.398438 C 2.84375 17.398438 2.476562 17.03125 2.476562 16.574219 Z M 2.476562 15.75 "/>
<path style=" stroke:none;fill-rule:nonzero;fill:rgb(100%,100%,100%);fill-opacity:1;" d="M 14.304688 8.859375 L 14.179688 8.859375 L 14.179688 7.605469 C 14.175781 6.816406 13.539062 6.179688 12.75 6.179688 L 11.351562 6.179688 C 10.5625 6.179688 9.925781 6.816406 9.921875 7.605469 L 9.921875 8.859375 L 9.695312 8.859375 C 9.367188 8.859375 9.097656 9.125 9.097656 9.457031 L 9.097656 13.164062 C 9.097656 13.492188 9.367188 13.761719 9.695312 13.761719 L 14.304688 13.761719 C 14.632812 13.761719 14.902344 13.492188 14.902344 13.164062 L 14.902344 9.457031 C 14.902344 9.125 14.632812 8.859375 14.304688 8.859375 Z M 12.289062 11.28125 L 12.289062 12.507812 C 12.289062 12.664062 12.160156 12.796875 12 12.796875 C 11.839844 12.796875 11.710938 12.664062 11.710938 12.507812 L 11.710938 11.28125 C 11.367188 11.140625 11.171875 10.78125 11.242188 10.414062 C 11.3125 10.054688 11.628906 9.789062 12 9.789062 C 12.371094 9.789062 12.6875 10.054688 12.757812 10.414062 C 12.828125 10.78125 12.632812 11.140625 12.289062 11.28125 Z M 13.414062 8.859375 L 10.671875 8.859375 L 10.671875 7.605469 C 10.675781 7.230469 10.976562 6.929688 11.351562 6.929688 L 12.75 6.929688 C 13.125 6.929688 13.425781 7.234375 13.425781 7.605469 Z M 13.414062 8.859375 "/>
</g>
</svg>
