
<svg xmlns="http://www.w3.org/2000/svg" xmlns:xlink="http://www.w3.org/1999/xlink" width="24px" height="24px" viewBox="0 0 24 24" version="1.1">
<g id="surface1">
<path style=" stroke:none;fill-rule:nonzero;fill:rgb(49.411765%,34.117647%,76.862745%);fill-opacity:1;" d="M 2.023438 0 L 21.976562 0 C 23.09375 0 24 0.90625 24 2.023438 L 24 21.976562 C 24 23.09375 23.09375 24 21.976562 24 L 2.023438 24 C 0.90625 24 0 23.09375 0 21.976562 L 0 2.023438 C 0 0.90625 0.90625 0 2.023438 0 Z M 2.023438 0 "/>
<path style=" stroke:none;fill-rule:nonzero;fill:rgb(100%,100%,100%);fill-opacity:1;" d="M 19.414062 19.214844 L 6.78125 19.214844 C 6.40625 19.214844 6.105469 18.914062 6.105469 18.539062 L 6.105469 7.820312 C 6.105469 7.445312 6.40625 7.144531 6.78125 7.144531 L 19.414062 7.144531 C 19.785156 7.144531 20.089844 7.445312 20.089844 7.820312 L 20.089844 18.539062 C 20.089844 18.914062 19.785156 19.214844 19.414062 19.214844 Z M 19.414062 19.214844 "/>
<path style=" stroke:none;fill-rule:nonzero;fill:rgb(92.54902%,25.098039%,47.843137%);fill-opacity:1;" d="M 6.785156 6.832031 L 19.414062 6.832031 C 19.960938 6.832031 20.402344 7.273438 20.402344 7.820312 L 20.402344 18.539062 C 20.402344 19.085938 19.960938 19.527344 19.414062 19.527344 L 6.785156 19.527344 C 6.238281 19.527344 5.796875 19.085938 5.796875 18.539062 L 5.796875 7.820312 C 5.796875 7.277344 6.238281 6.835938 6.785156 6.832031 Z M 19.414062 18.902344 C 19.621094 18.902344 19.789062 18.734375 19.789062 18.527344 L 19.789062 7.820312 C 19.789062 7.617188 19.621094 7.445312 19.414062 7.445312 L 6.785156 7.445312 C 6.578125 7.445312 6.410156 7.617188 6.410156 7.820312 L 6.410156 18.539062 C 6.410156 18.746094 6.578125 18.914062 6.785156 18.914062 Z M 19.414062 18.902344 "/>
<path style=" stroke:none;fill-rule:nonzero;fill:rgb(100%,100%,100%);fill-opacity:1;" d="M 17.214844 16.855469 L 4.582031 16.855469 C 4.210938 16.855469 3.90625 16.554688 3.90625 16.179688 L 3.90625 5.460938 C 3.90625 5.085938 4.210938 4.785156 4.582031 4.785156 L 17.214844 4.785156 C 17.589844 4.785156 17.890625 5.085938 17.890625 5.460938 L 17.890625 16.179688 C 17.890625 16.554688 17.589844 16.855469 17.214844 16.855469 Z M 17.214844 16.855469 "/>
<path style=" stroke:none;fill-rule:nonzero;fill:rgb(92.54902%,25.098039%,47.843137%);fill-opacity:1;" d="M 4.585938 4.472656 L 17.214844 4.472656 C 17.761719 4.472656 18.203125 4.914062 18.203125 5.460938 L 18.203125 16.179688 C 18.203125 16.722656 17.761719 17.164062 17.214844 17.167969 L 4.585938 17.167969 C 4.039062 17.167969 3.597656 16.726562 3.597656 16.179688 L 3.597656 5.460938 C 3.597656 4.914062 4.039062 4.472656 4.585938 4.472656 Z M 17.214844 16.539062 C 17.421875 16.539062 17.589844 16.375 17.589844 16.164062 L 17.589844 5.460938 C 17.589844 5.253906 17.421875 5.085938 17.214844 5.085938 L 4.585938 5.085938 C 4.378906 5.085938 4.210938 5.253906 4.210938 5.460938 L 4.210938 16.179688 C 4.210938 16.382812 4.378906 16.554688 4.585938 16.554688 Z M 17.214844 16.539062 "/>
<path style=" stroke:none;fill-rule:nonzero;fill:rgb(92.54902%,25.098039%,47.843137%);fill-opacity:1;" d="M 18.117188 6.171875 L 3.714844 6.171875 L 3.714844 5.390625 C 3.714844 4.960938 4.066406 4.613281 4.496094 4.613281 L 17.332031 4.613281 C 17.765625 4.613281 18.113281 4.960938 18.113281 5.390625 L 18.113281 6.171875 Z M 18.117188 6.171875 "/>
<path style=" stroke:none;fill-rule:nonzero;fill:rgb(100%,100%,100%);fill-opacity:1;" d="M 14.523438 5.414062 C 14.523438 5.675781 14.3125 5.886719 14.050781 5.886719 C 13.789062 5.886719 13.578125 5.675781 13.578125 5.414062 C 13.578125 5.15625 13.789062 4.941406 14.050781 4.941406 C 14.3125 4.941406 14.523438 5.15625 14.523438 5.414062 Z M 14.523438 5.414062 "/>
<path style=" stroke:none;fill-rule:nonzero;fill:rgb(100%,100%,100%);fill-opacity:1;" d="M 16.097656 5.414062 C 16.097656 5.675781 15.886719 5.886719 15.625 5.886719 C 15.367188 5.886719 15.152344 5.675781 15.152344 5.414062 C 15.152344 5.15625 15.367188 4.941406 15.625 4.941406 C 15.886719 4.941406 16.097656 5.15625 16.097656 5.414062 Z M 16.097656 5.414062 "/>
<path style=" stroke:none;fill-rule:nonzero;fill:rgb(100%,100%,100%);fill-opacity:1;" d="M 17.679688 5.414062 C 17.679688 5.675781 17.464844 5.886719 17.203125 5.886719 C 16.945312 5.886719 16.734375 5.675781 16.734375 5.414062 C 16.734375 5.15625 16.945312 4.941406 17.203125 4.941406 C 17.464844 4.941406 17.679688 5.15625 17.679688 5.414062 Z M 17.679688 5.414062 "/>
</g>
</svg>
