
<svg xmlns="http://www.w3.org/2000/svg" xmlns:xlink="http://www.w3.org/1999/xlink" width="24px" height="24px" viewBox="0 0 24 24" version="1.1">
<defs>
<clipPath id="clip1">
  <path d="M 1.75 0 L 10.75 0 L 10.75 24 L 1.75 24 Z M 1.75 0 "/>
</clipPath>
<clipPath id="clip2">
  <path d="M 2.023438 0 L 21.976562 0 C 23.09375 0 24 0.90625 24 2.023438 L 24 21.976562 C 24 23.09375 23.09375 24 21.976562 24 L 2.023438 24 C 0.90625 24 0 23.09375 0 21.976562 L 0 2.023438 C 0 0.90625 0.90625 0 2.023438 0 Z M 2.023438 0 "/>
</clipPath>
<clipPath id="clip3">
  <path d="M 6.25 0 L 17.75 0 L 17.75 24 L 6.25 24 Z M 6.25 0 "/>
</clipPath>
<clipPath id="clip4">
  <path d="M 2.023438 0 L 21.976562 0 C 23.09375 0 24 0.90625 24 2.023438 L 24 21.976562 C 24 23.09375 23.09375 24 21.976562 24 L 2.023438 24 C 0.90625 24 0 23.09375 0 21.976562 L 0 2.023438 C 0 0.90625 0.90625 0 2.023438 0 Z M 2.023438 0 "/>
</clipPath>
<clipPath id="clip5">
  <path d="M 13.25 0 L 22 0 L 22 24 L 13.25 24 Z M 13.25 0 "/>
</clipPath>
<clipPath id="clip6">
  <path d="M 2.023438 0 L 21.976562 0 C 23.09375 0 24 0.90625 24 2.023438 L 24 21.976562 C 24 23.09375 23.09375 24 21.976562 24 L 2.023438 24 C 0.90625 24 0 23.09375 0 21.976562 L 0 2.023438 C 0 0.90625 0.90625 0 2.023438 0 Z M 2.023438 0 "/>
</clipPath>
<clipPath id="clip7">
  <path d="M 10.25 2 L 14 2 L 14 24 L 10.25 24 Z M 10.25 2 "/>
</clipPath>
<clipPath id="clip8">
  <path d="M 2.023438 0 L 21.976562 0 C 23.09375 0 24 0.90625 24 2.023438 L 24 21.976562 C 24 23.09375 23.09375 24 21.976562 24 L 2.023438 24 C 0.90625 24 0 23.09375 0 21.976562 L 0 2.023438 C 0 0.90625 0.90625 0 2.023438 0 Z M 2.023438 0 "/>
</clipPath>
<clipPath id="clip9">
  <path d="M 13.75 1.75 L 14 1.75 L 14 2.25 L 13.75 2.25 Z M 13.75 1.75 "/>
</clipPath>
<clipPath id="clip10">
  <path d="M 2.023438 0 L 21.976562 0 C 23.09375 0 24 0.90625 24 2.023438 L 24 21.976562 C 24 23.09375 23.09375 24 21.976562 24 L 2.023438 24 C 0.90625 24 0 23.09375 0 21.976562 L 0 2.023438 C 0 0.90625 0.90625 0 2.023438 0 Z M 2.023438 0 "/>
</clipPath>
<clipPath id="clip11">
  <path d="M 9.75 1.5 L 14 1.5 L 14 24 L 9.75 24 Z M 9.75 1.5 "/>
</clipPath>
<clipPath id="clip12">
  <path d="M 2.023438 0 L 21.976562 0 C 23.09375 0 24 0.90625 24 2.023438 L 24 21.976562 C 24 23.09375 23.09375 24 21.976562 24 L 2.023438 24 C 0.90625 24 0 23.09375 0 21.976562 L 0 2.023438 C 0 0.90625 0.90625 0 2.023438 0 Z M 2.023438 0 "/>
</clipPath>
<clipPath id="clip13">
  <path d="M 10 1.75 L 14 1.75 L 14 24 L 10 24 Z M 10 1.75 "/>
</clipPath>
<clipPath id="clip14">
  <path d="M 2.023438 0 L 21.976562 0 C 23.09375 0 24 0.90625 24 2.023438 L 24 21.976562 C 24 23.09375 23.09375 24 21.976562 24 L 2.023438 24 C 0.90625 24 0 23.09375 0 21.976562 L 0 2.023438 C 0 0.90625 0.90625 0 2.023438 0 Z M 2.023438 0 "/>
</clipPath>
<clipPath id="clip15">
  <path d="M 7.75 0 L 16.25 0 L 16.25 4.25 L 7.75 4.25 Z M 7.75 0 "/>
</clipPath>
<clipPath id="clip16">
  <path d="M 2.023438 0 L 21.976562 0 C 23.09375 0 24 0.90625 24 2.023438 L 24 21.976562 C 24 23.09375 23.09375 24 21.976562 24 L 2.023438 24 C 0.90625 24 0 23.09375 0 21.976562 L 0 2.023438 C 0 0.90625 0.90625 0 2.023438 0 Z M 2.023438 0 "/>
</clipPath>
<clipPath id="clip17">
  <path d="M 11.25 7.5 L 12.5 7.5 L 12.5 8.75 L 11.25 8.75 Z M 11.25 7.5 "/>
</clipPath>
<clipPath id="clip18">
  <path d="M 2.023438 0 L 21.976562 0 C 23.09375 0 24 0.90625 24 2.023438 L 24 21.976562 C 24 23.09375 23.09375 24 21.976562 24 L 2.023438 24 C 0.90625 24 0 23.09375 0 21.976562 L 0 2.023438 C 0 0.90625 0.90625 0 2.023438 0 Z M 2.023438 0 "/>
</clipPath>
<linearGradient id="linear0" gradientUnits="userSpaceOnUse" x1="30.56" y1="21.72" x2="33.25" y2="21.72" gradientTransform="matrix(0.375,0,0,0.375,0,0)">
<stop offset="0" style="stop-color:rgb(25.490196%,74.117647%,83.137255%);stop-opacity:1;"/>
<stop offset="1" style="stop-color:rgb(50.980392%,32.54902%,83.921569%);stop-opacity:1;"/>
</linearGradient>
<clipPath id="clip19">
  <path d="M 11.25 15.5 L 12.5 15.5 L 12.5 16.75 L 11.25 16.75 Z M 11.25 15.5 "/>
</clipPath>
<clipPath id="clip20">
  <path d="M 2.023438 0 L 21.976562 0 C 23.09375 0 24 0.90625 24 2.023438 L 24 21.976562 C 24 23.09375 23.09375 24 21.976562 24 L 2.023438 24 C 0.90625 24 0 23.09375 0 21.976562 L 0 2.023438 C 0 0.90625 0.90625 0 2.023438 0 Z M 2.023438 0 "/>
</clipPath>
<linearGradient id="linear1" gradientUnits="userSpaceOnUse" x1="30.56" y1="42.73" x2="33.25" y2="42.73" gradientTransform="matrix(0.375,0,0,0.375,0,0)">
<stop offset="0" style="stop-color:rgb(25.490196%,74.117647%,83.137255%);stop-opacity:1;"/>
<stop offset="1" style="stop-color:rgb(50.980392%,32.54902%,83.921569%);stop-opacity:1;"/>
</linearGradient>
</defs>
<g id="surface1">
<path style=" stroke:none;fill-rule:nonzero;fill:rgb(32.941176%,29.803922%,40.784314%);fill-opacity:1;" d="M 2.023438 0 L 21.976562 0 C 23.09375 0 24 0.90625 24 2.023438 L 24 21.976562 C 24 23.09375 23.09375 24 21.976562 24 L 2.023438 24 C 0.90625 24 0 23.09375 0 21.976562 L 0 2.023438 C 0 0.90625 0.90625 0 2.023438 0 Z M 2.023438 0 "/>
<g clip-path="url(#clip1)" clip-rule="nonzero">
<g clip-path="url(#clip2)" clip-rule="nonzero">
<path style=" stroke:none;fill-rule:nonzero;fill:rgb(79.607843%,79.607843%,79.607843%);fill-opacity:1;" d="M 6.226562 0 C 4.640625 0 3 -2.277344 1.902344 -1.296875 C 2.15625 3.328125 3.265625 17.117188 6.375 24 L 10.625 24 C 7.0625 16.125 6.375 2.960938 6.261719 0 Z M 6.226562 0 "/>
</g>
</g>
<g clip-path="url(#clip3)" clip-rule="nonzero">
<g clip-path="url(#clip4)" clip-rule="nonzero">
<path style=" stroke:none;fill-rule:nonzero;fill:rgb(96.862745%,96.862745%,96.862745%);fill-opacity:1;" d="M 6.261719 0 C 6.375 2.960938 7.0625 16.125 10.625 24 L 13.375 24 C 16.9375 16.125 17.625 2.960938 17.738281 0 Z M 6.261719 0 "/>
</g>
</g>
<g clip-path="url(#clip5)" clip-rule="nonzero">
<g clip-path="url(#clip6)" clip-rule="nonzero">
<path style=" stroke:none;fill-rule:nonzero;fill:rgb(79.607843%,79.607843%,79.607843%);fill-opacity:1;" d="M 17.773438 0 L 17.738281 0 C 17.625 2.960938 16.9375 16.125 13.375 24 L 17.625 24 C 20.734375 17.117188 21.75 4.539062 21.996094 -0.0859375 C 20.898438 -1.0625 19.359375 0 17.773438 0 Z M 17.773438 0 "/>
</g>
</g>
<g clip-path="url(#clip7)" clip-rule="nonzero">
<g clip-path="url(#clip8)" clip-rule="nonzero">
<path style=" stroke:none;fill-rule:nonzero;fill:rgb(94.509804%,94.509804%,94.509804%);fill-opacity:1;" d="M 10.765625 24 L 13.464844 24 L 13.980469 2.089844 L 10.253906 2.089844 Z M 10.765625 24 "/>
</g>
</g>
<g clip-path="url(#clip9)" clip-rule="nonzero">
<g clip-path="url(#clip10)" clip-rule="nonzero">
<path style=" stroke:none;fill-rule:nonzero;fill:rgb(89.803922%,89.803922%,89.803922%);fill-opacity:1;" d="M 13.984375 2.089844 L 13.984375 1.886719 L 13.980469 2.089844 Z M 13.984375 2.089844 "/>
</g>
</g>
<g clip-path="url(#clip11)" clip-rule="nonzero">
<g clip-path="url(#clip12)" clip-rule="nonzero">
<path style=" stroke:none;fill-rule:nonzero;fill:rgb(89.803922%,89.803922%,89.803922%);fill-opacity:1;" d="M 10.046875 1.886719 L 13.984375 1.886719 L 13.984375 1.683594 L 9.839844 1.683594 L 10.367188 24 L 10.566406 24 Z M 10.046875 1.886719 "/>
</g>
</g>
<g clip-path="url(#clip13)" clip-rule="nonzero">
<g clip-path="url(#clip14)" clip-rule="nonzero">
<path style=" stroke:none;fill-rule:nonzero;fill:rgb(89.803922%,89.803922%,89.803922%);fill-opacity:1;" d="M 10.566406 24 L 10.765625 24 L 10.253906 2.089844 L 13.980469 2.089844 L 13.984375 1.886719 L 10.046875 1.886719 Z M 10.566406 24 "/>
</g>
</g>
<g clip-path="url(#clip15)" clip-rule="nonzero">
<g clip-path="url(#clip16)" clip-rule="nonzero">
<path style=" stroke:none;fill-rule:nonzero;fill:rgb(92.54902%,25.098039%,47.843137%);fill-opacity:1;" d="M 16.191406 0.394531 C 16.191406 0.328125 16.15625 0.261719 16.097656 0.226562 C 16.039062 0.191406 15.96875 0.1875 15.90625 0.222656 L 12.84375 0.972656 C 12.769531 0.734375 12.550781 0.570312 12.304688 0.570312 L 11.554688 0.570312 C 11.328125 0.570312 11.125 0.703125 11.03125 0.90625 L 8.09375 0.222656 C 8.03125 0.1875 7.960938 0.191406 7.902344 0.226562 C 7.84375 0.261719 7.808594 0.328125 7.808594 0.394531 L 7.808594 3.847656 C 7.808594 3.914062 7.84375 3.976562 7.902344 4.015625 C 7.960938 4.046875 8.03125 4.050781 8.09375 4.019531 L 11.144531 2.375 C 11.25 2.492188 11.402344 2.558594 11.5625 2.558594 L 12.3125 2.558594 C 12.484375 2.550781 12.648438 2.464844 12.75 2.320312 L 15.898438 4.019531 C 15.957031 4.050781 16.03125 4.046875 16.085938 4.015625 C 16.144531 3.976562 16.179688 3.914062 16.179688 3.847656 Z M 16.191406 0.394531 "/>
</g>
</g>
<g clip-path="url(#clip17)" clip-rule="nonzero">
<g clip-path="url(#clip18)" clip-rule="nonzero">
<path style=" stroke:none;fill-rule:nonzero;fill:url(#linear0);" d="M 12.472656 8.144531 C 12.472656 8.425781 12.246094 8.652344 11.964844 8.652344 C 11.6875 8.652344 11.460938 8.425781 11.460938 8.144531 C 11.460938 7.867188 11.6875 7.640625 11.964844 7.640625 C 12.246094 7.640625 12.472656 7.867188 12.472656 8.144531 Z M 12.472656 8.144531 "/>
</g>
</g>
<g clip-path="url(#clip19)" clip-rule="nonzero">
<g clip-path="url(#clip20)" clip-rule="nonzero">
<path style=" stroke:none;fill-rule:nonzero;fill:url(#linear1);" d="M 12.472656 16.023438 C 12.472656 16.304688 12.246094 16.53125 11.964844 16.53125 C 11.6875 16.53125 11.460938 16.304688 11.460938 16.023438 C 11.460938 15.742188 11.6875 15.515625 11.964844 15.515625 C 12.246094 15.515625 12.472656 15.742188 12.472656 16.023438 Z M 12.472656 16.023438 "/>
</g>
</g>
</g>
</svg>
