
<svg xmlns="http://www.w3.org/2000/svg" xmlns:xlink="http://www.w3.org/1999/xlink" width="24px" height="24px" viewBox="0 0 24 24" version="1.1">
<g id="surface1">
<path style=" stroke:none;fill-rule:nonzero;fill:rgb(49.411765%,34.117647%,76.862745%);fill-opacity:1;" d="M 2.023438 0 L 21.976562 0 C 23.09375 0 24 0.90625 24 2.023438 L 24 21.976562 C 24 23.09375 23.09375 24 21.976562 24 L 2.023438 24 C 0.90625 24 0 23.09375 0 21.976562 L 0 2.023438 C 0 0.90625 0.90625 0 2.023438 0 Z M 2.023438 0 "/>
<path style=" stroke:none;fill-rule:nonzero;fill:rgb(100%,100%,100%);fill-opacity:1;" d="M 13.285156 7.003906 C 13.285156 7.714844 12.710938 8.289062 12 8.289062 C 11.289062 8.289062 10.714844 7.714844 10.714844 7.003906 C 10.714844 6.296875 11.289062 5.71875 12 5.71875 C 12.710938 5.71875 13.285156 6.296875 13.285156 7.003906 Z M 13.285156 7.003906 "/>
<path style=" stroke:none;fill-rule:nonzero;fill:rgb(100%,100%,100%);fill-opacity:1;" d="M 13.773438 10.273438 L 17.117188 8.835938 C 17.289062 8.769531 17.421875 8.636719 17.492188 8.472656 C 17.5625 8.304688 17.5625 8.117188 17.492188 7.949219 C 17.347656 7.609375 16.953125 7.449219 16.609375 7.59375 L 13.871094 8.765625 C 13.285156 9.015625 12.65625 9.144531 12.019531 9.140625 C 11.382812 9.144531 10.75 9.015625 10.164062 8.765625 L 7.429688 7.59375 C 7.085938 7.449219 6.6875 7.609375 6.542969 7.949219 C 6.472656 8.117188 6.472656 8.304688 6.546875 8.472656 C 6.617188 8.636719 6.75 8.769531 6.917969 8.835938 L 10.125 10.230469 C 10.316406 10.3125 10.441406 10.5 10.441406 10.710938 L 10.324219 13.066406 C 10.320312 13.152344 10.296875 13.238281 10.253906 13.3125 L 7.941406 17.25 C 7.859375 17.382812 7.835938 17.542969 7.875 17.695312 C 7.914062 17.84375 8.015625 17.972656 8.152344 18.046875 L 8.453125 18.214844 C 8.75 18.367188 9.109375 18.257812 9.273438 17.964844 L 11.429688 14.164062 C 11.53125 13.984375 11.726562 13.875 11.933594 13.875 C 12.140625 13.871094 12.332031 13.980469 12.433594 14.160156 L 14.585938 17.964844 C 14.75 18.257812 15.113281 18.367188 15.410156 18.214844 L 15.710938 18.046875 C 15.84375 17.972656 15.945312 17.84375 15.984375 17.695312 C 16.023438 17.542969 16 17.382812 15.917969 17.25 L 13.640625 13.371094 C 13.597656 13.296875 13.570312 13.210938 13.570312 13.125 L 13.453125 10.746094 C 13.457031 10.539062 13.582031 10.351562 13.773438 10.273438 Z M 13.773438 10.273438 "/>
</g>
</svg>
