
<svg xmlns="http://www.w3.org/2000/svg" xmlns:xlink="http://www.w3.org/1999/xlink" width="24px" height="24px" viewBox="0 0 24 24" version="1.1">
<g id="surface1">
<path style=" stroke:none;fill-rule:nonzero;fill:rgb(49.411765%,34.117647%,76.862745%);fill-opacity:1;" d="M 2.023438 0 L 21.976562 0 C 23.09375 0 24 0.90625 24 2.023438 L 24 21.976562 C 24 23.09375 23.09375 24 21.976562 24 L 2.023438 24 C 0.90625 24 0 23.09375 0 21.976562 L 0 2.023438 C 0 0.90625 0.90625 0 2.023438 0 Z M 2.023438 0 "/>
<path style=" stroke:none;fill-rule:nonzero;fill:rgb(100%,100%,100%);fill-opacity:1;" d="M 20.117188 18.035156 L 3.882812 18.035156 C 3.511719 18.035156 3.210938 17.730469 3.210938 17.359375 L 3.210938 6.636719 C 3.210938 6.265625 3.511719 5.960938 3.882812 5.960938 L 20.117188 5.960938 C 20.492188 5.960938 20.792969 6.265625 20.792969 6.636719 L 20.792969 17.359375 C 20.792969 17.730469 20.492188 18.035156 20.117188 18.035156 Z M 20.117188 18.035156 "/>
<path style=" stroke:none;fill-rule:nonzero;fill:rgb(92.54902%,25.098039%,47.843137%);fill-opacity:1;" d="M 3.882812 5.652344 L 20.117188 5.652344 C 20.664062 5.652344 21.105469 6.09375 21.105469 6.640625 L 21.105469 17.359375 C 21.105469 17.90625 20.664062 18.347656 20.117188 18.347656 L 3.882812 18.347656 C 3.335938 18.347656 2.894531 17.90625 2.894531 17.359375 L 2.894531 6.640625 C 2.894531 6.09375 3.335938 5.652344 3.882812 5.652344 Z M 20.117188 17.722656 C 20.320312 17.722656 20.492188 17.554688 20.492188 17.347656 L 20.492188 6.640625 C 20.492188 6.433594 20.320312 6.265625 20.117188 6.265625 L 3.882812 6.265625 C 3.679688 6.265625 3.507812 6.433594 3.507812 6.640625 L 3.507812 17.359375 C 3.507812 17.566406 3.679688 17.734375 3.882812 17.734375 Z M 20.117188 17.722656 "/>
<path style=" stroke:none;fill-rule:nonzero;fill:rgb(92.54902%,25.098039%,47.843137%);fill-opacity:1;" d="M 21.03125 7.351562 L 3.03125 7.351562 L 3.03125 6.574219 C 3.03125 6.15625 3.359375 5.808594 3.78125 5.792969 L 20.234375 5.792969 C 20.445312 5.789062 20.648438 5.871094 20.796875 6.015625 C 20.945312 6.164062 21.03125 6.363281 21.03125 6.574219 Z M 21.03125 7.351562 "/>
<path style=" stroke:none;fill-rule:nonzero;fill:rgb(100%,100%,100%);fill-opacity:1;" d="M 17.421875 6.597656 C 17.421875 6.859375 17.210938 7.070312 16.949219 7.070312 C 16.6875 7.070312 16.476562 6.859375 16.476562 6.597656 C 16.476562 6.335938 16.6875 6.125 16.949219 6.125 C 17.210938 6.125 17.421875 6.335938 17.421875 6.597656 Z M 17.421875 6.597656 "/>
<path style=" stroke:none;fill-rule:nonzero;fill:rgb(100%,100%,100%);fill-opacity:1;" d="M 19 6.597656 C 19 6.859375 18.789062 7.070312 18.527344 7.070312 C 18.265625 7.070312 18.054688 6.859375 18.054688 6.597656 C 18.054688 6.335938 18.265625 6.125 18.527344 6.125 C 18.789062 6.125 19 6.335938 19 6.597656 Z M 19 6.597656 "/>
<path style=" stroke:none;fill-rule:nonzero;fill:rgb(100%,100%,100%);fill-opacity:1;" d="M 20.578125 6.597656 C 20.578125 6.859375 20.367188 7.070312 20.109375 7.070312 C 19.847656 7.070312 19.632812 6.859375 19.632812 6.597656 C 19.632812 6.335938 19.847656 6.125 20.109375 6.125 C 20.367188 6.125 20.578125 6.335938 20.578125 6.597656 Z M 20.578125 6.597656 "/>
</g>
</svg>
