
<svg xmlns="http://www.w3.org/2000/svg" xmlns:xlink="http://www.w3.org/1999/xlink" width="24px" height="24px" viewBox="0 0 24 24" version="1.1">
<g id="surface1">
<path style=" stroke:none;fill-rule:nonzero;fill:rgb(37.647059%,41.960784%,50.980392%);fill-opacity:1;" d="M 21.703125 1.125 L 16.605469 1.125 C 15.609375 1.128906 14.722656 1.78125 14.425781 2.730469 L 0 2.730469 L 0 4.941406 L 14.425781 4.941406 C 14.722656 5.894531 15.605469 6.546875 16.605469 6.550781 L 21.703125 6.550781 C 22.972656 6.546875 24 5.519531 24 4.253906 L 24 3.417969 C 23.996094 2.152344 22.96875 1.128906 21.703125 1.125 Z M 21.703125 1.125 "/>
<path style=" stroke:none;fill-rule:nonzero;fill:rgb(37.647059%,41.960784%,50.980392%);fill-opacity:1;" d="M 2.296875 14.714844 L 7.394531 14.714844 C 8.390625 14.714844 9.265625 14.066406 9.574219 13.125 L 24 13.125 L 24 10.910156 L 9.574219 10.910156 C 9.277344 9.964844 8.390625 9.3125 7.394531 9.308594 L 2.296875 9.308594 C 1.035156 9.3125 0.0117188 10.324219 0 11.582031 L 0 12.421875 C 0.00390625 13.6875 1.03125 14.707031 2.296875 14.714844 Z M 2.296875 14.714844 "/>
<path style=" stroke:none;fill-rule:nonzero;fill:rgb(37.647059%,41.960784%,50.980392%);fill-opacity:1;" d="M 21.703125 17.449219 L 16.605469 17.449219 C 15.609375 17.453125 14.722656 18.105469 14.425781 19.050781 L 0 19.050781 L 0 21.269531 L 14.425781 21.269531 C 14.730469 22.21875 15.609375 22.871094 16.605469 22.875 L 21.703125 22.875 C 22.96875 22.875 24 21.84375 24 20.578125 L 24 19.746094 C 23.996094 18.480469 22.96875 17.453125 21.703125 17.449219 Z M 21.703125 17.449219 "/>
</g>
</svg>
