
<svg xmlns="http://www.w3.org/2000/svg" xmlns:xlink="http://www.w3.org/1999/xlink" width="24px" height="24px" viewBox="0 0 24 24" version="1.1">
<g id="surface1">
<path style=" stroke:none;fill-rule:nonzero;fill:rgb(37.647059%,41.960784%,50.980392%);fill-opacity:1;" d="M 14.457031 2.457031 C 14.457031 3.8125 13.359375 4.914062 12 4.914062 C 10.640625 4.914062 9.542969 3.8125 9.542969 2.457031 C 9.542969 1.101562 10.640625 0 12 0 C 13.359375 0 14.457031 1.101562 14.457031 2.457031 Z M 14.457031 2.457031 "/>
<path style=" stroke:none;fill-rule:nonzero;fill:rgb(37.647059%,41.960784%,50.980392%);fill-opacity:1;" d="M 15.375 8.695312 L 21.75 5.953125 C 22.40625 5.675781 22.707031 4.917969 22.429688 4.265625 C 22.148438 3.609375 21.390625 3.308594 20.738281 3.585938 L 15.507812 5.835938 C 14.398438 6.3125 13.207031 6.554688 12 6.554688 C 10.78125 6.554688 9.578125 6.304688 8.460938 5.828125 L 3.234375 3.578125 C 2.582031 3.296875 1.828125 3.601562 1.546875 4.25 C 1.265625 4.90625 1.570312 5.664062 2.226562 5.945312 L 8.441406 8.625 C 8.808594 8.78125 9.046875 9.140625 9.046875 9.539062 L 8.816406 14.039062 C 8.8125 14.207031 8.765625 14.367188 8.679688 14.511719 L 4.25 22.011719 C 4.09375 22.265625 4.050781 22.574219 4.125 22.859375 C 4.199219 23.148438 4.390625 23.398438 4.648438 23.542969 L 5.226562 23.851562 C 5.789062 24.148438 6.484375 23.9375 6.789062 23.382812 L 10.914062 16.125 C 11.109375 15.78125 11.476562 15.574219 11.875 15.578125 C 12.265625 15.574219 12.632812 15.78125 12.832031 16.125 L 16.957031 23.382812 C 17.265625 23.941406 17.960938 24.148438 18.523438 23.859375 L 19.101562 23.546875 C 19.359375 23.398438 19.546875 23.15625 19.625 22.867188 C 19.695312 22.585938 19.65625 22.277344 19.5 22.023438 L 15.132812 14.625 C 15.046875 14.476562 15.003906 14.3125 15 14.144531 L 14.78125 9.609375 C 14.78125 9.214844 15.015625 8.855469 15.375 8.695312 Z M 15.375 8.695312 "/>
</g>
</svg>
