
<svg xmlns="http://www.w3.org/2000/svg" xmlns:xlink="http://www.w3.org/1999/xlink" width="128px" height="128px" viewBox="0 0 128 128" version="1.1">
<defs>
<linearGradient id="linear0" gradientUnits="userSpaceOnUse" x1="32" y1="3.8" x2="32" y2="23.49" gradientTransform="matrix(2,0,0,2,0,0)">
<stop offset="0" style="stop-color:rgb(16.078431%,71.372549%,96.470588%);stop-opacity:1;"/>
<stop offset="0.67" style="stop-color:rgb(39.607843%,45.098039%,82.745098%);stop-opacity:1;"/>
<stop offset="1" style="stop-color:rgb(49.411765%,34.117647%,76.862745%);stop-opacity:1;"/>
</linearGradient>
<linearGradient id="linear1" gradientUnits="userSpaceOnUse" x1="32" y1="60.9" x2="32" y2="18.72" gradientTransform="matrix(2,0,0,2,0,0)">
<stop offset="0" style="stop-color:rgb(86.27451%,87.058824%,88.627451%);stop-opacity:1;"/>
<stop offset="0.57" style="stop-color:rgb(87.058824%,87.843137%,89.411765%);stop-opacity:1;"/>
<stop offset="0.81" style="stop-color:rgb(89.803922%,90.588235%,91.764706%);stop-opacity:1;"/>
<stop offset="0.99" style="stop-color:rgb(94.901961%,95.294118%,95.686275%);stop-opacity:1;"/>
<stop offset="1" style="stop-color:rgb(95.294118%,95.686275%,96.078431%);stop-opacity:1;"/>
</linearGradient>
<linearGradient id="linear2" gradientUnits="userSpaceOnUse" x1="32" y1="48.87" x2="32" y2="29.99" gradientTransform="matrix(2,0,0,2,0,0)">
<stop offset="0" style="stop-color:rgb(75.294118%,75.294118%,75.294118%);stop-opacity:1;"/>
<stop offset="1" style="stop-color:rgb(55.686275%,55.686275%,55.686275%);stop-opacity:1;"/>
</linearGradient>
</defs>
<g id="surface1">
<path style=" stroke:none;fill-rule:nonzero;fill:url(#linear0);" d="M 128 42.621094 C 127.988281 36.960938 123.398438 32.378906 117.738281 32.378906 L 82.898438 32.378906 C 75.777344 32.382812 69.960938 26.683594 69.820312 19.558594 C 69.929688 12.308594 64.152344 6.332031 56.898438 6.199219 L 6.761719 6.199219 C 3.027344 6.199219 0 9.226562 0 12.960938 L 0 46.839844 L 128 46.839844 Z M 128 42.621094 "/>
<path style=" stroke:none;fill-rule:nonzero;fill:url(#linear1);" d="M 117.738281 37.441406 L 10.261719 37.441406 C 4.59375 37.441406 0 42.035156 0 47.699219 L 0 111.558594 C 0.0117188 117.21875 4.601562 121.800781 10.261719 121.800781 L 117.738281 121.800781 C 123.398438 121.800781 127.988281 117.21875 128 111.558594 L 128 47.699219 C 128 42.035156 123.40625 37.441406 117.738281 37.441406 Z M 117.738281 37.441406 "/>
<path style=" stroke:none;fill-rule:nonzero;fill:url(#linear2);" d="M 86.878906 57.378906 L 84.261719 57.378906 C 83.585938 57.378906 83.039062 57.925781 83.039062 58.601562 L 83.039062 60.921875 C 83.039062 61.582031 82.503906 62.121094 81.839844 62.121094 L 80 62.121094 C 79.679688 62.125 79.367188 62 79.136719 61.777344 C 78.910156 61.550781 78.78125 61.242188 78.78125 60.921875 L 78.78125 58.601562 C 78.78125 57.925781 78.234375 57.378906 77.558594 57.378906 L 50.378906 57.378906 C 49.707031 57.378906 49.160156 57.925781 49.160156 58.601562 L 49.160156 60.921875 C 49.160156 61.242188 49.03125 61.550781 48.800781 61.777344 C 48.570312 62 48.261719 62.125 47.941406 62.121094 L 46.160156 62.121094 C 45.496094 62.121094 44.960938 61.582031 44.960938 60.921875 L 44.960938 58.601562 C 44.960938 57.925781 44.414062 57.378906 43.738281 57.378906 L 41.121094 57.378906 C 40.796875 57.378906 40.488281 57.507812 40.265625 57.738281 C 40.039062 57.96875 39.914062 58.277344 39.921875 58.601562 L 39.921875 98.320312 C 39.914062 98.640625 40.039062 98.953125 40.265625 99.179688 C 40.488281 99.410156 40.796875 99.539062 41.121094 99.539062 L 43.738281 99.539062 C 44.414062 99.539062 44.960938 98.992188 44.960938 98.320312 L 44.960938 96 C 44.960938 95.335938 45.496094 94.800781 46.160156 94.800781 L 48 94.800781 C 48.320312 94.792969 48.632812 94.917969 48.863281 95.144531 C 49.089844 95.371094 49.21875 95.679688 49.21875 96 L 49.21875 98.320312 C 49.21875 98.992188 49.765625 99.539062 50.441406 99.539062 L 77.621094 99.539062 C 78.292969 99.539062 78.839844 98.992188 78.839844 98.320312 L 78.839844 96 C 78.839844 95.679688 78.96875 95.371094 79.199219 95.144531 C 79.429688 94.917969 79.738281 94.792969 80.058594 94.800781 L 81.839844 94.800781 C 82.503906 94.800781 83.039062 95.335938 83.039062 96 L 83.039062 98.320312 C 83.039062 98.992188 83.585938 99.539062 84.261719 99.539062 L 86.878906 99.539062 C 87.203125 99.539062 87.511719 99.410156 87.734375 99.179688 C 87.960938 98.953125 88.085938 98.640625 88.078125 98.320312 L 88.078125 58.601562 C 88.085938 58.277344 87.960938 57.96875 87.734375 57.738281 C 87.511719 57.507812 87.203125 57.378906 86.878906 57.378906 Z M 49.160156 86.261719 C 49.160156 86.933594 48.613281 87.480469 47.941406 87.480469 L 46.160156 87.480469 C 45.839844 87.480469 45.53125 87.351562 45.304688 87.121094 C 45.078125 86.890625 44.953125 86.582031 44.960938 86.261719 L 44.960938 83.339844 C 44.953125 83.019531 45.078125 82.707031 45.304688 82.476562 C 45.53125 82.25 45.839844 82.121094 46.160156 82.121094 L 48 82.121094 C 48.671875 82.121094 49.21875 82.667969 49.21875 83.339844 Z M 49.160156 73.578125 C 49.160156 74.253906 48.613281 74.800781 47.941406 74.800781 L 46.160156 74.800781 C 45.839844 74.800781 45.53125 74.671875 45.304688 74.441406 C 45.078125 74.210938 44.953125 73.902344 44.960938 73.578125 L 44.960938 70.660156 C 44.960938 69.992188 45.492188 69.449219 46.160156 69.441406 L 48 69.441406 C 48.671875 69.441406 49.21875 69.984375 49.21875 70.660156 Z M 70.398438 79.859375 L 59.421875 86.199219 C 58.855469 86.53125 58.15625 86.53125 57.589844 86.207031 C 57.023438 85.878906 56.675781 85.273438 56.679688 84.621094 L 56.679688 72 C 56.675781 71.347656 57.023438 70.742188 57.589844 70.414062 C 58.15625 70.085938 58.855469 70.089844 59.421875 70.421875 L 70.398438 76.761719 C 70.9375 77.089844 71.265625 77.679688 71.265625 78.308594 C 71.265625 78.941406 70.9375 79.527344 70.398438 79.859375 Z M 83.039062 86.261719 C 83.046875 86.582031 82.921875 86.890625 82.695312 87.121094 C 82.46875 87.351562 82.160156 87.480469 81.839844 87.480469 L 80 87.480469 C 79.328125 87.480469 78.78125 86.933594 78.78125 86.261719 L 78.78125 83.339844 C 78.78125 82.667969 79.328125 82.121094 80 82.121094 L 81.78125 82.121094 C 82.101562 82.121094 82.410156 82.25 82.636719 82.476562 C 82.859375 82.707031 82.984375 83.019531 82.980469 83.339844 Z M 83.039062 73.578125 C 83.046875 73.902344 82.921875 74.210938 82.695312 74.441406 C 82.46875 74.671875 82.160156 74.800781 81.839844 74.800781 L 80 74.800781 C 79.328125 74.800781 78.78125 74.253906 78.78125 73.578125 L 78.78125 70.660156 C 78.78125 69.984375 79.328125 69.441406 80 69.441406 L 81.78125 69.441406 C 82.445312 69.449219 82.980469 69.992188 82.980469 70.660156 Z M 83.039062 73.578125 "/>
</g>
</svg>
