
<svg xmlns="http://www.w3.org/2000/svg" xmlns:xlink="http://www.w3.org/1999/xlink" width="64px" height="64px" viewBox="0 0 64 64" version="1.1">
<g id="surface1">
<path style=" stroke:none;fill-rule:nonzero;fill:rgb(49.411765%,34.117647%,76.862745%);fill-opacity:1;" d="M 5.390625 0 L 58.609375 0 C 61.585938 0 64 2.414062 64 5.390625 L 64 58.609375 C 64 61.585938 61.585938 64 58.609375 64 L 5.390625 64 C 2.414062 64 0 61.585938 0 58.609375 L 0 5.390625 C 0 2.414062 2.414062 0 5.390625 0 Z M 5.390625 0 "/>
<path style=" stroke:none;fill-rule:nonzero;fill:rgb(100%,100%,100%);fill-opacity:1;" d="M 11.75 15.160156 L 17.152344 15.160156 C 18.175781 15.160156 19.011719 15.992188 19.011719 17.019531 L 19.011719 22.417969 C 19.011719 23.449219 18.175781 24.28125 17.152344 24.28125 L 11.75 24.28125 C 10.722656 24.28125 9.890625 23.449219 9.890625 22.417969 L 9.890625 17.019531 C 9.890625 15.992188 10.722656 15.160156 11.75 15.160156 Z M 11.75 15.160156 "/>
<path style=" stroke:none;fill-rule:nonzero;fill:rgb(100%,100%,100%);fill-opacity:1;" d="M 23.449219 15.160156 L 28.847656 15.160156 C 29.878906 15.160156 30.710938 15.992188 30.710938 17.019531 L 30.710938 22.417969 C 30.710938 23.449219 29.878906 24.28125 28.847656 24.28125 L 23.449219 24.28125 C 22.421875 24.28125 21.589844 23.449219 21.589844 22.417969 L 21.589844 17.019531 C 21.589844 15.992188 22.421875 15.160156 23.449219 15.160156 Z M 23.449219 15.160156 "/>
<path style=" stroke:none;fill-rule:nonzero;fill:rgb(100%,100%,100%);fill-opacity:1;" d="M 35.152344 15.160156 L 40.550781 15.160156 C 41.578125 15.160156 42.410156 15.992188 42.410156 17.019531 L 42.410156 22.417969 C 42.410156 23.449219 41.578125 24.28125 40.550781 24.28125 L 35.152344 24.28125 C 34.121094 24.28125 33.289062 23.449219 33.289062 22.417969 L 33.289062 17.019531 C 33.289062 15.992188 34.121094 15.160156 35.152344 15.160156 Z M 35.152344 15.160156 "/>
<path style=" stroke:none;fill-rule:nonzero;fill:rgb(100%,100%,100%);fill-opacity:1;" d="M 46.839844 15.160156 L 52.238281 15.160156 C 53.269531 15.160156 54.097656 15.992188 54.097656 17.019531 L 54.097656 22.417969 C 54.097656 23.449219 53.269531 24.28125 52.238281 24.28125 L 46.839844 24.28125 C 45.8125 24.28125 44.980469 23.449219 44.980469 22.417969 L 44.980469 17.019531 C 44.980469 15.992188 45.8125 15.160156 46.839844 15.160156 Z M 46.839844 15.160156 "/>
<path style=" stroke:none;fill-rule:nonzero;fill:rgb(100%,100%,100%);fill-opacity:1;" d="M 11.75 28.800781 L 17.152344 28.800781 C 18.175781 28.800781 19.011719 29.632812 19.011719 30.660156 L 19.011719 36.058594 C 19.011719 37.089844 18.175781 37.917969 17.152344 37.917969 L 11.75 37.917969 C 10.722656 37.917969 9.890625 37.089844 9.890625 36.058594 L 9.890625 30.660156 C 9.890625 29.632812 10.722656 28.800781 11.75 28.800781 Z M 11.75 28.800781 "/>
<path style=" stroke:none;fill-rule:nonzero;fill:rgb(100%,100%,100%);fill-opacity:1;" d="M 23.449219 28.800781 L 28.847656 28.800781 C 29.878906 28.800781 30.710938 29.632812 30.710938 30.660156 L 30.710938 36.058594 C 30.710938 37.089844 29.878906 37.917969 28.847656 37.917969 L 23.449219 37.917969 C 22.421875 37.917969 21.589844 37.089844 21.589844 36.058594 L 21.589844 30.660156 C 21.589844 29.632812 22.421875 28.800781 23.449219 28.800781 Z M 23.449219 28.800781 "/>
</g>
</svg>
