
<svg xmlns="http://www.w3.org/2000/svg" xmlns:xlink="http://www.w3.org/1999/xlink" width="64px" height="64px" viewBox="0 0 64 64" version="1.1">
<g id="surface1">
<path style=" stroke:none;fill-rule:nonzero;fill:rgb(36.078431%,41.960784%,75.294118%);fill-opacity:1;" d="M 5.390625 0 L 58.609375 0 C 61.585938 0 64 2.414062 64 5.390625 L 64 58.609375 C 64 61.585938 61.585938 64 58.609375 64 L 5.390625 64 C 2.414062 64 0 61.585938 0 58.609375 L 0 5.390625 C 0 2.414062 2.414062 0 5.390625 0 Z M 5.390625 0 "/>
<path style=" stroke:none;fill-rule:nonzero;fill:rgb(100%,100%,100%);fill-opacity:1;" d="M 35.128906 32 L 42.550781 24.582031 C 43.148438 23.976562 43.148438 23.003906 42.550781 22.402344 L 33.820312 13.667969 C 33.378906 13.230469 32.714844 13.101562 32.136719 13.339844 C 31.5625 13.578125 31.183594 14.136719 31.179688 14.761719 L 31.179688 28.050781 L 23.71875 20.589844 C 23.117188 19.988281 22.144531 19.988281 21.539062 20.589844 C 20.9375 21.191406 20.9375 22.167969 21.539062 22.769531 L 30.769531 32 L 21.449219 41.308594 C 20.925781 41.925781 20.957031 42.839844 21.527344 43.410156 C 22.097656 43.984375 23.011719 44.023438 23.628906 43.5 L 31.179688 36 L 31.179688 49.238281 C 31.191406 49.875 31.585938 50.4375 32.179688 50.660156 C 32.367188 50.738281 32.566406 50.777344 32.769531 50.78125 C 33.175781 50.777344 33.566406 50.617188 33.859375 50.332031 L 42.589844 41.597656 C 43.1875 40.996094 43.1875 40.023438 42.589844 39.417969 Z M 34.269531 18.488281 L 39.269531 23.488281 L 34.269531 28.488281 Z M 34.269531 45.488281 L 34.269531 35.488281 L 39.269531 40.488281 Z M 34.269531 45.488281 "/>
</g>
</svg>
