
<svg xmlns="http://www.w3.org/2000/svg" xmlns:xlink="http://www.w3.org/1999/xlink" width="64px" height="64px" viewBox="0 0 64 64" version="1.1">
<defs>
<clipPath id="clip1">
  <path d="M 13.332031 0 L 30 0 L 30 11 L 13.332031 11 Z M 13.332031 0 "/>
</clipPath>
<clipPath id="clip2">
  <path d="M 5.390625 0 L 58.609375 0 C 61.585938 0 64 2.414062 64 5.390625 L 64 58.609375 C 64 61.585938 61.585938 64 58.609375 64 L 5.390625 64 C 2.414062 64 0 61.585938 0 58.609375 L 0 5.390625 C 0 2.414062 2.414062 0 5.390625 0 Z M 5.390625 0 "/>
</clipPath>
<clipPath id="clip3">
  <path d="M 0 0 L 1.332031 0 L 1.332031 8 L 0 8 Z M 0 0 "/>
</clipPath>
<clipPath id="clip4">
  <path d="M 5.390625 0 L 58.609375 0 C 61.585938 0 64 2.414062 64 5.390625 L 64 58.609375 C 64 61.585938 61.585938 64 58.609375 64 L 5.390625 64 C 2.414062 64 0 61.585938 0 58.609375 L 0 5.390625 C 0 2.414062 2.414062 0 5.390625 0 Z M 5.390625 0 "/>
</clipPath>
<clipPath id="clip5">
  <path d="M 0 0 L 16 0 L 16 9.332031 L 0 9.332031 Z M 0 0 "/>
</clipPath>
<clipPath id="clip6">
  <path d="M 5.390625 0 L 58.609375 0 C 61.585938 0 64 2.414062 64 5.390625 L 64 58.609375 C 64 61.585938 61.585938 64 58.609375 64 L 5.390625 64 C 2.414062 64 0 61.585938 0 58.609375 L 0 5.390625 C 0 2.414062 2.414062 0 5.390625 0 Z M 5.390625 0 "/>
</clipPath>
<clipPath id="clip7">
  <path d="M 35 55.332031 L 51.332031 55.332031 L 51.332031 64 L 35 64 Z M 35 55.332031 "/>
</clipPath>
<clipPath id="clip8">
  <path d="M 5.390625 0 L 58.609375 0 C 61.585938 0 64 2.414062 64 5.390625 L 64 58.609375 C 64 61.585938 61.585938 64 58.609375 64 L 5.390625 64 C 2.414062 64 0 61.585938 0 58.609375 L 0 5.390625 C 0 2.414062 2.414062 0 5.390625 0 Z M 5.390625 0 "/>
</clipPath>
<clipPath id="clip9">
  <path d="M 49.332031 56 L 64 56 L 64 64 L 49.332031 64 Z M 49.332031 56 "/>
</clipPath>
<clipPath id="clip10">
  <path d="M 5.390625 0 L 58.609375 0 C 61.585938 0 64 2.414062 64 5.390625 L 64 58.609375 C 64 61.585938 61.585938 64 58.609375 64 L 5.390625 64 C 2.414062 64 0 61.585938 0 58.609375 L 0 5.390625 C 0 2.414062 2.414062 0 5.390625 0 Z M 5.390625 0 "/>
</clipPath>
<clipPath id="clip11">
  <path d="M 51 42 L 64 42 L 64 58.667969 L 51 58.667969 Z M 51 42 "/>
</clipPath>
<clipPath id="clip12">
  <path d="M 5.390625 0 L 58.609375 0 C 61.585938 0 64 2.414062 64 5.390625 L 64 58.609375 C 64 61.585938 61.585938 64 58.609375 64 L 5.390625 64 C 2.414062 64 0 61.585938 0 58.609375 L 0 5.390625 C 0 2.414062 2.414062 0 5.390625 0 Z M 5.390625 0 "/>
</clipPath>
<clipPath id="clip13">
  <path d="M 7 51.332031 L 23 51.332031 L 23 64 L 7 64 Z M 7 51.332031 "/>
</clipPath>
<clipPath id="clip14">
  <path d="M 5.390625 0 L 58.609375 0 C 61.585938 0 64 2.414062 64 5.390625 L 64 58.609375 C 64 61.585938 61.585938 64 58.609375 64 L 5.390625 64 C 2.414062 64 0 61.585938 0 58.609375 L 0 5.390625 C 0 2.414062 2.414062 0 5.390625 0 Z M 5.390625 0 "/>
</clipPath>
<clipPath id="clip15">
  <path d="M 21 53.332031 L 37.332031 53.332031 L 37.332031 64 L 21 64 Z M 21 53.332031 "/>
</clipPath>
<clipPath id="clip16">
  <path d="M 5.390625 0 L 58.609375 0 C 61.585938 0 64 2.414062 64 5.390625 L 64 58.609375 C 64 61.585938 61.585938 64 58.609375 64 L 5.390625 64 C 2.414062 64 0 61.585938 0 58.609375 L 0 5.390625 C 0 2.414062 2.414062 0 5.390625 0 Z M 5.390625 0 "/>
</clipPath>
<clipPath id="clip17">
  <path d="M 0 50 L 9 50 L 9 64 L 0 64 Z M 0 50 "/>
</clipPath>
<clipPath id="clip18">
  <path d="M 5.390625 0 L 58.609375 0 C 61.585938 0 64 2.414062 64 5.390625 L 64 58.609375 C 64 61.585938 61.585938 64 58.609375 64 L 5.390625 64 C 2.414062 64 0 61.585938 0 58.609375 L 0 5.390625 C 0 2.414062 2.414062 0 5.390625 0 Z M 5.390625 0 "/>
</clipPath>
<clipPath id="clip19">
  <path d="M 27.332031 0 L 44 0 L 44 12.667969 L 27.332031 12.667969 Z M 27.332031 0 "/>
</clipPath>
<clipPath id="clip20">
  <path d="M 5.390625 0 L 58.609375 0 C 61.585938 0 64 2.414062 64 5.390625 L 64 58.609375 C 64 61.585938 61.585938 64 58.609375 64 L 5.390625 64 C 2.414062 64 0 61.585938 0 58.609375 L 0 5.390625 C 0 2.414062 2.414062 0 5.390625 0 Z M 5.390625 0 "/>
</clipPath>
<clipPath id="clip21">
  <path d="M 12 9 L 28 9 L 28 25.332031 L 12 25.332031 Z M 12 9 "/>
</clipPath>
<clipPath id="clip22">
  <path d="M 5.390625 0 L 58.609375 0 C 61.585938 0 64 2.414062 64 5.390625 L 64 58.609375 C 64 61.585938 61.585938 64 58.609375 64 L 5.390625 64 C 2.414062 64 0 61.585938 0 58.609375 L 0 5.390625 C 0 2.414062 2.414062 0 5.390625 0 Z M 5.390625 0 "/>
</clipPath>
<clipPath id="clip23">
  <path d="M 26 10.667969 L 42.667969 10.667969 L 42.667969 27 L 26 27 Z M 26 10.667969 "/>
</clipPath>
<clipPath id="clip24">
  <path d="M 5.390625 0 L 58.609375 0 C 61.585938 0 64 2.414062 64 5.390625 L 64 58.609375 C 64 61.585938 61.585938 64 58.609375 64 L 5.390625 64 C 2.414062 64 0 61.585938 0 58.609375 L 0 5.390625 C 0 2.414062 2.414062 0 5.390625 0 Z M 5.390625 0 "/>
</clipPath>
<clipPath id="clip25">
  <path d="M 0 21.332031 L 12.667969 21.332031 L 12.667969 38 L 0 38 Z M 0 21.332031 "/>
</clipPath>
<clipPath id="clip26">
  <path d="M 5.390625 0 L 58.609375 0 C 61.585938 0 64 2.414062 64 5.390625 L 64 58.609375 C 64 61.585938 61.585938 64 58.609375 64 L 5.390625 64 C 2.414062 64 0 61.585938 0 58.609375 L 0 5.390625 C 0 2.414062 2.414062 0 5.390625 0 Z M 5.390625 0 "/>
</clipPath>
<clipPath id="clip27">
  <path d="M 52.667969 28 L 64 28 L 64 44.667969 L 52.667969 44.667969 Z M 52.667969 28 "/>
</clipPath>
<clipPath id="clip28">
  <path d="M 5.390625 0 L 58.609375 0 C 61.585938 0 64 2.414062 64 5.390625 L 64 58.609375 C 64 61.585938 61.585938 64 58.609375 64 L 5.390625 64 C 2.414062 64 0 61.585938 0 58.609375 L 0 5.390625 C 0 2.414062 2.414062 0 5.390625 0 Z M 5.390625 0 "/>
</clipPath>
<clipPath id="clip29">
  <path d="M 10 23.332031 L 26.667969 23.332031 L 26.667969 39.332031 L 10 39.332031 Z M 10 23.332031 "/>
</clipPath>
<clipPath id="clip30">
  <path d="M 5.390625 0 L 58.609375 0 C 61.585938 0 64 2.414062 64 5.390625 L 64 58.609375 C 64 61.585938 61.585938 64 58.609375 64 L 5.390625 64 C 2.414062 64 0 61.585938 0 58.609375 L 0 5.390625 C 0 2.414062 2.414062 0 5.390625 0 Z M 5.390625 0 "/>
</clipPath>
<clipPath id="clip31">
  <path d="M 24 25 L 40.667969 25 L 40.667969 41 L 24 41 Z M 24 25 "/>
</clipPath>
<clipPath id="clip32">
  <path d="M 5.390625 0 L 58.609375 0 C 61.585938 0 64 2.414062 64 5.390625 L 64 58.609375 C 64 61.585938 61.585938 64 58.609375 64 L 5.390625 64 C 2.414062 64 0 61.585938 0 58.609375 L 0 5.390625 C 0 2.414062 2.414062 0 5.390625 0 Z M 5.390625 0 "/>
</clipPath>
<clipPath id="clip33">
  <path d="M 0 7.332031 L 14 7.332031 L 14 24 L 0 24 Z M 0 7.332031 "/>
</clipPath>
<clipPath id="clip34">
  <path d="M 5.390625 0 L 58.609375 0 C 61.585938 0 64 2.414062 64 5.390625 L 64 58.609375 C 64 61.585938 61.585938 64 58.609375 64 L 5.390625 64 C 2.414062 64 0 61.585938 0 58.609375 L 0 5.390625 C 0 2.414062 2.414062 0 5.390625 0 Z M 5.390625 0 "/>
</clipPath>
<clipPath id="clip35">
  <path d="M 40 12 L 56.667969 12 L 56.667969 28.667969 L 40 28.667969 Z M 40 12 "/>
</clipPath>
<clipPath id="clip36">
  <path d="M 5.390625 0 L 58.609375 0 C 61.585938 0 64 2.414062 64 5.390625 L 64 58.609375 C 64 61.585938 61.585938 64 58.609375 64 L 5.390625 64 C 2.414062 64 0 61.585938 0 58.609375 L 0 5.390625 C 0 2.414062 2.414062 0 5.390625 0 Z M 5.390625 0 "/>
</clipPath>
<clipPath id="clip37">
  <path d="M 42 0 L 58 0 L 58 14.667969 L 42 14.667969 Z M 42 0 "/>
</clipPath>
<clipPath id="clip38">
  <path d="M 5.390625 0 L 58.609375 0 C 61.585938 0 64 2.414062 64 5.390625 L 64 58.609375 C 64 61.585938 61.585938 64 58.609375 64 L 5.390625 64 C 2.414062 64 0 61.585938 0 58.609375 L 0 5.390625 C 0 2.414062 2.414062 0 5.390625 0 Z M 5.390625 0 "/>
</clipPath>
<clipPath id="clip39">
  <path d="M 0 35.332031 L 10.667969 35.332031 L 10.667969 52 L 0 52 Z M 0 35.332031 "/>
</clipPath>
<clipPath id="clip40">
  <path d="M 5.390625 0 L 58.609375 0 C 61.585938 0 64 2.414062 64 5.390625 L 64 58.609375 C 64 61.585938 61.585938 64 58.609375 64 L 5.390625 64 C 2.414062 64 0 61.585938 0 58.609375 L 0 5.390625 C 0 2.414062 2.414062 0 5.390625 0 Z M 5.390625 0 "/>
</clipPath>
<clipPath id="clip41">
  <path d="M 38.667969 26.667969 L 54.667969 26.667969 L 54.667969 42.667969 L 38.667969 42.667969 Z M 38.667969 26.667969 "/>
</clipPath>
<clipPath id="clip42">
  <path d="M 5.390625 0 L 58.609375 0 C 61.585938 0 64 2.414062 64 5.390625 L 64 58.609375 C 64 61.585938 61.585938 64 58.609375 64 L 5.390625 64 C 2.414062 64 0 61.585938 0 58.609375 L 0 5.390625 C 0 2.414062 2.414062 0 5.390625 0 Z M 5.390625 0 "/>
</clipPath>
<clipPath id="clip43">
  <path d="M 8.667969 37.332031 L 24.667969 37.332031 L 24.667969 54 L 8.667969 54 Z M 8.667969 37.332031 "/>
</clipPath>
<clipPath id="clip44">
  <path d="M 5.390625 0 L 58.609375 0 C 61.585938 0 64 2.414062 64 5.390625 L 64 58.609375 C 64 61.585938 61.585938 64 58.609375 64 L 5.390625 64 C 2.414062 64 0 61.585938 0 58.609375 L 0 5.390625 C 0 2.414062 2.414062 0 5.390625 0 Z M 5.390625 0 "/>
</clipPath>
<clipPath id="clip45">
  <path d="M 37 40.667969 L 53 40.667969 L 53 56.667969 L 37 56.667969 Z M 37 40.667969 "/>
</clipPath>
<clipPath id="clip46">
  <path d="M 5.390625 0 L 58.609375 0 C 61.585938 0 64 2.414062 64 5.390625 L 64 58.609375 C 64 61.585938 61.585938 64 58.609375 64 L 5.390625 64 C 2.414062 64 0 61.585938 0 58.609375 L 0 5.390625 C 0 2.414062 2.414062 0 5.390625 0 Z M 5.390625 0 "/>
</clipPath>
<clipPath id="clip47">
  <path d="M 22.667969 39.332031 L 39 39.332031 L 39 55.332031 L 22.667969 55.332031 Z M 22.667969 39.332031 "/>
</clipPath>
<clipPath id="clip48">
  <path d="M 5.390625 0 L 58.609375 0 C 61.585938 0 64 2.414062 64 5.390625 L 64 58.609375 C 64 61.585938 61.585938 64 58.609375 64 L 5.390625 64 C 2.414062 64 0 61.585938 0 58.609375 L 0 5.390625 C 0 2.414062 2.414062 0 5.390625 0 Z M 5.390625 0 "/>
</clipPath>
<clipPath id="clip49">
  <path d="M 54 14 L 64 14 L 64 30.667969 L 54 30.667969 Z M 54 14 "/>
</clipPath>
<clipPath id="clip50">
  <path d="M 5.390625 0 L 58.609375 0 C 61.585938 0 64 2.414062 64 5.390625 L 64 58.609375 C 64 61.585938 61.585938 64 58.609375 64 L 5.390625 64 C 2.414062 64 0 61.585938 0 58.609375 L 0 5.390625 C 0 2.414062 2.414062 0 5.390625 0 Z M 5.390625 0 "/>
</clipPath>
<clipPath id="clip51">
  <path d="M 56 0 L 64 0 L 64 16 L 56 16 Z M 56 0 "/>
</clipPath>
<clipPath id="clip52">
  <path d="M 5.390625 0 L 58.609375 0 C 61.585938 0 64 2.414062 64 5.390625 L 64 58.609375 C 64 61.585938 61.585938 64 58.609375 64 L 5.390625 64 C 2.414062 64 0 61.585938 0 58.609375 L 0 5.390625 C 0 2.414062 2.414062 0 5.390625 0 Z M 5.390625 0 "/>
</clipPath>
</defs>
<g id="surface1">
<g clip-path="url(#clip1)" clip-rule="nonzero">
<g clip-path="url(#clip2)" clip-rule="nonzero">
<path style=" stroke:none;fill-rule:nonzero;fill:rgb(53.333333%,32.941176%,61.960784%);fill-opacity:1;" d="M 13.742188 9.238281 L 15.402344 -4.902344 L 29.546875 -3.242188 L 27.886719 10.902344 Z M 13.742188 9.238281 "/>
</g>
</g>
<g clip-path="url(#clip3)" clip-rule="nonzero">
<g clip-path="url(#clip4)" clip-rule="nonzero">
<path style=" stroke:none;fill-rule:nonzero;fill:rgb(84.313725%,21.176471%,57.647059%);fill-opacity:1;" d="M -14.542969 5.917969 L -12.882812 -8.226562 L 1.261719 -6.566406 L -0.402344 7.578125 Z M -14.542969 5.917969 "/>
</g>
</g>
<g clip-path="url(#clip5)" clip-rule="nonzero">
<g clip-path="url(#clip6)" clip-rule="nonzero">
<path style=" stroke:none;fill-rule:nonzero;fill:rgb(47.843137%,33.333333%,60.784314%);fill-opacity:1;" d="M -0.40625 7.578125 L 1.253906 -6.566406 L 15.398438 -4.902344 L 13.738281 9.238281 Z M -0.40625 7.578125 "/>
</g>
</g>
<g clip-path="url(#clip7)" clip-rule="nonzero">
<g clip-path="url(#clip8)" clip-rule="nonzero">
<path style=" stroke:none;fill-rule:nonzero;fill:rgb(74.509804%,84.705882%,18.431373%);fill-opacity:1;" d="M 35.332031 69.457031 L 37.039062 55.359375 L 51.136719 57.066406 L 49.429688 71.164062 Z M 35.332031 69.457031 "/>
</g>
</g>
<g clip-path="url(#clip9)" clip-rule="nonzero">
<g clip-path="url(#clip10)" clip-rule="nonzero">
<path style=" stroke:none;fill-rule:nonzero;fill:rgb(93.333333%,90.588235%,15.294118%);fill-opacity:1;" d="M 49.527344 70.796875 L 51.1875 56.652344 L 65.332031 58.316406 L 63.667969 72.457031 Z M 49.527344 70.796875 "/>
</g>
</g>
<g clip-path="url(#clip11)" clip-rule="nonzero">
<g clip-path="url(#clip12)" clip-rule="nonzero">
<path style=" stroke:none;fill-rule:nonzero;fill:rgb(74.509804%,84.705882%,18.431373%);fill-opacity:1;" d="M 51.175781 56.65625 L 52.839844 42.511719 L 66.980469 44.175781 L 65.320312 58.316406 Z M 51.175781 56.65625 "/>
</g>
</g>
<g clip-path="url(#clip13)" clip-rule="nonzero">
<g clip-path="url(#clip14)" clip-rule="nonzero">
<path style=" stroke:none;fill-rule:nonzero;fill:rgb(32.54902%,74.901961%,62.352941%);fill-opacity:1;" d="M 7.101562 65.824219 L 8.761719 51.683594 L 22.90625 53.34375 L 21.246094 67.488281 Z M 7.101562 65.824219 "/>
</g>
</g>
<g clip-path="url(#clip15)" clip-rule="nonzero">
<g clip-path="url(#clip16)" clip-rule="nonzero">
<path style=" stroke:none;fill-rule:nonzero;fill:rgb(50.196078%,76.470588%,25.882353%);fill-opacity:1;" d="M 21.238281 67.496094 L 22.902344 53.351562 L 37.042969 55.011719 L 35.382812 69.15625 Z M 21.238281 67.496094 "/>
</g>
</g>
<g clip-path="url(#clip17)" clip-rule="nonzero">
<g clip-path="url(#clip18)" clip-rule="nonzero">
<path style=" stroke:none;fill-rule:nonzero;fill:rgb(26.27451%,76.078431%,81.960784%);fill-opacity:1;" d="M -7.035156 64.164062 L -5.375 50.019531 L 8.765625 51.683594 L 7.105469 65.824219 Z M -7.035156 64.164062 "/>
</g>
</g>
<g clip-path="url(#clip19)" clip-rule="nonzero">
<g clip-path="url(#clip20)" clip-rule="nonzero">
<path style=" stroke:none;fill-rule:nonzero;fill:rgb(27.843137%,52.941176%,78.039216%);fill-opacity:1;" d="M 27.890625 10.898438 L 29.550781 -3.246094 L 43.695312 -1.582031 L 42.035156 12.558594 Z M 27.890625 10.898438 "/>
</g>
</g>
<g clip-path="url(#clip21)" clip-rule="nonzero">
<g clip-path="url(#clip22)" clip-rule="nonzero">
<path style=" stroke:none;fill-rule:nonzero;fill:rgb(27.843137%,52.941176%,78.039216%);fill-opacity:1;" d="M 12.082031 23.386719 L 13.742188 9.246094 L 27.886719 10.90625 L 26.222656 25.050781 Z M 12.082031 23.386719 "/>
</g>
</g>
<g clip-path="url(#clip23)" clip-rule="nonzero">
<g clip-path="url(#clip24)" clip-rule="nonzero">
<path style=" stroke:none;fill-rule:nonzero;fill:rgb(13.72549%,65.098039%,87.058824%);fill-opacity:1;" d="M 26.230469 25.058594 L 27.890625 10.917969 L 42.035156 12.578125 L 40.371094 26.71875 Z M 26.230469 25.058594 "/>
</g>
</g>
<g clip-path="url(#clip25)" clip-rule="nonzero">
<g clip-path="url(#clip26)" clip-rule="nonzero">
<path style=" stroke:none;fill-rule:nonzero;fill:rgb(21.176471%,35.686275%,66.27451%);fill-opacity:1;" d="M -3.714844 35.867188 L -2.054688 21.722656 L 12.089844 23.386719 L 10.425781 37.527344 Z M -3.714844 35.867188 "/>
</g>
</g>
<g clip-path="url(#clip27)" clip-rule="nonzero">
<g clip-path="url(#clip28)" clip-rule="nonzero">
<path style=" stroke:none;fill-rule:nonzero;fill:rgb(50.196078%,76.470588%,25.882353%);fill-opacity:1;" d="M 52.847656 42.507812 L 54.511719 28.363281 L 68.652344 30.027344 L 66.988281 44.167969 Z M 52.847656 42.507812 "/>
</g>
</g>
<g clip-path="url(#clip29)" clip-rule="nonzero">
<g clip-path="url(#clip30)" clip-rule="nonzero">
<path style=" stroke:none;fill-rule:nonzero;fill:rgb(18.823529%,41.568627%,70.196078%);fill-opacity:1;" d="M 10.421875 37.535156 L 12.082031 23.394531 L 26.226562 25.054688 L 24.566406 39.199219 Z M 10.421875 37.535156 "/>
</g>
</g>
<g clip-path="url(#clip31)" clip-rule="nonzero">
<g clip-path="url(#clip32)" clip-rule="nonzero">
<path style=" stroke:none;fill-rule:nonzero;fill:rgb(14.509804%,72.54902%,86.666667%);fill-opacity:1;" d="M 24.558594 39.199219 L 26.222656 25.054688 L 40.363281 26.714844 L 38.703125 40.855469 Z M 24.558594 39.199219 "/>
</g>
</g>
<g clip-path="url(#clip33)" clip-rule="nonzero">
<g clip-path="url(#clip34)" clip-rule="nonzero">
<path style=" stroke:none;fill-rule:nonzero;fill:rgb(65.098039%,32.941176%,62.745098%);fill-opacity:1;" d="M -2.058594 21.714844 L -0.394531 7.574219 L 13.746094 9.234375 L 12.085938 23.378906 Z M -2.058594 21.714844 "/>
</g>
</g>
<g clip-path="url(#clip35)" clip-rule="nonzero">
<g clip-path="url(#clip36)" clip-rule="nonzero">
<path style=" stroke:none;fill-rule:nonzero;fill:rgb(32.156863%,75.294118%,70.196078%);fill-opacity:1;" d="M 40.371094 26.707031 L 42.03125 12.566406 L 56.175781 14.226562 L 54.511719 28.371094 Z M 40.371094 26.707031 "/>
</g>
</g>
<g clip-path="url(#clip37)" clip-rule="nonzero">
<g clip-path="url(#clip38)" clip-rule="nonzero">
<path style=" stroke:none;fill-rule:nonzero;fill:rgb(14.509804%,72.54902%,86.666667%);fill-opacity:1;" d="M 42.03125 12.558594 L 43.691406 -1.582031 L 57.832031 0.078125 L 56.171875 14.222656 Z M 42.03125 12.558594 "/>
</g>
</g>
<g clip-path="url(#clip39)" clip-rule="nonzero">
<g clip-path="url(#clip40)" clip-rule="nonzero">
<path style=" stroke:none;fill-rule:nonzero;fill:rgb(27.843137%,52.941176%,78.039216%);fill-opacity:1;" d="M -5.386719 50.015625 L -3.726562 35.871094 L 10.417969 37.535156 L 8.753906 51.675781 Z M -5.386719 50.015625 "/>
</g>
</g>
<g clip-path="url(#clip41)" clip-rule="nonzero">
<g clip-path="url(#clip42)" clip-rule="nonzero">
<path style=" stroke:none;fill-rule:nonzero;fill:rgb(32.54902%,74.901961%,62.352941%);fill-opacity:1;" d="M 38.699219 40.847656 L 40.363281 26.703125 L 54.503906 28.363281 L 52.839844 42.507812 Z M 38.699219 40.847656 "/>
</g>
</g>
<g clip-path="url(#clip43)" clip-rule="nonzero">
<g clip-path="url(#clip44)" clip-rule="nonzero">
<path style=" stroke:none;fill-rule:nonzero;fill:rgb(13.72549%,65.098039%,87.058824%);fill-opacity:1;" d="M 8.753906 51.683594 L 10.414062 37.542969 L 24.554688 39.203125 L 22.894531 53.347656 Z M 8.753906 51.683594 "/>
</g>
</g>
<g clip-path="url(#clip45)" clip-rule="nonzero">
<g clip-path="url(#clip46)" clip-rule="nonzero">
<path style=" stroke:none;fill-rule:nonzero;fill:rgb(34.117647%,72.941176%,46.666667%);fill-opacity:1;" d="M 37.039062 55.003906 L 38.699219 40.863281 L 52.839844 42.527344 L 51.179688 56.667969 Z M 37.039062 55.003906 "/>
</g>
</g>
<g clip-path="url(#clip47)" clip-rule="nonzero">
<g clip-path="url(#clip48)" clip-rule="nonzero">
<path style=" stroke:none;fill-rule:nonzero;fill:rgb(32.156863%,75.294118%,70.196078%);fill-opacity:1;" d="M 22.863281 53.554688 L 24.570312 39.457031 L 38.667969 41.167969 L 36.957031 55.261719 Z M 22.863281 53.554688 "/>
</g>
</g>
<g clip-path="url(#clip49)" clip-rule="nonzero">
<g clip-path="url(#clip50)" clip-rule="nonzero">
<path style=" stroke:none;fill-rule:nonzero;fill:rgb(32.54902%,74.901961%,62.352941%);fill-opacity:1;" d="M 54.507812 28.371094 L 56.167969 14.226562 L 70.3125 15.886719 L 68.652344 30.03125 Z M 54.507812 28.371094 "/>
</g>
</g>
<g clip-path="url(#clip51)" clip-rule="nonzero">
<g clip-path="url(#clip52)" clip-rule="nonzero">
<path style=" stroke:none;fill-rule:nonzero;fill:rgb(26.27451%,76.078431%,81.960784%);fill-opacity:1;" d="M 56.167969 14.230469 L 57.832031 0.0859375 L 71.972656 1.746094 L 70.3125 15.890625 Z M 56.167969 14.230469 "/>
</g>
</g>
<path style=" stroke:none;fill-rule:nonzero;fill:rgb(100%,100%,100%);fill-opacity:1;" d="M 39.890625 30.691406 L 32.890625 18.859375 C 32.699219 18.535156 32.351562 18.335938 31.972656 18.335938 C 31.597656 18.335938 31.25 18.535156 31.058594 18.859375 L 24.058594 30.691406 C 21.324219 34.675781 21.988281 40.074219 25.609375 43.273438 C 29.230469 46.476562 34.667969 46.476562 38.289062 43.273438 C 41.910156 40.074219 42.574219 34.675781 39.839844 30.691406 Z M 39.890625 30.691406 "/>
</g>
</svg>
