
<svg xmlns="http://www.w3.org/2000/svg" xmlns:xlink="http://www.w3.org/1999/xlink" width="64px" height="64px" viewBox="0 0 64 64" version="1.1">
<defs>
<linearGradient id="linear0" gradientUnits="userSpaceOnUse" x1="32.85" y1="53" x2="32.85" y2="54.61" gradientTransform="matrix(1,0,0,1,-0.12,0.05)">
<stop offset="0" style="stop-color:rgb(86.27451%,87.058824%,88.627451%);stop-opacity:1;"/>
<stop offset="0.57" style="stop-color:rgb(87.058824%,87.843137%,89.411765%);stop-opacity:1;"/>
<stop offset="0.81" style="stop-color:rgb(89.803922%,90.588235%,91.764706%);stop-opacity:1;"/>
<stop offset="0.99" style="stop-color:rgb(94.901961%,95.294118%,95.686275%);stop-opacity:1;"/>
<stop offset="1" style="stop-color:rgb(95.294118%,95.686275%,96.078431%);stop-opacity:1;"/>
</linearGradient>
</defs>
<g id="surface1">
<path style=" stroke:none;fill-rule:nonzero;fill:rgb(49.411765%,34.117647%,76.862745%);fill-opacity:1;" d="M 5.390625 0 L 58.609375 0 C 61.585938 0 64 2.414062 64 5.390625 L 64 58.609375 C 64 61.585938 61.585938 64 58.609375 64 L 5.390625 64 C 2.414062 64 0 61.585938 0 58.609375 L 0 5.390625 C 0 2.414062 2.414062 0 5.390625 0 Z M 5.390625 0 "/>
<path style=" stroke:none;fill-rule:nonzero;fill:url(#linear0);" d="M 43.878906 54.390625 L 42 54.390625 C 41.1875 54.390625 40.53125 53.730469 40.53125 52.917969 L 40.53125 46.152344 L 25 46.152344 L 25 52.910156 C 25 53.722656 24.339844 54.378906 23.53125 54.378906 L 21.582031 54.378906 C 20.777344 54.378906 20.128906 55.027344 20.128906 55.832031 C 20.128906 56.628906 20.777344 57.28125 21.582031 57.28125 L 43.878906 57.28125 C 44.265625 57.285156 44.636719 57.128906 44.910156 56.859375 C 45.183594 56.585938 45.339844 56.214844 45.339844 55.832031 C 45.332031 55.027344 44.679688 54.386719 43.878906 54.390625 Z M 43.878906 54.390625 "/>
<path style=" stroke:none;fill-rule:nonzero;fill:rgb(92.54902%,25.098039%,47.843137%);fill-opacity:1;" d="M 9.140625 11.859375 L 54.859375 11.859375 C 55.914062 11.859375 56.769531 12.714844 56.769531 13.769531 L 56.769531 43.949219 C 56.769531 45.003906 55.914062 45.859375 54.859375 45.859375 L 9.140625 45.859375 C 8.085938 45.859375 7.230469 45.003906 7.230469 43.949219 L 7.230469 13.769531 C 7.230469 12.714844 8.085938 11.859375 9.140625 11.859375 Z M 9.140625 11.859375 "/>
<path style=" stroke:none;fill-rule:nonzero;fill:rgb(100%,100%,100%);fill-opacity:1;" d="M 54.859375 46.738281 L 9.140625 46.738281 C 7.617188 46.738281 6.378906 45.519531 6.347656 44 L 6.347656 13.769531 C 6.363281 12.238281 7.605469 11 9.140625 11 L 54.859375 11 C 56.402344 11 57.652344 12.25 57.652344 13.789062 L 57.652344 44 C 57.621094 45.519531 56.382812 46.738281 54.859375 46.738281 Z M 9.140625 12.738281 C 8.589844 12.738281 8.140625 13.1875 8.140625 13.738281 L 8.140625 44 C 8.140625 44.550781 8.589844 45 9.140625 45 L 54.859375 45 C 55.410156 45 55.859375 44.550781 55.859375 44 L 55.859375 13.769531 C 55.859375 13.21875 55.410156 12.769531 54.859375 12.769531 Z M 9.140625 12.738281 "/>
<path style=" stroke:none;fill-rule:nonzero;fill:rgb(100%,100%,100%);fill-opacity:1;" d="M 6.597656 42 L 57.308594 42 L 57.308594 44.199219 C 57.308594 45.414062 56.324219 46.402344 55.109375 46.402344 L 8.800781 46.402344 C 7.585938 46.402344 6.597656 45.414062 6.597656 44.199219 Z M 6.597656 42 "/>
<path style=" stroke:none;fill-rule:nonzero;fill:rgb(100%,100%,100%);fill-opacity:1;" d="M 22.78125 34.761719 L 25.25 34.761719 C 25.714844 34.761719 26.089844 35.136719 26.089844 35.597656 L 26.089844 38.070312 C 26.089844 38.535156 25.714844 38.910156 25.25 38.910156 L 22.78125 38.910156 C 22.316406 38.910156 21.941406 38.535156 21.941406 38.070312 L 21.941406 35.597656 C 21.941406 35.136719 22.316406 34.761719 22.78125 34.761719 Z M 22.78125 34.761719 "/>
<path style=" stroke:none;fill-rule:nonzero;fill:rgb(100%,100%,100%);fill-opacity:1;" d="M 28.097656 34.761719 L 30.570312 34.761719 C 31.035156 34.761719 31.410156 35.136719 31.410156 35.597656 L 31.410156 38.070312 C 31.410156 38.535156 31.035156 38.910156 30.570312 38.910156 L 28.097656 38.910156 C 27.636719 38.910156 27.261719 38.535156 27.261719 38.070312 L 27.261719 35.597656 C 27.261719 35.136719 27.636719 34.761719 28.097656 34.761719 Z M 28.097656 34.761719 "/>
<path style=" stroke:none;fill-rule:nonzero;fill:rgb(100%,100%,100%);fill-opacity:1;" d="M 33.429688 34.761719 L 35.902344 34.761719 C 36.363281 34.761719 36.738281 35.136719 36.738281 35.597656 L 36.738281 38.070312 C 36.738281 38.535156 36.363281 38.910156 35.902344 38.910156 L 33.429688 38.910156 C 32.964844 38.910156 32.589844 38.535156 32.589844 38.070312 L 32.589844 35.597656 C 32.589844 35.136719 32.964844 34.761719 33.429688 34.761719 Z M 33.429688 34.761719 "/>
<path style=" stroke:none;fill-rule:nonzero;fill:rgb(100%,100%,100%);fill-opacity:1;" d="M 38.75 34.761719 L 41.21875 34.761719 C 41.683594 34.761719 42.058594 35.136719 42.058594 35.597656 L 42.058594 38.070312 C 42.058594 38.535156 41.683594 38.910156 41.21875 38.910156 L 38.75 38.910156 C 38.285156 38.910156 37.910156 38.535156 37.910156 38.070312 L 37.910156 35.597656 C 37.910156 35.136719 38.285156 34.761719 38.75 34.761719 Z M 38.75 34.761719 "/>
</g>
</svg>
