
<svg xmlns="http://www.w3.org/2000/svg" xmlns:xlink="http://www.w3.org/1999/xlink" width="64px" height="64px" viewBox="0 0 64 64" version="1.1">
<defs>
<linearGradient id="linear0" gradientUnits="userSpaceOnUse" x1="32.86" y1="52.99" x2="32.86" y2="54.6" gradientTransform="matrix(1,0,0,1,-0.13,0.05)">
<stop offset="0" style="stop-color:rgb(86.27451%,87.058824%,88.627451%);stop-opacity:1;"/>
<stop offset="0.57" style="stop-color:rgb(87.058824%,87.843137%,89.411765%);stop-opacity:1;"/>
<stop offset="0.81" style="stop-color:rgb(89.803922%,90.588235%,91.764706%);stop-opacity:1;"/>
<stop offset="0.99" style="stop-color:rgb(94.901961%,95.294118%,95.686275%);stop-opacity:1;"/>
<stop offset="1" style="stop-color:rgb(95.294118%,95.686275%,96.078431%);stop-opacity:1;"/>
</linearGradient>
</defs>
<g id="surface1">
<path style=" stroke:none;fill-rule:nonzero;fill:rgb(36.078431%,41.960784%,75.294118%);fill-opacity:1;" d="M 5.390625 0 L 58.609375 0 C 61.585938 0 64 2.414062 64 5.390625 L 64 58.609375 C 64 61.585938 61.585938 64 58.609375 64 L 5.390625 64 C 2.414062 64 0 61.585938 0 58.609375 L 0 5.390625 C 0 2.414062 2.414062 0 5.390625 0 Z M 5.390625 0 "/>
<path style=" stroke:none;fill-rule:nonzero;fill:url(#linear0);" d="M 43.878906 54.390625 L 42 54.390625 C 41.1875 54.390625 40.53125 53.730469 40.53125 52.917969 L 40.53125 46.152344 L 25 46.152344 L 25 52.910156 C 25 53.722656 24.339844 54.378906 23.53125 54.378906 L 21.582031 54.378906 C 20.777344 54.378906 20.128906 55.027344 20.128906 55.832031 C 20.128906 56.628906 20.777344 57.28125 21.582031 57.28125 L 43.878906 57.28125 C 44.265625 57.285156 44.636719 57.128906 44.910156 56.859375 C 45.183594 56.585938 45.339844 56.214844 45.339844 55.832031 C 45.332031 55.027344 44.679688 54.386719 43.878906 54.390625 Z M 43.878906 54.390625 "/>
<path style=" stroke:none;fill-rule:nonzero;fill:rgb(16.078431%,71.372549%,96.470588%);fill-opacity:1;" d="M 9.140625 11.859375 L 54.859375 11.859375 C 55.914062 11.859375 56.769531 12.714844 56.769531 13.769531 L 56.769531 43.949219 C 56.769531 45.003906 55.914062 45.859375 54.859375 45.859375 L 9.140625 45.859375 C 8.085938 45.859375 7.230469 45.003906 7.230469 43.949219 L 7.230469 13.769531 C 7.230469 12.714844 8.085938 11.859375 9.140625 11.859375 Z M 9.140625 11.859375 "/>
<path style=" stroke:none;fill-rule:nonzero;fill:rgb(100%,100%,100%);fill-opacity:1;" d="M 54.859375 46.738281 L 9.140625 46.738281 C 7.617188 46.738281 6.378906 45.519531 6.347656 44 L 6.347656 13.769531 C 6.363281 12.238281 7.605469 11 9.140625 11 L 54.859375 11 C 56.402344 11 57.652344 12.25 57.652344 13.789062 L 57.652344 44 C 57.621094 45.519531 56.382812 46.738281 54.859375 46.738281 Z M 9.140625 12.738281 C 8.589844 12.738281 8.140625 13.1875 8.140625 13.738281 L 8.140625 44 C 8.140625 44.550781 8.589844 45 9.140625 45 L 54.859375 45 C 55.410156 45 55.859375 44.550781 55.859375 44 L 55.859375 13.769531 C 55.859375 13.21875 55.410156 12.769531 54.859375 12.769531 Z M 9.140625 12.738281 "/>
<path style=" stroke:none;fill-rule:nonzero;fill:rgb(100%,100%,100%);fill-opacity:1;" d="M 6.597656 42 L 57.308594 42 L 57.308594 44.199219 C 57.308594 45.414062 56.324219 46.402344 55.109375 46.402344 L 8.800781 46.402344 C 7.585938 46.402344 6.597656 45.414062 6.597656 44.199219 Z M 6.597656 42 "/>
<path style=" stroke:none;fill-rule:nonzero;fill:rgb(100%,100%,100%);fill-opacity:1;" d="M 41.371094 25.890625 C 41.148438 25.699219 40.863281 25.605469 40.570312 25.628906 C 39.707031 25.695312 38.902344 25.199219 38.570312 24.402344 C 38.230469 23.621094 38.402344 22.714844 39 22.109375 C 39.578125 21.527344 39.578125 20.582031 39 20 C 38.738281 19.730469 38.378906 19.574219 38 19.570312 C 37.582031 19.578125 37.175781 19.734375 36.859375 20.011719 C 36.441406 20.355469 35.921875 20.546875 35.378906 20.558594 C 35.160156 20.5625 34.941406 20.519531 34.738281 20.441406 C 34.035156 20.097656 33.558594 19.417969 33.480469 18.640625 C 33.515625 17.878906 32.972656 17.214844 32.21875 17.097656 L 31.699219 17.097656 C 31 17.230469 30.496094 17.847656 30.519531 18.558594 C 30.558594 19.398438 30.074219 20.175781 29.300781 20.5 C 29.035156 20.605469 28.753906 20.667969 28.46875 20.667969 C 27.925781 20.667969 27.402344 20.464844 27 20.097656 C 26.703125 19.824219 26.316406 19.667969 25.910156 19.660156 C 25.535156 19.660156 25.175781 19.8125 24.910156 20.082031 C 24.332031 20.660156 24.332031 21.589844 24.910156 22.167969 C 25.496094 22.746094 25.691406 23.613281 25.402344 24.378906 C 25.113281 25.179688 24.347656 25.707031 23.5 25.699219 C 22.761719 25.691406 22.128906 26.214844 22 26.941406 L 22 27.410156 C 22.019531 27.488281 22.046875 27.566406 22.082031 27.640625 C 22.277344 28.230469 22.820312 28.628906 23.441406 28.640625 C 24.308594 28.539062 25.136719 29.011719 25.496094 29.808594 C 25.851562 30.605469 25.652344 31.539062 25 32.121094 C 24.457031 32.703125 24.457031 33.605469 25 34.191406 C 25.265625 34.457031 25.625 34.613281 26 34.621094 C 26.367188 34.609375 26.722656 34.472656 27 34.230469 C 27.402344 33.832031 27.941406 33.597656 28.511719 33.582031 C 28.753906 33.578125 29 33.621094 29.230469 33.710938 C 30.03125 34.019531 30.558594 34.792969 30.558594 35.652344 C 30.5625 36.375 31.085938 36.996094 31.800781 37.121094 L 32.167969 37.121094 L 32.402344 37 C 32.699219 36.851562 32.984375 36.675781 33.25 36.46875 C 33.449219 36.199219 33.550781 35.875 33.539062 35.539062 C 33.601562 34.789062 34.019531 34.113281 34.667969 33.730469 C 34.902344 33.609375 35.167969 33.546875 35.429688 33.550781 C 35.964844 33.566406 36.484375 33.757812 36.902344 34.097656 C 37.21875 34.375 37.621094 34.527344 38.039062 34.539062 C 38.414062 34.535156 38.769531 34.390625 39.039062 34.128906 C 39.621094 33.527344 39.621094 32.574219 39.039062 31.96875 C 38.621094 31.449219 38.4375 30.777344 38.539062 30.121094 C 38.746094 29.273438 39.480469 28.660156 40.347656 28.597656 C 41.136719 28.660156 41.847656 28.125 42 27.347656 L 42 27 L 41.878906 26.769531 C 41.742188 26.460938 41.570312 26.164062 41.371094 25.890625 Z M 32.011719 30.890625 C 30.488281 30.894531 29.113281 29.980469 28.527344 28.574219 C 27.941406 27.167969 28.265625 25.546875 29.339844 24.472656 C 30.417969 23.394531 32.035156 23.074219 33.441406 23.660156 C 34.847656 24.242188 35.761719 25.617188 35.761719 27.140625 C 35.722656 29.195312 34.054688 30.84375 32 30.859375 Z M 32.011719 30.890625 "/>
<path style=" stroke:none;fill-rule:nonzero;fill:rgb(100%,100%,100%);fill-opacity:1;" d="M 32 25.167969 C 31.214844 25.160156 30.496094 25.628906 30.191406 26.355469 C 29.886719 27.082031 30.050781 27.917969 30.605469 28.480469 C 31.160156 29.035156 31.996094 29.203125 32.722656 28.902344 C 33.449219 28.597656 33.925781 27.886719 33.917969 27.097656 C 33.886719 26.050781 33.046875 25.210938 32 25.167969 Z M 32 25.167969 "/>
</g>
</svg>
