
<svg xmlns="http://www.w3.org/2000/svg" xmlns:xlink="http://www.w3.org/1999/xlink" width="64px" height="64px" viewBox="0 0 64 64" version="1.1">
<defs>
<clipPath id="clip1">
  <path d="M 31 8.667969 L 32.667969 8.667969 L 32.667969 15 L 31 15 Z M 31 8.667969 "/>
</clipPath>
<clipPath id="clip2">
  <path d="M 55.269531 32 C 55.269531 44.851562 44.851562 55.269531 32 55.269531 C 19.148438 55.269531 8.730469 44.851562 8.730469 32 C 8.730469 19.148438 19.148438 8.730469 32 8.730469 C 44.851562 8.730469 55.269531 19.148438 55.269531 32 Z M 55.269531 32 "/>
</clipPath>
<clipPath id="clip3">
  <path d="M 31 49 L 32.667969 49 L 32.667969 55.332031 L 31 55.332031 Z M 31 49 "/>
</clipPath>
<clipPath id="clip4">
  <path d="M 55.269531 32 C 55.269531 44.851562 44.851562 55.269531 32 55.269531 C 19.148438 55.269531 8.730469 44.851562 8.730469 32 C 8.730469 19.148438 19.148438 8.730469 32 8.730469 C 44.851562 8.730469 55.269531 19.148438 55.269531 32 Z M 55.269531 32 "/>
</clipPath>
<clipPath id="clip5">
  <path d="M 48.667969 31.332031 L 55.332031 31.332031 L 55.332031 33 L 48.667969 33 Z M 48.667969 31.332031 "/>
</clipPath>
<clipPath id="clip6">
  <path d="M 55.269531 32 C 55.269531 44.851562 44.851562 55.269531 32 55.269531 C 19.148438 55.269531 8.730469 44.851562 8.730469 32 C 8.730469 19.148438 19.148438 8.730469 32 8.730469 C 44.851562 8.730469 55.269531 19.148438 55.269531 32 Z M 55.269531 32 "/>
</clipPath>
<clipPath id="clip7">
  <path d="M 8.667969 31.332031 L 14.667969 31.332031 L 14.667969 32.667969 L 8.667969 32.667969 Z M 8.667969 31.332031 "/>
</clipPath>
<clipPath id="clip8">
  <path d="M 55.269531 32 C 55.269531 44.851562 44.851562 55.269531 32 55.269531 C 19.148438 55.269531 8.730469 44.851562 8.730469 32 C 8.730469 19.148438 19.148438 8.730469 32 8.730469 C 44.851562 8.730469 55.269531 19.148438 55.269531 32 Z M 55.269531 32 "/>
</clipPath>
<clipPath id="clip9">
  <path d="M 48 41.332031 L 55.332031 41.332031 L 55.332031 49 L 48 49 Z M 48 41.332031 "/>
</clipPath>
<clipPath id="clip10">
  <path d="M 55.269531 32 C 55.269531 44.851562 44.851562 55.269531 32 55.269531 C 19.148438 55.269531 8.730469 44.851562 8.730469 32 C 8.730469 19.148438 19.148438 8.730469 32 8.730469 C 44.851562 8.730469 55.269531 19.148438 55.269531 32 Z M 55.269531 32 "/>
</clipPath>
<clipPath id="clip11">
  <path d="M 8.667969 15 L 15 15 L 15 22.667969 L 8.667969 22.667969 Z M 8.667969 15 "/>
</clipPath>
<clipPath id="clip12">
  <path d="M 55.269531 32 C 55.269531 44.851562 44.851562 55.269531 32 55.269531 C 19.148438 55.269531 8.730469 44.851562 8.730469 32 C 8.730469 19.148438 19.148438 8.730469 32 8.730469 C 44.851562 8.730469 55.269531 19.148438 55.269531 32 Z M 55.269531 32 "/>
</clipPath>
<clipPath id="clip13">
  <path d="M 40 49 L 47 49 L 47 55.332031 L 40 55.332031 Z M 40 49 "/>
</clipPath>
<clipPath id="clip14">
  <path d="M 55.269531 32 C 55.269531 44.851562 44.851562 55.269531 32 55.269531 C 19.148438 55.269531 8.730469 44.851562 8.730469 32 C 8.730469 19.148438 19.148438 8.730469 32 8.730469 C 44.851562 8.730469 55.269531 19.148438 55.269531 32 Z M 55.269531 32 "/>
</clipPath>
<clipPath id="clip15">
  <path d="M 16 8.667969 L 23.332031 8.667969 L 23.332031 15 L 16 15 Z M 16 8.667969 "/>
</clipPath>
<clipPath id="clip16">
  <path d="M 55.269531 32 C 55.269531 44.851562 44.851562 55.269531 32 55.269531 C 19.148438 55.269531 8.730469 44.851562 8.730469 32 C 8.730469 19.148438 19.148438 8.730469 32 8.730469 C 44.851562 8.730469 55.269531 19.148438 55.269531 32 Z M 55.269531 32 "/>
</clipPath>
<clipPath id="clip17">
  <path d="M 8.667969 41.332031 L 15 41.332031 L 15 49 L 8.667969 49 Z M 8.667969 41.332031 "/>
</clipPath>
<clipPath id="clip18">
  <path d="M 55.269531 32 C 55.269531 44.851562 44.851562 55.269531 32 55.269531 C 19.148438 55.269531 8.730469 44.851562 8.730469 32 C 8.730469 19.148438 19.148438 8.730469 32 8.730469 C 44.851562 8.730469 55.269531 19.148438 55.269531 32 Z M 55.269531 32 "/>
</clipPath>
<clipPath id="clip19">
  <path d="M 48 15 L 55.332031 15 L 55.332031 22.667969 L 48 22.667969 Z M 48 15 "/>
</clipPath>
<clipPath id="clip20">
  <path d="M 55.269531 32 C 55.269531 44.851562 44.851562 55.269531 32 55.269531 C 19.148438 55.269531 8.730469 44.851562 8.730469 32 C 8.730469 19.148438 19.148438 8.730469 32 8.730469 C 44.851562 8.730469 55.269531 19.148438 55.269531 32 Z M 55.269531 32 "/>
</clipPath>
<clipPath id="clip21">
  <path d="M 16 49 L 23.332031 49 L 23.332031 55.332031 L 16 55.332031 Z M 16 49 "/>
</clipPath>
<clipPath id="clip22">
  <path d="M 55.269531 32 C 55.269531 44.851562 44.851562 55.269531 32 55.269531 C 19.148438 55.269531 8.730469 44.851562 8.730469 32 C 8.730469 19.148438 19.148438 8.730469 32 8.730469 C 44.851562 8.730469 55.269531 19.148438 55.269531 32 Z M 55.269531 32 "/>
</clipPath>
<clipPath id="clip23">
  <path d="M 40 8.667969 L 47 8.667969 L 47 15 L 40 15 Z M 40 8.667969 "/>
</clipPath>
<clipPath id="clip24">
  <path d="M 55.269531 32 C 55.269531 44.851562 44.851562 55.269531 32 55.269531 C 19.148438 55.269531 8.730469 44.851562 8.730469 32 C 8.730469 19.148438 19.148438 8.730469 32 8.730469 C 44.851562 8.730469 55.269531 19.148438 55.269531 32 Z M 55.269531 32 "/>
</clipPath>
</defs>
<g id="surface1">
<path style=" stroke:none;fill-rule:nonzero;fill:rgb(91.764706%,92.156863%,93.72549%);fill-opacity:1;" d="M 5.390625 0 L 58.609375 0 C 61.585938 0 64 2.414062 64 5.390625 L 64 58.609375 C 64 61.585938 61.585938 64 58.609375 64 L 5.390625 64 C 2.414062 64 0 61.585938 0 58.609375 L 0 5.390625 C 0 2.414062 2.414062 0 5.390625 0 Z M 5.390625 0 "/>
<path style=" stroke:none;fill-rule:nonzero;fill:rgb(49.411765%,34.117647%,76.862745%);fill-opacity:1;" d="M 55.269531 32 C 55.269531 44.851562 44.851562 55.269531 32 55.269531 C 19.148438 55.269531 8.730469 44.851562 8.730469 32 C 8.730469 19.148438 19.148438 8.730469 32 8.730469 C 44.851562 8.730469 55.269531 19.148438 55.269531 32 Z M 55.269531 32 "/>
<path style=" stroke:none;fill-rule:nonzero;fill:rgb(100%,100%,100%);fill-opacity:1;" d="M 31.769531 18.628906 C 32.183594 18.628906 32.519531 18.964844 32.519531 19.378906 L 32.519531 31.429688 C 32.519531 31.84375 32.183594 32.179688 31.769531 32.179688 C 31.355469 32.179688 31.019531 31.84375 31.019531 31.429688 L 31.019531 19.378906 C 31.019531 18.964844 31.355469 18.628906 31.769531 18.628906 Z M 31.769531 18.628906 "/>
<path style=" stroke:none;fill-rule:nonzero;fill:rgb(100%,40%,84.313725%);fill-opacity:1;" d="M 32.363281 32.097656 L 44.765625 44.496094 C 44.898438 44.628906 44.898438 44.847656 44.765625 44.980469 C 44.632812 45.113281 44.417969 45.113281 44.285156 44.980469 L 31.878906 32.578125 C 31.746094 32.445312 31.746094 32.230469 31.878906 32.097656 C 32.011719 31.964844 32.230469 31.964844 32.363281 32.097656 Z M 32.363281 32.097656 "/>
<path style=" stroke:none;fill-rule:nonzero;fill:rgb(100%,100%,100%);fill-opacity:1;" d="M 33.160156 32 C 33.160156 32.722656 32.574219 33.308594 31.847656 33.308594 C 31.128906 33.308594 30.539062 32.722656 30.539062 32 C 30.539062 31.277344 31.128906 30.691406 31.847656 30.691406 C 32.574219 30.691406 33.160156 31.277344 33.160156 32 Z M 33.160156 32 "/>
<g clip-path="url(#clip1)" clip-rule="nonzero">
<g clip-path="url(#clip2)" clip-rule="nonzero">
<path style=" stroke:none;fill-rule:nonzero;fill:rgb(100%,100%,100%);fill-opacity:1;" d="M 31.769531 2.910156 C 32.136719 2.910156 32.429688 3.207031 32.429688 3.570312 L 32.429688 14.191406 C 32.429688 14.554688 32.136719 14.847656 31.769531 14.847656 C 31.40625 14.847656 31.109375 14.554688 31.109375 14.191406 L 31.109375 3.570312 C 31.109375 3.207031 31.40625 2.910156 31.769531 2.910156 Z M 31.769531 2.910156 "/>
</g>
</g>
<g clip-path="url(#clip3)" clip-rule="nonzero">
<g clip-path="url(#clip4)" clip-rule="nonzero">
<path style=" stroke:none;fill-rule:nonzero;fill:rgb(100%,100%,100%);fill-opacity:1;" d="M 31.769531 49.152344 C 32.136719 49.152344 32.429688 49.445312 32.429688 49.808594 L 32.429688 60.429688 C 32.429688 60.792969 32.136719 61.089844 31.769531 61.089844 C 31.40625 61.089844 31.109375 60.792969 31.109375 60.429688 L 31.109375 49.808594 C 31.109375 49.445312 31.40625 49.152344 31.769531 49.152344 Z M 31.769531 49.152344 "/>
</g>
</g>
<g clip-path="url(#clip5)" clip-rule="nonzero">
<g clip-path="url(#clip6)" clip-rule="nonzero">
<path style=" stroke:none;fill-rule:nonzero;fill:rgb(100%,100%,100%);fill-opacity:1;" d="M 60.859375 32.011719 C 60.859375 32.375 60.566406 32.667969 60.199219 32.667969 L 49.582031 32.667969 C 49.214844 32.667969 48.917969 32.375 48.917969 32.011719 C 48.917969 31.644531 49.214844 31.347656 49.582031 31.347656 L 60.199219 31.347656 C 60.566406 31.347656 60.859375 31.644531 60.859375 32.011719 Z M 60.859375 32.011719 "/>
</g>
</g>
<g clip-path="url(#clip7)" clip-rule="nonzero">
<g clip-path="url(#clip8)" clip-rule="nonzero">
<path style=" stroke:none;fill-rule:nonzero;fill:rgb(100%,100%,100%);fill-opacity:1;" d="M 14.621094 32 C 14.621094 32.363281 14.324219 32.660156 13.960938 32.660156 L 3.339844 32.660156 C 2.976562 32.660156 2.679688 32.363281 2.679688 32 C 2.679688 31.636719 2.976562 31.339844 3.339844 31.339844 L 13.960938 31.339844 C 14.324219 31.339844 14.621094 31.636719 14.621094 32 Z M 14.621094 32 "/>
</g>
</g>
<g clip-path="url(#clip9)" clip-rule="nonzero">
<g clip-path="url(#clip10)" clip-rule="nonzero">
<path style=" stroke:none;fill-rule:nonzero;fill:rgb(100%,100%,100%);fill-opacity:1;" d="M 60.292969 48.640625 C 60.222656 48.757812 60.074219 48.796875 59.953125 48.726562 L 48.683594 42.148438 C 48.5625 42.078125 48.523438 41.925781 48.589844 41.8125 C 48.660156 41.695312 48.808594 41.65625 48.929688 41.726562 L 60.199219 48.304688 C 60.320312 48.371094 60.363281 48.527344 60.292969 48.640625 Z M 60.292969 48.640625 "/>
</g>
</g>
<g clip-path="url(#clip11)" clip-rule="nonzero">
<g clip-path="url(#clip12)" clip-rule="nonzero">
<path style=" stroke:none;fill-rule:nonzero;fill:rgb(100%,100%,100%);fill-opacity:1;" d="M 14.953125 22.191406 C 14.886719 22.308594 14.730469 22.347656 14.613281 22.277344 L 3.34375 15.699219 C 3.222656 15.628906 3.183594 15.476562 3.25 15.363281 C 3.316406 15.246094 3.472656 15.207031 3.589844 15.277344 L 14.859375 21.855469 C 14.980469 21.921875 15.019531 22.074219 14.953125 22.191406 Z M 14.953125 22.191406 "/>
</g>
</g>
<g clip-path="url(#clip13)" clip-rule="nonzero">
<g clip-path="url(#clip14)" clip-rule="nonzero">
<path style=" stroke:none;fill-rule:nonzero;fill:rgb(100%,100%,100%);fill-opacity:1;" d="M 46.804688 61.410156 C 46.683594 61.472656 46.535156 61.425781 46.472656 61.300781 L 40.535156 49.675781 C 40.472656 49.554688 40.519531 49.40625 40.644531 49.34375 C 40.761719 49.285156 40.910156 49.332031 40.972656 49.457031 L 46.910156 61.078125 C 46.972656 61.199219 46.925781 61.351562 46.804688 61.410156 Z M 46.804688 61.410156 "/>
</g>
</g>
<g clip-path="url(#clip15)" clip-rule="nonzero">
<g clip-path="url(#clip16)" clip-rule="nonzero">
<path style=" stroke:none;fill-rule:nonzero;fill:rgb(100%,100%,100%);fill-opacity:1;" d="M 22.910156 14.679688 C 22.785156 14.738281 22.636719 14.691406 22.574219 14.566406 L 16.640625 2.945312 C 16.578125 2.824219 16.625 2.671875 16.746094 2.613281 C 16.867188 2.550781 17.015625 2.597656 17.078125 2.722656 L 23.011719 14.347656 C 23.074219 14.46875 23.027344 14.617188 22.910156 14.679688 Z M 22.910156 14.679688 "/>
</g>
</g>
<g clip-path="url(#clip17)" clip-rule="nonzero">
<g clip-path="url(#clip18)" clip-rule="nonzero">
<path style=" stroke:none;fill-rule:nonzero;fill:rgb(100%,100%,100%);fill-opacity:1;" d="M 14.957031 41.808594 C 15.027344 41.925781 14.984375 42.074219 14.863281 42.144531 L 3.59375 48.722656 C 3.472656 48.792969 3.324219 48.753906 3.253906 48.636719 C 3.183594 48.519531 3.226562 48.371094 3.347656 48.300781 L 14.617188 41.722656 C 14.738281 41.652344 14.886719 41.691406 14.957031 41.808594 Z M 14.957031 41.808594 "/>
</g>
</g>
<g clip-path="url(#clip19)" clip-rule="nonzero">
<g clip-path="url(#clip20)" clip-rule="nonzero">
<path style=" stroke:none;fill-rule:nonzero;fill:rgb(100%,100%,100%);fill-opacity:1;" d="M 60.109375 15.121094 C 60.175781 15.234375 60.136719 15.386719 60.015625 15.457031 L 48.792969 21.980469 C 48.675781 22.050781 48.523438 22.011719 48.457031 21.894531 C 48.386719 21.777344 48.429688 21.628906 48.550781 21.558594 L 59.769531 15.035156 C 59.890625 14.964844 60.042969 15.003906 60.109375 15.121094 Z M 60.109375 15.121094 "/>
</g>
</g>
<g clip-path="url(#clip21)" clip-rule="nonzero">
<g clip-path="url(#clip22)" clip-rule="nonzero">
<path style=" stroke:none;fill-rule:nonzero;fill:rgb(100%,100%,100%);fill-opacity:1;" d="M 22.902344 49.339844 C 23.027344 49.402344 23.074219 49.550781 23.011719 49.675781 L 17.074219 61.296875 C 17.011719 61.417969 16.863281 61.46875 16.742188 61.40625 C 16.621094 61.347656 16.574219 61.195312 16.636719 61.074219 L 22.574219 49.449219 C 22.636719 49.328125 22.785156 49.277344 22.902344 49.339844 Z M 22.902344 49.339844 "/>
</g>
</g>
<g clip-path="url(#clip23)" clip-rule="nonzero">
<g clip-path="url(#clip24)" clip-rule="nonzero">
<path style=" stroke:none;fill-rule:nonzero;fill:rgb(100%,100%,100%);fill-opacity:1;" d="M 46.789062 2.601562 C 46.910156 2.664062 46.957031 2.8125 46.894531 2.9375 L 40.957031 14.558594 C 40.894531 14.683594 40.746094 14.730469 40.625 14.667969 C 40.503906 14.609375 40.457031 14.457031 40.519531 14.335938 L 46.457031 2.714844 C 46.519531 2.589844 46.667969 2.542969 46.789062 2.601562 Z M 46.789062 2.601562 "/>
</g>
</g>
</g>
</svg>
