
<svg xmlns="http://www.w3.org/2000/svg" xmlns:xlink="http://www.w3.org/1999/xlink" width="64px" height="64px" viewBox="0 0 64 64" version="1.1">
<g id="surface1">
<path style=" stroke:none;fill-rule:nonzero;fill:rgb(79.607843%,79.607843%,79.607843%);fill-opacity:1;" d="M 64 32 L 64 5.390625 C 64 2.414062 61.585938 0 58.609375 0 L 32 0 L 32 32 Z M 64 32 "/>
<path style=" stroke:none;fill-rule:nonzero;fill:rgb(49.411765%,34.117647%,76.862745%);fill-opacity:1;" d="M 41.539062 15.441406 C 41.265625 14.050781 40.207031 12.945312 38.832031 12.613281 C 37.453125 12.277344 36.007812 12.777344 35.128906 13.890625 C 34.808594 14.316406 34.3125 14.570312 33.78125 14.582031 L 33.332031 14.582031 C 32.59375 14.574219 32 13.976562 32 13.238281 L 32 0 L 5.390625 0 C 2.414062 0 0 2.414062 0 5.390625 L 0 32 L 32 32 L 32 19 C 32 18.265625 32.597656 17.667969 33.332031 17.667969 L 33.78125 17.667969 C 34.3125 17.679688 34.808594 17.933594 35.128906 18.359375 C 36.171875 19.695312 37.996094 20.132812 39.53125 19.414062 C 41.066406 18.699219 41.898438 17.015625 41.539062 15.359375 Z M 41.539062 15.441406 "/>
<path style=" stroke:none;fill-rule:nonzero;fill:rgb(91.764706%,92.156863%,93.72549%);fill-opacity:1;" d="M 17.121094 31 L 17.121094 29.667969 C 17.128906 29.136719 17.386719 28.640625 17.808594 28.320312 C 19.144531 27.277344 19.582031 25.453125 18.863281 23.917969 C 18.148438 22.386719 16.464844 21.550781 14.808594 21.910156 C 13.417969 22.183594 12.316406 23.242188 11.980469 24.621094 C 11.648438 25.996094 12.148438 27.441406 13.261719 28.320312 C 13.703125 28.628906 13.980469 29.128906 14 29.667969 L 14 30.859375 C 14.042969 31.148438 13.953125 31.441406 13.761719 31.660156 C 13.570312 31.878906 13.292969 32.003906 13 32 L 0 32 L 0 58.609375 C 0 61.585938 2.414062 64 5.390625 64 L 32 64 L 32 32 L 18.089844 32 C 17.550781 31.984375 17.121094 31.542969 17.121094 31 Z M 17.121094 31 "/>
<path style=" stroke:none;fill-rule:nonzero;fill:rgb(92.54902%,25.098039%,47.843137%);fill-opacity:1;" d="M 49.769531 30.71875 L 49.769531 29.582031 C 49.78125 29.046875 50.042969 28.546875 50.46875 28.230469 C 51.804688 27.1875 52.242188 25.363281 51.527344 23.828125 C 50.808594 22.296875 49.125 21.464844 47.46875 21.820312 C 46.089844 22.117188 45.011719 23.183594 44.695312 24.558594 C 44.378906 25.929688 44.886719 27.363281 46 28.230469 C 46.425781 28.550781 46.683594 29.046875 46.691406 29.582031 L 46.691406 30.582031 C 46.722656 30.949219 46.597656 31.3125 46.34375 31.582031 C 46.09375 31.851562 45.738281 32.003906 45.371094 32 L 32 32 L 32 45 C 32 45.707031 31.425781 46.28125 30.71875 46.28125 L 29.640625 46.28125 C 29.105469 46.265625 28.605469 46.007812 28.28125 45.582031 C 27.285156 44.339844 25.605469 43.894531 24.128906 44.46875 C 22.652344 45.042969 21.71875 46.515625 21.824219 48.097656 C 21.933594 49.679688 23.058594 51.011719 24.597656 51.378906 C 25.976562 51.699219 27.414062 51.199219 28.289062 50.089844 C 28.609375 49.664062 29.105469 49.410156 29.640625 49.402344 L 30.589844 49.402344 C 30.941406 49.375 31.292969 49.496094 31.558594 49.730469 C 31.824219 49.964844 31.980469 50.296875 32 50.652344 L 32 64 L 58.609375 64 C 61.585938 64 64 61.585938 64 58.609375 L 64 32 L 51 32 C 50.3125 31.972656 49.769531 31.410156 49.769531 30.71875 Z M 49.769531 30.71875 "/>
</g>
</svg>
