
<svg xmlns="http://www.w3.org/2000/svg" xmlns:xlink="http://www.w3.org/1999/xlink" width="64px" height="64px" viewBox="0 0 64 64" version="1.1">
<g id="surface1">
<path style=" stroke:none;fill-rule:nonzero;fill:rgb(92.54902%,25.098039%,47.843137%);fill-opacity:1;" d="M 5.390625 0 L 58.609375 0 C 61.585938 0 64 2.414062 64 5.390625 L 64 58.609375 C 64 61.585938 61.585938 64 58.609375 64 L 5.390625 64 C 2.414062 64 0 61.585938 0 58.609375 L 0 5.390625 C 0 2.414062 2.414062 0 5.390625 0 Z M 5.390625 0 "/>
<path style=" stroke:none;fill-rule:nonzero;fill:rgb(100%,100%,100%);fill-opacity:1;" d="M 32.121094 16.089844 C 32.082031 16.039062 32.050781 15.988281 32.019531 15.929688 L 32.019531 15.839844 L 32.019531 15.890625 L 32.019531 15.839844 L 32.019531 15.929688 C 31.679688 16.691406 27.019531 21.730469 17.441406 22.761719 C 17.296875 25.707031 17.667969 28.652344 18.53125 31.46875 L 32.121094 31.46875 Z M 32.121094 16.089844 "/>
<path style=" stroke:none;fill-rule:nonzero;fill:rgb(16.078431%,71.372549%,96.470588%);fill-opacity:1;" d="M 32.121094 48.082031 C 38.601562 44.527344 43.414062 38.558594 45.511719 31.46875 L 32.121094 31.46875 Z M 32.121094 48.082031 "/>
<path style=" stroke:none;fill-rule:nonzero;fill:rgb(100%,100%,100%);fill-opacity:1;" d="M 32 49.167969 C 31.820312 49.167969 31.644531 49.121094 31.488281 49.03125 C 31.433594 48.992188 31.378906 48.953125 31.332031 48.910156 C 24.832031 45.308594 19.957031 39.363281 17.691406 32.289062 C 16.667969 29.191406 16.230469 25.929688 16.402344 22.667969 C 16.445312 22.195312 16.816406 21.820312 17.289062 21.769531 C 25.832031 20.847656 30.289062 16.652344 31 15.609375 C 31.089844 15.222656 31.398438 14.925781 31.789062 14.847656 C 31.925781 14.824219 32.066406 14.824219 32.199219 14.847656 C 32.582031 14.917969 32.886719 15.199219 32.988281 15.570312 C 36.644531 19.226562 41.511719 21.421875 46.667969 21.75 C 47.160156 21.785156 47.558594 22.167969 47.597656 22.660156 C 47.769531 25.917969 47.332031 29.179688 46.308594 32.28125 C 44.050781 39.355469 39.179688 45.300781 32.691406 48.910156 C 32.640625 48.957031 32.582031 49 32.519531 49.03125 C 32.363281 49.121094 32.183594 49.171875 32 49.167969 Z M 18.359375 23.660156 C 18.375 33.328125 23.582031 42.242188 32 47 C 37.894531 43.667969 42.316406 38.226562 44.371094 31.769531 C 45.207031 29.160156 45.636719 26.433594 45.640625 23.691406 C 40.539062 23.160156 35.75 20.980469 32 17.480469 C 30.199219 19.410156 25.628906 22.667969 18.359375 23.660156 Z M 18.359375 23.660156 "/>
</g>
</svg>
