
<svg xmlns="http://www.w3.org/2000/svg" xmlns:xlink="http://www.w3.org/1999/xlink" width="64px" height="64px" viewBox="0 0 64 64" version="1.1">
<defs>
<linearGradient id="linear0" gradientUnits="userSpaceOnUse" x1="31.18" y1="-3.52" x2="31.18" y2="47.91" >
<stop offset="0" style="stop-color:rgb(16.078431%,71.372549%,96.470588%);stop-opacity:1;"/>
<stop offset="1" style="stop-color:rgb(49.411765%,34.117647%,76.862745%);stop-opacity:1;"/>
</linearGradient>
</defs>
<g id="surface1">
<path style=" stroke:none;fill-rule:nonzero;fill:rgb(91.764706%,92.156863%,93.72549%);fill-opacity:1;" d="M 5.390625 0 L 58.609375 0 C 61.585938 0 64 2.414062 64 5.390625 L 64 58.609375 C 64 61.585938 61.585938 64 58.609375 64 L 5.390625 64 C 2.414062 64 0 61.585938 0 58.609375 L 0 5.390625 C 0 2.414062 2.414062 0 5.390625 0 Z M 5.390625 0 "/>
<path style=" stroke:none;fill-rule:nonzero;fill:url(#linear0);" d="M 48.902344 31.441406 C 47.859375 30.414062 46.226562 29.902344 44 29.902344 C 42.753906 29.894531 41.519531 30.082031 40.332031 30.449219 C 39.175781 30.800781 38.085938 31.324219 37.089844 32 L 37.089844 34.5 C 37.089844 34.691406 37.089844 34.800781 37.230469 34.832031 C 37.371094 34.859375 37.417969 34.832031 37.539062 34.710938 C 38.460938 34.03125 39.472656 33.480469 40.539062 33.070312 C 41.53125 32.699219 42.582031 32.511719 43.640625 32.519531 C 44.222656 32.511719 44.804688 32.574219 45.371094 32.710938 C 45.824219 32.8125 46.242188 33.039062 46.582031 33.359375 C 46.929688 33.714844 47.175781 34.15625 47.300781 34.640625 C 47.472656 35.3125 47.554688 36.003906 47.539062 36.699219 L 47.539062 37 L 41.652344 37.847656 C 39.851562 38 38.160156 38.757812 36.847656 40 L 29.460938 18 C 28.882812 16.277344 27.277344 15.113281 25.460938 15.097656 C 23.644531 15.113281 22.035156 16.277344 21.460938 18 L 12 46.167969 C 11.730469 46.980469 11.867188 47.871094 12.363281 48.566406 C 12.863281 49.257812 13.667969 49.667969 14.519531 49.667969 C 15.671875 49.667969 16.695312 48.925781 17.050781 47.832031 L 19.121094 41.46875 C 19.371094 40.707031 20.078125 40.191406 20.878906 40.191406 L 30 40.191406 C 30.804688 40.1875 31.519531 40.710938 31.761719 41.480469 L 33.761719 47.820312 C 34.109375 48.921875 35.132812 49.671875 36.289062 49.667969 L 41.402344 49.769531 C 42.582031 49.769531 43.75 49.492188 44.808594 48.96875 C 45.34375 48.699219 45.839844 48.363281 46.289062 47.96875 C 46.730469 47.585938 47.105469 47.132812 47.402344 46.628906 L 47.46875 48.289062 C 47.488281 49.097656 48.160156 49.734375 48.964844 49.714844 C 49.769531 49.695312 50.410156 49.027344 50.390625 48.21875 L 50.390625 36.511719 C 50.4375 34.167969 49.941406 32.480469 48.902344 31.441406 Z M 27.667969 35.71875 L 23.230469 35.71875 C 22.640625 35.722656 22.085938 35.441406 21.738281 34.96875 C 21.390625 34.492188 21.292969 33.878906 21.46875 33.320312 L 24.558594 23.480469 C 24.667969 23.074219 25.03125 22.792969 25.449219 22.792969 C 25.867188 22.792969 26.234375 23.074219 26.339844 23.480469 L 29.429688 33.320312 C 29.609375 33.878906 29.511719 34.492188 29.160156 34.96875 C 28.8125 35.441406 28.257812 35.722656 27.667969 35.71875 Z M 47.667969 41.71875 C 47.667969 42.433594 47.515625 43.132812 47.21875 43.78125 C 46.925781 44.449219 46.511719 45.058594 46 45.582031 C 45.484375 46.097656 44.882812 46.519531 44.21875 46.832031 C 43.5625 47.148438 42.839844 47.3125 42.109375 47.308594 C 41.144531 47.347656 40.195312 47.054688 39.417969 46.480469 C 39.082031 46.214844 38.820312 45.871094 38.652344 45.480469 L 38.597656 45.332031 C 38.449219 44.941406 38.375 44.527344 38.378906 44.109375 C 38.308594 43 38.75 41.917969 39.582031 41.179688 C 40.476562 40.464844 41.558594 40.015625 42.699219 39.890625 L 46.871094 39.378906 C 47.074219 39.351562 47.277344 39.410156 47.433594 39.546875 C 47.585938 39.679688 47.671875 39.875 47.667969 40.082031 Z M 47.667969 41.71875 "/>
</g>
</svg>
