
<svg xmlns="http://www.w3.org/2000/svg" xmlns:xlink="http://www.w3.org/1999/xlink" width="64px" height="64px" viewBox="0 0 64 64" version="1.1">
<g id="surface1">
<path style=" stroke:none;fill-rule:nonzero;fill:rgb(49.411765%,34.117647%,76.862745%);fill-opacity:1;" d="M 5.390625 0 L 58.609375 0 C 61.585938 0 64 2.414062 64 5.390625 L 64 58.609375 C 64 61.585938 61.585938 64 58.609375 64 L 5.390625 64 C 2.414062 64 0 61.585938 0 58.609375 L 0 5.390625 C 0 2.414062 2.414062 0 5.390625 0 Z M 5.390625 0 "/>
<path style=" stroke:none;fill-rule:nonzero;fill:rgb(100%,100%,100%);fill-opacity:1;" d="M 51.839844 31.300781 C 51.550781 30.683594 51.199219 30.105469 50.789062 29.558594 C 50.34375 29.179688 49.761719 28.996094 49.179688 29.050781 C 47.449219 29.175781 45.832031 28.175781 45.179688 26.570312 C 44.511719 25.011719 44.863281 23.199219 46.058594 22 C 47.210938 20.832031 47.210938 18.957031 46.058594 17.789062 C 45.535156 17.25 44.816406 16.941406 44.058594 16.929688 C 43.214844 16.949219 42.410156 17.269531 41.78125 17.832031 C 40.929688 18.515625 39.871094 18.898438 38.78125 18.917969 C 38.339844 18.917969 37.902344 18.839844 37.488281 18.679688 C 36.085938 17.988281 35.144531 16.617188 35 15.058594 C 35.046875 13.542969 33.957031 12.230469 32.460938 12 L 32.269531 11.941406 L 31.679688 11.941406 C 31.597656 11.972656 31.507812 12 31.417969 12.019531 C 30.019531 12.285156 29.015625 13.523438 29.050781 14.949219 C 29.113281 16.628906 28.140625 18.171875 26.597656 18.839844 C 25.027344 19.519531 23.199219 19.160156 22 17.941406 C 21.402344 17.398438 20.628906 17.089844 19.820312 17.082031 C 19.070312 17.085938 18.355469 17.382812 17.820312 17.910156 C 16.675781 19.074219 16.675781 20.941406 17.820312 22.109375 C 19 23.253906 19.390625 24.988281 18.820312 26.53125 C 18.222656 28.117188 16.707031 29.167969 15.011719 29.179688 C 13.652344 29.269531 12.621094 29.738281 12.011719 31.679688 L 12.011719 32.621094 C 12.070312 32.769531 12.128906 32.929688 12.179688 33.082031 C 12.574219 34.253906 13.660156 35.054688 14.902344 35.082031 C 16.644531 34.871094 18.324219 35.824219 19.035156 37.433594 C 19.746094 39.046875 19.324219 40.929688 17.988281 42.082031 C 16.902344 43.25 16.902344 45.058594 17.988281 46.230469 C 18.539062 46.785156 19.289062 47.097656 20.070312 47.097656 C 20.785156 47.058594 21.46875 46.773438 22 46.289062 C 22.808594 45.503906 23.875 45.042969 25 44.988281 C 27.28125 45 29.121094 46.859375 29.109375 49.140625 C 29.210938 50.460938 29.679688 51.46875 31.597656 52.140625 L 32.339844 52.140625 L 32.800781 51.890625 C 33.40625 51.601562 33.980469 51.25 34.511719 50.839844 C 34.914062 50.300781 35.117188 49.640625 35.089844 48.96875 C 35.207031 47.464844 36.050781 46.113281 37.347656 45.347656 C 37.855469 45.070312 38.425781 44.925781 39 44.941406 C 40.09375 44.964844 41.152344 45.347656 42 46.039062 C 42.636719 46.589844 43.441406 46.894531 44.28125 46.910156 C 45.03125 46.917969 45.753906 46.617188 46.28125 46.082031 C 47.449219 44.878906 47.449219 42.96875 46.28125 41.769531 C 45.445312 40.722656 45.082031 39.375 45.28125 38.050781 C 45.710938 36.367188 47.175781 35.15625 48.910156 35.050781 C 50.476562 35.144531 51.875 34.074219 52.199219 32.539062 L 52.199219 31.808594 Z M 32 39.539062 C 27.835938 39.539062 24.460938 36.164062 24.460938 32 C 24.460938 27.835938 27.835938 24.460938 32 24.460938 C 36.164062 24.460938 39.539062 27.835938 39.539062 32 C 39.507812 36.152344 36.152344 39.507812 32 39.539062 Z M 32 39.539062 "/>
</g>
</svg>
