
<svg xmlns="http://www.w3.org/2000/svg" xmlns:xlink="http://www.w3.org/1999/xlink" width="64px" height="64px" viewBox="0 0 64 64" version="1.1">
<g id="surface1">
<path style=" stroke:none;fill-rule:nonzero;fill:rgb(91.764706%,92.156863%,93.72549%);fill-opacity:1;" d="M 5.390625 0 L 58.609375 0 C 61.585938 0 64 2.414062 64 5.390625 L 64 58.609375 C 64 61.585938 61.585938 64 58.609375 64 L 5.390625 64 C 2.414062 64 0 61.585938 0 58.609375 L 0 5.390625 C 0 2.414062 2.414062 0 5.390625 0 Z M 5.390625 0 "/>
<path style=" stroke:none;fill-rule:nonzero;fill:rgb(49.411765%,34.117647%,76.862745%);fill-opacity:1;" d="M 35.570312 22.640625 L 16.152344 22.640625 L 16.152344 19.558594 L 24.082031 19.558594 L 24.082031 15.488281 L 27.679688 15.488281 L 27.679688 19.558594 L 35.570312 19.558594 Z M 25.878906 37.511719 C 24.707031 37.539062 23.542969 37.363281 22.429688 37 C 21.535156 36.675781 20.710938 36.1875 20 35.558594 C 19.363281 35.007812 18.855469 34.324219 18.511719 33.558594 C 18.179688 32.839844 18.003906 32.058594 18 31.269531 L 18 30.167969 C 17.996094 29.367188 18.164062 28.574219 18.488281 27.839844 C 18.835938 27.074219 19.34375 26.390625 19.980469 25.839844 C 20.707031 25.230469 21.542969 24.757812 22.441406 24.449219 C 23.550781 24.078125 24.71875 23.898438 25.890625 23.917969 C 27.0625 23.898438 28.230469 24.078125 29.339844 24.449219 C 30.242188 24.761719 31.074219 25.238281 31.800781 25.859375 C 32.433594 26.414062 32.941406 27.097656 33.289062 27.859375 C 33.613281 28.582031 33.78125 29.367188 33.78125 30.160156 L 33.78125 31.261719 C 33.78125 32.050781 33.613281 32.832031 33.289062 33.550781 C 32.945312 34.316406 32.4375 35 31.800781 35.550781 C 31.078125 36.1875 30.238281 36.679688 29.332031 37 C 28.21875 37.363281 27.050781 37.539062 25.878906 37.511719 Z M 25.878906 34.609375 C 26.542969 34.621094 27.199219 34.519531 27.832031 34.308594 C 28.339844 34.144531 28.8125 33.878906 29.21875 33.53125 C 29.574219 33.214844 29.859375 32.824219 30.050781 32.390625 C 30.226562 31.976562 30.320312 31.53125 30.320312 31.082031 L 30.320312 30.347656 C 30.316406 29.902344 30.226562 29.460938 30.050781 29.050781 C 29.859375 28.613281 29.574219 28.226562 29.21875 27.910156 C 28.816406 27.558594 28.347656 27.292969 27.839844 27.121094 C 26.5625 26.734375 25.199219 26.734375 23.917969 27.121094 C 23.414062 27.292969 22.945312 27.558594 22.539062 27.910156 C 22.183594 28.226562 21.902344 28.613281 21.710938 29.050781 C 21.535156 29.460938 21.441406 29.902344 21.441406 30.347656 L 21.441406 31.082031 C 21.441406 31.53125 21.535156 31.976562 21.710938 32.390625 C 21.902344 32.824219 22.183594 33.214844 22.539062 33.53125 C 22.949219 33.882812 23.425781 34.148438 23.941406 34.308594 C 24.566406 34.519531 25.222656 34.621094 25.878906 34.609375 Z M 25.441406 46.128906 L 43.441406 46.128906 L 43.441406 49.289062 L 21.808594 49.289062 L 21.808594 39.929688 L 25.441406 39.929688 Z M 47.28125 29 L 42.46875 29 L 42.46875 40.371094 L 38.871094 40.371094 L 38.871094 15.820312 L 42.46875 15.820312 L 42.46875 25.871094 L 47.28125 25.871094 Z M 47.28125 29 "/>
<path style=" stroke:none;fill-rule:nonzero;fill:rgb(92.54902%,25.098039%,47.843137%);fill-opacity:1;" d="M 41.417969 48.480469 L 38.230469 49.621094 L 37.78125 31.96875 L 48.652344 45.878906 L 45.269531 47.089844 L 47.089844 52.160156 L 43.238281 53.550781 Z M 41.417969 48.480469 "/>
<path style=" stroke:none;fill-rule:nonzero;fill:rgb(100%,100%,100%);fill-opacity:1;" d="M 38.941406 35.210938 L 46.878906 45.371094 L 43.878906 46.441406 L 45.699219 51.511719 L 43.871094 52.167969 L 42.070312 47.097656 L 39.269531 48.097656 L 38.941406 35.210938 M 36.609375 28.738281 L 36.78125 35.261719 L 37.109375 48.160156 L 37.191406 51.160156 L 39.988281 50.160156 L 40.769531 49.878906 L 41.859375 52.878906 L 42.589844 54.878906 L 44.589844 54.152344 L 46.410156 53.488281 L 48.410156 52.761719 L 47.679688 50.761719 L 46.589844 47.761719 L 47.589844 47.410156 L 50.390625 46.410156 L 48.582031 44 L 40.628906 33.878906 L 36.628906 28.738281 Z M 36.609375 28.738281 "/>
</g>
</svg>
