
<svg xmlns="http://www.w3.org/2000/svg" xmlns:xlink="http://www.w3.org/1999/xlink" width="64px" height="64px" viewBox="0 0 64 64" version="1.1">
<g id="surface1">
<path style=" stroke:none;fill-rule:nonzero;fill:rgb(36.078431%,41.960784%,75.294118%);fill-opacity:1;" d="M 5.390625 0 L 58.609375 0 C 61.585938 0 64 2.414062 64 5.390625 L 64 58.609375 C 64 61.585938 61.585938 64 58.609375 64 L 5.390625 64 C 2.414062 64 0 61.585938 0 58.609375 L 0 5.390625 C 0 2.414062 2.414062 0 5.390625 0 Z M 5.390625 0 "/>
<path style=" stroke:none;fill-rule:nonzero;fill:rgb(16.078431%,71.372549%,96.470588%);fill-opacity:1;" d="M 46.660156 26.339844 L 44.089844 26.339844 L 44.089844 22 C 44.0625 20.855469 43.144531 19.9375 42 19.910156 L 24.089844 19.910156 C 21.503906 19.902344 19.40625 17.808594 19.402344 15.21875 L 19.402344 13 L 22 13 L 22 15.25 C 22 16.421875 22.949219 17.371094 24.121094 17.371094 L 42 17.371094 C 44.59375 17.375 46.695312 19.476562 46.699219 22.070312 Z M 46.660156 26.339844 "/>
<path style=" stroke:none;fill-rule:nonzero;fill:rgb(100%,100%,100%);fill-opacity:1;" d="M 49.871094 24.800781 L 14.128906 24.800781 C 12.636719 24.800781 11.429688 26.007812 11.429688 27.5 L 11.429688 48.332031 C 11.429688 49.820312 12.636719 51.03125 14.128906 51.03125 L 49.871094 51.03125 C 51.363281 51.03125 52.570312 49.820312 52.570312 48.332031 L 52.570312 27.5 C 52.570312 26.007812 51.363281 24.800781 49.871094 24.800781 Z M 49.871094 24.800781 "/>
<path style=" stroke:none;fill-rule:nonzero;fill:rgb(79.607843%,79.607843%,79.607843%);fill-opacity:1;" d="M 41.808594 41.859375 L 22.167969 41.859375 C 21.828125 41.859375 21.503906 41.996094 21.261719 42.238281 C 21.019531 42.480469 20.886719 42.808594 20.890625 43.152344 L 20.890625 44.75 C 20.90625 45.445312 21.472656 46 22.167969 46 L 41.808594 46 C 42.152344 46.003906 42.480469 45.871094 42.722656 45.628906 C 42.964844 45.386719 43.097656 45.0625 43.097656 44.71875 L 43.097656 43.121094 C 43.097656 42.410156 42.523438 41.832031 41.808594 41.832031 Z M 41.808594 41.859375 "/>
<path style=" stroke:none;fill-rule:nonzero;fill:rgb(92.54902%,25.098039%,47.843137%);fill-opacity:1;" d="M 18.210938 41.859375 L 17.308594 41.859375 C 16.964844 41.855469 16.628906 41.988281 16.386719 42.230469 C 16.136719 42.472656 16 42.804688 16 43.152344 L 16 44.75 C 16.015625 45.457031 16.605469 46.015625 17.308594 46 L 18.210938 46 C 18.550781 46.003906 18.878906 45.871094 19.121094 45.628906 C 19.363281 45.386719 19.5 45.0625 19.5 44.71875 L 19.5 43.121094 C 19.5 42.410156 18.921875 41.832031 18.210938 41.832031 Z M 18.210938 41.859375 "/>
<path style=" stroke:none;fill-rule:nonzero;fill:rgb(79.607843%,79.607843%,79.607843%);fill-opacity:1;" d="M 46.910156 41.859375 L 46 41.859375 C 45.285156 41.859375 44.710938 42.4375 44.710938 43.152344 L 44.710938 44.75 C 44.726562 45.449219 45.300781 46.003906 46 46 L 46.902344 46 C 47.242188 46.003906 47.570312 45.871094 47.8125 45.628906 C 48.054688 45.386719 48.191406 45.0625 48.191406 44.71875 L 48.191406 43.121094 C 48.191406 42.410156 47.613281 41.832031 46.902344 41.832031 Z M 46.910156 41.859375 "/>
<path style=" stroke:none;fill-rule:nonzero;fill:rgb(79.607843%,79.607843%,79.607843%);fill-opacity:1;" d="M 27.417969 35.910156 L 26.511719 35.910156 C 25.800781 35.910156 25.230469 36.484375 25.230469 37.191406 L 25.230469 38.789062 C 25.226562 39.128906 25.363281 39.457031 25.601562 39.699219 C 25.839844 39.941406 26.167969 40.082031 26.511719 40.082031 L 27.417969 40.082031 C 27.761719 40.082031 28.089844 39.941406 28.328125 39.699219 C 28.566406 39.457031 28.703125 39.128906 28.699219 38.789062 L 28.699219 37.191406 C 28.699219 36.484375 28.128906 35.910156 27.417969 35.910156 Z M 27.417969 35.910156 "/>
<path style=" stroke:none;fill-rule:nonzero;fill:rgb(92.54902%,25.098039%,47.843137%);fill-opacity:1;" d="M 22.859375 35.910156 L 17.308594 35.910156 C 16.964844 35.902344 16.632812 36.035156 16.386719 36.273438 C 16.136719 36.515625 16 36.847656 16 37.191406 L 16 38.789062 C 16 39.503906 16.578125 40.082031 17.289062 40.082031 L 22.839844 40.082031 C 23.550781 40.082031 24.128906 39.503906 24.128906 38.789062 L 24.128906 37.191406 C 24.128906 36.847656 23.996094 36.519531 23.753906 36.28125 C 23.511719 36.042969 23.183594 35.90625 22.839844 35.910156 Z M 22.859375 35.910156 "/>
<path style=" stroke:none;fill-rule:nonzero;fill:rgb(79.607843%,79.607843%,79.607843%);fill-opacity:1;" d="M 32.289062 35.910156 L 31.390625 35.910156 C 31.050781 35.90625 30.722656 36.042969 30.480469 36.28125 C 30.238281 36.519531 30.097656 36.847656 30.097656 37.191406 L 30.097656 38.789062 C 30.097656 39.503906 30.675781 40.082031 31.390625 40.082031 L 32.289062 40.082031 C 33.003906 40.082031 33.582031 39.503906 33.582031 38.789062 L 33.582031 37.191406 C 33.582031 36.847656 33.441406 36.519531 33.199219 36.28125 C 32.957031 36.042969 32.628906 35.90625 32.289062 35.910156 Z M 32.289062 35.910156 "/>
<path style=" stroke:none;fill-rule:nonzero;fill:rgb(79.607843%,79.607843%,79.607843%);fill-opacity:1;" d="M 37.167969 35.910156 L 36.261719 35.910156 C 35.558594 35.921875 35 36.488281 35 37.191406 L 35 38.789062 C 34.996094 39.128906 35.128906 39.457031 35.371094 39.699219 C 35.613281 39.941406 35.9375 40.082031 36.28125 40.082031 L 37.191406 40.082031 C 37.53125 40.082031 37.859375 39.941406 38.097656 39.699219 C 38.339844 39.457031 38.472656 39.128906 38.46875 38.789062 L 38.46875 37.191406 C 38.46875 36.484375 37.894531 35.910156 37.191406 35.910156 Z M 37.167969 35.910156 "/>
<path style=" stroke:none;fill-rule:nonzero;fill:rgb(79.607843%,79.607843%,79.607843%);fill-opacity:1;" d="M 42 35.910156 L 41.097656 35.910156 C 40.757812 35.90625 40.429688 36.042969 40.1875 36.28125 C 39.945312 36.519531 39.808594 36.847656 39.808594 37.191406 L 39.808594 38.789062 C 39.808594 39.503906 40.386719 40.082031 41.097656 40.082031 L 42 40.082031 C 42.714844 40.082031 43.289062 39.503906 43.289062 38.789062 L 43.289062 37.191406 C 43.289062 36.847656 43.152344 36.519531 42.910156 36.28125 C 42.667969 36.042969 42.339844 35.90625 42 35.910156 Z M 42 35.910156 "/>
<path style=" stroke:none;fill-rule:nonzero;fill:rgb(79.607843%,79.607843%,79.607843%);fill-opacity:1;" d="M 46.910156 35.910156 L 46 35.910156 C 45.660156 35.90625 45.332031 36.042969 45.089844 36.28125 C 44.847656 36.519531 44.710938 36.847656 44.710938 37.191406 L 44.710938 38.789062 C 44.710938 39.503906 45.285156 40.082031 46 40.082031 L 46.902344 40.082031 C 47.613281 40.082031 48.191406 39.503906 48.191406 38.789062 L 48.191406 37.191406 C 48.191406 36.847656 48.054688 36.519531 47.8125 36.28125 C 47.570312 36.042969 47.242188 35.90625 46.902344 35.910156 Z M 46.910156 35.910156 "/>
<path style=" stroke:none;fill-rule:nonzero;fill:rgb(79.607843%,79.607843%,79.607843%);fill-opacity:1;" d="M 24.710938 30 L 23.808594 30 C 23.46875 29.996094 23.140625 30.128906 22.898438 30.371094 C 22.65625 30.613281 22.519531 30.9375 22.519531 31.28125 L 22.519531 32.878906 C 22.519531 33.589844 23.097656 34.167969 23.808594 34.167969 L 24.710938 34.167969 C 25.058594 34.167969 25.394531 34.027344 25.640625 33.773438 C 25.882812 33.519531 26.011719 33.179688 26 32.832031 L 26 31.230469 C 25.972656 30.539062 25.402344 29.996094 24.710938 30 Z M 24.710938 30 "/>
<path style=" stroke:none;fill-rule:nonzero;fill:rgb(79.607843%,79.607843%,79.607843%);fill-opacity:1;" d="M 29.589844 30 L 28.679688 30 C 28.339844 29.996094 28.011719 30.128906 27.769531 30.371094 C 27.527344 30.613281 27.390625 30.9375 27.390625 31.28125 L 27.390625 32.878906 C 27.390625 33.589844 27.96875 34.167969 28.679688 34.167969 L 29.589844 34.167969 C 29.933594 34.167969 30.257812 34.035156 30.496094 33.792969 C 30.738281 33.550781 30.871094 33.222656 30.871094 32.878906 L 30.871094 31.28125 C 30.871094 30.574219 30.296875 30 29.589844 30 Z M 29.589844 30 "/>
<path style=" stroke:none;fill-rule:nonzero;fill:rgb(79.607843%,79.607843%,79.607843%);fill-opacity:1;" d="M 34.460938 30 L 33.550781 30 C 32.84375 30 32.269531 30.574219 32.269531 31.28125 L 32.269531 32.878906 C 32.269531 33.222656 32.402344 33.550781 32.640625 33.792969 C 32.882812 34.035156 33.207031 34.167969 33.550781 34.167969 L 34.460938 34.167969 C 34.800781 34.167969 35.128906 34.035156 35.371094 33.792969 C 35.609375 33.550781 35.742188 33.222656 35.738281 32.878906 L 35.738281 31.28125 C 35.738281 30.574219 35.167969 30 34.460938 30 Z M 34.460938 30 "/>
<path style=" stroke:none;fill-rule:nonzero;fill:rgb(79.607843%,79.607843%,79.607843%);fill-opacity:1;" d="M 39.332031 30 L 38.429688 30 C 38.089844 29.996094 37.761719 30.128906 37.519531 30.371094 C 37.277344 30.613281 37.140625 30.9375 37.140625 31.28125 L 37.140625 32.878906 C 37.140625 33.589844 37.71875 34.167969 38.429688 34.167969 L 39.332031 34.167969 C 40.042969 34.167969 40.621094 33.589844 40.621094 32.878906 L 40.621094 31.28125 C 40.621094 30.9375 40.484375 30.613281 40.242188 30.371094 C 40 30.128906 39.671875 29.996094 39.332031 30 Z M 39.332031 30 "/>
<path style=" stroke:none;fill-rule:nonzero;fill:rgb(79.607843%,79.607843%,79.607843%);fill-opacity:1;" d="M 46.691406 30 L 43.160156 30 C 42.816406 29.996094 42.488281 30.128906 42.246094 30.371094 C 42.003906 30.613281 41.871094 30.9375 41.871094 31.28125 L 41.871094 32.878906 C 41.871094 33.589844 42.449219 34.167969 43.160156 34.167969 L 46.691406 34.167969 C 47.042969 34.179688 47.386719 34.039062 47.636719 33.785156 C 47.886719 33.53125 48.015625 33.183594 48 32.832031 L 48 31.230469 C 47.972656 30.53125 47.390625 29.984375 46.691406 30 Z M 46.691406 30 "/>
<path style=" stroke:none;fill-rule:nonzero;fill:rgb(92.54902%,25.098039%,47.843137%);fill-opacity:1;" d="M 19.609375 30 L 17.160156 30 C 16.453125 30 15.878906 30.574219 15.878906 31.28125 L 15.878906 32.878906 C 15.878906 33.222656 16.011719 33.550781 16.253906 33.792969 C 16.492188 34.035156 16.816406 34.167969 17.160156 34.167969 L 19.609375 34.167969 C 20.324219 34.167969 20.902344 33.589844 20.902344 32.878906 L 20.902344 31.28125 C 20.902344 30.9375 20.761719 30.613281 20.519531 30.371094 C 20.277344 30.128906 19.949219 29.996094 19.609375 30 Z M 19.609375 30 "/>
</g>
</svg>
