
<svg xmlns="http://www.w3.org/2000/svg" xmlns:xlink="http://www.w3.org/1999/xlink" width="64px" height="64px" viewBox="0 0 64 64" version="1.1">
<defs>
<clipPath id="clip1">
  <path d="M 30 50.667969 L 52.667969 50.667969 L 52.667969 64 L 30 64 Z M 30 50.667969 "/>
</clipPath>
<clipPath id="clip2">
  <path d="M 5.390625 0 L 58.609375 0 C 61.585938 0 64 2.414062 64 5.390625 L 64 58.609375 C 64 61.585938 61.585938 64 58.609375 64 L 5.390625 64 C 2.414062 64 0 61.585938 0 58.609375 L 0 5.390625 C 0 2.414062 2.414062 0 5.390625 0 Z M 5.390625 0 "/>
</clipPath>
<clipPath id="clip3">
  <path d="M 39.332031 45 L 50 45 L 50 50.667969 L 39.332031 50.667969 Z M 39.332031 45 "/>
</clipPath>
<clipPath id="clip4">
  <path d="M 5.390625 0 L 58.609375 0 C 61.585938 0 64 2.414062 64 5.390625 L 64 58.609375 C 64 61.585938 61.585938 64 58.609375 64 L 5.390625 64 C 2.414062 64 0 61.585938 0 58.609375 L 0 5.390625 C 0 2.414062 2.414062 0 5.390625 0 Z M 5.390625 0 "/>
</clipPath>
<clipPath id="clip5">
  <path d="M 49 47.332031 L 50.667969 47.332031 L 50.667969 48.667969 L 49 48.667969 Z M 49 47.332031 "/>
</clipPath>
<clipPath id="clip6">
  <path d="M 5.390625 0 L 58.609375 0 C 61.585938 0 64 2.414062 64 5.390625 L 64 58.609375 C 64 61.585938 61.585938 64 58.609375 64 L 5.390625 64 C 2.414062 64 0 61.585938 0 58.609375 L 0 5.390625 C 0 2.414062 2.414062 0 5.390625 0 Z M 5.390625 0 "/>
</clipPath>
<clipPath id="clip7">
  <path d="M 26 47.332031 L 32 47.332031 L 32 50 L 26 50 Z M 26 47.332031 "/>
</clipPath>
<clipPath id="clip8">
  <path d="M 5.390625 0 L 58.609375 0 C 61.585938 0 64 2.414062 64 5.390625 L 64 58.609375 C 64 61.585938 61.585938 64 58.609375 64 L 5.390625 64 C 2.414062 64 0 61.585938 0 58.609375 L 0 5.390625 C 0 2.414062 2.414062 0 5.390625 0 Z M 5.390625 0 "/>
</clipPath>
<clipPath id="clip9">
  <path d="M 36.667969 49 L 38 49 L 38 50 L 36.667969 50 Z M 36.667969 49 "/>
</clipPath>
<clipPath id="clip10">
  <path d="M 5.390625 0 L 58.609375 0 C 61.585938 0 64 2.414062 64 5.390625 L 64 58.609375 C 64 61.585938 61.585938 64 58.609375 64 L 5.390625 64 C 2.414062 64 0 61.585938 0 58.609375 L 0 5.390625 C 0 2.414062 2.414062 0 5.390625 0 Z M 5.390625 0 "/>
</clipPath>
<clipPath id="clip11">
  <path d="M 21 41.332031 L 27 41.332031 L 27 48 L 21 48 Z M 21 41.332031 "/>
</clipPath>
<clipPath id="clip12">
  <path d="M 5.390625 0 L 58.609375 0 C 61.585938 0 64 2.414062 64 5.390625 L 64 58.609375 C 64 61.585938 61.585938 64 58.609375 64 L 5.390625 64 C 2.414062 64 0 61.585938 0 58.609375 L 0 5.390625 C 0 2.414062 2.414062 0 5.390625 0 Z M 5.390625 0 "/>
</clipPath>
<clipPath id="clip13">
  <path d="M 0 0 L 59.332031 0 L 59.332031 60 L 0 60 Z M 0 0 "/>
</clipPath>
<clipPath id="clip14">
  <path d="M 5.390625 0 L 58.609375 0 C 61.585938 0 64 2.414062 64 5.390625 L 64 58.609375 C 64 61.585938 61.585938 64 58.609375 64 L 5.390625 64 C 2.414062 64 0 61.585938 0 58.609375 L 0 5.390625 C 0 2.414062 2.414062 0 5.390625 0 Z M 5.390625 0 "/>
</clipPath>
<clipPath id="clip15">
  <path d="M 28 42 L 33.332031 42 L 33.332031 47 L 28 47 Z M 28 42 "/>
</clipPath>
<clipPath id="clip16">
  <path d="M 5.390625 0 L 58.609375 0 C 61.585938 0 64 2.414062 64 5.390625 L 64 58.609375 C 64 61.585938 61.585938 64 58.609375 64 L 5.390625 64 C 2.414062 64 0 61.585938 0 58.609375 L 0 5.390625 C 0 2.414062 2.414062 0 5.390625 0 Z M 5.390625 0 "/>
</clipPath>
<clipPath id="clip17">
  <path d="M 34.667969 43.332031 L 36.667969 43.332031 L 36.667969 45 L 34.667969 45 Z M 34.667969 43.332031 "/>
</clipPath>
<clipPath id="clip18">
  <path d="M 5.390625 0 L 58.609375 0 C 61.585938 0 64 2.414062 64 5.390625 L 64 58.609375 C 64 61.585938 61.585938 64 58.609375 64 L 5.390625 64 C 2.414062 64 0 61.585938 0 58.609375 L 0 5.390625 C 0 2.414062 2.414062 0 5.390625 0 Z M 5.390625 0 "/>
</clipPath>
<clipPath id="clip19">
  <path d="M 37.332031 43.332031 L 38.667969 43.332031 L 38.667969 45.332031 L 37.332031 45.332031 Z M 37.332031 43.332031 "/>
</clipPath>
<clipPath id="clip20">
  <path d="M 5.390625 0 L 58.609375 0 C 61.585938 0 64 2.414062 64 5.390625 L 64 58.609375 C 64 61.585938 61.585938 64 58.609375 64 L 5.390625 64 C 2.414062 64 0 61.585938 0 58.609375 L 0 5.390625 C 0 2.414062 2.414062 0 5.390625 0 Z M 5.390625 0 "/>
</clipPath>
<clipPath id="clip21">
  <path d="M 33.332031 45 L 36 45 L 36 48 L 33.332031 48 Z M 33.332031 45 "/>
</clipPath>
<clipPath id="clip22">
  <path d="M 5.390625 0 L 58.609375 0 C 61.585938 0 64 2.414062 64 5.390625 L 64 58.609375 C 64 61.585938 61.585938 64 58.609375 64 L 5.390625 64 C 2.414062 64 0 61.585938 0 58.609375 L 0 5.390625 C 0 2.414062 2.414062 0 5.390625 0 Z M 5.390625 0 "/>
</clipPath>
<clipPath id="clip23">
  <path d="M 27.332031 27.332031 L 29 27.332031 L 29 29.332031 L 27.332031 29.332031 Z M 27.332031 27.332031 "/>
</clipPath>
<clipPath id="clip24">
  <path d="M 5.390625 0 L 58.609375 0 C 61.585938 0 64 2.414062 64 5.390625 L 64 58.609375 C 64 61.585938 61.585938 64 58.609375 64 L 5.390625 64 C 2.414062 64 0 61.585938 0 58.609375 L 0 5.390625 C 0 2.414062 2.414062 0 5.390625 0 Z M 5.390625 0 "/>
</clipPath>
<clipPath id="clip25">
  <path d="M 22.667969 37.332031 L 27.332031 37.332031 L 27.332031 40.667969 L 22.667969 40.667969 Z M 22.667969 37.332031 "/>
</clipPath>
<clipPath id="clip26">
  <path d="M 5.390625 0 L 58.609375 0 C 61.585938 0 64 2.414062 64 5.390625 L 64 58.609375 C 64 61.585938 61.585938 64 58.609375 64 L 5.390625 64 C 2.414062 64 0 61.585938 0 58.609375 L 0 5.390625 C 0 2.414062 2.414062 0 5.390625 0 Z M 5.390625 0 "/>
</clipPath>
<clipPath id="clip27">
  <path d="M 34 15.332031 L 40.667969 15.332031 L 40.667969 23 L 34 23 Z M 34 15.332031 "/>
</clipPath>
<clipPath id="clip28">
  <path d="M 5.390625 0 L 58.609375 0 C 61.585938 0 64 2.414062 64 5.390625 L 64 58.609375 C 64 61.585938 61.585938 64 58.609375 64 L 5.390625 64 C 2.414062 64 0 61.585938 0 58.609375 L 0 5.390625 C 0 2.414062 2.414062 0 5.390625 0 Z M 5.390625 0 "/>
</clipPath>
<clipPath id="clip29">
  <path d="M 33 22 L 34.667969 22 L 34.667969 24.667969 L 33 24.667969 Z M 33 22 "/>
</clipPath>
<clipPath id="clip30">
  <path d="M 5.390625 0 L 58.609375 0 C 61.585938 0 64 2.414062 64 5.390625 L 64 58.609375 C 64 61.585938 61.585938 64 58.609375 64 L 5.390625 64 C 2.414062 64 0 61.585938 0 58.609375 L 0 5.390625 C 0 2.414062 2.414062 0 5.390625 0 Z M 5.390625 0 "/>
</clipPath>
<clipPath id="clip31">
  <path d="M 28.667969 36 L 31.332031 36 L 31.332031 38 L 28.667969 38 Z M 28.667969 36 "/>
</clipPath>
<clipPath id="clip32">
  <path d="M 5.390625 0 L 58.609375 0 C 61.585938 0 64 2.414062 64 5.390625 L 64 58.609375 C 64 61.585938 61.585938 64 58.609375 64 L 5.390625 64 C 2.414062 64 0 61.585938 0 58.609375 L 0 5.390625 C 0 2.414062 2.414062 0 5.390625 0 Z M 5.390625 0 "/>
</clipPath>
<clipPath id="clip33">
  <path d="M 27.332031 31 L 30 31 L 30 34.667969 L 27.332031 34.667969 Z M 27.332031 31 "/>
</clipPath>
<clipPath id="clip34">
  <path d="M 5.390625 0 L 58.609375 0 C 61.585938 0 64 2.414062 64 5.390625 L 64 58.609375 C 64 61.585938 61.585938 64 58.609375 64 L 5.390625 64 C 2.414062 64 0 61.585938 0 58.609375 L 0 5.390625 C 0 2.414062 2.414062 0 5.390625 0 Z M 5.390625 0 "/>
</clipPath>
<clipPath id="clip35">
  <path d="M 29 35.332031 L 30 35.332031 L 30 36.667969 L 29 36.667969 Z M 29 35.332031 "/>
</clipPath>
<clipPath id="clip36">
  <path d="M 5.390625 0 L 58.609375 0 C 61.585938 0 64 2.414062 64 5.390625 L 64 58.609375 C 64 61.585938 61.585938 64 58.609375 64 L 5.390625 64 C 2.414062 64 0 61.585938 0 58.609375 L 0 5.390625 C 0 2.414062 2.414062 0 5.390625 0 Z M 5.390625 0 "/>
</clipPath>
<clipPath id="clip37">
  <path d="M 6.667969 36 L 8 36 L 8 38 L 6.667969 38 Z M 6.667969 36 "/>
</clipPath>
<clipPath id="clip38">
  <path d="M 5.390625 0 L 58.609375 0 C 61.585938 0 64 2.414062 64 5.390625 L 64 58.609375 C 64 61.585938 61.585938 64 58.609375 64 L 5.390625 64 C 2.414062 64 0 61.585938 0 58.609375 L 0 5.390625 C 0 2.414062 2.414062 0 5.390625 0 Z M 5.390625 0 "/>
</clipPath>
</defs>
<g id="surface1">
<path style=" stroke:none;fill-rule:nonzero;fill:rgb(49.411765%,34.117647%,76.862745%);fill-opacity:1;" d="M 5.390625 0 L 58.609375 0 C 61.585938 0 64 2.414062 64 5.390625 L 64 58.609375 C 64 61.585938 61.585938 64 58.609375 64 L 5.390625 64 C 2.414062 64 0 61.585938 0 58.609375 L 0 5.390625 C 0 2.414062 2.414062 0 5.390625 0 Z M 5.390625 0 "/>
<g clip-path="url(#clip1)" clip-rule="nonzero">
<g clip-path="url(#clip2)" clip-rule="nonzero">
<path style=" stroke:none;fill-rule:nonzero;fill:rgb(27.058824%,89.019608%,100%);fill-opacity:1;" d="M 51.609375 59 L 50.050781 56.847656 C 50.011719 56.601562 49.808594 56.410156 49.558594 56.378906 L 49.5 56.378906 C 49.226562 55.71875 48.679688 55.207031 48 54.980469 C 48.015625 54.917969 48.015625 54.851562 48 54.789062 C 48.441406 54.140625 48.140625 53.660156 47.640625 53.230469 L 47.320312 52.847656 C 46.160156 52.691406 46.660156 51.191406 45.75 50.78125 C 45.347656 51.28125 45.539062 51.78125 45.558594 52.238281 C 44.988281 54.300781 44.21875 54.449219 42.429688 52.878906 C 42.347656 52.792969 42.21875 52.769531 42.109375 52.820312 C 41.910156 52.300781 42.46875 52.179688 42.667969 51.820312 C 42.871094 50.820312 42.160156 51.371094 41.808594 51.308594 L 41.152344 51 C 41.058594 51.050781 40.941406 51.027344 40.878906 50.941406 L 40.53125 51.21875 L 39.652344 51.21875 C 39.582031 51.28125 39.535156 51.363281 39.519531 51.449219 C 39.441406 51.441406 39.367188 51.488281 39.339844 51.558594 C 38.847656 51.839844 39.140625 52.847656 38.230469 52.71875 C 37.230469 51.621094 36.667969 52.339844 36.230469 53.28125 C 36.148438 53.316406 36.058594 53.335938 35.96875 53.339844 C 35.871094 53.910156 34.582031 53.652344 35.050781 54.640625 L 33.832031 55.582031 C 33 55.960938 31.96875 55.910156 31.332031 56.710938 C 30.191406 57 30.429688 57.910156 30.429688 58.710938 C 30.449219 59.207031 30.558594 59.699219 30.75 60.160156 C 30.804688 60.546875 31.035156 60.890625 31.371094 61.089844 C 31.371094 61.832031 31.710938 62.5 31.730469 63.261719 C 31.75 64.019531 32.238281 64.660156 33.210938 64.152344 C 33.710938 63.960938 34 63.308594 34.667969 63.511719 C 34.667969 63.429688 34.769531 63.359375 34.820312 63.269531 L 35.679688 63.269531 C 36.160156 63.359375 36.230469 62.988281 36.347656 62.667969 L 36.917969 62.371094 C 38.324219 61.667969 39.953125 61.5625 41.441406 62.070312 C 41.871094 62.488281 41.667969 63.589844 42.75 63.28125 C 43.136719 63.402344 43.40625 63.746094 43.441406 64.152344 L 43.96875 64.210938 C 44.441406 65.699219 45.308594 66.519531 46.96875 66.058594 C 47.070312 66.058594 47.21875 66.179688 47.347656 66.25 C 49.121094 66.441406 49.710938 65.25 50.160156 63.878906 C 50.550781 63.699219 50.910156 63.488281 50.78125 62.960938 L 51.300781 62.011719 C 51.300781 61.832031 51.300781 61.640625 51.347656 61.460938 L 51.5 61.460938 C 52.152344 61.089844 52.070312 60.460938 52.058594 59.859375 C 52.023438 59.527344 51.863281 59.21875 51.609375 59 Z M 47.609375 60.832031 Z M 42.128906 55 Z M 42.128906 54.738281 L 42.128906 54.679688 Z M 47.691406 55.589844 Z M 47.691406 55.589844 "/>
</g>
</g>
<g clip-path="url(#clip3)" clip-rule="nonzero">
<g clip-path="url(#clip4)" clip-rule="nonzero">
<path style=" stroke:none;fill-rule:nonzero;fill:rgb(27.058824%,89.019608%,100%);fill-opacity:1;" d="M 47.390625 47.789062 C 47.390625 46.917969 46.730469 46.789062 46.109375 46.679688 C 45.597656 46.550781 44.96875 46.558594 44.609375 46.25 C 43.609375 45.417969 42.910156 45.808594 42.109375 46.410156 C 41.878906 46.410156 41.519531 46.410156 41.46875 46.121094 C 41.261719 44.800781 40.539062 44.910156 39.640625 45.429688 C 39.699219 45.511719 39.734375 45.601562 39.75 45.699219 C 40.511719 46.238281 41.121094 47.011719 42.109375 47.179688 L 43.039062 47.488281 L 43.730469 48.488281 C 43.730469 48.71875 43.28125 48.890625 43.652344 49.167969 C 44.058594 48.902344 44.289062 49.261719 44.570312 49.441406 C 44.851562 49.683594 45.230469 49.785156 45.597656 49.707031 C 45.960938 49.625 46.265625 49.378906 46.417969 49.039062 L 47.339844 49.039062 C 47.640625 49.140625 47.679688 49.378906 47.667969 49.652344 C 48.152344 49.890625 48.441406 50.488281 49.109375 50.347656 C 49.359375 50.347656 49.71875 50.019531 49.53125 49.960938 C 48.441406 49.589844 48.78125 47.832031 47.390625 47.789062 Z M 47.390625 47.789062 "/>
</g>
</g>
<g clip-path="url(#clip5)" clip-rule="nonzero">
<g clip-path="url(#clip6)" clip-rule="nonzero">
<path style=" stroke:none;fill-rule:nonzero;fill:rgb(27.058824%,89.019608%,100%);fill-opacity:1;" d="M 50.417969 47.480469 C 50 47.730469 49.417969 47.410156 49 47.917969 C 49.332031 48.261719 49.738281 48.160156 50.109375 48.191406 C 50 47.878906 51.109375 48.070312 50.417969 47.480469 Z M 50.417969 47.480469 "/>
</g>
</g>
<g clip-path="url(#clip7)" clip-rule="nonzero">
<g clip-path="url(#clip8)" clip-rule="nonzero">
<path style=" stroke:none;fill-rule:nonzero;fill:rgb(27.058824%,89.019608%,100%);fill-opacity:1;" d="M 31.640625 49.152344 L 30.371094 48.859375 C 29.910156 48.597656 29.46875 48.210938 28.878906 48.511719 L 26.589844 47.910156 C 26.710938 49.289062 27.730469 49.011719 28.589844 48.980469 C 29.121094 48.910156 29.449219 49.628906 30.03125 49.359375 L 31.308594 49.449219 Z M 31.640625 49.152344 "/>
</g>
</g>
<g clip-path="url(#clip9)" clip-rule="nonzero">
<g clip-path="url(#clip10)" clip-rule="nonzero">
<path style=" stroke:none;fill-rule:nonzero;fill:rgb(27.058824%,89.019608%,100%);fill-opacity:1;" d="M 36.761719 49.761719 L 37.761719 49.417969 C 37.269531 49 36.800781 48.75 36.761719 49.761719 Z M 36.761719 49.761719 "/>
</g>
</g>
<g clip-path="url(#clip11)" clip-rule="nonzero">
<g clip-path="url(#clip12)" clip-rule="nonzero">
<path style=" stroke:none;fill-rule:nonzero;fill:rgb(27.058824%,89.019608%,100%);fill-opacity:1;" d="M 26.789062 46.347656 C 27.058594 46.25 27.019531 46.070312 26.878906 45.902344 C 26.570312 45.539062 26.378906 45.980469 26.121094 46.03125 L 25.832031 45.691406 L 25.539062 45.402344 C 25.390625 45.128906 25.699219 44.660156 25.167969 44.550781 C 24.960938 44.460938 24.660156 44.550781 24.582031 44.191406 C 24.511719 44.207031 24.445312 44.207031 24.378906 44.191406 C 24.375 44.09375 24.375 43.996094 24.378906 43.902344 C 23.996094 43.304688 23.53125 42.769531 23 42.300781 C 22.5 41.820312 21.941406 41.441406 21.269531 42.082031 C 22.378906 43.621094 23.5 45.152344 24.609375 46.679688 C 25.097656 47.371094 25.609375 48.039062 26.609375 47.890625 L 26.847656 46.359375 Z M 26.789062 46.347656 "/>
</g>
</g>
<g clip-path="url(#clip13)" clip-rule="nonzero">
<g clip-path="url(#clip14)" clip-rule="nonzero">
<path style=" stroke:none;fill-rule:nonzero;fill:rgb(27.058824%,89.019608%,100%);fill-opacity:1;" d="M 58.78125 3 L 58.660156 2.699219 C 58.71875 2.160156 57.871094 2 58.121094 1.390625 C 58.359375 1.390625 58.589844 1.390625 58.71875 1.160156 L 59 1.160156 L 59 0.550781 C 59.082031 0.484375 59.121094 0.382812 59.109375 0.28125 C 59.144531 -0.0820312 59.105469 -0.449219 59 -0.800781 C 59 -1.050781 59 -1.308594 59 -1.570312 C 59.152344 -1.871094 59.152344 -2.222656 59 -2.519531 C 57.859375 -3.054688 56.597656 -3.277344 55.339844 -3.160156 C 54.667969 -3.460938 53.96875 -3.890625 54.339844 -2.511719 C 54.511719 -1.910156 54.019531 -2.121094 53.71875 -2.191406 L 53.179688 -2.191406 C 52.890625 -2.988281 52.460938 -3.191406 51.839844 -2.488281 C 51.761719 -2.472656 51.679688 -2.472656 51.597656 -2.488281 C 51 -3.371094 50.261719 -3 49.5 -2.839844 C 48.371094 -2.539062 48.738281 -4.191406 47.800781 -4.140625 C 47.183594 -4.511719 46.414062 -4.511719 45.800781 -4.140625 L 45.199219 -4 L 43 -5.179688 C 42.308594 -5.988281 41.320312 -5.011719 40.589844 -5.589844 C 39.988281 -5.589844 39.53125 -6.371094 38.839844 -5.929688 C 38.730469 -5.570312 38.160156 -5.761719 38.109375 -5.320312 C 38.058594 -4.878906 37.449219 -4.988281 37.210938 -4.679688 L 36.902344 -4.597656 C 35.582031 -5.179688 34.417969 -4.5 33.21875 -4.152344 C 32.847656 -4.152344 32.710938 -4.46875 32.53125 -4.71875 C 32.433594 -5.09375 32.097656 -5.355469 31.710938 -5.347656 L 31.378906 -5.949219 C 31.609375 -6.019531 31.980469 -6.289062 31.910156 -6.308594 C 31.179688 -6.480469 30.332031 -7.480469 29.808594 -6.839844 C 29.128906 -6 28.402344 -6.347656 27.691406 -6.210938 C 27.019531 -6.582031 26.417969 -7.210938 25.539062 -6.859375 C 25.378906 -6.949219 25.269531 -6.859375 25.191406 -6.738281 L 24.46875 -6.589844 C 24.410156 -6.769531 24.339844 -6.941406 24.269531 -7.109375 C 23.859375 -6.808594 23.460938 -7.210938 23.050781 -7.109375 L 23.050781 -7.210938 C 22.609375 -7.390625 22.238281 -7.070312 21.832031 -7.03125 L 21.910156 -7.152344 L 22.109375 -7.152344 C 22.496094 -7.191406 22.835938 -7.417969 23.03125 -7.75 C 23.378906 -7.902344 23.714844 -8.085938 24.03125 -8.300781 C 24.628906 -8.769531 24.910156 -9.300781 23.917969 -9.660156 C 23.246094 -10.285156 22.230469 -10.367188 21.460938 -9.859375 L 20 -11.128906 C 18.902344 -11.199219 18 -11 18.058594 -9.667969 L 16 -9.28125 L 15.46875 -9.378906 C 13.886719 -9.449219 12.308594 -9.105469 10.902344 -8.378906 C 10.539062 -8.070312 10.902344 -7.320312 10.160156 -7.238281 L 9.582031 -7.238281 C 9.289062 -7.019531 8.929688 -7.160156 8.582031 -7.058594 L 8.488281 -7 C 8.226562 -7.121094 7.925781 -7.121094 7.660156 -7 C 7 -6.488281 7.230469 -6 8.300781 -5.410156 L 8.238281 -5.410156 L 8.238281 -5.332031 C 8.550781 -5.058594 8.511719 -4.699219 8.53125 -4.332031 C 8.429688 -4.558594 8.332031 -4.78125 8.25 -5.019531 C 7.808594 -4.96875 7.367188 -5.074219 7 -5.320312 C 6.785156 -5.585938 6.417969 -5.675781 6.109375 -5.53125 L 4.847656 -5.261719 C 4.433594 -5.371094 3.988281 -5.273438 3.652344 -5 C 3.539062 -4.699219 3.699219 -4.519531 3.847656 -4.332031 L 3.667969 -4.050781 C 3.167969 -3.050781 3.339844 -2.371094 4.402344 -2.160156 C 4.300781 -2.089844 4.25 -1.929688 4.289062 -1.621094 C 4.289062 -1.429688 4.210938 -1.238281 4.179688 -1.050781 C 3.585938 -0.183594 2.515625 0.214844 1.5 -0.0507812 C 1.582031 -0.679688 2.730469 -0.0507812 2.570312 -0.941406 L 2.839844 -1.210938 C 3.730469 -2.210938 2.761719 -3.332031 3.140625 -4.359375 L 2.738281 -4.660156 C 2.722656 -4.757812 2.722656 -4.863281 2.738281 -4.960938 C 3.210938 -5.25 3.011719 -5.691406 2.988281 -6.089844 C 2.199219 -6.082031 1.179688 -6.390625 1.179688 -5 C 0.667969 -4.878906 -0.0195312 -5 0.238281 -4.058594 C 0.652344 -3.597656 -0.269531 -3.339844 0.0585938 -2.890625 C 0.109375 -2.761719 0.167969 -2.636719 0.238281 -2.519531 C 0.0585938 -2.605469 -0.144531 -2.632812 -0.339844 -2.597656 C -0.910156 -2.371094 -1.339844 -2.941406 -1.878906 -2.890625 C -2.25 -3.289062 -2.609375 -3.378906 -2.941406 -2.890625 C -2.738281 -2.402344 -3.261719 -2.289062 -3.417969 -2 C -3.628906 -1.890625 -3.820312 -2.320312 -4.039062 -2 C -4.863281 -2.253906 -5.753906 -2.144531 -6.488281 -1.699219 C -7.128906 -2.980469 -7.71875 -1.699219 -8.339844 -1.699219 L -9.71875 -1.128906 C -10.121094 -0.128906 -10.78125 -0.609375 -11.390625 -0.832031 C -11.390625 -1.152344 -11.390625 -1.359375 -10.980469 -1.390625 C -10.359375 -1.390625 -10.589844 -1.75 -10.808594 -2.039062 C -11.21875 -2.160156 -11.652344 -2.359375 -11.808594 -1.710938 C -11.941406 -1.289062 -12.140625 -0.847656 -11.699219 -0.480469 C -11.820312 -0.339844 -11.929688 -0.199219 -12.050781 -0.0703125 L -12.929688 -0.140625 C -13.179688 0.0195312 -13.640625 -0.140625 -13.609375 0.402344 L -13.71875 0.402344 C -14.03125 0.628906 -14.167969 1.027344 -14.070312 1.402344 L -14.238281 1.449219 C -14.597656 1.449219 -14.929688 0.929688 -15.308594 1.390625 C -15.417969 1.53125 -15.308594 1.652344 -15.152344 1.699219 C -15.140625 1.796875 -15.140625 1.894531 -15.152344 1.988281 C -16.152344 1.988281 -17 1.761719 -16.949219 0.480469 C -17.050781 0.320312 -17.140625 0.160156 -17.238281 0.0117188 C -17.46875 -0.179688 -17.761719 -0.320312 -17.859375 -0.640625 C -17.78125 -0.644531 -17.707031 -0.675781 -17.652344 -0.730469 C -17.546875 -0.457031 -17.292969 -0.261719 -17 -0.238281 L -16.839844 -0.238281 C -16.699219 -0.0546875 -16.511719 0.09375 -16.300781 0.191406 C -15.621094 0.390625 -14.929688 0.839844 -14.300781 0.191406 C -14.113281 0.0117188 -13.933594 -0.179688 -13.769531 -0.378906 L -13.660156 -0.460938 L -13.53125 -0.660156 C -13.628906 -1.050781 -13.71875 -1.460938 -14.230469 -1.53125 C -14.738281 -1.597656 -15.230469 -2.199219 -15.78125 -2.441406 C -15.910156 -2.71875 -16.128906 -2.667969 -16.359375 -2.597656 C -16.386719 -2.582031 -16.410156 -2.550781 -16.417969 -2.519531 C -16.808594 -2.660156 -17.289062 -2.441406 -17.621094 -2.832031 C -17.714844 -2.816406 -17.816406 -2.816406 -17.910156 -2.832031 C -17.914062 -2.914062 -17.914062 -2.996094 -17.910156 -3.082031 L -18.488281 -3.082031 L -18.847656 -3.449219 C -18.785156 -3.535156 -18.785156 -3.652344 -18.847656 -3.738281 C -19.917969 -4.449219 -21.082031 -3.890625 -22.191406 -3.96875 L -24 -2.902344 L -24.941406 -2.582031 C -26.109375 -2.5 -26.417969 -1.429688 -27.082031 -0.738281 C -28.238281 -0.597656 -28.199219 0.332031 -28.371094 1.121094 L -28.660156 1.402344 L -29.5 1.769531 L -29.558594 2.082031 L -30.261719 2.621094 C -30.929688 2.621094 -31.261719 3.230469 -31.761719 3.488281 C -32.488281 4.570312 -31.839844 5.570312 -31.589844 6.597656 C -30.953125 6.835938 -30.238281 6.582031 -29.890625 6 L -29 5.808594 C -29 6.496094 -28.710938 7.152344 -28.199219 7.609375 C -28.199219 8.050781 -28.402344 8.339844 -28.902344 8.308594 C -28.890625 8.4375 -28.828125 8.558594 -28.726562 8.636719 C -28.628906 8.714844 -28.496094 8.75 -28.371094 8.730469 C -28.222656 8.777344 -28.058594 8.707031 -28 8.558594 C -27.933594 8.621094 -27.855469 8.667969 -27.769531 8.691406 C -25.960938 8.390625 -25.511719 7.789062 -26.03125 6.320312 L -25.929688 6.320312 C -25.46875 6.320312 -25.070312 6.210938 -25.039062 5.628906 C -25.050781 5.578125 -25.066406 5.527344 -25.089844 5.480469 C -24.890625 4.988281 -25.210938 4.910156 -25.5 4.808594 C -25.578125 4.667969 -25.605469 4.507812 -25.582031 4.347656 C -25.597656 4.160156 -25.683594 3.988281 -25.820312 3.859375 L -25.488281 3.03125 L -24.488281 2.402344 L -24 2.402344 C -23.820312 2.265625 -23.707031 2.0625 -23.679688 1.839844 C -23.679688 1.839844 -23.679688 1.769531 -23.679688 1.738281 C -23.511719 1.359375 -23.730469 0.820312 -23.332031 0.539062 L -21.789062 0.488281 C -21.152344 1.378906 -22.46875 1.417969 -22.460938 2.03125 C -22.878906 2.410156 -23.640625 2.480469 -23.609375 3.28125 C -23.558594 3.78125 -23.679688 4.28125 -23.320312 4.761719 L -22.71875 5.199219 C -22.402344 5.28125 -22.070312 5.332031 -21.71875 5.410156 L -21.609375 5.410156 C -21.789062 5.457031 -21.953125 5.554688 -22.082031 5.691406 C -22.347656 5.800781 -22.5 6.050781 -22.347656 6.269531 C -21.347656 7.832031 -22.589844 7.332031 -23.289062 7.332031 C -23.859375 7.609375 -23.75 8.050781 -23.570312 8.511719 C -23.570312 9.121094 -24.347656 8.96875 -24.511719 9.429688 L -25.097656 9.371094 C -25.449219 8.96875 -25.75 9.25 -26.050781 9.460938 C -26.730469 9.816406 -27.546875 9.796875 -28.210938 9.410156 C -28.4375 9.730469 -28.871094 9.824219 -29.210938 9.621094 C -29.285156 9.503906 -29.382812 9.402344 -29.5 9.332031 C -29.570312 9.316406 -29.640625 9.316406 -29.710938 9.332031 C -29.839844 8.804688 -29.636719 8.25 -29.191406 7.941406 L -29.128906 7.609375 C -29.191406 7.402344 -29.070312 6.96875 -29.371094 7.039062 C -29.667969 7.109375 -30.320312 7.300781 -30.300781 7.941406 C -30.5 8.488281 -30.152344 8.941406 -30.019531 9.449219 C -30.019531 9.628906 -30.097656 9.820312 -30.128906 10 C -31.097656 9.863281 -32.054688 10.308594 -32.570312 11.140625 C -32.847656 11.597656 -33.300781 11.609375 -33.730469 11.710938 C -34.261719 10.503906 -35.035156 9.425781 -36 8.53125 C -36.082031 8.402344 -36.25 8.199219 -36.210938 8.140625 C -35.410156 6.902344 -36.691406 6.761719 -37.210938 6.679688 C -37.890625 6.570312 -37.75 7.402344 -37.847656 7.878906 C -37.320312 8.269531 -37.21875 9.070312 -36.609375 9.390625 C -36.78125 9.691406 -37.058594 9.960938 -37.019531 10.390625 L -36.960938 10.5 L -37.53125 11.320312 C -37.496094 11.398438 -37.433594 11.457031 -37.351562 11.472656 C -37.269531 11.496094 -37.183594 11.472656 -37.121094 11.417969 C -37.121094 11.820312 -37.179688 12.210938 -36.621094 12.238281 C -36.488281 12.132812 -36.332031 12.054688 -36.167969 12.011719 C -35.824219 12.144531 -35.4375 12.144531 -35.089844 12.011719 L -34.5 11.890625 L -33.847656 11.949219 C -33.847656 12.058594 -33.847656 12.167969 -33.847656 12.28125 C -34.289062 13.019531 -35.269531 12.628906 -35.847656 13.191406 C -36.089844 13.539062 -36.800781 13.109375 -36.847656 13.789062 L -35.847656 15.019531 C -35.628906 15.527344 -35.628906 16.101562 -35.847656 16.609375 C -35.957031 16.675781 -36.019531 16.796875 -36 16.917969 C -37.136719 16.707031 -38.300781 16.683594 -39.449219 16.839844 C -39.980469 17.960938 -39.511719 19.152344 -39.691406 20.289062 C -39.691406 21.289062 -38.871094 20.582031 -38.539062 20.871094 C -38.527344 20.816406 -38.527344 20.753906 -38.539062 20.699219 C -38.25 20.917969 -38.070312 21.320312 -37.621094 21.269531 C -37.261719 20.902344 -36.738281 21.070312 -36.308594 20.929688 C -36.199219 20.949219 -36.09375 20.980469 -35.988281 21.019531 C -35.628906 20.980469 -35.355469 20.679688 -35.347656 20.320312 C -34.242188 19.441406 -33.398438 18.277344 -32.910156 16.949219 C -32.792969 17.007812 -32.675781 17.074219 -32.570312 17.152344 C -31.742188 17.410156 -30.835938 17.183594 -30.230469 16.558594 L -30.140625 16.460938 C -29.96875 16.480469 -29.792969 16.4375 -29.652344 16.339844 C -29.402344 17.128906 -28.785156 17.746094 -28 18 L -27.121094 18.441406 L -26.429688 19.269531 C -26.511719 19.660156 -26.753906 19.996094 -27.097656 20.199219 C -27.441406 20.300781 -27.871094 19.789062 -28.097656 20.308594 C -28.097656 20.371094 -27.640625 20.667969 -27.390625 20.871094 C -26.917969 20.871094 -26.640625 20.699219 -26.902344 20.179688 C -26.261719 20.019531 -25.710938 19.789062 -25.902344 18.960938 L -25.800781 18.960938 C -25.910156 18.199219 -26.25 17.691406 -27.109375 17.761719 C -27.582031 17.609375 -27.519531 17.097656 -27.78125 16.761719 C -27.992188 16.539062 -28.175781 16.289062 -28.320312 16.019531 L -28.210938 15.960938 C -27.261719 15.667969 -27.019531 17.019531 -26.128906 16.859375 L -26.019531 16.808594 L -24.660156 17.679688 C -24.558594 18.058594 -24.832031 18.539062 -24.429688 18.847656 C -24.472656 19.160156 -24.304688 19.460938 -24.019531 19.589844 L -24 19.589844 C -23.910156 19.859375 -23.539062 20.050781 -23.769531 20.410156 C -23.378906 20.832031 -23.109375 20.832031 -22.710938 20.308594 C -22.109375 19.539062 -23.109375 19.390625 -23.152344 18.890625 C -22.679688 18.21875 -21.980469 18.269531 -21.289062 18.25 C -21.019531 18.539062 -21.230469 19.097656 -20.730469 19.25 C -20.730469 19.53125 -21.03125 19.839844 -20.652344 20.082031 C -20.261719 20.910156 -19.652344 21.238281 -18.800781 20.761719 C -18.703125 20.746094 -18.609375 20.714844 -18.519531 20.679688 C -18.03125 20.910156 -17.519531 21.480469 -17.039062 20.679688 C -16.761719 21 -16.097656 20.679688 -16.039062 21.28125 C -16.199219 22.398438 -16.652344 23.453125 -17.347656 24.339844 L -17.902344 24.339844 C -18.285156 23.917969 -18.90625 23.808594 -19.410156 24.082031 C -20.269531 24.300781 -21.175781 24.242188 -22 23.910156 C -22.820312 23.640625 -23.78125 22.238281 -24.339844 24.191406 C -24.339844 24.289062 -24.390625 24.390625 -24.410156 24.488281 C -25.628906 24.832031 -26.410156 23.871094 -27.410156 23.488281 L -29.199219 22.910156 C -29.550781 22.667969 -29.660156 22.390625 -29.347656 22.039062 C -28.941406 21.210938 -29.21875 20.75 -30.121094 20.738281 C -31.019531 20.730469 -31.628906 20.832031 -32.378906 20.890625 C -33.613281 20.746094 -34.847656 21.105469 -35.808594 21.890625 C -35.839844 21.878906 -35.878906 21.878906 -35.910156 21.894531 C -35.9375 21.910156 -35.960938 21.9375 -35.96875 21.96875 C -36.46875 21.550781 -37.070312 21.808594 -37.621094 21.710938 L -37.621094 21.597656 C -38.269531 21.890625 -38.53125 22.878906 -39.460938 22.679688 C -39.964844 23.253906 -40.183594 24.027344 -40.058594 24.78125 C -40.480469 25.878906 -42.179688 25.78125 -42.28125 27.191406 L -42.847656 27.902344 C -42.933594 27.886719 -43.023438 27.886719 -43.109375 27.902344 C -42.871094 28.628906 -44.109375 29.089844 -43.628906 29.902344 L -43.75 30.191406 C -43.859375 31.097656 -43.570312 32.050781 -44.058594 32.917969 C -44.070312 32.992188 -44.070312 33.066406 -44.058594 33.140625 C -43.539062 33.847656 -43.808594 34.96875 -42.859375 35.460938 C -42.289062 35.761719 -42.058594 36.371094 -41.679688 36.832031 L -41.050781 37.710938 L -40.75 37.710938 C -39.832031 37.949219 -39.152344 39.300781 -37.980469 38.308594 C -37.304688 38.195312 -36.613281 38.296875 -36 38.597656 L -33.539062 37.679688 L -32.308594 37.679688 L -32 38 C -31.917969 38.941406 -31.25 38.570312 -30.738281 38.558594 L -30.441406 38.640625 L -29.847656 38.730469 L -29.558594 39.238281 C -30.019531 40.941406 -30.109375 42.550781 -28.347656 43.640625 C -27.882812 44.886719 -27.65625 46.207031 -27.679688 47.539062 C -28.449219 47.800781 -28.140625 48.667969 -28.570312 49.128906 L -28.570312 49.390625 C -28.820312 51.082031 -27.402344 52.199219 -27.082031 53.691406 C -27.082031 54.03125 -27.199219 54.402344 -26.820312 54.691406 C -26.792969 54.777344 -26.792969 54.863281 -26.820312 54.949219 C -27.261719 55.429688 -26.699219 55.621094 -26.539062 55.949219 C -26 56.949219 -25.238281 57.878906 -25.289062 59.128906 C -25.289062 59.550781 -25.011719 59.761719 -24.628906 59.847656 C -24.660156 59.890625 -24.660156 59.949219 -24.628906 59.988281 L -24.28125 59.988281 L -24.28125 59.859375 C -22.808594 59.402344 -20.949219 60.097656 -19.910156 58.390625 C -19.050781 58.21875 -18.808594 57.449219 -18.390625 56.839844 L -18.140625 56.839844 C -17.683594 56.3125 -17.628906 55.550781 -18 54.960938 C -17.988281 54.898438 -18.019531 54.839844 -18.082031 54.820312 C -17.347656 54.820312 -16.910156 54.25 -16.289062 54.03125 C -16.5 52.5 -16.691406 50.980469 -14.949219 50.128906 C -14.628906 50.167969 -14.316406 50.035156 -14.121094 49.78125 L -13.710938 49.46875 C -13.628906 49.058594 -13.558594 48.652344 -13.480469 48.238281 C -12.679688 47.109375 -13.597656 46.109375 -13.71875 45.039062 C -14.152344 44.269531 -13.628906 43.480469 -13.769531 42.699219 C -13.441406 42.160156 -12.769531 41.859375 -12.640625 41.167969 L -12.550781 40.871094 C -11.871094 40.871094 -11.550781 40.210938 -11.039062 39.929688 C -9.878906 39.097656 -9.011719 37.910156 -8.570312 36.550781 C -8.03125 36.121094 -8.339844 35.550781 -8.289062 35.019531 C -9.339844 34.566406 -10.566406 34.785156 -11.390625 35.582031 C -12.089844 35.300781 -12.21875 34.582031 -12.511719 34.011719 L -12.640625 34.011719 C -12.847656 33.667969 -13.148438 33.398438 -13.511719 33.230469 L -14.417969 32.808594 C -14.410156 32.714844 -14.410156 32.617188 -14.417969 32.519531 C -14.917969 30.632812 -15.722656 28.839844 -16.808594 27.21875 L -17.152344 26.371094 L -16.5 25.769531 C -16.410156 25.738281 -16.316406 25.722656 -16.21875 25.71875 C -15.824219 26.78125 -15.199219 27.746094 -14.390625 28.539062 C -14.191406 29.039062 -14.390625 29.660156 -13.847656 30.050781 C -13.859375 30.09375 -13.859375 30.136719 -13.847656 30.179688 C -13.832031 30.761719 -13.417969 31.25 -12.847656 31.371094 L -12.738281 31.371094 C -12.550781 31.628906 -12.378906 31.910156 -12.238281 32.199219 C -12.304688 32.394531 -12.339844 32.597656 -12.339844 32.800781 C -12.371094 33.015625 -12.296875 33.230469 -12.140625 33.378906 L -11.910156 33.539062 C -11.910156 34.070312 -11.789062 34.480469 -11.140625 34.25 C -10.488281 34.019531 -9.761719 33.691406 -9.082031 33.410156 C -8.089844 32.992188 -7.144531 32.488281 -6.238281 31.910156 L -5.691406 31.910156 L -4.128906 30.070312 C -2.589844 28.832031 -3.917969 28.609375 -4.800781 28.230469 C -5.089844 27.71875 -5.21875 26.730469 -6.019531 27.878906 C -6.378906 28.410156 -7.019531 28.082031 -7.539062 28.261719 C -7.53125 28.347656 -7.53125 28.433594 -7.539062 28.519531 L -7.609375 28.519531 C -7.558594 28.445312 -7.535156 28.359375 -7.539062 28.269531 C -7.539062 27.652344 -7.761719 27.269531 -8.429688 27.269531 C -8.429688 26.339844 -9.347656 25.917969 -9.660156 25.152344 C -9.589844 25.09375 -9.558594 25.007812 -9.570312 24.917969 C -9.492188 24.929688 -9.417969 24.890625 -9.378906 24.820312 C -8.539062 24.609375 -8.121094 25.082031 -7.808594 25.761719 C -7.738281 26.050781 -7.511719 26.109375 -7.25 26.128906 C -6.941406 26.691406 -6.246094 26.914062 -5.667969 26.640625 C -5.546875 26.550781 -5.394531 26.519531 -5.246094 26.542969 C -5.097656 26.570312 -4.964844 26.65625 -4.878906 26.78125 C -4.242188 27.503906 -3.253906 27.8125 -2.320312 27.582031 L -0.152344 27.582031 L 0.460938 27.949219 C 0.628906 28.359375 0.96875 28.675781 1.390625 28.820312 C 1.949219 29.082031 1.167969 29.46875 1.488281 29.75 C 1.96875 29.75 2.300781 30.308594 2.832031 30.058594 C 2.945312 29.972656 3.007812 29.832031 3 29.691406 C 3.082031 29.859375 3.191406 30.011719 3.269531 30.167969 C 3.109375 30.402344 3.210938 30.667969 3.269531 30.929688 C 3.175781 31.730469 3.441406 32.527344 4 33.109375 C 4.140625 34.191406 5 35.03125 5 36.167969 C 5.402344 36.167969 5.738281 37.480469 6.191406 36.167969 C 6.917969 35.890625 6.589844 35.019531 7.058594 34.589844 C 7.222656 34.429688 7.230469 34.167969 7.070312 34 C 7.070312 33.710938 7.070312 33.410156 7.019531 33.109375 C 7.023438 33.070312 7.023438 33.027344 7.019531 32.988281 C 7.121094 32.917969 7.210938 32.824219 7.28125 32.71875 C 7.265625 32.648438 7.265625 32.574219 7.28125 32.5 C 7.800781 32.5 8.019531 32.019531 8.417969 31.847656 C 8.46875 31.761719 8.5 31.667969 8.511719 31.570312 C 8.878906 31.5 9.203125 31.296875 9.429688 31 C 10.371094 30.769531 10.558594 29.460938 11.652344 29.441406 C 12.230469 29.679688 13.179688 28.371094 13.460938 29.871094 C 13.550781 30.191406 13.820312 30.300781 14.089844 30.417969 C 14.167969 30.808594 14.378906 31.160156 14.679688 31.417969 C 14.679688 31.917969 14.082031 32.808594 15.359375 32.597656 L 15.359375 32.480469 C 16.300781 31.859375 16.5 32.269531 16.359375 33.179688 C 16.070312 33.699219 16.820312 33.941406 16.691406 34.417969 L 16.691406 35.011719 C 16.691406 35.332031 16.691406 35.660156 16.691406 36.011719 C 16.691406 36.359375 16.128906 36.390625 16.621094 36.699219 C 17.164062 37.121094 17.523438 37.738281 17.621094 38.417969 L 17.621094 39.03125 C 18.039062 39.570312 18.480469 40.097656 19.289062 39.941406 C 19.289062 39.339844 19.460938 38.71875 19.058594 38.179688 C 18.972656 37.796875 18.609375 37.542969 18.21875 37.597656 L 18.089844 37.597656 L 17.261719 36.230469 L 17.191406 35.300781 C 17.207031 35.199219 17.207031 35.097656 17.199219 35 C 17.550781 33.78125 18.199219 34.089844 18.660156 34.832031 C 18.941406 35.292969 19.433594 35.582031 19.96875 35.597656 C 20.082031 35.949219 19.839844 36.191406 19.679688 36.460938 C 20.570312 36.511719 20.878906 35.660156 21.511719 35.300781 C 22.609375 34.808594 22.359375 33.980469 22.039062 33.140625 C 21.71875 32.300781 20.152344 31.78125 20.582031 30.371094 L 21.199219 29.769531 L 22.097656 29.769531 C 22.148438 29.855469 22.207031 29.9375 22.28125 30.011719 C 22.652344 30.25 21.730469 30.820312 22.511719 30.929688 C 23.289062 31.039062 22.980469 30.511719 22.96875 30.152344 C 22.960938 29.789062 23.488281 29.75 23.660156 29.449219 L 24.570312 29.140625 C 24.71875 28.96875 25.03125 29 25.210938 28.859375 C 25.519531 28.960938 25.832031 29.058594 26.097656 28.761719 C 26.105469 28.679688 26.105469 28.597656 26.097656 28.519531 C 27.558594 28.152344 27.628906 26.609375 28.460938 25.710938 C 28.539062 25.417969 29.050781 25.160156 28.519531 24.820312 C 28.824219 24.035156 28.621094 23.140625 28 22.570312 C 27.804688 22.382812 27.691406 22.121094 27.691406 21.847656 C 27.691406 21.578125 27.804688 21.316406 28 21.128906 C 28.261719 21.070312 28.710938 21.128906 28.570312 20.691406 C 28.308594 19.78125 27.730469 21.011719 27.371094 20.550781 C 27.386719 20.464844 27.363281 20.371094 27.308594 20.300781 C 27.253906 20.230469 27.167969 20.191406 27.082031 20.191406 C 26.667969 19.878906 26.800781 19.582031 27.082031 19.300781 C 27.457031 19.246094 27.785156 19.011719 27.960938 18.667969 C 28.238281 18.597656 28.667969 18.191406 28.730469 18.429688 C 29.050781 19.660156 30.660156 19.160156 31.03125 20.230469 C 31.480469 20.761719 30.949219 21.488281 31.390625 22.019531 C 32.539062 22.070312 33.199219 21.75 32.609375 20.449219 L 32.210938 19.917969 C 32.160156 19.589844 31.761719 19.359375 31.949219 18.917969 C 32.800781 18.769531 32.949219 18.03125 33.25 17.402344 L 33.820312 17.121094 L 33.820312 17.039062 L 34.152344 17.039062 C 34.640625 17.378906 35.03125 17.179688 35.378906 16.800781 L 36.800781 15.402344 L 37 15.402344 C 37.902344 14.886719 38.542969 14.011719 38.761719 13 C 38.746094 12.527344 38.824219 12.058594 39 11.621094 C 39 11.621094 39 11.550781 39 11.519531 C 39.027344 11.699219 39.125 11.863281 39.269531 11.96875 C 39.242188 12.007812 39.242188 12.0625 39.269531 12.097656 L 39.199219 12.097656 C 38.5625 12.859375 38.535156 13.960938 39.140625 14.75 C 39.28125 14.785156 39.429688 14.765625 39.558594 14.699219 C 39.566406 13.910156 39.78125 13.140625 40.179688 12.460938 C 40.207031 12.121094 40.089844 11.785156 39.859375 11.539062 C 39.738281 11.050781 40.199219 10.332031 39.640625 10.070312 C 39.082031 9.808594 39.53125 10.871094 38.960938 10.871094 C 38.808594 10.550781 38.820312 10.152344 38.46875 9.941406 L 38.011719 9.390625 L 37.410156 9.710938 L 36.800781 9.710938 C 36.46875 9.402344 36.039062 9.191406 35.871094 8.710938 L 36.199219 8.441406 L 36.488281 8.128906 L 38.109375 7 C 39.359375 5.488281 41.03125 5.597656 42.730469 5.800781 L 43.050781 5.46875 L 43.660156 5.558594 C 43.839844 5.605469 44.011719 5.679688 44.167969 5.78125 C 44.167969 6.160156 44.371094 6.269531 44.871094 6.109375 C 45.371094 5.949219 45.871094 5.890625 45.871094 5.167969 C 46.261719 4.988281 46.5625 4.652344 46.699219 4.238281 L 46.789062 3.941406 L 47.679688 3.808594 C 48.410156 3.660156 48.609375 4.808594 49.417969 4.5 C 50.011719 4.5 50.320312 4.039062 50.75 3.769531 C 50.574219 3.964844 50.527344 4.238281 50.628906 4.480469 C 50.378906 4.378906 50.210938 4.410156 50.140625 4.640625 C 50.019531 4.660156 49.910156 4.714844 49.820312 4.789062 C 49.582031 5.582031 48.589844 5.660156 48.300781 6.402344 C 47.917969 6.488281 47.539062 6.570312 47.390625 7.011719 L 47.082031 7.347656 C 46.082031 7.96875 46.691406 8.941406 46.582031 9.75 C 46.582031 9.859375 46.582031 9.96875 46.511719 10.089844 C 46.820312 10.539062 46.691406 11.449219 47.660156 11.230469 C 48.050781 11.070312 47.96875 10.71875 48 10.410156 L 48.550781 10.359375 C 48.722656 9.957031 48.972656 9.59375 49.289062 9.289062 C 50.082031 8.800781 50.375 7.796875 49.96875 6.960938 C 49.96875 6.738281 49.378906 6.597656 49.75 6.441406 C 50.359375 6.160156 50.410156 5.558594 50.75 5.152344 C 51.097656 5.152344 51.46875 5.300781 51.75 4.929688 C 51.84375 4.941406 51.933594 4.910156 52 4.839844 C 52.023438 4.785156 52.066406 4.742188 52.121094 4.71875 L 52 4.839844 L 52.929688 4.769531 L 54.160156 4.859375 C 54.535156 4.808594 54.855469 4.5625 55 4.210938 C 56 3.980469 56.710938 3.210938 57.769531 3.210938 C 58.140625 3.199219 58.539062 3.402344 58.78125 3 Z M -26.339844 33.609375 L -26.558594 33.609375 Z M -23.730469 39.28125 Z M -18.800781 32.808594 Z M -23.71875 32.808594 L -23.800781 32.808594 Z M -27.050781 38.808594 L -27.128906 38.808594 L -27 38.808594 Z M -18.480469 39.210938 Z M -40.640625 32.761719 Z M -36 27.582031 Z M -36 32.789062 Z M -35.660156 32.789062 C -35.664062 32.839844 -35.664062 32.890625 -35.660156 32.941406 Z M -36 28.199219 Z M -27.152344 39 C -27.082031 39.152344 -27.210938 39 -27.152344 38.929688 C -27.152344 38.953125 -27.152344 38.976562 -27.152344 39 Z M -18.5 39.5 Z M -29.570312 32.789062 Z M -24.339844 54.628906 Z M 20.710938 -6.902344 C 20.777344 -6.808594 20.855469 -6.722656 20.941406 -6.652344 C 20.761719 -6.558594 20.605469 -6.433594 20.480469 -6.28125 C 20.421875 -6.292969 20.359375 -6.292969 20.300781 -6.28125 C 20.253906 -6.519531 20.355469 -6.761719 20.558594 -6.890625 L 20.710938 -6.890625 Z M -18.488281 -1.347656 Z M -18.488281 -1.03125 Z M 14.429688 -1.121094 L 14.480469 -1.050781 L 14.429688 -1.050781 Z M -1.871094 10.058594 Z M 14.738281 4.199219 Z M 20.261719 16.550781 L 20.320312 16.550781 C 20.300781 16.542969 20.277344 16.542969 20.261719 16.550781 Z M 20.597656 16.488281 Z M 20.597656 4.488281 L 20.597656 4.390625 C 20.589844 4.425781 20.589844 4.464844 20.597656 4.5 Z M 8.597656 10.339844 Z M 20.597656 4.191406 Z M 25.53125 4.191406 Z M -7.710938 4.511719 Z M -1.871094 21.109375 Z M 3.359375 21.417969 L 3.359375 21.339844 L 3.359375 21.46875 Z M 20.597656 21.417969 L 20.652344 21.417969 Z M 36.597656 -1.089844 C 36.597656 -1.089844 36.570312 -1 36.570312 -1.058594 Z M 31.660156 -1 C 31.660156 -1 31.660156 -1 31.660156 -1.058594 Z M 25.808594 -1 Z M 25.5 -1 Z M 3.347656 4.230469 Z M -1.871094 -1 L -1.871094 -1.140625 C -1.875 -1.09375 -1.875 -1.046875 -1.871094 -1 Z M -9.300781 19.28125 C -9.089844 19.101562 -8.957031 18.84375 -8.941406 18.566406 C -8.925781 18.292969 -9.027344 18.019531 -9.21875 17.820312 C -9.613281 17.484375 -9.886719 17.035156 -10 16.53125 C -10 16.21875 -10.109375 15.910156 -10.167969 15.609375 L -9.480469 15.039062 L -7.761719 14.320312 C -6.902344 14.640625 -6.609375 15.019531 -7.640625 15.511719 C -7.949219 15.660156 -8.332031 15.75 -8.128906 16.230469 C -8.230469 16.878906 -7.210938 16.980469 -7.429688 17.679688 C -7.21875 17.910156 -7.070312 17.929688 -6.949219 17.839844 C -6.878906 17.9375 -6.820312 18.042969 -6.769531 18.152344 C -6.910156 18.160156 -7.039062 18.207031 -7.152344 18.289062 C -7.769531 19.121094 -6.480469 19.03125 -6.53125 19.589844 L -6.53125 20.871094 C -6.5625 20.808594 -6.597656 20.746094 -6.640625 20.691406 C -7.105469 20.371094 -7.730469 20.394531 -8.167969 20.75 C -8.253906 20.734375 -8.34375 20.734375 -8.429688 20.75 L -8.589844 20.820312 C -9.339844 20.46875 -9.230469 19.839844 -9.300781 19.28125 Z M 25.5 21.429688 Z M 25.800781 21.429688 Z M 48 -1.359375 C 47.980469 -1.335938 47.964844 -1.308594 47.949219 -1.28125 Z M 47.660156 -3.359375 C 47.539062 -3.300781 47.660156 -3.410156 47.660156 -3.417969 Z M -2.5 21.761719 L -2.5 21.890625 C -2.5 21.839844 -2.5 21.800781 -2.570312 21.761719 Z M -2.5 25.082031 Z M 9.199219 30.339844 Z M 51.347656 3.929688 Z M -20.460938 5 L -20.269531 5 L -20.339844 5.058594 C -20.480469 5.175781 -20.648438 5.257812 -20.832031 5.289062 C -20.683594 5.222656 -20.558594 5.125 -20.460938 5 Z M -18.332031 18 C -18.804688 17.605469 -19.5 17.636719 -19.941406 18.070312 C -20.050781 16.730469 -19.019531 15.847656 -18.558594 14.738281 C -18.347656 15.160156 -17.902344 15.300781 -17.480469 15.480469 L -17.417969 15.480469 C -17.53125 15.847656 -17.289062 16.019531 -16.890625 16.011719 C -16.660156 15.964844 -16.445312 15.875 -16.25 15.75 L -16.699219 15.378906 C -16.492188 15.277344 -16.316406 15.117188 -16.191406 14.917969 C -16.152344 14.847656 -16.105469 14.785156 -16.050781 14.730469 C -15.847656 14.707031 -15.652344 14.652344 -15.46875 14.570312 L -15.238281 14.621094 C -14.917969 14.621094 -14.558594 14.621094 -14.929688 15.070312 C -14.945312 15.113281 -14.945312 15.160156 -14.929688 15.199219 C -15.191406 15.441406 -15.699219 15.667969 -14.929688 15.988281 L -14.78125 15.988281 C -14.824219 16.035156 -14.878906 16.074219 -14.941406 16.097656 C -14.910156 16.308594 -14.785156 16.492188 -14.601562 16.597656 C -14.417969 16.703125 -14.195312 16.71875 -14 16.640625 C -14.121094 17.238281 -13.738281 17.488281 -13.210938 17.640625 C -13.097656 17.730469 -13.089844 17.5 -13.03125 17.488281 C -13.039062 17.527344 -13.054688 17.5625 -13.082031 17.589844 C -13.113281 17.65625 -13.113281 17.734375 -13.082031 17.800781 C -13.53125 17.710938 -13.691406 18.070312 -13.878906 18.378906 C -14.050781 18.363281 -14.226562 18.363281 -14.402344 18.378906 C -14.988281 18.289062 -15.667969 18.378906 -16.058594 17.820312 C -16.769531 17.386719 -17.671875 17.433594 -18.332031 17.941406 Z M -18.332031 18 "/>
</g>
</g>
<g clip-path="url(#clip15)" clip-rule="nonzero">
<g clip-path="url(#clip16)" clip-rule="nonzero">
<path style=" stroke:none;fill-rule:nonzero;fill:rgb(27.058824%,89.019608%,100%);fill-opacity:1;" d="M 30.730469 44.210938 C 30.019531 43.761719 29.332031 44.859375 28.597656 44.210938 C 28.46875 44.089844 28.210938 44.28125 28.269531 44.539062 C 28.402344 45.21875 28.789062 46.261719 29.167969 46.25 C 30.097656 46.25 31.03125 47.417969 31.949219 46.320312 C 32.210938 45.199219 33.699219 44.320312 32.699219 42.929688 C 32.488281 42.347656 32.097656 42.429688 31.699219 42.660156 C 31.699219 43.230469 31.464844 43.769531 31.050781 44.160156 Z M 30.730469 44.210938 "/>
</g>
</g>
<g clip-path="url(#clip17)" clip-rule="nonzero">
<g clip-path="url(#clip18)" clip-rule="nonzero">
<path style=" stroke:none;fill-rule:nonzero;fill:rgb(27.058824%,89.019608%,100%);fill-opacity:1;" d="M 34.679688 44.5 C 35.25 44.902344 36.011719 44.902344 36.582031 44.5 L 36.582031 43.910156 C 36.050781 44.46875 35.167969 43.871094 34.679688 44.5 Z M 34.679688 44.5 "/>
</g>
</g>
<g clip-path="url(#clip19)" clip-rule="nonzero">
<g clip-path="url(#clip20)" clip-rule="nonzero">
<path style=" stroke:none;fill-rule:nonzero;fill:rgb(27.058824%,89.019608%,100%);fill-opacity:1;" d="M 37.832031 43.941406 C 37.722656 44.378906 37.824219 44.84375 38.097656 45.199219 C 38.859375 44.167969 38.839844 44.070312 37.832031 43.941406 Z M 37.832031 43.941406 "/>
</g>
</g>
<g clip-path="url(#clip21)" clip-rule="nonzero">
<g clip-path="url(#clip22)" clip-rule="nonzero">
<path style=" stroke:none;fill-rule:nonzero;fill:rgb(27.058824%,89.019608%,100%);fill-opacity:1;" d="M 34 47.847656 C 34.347656 47.472656 34.410156 46.910156 34.152344 46.46875 C 34.269531 46.546875 34.410156 46.589844 34.550781 46.589844 C 34.53125 46.730469 34.578125 46.871094 34.679688 46.96875 C 34.902344 47.238281 35.128906 47.347656 35.347656 46.96875 L 35 46.347656 C 34.839844 45.960938 35.160156 45.71875 35.308594 45.429688 C 34.917969 44.960938 34.460938 45.730469 34.058594 45.347656 L 34.058594 45.429688 L 34.128906 45.429688 C 32.859375 46.199219 33.738281 47 34 47.847656 Z M 34 47.847656 "/>
</g>
</g>
<g clip-path="url(#clip23)" clip-rule="nonzero">
<g clip-path="url(#clip24)" clip-rule="nonzero">
<path style=" stroke:none;fill-rule:nonzero;fill:rgb(27.058824%,89.019608%,100%);fill-opacity:1;" d="M 27.878906 28.878906 C 27.949219 29.023438 28.0625 29.144531 28.199219 29.230469 C 28.699219 28.878906 28.597656 28.230469 28.960938 27.488281 C 28.089844 27.847656 27.710938 28.199219 27.878906 28.878906 Z M 27.878906 28.878906 "/>
</g>
</g>
<g clip-path="url(#clip25)" clip-rule="nonzero">
<g clip-path="url(#clip26)" clip-rule="nonzero">
<path style=" stroke:none;fill-rule:nonzero;fill:rgb(27.058824%,89.019608%,100%);fill-opacity:1;" d="M 24.917969 39.902344 C 25.5 39.902344 25.46875 39.410156 25.519531 39.011719 C 25.988281 38.46875 27.210938 39.320312 27.300781 38.058594 C 26.730469 37.859375 26.21875 37.160156 25.539062 37.847656 L 24.902344 38.660156 C 24.691406 38.878906 24.480469 39.089844 24.28125 39.308594 C 23.78125 39.511719 23.21875 39.621094 22.96875 40.199219 C 23.617188 40.527344 24.402344 40.40625 24.917969 39.902344 Z M 24.917969 39.902344 "/>
</g>
</g>
<g clip-path="url(#clip27)" clip-rule="nonzero">
<g clip-path="url(#clip28)" clip-rule="nonzero">
<path style=" stroke:none;fill-rule:nonzero;fill:rgb(27.058824%,89.019608%,100%);fill-opacity:1;" d="M 37.910156 19.371094 C 37.816406 19.660156 37.695312 19.941406 37.550781 20.210938 L 37.308594 20.558594 C 37.101562 20.457031 36.859375 20.457031 36.652344 20.558594 L 36.191406 21.441406 C 36.109375 21.558594 35.96875 21.621094 35.871094 21.730469 L 34.417969 21.730469 L 34.300781 22 C 33.96875 22.140625 34.03125 22.378906 34.121094 22.640625 C 34.472656 22.878906 34.894531 22.988281 35.320312 22.941406 C 35.558594 22.699219 35.597656 22.328125 35.417969 22.039062 L 35.78125 22.089844 L 35.78125 22.160156 C 35.886719 22.386719 36.09375 22.550781 36.339844 22.597656 C 36.753906 22.277344 37.246094 22.066406 37.769531 22 C 38.152344 21.941406 38.859375 22 38.699219 21.167969 C 38.699219 20.230469 40 19.460938 39.019531 18.410156 C 38.878906 17.847656 38.808594 17.347656 39.660156 17.46875 C 40.511719 17.589844 40.75 17.28125 40.339844 16.46875 L 39.667969 15.660156 C 39.199219 15.660156 39.058594 16.082031 38.910156 16.441406 C 38.902344 16.503906 38.902344 16.574219 38.910156 16.640625 L 38.738281 16.640625 C 38.378906 16.667969 38.058594 16.894531 37.910156 17.230469 C 37.742188 17.648438 37.902344 18.128906 38.289062 18.359375 L 38.390625 18.359375 C 38.15625 18.65625 37.992188 19 37.910156 19.371094 Z M 37.910156 19.371094 "/>
</g>
</g>
<g clip-path="url(#clip29)" clip-rule="nonzero">
<g clip-path="url(#clip30)" clip-rule="nonzero">
<path style=" stroke:none;fill-rule:nonzero;fill:rgb(27.058824%,89.019608%,100%);fill-opacity:1;" d="M 33.179688 23.621094 L 33.488281 24.039062 C 33.742188 23.921875 33.925781 23.699219 33.996094 23.429688 C 34.066406 23.160156 34.011719 22.875 33.847656 22.652344 C 33.082031 22.597656 32.917969 23 33.179688 23.621094 Z M 33.179688 23.621094 "/>
</g>
</g>
<g clip-path="url(#clip31)" clip-rule="nonzero">
<g clip-path="url(#clip32)" clip-rule="nonzero">
<path style=" stroke:none;fill-rule:nonzero;fill:rgb(27.058824%,89.019608%,100%);fill-opacity:1;" d="M 31.082031 36.800781 C 31.082031 36.539062 31.082031 36.238281 30.730469 36.152344 L 30.152344 36.589844 C 29.65625 36.40625 29.105469 36.636719 28.890625 37.121094 L 29.191406 37.210938 C 29.5 37.070312 29.761719 37.050781 29.878906 37.449219 C 30 37.847656 30.25 37.660156 30.417969 37.78125 C 30.589844 37.902344 30.769531 37.730469 30.839844 37.53125 C 30.84375 37.496094 30.84375 37.464844 30.839844 37.429688 L 31 37.429688 C 31.191406 37.230469 31.511719 37.050781 31.082031 36.800781 Z M 31.082031 36.800781 "/>
</g>
</g>
<g clip-path="url(#clip33)" clip-rule="nonzero">
<g clip-path="url(#clip34)" clip-rule="nonzero">
<path style=" stroke:none;fill-rule:nonzero;fill:rgb(27.058824%,89.019608%,100%);fill-opacity:1;" d="M 28.390625 31.308594 C 28.035156 31.796875 27.894531 32.40625 28 33 C 28 33.070312 28.128906 33.128906 28.199219 33.199219 C 28.121094 34.199219 28.949219 34 29.519531 34.121094 C 29.601562 33.835938 29.464844 33.535156 29.199219 33.410156 L 28.621094 33.140625 C 28.710938 32.917969 28.800781 32.691406 28.910156 32.46875 C 29.261719 31.699219 28.808594 30.871094 28.390625 31.308594 Z M 28.390625 31.308594 "/>
</g>
</g>
<g clip-path="url(#clip35)" clip-rule="nonzero">
<g clip-path="url(#clip36)" clip-rule="nonzero">
<path style=" stroke:none;fill-rule:nonzero;fill:rgb(27.058824%,89.019608%,100%);fill-opacity:1;" d="M 29.550781 35.441406 C 29.300781 35.359375 29.210938 35.53125 29.210938 35.75 C 29.242188 35.910156 29.285156 36.066406 29.339844 36.21875 C 29.480469 36.03125 29.597656 35.929688 29.621094 35.808594 C 29.640625 35.691406 29.609375 35.460938 29.550781 35.441406 Z M 29.550781 35.441406 "/>
</g>
</g>
<g clip-path="url(#clip37)" clip-rule="nonzero">
<g clip-path="url(#clip38)" clip-rule="nonzero">
<path style=" stroke:none;fill-rule:nonzero;fill:rgb(27.058824%,89.019608%,100%);fill-opacity:1;" d="M 7.199219 36.140625 C 6.699219 36.039062 6.71875 36.488281 6.71875 36.859375 C 6.691406 37.058594 6.746094 37.265625 6.871094 37.425781 C 6.996094 37.585938 7.179688 37.6875 7.378906 37.710938 C 7.730469 37.710938 7.96875 37.597656 7.929688 37.160156 C 7.710938 36.820312 7.710938 36.230469 7.199219 36.140625 Z M 7.199219 36.140625 "/>
</g>
</g>
</g>
</svg>
