
<svg xmlns="http://www.w3.org/2000/svg" xmlns:xlink="http://www.w3.org/1999/xlink" width="64px" height="64px" viewBox="0 0 64 64" version="1.1">
<g id="surface1">
<path style=" stroke:none;fill-rule:nonzero;fill:rgb(92.54902%,25.098039%,47.843137%);fill-opacity:1;" d="M 5.390625 0 L 58.609375 0 C 61.585938 0 64 2.414062 64 5.390625 L 64 58.609375 C 64 61.585938 61.585938 64 58.609375 64 L 5.390625 64 C 2.414062 64 0 61.585938 0 58.609375 L 0 5.390625 C 0 2.414062 2.414062 0 5.390625 0 Z M 5.390625 0 "/>
<path style=" stroke:none;fill-rule:nonzero;fill:rgb(16.078431%,71.372549%,96.470588%);fill-opacity:1;" d="M 21 44.480469 L 23.429688 40.660156 L 24.03125 39.71875 L 36.429688 39.71875 C 37.019531 37.785156 38.804688 36.460938 40.832031 36.460938 L 41 36.460938 C 40.847656 36.359375 40.710938 36.25 40.550781 36.160156 L 34.699219 32.859375 C 33.980469 32.453125 33.539062 31.6875 33.550781 30.859375 L 33.550781 29.320312 C 35.425781 28.078125 36.550781 25.980469 36.550781 23.730469 L 36.550781 21.640625 C 36.644531 19.1875 35.390625 16.878906 33.277344 15.621094 C 31.167969 14.367188 28.542969 14.367188 26.429688 15.621094 C 24.320312 16.878906 23.066406 19.1875 23.160156 21.640625 L 23.160156 23.730469 C 23.15625 25.980469 24.285156 28.082031 26.160156 29.320312 L 26.160156 30.890625 C 26.171875 31.714844 25.730469 32.484375 25.011719 32.890625 L 19.167969 36.191406 C 16.695312 37.589844 15.167969 40.214844 15.167969 43.058594 L 15.167969 46.058594 L 20.167969 46.058594 L 20.019531 45.929688 Z M 21 44.480469 "/>
<path style=" stroke:none;fill-rule:nonzero;fill:rgb(89.803922%,89.803922%,89.803922%);fill-opacity:1;" d="M 38.308594 43.46875 L 24.039062 43.46875 L 23.902344 43.660156 L 23.28125 44.628906 L 38.308594 44.628906 Z M 38.308594 43.46875 "/>
<path style=" stroke:none;fill-rule:nonzero;fill:rgb(100%,100%,100%);fill-opacity:1;" d="M 48.289062 38.488281 L 40.832031 38.488281 C 39.410156 38.488281 38.261719 39.640625 38.261719 41.058594 L 38.261719 41.75 L 25.121094 41.75 L 23.902344 43.660156 L 24.03125 43.46875 L 38.308594 43.46875 L 38.308594 44.628906 L 23.308594 44.628906 L 22.710938 45.570312 L 23.21875 46.039062 L 25.152344 47.820312 L 38.261719 47.820312 L 38.261719 48.511719 C 38.261719 49.933594 39.410156 51.082031 40.832031 51.089844 L 48.289062 51.089844 C 49.710938 51.082031 50.859375 49.933594 50.859375 48.511719 L 50.859375 41.058594 C 50.859375 39.640625 49.707031 38.488281 48.289062 38.488281 Z M 48.46875 46.199219 C 48.464844 46.953125 47.851562 47.558594 47.097656 47.558594 C 46.914062 47.558594 46.730469 47.519531 46.558594 47.441406 C 46.066406 47.226562 45.742188 46.738281 45.738281 46.199219 L 45.738281 43.378906 C 45.746094 42.867188 46.039062 42.398438 46.5 42.167969 C 46.683594 42.074219 46.890625 42.019531 47.097656 42.011719 C 47.855469 42.015625 48.464844 42.625 48.46875 43.378906 Z M 48.46875 46.199219 "/>
<path style=" stroke:none;fill-rule:nonzero;fill:rgb(100%,100%,100%);fill-opacity:1;" d="M 23.230469 44.628906 L 23.28125 44.628906 L 23.902344 43.660156 Z M 23.230469 44.628906 "/>
</g>
</svg>
