
<svg xmlns="http://www.w3.org/2000/svg" xmlns:xlink="http://www.w3.org/1999/xlink" width="64px" height="64px" viewBox="0 0 64 64" version="1.1">
<g id="surface1">
<path style=" stroke:none;fill-rule:nonzero;fill:rgb(36.078431%,41.960784%,75.294118%);fill-opacity:1;" d="M 5.390625 0 L 58.609375 0 C 61.585938 0 64 2.414062 64 5.390625 L 64 58.609375 C 64 61.585938 61.585938 64 58.609375 64 L 5.390625 64 C 2.414062 64 0 61.585938 0 58.609375 L 0 5.390625 C 0 2.414062 2.414062 0 5.390625 0 Z M 5.390625 0 "/>
<path style=" stroke:none;fill-rule:nonzero;fill:rgb(100%,100%,100%);fill-opacity:1;" d="M 34.140625 21.550781 L 32.667969 21.550781 L 32.667969 27.847656 C 33.316406 28.117188 33.738281 28.75 33.738281 29.449219 L 33.738281 33.449219 C 33.738281 34.410156 32.960938 35.191406 32 35.191406 C 31.039062 35.191406 30.261719 34.410156 30.261719 33.449219 L 30.261719 29.449219 C 30.261719 28.75 30.683594 28.117188 31.332031 27.847656 L 31.332031 21.550781 L 29.859375 21.550781 C 24.6875 21.566406 20.496094 25.753906 20.480469 30.929688 L 20.480469 42.179688 C 20.839844 48.269531 25.878906 53.019531 31.980469 53.019531 C 38.078125 53.019531 43.121094 48.269531 43.480469 42.179688 L 43.480469 30.929688 C 43.464844 25.769531 39.296875 21.589844 34.140625 21.550781 Z M 34.140625 21.550781 "/>
<path style=" stroke:none;fill-rule:nonzero;fill:rgb(16.078431%,71.372549%,96.470588%);fill-opacity:1;" d="M 32.902344 21.550781 L 31.300781 21.550781 L 31.300781 20.75 C 31.300781 18.542969 33.089844 16.75 35.300781 16.75 L 38.25 16.75 C 39.582031 16.75 40.660156 15.671875 40.660156 14.339844 C 40.660156 13.007812 39.582031 11.929688 38.25 11.929688 L 23.339844 11.929688 L 23.339844 10.300781 L 38.261719 10.300781 C 40.46875 10.300781 42.261719 12.089844 42.261719 14.300781 C 42.261719 16.511719 40.46875 18.300781 38.261719 18.300781 L 35.308594 18.300781 C 33.980469 18.300781 32.902344 19.378906 32.902344 20.710938 Z M 32.902344 21.550781 "/>
</g>
</svg>
