
<svg xmlns="http://www.w3.org/2000/svg" xmlns:xlink="http://www.w3.org/1999/xlink" width="64px" height="64px" viewBox="0 0 64 64" version="1.1">
<g id="surface1">
<path style=" stroke:none;fill-rule:nonzero;fill:rgb(49.411765%,34.117647%,76.862745%);fill-opacity:1;" d="M 5.390625 0 L 58.609375 0 C 61.585938 0 64 2.414062 64 5.390625 L 64 58.609375 C 64 61.585938 61.585938 64 58.609375 64 L 5.390625 64 C 2.414062 64 0 61.585938 0 58.609375 L 0 5.390625 C 0 2.414062 2.414062 0 5.390625 0 Z M 5.390625 0 "/>
<path style=" stroke:none;fill-rule:nonzero;fill:rgb(92.54902%,25.098039%,47.843137%);fill-opacity:1;" d="M 35.890625 26.890625 C 37.878906 25.589844 39.085938 23.378906 39.097656 21 L 39.097656 18.75 C 39.09375 14.832031 35.917969 11.65625 32 11.652344 C 28.082031 11.65625 24.90625 14.832031 24.902344 18.75 L 24.902344 21 C 24.902344 23.386719 26.113281 25.613281 28.109375 26.917969 L 28.109375 28.589844 C 28.109375 29.457031 27.644531 30.253906 26.890625 30.679688 L 20.691406 34.179688 C 18.058594 35.664062 16.429688 38.449219 16.429688 41.46875 L 16.429688 44.660156 L 26.191406 44.660156 L 32 40.660156 L 34 40.929688 L 38 44.628906 L 47.621094 44.628906 L 47.621094 41.441406 C 47.621094 38.417969 45.992188 35.632812 43.359375 34.152344 L 37.160156 30.652344 C 36.40625 30.222656 35.941406 29.425781 35.941406 28.558594 L 35.941406 26.890625 "/>
<path style=" stroke:none;fill-rule:nonzero;fill:rgb(100%,100%,100%);fill-opacity:1;" d="M 38.140625 39.269531 L 37.800781 39.269531 L 37.800781 35.941406 C 37.800781 33.839844 36.101562 32.136719 34 32.128906 L 30.261719 32.128906 C 28.160156 32.136719 26.460938 33.839844 26.460938 35.941406 L 26.460938 39.269531 L 25.859375 39.269531 C 25.433594 39.269531 25.027344 39.441406 24.722656 39.742188 C 24.425781 40.042969 24.257812 40.453125 24.261719 40.878906 L 24.261719 50.75 C 24.257812 51.175781 24.425781 51.582031 24.726562 51.886719 C 25.027344 52.183594 25.433594 52.351562 25.859375 52.347656 L 38.140625 52.347656 C 39.023438 52.347656 39.738281 51.632812 39.738281 50.75 L 39.738281 40.878906 C 39.738281 39.996094 39.027344 39.277344 38.140625 39.269531 Z M 32.769531 45.730469 L 32.769531 49 C 32.769531 49.425781 32.425781 49.769531 32 49.769531 C 31.574219 49.769531 31.230469 49.425781 31.230469 49 L 31.230469 45.730469 C 30.320312 45.363281 29.800781 44.402344 29.988281 43.4375 C 30.175781 42.472656 31.019531 41.78125 32 41.78125 C 32.980469 41.78125 33.824219 42.472656 34.011719 43.4375 C 34.199219 44.402344 33.679688 45.363281 32.769531 45.730469 Z M 35.769531 39.269531 L 28.460938 39.269531 L 28.460938 35.941406 C 28.460938 34.945312 29.265625 34.140625 30.261719 34.140625 L 34 34.140625 C 34.996094 34.140625 35.800781 34.945312 35.800781 35.941406 Z M 35.769531 39.269531 "/>
</g>
</svg>
