
<svg xmlns="http://www.w3.org/2000/svg" xmlns:xlink="http://www.w3.org/1999/xlink" width="64px" height="64px" viewBox="0 0 64 64" version="1.1">
<defs>
<linearGradient id="linear0" gradientUnits="userSpaceOnUse" x1="-571.81" y1="-2840.37" x2="-571.81" y2="-2826.56" gradientTransform="matrix(0.707107,-0.707107,0.707107,0.707107,2437.524789,1629.370011)">
<stop offset="0" style="stop-color:rgb(100%,100%,100%);stop-opacity:0;"/>
<stop offset="1" style="stop-color:rgb(100%,100%,100%);stop-opacity:1;"/>
</linearGradient>
</defs>
<g id="surface1">
<path style=" stroke:none;fill-rule:nonzero;fill:rgb(36.078431%,41.960784%,75.294118%);fill-opacity:1;" d="M 5.390625 0 L 58.609375 0 C 61.585938 0 64 2.414062 64 5.390625 L 64 58.609375 C 64 61.585938 61.585938 64 58.609375 64 L 5.390625 64 C 2.414062 64 0 61.585938 0 58.609375 L 0 5.390625 C 0 2.414062 2.414062 0 5.390625 0 Z M 5.390625 0 "/>
<path style=" stroke:none;fill-rule:nonzero;fill:rgb(100%,100%,100%);fill-opacity:1;" d="M 29.210938 15.417969 C 29.832031 15.386719 30.445312 15.601562 30.910156 16.019531 L 51.25 36.359375 C 52.960938 38.070312 50.878906 42.910156 46.621094 47.167969 C 43.371094 50.417969 39.78125 52.402344 37.5 52.402344 C 36.875 52.4375 36.261719 52.222656 35.800781 51.800781 L 15.449219 31.449219 C 13.738281 29.738281 15.808594 24.902344 20.082031 20.628906 C 23.332031 17.378906 26.910156 15.402344 29.191406 15.402344 M 29.191406 13.902344 C 26.410156 13.902344 22.511719 16.070312 19.019531 19.570312 C 14.667969 24 11.679688 29.800781 14.410156 32.53125 L 33.410156 51.53125 L 34.761719 52.878906 C 35.503906 53.574219 36.503906 53.933594 37.519531 53.878906 C 40.300781 53.878906 44.199219 51.710938 47.699219 48.210938 C 49.726562 46.25 51.378906 43.933594 52.570312 41.378906 C 54.097656 37.808594 53.070312 36.019531 52.332031 35.28125 L 47.058594 30 L 32 15 C 31.253906 14.304688 30.257812 13.945312 29.238281 14 Z M 29.191406 13.902344 "/>
<path style=" stroke:none;fill-rule:nonzero;fill:url(#linear0);" d="M 15.464844 31.472656 L 30.910156 16.027344 L 42.902344 28.019531 L 27.457031 43.464844 Z M 15.464844 31.472656 "/>
<path style=" stroke:none;fill-rule:nonzero;fill:rgb(100%,100%,100%);fill-opacity:1;" d="M 30.90625 16.019531 C 29.199219 14.308594 24.359375 16.386719 20.09375 20.648438 C 15.832031 24.914062 13.753906 29.753906 15.464844 31.460938 C 17.167969 33.167969 22.011719 31.09375 26.273438 26.828125 C 30.539062 22.566406 32.613281 17.722656 30.90625 16.019531 Z M 30.90625 16.019531 "/>
<path style=" stroke:none;fill-rule:nonzero;fill:rgb(70.196078%,70.196078%,70.196078%);fill-opacity:1;" d="M 25.808594 17.113281 C 24.785156 16.089844 21.886719 17.332031 19.332031 19.886719 C 16.777344 22.441406 15.539062 25.339844 16.5625 26.363281 C 17.585938 27.386719 20.484375 26.144531 23.039062 23.589844 C 25.59375 21.035156 26.832031 18.136719 25.808594 17.113281 Z M 25.808594 17.113281 "/>
<path style=" stroke:none;fill-rule:nonzero;fill:rgb(100%,100%,100%);fill-opacity:1;" d="M 24.238281 15.636719 C 23.214844 14.613281 20.3125 15.855469 17.761719 18.40625 C 15.207031 20.960938 13.964844 23.863281 14.988281 24.882812 C 16.011719 25.90625 18.910156 24.667969 21.464844 22.113281 C 24.019531 19.558594 25.261719 16.660156 24.238281 15.636719 Z M 24.238281 15.636719 "/>
<path style=" stroke:none;fill-rule:nonzero;fill:rgb(16.078431%,71.372549%,96.470588%);fill-opacity:1;" d="M 30.550781 46.550781 L 35.800781 51.800781 C 37.511719 53.511719 42.347656 51.441406 46.621094 47.167969 C 50.890625 42.902344 52.960938 38.070312 51.25 36.359375 L 46 31.109375 Z M 30.550781 46.550781 "/>
<path style=" stroke:none;fill-rule:nonzero;fill:rgb(100%,100%,100%);fill-opacity:1;" d="M 45.988281 31.113281 C 44.285156 29.410156 39.441406 31.480469 35.175781 35.746094 C 30.914062 40.011719 28.839844 44.851562 30.546875 46.558594 C 32.253906 48.261719 37.09375 46.191406 41.355469 41.925781 C 45.621094 37.660156 47.695312 32.820312 45.988281 31.113281 Z M 45.988281 31.113281 "/>
<path style=" stroke:none;fill-rule:nonzero;fill:rgb(16.078431%,71.372549%,96.470588%);fill-opacity:1;" d="M 23.910156 39.910156 L 29.160156 45.160156 C 30.871094 46.871094 35.710938 44.800781 39.980469 40.53125 C 44.25 36.261719 46.320312 31.429688 44.609375 29.71875 L 39.359375 24.46875 Z M 23.910156 39.910156 "/>
<path style=" stroke:none;fill-rule:nonzero;fill:rgb(100%,100%,100%);fill-opacity:1;" d="M 39.347656 24.472656 C 37.644531 22.769531 32.800781 24.839844 28.535156 29.105469 C 24.273438 33.371094 22.199219 38.210938 23.90625 39.917969 C 25.613281 41.625 30.453125 39.550781 34.71875 35.285156 C 38.980469 31.019531 41.054688 26.179688 39.347656 24.472656 Z M 39.347656 24.472656 "/>
</g>
</svg>
