
<svg xmlns="http://www.w3.org/2000/svg" xmlns:xlink="http://www.w3.org/1999/xlink" width="64px" height="64px" viewBox="0 0 64 64" version="1.1">
<g id="surface1">
<path style=" stroke:none;fill-rule:nonzero;fill:rgb(36.078431%,41.960784%,75.294118%);fill-opacity:1;" d="M 5.390625 0 L 58.609375 0 C 61.585938 0 64 2.414062 64 5.390625 L 64 58.609375 C 64 61.585938 61.585938 64 58.609375 64 L 5.390625 64 C 2.414062 64 0 61.585938 0 58.609375 L 0 5.390625 C 0 2.414062 2.414062 0 5.390625 0 Z M 5.390625 0 "/>
<path style=" stroke:none;fill-rule:nonzero;fill:rgb(100%,100%,100%);fill-opacity:1;" d="M 52.320312 25.261719 L 11.679688 25.261719 L 17.929688 17.820312 C 18.226562 17.472656 18.660156 17.269531 19.121094 17.269531 L 44.878906 17.269531 C 45.339844 17.269531 45.773438 17.472656 46.070312 17.820312 Z M 52.320312 25.261719 "/>
<path style=" stroke:none;fill-rule:nonzero;fill:rgb(89.803922%,89.803922%,89.803922%);fill-opacity:1;" d="M 11.679688 25.261719 L 52.320312 25.261719 L 52.320312 41.699219 C 52.320312 42.558594 51.625 43.25 50.769531 43.25 L 13.230469 43.25 C 12.375 43.25 11.679688 42.558594 11.679688 41.699219 Z M 11.679688 25.261719 "/>
<path style=" stroke:none;fill-rule:nonzero;fill:rgb(16.078431%,71.372549%,96.470588%);fill-opacity:1;" d="M 47.78125 51.320312 L 16.21875 51.320312 C 15.78125 51.316406 15.371094 51.105469 15.121094 50.746094 C 14.863281 50.390625 14.800781 49.933594 14.941406 49.519531 L 19.449219 36.589844 L 44.550781 36.589844 L 49.058594 49.519531 C 49.207031 49.933594 49.144531 50.394531 48.886719 50.753906 C 48.632812 51.109375 48.21875 51.324219 47.78125 51.320312 Z M 47.78125 51.320312 "/>
<path style=" stroke:none;fill-rule:nonzero;fill:rgb(16.078431%,71.372549%,96.470588%);fill-opacity:1;" d="M 19.449219 17.269531 L 44.550781 17.269531 L 44.550781 28.230469 L 19.449219 28.230469 Z M 19.449219 17.269531 "/>
<path style=" stroke:none;fill-rule:nonzero;fill:rgb(100%,100%,100%);fill-opacity:1;" d="M 45.300781 48.058594 L 18.699219 48.058594 L 21.230469 38.441406 L 42.769531 38.441406 Z M 45.300781 48.058594 "/>
<path style=" stroke:none;fill-rule:nonzero;fill:rgb(79.607843%,79.607843%,79.607843%);fill-opacity:1;" d="M 11.679688 31.929688 L 52.320312 31.929688 L 52.320312 33.710938 L 11.679688 33.710938 Z M 11.679688 31.929688 "/>
<path style=" stroke:none;fill-rule:nonzero;fill:rgb(92.54902%,25.098039%,47.843137%);fill-opacity:1;" d="M 24.167969 40.082031 L 39.839844 40.082031 C 40.378906 40.082031 40.820312 40.519531 40.820312 41.058594 C 40.820312 41.601562 40.378906 42.039062 39.839844 42.039062 L 24.167969 42.039062 C 23.628906 42.039062 23.191406 41.601562 23.191406 41.058594 C 23.191406 40.519531 23.628906 40.082031 24.167969 40.082031 Z M 24.167969 40.082031 "/>
<path style=" stroke:none;fill-rule:nonzero;fill:rgb(92.54902%,25.098039%,47.843137%);fill-opacity:1;" d="M 22.929688 43.539062 L 41.082031 43.539062 C 41.621094 43.539062 42.058594 43.980469 42.058594 44.519531 C 42.058594 45.0625 41.621094 45.5 41.082031 45.5 L 22.929688 45.5 C 22.386719 45.5 21.949219 45.0625 21.949219 44.519531 C 21.949219 43.980469 22.386719 43.539062 22.929688 43.539062 Z M 22.929688 43.539062 "/>
<path style=" stroke:none;fill-rule:nonzero;fill:rgb(92.54902%,25.098039%,47.843137%);fill-opacity:1;" d="M 49.679688 28.667969 C 49.679688 29.425781 49.066406 30.039062 48.308594 30.039062 C 47.550781 30.039062 46.941406 29.425781 46.941406 28.667969 C 46.941406 27.914062 47.550781 27.300781 48.308594 27.300781 C 49.066406 27.300781 49.679688 27.914062 49.679688 28.667969 Z M 49.679688 28.667969 "/>
<path style=" stroke:none;fill-rule:nonzero;fill:rgb(100%,100%,100%);fill-opacity:1;" d="M 38.289062 12.679688 L 21.230469 12.679688 L 21.230469 22.339844 L 42.769531 22.339844 L 42.769531 16.800781 Z M 38.289062 12.679688 "/>
<path style=" stroke:none;fill-rule:nonzero;fill:rgb(79.607843%,79.607843%,79.607843%);fill-opacity:1;" d="M 38.289062 16.800781 L 42.769531 16.800781 L 38.289062 12.679688 Z M 38.289062 16.800781 "/>
</g>
</svg>
