
<svg xmlns="http://www.w3.org/2000/svg" xmlns:xlink="http://www.w3.org/1999/xlink" width="64px" height="64px" viewBox="0 0 64 64" version="1.1">
<g id="surface1">
<path style=" stroke:none;fill-rule:nonzero;fill:rgb(92.54902%,25.098039%,47.843137%);fill-opacity:1;" d="M 5.390625 0 L 58.609375 0 C 61.585938 0 64 2.414062 64 5.390625 L 64 58.609375 C 64 61.585938 61.585938 64 58.609375 64 L 5.390625 64 C 2.414062 64 0 61.585938 0 58.609375 L 0 5.390625 C 0 2.414062 2.414062 0 5.390625 0 Z M 5.390625 0 "/>
<path style=" stroke:none;fill-rule:nonzero;fill:rgb(100%,100%,100%);fill-opacity:1;" d="M 32.167969 12.039062 L 22.25 17.359375 L 32.167969 22.679688 L 42.089844 17.359375 Z M 32.167969 12.039062 "/>
<path style=" stroke:none;fill-rule:nonzero;fill:rgb(79.607843%,79.607843%,79.607843%);fill-opacity:1;" d="M 32.167969 33.289062 L 22.25 27.96875 L 22.25 17.359375 L 32.167969 22.679688 Z M 32.167969 33.289062 "/>
<path style=" stroke:none;fill-rule:nonzero;fill:rgb(16.078431%,71.372549%,96.470588%);fill-opacity:1;" d="M 32.167969 22.679688 L 42.089844 17.359375 L 42.089844 27.96875 L 32.167969 33.289062 Z M 32.167969 22.679688 "/>
<path style=" stroke:none;fill-rule:nonzero;fill:rgb(100%,100%,100%);fill-opacity:1;" d="M 22.109375 30.710938 L 12.191406 36.03125 L 22.109375 41.347656 L 32.03125 36.03125 Z M 22.109375 30.710938 "/>
<path style=" stroke:none;fill-rule:nonzero;fill:rgb(79.607843%,79.607843%,79.607843%);fill-opacity:1;" d="M 22.109375 51.949219 L 12.191406 46.640625 L 12.191406 36.03125 L 22.109375 41.347656 Z M 22.109375 51.949219 "/>
<path style=" stroke:none;fill-rule:nonzero;fill:rgb(16.078431%,71.372549%,96.470588%);fill-opacity:1;" d="M 22.109375 41.347656 L 32.03125 36.03125 L 32.03125 46.640625 L 22.109375 51.949219 Z M 22.109375 41.347656 "/>
<path style=" stroke:none;fill-rule:nonzero;fill:rgb(100%,100%,100%);fill-opacity:1;" d="M 41.890625 30.710938 L 31.96875 36.03125 L 41.890625 41.347656 L 51.808594 36.03125 Z M 41.890625 30.710938 "/>
<path style=" stroke:none;fill-rule:nonzero;fill:rgb(79.607843%,79.607843%,79.607843%);fill-opacity:1;" d="M 41.890625 51.949219 L 31.96875 46.640625 L 31.96875 36.03125 L 41.890625 41.347656 Z M 41.890625 51.949219 "/>
<path style=" stroke:none;fill-rule:nonzero;fill:rgb(16.078431%,71.372549%,96.470588%);fill-opacity:1;" d="M 41.890625 41.347656 L 51.808594 36.03125 L 51.808594 46.640625 L 41.890625 51.949219 Z M 41.890625 41.347656 "/>
</g>
</svg>
