
<svg xmlns="http://www.w3.org/2000/svg" xmlns:xlink="http://www.w3.org/1999/xlink" width="64px" height="64px" viewBox="0 0 64 64" version="1.1">
<defs>
<linearGradient id="linear0" gradientUnits="userSpaceOnUse" x1="32.86" y1="52.99" x2="32.86" y2="54.61" gradientTransform="matrix(1,0,0,1,-0.12,0.05)">
<stop offset="0" style="stop-color:rgb(86.27451%,87.058824%,88.627451%);stop-opacity:1;"/>
<stop offset="0.57" style="stop-color:rgb(87.058824%,87.843137%,89.411765%);stop-opacity:1;"/>
<stop offset="0.81" style="stop-color:rgb(89.803922%,90.588235%,91.764706%);stop-opacity:1;"/>
<stop offset="0.99" style="stop-color:rgb(94.901961%,95.294118%,95.686275%);stop-opacity:1;"/>
<stop offset="1" style="stop-color:rgb(95.294118%,95.686275%,96.078431%);stop-opacity:1;"/>
</linearGradient>
</defs>
<g id="surface1">
<path style=" stroke:none;fill-rule:nonzero;fill:rgb(49.411765%,34.117647%,76.862745%);fill-opacity:1;" d="M 5.390625 0 L 58.609375 0 C 61.585938 0 64 2.414062 64 5.390625 L 64 58.609375 C 64 61.585938 61.585938 64 58.609375 64 L 5.390625 64 C 2.414062 64 0 61.585938 0 58.609375 L 0 5.390625 C 0 2.414062 2.414062 0 5.390625 0 Z M 5.390625 0 "/>
<path style=" stroke:none;fill-rule:nonzero;fill:url(#linear0);" d="M 43.878906 54.390625 L 42 54.390625 C 41.1875 54.390625 40.53125 53.730469 40.53125 52.917969 L 40.53125 46.152344 L 25 46.152344 L 25 52.910156 C 25 53.722656 24.339844 54.378906 23.53125 54.378906 L 21.582031 54.378906 C 20.777344 54.378906 20.128906 55.027344 20.128906 55.832031 C 20.128906 56.628906 20.777344 57.28125 21.582031 57.28125 L 43.878906 57.28125 C 44.265625 57.285156 44.636719 57.128906 44.910156 56.859375 C 45.183594 56.585938 45.339844 56.214844 45.339844 55.832031 C 45.332031 55.027344 44.679688 54.386719 43.878906 54.390625 Z M 43.878906 54.390625 "/>
<path style=" stroke:none;fill-rule:nonzero;fill:rgb(92.54902%,25.098039%,47.843137%);fill-opacity:1;" d="M 9.140625 11.859375 L 54.859375 11.859375 C 55.914062 11.859375 56.769531 12.714844 56.769531 13.769531 L 56.769531 43.949219 C 56.769531 45.003906 55.914062 45.859375 54.859375 45.859375 L 9.140625 45.859375 C 8.085938 45.859375 7.230469 45.003906 7.230469 43.949219 L 7.230469 13.769531 C 7.230469 12.714844 8.085938 11.859375 9.140625 11.859375 Z M 9.140625 11.859375 "/>
<path style=" stroke:none;fill-rule:nonzero;fill:rgb(100%,100%,100%);fill-opacity:1;" d="M 54.859375 46.738281 L 9.140625 46.738281 C 7.617188 46.738281 6.378906 45.519531 6.347656 44 L 6.347656 13.769531 C 6.363281 12.238281 7.605469 11 9.140625 11 L 54.859375 11 C 56.402344 11 57.652344 12.25 57.652344 13.789062 L 57.652344 44 C 57.621094 45.519531 56.382812 46.738281 54.859375 46.738281 Z M 9.140625 12.738281 C 8.589844 12.738281 8.140625 13.1875 8.140625 13.738281 L 8.140625 44 C 8.140625 44.550781 8.589844 45 9.140625 45 L 54.859375 45 C 55.410156 45 55.859375 44.550781 55.859375 44 L 55.859375 13.769531 C 55.859375 13.21875 55.410156 12.769531 54.859375 12.769531 Z M 9.140625 12.738281 "/>
<path style=" stroke:none;fill-rule:nonzero;fill:rgb(100%,100%,100%);fill-opacity:1;" d="M 6.597656 42 L 57.308594 42 L 57.308594 44.199219 C 57.308594 45.414062 56.324219 46.402344 55.109375 46.402344 L 8.800781 46.402344 C 7.585938 46.402344 6.597656 45.414062 6.597656 44.199219 Z M 6.597656 42 "/>
<path style=" stroke:none;fill-rule:nonzero;fill:rgb(100%,100%,100%);fill-opacity:1;" d="M 38.140625 23.621094 L 37.808594 23.621094 L 37.808594 20.28125 C 37.804688 18.179688 36.101562 16.480469 34 16.480469 L 30.269531 16.480469 C 28.167969 16.480469 26.464844 18.179688 26.460938 20.28125 L 26.460938 23.621094 L 25.859375 23.621094 C 24.976562 23.621094 24.261719 24.335938 24.261719 25.21875 L 24.261719 35.097656 C 24.261719 35.984375 24.976562 36.699219 25.859375 36.699219 L 38.140625 36.699219 C 39.023438 36.699219 39.738281 35.984375 39.738281 35.097656 L 39.738281 25.21875 C 39.738281 24.335938 39.023438 23.621094 38.140625 23.621094 Z M 32.769531 30.082031 L 32.769531 33.347656 C 32.769531 33.777344 32.425781 34.121094 32 34.121094 C 31.574219 34.121094 31.230469 33.777344 31.230469 33.347656 L 31.230469 30.082031 C 30.316406 29.710938 29.789062 28.746094 29.976562 27.777344 C 30.167969 26.808594 31.011719 26.109375 32 26.109375 C 32.988281 26.109375 33.832031 26.808594 34.023438 27.777344 C 34.210938 28.746094 33.683594 29.710938 32.769531 30.082031 Z M 35.769531 23.621094 L 28.460938 23.621094 L 28.460938 20.28125 C 28.464844 19.285156 29.273438 18.480469 30.269531 18.480469 L 34 18.480469 C 34.996094 18.480469 35.800781 19.285156 35.800781 20.28125 Z M 35.769531 23.621094 "/>
</g>
</svg>
