
<svg xmlns="http://www.w3.org/2000/svg" xmlns:xlink="http://www.w3.org/1999/xlink" width="64px" height="64px" viewBox="0 0 64 64" version="1.1">
<defs>
<clipPath id="clip1">
  <path d="M 5 0 L 28.667969 0 L 28.667969 64 L 5 64 Z M 5 0 "/>
</clipPath>
<clipPath id="clip2">
  <path d="M 5.390625 0 L 58.609375 0 C 61.585938 0 64 2.414062 64 5.390625 L 64 58.609375 C 64 61.585938 61.585938 64 58.609375 64 L 5.390625 64 C 2.414062 64 0 61.585938 0 58.609375 L 0 5.390625 C 0 2.414062 2.414062 0 5.390625 0 Z M 5.390625 0 "/>
</clipPath>
<clipPath id="clip3">
  <path d="M 16.667969 0 L 47.332031 0 L 47.332031 64 L 16.667969 64 Z M 16.667969 0 "/>
</clipPath>
<clipPath id="clip4">
  <path d="M 5.390625 0 L 58.609375 0 C 61.585938 0 64 2.414062 64 5.390625 L 64 58.609375 C 64 61.585938 61.585938 64 58.609375 64 L 5.390625 64 C 2.414062 64 0 61.585938 0 58.609375 L 0 5.390625 C 0 2.414062 2.414062 0 5.390625 0 Z M 5.390625 0 "/>
</clipPath>
<clipPath id="clip5">
  <path d="M 35.332031 0 L 58.667969 0 L 58.667969 64 L 35.332031 64 Z M 35.332031 0 "/>
</clipPath>
<clipPath id="clip6">
  <path d="M 5.390625 0 L 58.609375 0 C 61.585938 0 64 2.414062 64 5.390625 L 64 58.609375 C 64 61.585938 61.585938 64 58.609375 64 L 5.390625 64 C 2.414062 64 0 61.585938 0 58.609375 L 0 5.390625 C 0 2.414062 2.414062 0 5.390625 0 Z M 5.390625 0 "/>
</clipPath>
<clipPath id="clip7">
  <path d="M 27.332031 5.332031 L 37.332031 5.332031 L 37.332031 64 L 27.332031 64 Z M 27.332031 5.332031 "/>
</clipPath>
<clipPath id="clip8">
  <path d="M 5.390625 0 L 58.609375 0 C 61.585938 0 64 2.414062 64 5.390625 L 64 58.609375 C 64 61.585938 61.585938 64 58.609375 64 L 5.390625 64 C 2.414062 64 0 61.585938 0 58.609375 L 0 5.390625 C 0 2.414062 2.414062 0 5.390625 0 Z M 5.390625 0 "/>
</clipPath>
<clipPath id="clip9">
  <path d="M 37 5 L 37.332031 5 L 37.332031 6 L 37 6 Z M 37 5 "/>
</clipPath>
<clipPath id="clip10">
  <path d="M 5.390625 0 L 58.609375 0 C 61.585938 0 64 2.414062 64 5.390625 L 64 58.609375 C 64 61.585938 61.585938 64 58.609375 64 L 5.390625 64 C 2.414062 64 0 61.585938 0 58.609375 L 0 5.390625 C 0 2.414062 2.414062 0 5.390625 0 Z M 5.390625 0 "/>
</clipPath>
<clipPath id="clip11">
  <path d="M 26 4 L 37.332031 4 L 37.332031 64 L 26 64 Z M 26 4 "/>
</clipPath>
<clipPath id="clip12">
  <path d="M 5.390625 0 L 58.609375 0 C 61.585938 0 64 2.414062 64 5.390625 L 64 58.609375 C 64 61.585938 61.585938 64 58.609375 64 L 5.390625 64 C 2.414062 64 0 61.585938 0 58.609375 L 0 5.390625 C 0 2.414062 2.414062 0 5.390625 0 Z M 5.390625 0 "/>
</clipPath>
<clipPath id="clip13">
  <path d="M 26.667969 5 L 37.332031 5 L 37.332031 64 L 26.667969 64 Z M 26.667969 5 "/>
</clipPath>
<clipPath id="clip14">
  <path d="M 5.390625 0 L 58.609375 0 C 61.585938 0 64 2.414062 64 5.390625 L 64 58.609375 C 64 61.585938 61.585938 64 58.609375 64 L 5.390625 64 C 2.414062 64 0 61.585938 0 58.609375 L 0 5.390625 C 0 2.414062 2.414062 0 5.390625 0 Z M 5.390625 0 "/>
</clipPath>
<clipPath id="clip15">
  <path d="M 20.667969 0 L 43.332031 0 L 43.332031 11 L 20.667969 11 Z M 20.667969 0 "/>
</clipPath>
<clipPath id="clip16">
  <path d="M 5.390625 0 L 58.609375 0 C 61.585938 0 64 2.414062 64 5.390625 L 64 58.609375 C 64 61.585938 61.585938 64 58.609375 64 L 5.390625 64 C 2.414062 64 0 61.585938 0 58.609375 L 0 5.390625 C 0 2.414062 2.414062 0 5.390625 0 Z M 5.390625 0 "/>
</clipPath>
<clipPath id="clip17">
  <path d="M 30 20 L 33.332031 20 L 33.332031 23.332031 L 30 23.332031 Z M 30 20 "/>
</clipPath>
<clipPath id="clip18">
  <path d="M 5.390625 0 L 58.609375 0 C 61.585938 0 64 2.414062 64 5.390625 L 64 58.609375 C 64 61.585938 61.585938 64 58.609375 64 L 5.390625 64 C 2.414062 64 0 61.585938 0 58.609375 L 0 5.390625 C 0 2.414062 2.414062 0 5.390625 0 Z M 5.390625 0 "/>
</clipPath>
<linearGradient id="linear0" gradientUnits="userSpaceOnUse" x1="30.56" y1="21.72" x2="33.25" y2="21.72" >
<stop offset="0" style="stop-color:rgb(25.490196%,74.117647%,83.137255%);stop-opacity:1;"/>
<stop offset="1" style="stop-color:rgb(50.980392%,32.54902%,83.921569%);stop-opacity:1;"/>
</linearGradient>
<clipPath id="clip19">
  <path d="M 30 41.332031 L 33.332031 41.332031 L 33.332031 44.667969 L 30 44.667969 Z M 30 41.332031 "/>
</clipPath>
<clipPath id="clip20">
  <path d="M 5.390625 0 L 58.609375 0 C 61.585938 0 64 2.414062 64 5.390625 L 64 58.609375 C 64 61.585938 61.585938 64 58.609375 64 L 5.390625 64 C 2.414062 64 0 61.585938 0 58.609375 L 0 5.390625 C 0 2.414062 2.414062 0 5.390625 0 Z M 5.390625 0 "/>
</clipPath>
<linearGradient id="linear1" gradientUnits="userSpaceOnUse" x1="30.56" y1="42.73" x2="33.25" y2="42.73" >
<stop offset="0" style="stop-color:rgb(25.490196%,74.117647%,83.137255%);stop-opacity:1;"/>
<stop offset="1" style="stop-color:rgb(50.980392%,32.54902%,83.921569%);stop-opacity:1;"/>
</linearGradient>
</defs>
<g id="surface1">
<path style=" stroke:none;fill-rule:nonzero;fill:rgb(32.941176%,29.803922%,40.784314%);fill-opacity:1;" d="M 5.390625 0 L 58.609375 0 C 61.585938 0 64 2.414062 64 5.390625 L 64 58.609375 C 64 61.585938 61.585938 64 58.609375 64 L 5.390625 64 C 2.414062 64 0 61.585938 0 58.609375 L 0 5.390625 C 0 2.414062 2.414062 0 5.390625 0 Z M 5.390625 0 "/>
<g clip-path="url(#clip1)" clip-rule="nonzero">
<g clip-path="url(#clip2)" clip-rule="nonzero">
<path style=" stroke:none;fill-rule:nonzero;fill:rgb(79.607843%,79.607843%,79.607843%);fill-opacity:1;" d="M 16.609375 0 C 12.371094 0 8 -6.070312 5.070312 -3.460938 C 5.75 8.871094 8.710938 45.640625 17 64 L 28.332031 64 C 18.832031 43 17 7.902344 16.699219 0 Z M 16.609375 0 "/>
</g>
</g>
<g clip-path="url(#clip3)" clip-rule="nonzero">
<g clip-path="url(#clip4)" clip-rule="nonzero">
<path style=" stroke:none;fill-rule:nonzero;fill:rgb(96.862745%,96.862745%,96.862745%);fill-opacity:1;" d="M 16.699219 0 C 17 7.902344 18.832031 43 28.332031 64 L 35.667969 64 C 45.167969 43 47 7.902344 47.300781 0 Z M 16.699219 0 "/>
</g>
</g>
<g clip-path="url(#clip5)" clip-rule="nonzero">
<g clip-path="url(#clip6)" clip-rule="nonzero">
<path style=" stroke:none;fill-rule:nonzero;fill:rgb(79.607843%,79.607843%,79.607843%);fill-opacity:1;" d="M 47.390625 0 L 47.300781 0 C 47 7.902344 45.167969 43 35.667969 64 L 47 64 C 55.289062 45.640625 58 12.097656 58.660156 -0.230469 C 55.730469 -2.832031 51.628906 0 47.390625 0 Z M 47.390625 0 "/>
</g>
</g>
<g clip-path="url(#clip7)" clip-rule="nonzero">
<g clip-path="url(#clip8)" clip-rule="nonzero">
<path style=" stroke:none;fill-rule:nonzero;fill:rgb(94.509804%,94.509804%,94.509804%);fill-opacity:1;" d="M 28.710938 64 L 35.910156 64 L 37.28125 5.570312 L 27.339844 5.570312 Z M 28.710938 64 "/>
</g>
</g>
<g clip-path="url(#clip9)" clip-rule="nonzero">
<g clip-path="url(#clip10)" clip-rule="nonzero">
<path style=" stroke:none;fill-rule:nonzero;fill:rgb(89.803922%,89.803922%,89.803922%);fill-opacity:1;" d="M 37.289062 5.570312 L 37.289062 5.03125 L 37.28125 5.570312 Z M 37.289062 5.570312 "/>
</g>
</g>
<g clip-path="url(#clip11)" clip-rule="nonzero">
<g clip-path="url(#clip12)" clip-rule="nonzero">
<path style=" stroke:none;fill-rule:nonzero;fill:rgb(89.803922%,89.803922%,89.803922%);fill-opacity:1;" d="M 26.789062 5.03125 L 37.289062 5.03125 L 37.289062 4.488281 L 26.238281 4.488281 L 27.640625 64 L 28.179688 64 Z M 26.789062 5.03125 "/>
</g>
</g>
<g clip-path="url(#clip13)" clip-rule="nonzero">
<g clip-path="url(#clip14)" clip-rule="nonzero">
<path style=" stroke:none;fill-rule:nonzero;fill:rgb(89.803922%,89.803922%,89.803922%);fill-opacity:1;" d="M 28.179688 64 L 28.710938 64 L 27.339844 5.570312 L 37.28125 5.570312 L 37.289062 5.03125 L 26.789062 5.03125 Z M 28.179688 64 "/>
</g>
</g>
<g clip-path="url(#clip15)" clip-rule="nonzero">
<g clip-path="url(#clip16)" clip-rule="nonzero">
<path style=" stroke:none;fill-rule:nonzero;fill:rgb(92.54902%,25.098039%,47.843137%);fill-opacity:1;" d="M 43.179688 1.050781 C 43.179688 0.871094 43.082031 0.699219 42.929688 0.605469 C 42.773438 0.511719 42.582031 0.503906 42.417969 0.589844 L 34.25 2.589844 C 34.054688 1.957031 33.472656 1.527344 32.808594 1.519531 L 30.808594 1.519531 C 30.210938 1.527344 29.671875 1.878906 29.417969 2.417969 L 21.582031 0.589844 C 21.417969 0.503906 21.226562 0.511719 21.070312 0.605469 C 20.917969 0.699219 20.820312 0.871094 20.820312 1.050781 L 20.820312 10.261719 C 20.820312 10.441406 20.917969 10.609375 21.070312 10.703125 C 21.226562 10.796875 21.417969 10.804688 21.582031 10.71875 L 29.71875 6.332031 C 30.003906 6.640625 30.410156 6.820312 30.832031 6.820312 L 32.832031 6.820312 C 33.296875 6.800781 33.730469 6.570312 34 6.191406 L 42.390625 10.71875 C 42.550781 10.804688 42.746094 10.796875 42.898438 10.703125 C 43.054688 10.609375 43.148438 10.441406 43.152344 10.261719 Z M 43.179688 1.050781 "/>
</g>
</g>
<g clip-path="url(#clip17)" clip-rule="nonzero">
<g clip-path="url(#clip18)" clip-rule="nonzero">
<path style=" stroke:none;fill-rule:nonzero;fill:url(#linear0);" d="M 33.261719 21.71875 C 33.261719 22.464844 32.65625 23.070312 31.910156 23.070312 C 31.164062 23.070312 30.558594 22.464844 30.558594 21.71875 C 30.558594 20.972656 31.164062 20.371094 31.910156 20.371094 C 32.65625 20.371094 33.261719 20.972656 33.261719 21.71875 Z M 33.261719 21.71875 "/>
</g>
</g>
<g clip-path="url(#clip19)" clip-rule="nonzero">
<g clip-path="url(#clip20)" clip-rule="nonzero">
<path style=" stroke:none;fill-rule:nonzero;fill:url(#linear1);" d="M 33.261719 42.730469 C 33.261719 43.476562 32.65625 44.082031 31.910156 44.082031 C 31.164062 44.082031 30.558594 43.476562 30.558594 42.730469 C 30.558594 41.984375 31.164062 41.378906 31.910156 41.378906 C 32.65625 41.378906 33.261719 41.984375 33.261719 42.730469 Z M 33.261719 42.730469 "/>
</g>
</g>
</g>
</svg>
