
<svg xmlns="http://www.w3.org/2000/svg" xmlns:xlink="http://www.w3.org/1999/xlink" width="64px" height="64px" viewBox="0 0 64 64" version="1.1">
<g id="surface1">
<path style=" stroke:none;fill-rule:nonzero;fill:rgb(49.411765%,34.117647%,76.862745%);fill-opacity:1;" d="M 5.390625 0 L 58.609375 0 C 61.585938 0 64 2.414062 64 5.390625 L 64 58.609375 C 64 61.585938 61.585938 64 58.609375 64 L 5.390625 64 C 2.414062 64 0 61.585938 0 58.609375 L 0 5.390625 C 0 2.414062 2.414062 0 5.390625 0 Z M 5.390625 0 "/>
<path style=" stroke:none;fill-rule:nonzero;fill:rgb(100%,100%,100%);fill-opacity:1;" d="M 51.769531 51.238281 L 18.082031 51.238281 C 17.085938 51.238281 16.28125 50.433594 16.28125 49.441406 L 16.28125 20.847656 C 16.28125 19.855469 17.085938 19.050781 18.082031 19.050781 L 51.769531 19.050781 C 52.761719 19.050781 53.570312 19.855469 53.570312 20.847656 L 53.570312 49.441406 C 53.570312 50.433594 52.761719 51.238281 51.769531 51.238281 Z M 51.769531 51.238281 "/>
<path style=" stroke:none;fill-rule:nonzero;fill:rgb(92.54902%,25.098039%,47.843137%);fill-opacity:1;" d="M 18.089844 18.21875 L 51.769531 18.21875 C 53.230469 18.21875 54.410156 19.402344 54.410156 20.859375 L 54.410156 49.441406 C 54.402344 50.894531 53.222656 52.070312 51.769531 52.070312 L 18.089844 52.070312 C 16.636719 52.070312 15.460938 50.894531 15.460938 49.441406 L 15.460938 20.859375 C 15.460938 19.40625 16.636719 18.226562 18.089844 18.21875 Z M 51.769531 50.410156 C 52.324219 50.410156 52.769531 49.964844 52.769531 49.410156 L 52.769531 20.859375 C 52.769531 20.308594 52.324219 19.859375 51.769531 19.859375 L 18.089844 19.859375 C 17.535156 19.859375 17.089844 20.308594 17.089844 20.859375 L 17.089844 49.441406 C 17.089844 49.992188 17.535156 50.441406 18.089844 50.441406 Z M 51.769531 50.410156 "/>
<path style=" stroke:none;fill-rule:nonzero;fill:rgb(100%,100%,100%);fill-opacity:1;" d="M 45.910156 44.949219 L 12.21875 44.949219 C 11.226562 44.949219 10.417969 44.144531 10.417969 43.152344 L 10.417969 14.558594 C 10.417969 13.566406 11.226562 12.761719 12.21875 12.761719 L 45.910156 12.761719 C 46.902344 12.761719 47.710938 13.566406 47.710938 14.558594 L 47.710938 43.152344 C 47.710938 44.144531 46.902344 44.949219 45.910156 44.949219 Z M 45.910156 44.949219 "/>
<path style=" stroke:none;fill-rule:nonzero;fill:rgb(92.54902%,25.098039%,47.843137%);fill-opacity:1;" d="M 12.230469 11.929688 L 45.910156 11.929688 C 47.363281 11.929688 48.539062 13.105469 48.539062 14.558594 L 48.539062 43.140625 C 48.539062 44.59375 47.363281 45.773438 45.910156 45.78125 L 12.230469 45.78125 C 10.769531 45.78125 9.589844 44.597656 9.589844 43.140625 L 9.589844 14.558594 C 9.597656 13.105469 10.777344 11.929688 12.230469 11.929688 Z M 45.910156 44.109375 C 46.464844 44.109375 46.910156 43.660156 46.910156 43.109375 L 46.910156 14.558594 C 46.910156 14.007812 46.464844 13.558594 45.910156 13.558594 L 12.230469 13.558594 C 11.675781 13.558594 11.230469 14.007812 11.230469 14.558594 L 11.230469 43.140625 C 11.230469 43.691406 11.675781 44.140625 12.230469 44.140625 Z M 45.910156 44.109375 "/>
<path style=" stroke:none;fill-rule:nonzero;fill:rgb(92.54902%,25.098039%,47.843137%);fill-opacity:1;" d="M 48.308594 16.460938 L 9.910156 16.460938 L 9.910156 14.378906 C 9.910156 13.230469 10.839844 12.300781 11.988281 12.300781 L 46.21875 12.300781 C 47.371094 12.300781 48.300781 13.230469 48.300781 14.378906 L 48.300781 16.460938 Z M 48.308594 16.460938 "/>
<path style=" stroke:none;fill-rule:nonzero;fill:rgb(100%,100%,100%);fill-opacity:1;" d="M 38.730469 14.441406 C 38.730469 15.136719 38.167969 15.699219 37.46875 15.699219 C 36.773438 15.699219 36.210938 15.136719 36.210938 14.441406 C 36.210938 13.746094 36.773438 13.179688 37.46875 13.179688 C 38.167969 13.179688 38.730469 13.746094 38.730469 14.441406 Z M 38.730469 14.441406 "/>
<path style=" stroke:none;fill-rule:nonzero;fill:rgb(100%,100%,100%);fill-opacity:1;" d="M 42.929688 14.441406 C 42.929688 15.136719 42.363281 15.699219 41.667969 15.699219 C 40.972656 15.699219 40.410156 15.136719 40.410156 14.441406 C 40.410156 13.746094 40.972656 13.179688 41.667969 13.179688 C 42.363281 13.179688 42.929688 13.746094 42.929688 14.441406 Z M 42.929688 14.441406 "/>
<path style=" stroke:none;fill-rule:nonzero;fill:rgb(100%,100%,100%);fill-opacity:1;" d="M 47.140625 14.441406 C 47.140625 15.136719 46.574219 15.699219 45.878906 15.699219 C 45.183594 15.699219 44.621094 15.136719 44.621094 14.441406 C 44.621094 13.746094 45.183594 13.179688 45.878906 13.179688 C 46.574219 13.179688 47.140625 13.746094 47.140625 14.441406 Z M 47.140625 14.441406 "/>
</g>
</svg>
