
<svg xmlns="http://www.w3.org/2000/svg" xmlns:xlink="http://www.w3.org/1999/xlink" width="64px" height="64px" viewBox="0 0 64 64" version="1.1">
<g id="surface1">
<path style=" stroke:none;fill-rule:nonzero;fill:rgb(49.411765%,34.117647%,76.862745%);fill-opacity:1;" d="M 5.390625 0 L 58.609375 0 C 61.585938 0 64 2.414062 64 5.390625 L 64 58.609375 C 64 61.585938 61.585938 64 58.609375 64 L 5.390625 64 C 2.414062 64 0 61.585938 0 58.609375 L 0 5.390625 C 0 2.414062 2.414062 0 5.390625 0 Z M 5.390625 0 "/>
<path style=" stroke:none;fill-rule:nonzero;fill:rgb(100%,100%,100%);fill-opacity:1;" d="M 35.890625 30.75 C 37.890625 29.441406 39.097656 27.210938 39.097656 24.820312 L 39.097656 22.609375 C 39.09375 18.691406 35.917969 15.515625 32 15.511719 C 28.082031 15.515625 24.90625 18.691406 24.902344 22.609375 L 24.902344 24.832031 C 24.902344 27.21875 26.113281 29.441406 28.109375 30.75 L 28.109375 32.417969 C 28.109375 33.285156 27.644531 34.082031 26.890625 34.511719 L 20.691406 38 C 18.058594 39.484375 16.429688 42.269531 16.429688 45.289062 L 16.429688 48.480469 L 47.570312 48.480469 L 47.570312 45.300781 C 47.574219 42.277344 45.945312 39.484375 43.308594 38 L 37.109375 34.5 C 36.355469 34.074219 35.894531 33.277344 35.890625 32.410156 L 35.890625 30.75 "/>
</g>
</svg>
