
<svg xmlns="http://www.w3.org/2000/svg" xmlns:xlink="http://www.w3.org/1999/xlink" width="64px" height="64px" viewBox="0 0 64 64" version="1.1">
<g id="surface1">
<path style=" stroke:none;fill-rule:nonzero;fill:rgb(49.411765%,34.117647%,76.862745%);fill-opacity:1;" d="M 5.390625 0 L 58.609375 0 C 61.585938 0 64 2.414062 64 5.390625 L 64 58.609375 C 64 61.585938 61.585938 64 58.609375 64 L 5.390625 64 C 2.414062 64 0 61.585938 0 58.609375 L 0 5.390625 C 0 2.414062 2.414062 0 5.390625 0 Z M 5.390625 0 "/>
<path style=" stroke:none;fill-rule:nonzero;fill:rgb(100%,100%,100%);fill-opacity:1;" d="M 35.429688 18.679688 C 35.429688 20.574219 33.894531 22.109375 32 22.109375 C 30.105469 22.109375 28.570312 20.574219 28.570312 18.679688 C 28.570312 16.785156 30.105469 15.25 32 15.25 C 33.894531 15.25 35.429688 16.785156 35.429688 18.679688 Z M 35.429688 18.679688 "/>
<path style=" stroke:none;fill-rule:nonzero;fill:rgb(100%,100%,100%);fill-opacity:1;" d="M 36.730469 27.390625 L 45.652344 23.558594 C 46.097656 23.386719 46.457031 23.035156 46.648438 22.589844 C 46.835938 22.144531 46.835938 21.644531 46.652344 21.199219 C 46.261719 20.285156 45.203125 19.863281 44.289062 20.25 L 36.988281 23.378906 C 35.425781 24.042969 33.746094 24.386719 32.050781 24.378906 C 30.351562 24.386719 28.671875 24.042969 27.109375 23.378906 L 19.808594 20.25 C 18.894531 19.863281 17.839844 20.285156 17.449219 21.199219 C 17.261719 21.644531 17.261719 22.144531 17.453125 22.589844 C 17.640625 23.035156 18 23.386719 18.449219 23.558594 L 27 27.28125 C 27.511719 27.5 27.839844 28.003906 27.839844 28.558594 L 27.53125 34.839844 C 27.519531 35.074219 27.457031 35.300781 27.339844 35.5 L 21.179688 46 C 20.960938 46.355469 20.898438 46.78125 21.003906 47.183594 C 21.109375 47.589844 21.375 47.929688 21.738281 48.128906 L 22.539062 48.570312 C 23.328125 48.972656 24.296875 48.683594 24.730469 47.910156 L 30.480469 37.769531 C 30.753906 37.292969 31.269531 36.996094 31.820312 37 C 32.371094 36.992188 32.886719 37.28125 33.160156 37.761719 L 38.902344 47.910156 C 39.332031 48.6875 40.300781 48.980469 41.089844 48.570312 L 41.890625 48.128906 C 42.253906 47.925781 42.515625 47.585938 42.621094 47.183594 C 42.730469 46.78125 42.667969 46.355469 42.449219 46 L 36.378906 35.660156 C 36.257812 35.460938 36.191406 35.230469 36.191406 35 L 35.878906 28.660156 C 35.882812 28.105469 36.214844 27.605469 36.730469 27.390625 Z M 36.730469 27.390625 "/>
</g>
</svg>
