
<svg xmlns="http://www.w3.org/2000/svg" xmlns:xlink="http://www.w3.org/1999/xlink" width="64px" height="64px" viewBox="0 0 64 64" version="1.1">
<g id="surface1">
<path style=" stroke:none;fill-rule:nonzero;fill:rgb(92.54902%,25.098039%,47.843137%);fill-opacity:1;" d="M 64 32 L 64 5.390625 C 64 2.414062 61.585938 0 58.609375 0 L 32 0 L 32 32 Z M 64 32 "/>
<path style=" stroke:none;fill-rule:nonzero;fill:rgb(91.764706%,92.156863%,93.72549%);fill-opacity:1;" d="M 32 0 L 5.390625 0 C 2.414062 0 0 2.414062 0 5.390625 L 0 32 L 32 32 Z M 32 0 "/>
<path style=" stroke:none;fill-rule:nonzero;fill:rgb(16.078431%,71.372549%,96.470588%);fill-opacity:1;" d="M 32 32 L 32 64 L 58.609375 64 C 61.585938 64 64 61.585938 64 58.609375 L 64 32 Z M 32 32 "/>
<path style=" stroke:none;fill-rule:nonzero;fill:rgb(63.137255%,38.431373%,96.862745%);fill-opacity:1;" d="M 0 32 L 0 58.609375 C 0 61.585938 2.414062 64 5.390625 64 L 32 64 L 32 32 Z M 0 32 "/>
<path style=" stroke:none;fill-rule:nonzero;fill:rgb(100%,100%,100%);fill-opacity:1;" d="M 50.691406 53.699219 L 45.859375 53.699219 C 44.707031 53.695312 43.777344 52.761719 43.769531 51.609375 L 43.769531 47.609375 C 43.777344 46.457031 44.707031 45.527344 45.859375 45.519531 L 48.917969 45.519531 C 49.273438 45.519531 49.558594 45.808594 49.558594 46.160156 C 49.558594 46.511719 49.273438 46.800781 48.917969 46.800781 L 45.859375 46.800781 C 45.414062 46.804688 45.054688 47.164062 45.050781 47.609375 L 45.050781 51.609375 C 45.054688 52.054688 45.417969 52.410156 45.859375 52.410156 L 50.691406 52.410156 C 50.902344 52.410156 51.109375 52.332031 51.261719 52.179688 C 51.414062 52.027344 51.5 51.824219 51.5 51.609375 L 51.5 47.609375 C 51.5 47.160156 51.136719 46.800781 50.691406 46.800781 L 50.050781 46.800781 L 50.050781 44.109375 C 50.023438 43.488281 49.511719 43 48.890625 43 L 48.140625 43 C 47.527344 43.011719 47.027344 43.496094 47 44.109375 L 47 44.378906 C 47.03125 44.628906 46.917969 44.875 46.703125 45.011719 C 46.488281 45.144531 46.21875 45.144531 46.007812 45.011719 C 45.792969 44.875 45.679688 44.628906 45.710938 44.378906 L 45.710938 44.109375 C 45.714844 42.765625 46.804688 41.675781 48.152344 41.667969 L 48.902344 41.667969 C 50.25 41.667969 51.34375 42.761719 51.347656 44.109375 L 51.347656 45.570312 C 52.21875 45.847656 52.804688 46.660156 52.800781 47.570312 L 52.800781 51.570312 C 52.808594 52.132812 52.589844 52.675781 52.191406 53.078125 C 51.792969 53.480469 51.253906 53.703125 50.691406 53.699219 Z M 50.691406 53.699219 "/>
<path style=" stroke:none;fill-rule:nonzero;fill:rgb(100%,100%,100%);fill-opacity:1;" d="M 47.710938 12.390625 C 48.527344 12.390625 49.191406 13.050781 49.191406 13.871094 C 49.191406 14.6875 48.527344 15.347656 47.710938 15.347656 C 46.894531 15.347656 46.230469 14.6875 46.230469 13.871094 C 46.226562 13.476562 46.382812 13.097656 46.660156 12.820312 C 46.9375 12.542969 47.316406 12.386719 47.710938 12.390625 M 47.710938 11.199219 C 46.71875 11.136719 45.777344 11.632812 45.261719 12.484375 C 44.746094 13.332031 44.746094 14.398438 45.261719 15.246094 C 45.777344 16.097656 46.71875 16.589844 47.710938 16.53125 C 48.699219 16.589844 49.644531 16.097656 50.160156 15.246094 C 50.671875 14.398438 50.671875 13.332031 50.160156 12.484375 C 49.644531 11.632812 48.699219 11.136719 47.710938 11.199219 Z M 47.710938 11.199219 "/>
<path style=" stroke:none;fill-rule:nonzero;fill:rgb(100%,100%,100%);fill-opacity:1;" d="M 47.710938 18.320312 C 49.878906 18.320312 51.78125 19.777344 52.347656 21.871094 C 52.363281 21.886719 52.363281 21.910156 52.347656 21.929688 L 43.070312 21.929688 C 43.070312 21.929688 43.070312 21.878906 43.070312 21.871094 C 43.644531 19.777344 45.546875 18.324219 47.71875 18.320312 M 47.71875 17.128906 C 45.007812 17.125 42.628906 18.941406 41.917969 21.558594 C 41.8125 21.933594 41.886719 22.335938 42.121094 22.644531 C 42.355469 22.957031 42.722656 23.136719 43.109375 23.140625 L 52.332031 23.140625 C 52.714844 23.136719 53.082031 22.949219 53.3125 22.644531 C 53.546875 22.332031 53.621094 21.933594 53.519531 21.558594 C 52.808594 18.941406 50.433594 17.125 47.71875 17.128906 Z M 47.71875 17.128906 "/>
<path style=" stroke:none;fill-rule:nonzero;fill:rgb(50.196078%,50.196078%,50.196078%);fill-opacity:1;" d="M 21.519531 21.390625 L 21.519531 13.390625 C 21.515625 12.105469 20.472656 11.066406 19.191406 11.058594 L 15.191406 11.058594 C 13.902344 11.058594 12.859375 12.105469 12.859375 13.390625 L 12.859375 18.332031 C 12.601562 18.226562 12.328125 18.171875 12.050781 18.167969 C 11.113281 18.089844 10.289062 18.777344 10.199219 19.710938 C 10.292969 20.621094 11.089844 21.292969 12 21.238281 C 12.929688 21.316406 13.75 20.628906 13.839844 19.699219 L 13.839844 14.320312 C 13.839844 13.785156 14.257812 13.347656 14.789062 13.320312 L 19.46875 13.320312 C 20.003906 13.347656 20.421875 13.785156 20.417969 14.320312 L 20.417969 20.140625 C 20.171875 20.042969 19.90625 19.992188 19.640625 19.988281 C 18.707031 19.914062 17.886719 20.597656 17.789062 21.53125 C 17.886719 22.460938 18.707031 23.144531 19.640625 23.070312 C 20.574219 23.144531 21.394531 22.460938 21.488281 21.53125 C 21.539062 21.480469 21.519531 21.429688 21.519531 21.390625 Z M 21.519531 21.390625 "/>
<path style=" stroke:none;fill-rule:nonzero;fill:rgb(100%,100%,100%);fill-opacity:1;" d="M 24.179688 44.691406 L 21.25 43.691406 C 21.03125 43.617188 20.878906 43.410156 20.878906 43.179688 C 20.878906 42.886719 20.644531 42.652344 20.347656 42.652344 L 11.550781 42.652344 C 11.257812 42.652344 11.019531 42.886719 11.019531 43.179688 L 11.019531 52.652344 C 11.019531 52.945312 11.253906 53.183594 11.550781 53.191406 L 20.347656 53.191406 C 20.492188 53.191406 20.628906 53.132812 20.730469 53.03125 C 20.828125 52.929688 20.882812 52.792969 20.878906 52.652344 C 20.878906 52.476562 20.964844 52.316406 21.105469 52.214844 C 21.246094 52.113281 21.425781 52.089844 21.589844 52.152344 L 21.679688 52.152344 C 21.816406 52.195312 21.960938 52.183594 22.085938 52.121094 C 22.210938 52.054688 22.308594 51.945312 22.347656 51.808594 L 24.519531 45.332031 C 24.582031 45.0625 24.4375 44.789062 24.179688 44.691406 Z M 19.179688 50.949219 L 12.75 50.949219 C 12.457031 50.949219 12.214844 50.714844 12.210938 50.417969 L 12.210938 44.417969 C 12.210938 44.121094 12.449219 43.878906 12.75 43.878906 L 19.160156 43.878906 C 19.453125 43.886719 19.691406 44.125 19.691406 44.417969 L 19.691406 50.417969 C 19.703125 50.566406 19.652344 50.714844 19.554688 50.828125 C 19.453125 50.9375 19.308594 51 19.160156 51 Z M 20.902344 49.75 L 20.902344 45.269531 C 20.898438 45.097656 20.984375 44.933594 21.125 44.835938 C 21.265625 44.734375 21.449219 44.710938 21.609375 44.769531 L 23.070312 45.261719 C 23.203125 45.304688 23.316406 45.398438 23.378906 45.523438 C 23.441406 45.652344 23.453125 45.796875 23.410156 45.929688 L 22 50 C 21.957031 50.136719 21.863281 50.246094 21.734375 50.308594 C 21.609375 50.371094 21.464844 50.386719 21.332031 50.339844 L 21.210938 50.339844 C 20.976562 50.242188 20.839844 50 20.878906 49.75 Z M 20.902344 49.75 "/>
</g>
</svg>
