
<svg xmlns="http://www.w3.org/2000/svg" xmlns:xlink="http://www.w3.org/1999/xlink" width="64px" height="64px" viewBox="0 0 64 64" version="1.1">
<g id="surface1">
<path style=" stroke:none;fill-rule:nonzero;fill:rgb(49.411765%,34.117647%,76.862745%);fill-opacity:1;" d="M 5.390625 0 L 58.609375 0 C 61.585938 0 64 2.414062 64 5.390625 L 64 58.609375 C 64 61.585938 61.585938 64 58.609375 64 L 5.390625 64 C 2.414062 64 0 61.585938 0 58.609375 L 0 5.390625 C 0 2.414062 2.414062 0 5.390625 0 Z M 5.390625 0 "/>
<path style=" stroke:none;fill-rule:nonzero;fill:rgb(100%,100%,100%);fill-opacity:1;" d="M 53.652344 48.089844 L 10.359375 48.089844 C 9.367188 48.089844 8.558594 47.285156 8.558594 46.289062 L 8.558594 17.699219 C 8.558594 16.707031 9.367188 15.902344 10.359375 15.902344 L 53.652344 15.902344 C 54.644531 15.902344 55.449219 16.707031 55.449219 17.699219 L 55.449219 46.289062 C 55.449219 47.285156 54.644531 48.089844 53.652344 48.089844 Z M 53.652344 48.089844 "/>
<path style=" stroke:none;fill-rule:nonzero;fill:rgb(92.54902%,25.098039%,47.843137%);fill-opacity:1;" d="M 10.359375 15.070312 L 53.640625 15.070312 C 55.097656 15.070312 56.28125 16.253906 56.28125 17.710938 L 56.28125 46.289062 C 56.28125 47.746094 55.097656 48.929688 53.640625 48.929688 L 10.359375 48.929688 C 8.902344 48.929688 7.71875 47.746094 7.71875 46.289062 L 7.71875 17.710938 C 7.71875 16.253906 8.902344 15.070312 10.359375 15.070312 Z M 53.640625 47.261719 C 54.191406 47.261719 54.640625 46.8125 54.640625 46.261719 L 54.640625 17.710938 C 54.640625 17.160156 54.191406 16.710938 53.640625 16.710938 L 10.359375 16.710938 C 9.808594 16.710938 9.359375 17.160156 9.359375 17.710938 L 9.359375 46.289062 C 9.359375 46.839844 9.808594 47.289062 10.359375 47.289062 Z M 53.640625 47.261719 "/>
<path style=" stroke:none;fill-rule:nonzero;fill:rgb(92.54902%,25.098039%,47.843137%);fill-opacity:1;" d="M 56.082031 19.609375 L 8.082031 19.609375 L 8.082031 17.53125 C 8.078125 16.410156 8.964844 15.492188 10.082031 15.449219 L 53.960938 15.449219 C 54.519531 15.441406 55.058594 15.652344 55.457031 16.042969 C 55.855469 16.433594 56.082031 16.972656 56.082031 17.53125 Z M 56.082031 19.609375 "/>
<path style=" stroke:none;fill-rule:nonzero;fill:rgb(100%,100%,100%);fill-opacity:1;" d="M 46.460938 17.589844 C 46.460938 18.285156 45.894531 18.847656 45.199219 18.847656 C 44.503906 18.847656 43.941406 18.285156 43.941406 17.589844 C 43.941406 16.894531 44.503906 16.332031 45.199219 16.332031 C 45.894531 16.332031 46.460938 16.894531 46.460938 17.589844 Z M 46.460938 17.589844 "/>
<path style=" stroke:none;fill-rule:nonzero;fill:rgb(100%,100%,100%);fill-opacity:1;" d="M 50.667969 17.589844 C 50.667969 18.285156 50.105469 18.847656 49.410156 18.847656 C 48.714844 18.847656 48.152344 18.285156 48.152344 17.589844 C 48.152344 16.894531 48.714844 16.332031 49.410156 16.332031 C 50.105469 16.332031 50.667969 16.894531 50.667969 17.589844 Z M 50.667969 17.589844 "/>
<path style=" stroke:none;fill-rule:nonzero;fill:rgb(100%,100%,100%);fill-opacity:1;" d="M 54.878906 17.589844 C 54.878906 18.285156 54.316406 18.847656 53.621094 18.847656 C 52.925781 18.847656 52.359375 18.285156 52.359375 17.589844 C 52.359375 16.894531 52.925781 16.332031 53.621094 16.332031 C 54.316406 16.332031 54.878906 16.894531 54.878906 17.589844 Z M 54.878906 17.589844 "/>
</g>
</svg>
