
<svg xmlns="http://www.w3.org/2000/svg" xmlns:xlink="http://www.w3.org/1999/xlink" width="96px" height="96px" viewBox="0 0 96 96" version="1.1">
<g id="surface1">
<path style=" stroke:none;fill-rule:nonzero;fill:rgb(36.078431%,41.960784%,75.294118%);fill-opacity:1;" d="M 8.085938 0 L 87.914062 0 C 92.378906 0 96 3.621094 96 8.085938 L 96 87.914062 C 96 92.378906 92.378906 96 87.914062 96 L 8.085938 96 C 3.621094 96 0 92.378906 0 87.914062 L 0 8.085938 C 0 3.621094 3.621094 0 8.085938 0 Z M 8.085938 0 "/>
<path style=" stroke:none;fill-rule:nonzero;fill:rgb(16.078431%,71.372549%,96.470588%);fill-opacity:1;" d="M 65.519531 72 L 65.519531 49.246094 C 65.519531 47.589844 64.175781 46.246094 62.519531 46.246094 L 33.539062 46.246094 C 32.730469 46.226562 31.949219 46.53125 31.371094 47.097656 C 30.792969 47.660156 30.464844 48.4375 30.464844 49.246094 L 30.464844 72 Z M 65.519531 72 "/>
<path style=" stroke:none;fill-rule:nonzero;fill:rgb(100%,100%,100%);fill-opacity:1;" d="M 72.960938 30 L 66 23.039062 C 65.359375 22.410156 64.5 22.054688 63.601562 22.050781 L 28.230469 22.050781 C 24.820312 22.058594 22.058594 24.820312 22.050781 28.230469 L 22.050781 67.769531 C 22.058594 71.179688 24.820312 73.941406 28.230469 73.949219 L 67.769531 73.949219 C 71.179688 73.941406 73.941406 71.179688 73.949219 67.769531 L 73.949219 32.445312 C 73.957031 31.53125 73.601562 30.652344 72.960938 30 Z M 59.128906 29.144531 L 59.128906 33.976562 C 59.128906 34.902344 58.378906 35.65625 57.449219 35.65625 C 56.523438 35.65625 55.769531 34.902344 55.769531 33.976562 L 55.769531 29.191406 C 55.769531 28.261719 56.523438 27.511719 57.449219 27.511719 C 58.378906 27.511719 59.128906 28.261719 59.128906 29.191406 Z M 30.464844 71.144531 L 28.230469 71.144531 C 26.324219 71.144531 24.78125 69.601562 24.78125 67.695312 L 24.78125 28.230469 C 24.78125 26.324219 26.324219 24.78125 28.230469 24.78125 L 33.433594 24.78125 L 33.433594 36 C 33.433594 36.808594 33.761719 37.582031 34.339844 38.148438 C 34.917969 38.714844 35.703125 39.019531 36.511719 39 L 59.488281 39 C 61.160156 39 62.523438 37.667969 62.566406 36 L 62.566406 24.78125 L 63.554688 24.78125 C 63.726562 24.785156 63.894531 24.855469 64.019531 24.976562 L 71.023438 31.980469 C 71.144531 32.105469 71.214844 32.269531 71.21875 32.445312 L 71.21875 67.769531 C 71.21875 69.675781 69.675781 71.21875 67.769531 71.21875 L 30.464844 71.21875 Z M 30.464844 71.144531 "/>
<path style=" stroke:none;fill-rule:nonzero;fill:rgb(100%,100%,100%);fill-opacity:1;" d="M 36.660156 52.09375 L 59.324219 52.09375 L 59.324219 53.835938 L 36.660156 53.835938 Z M 36.660156 52.09375 "/>
<path style=" stroke:none;fill-rule:nonzero;fill:rgb(100%,100%,100%);fill-opacity:1;" d="M 36.660156 58.738281 L 59.324219 58.738281 L 59.324219 60.480469 L 36.660156 60.480469 Z M 36.660156 58.738281 "/>
<path style=" stroke:none;fill-rule:nonzero;fill:rgb(100%,100%,100%);fill-opacity:1;" d="M 36.660156 65.386719 L 59.324219 65.386719 L 59.324219 67.125 L 36.660156 67.125 Z M 36.660156 65.386719 "/>
</g>
</svg>
