
<svg xmlns="http://www.w3.org/2000/svg" xmlns:xlink="http://www.w3.org/1999/xlink" width="96px" height="96px" viewBox="0 0 96 96" version="1.1">
<g id="surface1">
<path style=" stroke:none;fill-rule:nonzero;fill:rgb(100%,100%,100%);fill-opacity:1;" d="M 77.671875 96 L 18.328125 96 C 8.203125 96 0 87.796875 0 77.671875 L 0 18.328125 C 0 8.203125 8.203125 0 18.328125 0 L 77.671875 0 C 87.796875 0 96 8.203125 96 18.328125 L 96 77.671875 C 96 87.796875 87.796875 96 77.671875 96 Z M 18.328125 10.5 C 14.015625 10.523438 10.523438 14.015625 10.5 18.328125 L 10.5 77.671875 C 10.523438 81.984375 14.015625 85.476562 18.328125 85.5 L 77.671875 85.5 C 81.984375 85.476562 85.476562 81.984375 85.5 77.671875 L 85.5 18.328125 C 85.476562 14.015625 81.984375 10.523438 77.671875 10.5 Z M 18.328125 10.5 "/>
<path style=" stroke:none;fill-rule:nonzero;fill:rgb(100%,100%,100%);fill-opacity:1;" d="M 20.390625 43.125 L 15.773438 36.773438 L 27.070312 28.5 L 15.773438 20.296875 L 20.390625 14.015625 L 36 25.382812 C 37.007812 26.132812 37.59375 27.304688 37.59375 28.570312 C 37.59375 29.8125 37.007812 30.984375 36 31.734375 Z M 20.390625 43.125 "/>
<path style=" stroke:none;fill-rule:nonzero;fill:rgb(100%,100%,100%);fill-opacity:1;" d="M 35.15625 35.15625 L 57.28125 35.15625 L 57.28125 43.03125 L 35.15625 43.03125 Z M 35.15625 35.15625 "/>
</g>
</svg>
