
<svg xmlns="http://www.w3.org/2000/svg" xmlns:xlink="http://www.w3.org/1999/xlink" width="22px" height="22px" viewBox="0 0 22 22" version="1.1">
<defs>
<linearGradient id="linear0" gradientUnits="userSpaceOnUse" x1="32" y1="3.8" x2="32" y2="23.49" gradientTransform="matrix(0.34375,0,0,0.34375,0,0)">
<stop offset="0" style="stop-color:rgb(16.078431%,71.372549%,96.470588%);stop-opacity:1;"/>
<stop offset="0.67" style="stop-color:rgb(39.607843%,45.098039%,82.745098%);stop-opacity:1;"/>
<stop offset="1" style="stop-color:rgb(49.411765%,34.117647%,76.862745%);stop-opacity:1;"/>
</linearGradient>
<linearGradient id="linear1" gradientUnits="userSpaceOnUse" x1="32" y1="60.9" x2="32" y2="18.72" gradientTransform="matrix(0.34375,0,0,0.34375,0,0)">
<stop offset="0" style="stop-color:rgb(86.27451%,87.058824%,88.627451%);stop-opacity:1;"/>
<stop offset="0.57" style="stop-color:rgb(87.058824%,87.843137%,89.411765%);stop-opacity:1;"/>
<stop offset="0.81" style="stop-color:rgb(89.803922%,90.588235%,91.764706%);stop-opacity:1;"/>
<stop offset="0.99" style="stop-color:rgb(94.901961%,95.294118%,95.686275%);stop-opacity:1;"/>
<stop offset="1" style="stop-color:rgb(95.294118%,95.686275%,96.078431%);stop-opacity:1;"/>
</linearGradient>
<linearGradient id="linear2" gradientUnits="userSpaceOnUse" x1="44.66" y1="43.41" x2="29.36" y2="28.12" gradientTransform="matrix(0.244062,0.244062,-0.244062,0.244062,10.6975,-3.825937)">
<stop offset="0" style="stop-color:rgb(75.294118%,75.294118%,75.294118%);stop-opacity:1;"/>
<stop offset="1" style="stop-color:rgb(55.686275%,55.686275%,55.686275%);stop-opacity:1;"/>
</linearGradient>
</defs>
<g id="surface1">
<path style=" stroke:none;fill-rule:nonzero;fill:url(#linear0);" d="M 22 7.324219 C 22 6.351562 21.210938 5.566406 20.238281 5.566406 L 14.25 5.566406 C 13.023438 5.566406 12.023438 4.585938 12 3.363281 C 12.019531 2.117188 11.027344 1.089844 9.78125 1.066406 L 1.160156 1.066406 C 0.519531 1.066406 0 1.585938 0 2.226562 L 0 8.050781 L 22 8.050781 Z M 22 7.324219 "/>
<path style=" stroke:none;fill-rule:nonzero;fill:url(#linear1);" d="M 20.238281 6.433594 L 1.761719 6.433594 C 0.789062 6.433594 0 7.222656 0 8.199219 L 0 19.175781 C 0 20.148438 0.789062 20.933594 1.761719 20.933594 L 20.238281 20.933594 C 21.210938 20.933594 22 20.148438 22 19.175781 L 22 8.199219 C 22 7.222656 21.210938 6.433594 20.238281 6.433594 Z M 20.238281 6.433594 "/>
<path style=" stroke:none;fill-rule:nonzero;fill:url(#linear2);" d="M 14.222656 15.683594 L 12.972656 14.4375 C 13.714844 13.175781 13.40625 11.558594 12.246094 10.664062 C 11.089844 9.765625 9.445312 9.871094 8.410156 10.90625 C 7.375 11.941406 7.269531 13.585938 8.167969 14.742188 C 9.0625 15.898438 10.679688 16.210938 11.941406 15.46875 L 13.191406 16.71875 C 13.359375 16.957031 13.65625 17.074219 13.941406 17.011719 C 14.230469 16.953125 14.453125 16.726562 14.511719 16.441406 C 14.574219 16.15625 14.460938 15.859375 14.222656 15.6875 Z M 9.148438 14.292969 C 8.417969 13.5625 8.417969 12.382812 9.148438 11.652344 C 9.875 10.925781 11.058594 10.925781 11.785156 11.652344 C 12.515625 12.382812 12.515625 13.5625 11.789062 14.292969 C 11.058594 15.019531 9.875 15.019531 9.148438 14.292969 Z M 9.148438 14.292969 "/>
</g>
</svg>
