
<svg xmlns="http://www.w3.org/2000/svg" xmlns:xlink="http://www.w3.org/1999/xlink" width="22px" height="22px" viewBox="0 0 22 22" version="1.1">
<defs>
<linearGradient id="linear0" gradientUnits="userSpaceOnUse" x1="32" y1="3.8" x2="32" y2="23.49" gradientTransform="matrix(0.34375,0,0,0.34375,0,0)">
<stop offset="0" style="stop-color:rgb(16.078431%,71.372549%,96.470588%);stop-opacity:1;"/>
<stop offset="0.67" style="stop-color:rgb(39.607843%,45.098039%,82.745098%);stop-opacity:1;"/>
<stop offset="1" style="stop-color:rgb(49.411765%,34.117647%,76.862745%);stop-opacity:1;"/>
</linearGradient>
<linearGradient id="linear1" gradientUnits="userSpaceOnUse" x1="32" y1="60.9" x2="32" y2="18.72" gradientTransform="matrix(0.34375,0,0,0.34375,0,0)">
<stop offset="0" style="stop-color:rgb(86.27451%,87.058824%,88.627451%);stop-opacity:1;"/>
<stop offset="0.57" style="stop-color:rgb(87.058824%,87.843137%,89.411765%);stop-opacity:1;"/>
<stop offset="0.81" style="stop-color:rgb(89.803922%,90.588235%,91.764706%);stop-opacity:1;"/>
<stop offset="0.99" style="stop-color:rgb(94.901961%,95.294118%,95.686275%);stop-opacity:1;"/>
<stop offset="1" style="stop-color:rgb(95.294118%,95.686275%,96.078431%);stop-opacity:1;"/>
</linearGradient>
<linearGradient id="linear2" gradientUnits="userSpaceOnUse" x1="35.11" y1="50.92" x2="35.11" y2="31.48" gradientTransform="matrix(0.34375,0,0,0.34375,0,0)">
<stop offset="0" style="stop-color:rgb(75.294118%,75.294118%,75.294118%);stop-opacity:1;"/>
<stop offset="1" style="stop-color:rgb(55.686275%,55.686275%,55.686275%);stop-opacity:1;"/>
</linearGradient>
<linearGradient id="linear3" gradientUnits="userSpaceOnUse" x1="26.15" y1="50.92" x2="26.15" y2="31.48" gradientTransform="matrix(0.34375,0,0,0.34375,0,0)">
<stop offset="0" style="stop-color:rgb(75.294118%,75.294118%,75.294118%);stop-opacity:1;"/>
<stop offset="1" style="stop-color:rgb(55.686275%,55.686275%,55.686275%);stop-opacity:1;"/>
</linearGradient>
<linearGradient id="linear4" gradientUnits="userSpaceOnUse" x1="31.82" y1="50.92" x2="31.82" y2="31.48" gradientTransform="matrix(0.34375,0,0,0.34375,-0.00109529,0.00148079)">
<stop offset="0" style="stop-color:rgb(75.294118%,75.294118%,75.294118%);stop-opacity:1;"/>
<stop offset="1" style="stop-color:rgb(55.686275%,55.686275%,55.686275%);stop-opacity:1;"/>
</linearGradient>
<linearGradient id="linear5" gradientUnits="userSpaceOnUse" x1="32" y1="50.92" x2="32" y2="31.48" gradientTransform="matrix(0.34375,0,0,0.34375,0,0)">
<stop offset="0" style="stop-color:rgb(75.294118%,75.294118%,75.294118%);stop-opacity:1;"/>
<stop offset="1" style="stop-color:rgb(55.686275%,55.686275%,55.686275%);stop-opacity:1;"/>
</linearGradient>
</defs>
<g id="surface1">
<path style=" stroke:none;fill-rule:nonzero;fill:url(#linear0);" d="M 22 7.324219 C 21.996094 6.351562 21.210938 5.566406 20.234375 5.566406 L 14.25 5.566406 C 13.023438 5.566406 12.023438 4.585938 12 3.363281 C 12.019531 2.117188 11.027344 1.089844 9.78125 1.066406 L 1.164062 1.066406 C 0.519531 1.066406 0 1.585938 0 2.226562 L 0 8.050781 L 22 8.050781 Z M 22 7.324219 "/>
<path style=" stroke:none;fill-rule:nonzero;fill:url(#linear1);" d="M 20.234375 6.433594 L 1.765625 6.433594 C 0.789062 6.433594 0 7.226562 0 8.199219 L 0 19.175781 C 0.00390625 20.148438 0.789062 20.933594 1.765625 20.933594 L 20.234375 20.933594 C 21.210938 20.933594 21.996094 20.148438 22 19.175781 L 22 8.199219 C 22 7.226562 21.210938 6.433594 20.234375 6.433594 Z M 20.234375 6.433594 "/>
<path style=" stroke:none;fill-rule:nonzero;fill:url(#linear2);" d="M 12.632812 12.0625 C 12.484375 11.964844 12.285156 11.984375 12.164062 12.113281 L 11.476562 12.800781 C 11.40625 12.867188 11.363281 12.957031 11.363281 13.050781 C 11.363281 13.148438 11.40625 13.238281 11.476562 13.304688 C 11.539062 13.371094 11.628906 13.410156 11.726562 13.410156 C 11.820312 13.410156 11.910156 13.371094 11.976562 13.304688 L 12.691406 12.585938 C 12.761719 12.515625 12.796875 12.414062 12.785156 12.3125 C 12.773438 12.210938 12.71875 12.117188 12.632812 12.0625 Z M 12.632812 12.0625 "/>
<path style=" stroke:none;fill-rule:nonzero;fill:url(#linear3);" d="M 10.238281 13.769531 C 10.203125 13.59375 10.046875 13.472656 9.871094 13.476562 L 8.089844 13.476562 C 7.902344 13.476562 7.746094 13.628906 7.746094 13.820312 C 7.746094 14.007812 7.902344 14.164062 8.089844 14.164062 L 9.890625 14.164062 C 9.992188 14.164062 10.089844 14.125 10.15625 14.046875 C 10.222656 13.972656 10.253906 13.871094 10.238281 13.769531 Z M 10.238281 13.769531 "/>
<path style=" stroke:none;fill-rule:nonzero;fill:url(#linear4);" d="M 10.964844 13.40625 C 11.199219 13.421875 11.382812 13.625 11.367188 13.859375 C 11.355469 14.097656 11.152344 14.277344 10.914062 14.265625 C 10.679688 14.253906 10.496094 14.050781 10.511719 13.8125 C 10.523438 13.574219 10.726562 13.394531 10.964844 13.40625 Z M 10.964844 13.40625 "/>
<path style=" stroke:none;fill-rule:nonzero;fill:url(#linear5);" d="M 13.617188 11.15625 C 12.164062 9.707031 9.824219 9.675781 8.339844 11.089844 L 8.289062 11.136719 L 8.269531 11.160156 L 7.34375 12.089844 C 7.292969 12.140625 7.277344 12.214844 7.304688 12.28125 C 7.332031 12.347656 7.394531 12.386719 7.464844 12.386719 L 9.234375 12.386719 C 9.304688 12.386719 9.367188 12.347656 9.394531 12.28125 C 9.421875 12.214844 9.40625 12.140625 9.355469 12.089844 L 8.855469 11.585938 C 10.082031 10.433594 12.007812 10.488281 13.171875 11.703125 C 14.335938 12.917969 14.304688 14.84375 13.101562 16.019531 C 11.898438 17.195312 9.972656 17.183594 8.78125 15.996094 C 8.644531 15.851562 8.414062 15.851562 8.273438 15.988281 C 8.128906 16.128906 8.128906 16.359375 8.265625 16.5 C 9.21875 17.476562 10.621094 17.867188 11.9375 17.519531 C 13.253906 17.171875 14.285156 16.144531 14.632812 14.828125 C 14.980469 13.507812 14.59375 12.105469 13.617188 11.15625 Z M 13.617188 11.15625 "/>
</g>
</svg>
