
<svg xmlns="http://www.w3.org/2000/svg" xmlns:xlink="http://www.w3.org/1999/xlink" width="22px" height="22px" viewBox="0 0 22 22" version="1.1">
<defs>
<linearGradient id="linear0" gradientUnits="userSpaceOnUse" x1="21.91" y1="9.34" x2="44.22" y2="59.46" gradientTransform="matrix(0.34375,0,0,0.34375,0,0)">
<stop offset="0" style="stop-color:rgb(25.490196%,74.509804%,83.529412%);stop-opacity:1;"/>
<stop offset="1" style="stop-color:rgb(51.372549%,32.54902%,84.313725%);stop-opacity:1;"/>
</linearGradient>
</defs>
<g id="surface1">
<path style=" stroke:none;fill-rule:nonzero;fill:rgb(26.666667%,53.72549%,75.686275%);fill-opacity:1;" d="M 0.511719 9.527344 C -0.285156 10.515625 -0.167969 11.957031 0.78125 12.800781 C 1.730469 13.640625 3.175781 13.589844 4.058594 12.679688 L 7.75 8.992188 C 5.480469 7.5625 2.542969 7.78125 0.511719 9.527344 Z M 0.511719 9.527344 "/>
<path style=" stroke:none;fill-rule:nonzero;fill:rgb(39.215686%,27.45098%,75.686275%);fill-opacity:1;" d="M 21.3125 9.320312 C 20.382812 8.390625 18.878906 8.390625 17.949219 9.320312 L 14.183594 13.0625 C 16.472656 14.507812 19.4375 14.273438 21.46875 12.484375 C 22.230469 11.542969 22.164062 10.179688 21.3125 9.320312 Z M 21.3125 9.320312 "/>
<path style=" stroke:none;fill-rule:nonzero;fill:url(#linear0);" d="M 13.75 13.523438 C 13.371094 13.28125 13.015625 13 12.699219 12.679688 C 10.320312 10.300781 10.320312 6.441406 12.699219 4.058594 C 13.628906 3.125 13.628906 1.617188 12.695312 0.683594 C 11.761719 -0.246094 10.25 -0.246094 9.320312 0.6875 L 5.007812 5.007812 L 0.6875 9.320312 C 3.066406 6.933594 6.929688 6.933594 9.3125 9.3125 C 11.699219 11.695312 11.699219 15.558594 9.320312 17.941406 C 8.386719 18.867188 8.386719 20.375 9.3125 21.308594 C 10.242188 22.238281 11.75 22.242188 12.679688 21.3125 L 16.992188 16.992188 L 21.3125 12.679688 C 19.296875 14.691406 16.160156 15.042969 13.75 13.523438 Z M 13.75 13.523438 "/>
</g>
</svg>
