
<svg xmlns="http://www.w3.org/2000/svg" xmlns:xlink="http://www.w3.org/1999/xlink" width="16px" height="16px" viewBox="0 0 16 16" version="1.1">
<g id="surface1">
<path style=" stroke:none;fill-rule:nonzero;fill:rgb(37.647059%,41.960784%,50.980392%);fill-opacity:1;" d="M 15.53125 13.675781 L 15.53125 3.101562 C 15.527344 1.390625 14.144531 0.00390625 12.433594 0 L 7.089844 0 C 5.382812 0.0078125 4 1.390625 4 3.101562 L 4 9.667969 C 3.65625 9.527344 3.289062 9.457031 2.917969 9.457031 C 1.558594 9.457031 0.453125 10.375 0.453125 11.507812 C 0.453125 12.640625 1.558594 13.558594 2.917969 13.558594 C 4.277344 13.558594 5.378906 12.640625 5.378906 11.507812 C 5.378906 11.476562 5.378906 11.445312 5.378906 11.414062 L 5.394531 11.414062 L 5.394531 4.339844 C 5.394531 3.640625 5.964844 3.074219 6.664062 3.074219 L 12.875 3.074219 C 13.574219 3.078125 14.136719 3.640625 14.140625 4.339844 L 14.140625 12.089844 C 13.804688 11.960938 13.449219 11.890625 13.09375 11.890625 C 11.734375 11.890625 10.632812 12.808594 10.632812 13.941406 C 10.632812 15.074219 11.734375 16 13.09375 16 C 14.453125 16 15.554688 15.082031 15.554688 13.949219 C 15.554688 13.855469 15.546875 13.765625 15.53125 13.675781 Z M 15.53125 13.675781 "/>
<path style=" stroke:none;fill-rule:nonzero;fill:rgb(37.647059%,41.960784%,50.980392%);fill-opacity:1;" d="M 12.222656 7.03125 L 7.878906 4.53125 C 7.746094 4.457031 7.582031 4.457031 7.449219 4.53125 C 7.316406 4.609375 7.234375 4.75 7.234375 4.902344 L 7.234375 9.914062 C 7.234375 10.066406 7.316406 10.207031 7.449219 10.28125 C 7.582031 10.359375 7.746094 10.359375 7.878906 10.285156 L 12.222656 7.785156 C 12.359375 7.710938 12.445312 7.566406 12.445312 7.410156 C 12.445312 7.25 12.359375 7.105469 12.222656 7.03125 Z M 12.222656 7.03125 "/>
</g>
</svg>
