
<svg xmlns="http://www.w3.org/2000/svg" xmlns:xlink="http://www.w3.org/1999/xlink" width="16px" height="16px" viewBox="0 0 16 16" version="1.1">
<defs>
<linearGradient id="linear0" gradientUnits="userSpaceOnUse" x1="31.18" y1="-3.52" x2="31.18" y2="47.91" gradientTransform="matrix(0.25,0,0,0.25,0,0)">
<stop offset="0" style="stop-color:rgb(16.078431%,71.372549%,96.470588%);stop-opacity:1;"/>
<stop offset="1" style="stop-color:rgb(49.411765%,34.117647%,76.862745%);stop-opacity:1;"/>
</linearGradient>
</defs>
<g id="surface1">
<path style=" stroke:none;fill-rule:nonzero;fill:rgb(91.764706%,92.156863%,93.72549%);fill-opacity:1;" d="M 1.347656 0 L 14.652344 0 C 15.394531 0 16 0.605469 16 1.347656 L 16 14.652344 C 16 15.394531 15.394531 16 14.652344 16 L 1.347656 16 C 0.605469 16 0 15.394531 0 14.652344 L 0 1.347656 C 0 0.605469 0.605469 0 1.347656 0 Z M 1.347656 0 "/>
<path style=" stroke:none;fill-rule:nonzero;fill:url(#linear0);" d="M 12.226562 7.859375 C 11.964844 7.605469 11.558594 7.476562 11 7.476562 C 10.6875 7.472656 10.378906 7.519531 10.082031 7.613281 C 9.792969 7.699219 9.519531 7.832031 9.273438 8 L 9.273438 8.625 C 9.273438 8.671875 9.273438 8.699219 9.308594 8.707031 C 9.34375 8.714844 9.355469 8.707031 9.386719 8.675781 C 9.613281 8.507812 9.867188 8.371094 10.136719 8.269531 C 10.382812 8.175781 10.644531 8.128906 10.910156 8.128906 C 11.054688 8.128906 11.199219 8.144531 11.34375 8.175781 C 11.457031 8.203125 11.558594 8.261719 11.644531 8.339844 C 11.730469 8.429688 11.792969 8.539062 11.824219 8.660156 C 11.867188 8.828125 11.886719 9 11.886719 9.175781 L 11.886719 9.25 L 10.414062 9.460938 C 9.964844 9.5 9.539062 9.691406 9.210938 10 L 7.363281 4.5 C 7.222656 4.070312 6.820312 3.777344 6.363281 3.773438 C 5.910156 3.777344 5.507812 4.070312 5.363281 4.5 L 3 11.542969 C 2.933594 11.746094 2.964844 11.96875 3.089844 12.140625 C 3.214844 12.316406 3.417969 12.417969 3.628906 12.417969 C 3.917969 12.417969 4.175781 12.230469 4.261719 11.957031 L 4.78125 10.367188 C 4.84375 10.175781 5.019531 10.046875 5.21875 10.046875 L 7.5 10.046875 C 7.699219 10.046875 7.878906 10.175781 7.941406 10.371094 L 8.441406 11.957031 C 8.527344 12.230469 8.785156 12.417969 9.074219 12.417969 L 10.351562 12.441406 C 10.644531 12.441406 10.9375 12.371094 11.203125 12.242188 C 11.335938 12.175781 11.460938 12.089844 11.574219 11.992188 C 11.683594 11.894531 11.777344 11.785156 11.851562 11.65625 L 11.867188 12.074219 C 11.871094 12.273438 12.039062 12.433594 12.242188 12.429688 C 12.441406 12.425781 12.601562 12.257812 12.597656 12.054688 L 12.597656 9.128906 C 12.609375 8.542969 12.484375 8.121094 12.226562 7.859375 Z M 6.917969 8.929688 L 5.808594 8.929688 C 5.660156 8.929688 5.519531 8.859375 5.433594 8.742188 C 5.347656 8.621094 5.324219 8.46875 5.367188 8.332031 L 6.140625 5.871094 C 6.167969 5.769531 6.257812 5.699219 6.363281 5.699219 C 6.464844 5.699219 6.558594 5.769531 6.585938 5.871094 L 7.355469 8.332031 C 7.402344 8.46875 7.378906 8.621094 7.289062 8.742188 C 7.203125 8.859375 7.066406 8.929688 6.917969 8.929688 Z M 11.917969 10.429688 C 11.917969 10.609375 11.878906 10.785156 11.804688 10.945312 C 11.730469 11.113281 11.628906 11.265625 11.5 11.394531 C 11.371094 11.523438 11.222656 11.628906 11.054688 11.707031 C 10.890625 11.785156 10.710938 11.828125 10.527344 11.828125 C 10.285156 11.835938 10.050781 11.761719 9.855469 11.621094 C 9.769531 11.554688 9.707031 11.46875 9.664062 11.371094 L 9.648438 11.332031 C 9.613281 11.234375 9.59375 11.132812 9.59375 11.027344 C 9.578125 10.75 9.6875 10.480469 9.894531 10.292969 C 10.121094 10.117188 10.390625 10.003906 10.675781 9.972656 L 11.71875 9.84375 C 11.769531 9.839844 11.820312 9.851562 11.859375 9.886719 C 11.894531 9.917969 11.917969 9.96875 11.917969 10.019531 Z M 11.917969 10.429688 "/>
</g>
</svg>
