
<svg xmlns="http://www.w3.org/2000/svg" xmlns:xlink="http://www.w3.org/1999/xlink" width="16px" height="16px" viewBox="0 0 16 16" version="1.1">
<g id="surface1">
<path style=" stroke:none;fill-rule:nonzero;fill:rgb(37.647059%,41.960784%,50.980392%);fill-opacity:1;" d="M 8 16 C 3.582031 16 0 12.417969 0 8 C 0 3.582031 3.582031 0 8 0 C 12.417969 0 16 3.582031 16 8 C 16 12.417969 12.417969 16 8 16 Z M 8 1.679688 C 4.507812 1.679688 1.679688 4.507812 1.679688 8 C 1.679688 11.492188 4.507812 14.320312 8 14.320312 C 11.492188 14.320312 14.320312 11.492188 14.320312 8 C 14.316406 4.511719 11.488281 1.683594 8 1.679688 Z M 8 1.679688 "/>
<path style=" stroke:none;fill-rule:nonzero;fill:rgb(37.647059%,41.960784%,50.980392%);fill-opacity:1;" d="M 7.769531 10.75 C 5.226562 10.765625 2.738281 10.023438 0.621094 8.613281 L 1.121094 7.941406 C 3.101562 9.230469 5.410156 9.914062 7.769531 9.910156 C 10.261719 9.875 12.707031 9.257812 14.917969 8.109375 L 15.335938 8.835938 C 13.003906 10.070312 10.410156 10.726562 7.769531 10.75 Z M 7.769531 10.75 "/>
<path style=" stroke:none;fill-rule:nonzero;fill:rgb(37.647059%,41.960784%,50.980392%);fill-opacity:1;" d="M 14.878906 7.640625 C 12.898438 6.351562 10.589844 5.667969 8.230469 5.671875 C 5.738281 5.703125 3.292969 6.320312 1.082031 7.472656 L 0.664062 6.75 C 2.996094 5.519531 5.589844 4.863281 8.230469 4.839844 C 10.773438 4.824219 13.261719 5.566406 15.378906 6.972656 Z M 14.878906 7.640625 "/>
<path style=" stroke:none;fill-rule:nonzero;fill:rgb(37.647059%,41.960784%,50.980392%);fill-opacity:1;" d="M 6.546875 15.183594 C 6.433594 15.046875 3.8125 11.800781 3.8125 7.558594 C 3.8125 3.320312 6.75 0.476562 6.863281 0.359375 L 7.441406 0.96875 C 7.414062 1 4.652344 3.664062 4.652344 7.558594 C 4.652344 11.457031 7.171875 14.621094 7.199219 14.652344 Z M 6.546875 15.183594 "/>
<path style=" stroke:none;fill-rule:nonzero;fill:rgb(37.647059%,41.960784%,50.980392%);fill-opacity:1;" d="M 9.136719 15.222656 L 8.558594 14.613281 C 8.585938 14.585938 11.347656 11.921875 11.347656 8.019531 C 11.347656 4.121094 8.828125 0.960938 8.800781 0.929688 L 9.453125 0.398438 C 9.566406 0.53125 12.1875 3.78125 12.1875 8.019531 C 12.1875 12.261719 9.261719 15.105469 9.136719 15.222656 Z M 9.136719 15.222656 "/>
<path style=" stroke:none;fill-rule:nonzero;fill:rgb(37.647059%,41.960784%,50.980392%);fill-opacity:1;" d="M 7.578125 0.773438 L 8.421875 0.773438 L 8.421875 15.710938 L 7.578125 15.710938 Z M 7.578125 0.773438 "/>
</g>
</svg>
