
<svg xmlns="http://www.w3.org/2000/svg" xmlns:xlink="http://www.w3.org/1999/xlink" width="16px" height="16px" viewBox="0 0 16 16" version="1.1">
<g id="surface1">
<path style=" stroke:none;fill-rule:nonzero;fill:rgb(37.647059%,41.960784%,50.980392%);fill-opacity:1;" d="M 8.03125 5.359375 C 7.519531 5.351562 7.058594 5.65625 6.859375 6.128906 C 6.660156 6.597656 6.761719 7.144531 7.121094 7.507812 C 7.484375 7.871094 8.027344 7.984375 8.5 7.785156 C 8.972656 7.59375 9.28125 7.128906 9.28125 6.621094 C 9.277344 5.929688 8.722656 5.371094 8.03125 5.359375 Z M 8.03125 5.359375 "/>
<path style=" stroke:none;fill-rule:nonzero;fill:rgb(37.647059%,41.960784%,50.980392%);fill-opacity:1;" d="M 14.464844 0.984375 L 1.535156 0.984375 C 1.128906 0.984375 0.734375 1.148438 0.449219 1.433594 C 0.160156 1.722656 0 2.113281 0 2.523438 L 0 10.273438 C 0 11.121094 0.6875 11.808594 1.535156 11.808594 L 5.25 11.808594 C 5.671875 11.820312 6.003906 12.164062 6 12.585938 L 6 12.699219 C 6 13.121094 5.667969 13.460938 5.25 13.472656 L 3.914062 13.472656 C 3.503906 13.496094 3.1875 13.835938 3.1875 14.246094 C 3.1875 14.652344 3.503906 14.992188 3.914062 15.015625 L 12.085938 15.015625 C 12.496094 14.992188 12.8125 14.652344 12.8125 14.246094 C 12.8125 13.835938 12.496094 13.496094 12.085938 13.472656 L 10.761719 13.472656 C 10.339844 13.464844 10 13.121094 10 12.699219 L 10 12.585938 C 10 12.160156 10.347656 11.816406 10.773438 11.816406 L 14.464844 11.816406 C 15.3125 11.816406 16 11.128906 16 10.28125 L 16 2.53125 C 16.003906 2.121094 15.839844 1.726562 15.554688 1.4375 C 15.265625 1.148438 14.875 0.984375 14.464844 0.984375 Z M 11.515625 7.027344 C 11.109375 7.035156 10.746094 7.289062 10.589844 7.667969 C 10.433594 8.046875 10.515625 8.480469 10.800781 8.777344 C 10.878906 8.851562 10.929688 8.960938 10.929688 9.074219 C 10.929688 9.183594 10.878906 9.292969 10.800781 9.371094 C 10.722656 9.445312 10.617188 9.484375 10.503906 9.484375 C 10.398438 9.480469 10.296875 9.433594 10.21875 9.355469 C 9.921875 9.042969 9.457031 8.957031 9.066406 9.140625 C 8.675781 9.308594 8.433594 9.699219 8.453125 10.121094 C 8.460938 10.234375 8.417969 10.34375 8.339844 10.425781 C 8.261719 10.503906 8.152344 10.546875 8.039062 10.546875 C 7.808594 10.546875 7.664062 10.371094 7.636719 10.078125 C 7.609375 9.664062 7.347656 9.304688 6.957031 9.15625 C 6.570312 9.007812 6.132812 9.097656 5.839844 9.390625 C 5.703125 9.535156 5.484375 9.558594 5.324219 9.445312 C 5.179688 9.347656 5.121094 9.164062 5.175781 9 C 5.199219 8.933594 5.234375 8.875 5.28125 8.824219 C 5.597656 8.527344 5.683594 8.0625 5.5 7.671875 C 5.339844 7.277344 4.941406 7.03125 4.519531 7.054688 C 4.316406 7.066406 4.136719 6.925781 4.097656 6.722656 C 4.066406 6.546875 4.15625 6.371094 4.320312 6.292969 C 4.390625 6.261719 4.464844 6.246094 4.539062 6.242188 C 4.953125 6.242188 5.328125 5.984375 5.472656 5.59375 C 5.648438 5.203125 5.558594 4.75 5.25 4.457031 C 5.136719 4.355469 5.089844 4.203125 5.125 4.054688 C 5.164062 3.90625 5.277344 3.792969 5.429688 3.753906 C 5.578125 3.722656 5.730469 3.773438 5.828125 3.886719 C 6.140625 4.195312 6.613281 4.277344 7.007812 4.082031 C 7.390625 3.921875 7.632812 3.535156 7.613281 3.121094 C 7.601562 2.96875 7.675781 2.824219 7.808594 2.742188 C 7.9375 2.660156 8.097656 2.660156 8.230469 2.742188 C 8.359375 2.824219 8.433594 2.96875 8.421875 3.121094 C 8.425781 3.53125 8.675781 3.902344 9.058594 4.0625 C 9.433594 4.222656 9.875 4.140625 10.171875 3.859375 C 10.332031 3.699219 10.59375 3.699219 10.753906 3.859375 C 10.910156 4.019531 10.910156 4.28125 10.75 4.441406 C 10.445312 4.746094 10.371094 5.210938 10.558594 5.597656 L 11.5 6.214844 C 11.789062 6.230469 11.964844 6.375 11.96875 6.609375 C 11.972656 6.84375 11.800781 7 11.515625 7.027344 Z M 11.515625 7.027344 "/>
</g>
</svg>
