
<svg xmlns="http://www.w3.org/2000/svg" xmlns:xlink="http://www.w3.org/1999/xlink" width="16px" height="16px" viewBox="0 0 16 16" version="1.1">
<g id="surface1">
<path style=" stroke:none;fill-rule:nonzero;fill:rgb(37.647059%,41.960784%,50.980392%);fill-opacity:1;" d="M 8 14.421875 C 3.589844 14.421875 0 11.542969 0 8 C 0 4.457031 3.589844 1.578125 8 1.578125 C 12.410156 1.578125 16 4.457031 16 8 C 15.996094 8.953125 15.734375 9.886719 15.25 10.703125 C 15.046875 11.058594 14.683594 11.296875 14.28125 11.347656 C 13.867188 11.402344 13.449219 11.265625 13.152344 10.96875 L 12.039062 9.847656 C 11.878906 9.671875 11.628906 9.59375 11.390625 9.652344 C 11.160156 9.714844 10.972656 9.894531 10.914062 10.128906 C 10.855469 10.367188 10.933594 10.613281 11.109375 10.777344 L 11.929688 11.59375 C 12.253906 11.917969 12.390625 12.378906 12.292969 12.824219 C 12.203125 13.265625 11.894531 13.625 11.476562 13.785156 C 10.367188 14.214844 9.1875 14.429688 8 14.421875 Z M 8 2.941406 C 4.339844 2.941406 1.363281 5.210938 1.363281 8 C 1.363281 10.789062 4.339844 13.058594 8 13.058594 C 9.019531 13.066406 10.03125 12.878906 10.984375 12.515625 L 10.148438 11.75 C 9.355469 10.964844 9.351562 9.683594 10.140625 8.890625 C 10.929688 8.097656 12.210938 8.097656 13 8.886719 L 14.121094 10 C 14.453125 9.386719 14.628906 8.699219 14.636719 8 C 14.636719 5.210938 11.660156 2.941406 8 2.941406 Z M 8 2.941406 "/>
<path style=" stroke:none;fill-rule:nonzero;fill:rgb(37.647059%,41.960784%,50.980392%);fill-opacity:1;" d="M 7.984375 6.515625 C 7.984375 5.574219 7.050781 4.8125 5.902344 4.8125 C 4.75 4.8125 3.816406 5.574219 3.816406 6.515625 C 3.816406 7.453125 4.75 8.21875 5.902344 8.21875 C 7.050781 8.21875 7.984375 7.453125 7.984375 6.515625 Z M 7.984375 6.515625 "/>
<path style=" stroke:none;fill-rule:nonzero;fill:rgb(37.647059%,41.960784%,50.980392%);fill-opacity:1;" d="M 7.511719 10.058594 C 7.511719 9.382812 6.777344 8.835938 5.871094 8.835938 C 4.964844 8.835938 4.234375 9.382812 4.234375 10.058594 C 4.234375 10.734375 4.964844 11.28125 5.871094 11.28125 C 6.777344 11.28125 7.511719 10.734375 7.511719 10.058594 Z M 7.511719 10.058594 "/>
</g>
</svg>
