
<svg xmlns="http://www.w3.org/2000/svg" xmlns:xlink="http://www.w3.org/1999/xlink" width="16px" height="16px" viewBox="0 0 16 16" version="1.1">
<g id="surface1">
<path style=" stroke:none;fill-rule:nonzero;fill:rgb(37.647059%,41.960784%,50.980392%);fill-opacity:1;" d="M 11.757812 3.4375 L 11.757812 12.867188 L 12.1875 13.613281 L 13.566406 16 L 14.945312 13.613281 L 15.375 12.867188 L 15.375 3.4375 Z M 11.757812 3.4375 "/>
<path style=" stroke:none;fill-rule:nonzero;fill:rgb(37.647059%,41.960784%,50.980392%);fill-opacity:1;" d="M 15.375 2.59375 L 11.75 2.59375 L 11.75 1.285156 C 11.75 0.941406 11.886719 0.613281 12.128906 0.375 C 12.371094 0.132812 12.699219 -0.00390625 13.042969 0 L 14.089844 0 C 14.800781 0 15.375 0.574219 15.375 1.285156 Z M 15.375 2.59375 "/>
<path style=" stroke:none;fill-rule:nonzero;fill:rgb(37.647059%,41.960784%,50.980392%);fill-opacity:1;" d="M 11.953125 16 L 2.925781 16 C 1.65625 16 0.625 14.96875 0.625 13.699219 L 0.625 2.300781 C 0.625 1.03125 1.65625 0 2.925781 0 L 10.359375 0 L 10.359375 0.851562 L 2.925781 0.851562 C 2.125 0.851562 1.476562 1.5 1.476562 2.300781 L 1.476562 13.699219 C 1.476562 14.5 2.125 15.148438 2.925781 15.148438 L 11.953125 15.148438 Z M 11.953125 16 "/>
<path style=" stroke:none;fill-rule:nonzero;fill:rgb(37.647059%,41.960784%,50.980392%);fill-opacity:1;" d="M 3.699219 2.355469 L 9.585938 2.355469 C 9.984375 2.355469 10.304688 2.675781 10.304688 3.074219 L 10.304688 4.097656 C 10.304688 4.492188 9.984375 4.816406 9.585938 4.816406 L 3.699219 4.816406 C 3.304688 4.816406 2.984375 4.492188 2.984375 4.097656 L 2.984375 3.074219 C 2.984375 2.675781 3.304688 2.355469 3.699219 2.355469 Z M 3.699219 2.355469 "/>
<path style=" stroke:none;fill-rule:nonzero;fill:rgb(37.647059%,41.960784%,50.980392%);fill-opacity:1;" d="M 3.492188 6.097656 L 4.347656 6.097656 C 4.652344 6.097656 4.902344 6.347656 4.902344 6.652344 L 4.902344 7.507812 C 4.902344 7.8125 4.652344 8.0625 4.347656 8.0625 L 3.492188 8.0625 C 3.1875 8.0625 2.9375 7.8125 2.9375 7.507812 L 2.9375 6.652344 C 2.9375 6.347656 3.1875 6.097656 3.492188 6.097656 Z M 3.492188 6.097656 "/>
<path style=" stroke:none;fill-rule:nonzero;fill:rgb(37.647059%,41.960784%,50.980392%);fill-opacity:1;" d="M 6.214844 6.097656 L 7.070312 6.097656 C 7.375 6.097656 7.625 6.347656 7.625 6.652344 L 7.625 7.507812 C 7.625 7.8125 7.375 8.0625 7.070312 8.0625 L 6.214844 8.0625 C 5.910156 8.0625 5.660156 7.8125 5.660156 7.507812 L 5.660156 6.652344 C 5.660156 6.347656 5.910156 6.097656 6.214844 6.097656 Z M 6.214844 6.097656 "/>
<path style=" stroke:none;fill-rule:nonzero;fill:rgb(37.647059%,41.960784%,50.980392%);fill-opacity:1;" d="M 8.941406 6.097656 L 9.796875 6.097656 C 10.101562 6.097656 10.351562 6.347656 10.351562 6.652344 L 10.351562 7.507812 C 10.351562 7.8125 10.101562 8.0625 9.796875 8.0625 L 8.941406 8.0625 C 8.632812 8.0625 8.386719 7.8125 8.386719 7.507812 L 8.386719 6.652344 C 8.386719 6.347656 8.632812 6.097656 8.941406 6.097656 Z M 8.941406 6.097656 "/>
<path style=" stroke:none;fill-rule:nonzero;fill:rgb(37.647059%,41.960784%,50.980392%);fill-opacity:1;" d="M 3.492188 8.886719 L 4.347656 8.886719 C 4.652344 8.886719 4.902344 9.132812 4.902344 9.441406 L 4.902344 10.296875 C 4.902344 10.601562 4.652344 10.851562 4.347656 10.851562 L 3.492188 10.851562 C 3.1875 10.851562 2.9375 10.601562 2.9375 10.296875 L 2.9375 9.441406 C 2.9375 9.132812 3.1875 8.886719 3.492188 8.886719 Z M 3.492188 8.886719 "/>
<path style=" stroke:none;fill-rule:nonzero;fill:rgb(37.647059%,41.960784%,50.980392%);fill-opacity:1;" d="M 6.214844 8.886719 L 7.070312 8.886719 C 7.375 8.886719 7.625 9.132812 7.625 9.441406 L 7.625 10.296875 C 7.625 10.601562 7.375 10.851562 7.070312 10.851562 L 6.214844 10.851562 C 5.910156 10.851562 5.660156 10.601562 5.660156 10.296875 L 5.660156 9.441406 C 5.660156 9.132812 5.910156 8.886719 6.214844 8.886719 Z M 6.214844 8.886719 "/>
<path style=" stroke:none;fill-rule:nonzero;fill:rgb(37.647059%,41.960784%,50.980392%);fill-opacity:1;" d="M 8.941406 8.886719 L 9.796875 8.886719 C 10.101562 8.886719 10.351562 9.132812 10.351562 9.441406 L 10.351562 10.296875 C 10.351562 10.601562 10.101562 10.851562 9.796875 10.851562 L 8.941406 10.851562 C 8.632812 10.851562 8.386719 10.601562 8.386719 10.296875 L 8.386719 9.441406 C 8.386719 9.132812 8.632812 8.886719 8.941406 8.886719 Z M 8.941406 8.886719 "/>
<path style=" stroke:none;fill-rule:nonzero;fill:rgb(37.647059%,41.960784%,50.980392%);fill-opacity:1;" d="M 3.492188 11.671875 L 4.347656 11.671875 C 4.652344 11.671875 4.902344 11.921875 4.902344 12.226562 L 4.902344 13.082031 C 4.902344 13.390625 4.652344 13.636719 4.347656 13.636719 L 3.492188 13.636719 C 3.1875 13.636719 2.9375 13.390625 2.9375 13.082031 L 2.9375 12.226562 C 2.9375 11.921875 3.1875 11.671875 3.492188 11.671875 Z M 3.492188 11.671875 "/>
<path style=" stroke:none;fill-rule:nonzero;fill:rgb(37.647059%,41.960784%,50.980392%);fill-opacity:1;" d="M 6.214844 11.671875 L 7.070312 11.671875 C 7.375 11.671875 7.625 11.921875 7.625 12.226562 L 7.625 13.082031 C 7.625 13.390625 7.375 13.636719 7.070312 13.636719 L 6.214844 13.636719 C 5.910156 13.636719 5.660156 13.390625 5.660156 13.082031 L 5.660156 12.226562 C 5.660156 11.921875 5.910156 11.671875 6.214844 11.671875 Z M 6.214844 11.671875 "/>
<path style=" stroke:none;fill-rule:nonzero;fill:rgb(37.647059%,41.960784%,50.980392%);fill-opacity:1;" d="M 8.941406 11.671875 L 9.796875 11.671875 C 10.101562 11.671875 10.351562 11.921875 10.351562 12.226562 L 10.351562 13.082031 C 10.351562 13.390625 10.101562 13.636719 9.796875 13.636719 L 8.941406 13.636719 C 8.632812 13.636719 8.386719 13.390625 8.386719 13.082031 L 8.386719 12.226562 C 8.386719 11.921875 8.632812 11.671875 8.941406 11.671875 Z M 8.941406 11.671875 "/>
</g>
</svg>
