
<svg xmlns="http://www.w3.org/2000/svg" xmlns:xlink="http://www.w3.org/1999/xlink" width="16px" height="16px" viewBox="0 0 16 16" version="1.1">
<g id="surface1">
<path style=" stroke:none;fill-rule:nonzero;fill:rgb(37.647059%,41.960784%,50.980392%);fill-opacity:1;" d="M 15.84375 3.542969 C 15.835938 3.347656 15.714844 3.175781 15.535156 3.101562 L 8.160156 0.0625 C 8.035156 0.0078125 7.894531 0.0078125 7.765625 0.0625 L 0.390625 3.101562 C 0.199219 3.175781 0.0703125 3.367188 0.0742188 3.574219 C 0.0742188 3.589844 0.0742188 3.601562 0.0742188 3.617188 C 0.0234375 3.699219 0 3.792969 0 3.890625 L 0 12.421875 C -0.00390625 12.628906 0.125 12.820312 0.316406 12.894531 L 7.671875 15.9375 C 7.734375 15.964844 7.800781 15.976562 7.871094 15.976562 C 7.914062 15.96875 7.957031 15.957031 8 15.9375 C 8.042969 15.957031 8.085938 15.96875 8.128906 15.976562 C 8.199219 15.976562 8.265625 15.964844 8.328125 15.9375 L 15.683594 12.894531 C 15.875 12.820312 16.003906 12.628906 16 12.421875 L 16 3.890625 C 15.996094 3.757812 15.9375 3.632812 15.84375 3.542969 Z M 7.355469 14.695312 L 1.027344 12.078125 L 1.027344 4.65625 L 7.355469 7.273438 Z M 14.972656 12.078125 L 8.644531 14.695312 L 8.644531 7.273438 L 14.972656 4.65625 Z M 14.972656 12.078125 "/>
</g>
</svg>
