
<svg xmlns="http://www.w3.org/2000/svg" xmlns:xlink="http://www.w3.org/1999/xlink" width="16px" height="16px" viewBox="0 0 16 16" version="1.1">
<g id="surface1">
<path style=" stroke:none;fill-rule:nonzero;fill:rgb(37.647059%,41.960784%,50.980392%);fill-opacity:1;" d="M 15.164062 14.328125 L 13.75 14.328125 L 13.75 3.886719 C 13.75 3.296875 13.273438 2.824219 12.6875 2.824219 L 12.46875 2.824219 C 12.1875 2.824219 11.914062 2.933594 11.71875 3.132812 C 11.519531 3.332031 11.40625 3.601562 11.40625 3.886719 L 11.40625 14.328125 L 10 14.328125 L 10 7.441406 C 10 6.855469 9.527344 6.378906 8.941406 6.378906 L 8.71875 6.378906 C 8.132812 6.378906 7.65625 6.855469 7.65625 7.441406 L 7.65625 14.328125 L 6.25 14.328125 L 6.25 10.367188 C 6.25 10.085938 6.136719 9.816406 5.9375 9.617188 C 5.738281 9.417969 5.46875 9.308594 5.1875 9.308594 L 4.96875 9.308594 C 4.382812 9.308594 3.90625 9.78125 3.90625 10.367188 L 3.90625 14.328125 L 2.039062 14.328125 C 1.835938 14.328125 1.671875 14.164062 1.671875 13.960938 L 1.671875 0.835938 C 1.6875 0.527344 1.535156 0.234375 1.269531 0.0742188 C 1.003906 -0.0859375 0.671875 -0.0859375 0.40625 0.0742188 C 0.136719 0.234375 -0.015625 0.527344 0 0.835938 L 0 13.960938 C 0 15.085938 0.914062 16 2.039062 16 L 15.164062 16 C 15.472656 16.015625 15.765625 15.863281 15.925781 15.59375 C 16.085938 15.328125 16.085938 14.996094 15.925781 14.730469 C 15.765625 14.464844 15.472656 14.3125 15.164062 14.328125 Z M 15.164062 14.328125 "/>
</g>
</svg>
