
<svg xmlns="http://www.w3.org/2000/svg" xmlns:xlink="http://www.w3.org/1999/xlink" width="16px" height="16px" viewBox="0 0 16 16" version="1.1">
<g id="surface1">
<path style=" stroke:none;fill-rule:nonzero;fill:rgb(37.647059%,41.960784%,50.980392%);fill-opacity:1;" d="M 8.390625 16 L 7.75 16 C 6.78125 15.730469 6.164062 15.148438 6.082031 14.101562 C 6.058594 13.851562 6.003906 13.636719 5.742188 13.535156 C 5.480469 13.433594 5.300781 13.566406 5.109375 13.730469 C 4.328125 14.453125 3.113281 14.421875 2.367188 13.664062 C 1.621094 12.910156 1.605469 11.695312 2.335938 10.921875 C 2.496094 10.742188 2.625 10.574219 2.515625 10.324219 C 2.40625 10.074219 2.179688 10.03125 1.925781 10.023438 C 1.097656 10.007812 0.371094 9.46875 0.109375 8.683594 C 0.0742188 8.585938 0.0390625 8.5 0 8.390625 L 0 7.75 C 0.273438 6.765625 0.871094 6.148438 1.933594 6.078125 C 2.160156 6.097656 2.375 5.964844 2.460938 5.75 C 2.535156 5.53125 2.46875 5.292969 2.292969 5.144531 C 1.523438 4.371094 1.527344 3.117188 2.300781 2.347656 C 3.074219 1.578125 4.328125 1.582031 5.097656 2.355469 C 5.257812 2.546875 5.527344 2.605469 5.75 2.5 C 6 2.390625 6.03125 2.179688 6.042969 1.949219 C 6.042969 1.042969 6.675781 0.257812 7.558594 0.0585938 C 7.601562 0.0429688 7.640625 0.0234375 7.679688 0 L 8.320312 0 C 8.347656 0.0195312 8.375 0.0390625 8.40625 0.0507812 C 9.386719 0.320312 9.882812 0.933594 9.980469 1.949219 C 10 2.152344 10.113281 2.339844 10.285156 2.449219 C 10.484375 2.484375 10.6875 2.425781 10.84375 2.296875 C 11.707031 1.585938 12.84375 1.59375 13.605469 2.34375 C 14.347656 3.105469 14.363281 4.3125 13.644531 5.09375 C 13.460938 5.253906 13.402344 5.511719 13.5 5.734375 C 13.605469 5.984375 13.816406 6.027344 14.050781 6.03125 C 14.53125 6 15 6.191406 15.328125 6.542969 C 15.582031 6.902344 15.808594 7.285156 16 7.679688 L 16 8.320312 C 15.695312 9.34375 15.0625 9.957031 13.941406 9.988281 C 13.773438 10.015625 13.625 10.125 13.550781 10.28125 C 13.53125 10.480469 13.585938 10.683594 13.710938 10.84375 C 14.417969 11.703125 14.414062 12.855469 13.664062 13.613281 C 12.890625 14.347656 11.683594 14.367188 10.890625 13.65625 C 10.738281 13.523438 10.535156 13.46875 10.339844 13.503906 C 10.171875 13.632812 10.0625 13.824219 10.042969 14.035156 C 10 14.535156 9.886719 15 9.519531 15.316406 C 9.164062 15.578125 8.785156 15.808594 8.390625 16 Z M 8.035156 14.710938 C 8.226562 14.71875 8.410156 14.648438 8.546875 14.511719 C 8.683594 14.375 8.757812 14.191406 8.75 14 C 8.769531 13.230469 9.085938 12.644531 9.796875 12.332031 C 10.457031 12.011719 11.242188 12.15625 11.75 12.683594 C 12.027344 12.949219 12.46875 12.945312 12.738281 12.667969 C 13.003906 12.394531 13 11.949219 12.722656 11.683594 C 12.207031 11.175781 12.066406 10.40625 12.363281 9.75 C 12.652344 9.054688 13.214844 8.734375 13.949219 8.683594 C 14.429688 8.648438 14.722656 8.378906 14.710938 7.976562 C 14.703125 7.578125 14.410156 7.328125 13.917969 7.300781 C 13.21875 7.316406 12.585938 6.902344 12.320312 6.253906 C 12.003906 5.59375 12.132812 4.800781 12.648438 4.277344 C 12.972656 3.917969 12.980469 3.527344 12.691406 3.234375 C 12.402344 2.941406 12.019531 2.984375 11.675781 3.28125 C 11.175781 3.78125 10.417969 3.921875 9.769531 3.636719 C 9.058594 3.34375 8.734375 2.773438 8.691406 2.023438 C 8.664062 1.570312 8.390625 1.273438 8 1.273438 C 7.808594 1.277344 7.625 1.359375 7.496094 1.503906 C 7.363281 1.644531 7.300781 1.832031 7.3125 2.023438 C 7.285156 2.773438 6.976562 3.363281 6.273438 3.664062 C 5.605469 3.992188 4.800781 3.855469 4.273438 3.332031 C 4.007812 3.058594 3.566406 3.050781 3.289062 3.316406 C 3.011719 3.585938 3.007812 4.027344 3.273438 4.300781 C 3.792969 4.8125 3.9375 5.589844 3.636719 6.25 C 3.390625 6.914062 2.757812 7.355469 2.046875 7.355469 C 1.917969 7.355469 1.789062 7.386719 1.667969 7.441406 C 1.390625 7.574219 1.234375 7.878906 1.296875 8.179688 C 1.355469 8.527344 1.664062 8.769531 2.015625 8.75 C 2.78125 8.769531 3.371094 9.085938 3.683594 9.800781 C 3.996094 10.460938 3.847656 11.246094 3.316406 11.75 C 3.234375 11.835938 3.175781 11.9375 3.136719 12.050781 C 3.035156 12.339844 3.144531 12.664062 3.40625 12.832031 C 3.679688 13.019531 4.050781 12.980469 4.28125 12.738281 C 4.71875 12.289062 5.367188 12.105469 5.976562 12.265625 C 6.761719 12.429688 7.328125 13.109375 7.351562 13.910156 C 7.394531 14.417969 7.640625 14.703125 8.035156 14.710938 Z M 8.035156 14.710938 "/>
<path style=" stroke:none;fill-rule:nonzero;fill:rgb(37.647059%,41.960784%,50.980392%);fill-opacity:1;" d="M 8 10.652344 C 6.535156 10.652344 5.347656 9.464844 5.347656 8 C 5.347656 6.535156 6.535156 5.347656 8 5.347656 C 9.464844 5.347656 10.652344 6.535156 10.652344 8 C 10.640625 9.460938 9.460938 10.640625 8 10.652344 Z M 9.367188 8 C 9.363281 7.445312 9.027344 6.949219 8.515625 6.738281 C 8 6.527344 7.414062 6.652344 7.023438 7.046875 C 6.636719 7.441406 6.523438 8.035156 6.742188 8.542969 C 6.960938 9.054688 7.464844 9.378906 8.019531 9.371094 C 8.765625 9.347656 9.359375 8.746094 9.367188 8 Z M 9.367188 8 "/>
</g>
</svg>
