
<svg xmlns="http://www.w3.org/2000/svg" xmlns:xlink="http://www.w3.org/1999/xlink" width="16px" height="16px" viewBox="0 0 16 16" version="1.1">
<g id="surface1">
<path style=" stroke:none;fill-rule:nonzero;fill:rgb(36.078431%,41.960784%,75.294118%);fill-opacity:1;" d="M 1.347656 0 L 14.652344 0 C 15.394531 0 16 0.605469 16 1.347656 L 16 14.652344 C 16 15.394531 15.394531 16 14.652344 16 L 1.347656 16 C 0.605469 16 0 15.394531 0 14.652344 L 0 1.347656 C 0 0.605469 0.605469 0 1.347656 0 Z M 1.347656 0 "/>
<path style=" stroke:none;fill-rule:nonzero;fill:rgb(100%,100%,100%);fill-opacity:1;" d="M 8.78125 8 L 10.636719 6.144531 C 10.785156 5.996094 10.785156 5.75 10.636719 5.601562 L 8.457031 3.417969 C 8.34375 3.308594 8.179688 3.277344 8.035156 3.335938 C 7.890625 3.394531 7.796875 3.535156 7.792969 3.691406 L 7.792969 7.011719 L 5.929688 5.148438 C 5.777344 4.996094 5.535156 4.996094 5.386719 5.148438 C 5.234375 5.296875 5.234375 5.542969 5.386719 5.691406 L 7.691406 8 L 5.363281 10.328125 C 5.230469 10.480469 5.238281 10.710938 5.382812 10.851562 C 5.523438 10.996094 5.753906 11.003906 5.90625 10.875 L 7.792969 9 L 7.792969 12.308594 C 7.796875 12.46875 7.894531 12.609375 8.042969 12.664062 C 8.089844 12.683594 8.140625 12.695312 8.191406 12.695312 C 8.292969 12.695312 8.390625 12.652344 8.464844 12.582031 L 10.648438 10.398438 C 10.796875 10.25 10.796875 10.003906 10.648438 9.855469 Z M 8.566406 4.621094 L 9.816406 5.871094 L 8.566406 7.121094 Z M 8.566406 11.371094 L 8.566406 8.871094 L 9.816406 10.121094 Z M 8.566406 11.371094 "/>
</g>
</svg>
