
<svg xmlns="http://www.w3.org/2000/svg" xmlns:xlink="http://www.w3.org/1999/xlink" width="16px" height="16px" viewBox="0 0 16 16" version="1.1">
<defs>
<clipPath id="clip1">
  <path d="M 3.332031 0 L 7.5 0 L 7.5 2.832031 L 3.332031 2.832031 Z M 3.332031 0 "/>
</clipPath>
<clipPath id="clip2">
  <path d="M 1.347656 0 L 14.652344 0 C 15.394531 0 16 0.605469 16 1.347656 L 16 14.652344 C 16 15.394531 15.394531 16 14.652344 16 L 1.347656 16 C 0.605469 16 0 15.394531 0 14.652344 L 0 1.347656 C 0 0.605469 0.605469 0 1.347656 0 Z M 1.347656 0 "/>
</clipPath>
<clipPath id="clip3">
  <path d="M 0 0 L 0.332031 0 L 0.332031 2 L 0 2 Z M 0 0 "/>
</clipPath>
<clipPath id="clip4">
  <path d="M 1.347656 0 L 14.652344 0 C 15.394531 0 16 0.605469 16 1.347656 L 16 14.652344 C 16 15.394531 15.394531 16 14.652344 16 L 1.347656 16 C 0.605469 16 0 15.394531 0 14.652344 L 0 1.347656 C 0 0.605469 0.605469 0 1.347656 0 Z M 1.347656 0 "/>
</clipPath>
<clipPath id="clip5">
  <path d="M 0 0 L 4 0 L 4 2.332031 L 0 2.332031 Z M 0 0 "/>
</clipPath>
<clipPath id="clip6">
  <path d="M 1.347656 0 L 14.652344 0 C 15.394531 0 16 0.605469 16 1.347656 L 16 14.652344 C 16 15.394531 15.394531 16 14.652344 16 L 1.347656 16 C 0.605469 16 0 15.394531 0 14.652344 L 0 1.347656 C 0 0.605469 0.605469 0 1.347656 0 Z M 1.347656 0 "/>
</clipPath>
<clipPath id="clip7">
  <path d="M 8.667969 13.832031 L 12.832031 13.832031 L 12.832031 16 L 8.667969 16 Z M 8.667969 13.832031 "/>
</clipPath>
<clipPath id="clip8">
  <path d="M 1.347656 0 L 14.652344 0 C 15.394531 0 16 0.605469 16 1.347656 L 16 14.652344 C 16 15.394531 15.394531 16 14.652344 16 L 1.347656 16 C 0.605469 16 0 15.394531 0 14.652344 L 0 1.347656 C 0 0.605469 0.605469 0 1.347656 0 Z M 1.347656 0 "/>
</clipPath>
<clipPath id="clip9">
  <path d="M 12.332031 14 L 16 14 L 16 16 L 12.332031 16 Z M 12.332031 14 "/>
</clipPath>
<clipPath id="clip10">
  <path d="M 1.347656 0 L 14.652344 0 C 15.394531 0 16 0.605469 16 1.347656 L 16 14.652344 C 16 15.394531 15.394531 16 14.652344 16 L 1.347656 16 C 0.605469 16 0 15.394531 0 14.652344 L 0 1.347656 C 0 0.605469 0.605469 0 1.347656 0 Z M 1.347656 0 "/>
</clipPath>
<clipPath id="clip11">
  <path d="M 12.667969 10.5 L 16 10.5 L 16 14.667969 L 12.667969 14.667969 Z M 12.667969 10.5 "/>
</clipPath>
<clipPath id="clip12">
  <path d="M 1.347656 0 L 14.652344 0 C 15.394531 0 16 0.605469 16 1.347656 L 16 14.652344 C 16 15.394531 15.394531 16 14.652344 16 L 1.347656 16 C 0.605469 16 0 15.394531 0 14.652344 L 0 1.347656 C 0 0.605469 0.605469 0 1.347656 0 Z M 1.347656 0 "/>
</clipPath>
<clipPath id="clip13">
  <path d="M 1.667969 12.832031 L 5.832031 12.832031 L 5.832031 16 L 1.667969 16 Z M 1.667969 12.832031 "/>
</clipPath>
<clipPath id="clip14">
  <path d="M 1.347656 0 L 14.652344 0 C 15.394531 0 16 0.605469 16 1.347656 L 16 14.652344 C 16 15.394531 15.394531 16 14.652344 16 L 1.347656 16 C 0.605469 16 0 15.394531 0 14.652344 L 0 1.347656 C 0 0.605469 0.605469 0 1.347656 0 Z M 1.347656 0 "/>
</clipPath>
<clipPath id="clip15">
  <path d="M 5.167969 13.332031 L 9.332031 13.332031 L 9.332031 16 L 5.167969 16 Z M 5.167969 13.332031 "/>
</clipPath>
<clipPath id="clip16">
  <path d="M 1.347656 0 L 14.652344 0 C 15.394531 0 16 0.605469 16 1.347656 L 16 14.652344 C 16 15.394531 15.394531 16 14.652344 16 L 1.347656 16 C 0.605469 16 0 15.394531 0 14.652344 L 0 1.347656 C 0 0.605469 0.605469 0 1.347656 0 Z M 1.347656 0 "/>
</clipPath>
<clipPath id="clip17">
  <path d="M 0 12.5 L 2.332031 12.5 L 2.332031 16 L 0 16 Z M 0 12.5 "/>
</clipPath>
<clipPath id="clip18">
  <path d="M 1.347656 0 L 14.652344 0 C 15.394531 0 16 0.605469 16 1.347656 L 16 14.652344 C 16 15.394531 15.394531 16 14.652344 16 L 1.347656 16 C 0.605469 16 0 15.394531 0 14.652344 L 0 1.347656 C 0 0.605469 0.605469 0 1.347656 0 Z M 1.347656 0 "/>
</clipPath>
<clipPath id="clip19">
  <path d="M 6.832031 0 L 11 0 L 11 3.167969 L 6.832031 3.167969 Z M 6.832031 0 "/>
</clipPath>
<clipPath id="clip20">
  <path d="M 1.347656 0 L 14.652344 0 C 15.394531 0 16 0.605469 16 1.347656 L 16 14.652344 C 16 15.394531 15.394531 16 14.652344 16 L 1.347656 16 C 0.605469 16 0 15.394531 0 14.652344 L 0 1.347656 C 0 0.605469 0.605469 0 1.347656 0 Z M 1.347656 0 "/>
</clipPath>
<clipPath id="clip21">
  <path d="M 3 2.167969 L 7 2.167969 L 7 6.332031 L 3 6.332031 Z M 3 2.167969 "/>
</clipPath>
<clipPath id="clip22">
  <path d="M 1.347656 0 L 14.652344 0 C 15.394531 0 16 0.605469 16 1.347656 L 16 14.652344 C 16 15.394531 15.394531 16 14.652344 16 L 1.347656 16 C 0.605469 16 0 15.394531 0 14.652344 L 0 1.347656 C 0 0.605469 0.605469 0 1.347656 0 Z M 1.347656 0 "/>
</clipPath>
<clipPath id="clip23">
  <path d="M 6.5 2.667969 L 10.667969 2.667969 L 10.667969 6.832031 L 6.5 6.832031 Z M 6.5 2.667969 "/>
</clipPath>
<clipPath id="clip24">
  <path d="M 1.347656 0 L 14.652344 0 C 15.394531 0 16 0.605469 16 1.347656 L 16 14.652344 C 16 15.394531 15.394531 16 14.652344 16 L 1.347656 16 C 0.605469 16 0 15.394531 0 14.652344 L 0 1.347656 C 0 0.605469 0.605469 0 1.347656 0 Z M 1.347656 0 "/>
</clipPath>
<clipPath id="clip25">
  <path d="M 0 5.332031 L 3.167969 5.332031 L 3.167969 9.5 L 0 9.5 Z M 0 5.332031 "/>
</clipPath>
<clipPath id="clip26">
  <path d="M 1.347656 0 L 14.652344 0 C 15.394531 0 16 0.605469 16 1.347656 L 16 14.652344 C 16 15.394531 15.394531 16 14.652344 16 L 1.347656 16 C 0.605469 16 0 15.394531 0 14.652344 L 0 1.347656 C 0 0.605469 0.605469 0 1.347656 0 Z M 1.347656 0 "/>
</clipPath>
<clipPath id="clip27">
  <path d="M 13.167969 7 L 16 7 L 16 11.167969 L 13.167969 11.167969 Z M 13.167969 7 "/>
</clipPath>
<clipPath id="clip28">
  <path d="M 1.347656 0 L 14.652344 0 C 15.394531 0 16 0.605469 16 1.347656 L 16 14.652344 C 16 15.394531 15.394531 16 14.652344 16 L 1.347656 16 C 0.605469 16 0 15.394531 0 14.652344 L 0 1.347656 C 0 0.605469 0.605469 0 1.347656 0 Z M 1.347656 0 "/>
</clipPath>
<clipPath id="clip29">
  <path d="M 2.5 5.832031 L 6.667969 5.832031 L 6.667969 9.832031 L 2.5 9.832031 Z M 2.5 5.832031 "/>
</clipPath>
<clipPath id="clip30">
  <path d="M 1.347656 0 L 14.652344 0 C 15.394531 0 16 0.605469 16 1.347656 L 16 14.652344 C 16 15.394531 15.394531 16 14.652344 16 L 1.347656 16 C 0.605469 16 0 15.394531 0 14.652344 L 0 1.347656 C 0 0.605469 0.605469 0 1.347656 0 Z M 1.347656 0 "/>
</clipPath>
<clipPath id="clip31">
  <path d="M 6 6.167969 L 10.167969 6.167969 L 10.167969 10.332031 L 6 10.332031 Z M 6 6.167969 "/>
</clipPath>
<clipPath id="clip32">
  <path d="M 1.347656 0 L 14.652344 0 C 15.394531 0 16 0.605469 16 1.347656 L 16 14.652344 C 16 15.394531 15.394531 16 14.652344 16 L 1.347656 16 C 0.605469 16 0 15.394531 0 14.652344 L 0 1.347656 C 0 0.605469 0.605469 0 1.347656 0 Z M 1.347656 0 "/>
</clipPath>
<clipPath id="clip33">
  <path d="M 0 1.832031 L 3.5 1.832031 L 3.5 6 L 0 6 Z M 0 1.832031 "/>
</clipPath>
<clipPath id="clip34">
  <path d="M 1.347656 0 L 14.652344 0 C 15.394531 0 16 0.605469 16 1.347656 L 16 14.652344 C 16 15.394531 15.394531 16 14.652344 16 L 1.347656 16 C 0.605469 16 0 15.394531 0 14.652344 L 0 1.347656 C 0 0.605469 0.605469 0 1.347656 0 Z M 1.347656 0 "/>
</clipPath>
<clipPath id="clip35">
  <path d="M 10 3 L 14.167969 3 L 14.167969 7.167969 L 10 7.167969 Z M 10 3 "/>
</clipPath>
<clipPath id="clip36">
  <path d="M 1.347656 0 L 14.652344 0 C 15.394531 0 16 0.605469 16 1.347656 L 16 14.652344 C 16 15.394531 15.394531 16 14.652344 16 L 1.347656 16 C 0.605469 16 0 15.394531 0 14.652344 L 0 1.347656 C 0 0.605469 0.605469 0 1.347656 0 Z M 1.347656 0 "/>
</clipPath>
<clipPath id="clip37">
  <path d="M 10.5 0 L 14.5 0 L 14.5 3.667969 L 10.5 3.667969 Z M 10.5 0 "/>
</clipPath>
<clipPath id="clip38">
  <path d="M 1.347656 0 L 14.652344 0 C 15.394531 0 16 0.605469 16 1.347656 L 16 14.652344 C 16 15.394531 15.394531 16 14.652344 16 L 1.347656 16 C 0.605469 16 0 15.394531 0 14.652344 L 0 1.347656 C 0 0.605469 0.605469 0 1.347656 0 Z M 1.347656 0 "/>
</clipPath>
<clipPath id="clip39">
  <path d="M 0 8.832031 L 2.667969 8.832031 L 2.667969 13 L 0 13 Z M 0 8.832031 "/>
</clipPath>
<clipPath id="clip40">
  <path d="M 1.347656 0 L 14.652344 0 C 15.394531 0 16 0.605469 16 1.347656 L 16 14.652344 C 16 15.394531 15.394531 16 14.652344 16 L 1.347656 16 C 0.605469 16 0 15.394531 0 14.652344 L 0 1.347656 C 0 0.605469 0.605469 0 1.347656 0 Z M 1.347656 0 "/>
</clipPath>
<clipPath id="clip41">
  <path d="M 9.667969 6.667969 L 13.667969 6.667969 L 13.667969 10.667969 L 9.667969 10.667969 Z M 9.667969 6.667969 "/>
</clipPath>
<clipPath id="clip42">
  <path d="M 1.347656 0 L 14.652344 0 C 15.394531 0 16 0.605469 16 1.347656 L 16 14.652344 C 16 15.394531 15.394531 16 14.652344 16 L 1.347656 16 C 0.605469 16 0 15.394531 0 14.652344 L 0 1.347656 C 0 0.605469 0.605469 0 1.347656 0 Z M 1.347656 0 "/>
</clipPath>
<clipPath id="clip43">
  <path d="M 2.167969 9.332031 L 6.167969 9.332031 L 6.167969 13.5 L 2.167969 13.5 Z M 2.167969 9.332031 "/>
</clipPath>
<clipPath id="clip44">
  <path d="M 1.347656 0 L 14.652344 0 C 15.394531 0 16 0.605469 16 1.347656 L 16 14.652344 C 16 15.394531 15.394531 16 14.652344 16 L 1.347656 16 C 0.605469 16 0 15.394531 0 14.652344 L 0 1.347656 C 0 0.605469 0.605469 0 1.347656 0 Z M 1.347656 0 "/>
</clipPath>
<clipPath id="clip45">
  <path d="M 9.167969 10.167969 L 13.332031 10.167969 L 13.332031 14.167969 L 9.167969 14.167969 Z M 9.167969 10.167969 "/>
</clipPath>
<clipPath id="clip46">
  <path d="M 1.347656 0 L 14.652344 0 C 15.394531 0 16 0.605469 16 1.347656 L 16 14.652344 C 16 15.394531 15.394531 16 14.652344 16 L 1.347656 16 C 0.605469 16 0 15.394531 0 14.652344 L 0 1.347656 C 0 0.605469 0.605469 0 1.347656 0 Z M 1.347656 0 "/>
</clipPath>
<clipPath id="clip47">
  <path d="M 5.667969 9.832031 L 9.832031 9.832031 L 9.832031 13.832031 L 5.667969 13.832031 Z M 5.667969 9.832031 "/>
</clipPath>
<clipPath id="clip48">
  <path d="M 1.347656 0 L 14.652344 0 C 15.394531 0 16 0.605469 16 1.347656 L 16 14.652344 C 16 15.394531 15.394531 16 14.652344 16 L 1.347656 16 C 0.605469 16 0 15.394531 0 14.652344 L 0 1.347656 C 0 0.605469 0.605469 0 1.347656 0 Z M 1.347656 0 "/>
</clipPath>
<clipPath id="clip49">
  <path d="M 13.5 3.5 L 16 3.5 L 16 7.667969 L 13.5 7.667969 Z M 13.5 3.5 "/>
</clipPath>
<clipPath id="clip50">
  <path d="M 1.347656 0 L 14.652344 0 C 15.394531 0 16 0.605469 16 1.347656 L 16 14.652344 C 16 15.394531 15.394531 16 14.652344 16 L 1.347656 16 C 0.605469 16 0 15.394531 0 14.652344 L 0 1.347656 C 0 0.605469 0.605469 0 1.347656 0 Z M 1.347656 0 "/>
</clipPath>
<clipPath id="clip51">
  <path d="M 14 0 L 16 0 L 16 4 L 14 4 Z M 14 0 "/>
</clipPath>
<clipPath id="clip52">
  <path d="M 1.347656 0 L 14.652344 0 C 15.394531 0 16 0.605469 16 1.347656 L 16 14.652344 C 16 15.394531 15.394531 16 14.652344 16 L 1.347656 16 C 0.605469 16 0 15.394531 0 14.652344 L 0 1.347656 C 0 0.605469 0.605469 0 1.347656 0 Z M 1.347656 0 "/>
</clipPath>
</defs>
<g id="surface1">
<g clip-path="url(#clip1)" clip-rule="nonzero">
<g clip-path="url(#clip2)" clip-rule="nonzero">
<path style=" stroke:none;fill-rule:nonzero;fill:rgb(53.333333%,32.941176%,61.960784%);fill-opacity:1;" d="M 3.433594 2.308594 L 3.851562 -1.226562 L 7.386719 -0.808594 L 6.972656 2.726562 Z M 3.433594 2.308594 "/>
</g>
</g>
<g clip-path="url(#clip3)" clip-rule="nonzero">
<g clip-path="url(#clip4)" clip-rule="nonzero">
<path style=" stroke:none;fill-rule:nonzero;fill:rgb(84.313725%,21.176471%,57.647059%);fill-opacity:1;" d="M -3.636719 1.480469 L -3.222656 -2.058594 L 0.316406 -1.640625 L -0.101562 1.894531 Z M -3.636719 1.480469 "/>
</g>
</g>
<g clip-path="url(#clip5)" clip-rule="nonzero">
<g clip-path="url(#clip6)" clip-rule="nonzero">
<path style=" stroke:none;fill-rule:nonzero;fill:rgb(47.843137%,33.333333%,60.784314%);fill-opacity:1;" d="M -0.101562 1.894531 L 0.3125 -1.640625 L 3.847656 -1.226562 L 3.433594 2.308594 Z M -0.101562 1.894531 "/>
</g>
</g>
<g clip-path="url(#clip7)" clip-rule="nonzero">
<g clip-path="url(#clip8)" clip-rule="nonzero">
<path style=" stroke:none;fill-rule:nonzero;fill:rgb(74.509804%,84.705882%,18.431373%);fill-opacity:1;" d="M 8.832031 17.363281 L 9.261719 13.839844 L 12.785156 14.265625 L 12.355469 17.792969 Z M 8.832031 17.363281 "/>
</g>
</g>
<g clip-path="url(#clip9)" clip-rule="nonzero">
<g clip-path="url(#clip10)" clip-rule="nonzero">
<path style=" stroke:none;fill-rule:nonzero;fill:rgb(93.333333%,90.588235%,15.294118%);fill-opacity:1;" d="M 12.382812 17.699219 L 12.796875 14.164062 L 16.332031 14.578125 L 15.917969 18.113281 Z M 12.382812 17.699219 "/>
</g>
</g>
<g clip-path="url(#clip11)" clip-rule="nonzero">
<g clip-path="url(#clip12)" clip-rule="nonzero">
<path style=" stroke:none;fill-rule:nonzero;fill:rgb(74.509804%,84.705882%,18.431373%);fill-opacity:1;" d="M 12.792969 14.164062 L 13.210938 10.628906 L 16.746094 11.042969 L 16.332031 14.578125 Z M 12.792969 14.164062 "/>
</g>
</g>
<g clip-path="url(#clip13)" clip-rule="nonzero">
<g clip-path="url(#clip14)" clip-rule="nonzero">
<path style=" stroke:none;fill-rule:nonzero;fill:rgb(32.54902%,74.901961%,62.352941%);fill-opacity:1;" d="M 1.777344 16.457031 L 2.191406 12.921875 L 5.726562 13.335938 L 5.3125 16.871094 Z M 1.777344 16.457031 "/>
</g>
</g>
<g clip-path="url(#clip15)" clip-rule="nonzero">
<g clip-path="url(#clip16)" clip-rule="nonzero">
<path style=" stroke:none;fill-rule:nonzero;fill:rgb(50.196078%,76.470588%,25.882353%);fill-opacity:1;" d="M 5.308594 16.875 L 5.726562 13.339844 L 9.261719 13.753906 L 8.847656 17.289062 Z M 5.308594 16.875 "/>
</g>
</g>
<g clip-path="url(#clip17)" clip-rule="nonzero">
<g clip-path="url(#clip18)" clip-rule="nonzero">
<path style=" stroke:none;fill-rule:nonzero;fill:rgb(26.27451%,76.078431%,81.960784%);fill-opacity:1;" d="M -1.757812 16.042969 L -1.34375 12.503906 L 2.191406 12.921875 L 1.777344 16.457031 Z M -1.757812 16.042969 "/>
</g>
</g>
<g clip-path="url(#clip19)" clip-rule="nonzero">
<g clip-path="url(#clip20)" clip-rule="nonzero">
<path style=" stroke:none;fill-rule:nonzero;fill:rgb(27.843137%,52.941176%,78.039216%);fill-opacity:1;" d="M 6.972656 2.722656 L 7.386719 -0.8125 L 10.925781 -0.394531 L 10.507812 3.140625 Z M 6.972656 2.722656 "/>
</g>
</g>
<g clip-path="url(#clip21)" clip-rule="nonzero">
<g clip-path="url(#clip22)" clip-rule="nonzero">
<path style=" stroke:none;fill-rule:nonzero;fill:rgb(27.843137%,52.941176%,78.039216%);fill-opacity:1;" d="M 3.019531 5.847656 L 3.433594 2.3125 L 6.972656 2.726562 L 6.554688 6.261719 Z M 3.019531 5.847656 "/>
</g>
</g>
<g clip-path="url(#clip23)" clip-rule="nonzero">
<g clip-path="url(#clip24)" clip-rule="nonzero">
<path style=" stroke:none;fill-rule:nonzero;fill:rgb(13.72549%,65.098039%,87.058824%);fill-opacity:1;" d="M 6.558594 6.265625 L 6.972656 2.730469 L 10.507812 3.144531 L 10.09375 6.679688 Z M 6.558594 6.265625 "/>
</g>
</g>
<g clip-path="url(#clip25)" clip-rule="nonzero">
<g clip-path="url(#clip26)" clip-rule="nonzero">
<path style=" stroke:none;fill-rule:nonzero;fill:rgb(21.176471%,35.686275%,66.27451%);fill-opacity:1;" d="M -0.929688 8.964844 L -0.511719 5.429688 L 3.023438 5.847656 L 2.605469 9.382812 Z M -0.929688 8.964844 "/>
</g>
</g>
<g clip-path="url(#clip27)" clip-rule="nonzero">
<g clip-path="url(#clip28)" clip-rule="nonzero">
<path style=" stroke:none;fill-rule:nonzero;fill:rgb(50.196078%,76.470588%,25.882353%);fill-opacity:1;" d="M 13.210938 10.628906 L 13.628906 7.089844 L 17.164062 7.507812 L 16.746094 11.042969 Z M 13.210938 10.628906 "/>
</g>
</g>
<g clip-path="url(#clip29)" clip-rule="nonzero">
<g clip-path="url(#clip30)" clip-rule="nonzero">
<path style=" stroke:none;fill-rule:nonzero;fill:rgb(18.823529%,41.568627%,70.196078%);fill-opacity:1;" d="M 2.605469 9.382812 L 3.019531 5.847656 L 6.558594 6.261719 L 6.140625 9.800781 Z M 2.605469 9.382812 "/>
</g>
</g>
<g clip-path="url(#clip31)" clip-rule="nonzero">
<g clip-path="url(#clip32)" clip-rule="nonzero">
<path style=" stroke:none;fill-rule:nonzero;fill:rgb(14.509804%,72.54902%,86.666667%);fill-opacity:1;" d="M 6.140625 9.800781 L 6.554688 6.261719 L 10.089844 6.679688 L 9.675781 10.214844 Z M 6.140625 9.800781 "/>
</g>
</g>
<g clip-path="url(#clip33)" clip-rule="nonzero">
<g clip-path="url(#clip34)" clip-rule="nonzero">
<path style=" stroke:none;fill-rule:nonzero;fill:rgb(65.098039%,32.941176%,62.745098%);fill-opacity:1;" d="M -0.515625 5.429688 L -0.0976562 1.894531 L 3.4375 2.308594 L 3.019531 5.84375 Z M -0.515625 5.429688 "/>
</g>
</g>
<g clip-path="url(#clip35)" clip-rule="nonzero">
<g clip-path="url(#clip36)" clip-rule="nonzero">
<path style=" stroke:none;fill-rule:nonzero;fill:rgb(32.156863%,75.294118%,70.196078%);fill-opacity:1;" d="M 10.09375 6.675781 L 10.507812 3.140625 L 14.042969 3.558594 L 13.628906 7.09375 Z M 10.09375 6.675781 "/>
</g>
</g>
<g clip-path="url(#clip37)" clip-rule="nonzero">
<g clip-path="url(#clip38)" clip-rule="nonzero">
<path style=" stroke:none;fill-rule:nonzero;fill:rgb(14.509804%,72.54902%,86.666667%);fill-opacity:1;" d="M 10.507812 3.140625 L 10.921875 -0.394531 L 14.457031 0.0195312 L 14.042969 3.554688 Z M 10.507812 3.140625 "/>
</g>
</g>
<g clip-path="url(#clip39)" clip-rule="nonzero">
<g clip-path="url(#clip40)" clip-rule="nonzero">
<path style=" stroke:none;fill-rule:nonzero;fill:rgb(27.843137%,52.941176%,78.039216%);fill-opacity:1;" d="M -1.347656 12.503906 L -0.933594 8.96875 L 2.605469 9.382812 L 2.1875 12.917969 Z M -1.347656 12.503906 "/>
</g>
</g>
<g clip-path="url(#clip41)" clip-rule="nonzero">
<g clip-path="url(#clip42)" clip-rule="nonzero">
<path style=" stroke:none;fill-rule:nonzero;fill:rgb(32.54902%,74.901961%,62.352941%);fill-opacity:1;" d="M 9.675781 10.210938 L 10.089844 6.675781 L 13.625 7.089844 L 13.210938 10.628906 Z M 9.675781 10.210938 "/>
</g>
</g>
<g clip-path="url(#clip43)" clip-rule="nonzero">
<g clip-path="url(#clip44)" clip-rule="nonzero">
<path style=" stroke:none;fill-rule:nonzero;fill:rgb(13.72549%,65.098039%,87.058824%);fill-opacity:1;" d="M 2.1875 12.921875 L 2.605469 9.386719 L 6.136719 9.800781 L 5.722656 13.335938 Z M 2.1875 12.921875 "/>
</g>
</g>
<g clip-path="url(#clip45)" clip-rule="nonzero">
<g clip-path="url(#clip46)" clip-rule="nonzero">
<path style=" stroke:none;fill-rule:nonzero;fill:rgb(34.117647%,72.941176%,46.666667%);fill-opacity:1;" d="M 9.261719 13.75 L 9.675781 10.214844 L 13.210938 10.632812 L 12.792969 14.167969 Z M 9.261719 13.75 "/>
</g>
</g>
<g clip-path="url(#clip47)" clip-rule="nonzero">
<g clip-path="url(#clip48)" clip-rule="nonzero">
<path style=" stroke:none;fill-rule:nonzero;fill:rgb(32.156863%,75.294118%,70.196078%);fill-opacity:1;" d="M 5.714844 13.386719 L 6.144531 9.863281 L 9.667969 10.292969 L 9.238281 13.816406 Z M 5.714844 13.386719 "/>
</g>
</g>
<g clip-path="url(#clip49)" clip-rule="nonzero">
<g clip-path="url(#clip50)" clip-rule="nonzero">
<path style=" stroke:none;fill-rule:nonzero;fill:rgb(32.54902%,74.901961%,62.352941%);fill-opacity:1;" d="M 13.628906 7.09375 L 14.042969 3.558594 L 17.578125 3.972656 L 17.164062 7.507812 Z M 13.628906 7.09375 "/>
</g>
</g>
<g clip-path="url(#clip51)" clip-rule="nonzero">
<g clip-path="url(#clip52)" clip-rule="nonzero">
<path style=" stroke:none;fill-rule:nonzero;fill:rgb(26.27451%,76.078431%,81.960784%);fill-opacity:1;" d="M 14.042969 3.558594 L 14.457031 0.0195312 L 17.992188 0.4375 L 17.578125 3.972656 Z M 14.042969 3.558594 "/>
</g>
</g>
<path style=" stroke:none;fill-rule:nonzero;fill:rgb(100%,100%,100%);fill-opacity:1;" d="M 9.972656 7.671875 L 8.222656 4.714844 C 8.175781 4.632812 8.089844 4.582031 7.992188 4.582031 C 7.898438 4.582031 7.8125 4.632812 7.765625 4.714844 L 6.015625 7.671875 C 5.332031 8.667969 5.496094 10.019531 6.402344 10.816406 C 7.308594 11.621094 8.667969 11.621094 9.574219 10.816406 C 10.476562 10.019531 10.644531 8.667969 9.960938 7.671875 Z M 9.972656 7.671875 "/>
</g>
</svg>
