
<svg xmlns="http://www.w3.org/2000/svg" xmlns:xlink="http://www.w3.org/1999/xlink" width="16px" height="16px" viewBox="0 0 16 16" version="1.1">
<defs>
<linearGradient id="linear0" gradientUnits="userSpaceOnUse" x1="32.85" y1="53" x2="32.85" y2="54.61" gradientTransform="matrix(0.25,0,0,0.25,-0.03,0.0125)">
<stop offset="0" style="stop-color:rgb(86.27451%,87.058824%,88.627451%);stop-opacity:1;"/>
<stop offset="0.57" style="stop-color:rgb(87.058824%,87.843137%,89.411765%);stop-opacity:1;"/>
<stop offset="0.81" style="stop-color:rgb(89.803922%,90.588235%,91.764706%);stop-opacity:1;"/>
<stop offset="0.99" style="stop-color:rgb(94.901961%,95.294118%,95.686275%);stop-opacity:1;"/>
<stop offset="1" style="stop-color:rgb(95.294118%,95.686275%,96.078431%);stop-opacity:1;"/>
</linearGradient>
</defs>
<g id="surface1">
<path style=" stroke:none;fill-rule:nonzero;fill:rgb(49.411765%,34.117647%,76.862745%);fill-opacity:1;" d="M 1.347656 0 L 14.652344 0 C 15.394531 0 16 0.605469 16 1.347656 L 16 14.652344 C 16 15.394531 15.394531 16 14.652344 16 L 1.347656 16 C 0.605469 16 0 15.394531 0 14.652344 L 0 1.347656 C 0 0.605469 0.605469 0 1.347656 0 Z M 1.347656 0 "/>
<path style=" stroke:none;fill-rule:nonzero;fill:url(#linear0);" d="M 10.96875 13.597656 L 10.5 13.597656 C 10.296875 13.597656 10.132812 13.433594 10.132812 13.230469 L 10.132812 11.539062 L 6.25 11.539062 L 6.25 13.226562 C 6.25 13.429688 6.085938 13.59375 5.882812 13.59375 L 5.394531 13.59375 C 5.195312 13.59375 5.03125 13.757812 5.03125 13.957031 C 5.03125 14.15625 5.195312 14.320312 5.394531 14.320312 L 10.96875 14.320312 C 11.066406 14.320312 11.160156 14.28125 11.226562 14.214844 C 11.296875 14.144531 11.335938 14.054688 11.335938 13.957031 C 11.332031 13.757812 11.167969 13.597656 10.96875 13.597656 Z M 10.96875 13.597656 "/>
<path style=" stroke:none;fill-rule:nonzero;fill:rgb(92.54902%,25.098039%,47.843137%);fill-opacity:1;" d="M 2.285156 2.964844 L 13.714844 2.964844 C 13.980469 2.964844 14.191406 3.179688 14.191406 3.441406 L 14.191406 10.988281 C 14.191406 11.25 13.980469 11.464844 13.714844 11.464844 L 2.285156 11.464844 C 2.019531 11.464844 1.808594 11.25 1.808594 10.988281 L 1.808594 3.441406 C 1.808594 3.179688 2.019531 2.964844 2.285156 2.964844 Z M 2.285156 2.964844 "/>
<path style=" stroke:none;fill-rule:nonzero;fill:rgb(100%,100%,100%);fill-opacity:1;" d="M 13.714844 11.683594 L 2.285156 11.683594 C 1.902344 11.683594 1.59375 11.378906 1.585938 11 L 1.585938 3.441406 C 1.589844 3.058594 1.902344 2.75 2.285156 2.75 L 13.714844 2.75 C 14.101562 2.75 14.414062 3.0625 14.414062 3.449219 L 14.414062 11 C 14.40625 11.378906 14.097656 11.683594 13.714844 11.683594 Z M 2.285156 3.183594 C 2.148438 3.183594 2.035156 3.296875 2.035156 3.433594 L 2.035156 11 C 2.035156 11.136719 2.148438 11.25 2.285156 11.25 L 13.714844 11.25 C 13.851562 11.25 13.964844 11.136719 13.964844 11 L 13.964844 3.441406 C 13.964844 3.304688 13.851562 3.191406 13.714844 3.191406 Z M 2.285156 3.183594 "/>
<path style=" stroke:none;fill-rule:nonzero;fill:rgb(100%,100%,100%);fill-opacity:1;" d="M 1.648438 10.5 L 14.328125 10.5 L 14.328125 11.050781 C 14.328125 11.355469 14.082031 11.601562 13.777344 11.601562 L 2.199219 11.601562 C 1.894531 11.601562 1.648438 11.355469 1.648438 11.050781 Z M 1.648438 10.5 "/>
<path style=" stroke:none;fill-rule:nonzero;fill:rgb(100%,100%,100%);fill-opacity:1;" d="M 5.695312 8.691406 L 6.3125 8.691406 C 6.429688 8.691406 6.523438 8.785156 6.523438 8.898438 L 6.523438 9.519531 C 6.523438 9.632812 6.429688 9.726562 6.3125 9.726562 L 5.695312 9.726562 C 5.578125 9.726562 5.484375 9.632812 5.484375 9.519531 L 5.484375 8.898438 C 5.484375 8.785156 5.578125 8.691406 5.695312 8.691406 Z M 5.695312 8.691406 "/>
<path style=" stroke:none;fill-rule:nonzero;fill:rgb(100%,100%,100%);fill-opacity:1;" d="M 7.023438 8.691406 L 7.644531 8.691406 C 7.757812 8.691406 7.851562 8.785156 7.851562 8.898438 L 7.851562 9.519531 C 7.851562 9.632812 7.757812 9.726562 7.644531 9.726562 L 7.023438 9.726562 C 6.910156 9.726562 6.816406 9.632812 6.816406 9.519531 L 6.816406 8.898438 C 6.816406 8.785156 6.910156 8.691406 7.023438 8.691406 Z M 7.023438 8.691406 "/>
<path style=" stroke:none;fill-rule:nonzero;fill:rgb(100%,100%,100%);fill-opacity:1;" d="M 8.355469 8.691406 L 8.976562 8.691406 C 9.089844 8.691406 9.183594 8.785156 9.183594 8.898438 L 9.183594 9.519531 C 9.183594 9.632812 9.089844 9.726562 8.976562 9.726562 L 8.355469 9.726562 C 8.242188 9.726562 8.148438 9.632812 8.148438 9.519531 L 8.148438 8.898438 C 8.148438 8.785156 8.242188 8.691406 8.355469 8.691406 Z M 8.355469 8.691406 "/>
<path style=" stroke:none;fill-rule:nonzero;fill:rgb(100%,100%,100%);fill-opacity:1;" d="M 9.6875 8.691406 L 10.304688 8.691406 C 10.421875 8.691406 10.515625 8.785156 10.515625 8.898438 L 10.515625 9.519531 C 10.515625 9.632812 10.421875 9.726562 10.304688 9.726562 L 9.6875 9.726562 C 9.570312 9.726562 9.476562 9.632812 9.476562 9.519531 L 9.476562 8.898438 C 9.476562 8.785156 9.570312 8.691406 9.6875 8.691406 Z M 9.6875 8.691406 "/>
</g>
</svg>
