
<svg xmlns="http://www.w3.org/2000/svg" xmlns:xlink="http://www.w3.org/1999/xlink" width="16px" height="16px" viewBox="0 0 16 16" version="1.1">
<defs>
<linearGradient id="linear0" gradientUnits="userSpaceOnUse" x1="32.86" y1="52.99" x2="32.86" y2="54.6" gradientTransform="matrix(0.25,0,0,0.25,-0.0325,0.0125)">
<stop offset="0" style="stop-color:rgb(86.27451%,87.058824%,88.627451%);stop-opacity:1;"/>
<stop offset="0.57" style="stop-color:rgb(87.058824%,87.843137%,89.411765%);stop-opacity:1;"/>
<stop offset="0.81" style="stop-color:rgb(89.803922%,90.588235%,91.764706%);stop-opacity:1;"/>
<stop offset="0.99" style="stop-color:rgb(94.901961%,95.294118%,95.686275%);stop-opacity:1;"/>
<stop offset="1" style="stop-color:rgb(95.294118%,95.686275%,96.078431%);stop-opacity:1;"/>
</linearGradient>
</defs>
<g id="surface1">
<path style=" stroke:none;fill-rule:nonzero;fill:rgb(36.078431%,41.960784%,75.294118%);fill-opacity:1;" d="M 1.347656 0 L 14.652344 0 C 15.394531 0 16 0.605469 16 1.347656 L 16 14.652344 C 16 15.394531 15.394531 16 14.652344 16 L 1.347656 16 C 0.605469 16 0 15.394531 0 14.652344 L 0 1.347656 C 0 0.605469 0.605469 0 1.347656 0 Z M 1.347656 0 "/>
<path style=" stroke:none;fill-rule:nonzero;fill:url(#linear0);" d="M 10.96875 13.597656 L 10.5 13.597656 C 10.296875 13.597656 10.132812 13.433594 10.132812 13.230469 L 10.132812 11.539062 L 6.25 11.539062 L 6.25 13.226562 C 6.25 13.429688 6.085938 13.59375 5.882812 13.59375 L 5.394531 13.59375 C 5.195312 13.59375 5.03125 13.757812 5.03125 13.957031 C 5.03125 14.15625 5.195312 14.320312 5.394531 14.320312 L 10.96875 14.320312 C 11.066406 14.320312 11.160156 14.28125 11.226562 14.214844 C 11.296875 14.144531 11.335938 14.054688 11.335938 13.957031 C 11.332031 13.757812 11.167969 13.597656 10.96875 13.597656 Z M 10.96875 13.597656 "/>
<path style=" stroke:none;fill-rule:nonzero;fill:rgb(16.078431%,71.372549%,96.470588%);fill-opacity:1;" d="M 2.285156 2.964844 L 13.714844 2.964844 C 13.980469 2.964844 14.191406 3.179688 14.191406 3.441406 L 14.191406 10.988281 C 14.191406 11.25 13.980469 11.464844 13.714844 11.464844 L 2.285156 11.464844 C 2.019531 11.464844 1.808594 11.25 1.808594 10.988281 L 1.808594 3.441406 C 1.808594 3.179688 2.019531 2.964844 2.285156 2.964844 Z M 2.285156 2.964844 "/>
<path style=" stroke:none;fill-rule:nonzero;fill:rgb(100%,100%,100%);fill-opacity:1;" d="M 13.714844 11.683594 L 2.285156 11.683594 C 1.902344 11.683594 1.59375 11.378906 1.585938 11 L 1.585938 3.441406 C 1.589844 3.058594 1.902344 2.75 2.285156 2.75 L 13.714844 2.75 C 14.101562 2.75 14.414062 3.0625 14.414062 3.449219 L 14.414062 11 C 14.40625 11.378906 14.097656 11.683594 13.714844 11.683594 Z M 2.285156 3.183594 C 2.148438 3.183594 2.035156 3.296875 2.035156 3.433594 L 2.035156 11 C 2.035156 11.136719 2.148438 11.25 2.285156 11.25 L 13.714844 11.25 C 13.851562 11.25 13.964844 11.136719 13.964844 11 L 13.964844 3.441406 C 13.964844 3.304688 13.851562 3.191406 13.714844 3.191406 Z M 2.285156 3.183594 "/>
<path style=" stroke:none;fill-rule:nonzero;fill:rgb(100%,100%,100%);fill-opacity:1;" d="M 1.648438 10.5 L 14.328125 10.5 L 14.328125 11.050781 C 14.328125 11.355469 14.082031 11.601562 13.777344 11.601562 L 2.199219 11.601562 C 1.894531 11.601562 1.648438 11.355469 1.648438 11.050781 Z M 1.648438 10.5 "/>
<path style=" stroke:none;fill-rule:nonzero;fill:rgb(100%,100%,100%);fill-opacity:1;" d="M 10.34375 6.472656 C 10.285156 6.425781 10.214844 6.402344 10.144531 6.40625 C 9.925781 6.425781 9.726562 6.300781 9.644531 6.101562 C 9.558594 5.90625 9.601562 5.679688 9.75 5.527344 C 9.894531 5.382812 9.894531 5.144531 9.75 5 C 9.683594 4.933594 9.59375 4.894531 9.5 4.894531 C 9.394531 4.894531 9.292969 4.933594 9.214844 5.003906 C 9.109375 5.089844 8.980469 5.136719 8.84375 5.140625 C 8.789062 5.140625 8.734375 5.128906 8.683594 5.109375 C 8.507812 5.023438 8.390625 4.855469 8.371094 4.660156 C 8.378906 4.46875 8.242188 4.304688 8.054688 4.273438 L 7.925781 4.273438 C 7.75 4.308594 7.625 4.460938 7.628906 4.640625 C 7.640625 4.847656 7.519531 5.042969 7.324219 5.125 C 7.257812 5.152344 7.1875 5.167969 7.117188 5.167969 C 6.980469 5.167969 6.851562 5.117188 6.75 5.023438 C 6.675781 4.957031 6.578125 4.917969 6.476562 4.914062 C 6.382812 4.914062 6.292969 4.953125 6.226562 5.019531 C 6.082031 5.164062 6.082031 5.398438 6.226562 5.542969 C 6.375 5.6875 6.421875 5.902344 6.351562 6.09375 C 6.277344 6.292969 6.085938 6.425781 5.875 6.425781 C 5.691406 6.421875 5.53125 6.554688 5.5 6.734375 L 5.5 6.851562 C 5.503906 6.871094 5.511719 6.890625 5.519531 6.910156 C 5.570312 7.058594 5.707031 7.15625 5.859375 7.160156 C 6.078125 7.136719 6.285156 7.253906 6.375 7.453125 C 6.464844 7.652344 6.414062 7.886719 6.25 8.03125 C 6.113281 8.175781 6.113281 8.402344 6.25 8.546875 C 6.316406 8.613281 6.40625 8.652344 6.5 8.65625 C 6.589844 8.652344 6.679688 8.617188 6.75 8.558594 C 6.851562 8.457031 6.984375 8.398438 7.128906 8.394531 C 7.1875 8.394531 7.25 8.40625 7.308594 8.425781 C 7.507812 8.503906 7.640625 8.699219 7.640625 8.914062 C 7.640625 9.09375 7.769531 9.25 7.949219 9.28125 L 8.042969 9.28125 L 8.101562 9.25 C 8.175781 9.214844 8.246094 9.167969 8.3125 9.117188 C 8.363281 9.050781 8.386719 8.96875 8.386719 8.886719 C 8.402344 8.699219 8.503906 8.527344 8.667969 8.433594 C 8.726562 8.402344 8.792969 8.386719 8.855469 8.386719 C 8.992188 8.390625 9.121094 8.441406 9.226562 8.523438 C 9.304688 8.59375 9.40625 8.632812 9.511719 8.636719 C 9.605469 8.632812 9.691406 8.597656 9.761719 8.53125 C 9.90625 8.382812 9.90625 8.144531 9.761719 7.992188 C 9.65625 7.863281 9.609375 7.695312 9.636719 7.53125 C 9.6875 7.316406 9.871094 7.164062 10.085938 7.148438 C 10.285156 7.164062 10.460938 7.03125 10.5 6.835938 L 10.5 6.75 L 10.46875 6.691406 C 10.433594 6.613281 10.394531 6.542969 10.34375 6.472656 Z M 8.003906 7.722656 C 7.621094 7.722656 7.277344 7.496094 7.132812 7.144531 C 6.984375 6.792969 7.066406 6.386719 7.335938 6.117188 C 7.605469 5.847656 8.007812 5.769531 8.359375 5.914062 C 8.710938 6.058594 8.941406 6.402344 8.941406 6.785156 C 8.929688 7.300781 8.511719 7.710938 8 7.714844 Z M 8.003906 7.722656 "/>
<path style=" stroke:none;fill-rule:nonzero;fill:rgb(100%,100%,100%);fill-opacity:1;" d="M 8 6.292969 C 7.804688 6.289062 7.625 6.40625 7.546875 6.589844 C 7.472656 6.769531 7.511719 6.980469 7.652344 7.121094 C 7.789062 7.257812 8 7.300781 8.179688 7.226562 C 8.363281 7.148438 8.480469 6.972656 8.480469 6.773438 C 8.472656 6.511719 8.261719 6.300781 8 6.292969 Z M 8 6.292969 "/>
</g>
</svg>
