
<svg xmlns="http://www.w3.org/2000/svg" xmlns:xlink="http://www.w3.org/1999/xlink" width="16px" height="16px" viewBox="0 0 16 16" version="1.1">
<g id="surface1">
<path style=" stroke:none;fill-rule:nonzero;fill:rgb(79.607843%,79.607843%,79.607843%);fill-opacity:1;" d="M 16 8 L 16 1.347656 C 16 0.605469 15.394531 0 14.652344 0 L 8 0 L 8 8 Z M 16 8 "/>
<path style=" stroke:none;fill-rule:nonzero;fill:rgb(49.411765%,34.117647%,76.862745%);fill-opacity:1;" d="M 10.386719 3.859375 C 10.316406 3.511719 10.050781 3.238281 9.707031 3.152344 C 9.363281 3.070312 9.003906 3.195312 8.78125 3.472656 C 8.703125 3.578125 8.578125 3.644531 8.445312 3.644531 L 8.332031 3.644531 C 8.148438 3.644531 8 3.496094 8 3.308594 L 8 0 L 1.347656 0 C 0.605469 0 0 0.605469 0 1.347656 L 0 8 L 8 8 L 8 4.75 C 8 4.566406 8.148438 4.417969 8.332031 4.417969 L 8.445312 4.417969 C 8.578125 4.417969 8.703125 4.484375 8.78125 4.589844 C 9.042969 4.925781 9.5 5.035156 9.882812 4.855469 C 10.265625 4.675781 10.472656 4.253906 10.386719 3.839844 Z M 10.386719 3.859375 "/>
<path style=" stroke:none;fill-rule:nonzero;fill:rgb(91.764706%,92.156863%,93.72549%);fill-opacity:1;" d="M 4.28125 7.75 L 4.28125 7.417969 C 4.28125 7.285156 4.347656 7.160156 4.453125 7.082031 C 4.785156 6.820312 4.894531 6.363281 4.714844 5.980469 C 4.535156 5.597656 4.117188 5.386719 3.703125 5.476562 C 3.355469 5.546875 3.078125 5.808594 2.996094 6.15625 C 2.910156 6.5 3.035156 6.859375 3.316406 7.082031 C 3.425781 7.15625 3.496094 7.28125 3.5 7.417969 L 3.5 7.714844 C 3.511719 7.785156 3.488281 7.859375 3.441406 7.914062 C 3.394531 7.96875 3.324219 8 3.25 8 L 0 8 L 0 14.652344 C 0 15.394531 0.605469 16 1.347656 16 L 8 16 L 8 8 L 4.523438 8 C 4.386719 7.996094 4.28125 7.886719 4.28125 7.75 Z M 4.28125 7.75 "/>
<path style=" stroke:none;fill-rule:nonzero;fill:rgb(92.54902%,25.098039%,47.843137%);fill-opacity:1;" d="M 12.441406 7.679688 L 12.441406 7.394531 C 12.445312 7.261719 12.511719 7.136719 12.617188 7.058594 C 12.949219 6.796875 13.058594 6.339844 12.882812 5.957031 C 12.703125 5.574219 12.28125 5.367188 11.867188 5.457031 C 11.523438 5.527344 11.253906 5.796875 11.175781 6.140625 C 11.09375 6.480469 11.222656 6.839844 11.5 7.058594 C 11.605469 7.136719 11.671875 7.261719 11.671875 7.394531 L 11.671875 7.644531 C 11.679688 7.738281 11.648438 7.828125 11.585938 7.894531 C 11.523438 7.964844 11.433594 8 11.34375 8 L 8 8 L 8 11.25 C 8 11.425781 7.855469 11.570312 7.679688 11.570312 L 7.410156 11.570312 C 7.277344 11.566406 7.152344 11.503906 7.070312 11.394531 C 6.820312 11.085938 6.402344 10.972656 6.03125 11.117188 C 5.664062 11.261719 5.429688 11.628906 5.457031 12.023438 C 5.484375 12.417969 5.765625 12.753906 6.148438 12.84375 C 6.496094 12.925781 6.855469 12.800781 7.074219 12.523438 C 7.152344 12.417969 7.277344 12.351562 7.410156 12.351562 L 7.648438 12.351562 C 7.734375 12.34375 7.824219 12.375 7.890625 12.433594 C 7.957031 12.492188 7.996094 12.574219 8 12.664062 L 8 16 L 14.652344 16 C 15.394531 16 16 15.394531 16 14.652344 L 16 8 L 12.75 8 C 12.578125 7.992188 12.441406 7.851562 12.441406 7.679688 Z M 12.441406 7.679688 "/>
</g>
</svg>
