
<svg xmlns="http://www.w3.org/2000/svg" xmlns:xlink="http://www.w3.org/1999/xlink" width="16px" height="16px" viewBox="0 0 16 16" version="1.1">
<g id="surface1">
<path style=" stroke:none;fill-rule:nonzero;fill:rgb(91.764706%,92.156863%,93.72549%);fill-opacity:1;" d="M 1.347656 0 L 14.652344 0 C 15.394531 0 16 0.605469 16 1.347656 L 16 14.652344 C 16 15.394531 15.394531 16 14.652344 16 L 1.347656 16 C 0.605469 16 0 15.394531 0 14.652344 L 0 1.347656 C 0 0.605469 0.605469 0 1.347656 0 Z M 1.347656 0 "/>
<path style=" stroke:none;fill-rule:nonzero;fill:rgb(49.411765%,34.117647%,76.862745%);fill-opacity:1;" d="M 8.894531 5.660156 L 4.039062 5.660156 L 4.039062 4.890625 L 6.019531 4.890625 L 6.019531 3.871094 L 6.917969 3.871094 L 6.917969 4.890625 L 8.894531 4.890625 Z M 6.46875 9.378906 C 6.175781 9.386719 5.886719 9.339844 5.605469 9.25 C 5.382812 9.167969 5.175781 9.046875 5 8.890625 C 4.839844 8.753906 4.714844 8.582031 4.628906 8.390625 C 4.542969 8.210938 4.5 8.015625 4.5 7.816406 L 4.5 7.542969 C 4.5 7.339844 4.542969 7.144531 4.621094 6.960938 C 4.707031 6.769531 4.835938 6.597656 4.996094 6.460938 C 5.175781 6.308594 5.386719 6.191406 5.609375 6.113281 C 5.886719 6.019531 6.179688 5.972656 6.472656 5.980469 C 6.765625 5.972656 7.058594 6.019531 7.335938 6.113281 C 7.558594 6.191406 7.769531 6.308594 7.949219 6.464844 C 8.109375 6.605469 8.234375 6.773438 8.324219 6.964844 C 8.402344 7.144531 8.445312 7.339844 8.445312 7.539062 L 8.445312 7.816406 C 8.445312 8.011719 8.402344 8.207031 8.324219 8.386719 C 8.238281 8.578125 8.109375 8.75 7.949219 8.886719 C 7.769531 9.046875 7.558594 9.167969 7.332031 9.25 C 7.054688 9.339844 6.761719 9.386719 6.46875 9.378906 Z M 6.46875 8.652344 C 6.636719 8.65625 6.800781 8.628906 6.957031 8.578125 C 7.085938 8.535156 7.203125 8.46875 7.304688 8.382812 C 7.394531 8.304688 7.464844 8.207031 7.511719 8.097656 C 7.558594 7.996094 7.582031 7.882812 7.582031 7.769531 L 7.582031 7.585938 C 7.578125 7.476562 7.558594 7.363281 7.511719 7.261719 C 7.464844 7.152344 7.394531 7.058594 7.304688 6.976562 C 7.203125 6.890625 7.085938 6.824219 6.960938 6.78125 C 6.640625 6.683594 6.300781 6.683594 5.980469 6.78125 C 5.855469 6.824219 5.738281 6.890625 5.636719 6.976562 C 5.546875 7.058594 5.476562 7.152344 5.425781 7.261719 C 5.382812 7.363281 5.359375 7.476562 5.359375 7.585938 L 5.359375 7.769531 C 5.359375 7.882812 5.382812 7.996094 5.425781 8.097656 C 5.476562 8.207031 5.546875 8.304688 5.636719 8.382812 C 5.738281 8.472656 5.855469 8.535156 5.984375 8.578125 C 6.140625 8.628906 6.304688 8.65625 6.46875 8.652344 Z M 6.359375 11.53125 L 10.859375 11.53125 L 10.859375 12.324219 L 5.453125 12.324219 L 5.453125 9.980469 L 6.359375 9.980469 Z M 11.820312 7.25 L 10.617188 7.25 L 10.617188 10.09375 L 9.71875 10.09375 L 9.71875 3.957031 L 10.617188 3.957031 L 10.617188 6.46875 L 11.820312 6.46875 Z M 11.820312 7.25 "/>
<path style=" stroke:none;fill-rule:nonzero;fill:rgb(92.54902%,25.098039%,47.843137%);fill-opacity:1;" d="M 10.355469 12.121094 L 9.558594 12.40625 L 9.445312 7.992188 L 12.164062 11.46875 L 11.316406 11.773438 L 11.773438 13.039062 L 10.808594 13.386719 Z M 10.355469 12.121094 "/>
<path style=" stroke:none;fill-rule:nonzero;fill:rgb(100%,100%,100%);fill-opacity:1;" d="M 9.734375 8.800781 L 11.71875 11.34375 L 10.96875 11.609375 L 11.425781 12.878906 L 10.96875 13.042969 L 10.519531 11.773438 L 9.816406 12.023438 L 9.734375 8.800781 M 9.152344 7.183594 L 9.195312 8.816406 L 9.277344 12.039062 L 9.296875 12.789062 L 9.996094 12.539062 L 10.191406 12.46875 L 10.464844 13.21875 L 10.648438 13.71875 L 11.148438 13.539062 L 11.601562 13.371094 L 12.101562 13.191406 L 11.917969 12.691406 L 11.648438 11.941406 L 11.898438 11.851562 L 12.597656 11.601562 L 12.144531 11 L 10.15625 8.46875 L 9.15625 7.183594 Z M 9.152344 7.183594 "/>
</g>
</svg>
