
<svg xmlns="http://www.w3.org/2000/svg" xmlns:xlink="http://www.w3.org/1999/xlink" width="16px" height="16px" viewBox="0 0 16 16" version="1.1">
<g id="surface1">
<path style=" stroke:none;fill-rule:nonzero;fill:rgb(92.54902%,25.098039%,47.843137%);fill-opacity:1;" d="M 1.347656 0 L 14.652344 0 C 15.394531 0 16 0.605469 16 1.347656 L 16 14.652344 C 16 15.394531 15.394531 16 14.652344 16 L 1.347656 16 C 0.605469 16 0 15.394531 0 14.652344 L 0 1.347656 C 0 0.605469 0.605469 0 1.347656 0 Z M 1.347656 0 "/>
<path style=" stroke:none;fill-rule:nonzero;fill:rgb(16.078431%,71.372549%,96.470588%);fill-opacity:1;" d="M 5.25 11.121094 L 5.855469 10.164062 L 6.007812 9.929688 L 9.105469 9.929688 C 9.253906 9.445312 9.699219 9.113281 10.207031 9.113281 L 10.25 9.113281 C 10.210938 9.089844 10.175781 9.0625 10.136719 9.039062 L 8.675781 8.214844 C 8.496094 8.113281 8.386719 7.921875 8.386719 7.714844 L 8.386719 7.332031 C 8.855469 7.019531 9.136719 6.496094 9.136719 5.933594 L 9.136719 5.410156 C 9.160156 4.796875 8.847656 4.21875 8.320312 3.90625 C 7.792969 3.589844 7.136719 3.589844 6.605469 3.90625 C 6.082031 4.21875 5.765625 4.796875 5.789062 5.410156 L 5.789062 5.933594 C 5.789062 6.496094 6.070312 7.019531 6.539062 7.332031 L 6.539062 7.722656 C 6.542969 7.929688 6.433594 8.121094 6.253906 8.222656 L 4.792969 9.046875 C 4.175781 9.398438 3.792969 10.054688 3.792969 10.765625 L 3.792969 11.515625 L 5.042969 11.515625 L 5.003906 11.480469 Z M 5.25 11.121094 "/>
<path style=" stroke:none;fill-rule:nonzero;fill:rgb(89.803922%,89.803922%,89.803922%);fill-opacity:1;" d="M 9.578125 10.867188 L 6.011719 10.867188 L 5.976562 10.914062 L 5.820312 11.15625 L 9.578125 11.15625 Z M 9.578125 10.867188 "/>
<path style=" stroke:none;fill-rule:nonzero;fill:rgb(100%,100%,100%);fill-opacity:1;" d="M 12.074219 9.621094 L 10.207031 9.621094 C 9.851562 9.621094 9.566406 9.910156 9.566406 10.265625 L 9.566406 10.4375 L 6.28125 10.4375 L 5.976562 10.914062 L 6.007812 10.867188 L 9.578125 10.867188 L 9.578125 11.15625 L 5.828125 11.15625 L 5.675781 11.394531 L 5.804688 11.511719 L 6.289062 11.957031 L 9.566406 11.957031 L 9.566406 12.128906 C 9.566406 12.484375 9.851562 12.769531 10.207031 12.773438 L 12.074219 12.773438 C 12.425781 12.769531 12.714844 12.484375 12.714844 12.128906 L 12.714844 10.265625 C 12.714844 9.910156 12.425781 9.621094 12.074219 9.621094 Z M 12.117188 11.550781 C 12.117188 11.738281 11.964844 11.890625 11.773438 11.890625 C 11.730469 11.890625 11.683594 11.878906 11.640625 11.859375 C 11.515625 11.808594 11.433594 11.683594 11.433594 11.550781 L 11.433594 10.84375 C 11.4375 10.714844 11.511719 10.597656 11.625 10.542969 C 11.671875 10.519531 11.722656 10.503906 11.773438 10.503906 C 11.964844 10.503906 12.117188 10.65625 12.117188 10.84375 Z M 12.117188 11.550781 "/>
<path style=" stroke:none;fill-rule:nonzero;fill:rgb(100%,100%,100%);fill-opacity:1;" d="M 5.808594 11.15625 L 5.820312 11.15625 L 5.976562 10.914062 Z M 5.808594 11.15625 "/>
</g>
</svg>
