
<svg xmlns="http://www.w3.org/2000/svg" xmlns:xlink="http://www.w3.org/1999/xlink" width="16px" height="16px" viewBox="0 0 16 16" version="1.1">
<g id="surface1">
<path style=" stroke:none;fill-rule:nonzero;fill:rgb(36.078431%,41.960784%,75.294118%);fill-opacity:1;" d="M 1.347656 0 L 14.652344 0 C 15.394531 0 16 0.605469 16 1.347656 L 16 14.652344 C 16 15.394531 15.394531 16 14.652344 16 L 1.347656 16 C 0.605469 16 0 15.394531 0 14.652344 L 0 1.347656 C 0 0.605469 0.605469 0 1.347656 0 Z M 1.347656 0 "/>
<path style=" stroke:none;fill-rule:nonzero;fill:rgb(100%,100%,100%);fill-opacity:1;" d="M 8.535156 5.386719 L 8.167969 5.386719 L 8.167969 6.960938 C 8.328125 7.027344 8.433594 7.1875 8.433594 7.363281 L 8.433594 8.363281 C 8.433594 8.601562 8.238281 8.796875 8 8.796875 C 7.761719 8.796875 7.566406 8.601562 7.566406 8.363281 L 7.566406 7.363281 C 7.566406 7.1875 7.671875 7.027344 7.832031 6.960938 L 7.832031 5.386719 L 7.464844 5.386719 C 6.171875 5.390625 5.125 6.4375 5.121094 7.730469 L 5.121094 10.542969 C 5.210938 12.066406 6.46875 13.253906 7.996094 13.253906 C 9.519531 13.253906 10.78125 12.066406 10.871094 10.542969 L 10.871094 7.730469 C 10.867188 6.441406 9.824219 5.398438 8.535156 5.386719 Z M 8.535156 5.386719 "/>
<path style=" stroke:none;fill-rule:nonzero;fill:rgb(16.078431%,71.372549%,96.470588%);fill-opacity:1;" d="M 8.226562 5.386719 L 7.824219 5.386719 L 7.824219 5.1875 C 7.824219 4.636719 8.273438 4.1875 8.824219 4.1875 L 9.5625 4.1875 C 9.894531 4.1875 10.164062 3.917969 10.164062 3.585938 C 10.164062 3.253906 9.894531 2.980469 9.5625 2.980469 L 5.835938 2.980469 L 5.835938 2.574219 L 9.566406 2.574219 C 10.117188 2.574219 10.566406 3.023438 10.566406 3.574219 C 10.566406 4.128906 10.117188 4.574219 9.566406 4.574219 L 8.828125 4.574219 C 8.496094 4.574219 8.226562 4.84375 8.226562 5.175781 Z M 8.226562 5.386719 "/>
</g>
</svg>
