
<svg xmlns="http://www.w3.org/2000/svg" xmlns:xlink="http://www.w3.org/1999/xlink" width="16px" height="16px" viewBox="0 0 16 16" version="1.1">
<g id="surface1">
<path style=" stroke:none;fill-rule:nonzero;fill:rgb(36.078431%,41.960784%,75.294118%);fill-opacity:1;" d="M 1.347656 0 L 14.652344 0 C 15.394531 0 16 0.605469 16 1.347656 L 16 14.652344 C 16 15.394531 15.394531 16 14.652344 16 L 1.347656 16 C 0.605469 16 0 15.394531 0 14.652344 L 0 1.347656 C 0 0.605469 0.605469 0 1.347656 0 Z M 1.347656 0 "/>
<path style=" stroke:none;fill-rule:nonzero;fill:rgb(100%,100%,100%);fill-opacity:1;" d="M 13.082031 6.316406 L 2.917969 6.316406 L 4.480469 4.457031 C 4.558594 4.367188 4.664062 4.316406 4.78125 4.316406 L 11.21875 4.316406 C 11.335938 4.316406 11.441406 4.367188 11.519531 4.457031 Z M 13.082031 6.316406 "/>
<path style=" stroke:none;fill-rule:nonzero;fill:rgb(89.803922%,89.803922%,89.803922%);fill-opacity:1;" d="M 2.917969 6.316406 L 13.082031 6.316406 L 13.082031 10.425781 C 13.082031 10.640625 12.90625 10.8125 12.691406 10.8125 L 3.308594 10.8125 C 3.09375 10.8125 2.917969 10.640625 2.917969 10.425781 Z M 2.917969 6.316406 "/>
<path style=" stroke:none;fill-rule:nonzero;fill:rgb(16.078431%,71.372549%,96.470588%);fill-opacity:1;" d="M 11.945312 12.832031 L 4.054688 12.832031 C 3.945312 12.828125 3.84375 12.777344 3.78125 12.6875 C 3.714844 12.597656 3.699219 12.484375 3.734375 12.378906 L 4.863281 9.148438 L 11.136719 9.148438 L 12.265625 12.378906 C 12.300781 12.484375 12.285156 12.597656 12.222656 12.6875 C 12.160156 12.777344 12.054688 12.832031 11.945312 12.832031 Z M 11.945312 12.832031 "/>
<path style=" stroke:none;fill-rule:nonzero;fill:rgb(16.078431%,71.372549%,96.470588%);fill-opacity:1;" d="M 4.863281 4.316406 L 11.136719 4.316406 L 11.136719 7.058594 L 4.863281 7.058594 Z M 4.863281 4.316406 "/>
<path style=" stroke:none;fill-rule:nonzero;fill:rgb(100%,100%,100%);fill-opacity:1;" d="M 11.324219 12.015625 L 4.675781 12.015625 L 5.308594 9.609375 L 10.691406 9.609375 Z M 11.324219 12.015625 "/>
<path style=" stroke:none;fill-rule:nonzero;fill:rgb(79.607843%,79.607843%,79.607843%);fill-opacity:1;" d="M 2.917969 7.980469 L 13.082031 7.980469 L 13.082031 8.425781 L 2.917969 8.425781 Z M 2.917969 7.980469 "/>
<path style=" stroke:none;fill-rule:nonzero;fill:rgb(92.54902%,25.098039%,47.843137%);fill-opacity:1;" d="M 6.042969 10.019531 L 9.960938 10.019531 C 10.09375 10.019531 10.207031 10.128906 10.207031 10.265625 C 10.207031 10.402344 10.09375 10.511719 9.960938 10.511719 L 6.042969 10.511719 C 5.90625 10.511719 5.796875 10.402344 5.796875 10.265625 C 5.796875 10.128906 5.90625 10.019531 6.042969 10.019531 Z M 6.042969 10.019531 "/>
<path style=" stroke:none;fill-rule:nonzero;fill:rgb(92.54902%,25.098039%,47.843137%);fill-opacity:1;" d="M 5.730469 10.886719 L 10.269531 10.886719 C 10.40625 10.886719 10.515625 10.996094 10.515625 11.128906 C 10.515625 11.265625 10.40625 11.375 10.269531 11.375 L 5.730469 11.375 C 5.597656 11.375 5.488281 11.265625 5.488281 11.128906 C 5.488281 10.996094 5.597656 10.886719 5.730469 10.886719 Z M 5.730469 10.886719 "/>
<path style=" stroke:none;fill-rule:nonzero;fill:rgb(92.54902%,25.098039%,47.843137%);fill-opacity:1;" d="M 12.417969 7.167969 C 12.417969 7.355469 12.265625 7.511719 12.078125 7.511719 C 11.886719 7.511719 11.734375 7.355469 11.734375 7.167969 C 11.734375 6.980469 11.886719 6.824219 12.078125 6.824219 C 12.265625 6.824219 12.417969 6.980469 12.417969 7.167969 Z M 12.417969 7.167969 "/>
<path style=" stroke:none;fill-rule:nonzero;fill:rgb(100%,100%,100%);fill-opacity:1;" d="M 9.574219 3.167969 L 5.308594 3.167969 L 5.308594 5.585938 L 10.691406 5.585938 L 10.691406 4.199219 Z M 9.574219 3.167969 "/>
<path style=" stroke:none;fill-rule:nonzero;fill:rgb(79.607843%,79.607843%,79.607843%);fill-opacity:1;" d="M 9.574219 4.199219 L 10.691406 4.199219 L 9.574219 3.167969 Z M 9.574219 4.199219 "/>
</g>
</svg>
