
<svg xmlns="http://www.w3.org/2000/svg" xmlns:xlink="http://www.w3.org/1999/xlink" width="16px" height="16px" viewBox="0 0 16 16" version="1.1">
<g id="surface1">
<path style=" stroke:none;fill-rule:nonzero;fill:rgb(49.411765%,34.117647%,76.862745%);fill-opacity:1;" d="M 1.347656 0 L 14.652344 0 C 15.394531 0 16 0.605469 16 1.347656 L 16 14.652344 C 16 15.394531 15.394531 16 14.652344 16 L 1.347656 16 C 0.605469 16 0 15.394531 0 14.652344 L 0 1.347656 C 0 0.605469 0.605469 0 1.347656 0 Z M 1.347656 0 "/>
<path style=" stroke:none;fill-rule:nonzero;fill:rgb(100%,100%,100%);fill-opacity:1;" d="M 12.941406 12.808594 L 4.519531 12.808594 C 4.269531 12.808594 4.070312 12.609375 4.070312 12.359375 L 4.070312 5.210938 C 4.070312 4.964844 4.269531 4.761719 4.519531 4.761719 L 12.941406 4.761719 C 13.191406 4.761719 13.394531 4.964844 13.394531 5.210938 L 13.394531 12.359375 C 13.394531 12.609375 13.191406 12.808594 12.941406 12.808594 Z M 12.941406 12.808594 "/>
<path style=" stroke:none;fill-rule:nonzero;fill:rgb(92.54902%,25.098039%,47.843137%);fill-opacity:1;" d="M 4.523438 4.554688 L 12.941406 4.554688 C 13.308594 4.554688 13.601562 4.851562 13.601562 5.214844 L 13.601562 12.359375 C 13.601562 12.722656 13.304688 13.019531 12.941406 13.019531 L 4.523438 13.019531 C 4.160156 13.019531 3.863281 12.722656 3.863281 12.359375 L 3.863281 5.214844 C 3.863281 4.851562 4.160156 4.558594 4.523438 4.554688 Z M 12.941406 12.601562 C 13.082031 12.601562 13.191406 12.492188 13.191406 12.351562 L 13.191406 5.214844 C 13.191406 5.078125 13.082031 4.964844 12.941406 4.964844 L 4.523438 4.964844 C 4.382812 4.964844 4.273438 5.078125 4.273438 5.214844 L 4.273438 12.359375 C 4.273438 12.496094 4.382812 12.609375 4.523438 12.609375 Z M 12.941406 12.601562 "/>
<path style=" stroke:none;fill-rule:nonzero;fill:rgb(100%,100%,100%);fill-opacity:1;" d="M 11.476562 11.238281 L 3.054688 11.238281 C 2.808594 11.238281 2.605469 11.035156 2.605469 10.789062 L 2.605469 3.640625 C 2.605469 3.390625 2.808594 3.191406 3.054688 3.191406 L 11.476562 3.191406 C 11.726562 3.191406 11.925781 3.390625 11.925781 3.640625 L 11.925781 10.789062 C 11.925781 11.035156 11.726562 11.238281 11.476562 11.238281 Z M 11.476562 11.238281 "/>
<path style=" stroke:none;fill-rule:nonzero;fill:rgb(92.54902%,25.098039%,47.843137%);fill-opacity:1;" d="M 3.058594 2.980469 L 11.476562 2.980469 C 11.839844 2.980469 12.136719 3.277344 12.136719 3.640625 L 12.136719 10.785156 C 12.136719 11.148438 11.839844 11.441406 11.476562 11.445312 L 3.058594 11.445312 C 2.691406 11.445312 2.398438 11.148438 2.398438 10.785156 L 2.398438 3.640625 C 2.398438 3.277344 2.695312 2.980469 3.058594 2.980469 Z M 11.476562 11.027344 C 11.617188 11.027344 11.726562 10.914062 11.726562 10.777344 L 11.726562 3.640625 C 11.726562 3.503906 11.617188 3.390625 11.476562 3.390625 L 3.058594 3.390625 C 2.917969 3.390625 2.808594 3.503906 2.808594 3.640625 L 2.808594 10.785156 C 2.808594 10.921875 2.917969 11.035156 3.058594 11.035156 Z M 11.476562 11.027344 "/>
<path style=" stroke:none;fill-rule:nonzero;fill:rgb(92.54902%,25.098039%,47.843137%);fill-opacity:1;" d="M 12.078125 4.113281 L 2.476562 4.113281 L 2.476562 3.59375 C 2.476562 3.308594 2.710938 3.074219 2.996094 3.074219 L 11.554688 3.074219 C 11.84375 3.074219 12.074219 3.308594 12.074219 3.59375 L 12.074219 4.113281 Z M 12.078125 4.113281 "/>
<path style=" stroke:none;fill-rule:nonzero;fill:rgb(100%,100%,100%);fill-opacity:1;" d="M 9.683594 3.609375 C 9.683594 3.785156 9.542969 3.925781 9.367188 3.925781 C 9.191406 3.925781 9.050781 3.785156 9.050781 3.609375 C 9.050781 3.4375 9.191406 3.292969 9.367188 3.292969 C 9.542969 3.292969 9.683594 3.4375 9.683594 3.609375 Z M 9.683594 3.609375 "/>
<path style=" stroke:none;fill-rule:nonzero;fill:rgb(100%,100%,100%);fill-opacity:1;" d="M 10.730469 3.609375 C 10.730469 3.785156 10.589844 3.925781 10.417969 3.925781 C 10.242188 3.925781 10.101562 3.785156 10.101562 3.609375 C 10.101562 3.4375 10.242188 3.292969 10.417969 3.292969 C 10.589844 3.292969 10.730469 3.4375 10.730469 3.609375 Z M 10.730469 3.609375 "/>
<path style=" stroke:none;fill-rule:nonzero;fill:rgb(100%,100%,100%);fill-opacity:1;" d="M 11.785156 3.609375 C 11.785156 3.785156 11.644531 3.925781 11.46875 3.925781 C 11.296875 3.925781 11.15625 3.785156 11.15625 3.609375 C 11.15625 3.4375 11.296875 3.292969 11.46875 3.292969 C 11.644531 3.292969 11.785156 3.4375 11.785156 3.609375 Z M 11.785156 3.609375 "/>
</g>
</svg>
