
<svg xmlns="http://www.w3.org/2000/svg" xmlns:xlink="http://www.w3.org/1999/xlink" width="16px" height="16px" viewBox="0 0 16 16" version="1.1">
<g id="surface1">
<path style=" stroke:none;fill-rule:nonzero;fill:rgb(49.411765%,34.117647%,76.862745%);fill-opacity:1;" d="M 1.347656 0 L 14.652344 0 C 15.394531 0 16 0.605469 16 1.347656 L 16 14.652344 C 16 15.394531 15.394531 16 14.652344 16 L 1.347656 16 C 0.605469 16 0 15.394531 0 14.652344 L 0 1.347656 C 0 0.605469 0.605469 0 1.347656 0 Z M 1.347656 0 "/>
<path style=" stroke:none;fill-rule:nonzero;fill:rgb(100%,100%,100%);fill-opacity:1;" d="M 8.972656 7.6875 C 9.472656 7.359375 9.773438 6.800781 9.773438 6.207031 L 9.773438 5.652344 C 9.773438 4.671875 8.980469 3.878906 8 3.878906 C 7.019531 3.878906 6.226562 4.671875 6.226562 5.652344 L 6.226562 6.207031 C 6.226562 6.804688 6.527344 7.359375 7.027344 7.6875 L 7.027344 8.105469 C 7.027344 8.320312 6.910156 8.519531 6.722656 8.628906 L 5.171875 9.5 C 4.515625 9.871094 4.105469 10.566406 4.105469 11.324219 L 4.105469 12.121094 L 11.894531 12.121094 L 11.894531 11.324219 C 11.894531 10.570312 11.488281 9.871094 10.828125 9.5 L 9.277344 8.625 C 9.089844 8.519531 8.972656 8.320312 8.972656 8.101562 L 8.972656 7.6875 "/>
</g>
</svg>
