
<svg xmlns="http://www.w3.org/2000/svg" xmlns:xlink="http://www.w3.org/1999/xlink" width="16px" height="16px" viewBox="0 0 16 16" version="1.1">
<g id="surface1">
<path style=" stroke:none;fill-rule:nonzero;fill:rgb(49.411765%,34.117647%,76.862745%);fill-opacity:1;" d="M 1.347656 0 L 14.652344 0 C 15.394531 0 16 0.605469 16 1.347656 L 16 14.652344 C 16 15.394531 15.394531 16 14.652344 16 L 1.347656 16 C 0.605469 16 0 15.394531 0 14.652344 L 0 1.347656 C 0 0.605469 0.605469 0 1.347656 0 Z M 1.347656 0 "/>
<path style=" stroke:none;fill-rule:nonzero;fill:rgb(100%,100%,100%);fill-opacity:1;" d="M 8.855469 4.667969 C 8.855469 5.144531 8.472656 5.527344 8 5.527344 C 7.527344 5.527344 7.144531 5.144531 7.144531 4.667969 C 7.144531 4.195312 7.527344 3.8125 8 3.8125 C 8.472656 3.8125 8.855469 4.195312 8.855469 4.667969 Z M 8.855469 4.667969 "/>
<path style=" stroke:none;fill-rule:nonzero;fill:rgb(100%,100%,100%);fill-opacity:1;" d="M 9.183594 6.847656 L 11.414062 5.890625 C 11.523438 5.847656 11.613281 5.757812 11.660156 5.648438 C 11.707031 5.535156 11.707031 5.410156 11.664062 5.300781 C 11.566406 5.070312 11.300781 4.964844 11.074219 5.0625 L 9.246094 5.84375 C 8.855469 6.011719 8.4375 6.097656 8.011719 6.09375 C 7.589844 6.097656 7.167969 6.011719 6.777344 5.84375 L 4.953125 5.0625 C 4.722656 4.964844 4.460938 5.070312 4.363281 5.300781 C 4.316406 5.410156 4.316406 5.535156 4.363281 5.648438 C 4.410156 5.757812 4.5 5.847656 4.613281 5.890625 L 6.75 6.820312 C 6.878906 6.875 6.960938 7 6.960938 7.140625 L 6.882812 8.710938 C 6.878906 8.769531 6.863281 8.824219 6.835938 8.875 L 5.292969 11.5 C 5.238281 11.589844 5.222656 11.695312 5.25 11.796875 C 5.277344 11.898438 5.34375 11.980469 5.433594 12.03125 L 5.636719 12.144531 C 5.832031 12.242188 6.074219 12.171875 6.183594 11.976562 L 7.621094 9.441406 C 7.6875 9.324219 7.816406 9.25 7.957031 9.25 C 8.09375 9.246094 8.222656 9.320312 8.289062 9.441406 L 9.726562 11.976562 C 9.832031 12.171875 10.074219 12.246094 10.273438 12.144531 L 10.472656 12.03125 C 10.5625 11.980469 10.628906 11.894531 10.65625 11.796875 C 10.683594 11.695312 10.667969 11.589844 10.613281 11.5 L 9.09375 8.914062 C 9.066406 8.863281 9.046875 8.808594 9.046875 8.75 L 8.96875 7.164062 C 8.972656 7.027344 9.054688 6.902344 9.183594 6.847656 Z M 9.183594 6.847656 "/>
</g>
</svg>
