
<svg xmlns="http://www.w3.org/2000/svg" xmlns:xlink="http://www.w3.org/1999/xlink" width="16px" height="16px" viewBox="0 0 16 16" version="1.1">
<g id="surface1">
<path style=" stroke:none;fill-rule:nonzero;fill:rgb(92.54902%,25.098039%,47.843137%);fill-opacity:1;" d="M 16 8 L 16 1.347656 C 16 0.605469 15.394531 0 14.652344 0 L 8 0 L 8 8 Z M 16 8 "/>
<path style=" stroke:none;fill-rule:nonzero;fill:rgb(91.764706%,92.156863%,93.72549%);fill-opacity:1;" d="M 8 0 L 1.347656 0 C 0.605469 0 0 0.605469 0 1.347656 L 0 8 L 8 8 Z M 8 0 "/>
<path style=" stroke:none;fill-rule:nonzero;fill:rgb(16.078431%,71.372549%,96.470588%);fill-opacity:1;" d="M 8 8 L 8 16 L 14.652344 16 C 15.394531 16 16 15.394531 16 14.652344 L 16 8 Z M 8 8 "/>
<path style=" stroke:none;fill-rule:nonzero;fill:rgb(63.137255%,38.431373%,96.862745%);fill-opacity:1;" d="M 0 8 L 0 14.652344 C 0 15.394531 0.605469 16 1.347656 16 L 8 16 L 8 8 Z M 0 8 "/>
<path style=" stroke:none;fill-rule:nonzero;fill:rgb(100%,100%,100%);fill-opacity:1;" d="M 12.671875 13.425781 L 11.464844 13.425781 C 11.175781 13.425781 10.945312 13.191406 10.941406 12.902344 L 10.941406 11.902344 C 10.945312 11.613281 11.175781 11.382812 11.464844 11.378906 L 12.230469 11.378906 C 12.316406 11.378906 12.390625 11.453125 12.390625 11.539062 C 12.390625 11.628906 12.316406 11.699219 12.230469 11.699219 L 11.464844 11.699219 C 11.355469 11.699219 11.261719 11.792969 11.261719 11.902344 L 11.261719 12.902344 C 11.261719 13.011719 11.355469 13.101562 11.464844 13.101562 L 12.671875 13.101562 C 12.726562 13.101562 12.777344 13.082031 12.816406 13.042969 C 12.855469 13.007812 12.875 12.957031 12.875 12.902344 L 12.875 11.902344 C 12.875 11.789062 12.785156 11.699219 12.671875 11.699219 L 12.511719 11.699219 L 12.511719 11.027344 C 12.503906 10.871094 12.378906 10.75 12.222656 10.75 L 12.035156 10.75 C 11.882812 10.753906 11.757812 10.875 11.75 11.027344 L 11.75 11.09375 C 11.757812 11.15625 11.730469 11.21875 11.675781 11.253906 C 11.621094 11.285156 11.554688 11.285156 11.503906 11.253906 C 11.449219 11.21875 11.417969 11.15625 11.425781 11.09375 L 11.425781 11.027344 C 11.429688 10.691406 11.699219 10.417969 12.039062 10.417969 L 12.226562 10.417969 C 12.5625 10.417969 12.835938 10.691406 12.835938 11.027344 L 12.835938 11.394531 C 13.054688 11.460938 13.199219 11.664062 13.199219 11.894531 L 13.199219 12.894531 C 13.203125 13.035156 13.148438 13.167969 13.046875 13.269531 C 12.949219 13.371094 12.8125 13.425781 12.671875 13.425781 Z M 12.671875 13.425781 "/>
<path style=" stroke:none;fill-rule:nonzero;fill:rgb(100%,100%,100%);fill-opacity:1;" d="M 11.925781 3.097656 C 12.132812 3.097656 12.296875 3.261719 12.296875 3.46875 C 12.296875 3.671875 12.132812 3.835938 11.925781 3.835938 C 11.722656 3.835938 11.558594 3.671875 11.558594 3.46875 C 11.558594 3.371094 11.597656 3.273438 11.664062 3.207031 C 11.734375 3.136719 11.828125 3.097656 11.925781 3.097656 M 11.925781 2.800781 C 11.679688 2.785156 11.445312 2.910156 11.316406 3.121094 C 11.1875 3.332031 11.1875 3.597656 11.316406 3.8125 C 11.445312 4.023438 11.679688 4.148438 11.925781 4.132812 C 12.175781 4.148438 12.410156 4.023438 12.539062 3.8125 C 12.667969 3.597656 12.667969 3.332031 12.539062 3.121094 C 12.410156 2.910156 12.175781 2.785156 11.925781 2.800781 Z M 11.925781 2.800781 "/>
<path style=" stroke:none;fill-rule:nonzero;fill:rgb(100%,100%,100%);fill-opacity:1;" d="M 11.925781 4.582031 C 12.46875 4.582031 12.945312 4.945312 13.085938 5.46875 C 13.089844 5.472656 13.089844 5.476562 13.085938 5.480469 L 10.769531 5.480469 C 10.769531 5.480469 10.769531 5.46875 10.769531 5.46875 C 10.910156 4.945312 11.386719 4.582031 11.929688 4.582031 M 11.929688 4.28125 C 11.253906 4.28125 10.65625 4.734375 10.480469 5.390625 C 10.453125 5.484375 10.472656 5.582031 10.53125 5.660156 C 10.589844 5.738281 10.679688 5.785156 10.777344 5.785156 L 13.082031 5.785156 C 13.179688 5.785156 13.269531 5.738281 13.328125 5.660156 C 13.386719 5.582031 13.40625 5.484375 13.378906 5.390625 C 13.203125 4.734375 12.609375 4.28125 11.929688 4.28125 Z M 11.929688 4.28125 "/>
<path style=" stroke:none;fill-rule:nonzero;fill:rgb(50.196078%,50.196078%,50.196078%);fill-opacity:1;" d="M 5.378906 5.347656 L 5.378906 3.347656 C 5.378906 3.027344 5.117188 2.765625 4.796875 2.765625 L 3.796875 2.765625 C 3.476562 2.765625 3.214844 3.027344 3.214844 3.347656 L 3.214844 4.582031 C 3.152344 4.558594 3.082031 4.542969 3.011719 4.542969 C 2.777344 4.523438 2.574219 4.695312 2.550781 4.925781 C 2.574219 5.15625 2.773438 5.324219 3 5.308594 C 3.230469 5.328125 3.4375 5.15625 3.460938 4.925781 L 3.460938 3.582031 C 3.460938 3.445312 3.566406 3.335938 3.699219 3.332031 L 4.867188 3.332031 C 5 3.335938 5.105469 3.445312 5.105469 3.582031 L 5.105469 5.035156 C 5.042969 5.011719 4.976562 4.996094 4.910156 4.996094 C 4.675781 4.980469 4.472656 5.148438 4.449219 5.382812 C 4.472656 5.613281 4.675781 5.785156 4.910156 5.769531 C 5.144531 5.785156 5.347656 5.613281 5.371094 5.382812 C 5.386719 5.371094 5.378906 5.355469 5.378906 5.347656 Z M 5.378906 5.347656 "/>
<path style=" stroke:none;fill-rule:nonzero;fill:rgb(100%,100%,100%);fill-opacity:1;" d="M 6.042969 11.171875 L 5.3125 10.921875 C 5.257812 10.902344 5.21875 10.851562 5.21875 10.792969 C 5.21875 10.722656 5.160156 10.664062 5.085938 10.664062 L 2.886719 10.664062 C 2.816406 10.664062 2.753906 10.722656 2.753906 10.792969 L 2.753906 13.164062 C 2.753906 13.238281 2.8125 13.296875 2.886719 13.296875 L 5.085938 13.296875 C 5.121094 13.296875 5.15625 13.285156 5.183594 13.257812 C 5.207031 13.230469 5.222656 13.199219 5.21875 13.164062 C 5.21875 13.121094 5.242188 13.078125 5.277344 13.054688 C 5.3125 13.027344 5.355469 13.023438 5.398438 13.039062 L 5.417969 13.039062 C 5.453125 13.050781 5.488281 13.046875 5.519531 13.03125 C 5.550781 13.011719 5.578125 12.988281 5.585938 12.953125 L 6.128906 11.332031 C 6.144531 11.265625 6.109375 11.199219 6.042969 11.171875 Z M 4.792969 12.738281 L 3.1875 12.738281 C 3.113281 12.738281 3.054688 12.679688 3.050781 12.605469 L 3.050781 11.105469 C 3.050781 11.03125 3.113281 10.96875 3.1875 10.96875 L 4.789062 10.96875 C 4.863281 10.972656 4.921875 11.03125 4.921875 11.105469 L 4.921875 12.605469 C 4.925781 12.640625 4.914062 12.679688 4.886719 12.707031 C 4.863281 12.734375 4.828125 12.75 4.789062 12.75 Z M 5.226562 12.4375 L 5.226562 11.316406 C 5.222656 11.273438 5.246094 11.234375 5.28125 11.207031 C 5.316406 11.183594 5.363281 11.175781 5.402344 11.191406 L 5.769531 11.316406 C 5.800781 11.324219 5.828125 11.347656 5.84375 11.378906 C 5.859375 11.414062 5.863281 11.449219 5.851562 11.480469 L 5.5 12.5 C 5.488281 12.535156 5.464844 12.5625 5.433594 12.578125 C 5.402344 12.59375 5.367188 12.597656 5.332031 12.585938 L 5.300781 12.585938 C 5.246094 12.558594 5.210938 12.5 5.21875 12.4375 Z M 5.226562 12.4375 "/>
</g>
</svg>
