
<svg xmlns="http://www.w3.org/2000/svg" xmlns:xlink="http://www.w3.org/1999/xlink" width="16px" height="16px" viewBox="0 0 16 16" version="1.1">
<g id="surface1">
<path style=" stroke:none;fill-rule:nonzero;fill:rgb(49.411765%,34.117647%,76.862745%);fill-opacity:1;" d="M 1.347656 0 L 14.652344 0 C 15.394531 0 16 0.605469 16 1.347656 L 16 14.652344 C 16 15.394531 15.394531 16 14.652344 16 L 1.347656 16 C 0.605469 16 0 15.394531 0 14.652344 L 0 1.347656 C 0 0.605469 0.605469 0 1.347656 0 Z M 1.347656 0 "/>
<path style=" stroke:none;fill-rule:nonzero;fill:rgb(100%,100%,100%);fill-opacity:1;" d="M 13.414062 12.023438 L 2.589844 12.023438 C 2.339844 12.023438 2.140625 11.820312 2.140625 11.574219 L 2.140625 4.425781 C 2.140625 4.175781 2.339844 3.976562 2.589844 3.976562 L 13.414062 3.976562 C 13.660156 3.976562 13.863281 4.175781 13.863281 4.425781 L 13.863281 11.574219 C 13.863281 11.820312 13.660156 12.023438 13.414062 12.023438 Z M 13.414062 12.023438 "/>
<path style=" stroke:none;fill-rule:nonzero;fill:rgb(92.54902%,25.098039%,47.843137%);fill-opacity:1;" d="M 2.589844 3.769531 L 13.410156 3.769531 C 13.773438 3.769531 14.070312 4.0625 14.070312 4.425781 L 14.070312 11.574219 C 14.070312 11.9375 13.773438 12.230469 13.410156 12.230469 L 2.589844 12.230469 C 2.226562 12.230469 1.929688 11.9375 1.929688 11.574219 L 1.929688 4.425781 C 1.929688 4.0625 2.226562 3.769531 2.589844 3.769531 Z M 13.410156 11.816406 C 13.546875 11.816406 13.660156 11.703125 13.660156 11.566406 L 13.660156 4.425781 C 13.660156 4.289062 13.546875 4.175781 13.410156 4.175781 L 2.589844 4.175781 C 2.453125 4.175781 2.339844 4.289062 2.339844 4.425781 L 2.339844 11.574219 C 2.339844 11.710938 2.453125 11.824219 2.589844 11.824219 Z M 13.410156 11.816406 "/>
<path style=" stroke:none;fill-rule:nonzero;fill:rgb(92.54902%,25.098039%,47.843137%);fill-opacity:1;" d="M 14.019531 4.902344 L 2.019531 4.902344 L 2.019531 4.382812 C 2.019531 4.101562 2.242188 3.871094 2.519531 3.863281 L 13.488281 3.863281 C 13.628906 3.859375 13.765625 3.914062 13.863281 4.011719 C 13.964844 4.109375 14.019531 4.242188 14.019531 4.382812 Z M 14.019531 4.902344 "/>
<path style=" stroke:none;fill-rule:nonzero;fill:rgb(100%,100%,100%);fill-opacity:1;" d="M 11.613281 4.398438 C 11.613281 4.570312 11.472656 4.710938 11.300781 4.710938 C 11.125 4.710938 10.984375 4.570312 10.984375 4.398438 C 10.984375 4.222656 11.125 4.082031 11.300781 4.082031 C 11.472656 4.082031 11.613281 4.222656 11.613281 4.398438 Z M 11.613281 4.398438 "/>
<path style=" stroke:none;fill-rule:nonzero;fill:rgb(100%,100%,100%);fill-opacity:1;" d="M 12.667969 4.398438 C 12.667969 4.570312 12.527344 4.710938 12.351562 4.710938 C 12.179688 4.710938 12.039062 4.570312 12.039062 4.398438 C 12.039062 4.222656 12.179688 4.082031 12.351562 4.082031 C 12.527344 4.082031 12.667969 4.222656 12.667969 4.398438 Z M 12.667969 4.398438 "/>
<path style=" stroke:none;fill-rule:nonzero;fill:rgb(100%,100%,100%);fill-opacity:1;" d="M 13.71875 4.398438 C 13.71875 4.570312 13.578125 4.710938 13.40625 4.710938 C 13.230469 4.710938 13.089844 4.570312 13.089844 4.398438 C 13.089844 4.222656 13.230469 4.082031 13.40625 4.082031 C 13.578125 4.082031 13.71875 4.222656 13.71875 4.398438 Z M 13.71875 4.398438 "/>
</g>
</svg>
