
<svg xmlns="http://www.w3.org/2000/svg" xmlns:xlink="http://www.w3.org/1999/xlink" width="16px" height="16px" viewBox="0 0 16 16" version="1.1">
<g id="surface1">
<path style=" stroke:none;fill-rule:nonzero;fill:rgb(37.647059%,41.960784%,50.980392%);fill-opacity:1;" d="M 9.636719 1.636719 C 9.636719 2.542969 8.90625 3.273438 8 3.273438 C 7.09375 3.273438 6.363281 2.542969 6.363281 1.636719 C 6.363281 0.734375 7.09375 0 8 0 C 8.90625 0 9.636719 0.734375 9.636719 1.636719 Z M 9.636719 1.636719 "/>
<path style=" stroke:none;fill-rule:nonzero;fill:rgb(37.647059%,41.960784%,50.980392%);fill-opacity:1;" d="M 10.25 5.796875 L 14.5 3.96875 C 14.9375 3.785156 15.136719 3.277344 14.953125 2.84375 C 14.765625 2.40625 14.261719 2.207031 13.824219 2.390625 L 10.339844 3.890625 C 9.601562 4.207031 8.804688 4.371094 8 4.371094 C 7.1875 4.371094 6.386719 4.203125 5.640625 3.886719 L 2.15625 2.386719 C 1.722656 2.199219 1.21875 2.398438 1.03125 2.835938 C 0.84375 3.269531 1.046875 3.777344 1.484375 3.960938 L 5.628906 5.75 C 5.871094 5.855469 6.03125 6.09375 6.03125 6.359375 L 5.878906 9.359375 C 5.875 9.472656 5.84375 9.578125 5.789062 9.675781 L 2.835938 14.675781 C 2.730469 14.84375 2.699219 15.050781 2.75 15.242188 C 2.800781 15.433594 2.925781 15.597656 3.101562 15.695312 L 3.484375 15.902344 C 3.859375 16.097656 4.324219 15.957031 4.527344 15.585938 L 7.273438 10.75 C 7.40625 10.523438 7.652344 10.382812 7.914062 10.386719 C 8.179688 10.382812 8.421875 10.523438 8.554688 10.75 L 11.304688 15.589844 C 11.507812 15.960938 11.972656 16.101562 12.347656 15.90625 L 12.734375 15.699219 C 12.90625 15.601562 13.03125 15.4375 13.082031 15.246094 C 13.132812 15.054688 13.101562 14.851562 13 14.683594 L 10.089844 9.75 C 10.03125 9.652344 10.003906 9.542969 10 9.429688 L 9.855469 6.40625 C 9.851562 6.144531 10.007812 5.902344 10.25 5.796875 Z M 10.25 5.796875 "/>
</g>
</svg>
