
<svg xmlns="http://www.w3.org/2000/svg" xmlns:xlink="http://www.w3.org/1999/xlink" width="16px" height="16px" viewBox="0 0 16 16" version="1.1">
<g id="surface1">
<path style=" stroke:none;fill-rule:nonzero;fill:rgb(37.647059%,41.960784%,50.980392%);fill-opacity:1;" d="M 14.46875 0.75 L 11.070312 0.75 C 10.40625 0.753906 9.816406 1.1875 9.617188 1.820312 L 0 1.820312 L 0 3.296875 L 9.617188 3.296875 C 9.816406 3.929688 10.402344 4.363281 11.070312 4.367188 L 14.46875 4.367188 C 15.316406 4.363281 16 3.679688 16 2.835938 L 16 2.277344 C 15.996094 1.433594 15.3125 0.753906 14.46875 0.75 Z M 14.46875 0.75 "/>
<path style=" stroke:none;fill-rule:nonzero;fill:rgb(37.647059%,41.960784%,50.980392%);fill-opacity:1;" d="M 1.53125 9.808594 L 4.929688 9.808594 C 5.59375 9.808594 6.175781 9.378906 6.382812 8.75 L 16 8.75 L 16 7.273438 L 6.382812 7.273438 C 6.183594 6.640625 5.59375 6.207031 4.929688 6.203125 L 1.53125 6.203125 C 0.691406 6.207031 0.0078125 6.882812 0 7.722656 L 0 8.28125 C 0.00390625 9.125 0.6875 9.804688 1.53125 9.808594 Z M 1.53125 9.808594 "/>
<path style=" stroke:none;fill-rule:nonzero;fill:rgb(37.647059%,41.960784%,50.980392%);fill-opacity:1;" d="M 14.46875 11.632812 L 11.070312 11.632812 C 10.40625 11.636719 9.816406 12.070312 9.617188 12.703125 L 0 12.703125 L 0 14.179688 L 9.617188 14.179688 C 9.820312 14.8125 10.40625 15.246094 11.070312 15.25 L 14.46875 15.25 C 15.3125 15.25 16 14.5625 16 13.71875 L 16 13.164062 C 15.996094 12.320312 15.3125 11.636719 14.46875 11.632812 Z M 14.46875 11.632812 "/>
</g>
</svg>
