
<svg xmlns="http://www.w3.org/2000/svg" xmlns:xlink="http://www.w3.org/1999/xlink" width="22px" height="22px" viewBox="0 0 22 22" version="1.1">
<defs>
<linearGradient id="linear0" gradientUnits="userSpaceOnUse" x1="32.07" y1="43.53" x2="33.1" y2="13.73" gradientTransform="matrix(0.34375,0,0,0.34375,0,0)">
<stop offset="0" style="stop-color:rgb(83.137255%,83.137255%,83.137255%);stop-opacity:1;"/>
<stop offset="0.55" style="stop-color:rgb(83.921569%,83.921569%,83.921569%);stop-opacity:1;"/>
<stop offset="0.78" style="stop-color:rgb(86.666667%,86.666667%,86.666667%);stop-opacity:1;"/>
<stop offset="0.96" style="stop-color:rgb(91.764706%,91.764706%,91.764706%);stop-opacity:1;"/>
<stop offset="1" style="stop-color:rgb(93.333333%,93.333333%,93.333333%);stop-opacity:1;"/>
</linearGradient>
<linearGradient id="linear1" gradientUnits="userSpaceOnUse" x1="0.79" y1="47.36" x2="63.23" y2="47.36" gradientTransform="matrix(0.34375,0,0,0.34375,0,0)">
<stop offset="0" style="stop-color:rgb(16.078431%,71.372549%,96.470588%);stop-opacity:1;"/>
<stop offset="1" style="stop-color:rgb(49.411765%,34.117647%,76.862745%);stop-opacity:1;"/>
</linearGradient>
</defs>
<g id="surface1">
<path style=" stroke:none;fill-rule:nonzero;fill:url(#linear0);" d="M 21.96875 14.242188 L 21.96875 14.175781 C 21.953125 14.089844 21.925781 14.007812 21.898438 13.925781 L 19.101562 3.863281 L 19.101562 4.054688 C 19.089844 3.3125 18.488281 2.710938 17.746094 2.703125 L 4.234375 2.703125 C 3.613281 2.703125 3.070312 3.125 2.921875 3.734375 L 0.101562 13.925781 C 0.0742188 14.007812 0.0546875 14.089844 0.03125 14.175781 L 0.015625 14.242188 C 0 14.328125 0 14.414062 0 14.507812 L 0 16.871094 C 0 17.878906 0.820312 18.703125 1.832031 18.707031 L 20.164062 18.707031 C 21.171875 18.707031 22 17.886719 22 16.871094 L 22 14.507812 C 21.996094 14.414062 21.984375 14.328125 21.96875 14.242188 Z M 21.96875 14.242188 "/>
<path style=" stroke:none;fill-rule:nonzero;fill:url(#linear1);" d="M 1.835938 13.535156 L 20.167969 13.535156 C 21.03125 13.535156 21.738281 14.234375 21.738281 15.101562 L 21.738281 17.464844 C 21.738281 18.332031 21.03125 19.035156 20.167969 19.035156 L 1.835938 19.035156 C 0.972656 19.035156 0.273438 18.332031 0.273438 17.464844 L 0.273438 15.101562 C 0.273438 14.234375 0.972656 13.535156 1.835938 13.535156 Z M 1.835938 13.535156 "/>
<path style=" stroke:none;fill-rule:nonzero;fill:rgb(94.901961%,94.901961%,94.901961%);fill-opacity:1;" d="M 20.167969 13.796875 C 20.882812 13.796875 21.460938 14.378906 21.46875 15.097656 L 21.46875 17.460938 C 21.46875 18.179688 20.886719 18.761719 20.167969 18.765625 L 1.835938 18.765625 C 1.117188 18.765625 0.539062 18.179688 0.539062 17.460938 L 0.539062 15.097656 C 0.539062 14.378906 1.121094 13.796875 1.835938 13.796875 L 20.167969 13.796875 M 20.167969 13.265625 L 1.835938 13.265625 C 0.828125 13.265625 0.00390625 14.082031 0 15.097656 L 0 17.460938 C 0 18.476562 0.820312 19.296875 1.835938 19.296875 L 20.167969 19.296875 C 21.179688 19.292969 22 18.476562 22 17.460938 L 22 15.097656 C 21.996094 14.089844 21.179688 13.265625 20.167969 13.265625 Z M 20.167969 13.265625 "/>
<path style=" stroke:none;fill-rule:nonzero;fill:rgb(100%,100%,100%);fill-opacity:1;" d="M 19.960938 16.371094 C 19.960938 16.757812 19.640625 17.078125 19.25 17.078125 C 18.859375 17.078125 18.539062 16.757812 18.539062 16.371094 C 18.539062 15.980469 18.859375 15.664062 19.25 15.664062 C 19.640625 15.664062 19.960938 15.980469 19.960938 16.371094 Z M 19.960938 16.371094 "/>
</g>
</svg>
