
<svg xmlns="http://www.w3.org/2000/svg" xmlns:xlink="http://www.w3.org/1999/xlink" width="22px" height="22px" viewBox="0 0 22 22" version="1.1">
<defs>
<linearGradient id="linear0" gradientUnits="userSpaceOnUse" x1="32.9" y1="55.46" x2="32.9" y2="57.44" gradientTransform="matrix(0.34375,0,0,0.34375,0,0)">
<stop offset="0" style="stop-color:rgb(80.392157%,81.568627%,83.921569%);stop-opacity:1;"/>
<stop offset="0.56" style="stop-color:rgb(81.176471%,82.352941%,84.313725%);stop-opacity:1;"/>
<stop offset="0.79" style="stop-color:rgb(83.921569%,84.705882%,86.27451%);stop-opacity:1;"/>
<stop offset="0.97" style="stop-color:rgb(89.019608%,89.019608%,89.411765%);stop-opacity:1;"/>
<stop offset="1" style="stop-color:rgb(90.196078%,90.196078%,90.196078%);stop-opacity:1;"/>
</linearGradient>
<linearGradient id="linear1" gradientUnits="userSpaceOnUse" x1="10.4" y1="2.59" x2="55.09" y2="50.6" gradientTransform="matrix(0.34375,0,0,0.34375,0,0)">
<stop offset="0" style="stop-color:rgb(16.078431%,71.372549%,96.470588%);stop-opacity:1;"/>
<stop offset="0.67" style="stop-color:rgb(39.607843%,45.098039%,82.745098%);stop-opacity:1;"/>
<stop offset="1" style="stop-color:rgb(49.411765%,34.117647%,76.862745%);stop-opacity:1;"/>
</linearGradient>
</defs>
<g id="surface1">
<path style=" stroke:none;fill-rule:nonzero;fill:url(#linear0);" d="M 16.011719 19.632812 L 15.195312 19.632812 C 14.855469 19.632812 14.578125 19.355469 14.578125 19.011719 L 14.578125 16.15625 L 8.046875 16.15625 L 8.046875 19.007812 C 8.046875 19.351562 7.765625 19.625 7.421875 19.625 L 6.605469 19.625 C 6.269531 19.625 5.992188 19.898438 5.992188 20.238281 C 5.992188 20.578125 6.269531 20.851562 6.605469 20.851562 L 16.011719 20.851562 C 16.351562 20.851562 16.625 20.578125 16.625 20.238281 C 16.625 19.90625 16.351562 19.632812 16.011719 19.632812 Z M 16.011719 19.632812 "/>
<path style=" stroke:none;fill-rule:nonzero;fill:url(#linear1);" d="M 1.359375 1.417969 L 20.640625 1.417969 C 21.238281 1.417969 21.71875 1.90625 21.71875 2.503906 L 21.71875 15.230469 C 21.71875 15.828125 21.238281 16.3125 20.640625 16.3125 L 1.359375 16.3125 C 0.761719 16.3125 0.28125 15.828125 0.28125 15.230469 L 0.28125 2.503906 C 0.28125 1.90625 0.761719 1.417969 1.359375 1.417969 Z M 1.359375 1.417969 "/>
<path style=" stroke:none;fill-rule:nonzero;fill:rgb(90.196078%,90.196078%,90.196078%);fill-opacity:1;" d="M 20.640625 1.695312 C 20.855469 1.695312 21.058594 1.78125 21.210938 1.933594 C 21.359375 2.082031 21.441406 2.289062 21.441406 2.503906 L 21.441406 15.222656 C 21.441406 15.4375 21.359375 15.640625 21.210938 15.789062 C 21.058594 15.941406 20.855469 16.027344 20.640625 16.027344 L 1.375 16.027344 C 1.160156 16.027344 0.957031 15.941406 0.804688 15.789062 C 0.65625 15.640625 0.570312 15.4375 0.570312 15.222656 L 0.570312 2.503906 C 0.570312 2.058594 0.929688 1.695312 1.375 1.695312 L 20.640625 1.695312 M 20.640625 1.144531 L 1.375 1.144531 C 0.617188 1.144531 0 1.761719 0 2.519531 L 0 15.238281 C 0 16 0.617188 16.613281 1.375 16.613281 L 20.640625 16.613281 C 21.402344 16.613281 22.015625 16 22.015625 15.238281 L 22.015625 2.519531 C 22.003906 1.765625 21.394531 1.160156 20.640625 1.160156 Z M 20.640625 1.144531 "/>
<path style=" stroke:none;fill-rule:nonzero;fill:rgb(90.196078%,90.196078%,90.196078%);fill-opacity:1;" d="M 20.742188 16.242188 L 1.21875 16.242188 C 0.972656 16.242188 0.734375 16.144531 0.5625 15.96875 C 0.386719 15.796875 0.289062 15.558594 0.289062 15.3125 L 0.289062 14.382812 L 21.671875 14.382812 L 21.671875 15.3125 C 21.671875 15.828125 21.257812 16.242188 20.742188 16.242188 Z M 20.742188 16.242188 "/>
</g>
</svg>
