
<svg xmlns="http://www.w3.org/2000/svg" xmlns:xlink="http://www.w3.org/1999/xlink" width="128px" height="128px" viewBox="0 0 128 128" version="1.1">
<g id="surface1">
<path style=" stroke:none;fill-rule:nonzero;fill:rgb(100%,100%,100%);fill-opacity:1;" d="M 91.621094 34 C 89.097656 32.289062 85.707031 32.660156 83.621094 34.878906 L 71.621094 46.878906 C 69.28125 49.222656 69.28125 53.015625 71.621094 55.359375 C 72.746094 56.488281 74.273438 57.125 75.871094 57.125 C 77.464844 57.125 78.996094 56.488281 80.121094 55.359375 L 92.398438 43.199219 C 93.671875 41.949219 94.320312 40.195312 94.167969 38.417969 C 94.019531 36.636719 93.085938 35.019531 91.621094 34 Z M 91.621094 34 "/>
<path style=" stroke:none;fill-rule:nonzero;fill:rgb(100%,100%,100%);fill-opacity:1;" d="M 51.121094 62.960938 C 50.503906 60.019531 47.882812 57.9375 44.878906 58 L 14.878906 58 C 11.566406 58 8.878906 60.6875 8.878906 64 C 8.878906 67.3125 11.566406 70 14.878906 70 L 45.199219 70 C 46.976562 70.003906 48.660156 69.21875 49.804688 67.863281 C 50.945312 66.503906 51.425781 64.707031 51.121094 62.960938 Z M 51.121094 62.960938 "/>
<path style=" stroke:none;fill-rule:nonzero;fill:rgb(100%,100%,100%);fill-opacity:1;" d="M 63.378906 56.78125 C 67.40625 57.007812 70.488281 60.449219 70.265625 64.476562 C 70.039062 68.503906 66.59375 71.585938 62.570312 71.359375 C 58.542969 71.136719 55.460938 67.691406 55.6875 63.667969 C 55.910156 59.640625 59.355469 56.558594 63.378906 56.78125 Z M 63.378906 56.78125 "/>
<path style=" stroke:none;fill-rule:nonzero;fill:rgb(100%,100%,100%);fill-opacity:1;" d="M 108.300781 18.699219 C 83.746094 -5.832031 44.109375 -6.320312 18.960938 17.601562 L 18.160156 18.398438 L 17.78125 18.738281 L 17.621094 18.941406 L 1.859375 34.621094 C 1.011719 35.457031 0.742188 36.71875 1.179688 37.828125 C 1.613281 38.9375 2.667969 39.683594 3.859375 39.71875 L 33.859375 39.71875 C 35.050781 39.683594 36.105469 38.9375 36.542969 37.828125 C 36.976562 36.71875 36.707031 35.457031 35.859375 34.621094 L 27.320312 26.101562 C 48.105469 6.585938 80.726562 7.449219 100.453125 28.03125 C 120.179688 48.613281 119.65625 81.242188 99.277344 101.179688 C 78.898438 121.117188 46.265625 120.929688 26.121094 100.761719 C 23.777344 98.414062 19.976562 98.410156 17.628906 100.75 C 15.28125 103.089844 15.277344 106.894531 17.621094 109.238281 C 42.621094 134.28125 83.1875 134.3125 108.230469 109.308594 C 133.269531 84.308594 133.300781 43.742188 108.300781 18.699219 Z M 108.300781 18.699219 "/>
</g>
</svg>
