
<svg xmlns="http://www.w3.org/2000/svg" xmlns:xlink="http://www.w3.org/1999/xlink" width="48px" height="48px" viewBox="0 0 48 48" version="1.1">
<defs>
<clipPath id="clip1">
  <path d="M 23 6.5 L 24.5 6.5 L 24.5 11.5 L 23 11.5 Z M 23 6.5 "/>
</clipPath>
<clipPath id="clip2">
  <path d="M 41.453125 24 C 41.453125 33.640625 33.640625 41.453125 24 41.453125 C 14.359375 41.453125 6.546875 33.640625 6.546875 24 C 6.546875 14.359375 14.359375 6.546875 24 6.546875 C 33.640625 6.546875 41.453125 14.359375 41.453125 24 Z M 41.453125 24 "/>
</clipPath>
<clipPath id="clip3">
  <path d="M 23 36.5 L 24.5 36.5 L 24.5 41.5 L 23 41.5 Z M 23 36.5 "/>
</clipPath>
<clipPath id="clip4">
  <path d="M 41.453125 24 C 41.453125 33.640625 33.640625 41.453125 24 41.453125 C 14.359375 41.453125 6.546875 33.640625 6.546875 24 C 6.546875 14.359375 14.359375 6.546875 24 6.546875 C 33.640625 6.546875 41.453125 14.359375 41.453125 24 Z M 41.453125 24 "/>
</clipPath>
<clipPath id="clip5">
  <path d="M 36.5 23.5 L 41.5 23.5 L 41.5 25 L 36.5 25 Z M 36.5 23.5 "/>
</clipPath>
<clipPath id="clip6">
  <path d="M 41.453125 24 C 41.453125 33.640625 33.640625 41.453125 24 41.453125 C 14.359375 41.453125 6.546875 33.640625 6.546875 24 C 6.546875 14.359375 14.359375 6.546875 24 6.546875 C 33.640625 6.546875 41.453125 14.359375 41.453125 24 Z M 41.453125 24 "/>
</clipPath>
<clipPath id="clip7">
  <path d="M 6.5 23.5 L 11 23.5 L 11 24.5 L 6.5 24.5 Z M 6.5 23.5 "/>
</clipPath>
<clipPath id="clip8">
  <path d="M 41.453125 24 C 41.453125 33.640625 33.640625 41.453125 24 41.453125 C 14.359375 41.453125 6.546875 33.640625 6.546875 24 C 6.546875 14.359375 14.359375 6.546875 24 6.546875 C 33.640625 6.546875 41.453125 14.359375 41.453125 24 Z M 41.453125 24 "/>
</clipPath>
<clipPath id="clip9">
  <path d="M 36 31 L 41.5 31 L 41.5 37 L 36 37 Z M 36 31 "/>
</clipPath>
<clipPath id="clip10">
  <path d="M 41.453125 24 C 41.453125 33.640625 33.640625 41.453125 24 41.453125 C 14.359375 41.453125 6.546875 33.640625 6.546875 24 C 6.546875 14.359375 14.359375 6.546875 24 6.546875 C 33.640625 6.546875 41.453125 14.359375 41.453125 24 Z M 41.453125 24 "/>
</clipPath>
<clipPath id="clip11">
  <path d="M 6.5 11 L 11.5 11 L 11.5 17 L 6.5 17 Z M 6.5 11 "/>
</clipPath>
<clipPath id="clip12">
  <path d="M 41.453125 24 C 41.453125 33.640625 33.640625 41.453125 24 41.453125 C 14.359375 41.453125 6.546875 33.640625 6.546875 24 C 6.546875 14.359375 14.359375 6.546875 24 6.546875 C 33.640625 6.546875 41.453125 14.359375 41.453125 24 Z M 41.453125 24 "/>
</clipPath>
<clipPath id="clip13">
  <path d="M 30 36.5 L 35.5 36.5 L 35.5 41.5 L 30 41.5 Z M 30 36.5 "/>
</clipPath>
<clipPath id="clip14">
  <path d="M 41.453125 24 C 41.453125 33.640625 33.640625 41.453125 24 41.453125 C 14.359375 41.453125 6.546875 33.640625 6.546875 24 C 6.546875 14.359375 14.359375 6.546875 24 6.546875 C 33.640625 6.546875 41.453125 14.359375 41.453125 24 Z M 41.453125 24 "/>
</clipPath>
<clipPath id="clip15">
  <path d="M 12 6.5 L 17.5 6.5 L 17.5 11.5 L 12 11.5 Z M 12 6.5 "/>
</clipPath>
<clipPath id="clip16">
  <path d="M 41.453125 24 C 41.453125 33.640625 33.640625 41.453125 24 41.453125 C 14.359375 41.453125 6.546875 33.640625 6.546875 24 C 6.546875 14.359375 14.359375 6.546875 24 6.546875 C 33.640625 6.546875 41.453125 14.359375 41.453125 24 Z M 41.453125 24 "/>
</clipPath>
<clipPath id="clip17">
  <path d="M 6.5 31 L 11.5 31 L 11.5 37 L 6.5 37 Z M 6.5 31 "/>
</clipPath>
<clipPath id="clip18">
  <path d="M 41.453125 24 C 41.453125 33.640625 33.640625 41.453125 24 41.453125 C 14.359375 41.453125 6.546875 33.640625 6.546875 24 C 6.546875 14.359375 14.359375 6.546875 24 6.546875 C 33.640625 6.546875 41.453125 14.359375 41.453125 24 Z M 41.453125 24 "/>
</clipPath>
<clipPath id="clip19">
  <path d="M 36 11 L 41.5 11 L 41.5 17 L 36 17 Z M 36 11 "/>
</clipPath>
<clipPath id="clip20">
  <path d="M 41.453125 24 C 41.453125 33.640625 33.640625 41.453125 24 41.453125 C 14.359375 41.453125 6.546875 33.640625 6.546875 24 C 6.546875 14.359375 14.359375 6.546875 24 6.546875 C 33.640625 6.546875 41.453125 14.359375 41.453125 24 Z M 41.453125 24 "/>
</clipPath>
<clipPath id="clip21">
  <path d="M 12 36.5 L 17.5 36.5 L 17.5 41.5 L 12 41.5 Z M 12 36.5 "/>
</clipPath>
<clipPath id="clip22">
  <path d="M 41.453125 24 C 41.453125 33.640625 33.640625 41.453125 24 41.453125 C 14.359375 41.453125 6.546875 33.640625 6.546875 24 C 6.546875 14.359375 14.359375 6.546875 24 6.546875 C 33.640625 6.546875 41.453125 14.359375 41.453125 24 Z M 41.453125 24 "/>
</clipPath>
<clipPath id="clip23">
  <path d="M 30 6.5 L 35.5 6.5 L 35.5 11.5 L 30 11.5 Z M 30 6.5 "/>
</clipPath>
<clipPath id="clip24">
  <path d="M 41.453125 24 C 41.453125 33.640625 33.640625 41.453125 24 41.453125 C 14.359375 41.453125 6.546875 33.640625 6.546875 24 C 6.546875 14.359375 14.359375 6.546875 24 6.546875 C 33.640625 6.546875 41.453125 14.359375 41.453125 24 Z M 41.453125 24 "/>
</clipPath>
</defs>
<g id="surface1">
<path style=" stroke:none;fill-rule:nonzero;fill:rgb(91.764706%,92.156863%,93.72549%);fill-opacity:1;" d="M 4.042969 0 L 43.957031 0 C 46.1875 0 48 1.8125 48 4.042969 L 48 43.957031 C 48 46.1875 46.1875 48 43.957031 48 L 4.042969 48 C 1.8125 48 0 46.1875 0 43.957031 L 0 4.042969 C 0 1.8125 1.8125 0 4.042969 0 Z M 4.042969 0 "/>
<path style=" stroke:none;fill-rule:nonzero;fill:rgb(49.411765%,34.117647%,76.862745%);fill-opacity:1;" d="M 41.453125 24 C 41.453125 33.640625 33.640625 41.453125 24 41.453125 C 14.359375 41.453125 6.546875 33.640625 6.546875 24 C 6.546875 14.359375 14.359375 6.546875 24 6.546875 C 33.640625 6.546875 41.453125 14.359375 41.453125 24 Z M 41.453125 24 "/>
<path style=" stroke:none;fill-rule:nonzero;fill:rgb(100%,100%,100%);fill-opacity:1;" d="M 23.828125 13.972656 C 24.140625 13.972656 24.390625 14.226562 24.390625 14.535156 L 24.390625 23.570312 C 24.390625 23.882812 24.140625 24.132812 23.828125 24.132812 C 23.515625 24.132812 23.265625 23.882812 23.265625 23.570312 L 23.265625 14.535156 C 23.265625 14.226562 23.515625 13.972656 23.828125 13.972656 Z M 23.828125 13.972656 "/>
<path style=" stroke:none;fill-rule:nonzero;fill:rgb(100%,40%,84.313725%);fill-opacity:1;" d="M 24.273438 24.070312 L 33.574219 33.375 C 33.671875 33.472656 33.671875 33.632812 33.574219 33.734375 C 33.476562 33.835938 33.3125 33.835938 33.214844 33.734375 L 23.910156 24.433594 C 23.8125 24.335938 23.8125 24.171875 23.910156 24.070312 C 24.007812 23.972656 24.171875 23.972656 24.273438 24.070312 Z M 24.273438 24.070312 "/>
<path style=" stroke:none;fill-rule:nonzero;fill:rgb(100%,100%,100%);fill-opacity:1;" d="M 24.867188 24 C 24.867188 24.542969 24.429688 24.984375 23.886719 24.984375 C 23.34375 24.984375 22.90625 24.542969 22.90625 24 C 22.90625 23.457031 23.34375 23.015625 23.886719 23.015625 C 24.429688 23.015625 24.867188 23.457031 24.867188 24 Z M 24.867188 24 "/>
<g clip-path="url(#clip1)" clip-rule="nonzero">
<g clip-path="url(#clip2)" clip-rule="nonzero">
<path style=" stroke:none;fill-rule:nonzero;fill:rgb(100%,100%,100%);fill-opacity:1;" d="M 23.828125 2.179688 C 24.101562 2.179688 24.320312 2.40625 24.320312 2.679688 L 24.320312 10.640625 C 24.320312 10.914062 24.101562 11.136719 23.828125 11.136719 C 23.554688 11.136719 23.332031 10.914062 23.332031 10.640625 L 23.332031 2.679688 C 23.332031 2.40625 23.554688 2.179688 23.828125 2.179688 Z M 23.828125 2.179688 "/>
</g>
</g>
<g clip-path="url(#clip3)" clip-rule="nonzero">
<g clip-path="url(#clip4)" clip-rule="nonzero">
<path style=" stroke:none;fill-rule:nonzero;fill:rgb(100%,100%,100%);fill-opacity:1;" d="M 23.828125 36.863281 C 24.101562 36.863281 24.320312 37.085938 24.320312 37.359375 L 24.320312 45.320312 C 24.320312 45.59375 24.101562 45.820312 23.828125 45.820312 C 23.554688 45.820312 23.332031 45.59375 23.332031 45.320312 L 23.332031 37.359375 C 23.332031 37.085938 23.554688 36.863281 23.828125 36.863281 Z M 23.828125 36.863281 "/>
</g>
</g>
<g clip-path="url(#clip5)" clip-rule="nonzero">
<g clip-path="url(#clip6)" clip-rule="nonzero">
<path style=" stroke:none;fill-rule:nonzero;fill:rgb(100%,100%,100%);fill-opacity:1;" d="M 45.644531 24.007812 C 45.644531 24.28125 45.421875 24.5 45.148438 24.5 L 37.1875 24.5 C 36.914062 24.5 36.6875 24.28125 36.6875 24.007812 C 36.6875 23.734375 36.914062 23.511719 37.1875 23.511719 L 45.148438 23.511719 C 45.421875 23.511719 45.644531 23.734375 45.644531 24.007812 Z M 45.644531 24.007812 "/>
</g>
</g>
<g clip-path="url(#clip7)" clip-rule="nonzero">
<g clip-path="url(#clip8)" clip-rule="nonzero">
<path style=" stroke:none;fill-rule:nonzero;fill:rgb(100%,100%,100%);fill-opacity:1;" d="M 10.964844 24 C 10.964844 24.273438 10.742188 24.492188 10.46875 24.492188 L 2.507812 24.492188 C 2.234375 24.492188 2.007812 24.273438 2.007812 24 C 2.007812 23.726562 2.234375 23.507812 2.507812 23.507812 L 10.46875 23.507812 C 10.742188 23.507812 10.964844 23.726562 10.964844 24 Z M 10.964844 24 "/>
</g>
</g>
<g clip-path="url(#clip9)" clip-rule="nonzero">
<g clip-path="url(#clip10)" clip-rule="nonzero">
<path style=" stroke:none;fill-rule:nonzero;fill:rgb(100%,100%,100%);fill-opacity:1;" d="M 45.21875 36.480469 C 45.167969 36.570312 45.054688 36.597656 44.964844 36.546875 L 36.511719 31.609375 C 36.421875 31.558594 36.390625 31.445312 36.445312 31.359375 C 36.492188 31.273438 36.609375 31.242188 36.695312 31.296875 L 45.148438 36.226562 C 45.242188 36.28125 45.273438 36.394531 45.21875 36.480469 Z M 45.21875 36.480469 "/>
</g>
</g>
<g clip-path="url(#clip11)" clip-rule="nonzero">
<g clip-path="url(#clip12)" clip-rule="nonzero">
<path style=" stroke:none;fill-rule:nonzero;fill:rgb(100%,100%,100%);fill-opacity:1;" d="M 11.214844 16.640625 C 11.164062 16.730469 11.046875 16.757812 10.960938 16.707031 L 2.507812 11.773438 C 2.417969 11.71875 2.386719 11.609375 2.4375 11.523438 C 2.488281 11.433594 2.601562 11.40625 2.691406 11.457031 L 11.144531 16.390625 C 11.234375 16.441406 11.265625 16.554688 11.214844 16.640625 Z M 11.214844 16.640625 "/>
</g>
</g>
<g clip-path="url(#clip13)" clip-rule="nonzero">
<g clip-path="url(#clip14)" clip-rule="nonzero">
<path style=" stroke:none;fill-rule:nonzero;fill:rgb(100%,100%,100%);fill-opacity:1;" d="M 35.101562 46.058594 C 35.015625 46.105469 34.898438 46.070312 34.851562 45.976562 L 30.402344 37.257812 C 30.355469 37.164062 30.390625 37.054688 30.484375 37.007812 C 30.570312 36.960938 30.683594 37 30.730469 37.09375 L 35.179688 45.808594 C 35.226562 45.898438 35.195312 46.015625 35.101562 46.058594 Z M 35.101562 46.058594 "/>
</g>
</g>
<g clip-path="url(#clip15)" clip-rule="nonzero">
<g clip-path="url(#clip16)" clip-rule="nonzero">
<path style=" stroke:none;fill-rule:nonzero;fill:rgb(100%,100%,100%);fill-opacity:1;" d="M 17.179688 11.007812 C 17.089844 11.054688 16.976562 11.015625 16.929688 10.925781 L 12.480469 2.210938 C 12.433594 2.117188 12.46875 2.003906 12.558594 1.960938 C 12.648438 1.914062 12.761719 1.949219 12.808594 2.042969 L 17.257812 10.757812 C 17.304688 10.851562 17.273438 10.960938 17.179688 11.007812 Z M 17.179688 11.007812 "/>
</g>
</g>
<g clip-path="url(#clip17)" clip-rule="nonzero">
<g clip-path="url(#clip18)" clip-rule="nonzero">
<path style=" stroke:none;fill-rule:nonzero;fill:rgb(100%,100%,100%);fill-opacity:1;" d="M 11.21875 31.355469 C 11.269531 31.445312 11.238281 31.554688 11.148438 31.609375 L 2.695312 36.539062 C 2.605469 36.59375 2.492188 36.5625 2.441406 36.476562 C 2.390625 36.390625 2.421875 36.277344 2.507812 36.226562 L 10.960938 31.289062 C 11.054688 31.238281 11.164062 31.265625 11.21875 31.355469 Z M 11.21875 31.355469 "/>
</g>
</g>
<g clip-path="url(#clip19)" clip-rule="nonzero">
<g clip-path="url(#clip20)" clip-rule="nonzero">
<path style=" stroke:none;fill-rule:nonzero;fill:rgb(100%,100%,100%);fill-opacity:1;" d="M 45.082031 11.339844 C 45.132812 11.425781 45.101562 11.539062 45.011719 11.59375 L 36.59375 16.484375 C 36.507812 16.539062 36.390625 16.507812 36.34375 16.421875 C 36.289062 16.335938 36.320312 16.21875 36.414062 16.167969 L 44.828125 11.273438 C 44.917969 11.222656 45.03125 11.25 45.082031 11.339844 Z M 45.082031 11.339844 "/>
</g>
</g>
<g clip-path="url(#clip21)" clip-rule="nonzero">
<g clip-path="url(#clip22)" clip-rule="nonzero">
<path style=" stroke:none;fill-rule:nonzero;fill:rgb(100%,100%,100%);fill-opacity:1;" d="M 17.179688 37.003906 C 17.269531 37.050781 17.304688 37.164062 17.257812 37.257812 L 12.804688 45.972656 C 12.757812 46.0625 12.648438 46.101562 12.554688 46.054688 C 12.46875 46.007812 12.429688 45.898438 12.476562 45.804688 L 16.929688 37.085938 C 16.976562 36.996094 17.085938 36.960938 17.179688 37.003906 Z M 17.179688 37.003906 "/>
</g>
</g>
<g clip-path="url(#clip23)" clip-rule="nonzero">
<g clip-path="url(#clip24)" clip-rule="nonzero">
<path style=" stroke:none;fill-rule:nonzero;fill:rgb(100%,100%,100%);fill-opacity:1;" d="M 35.09375 1.953125 C 35.179688 2 35.21875 2.109375 35.171875 2.203125 L 30.71875 10.921875 C 30.671875 11.011719 30.5625 11.046875 30.46875 11 C 30.378906 10.957031 30.34375 10.84375 30.390625 10.75 L 34.84375 2.035156 C 34.890625 1.945312 35 1.90625 35.09375 1.953125 Z M 35.09375 1.953125 "/>
</g>
</g>
</g>
</svg>
