
<svg xmlns="http://www.w3.org/2000/svg" xmlns:xlink="http://www.w3.org/1999/xlink" width="48px" height="48px" viewBox="0 0 48 48" version="1.1">
<defs>
<linearGradient id="linear0" gradientUnits="userSpaceOnUse" x1="32.86" y1="52.99" x2="32.86" y2="54.6" gradientTransform="matrix(0.75,0,0,0.75,-0.0975,0.0375)">
<stop offset="0" style="stop-color:rgb(86.27451%,87.058824%,88.627451%);stop-opacity:1;"/>
<stop offset="0.57" style="stop-color:rgb(87.058824%,87.843137%,89.411765%);stop-opacity:1;"/>
<stop offset="0.81" style="stop-color:rgb(89.803922%,90.588235%,91.764706%);stop-opacity:1;"/>
<stop offset="0.99" style="stop-color:rgb(94.901961%,95.294118%,95.686275%);stop-opacity:1;"/>
<stop offset="1" style="stop-color:rgb(95.294118%,95.686275%,96.078431%);stop-opacity:1;"/>
</linearGradient>
</defs>
<g id="surface1">
<path style=" stroke:none;fill-rule:nonzero;fill:rgb(36.078431%,41.960784%,75.294118%);fill-opacity:1;" d="M 4.042969 0 L 43.957031 0 C 46.1875 0 48 1.8125 48 4.042969 L 48 43.957031 C 48 46.1875 46.1875 48 43.957031 48 L 4.042969 48 C 1.8125 48 0 46.1875 0 43.957031 L 0 4.042969 C 0 1.8125 1.8125 0 4.042969 0 Z M 4.042969 0 "/>
<path style=" stroke:none;fill-rule:nonzero;fill:url(#linear0);" d="M 32.910156 40.792969 L 31.5 40.792969 C 30.890625 40.792969 30.398438 40.296875 30.398438 39.6875 L 30.398438 34.613281 L 18.75 34.613281 L 18.75 39.679688 C 18.75 40.289062 18.257812 40.785156 17.648438 40.785156 L 16.1875 40.785156 C 15.585938 40.785156 15.097656 41.273438 15.097656 41.875 C 15.097656 42.472656 15.585938 42.960938 16.1875 42.960938 L 32.910156 42.960938 C 33.199219 42.960938 33.476562 42.847656 33.683594 42.644531 C 33.890625 42.4375 34.007812 42.164062 34.007812 41.875 C 34 41.273438 33.507812 40.789062 32.910156 40.792969 Z M 32.910156 40.792969 "/>
<path style=" stroke:none;fill-rule:nonzero;fill:rgb(16.078431%,71.372549%,96.470588%);fill-opacity:1;" d="M 6.855469 8.894531 L 41.144531 8.894531 C 41.9375 8.894531 42.578125 9.539062 42.578125 10.328125 L 42.578125 32.960938 C 42.578125 33.753906 41.9375 34.394531 41.144531 34.394531 L 6.855469 34.394531 C 6.0625 34.394531 5.421875 33.753906 5.421875 32.960938 L 5.421875 10.328125 C 5.421875 9.539062 6.0625 8.894531 6.855469 8.894531 Z M 6.855469 8.894531 "/>
<path style=" stroke:none;fill-rule:nonzero;fill:rgb(100%,100%,100%);fill-opacity:1;" d="M 41.144531 35.054688 L 6.855469 35.054688 C 5.710938 35.054688 4.78125 34.140625 4.761719 33 L 4.761719 10.328125 C 4.773438 9.179688 5.703125 8.25 6.855469 8.25 L 41.144531 8.25 C 42.300781 8.25 43.238281 9.1875 43.238281 10.34375 L 43.238281 33 C 43.21875 34.140625 42.289062 35.054688 41.144531 35.054688 Z M 6.855469 9.554688 C 6.441406 9.554688 6.105469 9.890625 6.105469 10.304688 L 6.105469 33 C 6.105469 33.414062 6.441406 33.75 6.855469 33.75 L 41.144531 33.75 C 41.558594 33.75 41.894531 33.414062 41.894531 33 L 41.894531 10.328125 C 41.894531 9.914062 41.558594 9.578125 41.144531 9.578125 Z M 6.855469 9.554688 "/>
<path style=" stroke:none;fill-rule:nonzero;fill:rgb(100%,100%,100%);fill-opacity:1;" d="M 4.949219 31.5 L 42.984375 31.5 L 42.984375 33.148438 C 42.984375 34.0625 42.242188 34.800781 41.332031 34.800781 L 6.601562 34.800781 C 5.6875 34.800781 4.949219 34.0625 4.949219 33.148438 Z M 4.949219 31.5 "/>
<path style=" stroke:none;fill-rule:nonzero;fill:rgb(100%,100%,100%);fill-opacity:1;" d="M 31.027344 19.417969 C 30.859375 19.273438 30.648438 19.203125 30.429688 19.222656 C 29.78125 19.273438 29.175781 18.898438 28.929688 18.300781 C 28.671875 17.714844 28.804688 17.035156 29.25 16.582031 C 29.683594 16.144531 29.683594 15.4375 29.25 15 C 29.054688 14.796875 28.78125 14.679688 28.5 14.679688 C 28.1875 14.683594 27.882812 14.800781 27.644531 15.007812 C 27.332031 15.265625 26.941406 15.410156 26.535156 15.421875 C 26.371094 15.421875 26.207031 15.390625 26.054688 15.328125 C 25.527344 15.074219 25.171875 14.5625 25.109375 13.980469 C 25.136719 13.410156 24.726562 12.914062 24.164062 12.824219 L 23.773438 12.824219 C 23.25 12.921875 22.875 13.386719 22.890625 13.921875 C 22.921875 14.546875 22.554688 15.132812 21.976562 15.375 C 21.777344 15.453125 21.566406 15.5 21.351562 15.5 C 20.945312 15.5 20.550781 15.351562 20.25 15.074219 C 20.027344 14.867188 19.734375 14.75 19.429688 14.742188 C 19.148438 14.746094 18.882812 14.859375 18.679688 15.0625 C 18.25 15.492188 18.25 16.195312 18.679688 16.625 C 19.125 17.058594 19.265625 17.710938 19.050781 18.285156 C 18.835938 18.882812 18.261719 19.28125 17.625 19.273438 C 17.070312 19.265625 16.59375 19.660156 16.5 20.203125 L 16.5 20.554688 C 16.515625 20.617188 16.535156 20.671875 16.5625 20.730469 C 16.707031 21.171875 17.117188 21.472656 17.578125 21.480469 C 18.230469 21.40625 18.851562 21.757812 19.121094 22.359375 C 19.390625 22.953125 19.238281 23.65625 18.75 24.089844 C 18.34375 24.527344 18.34375 25.203125 18.75 25.640625 C 18.949219 25.84375 19.21875 25.960938 19.5 25.964844 C 19.773438 25.957031 20.039062 25.851562 20.25 25.671875 C 20.554688 25.375 20.957031 25.195312 21.382812 25.1875 C 21.566406 25.183594 21.75 25.21875 21.921875 25.28125 C 22.523438 25.515625 22.921875 26.09375 22.921875 26.738281 C 22.921875 27.28125 23.3125 27.746094 23.851562 27.839844 L 24.125 27.839844 L 24.300781 27.75 C 24.523438 27.640625 24.738281 27.507812 24.9375 27.351562 C 25.085938 27.148438 25.164062 26.90625 25.15625 26.65625 C 25.203125 26.09375 25.515625 25.585938 26 25.296875 C 26.179688 25.207031 26.375 25.160156 26.570312 25.164062 C 26.976562 25.171875 27.363281 25.320312 27.675781 25.574219 C 27.914062 25.78125 28.214844 25.898438 28.53125 25.90625 C 28.8125 25.902344 29.078125 25.792969 29.28125 25.597656 C 29.714844 25.144531 29.714844 24.429688 29.28125 23.976562 C 28.964844 23.585938 28.828125 23.085938 28.90625 22.589844 C 29.0625 21.953125 29.609375 21.492188 30.261719 21.449219 C 30.851562 21.496094 31.382812 21.09375 31.5 20.511719 L 31.5 20.25 L 31.410156 20.078125 C 31.304688 19.84375 31.179688 19.625 31.027344 19.417969 Z M 24.007812 23.167969 C 22.867188 23.171875 21.835938 22.484375 21.398438 21.429688 C 20.957031 20.375 21.199219 19.160156 22.007812 18.351562 C 22.8125 17.546875 24.027344 17.304688 25.082031 17.742188 C 26.136719 18.179688 26.820312 19.210938 26.820312 20.355469 C 26.789062 21.898438 25.539062 23.132812 24 23.144531 Z M 24.007812 23.167969 "/>
<path style=" stroke:none;fill-rule:nonzero;fill:rgb(100%,100%,100%);fill-opacity:1;" d="M 24 18.875 C 23.410156 18.871094 22.875 19.222656 22.644531 19.765625 C 22.414062 20.3125 22.539062 20.9375 22.953125 21.359375 C 23.367188 21.777344 24 21.902344 24.542969 21.675781 C 25.085938 21.449219 25.445312 20.914062 25.4375 20.324219 C 25.414062 19.539062 24.785156 18.90625 24 18.875 Z M 24 18.875 "/>
</g>
</svg>
