
<svg xmlns="http://www.w3.org/2000/svg" xmlns:xlink="http://www.w3.org/1999/xlink" width="48px" height="48px" viewBox="0 0 48 48" version="1.1">
<defs>
<linearGradient id="linear0" gradientUnits="userSpaceOnUse" x1="32.85" y1="53" x2="32.85" y2="54.61" gradientTransform="matrix(0.75,0,0,0.75,-0.09,0.0375)">
<stop offset="0" style="stop-color:rgb(86.27451%,87.058824%,88.627451%);stop-opacity:1;"/>
<stop offset="0.57" style="stop-color:rgb(87.058824%,87.843137%,89.411765%);stop-opacity:1;"/>
<stop offset="0.81" style="stop-color:rgb(89.803922%,90.588235%,91.764706%);stop-opacity:1;"/>
<stop offset="0.99" style="stop-color:rgb(94.901961%,95.294118%,95.686275%);stop-opacity:1;"/>
<stop offset="1" style="stop-color:rgb(95.294118%,95.686275%,96.078431%);stop-opacity:1;"/>
</linearGradient>
</defs>
<g id="surface1">
<path style=" stroke:none;fill-rule:nonzero;fill:rgb(49.411765%,34.117647%,76.862745%);fill-opacity:1;" d="M 4.042969 0 L 43.957031 0 C 46.1875 0 48 1.8125 48 4.042969 L 48 43.957031 C 48 46.1875 46.1875 48 43.957031 48 L 4.042969 48 C 1.8125 48 0 46.1875 0 43.957031 L 0 4.042969 C 0 1.8125 1.8125 0 4.042969 0 Z M 4.042969 0 "/>
<path style=" stroke:none;fill-rule:nonzero;fill:url(#linear0);" d="M 32.910156 40.792969 L 31.5 40.792969 C 30.890625 40.792969 30.398438 40.296875 30.398438 39.6875 L 30.398438 34.613281 L 18.75 34.613281 L 18.75 39.679688 C 18.75 40.289062 18.257812 40.785156 17.648438 40.785156 L 16.1875 40.785156 C 15.585938 40.785156 15.097656 41.273438 15.097656 41.875 C 15.097656 42.472656 15.585938 42.960938 16.1875 42.960938 L 32.910156 42.960938 C 33.199219 42.960938 33.476562 42.847656 33.683594 42.644531 C 33.890625 42.4375 34.007812 42.164062 34.007812 41.875 C 34 41.273438 33.507812 40.789062 32.910156 40.792969 Z M 32.910156 40.792969 "/>
<path style=" stroke:none;fill-rule:nonzero;fill:rgb(92.54902%,25.098039%,47.843137%);fill-opacity:1;" d="M 6.855469 8.894531 L 41.144531 8.894531 C 41.9375 8.894531 42.578125 9.539062 42.578125 10.328125 L 42.578125 32.960938 C 42.578125 33.753906 41.9375 34.394531 41.144531 34.394531 L 6.855469 34.394531 C 6.0625 34.394531 5.421875 33.753906 5.421875 32.960938 L 5.421875 10.328125 C 5.421875 9.539062 6.0625 8.894531 6.855469 8.894531 Z M 6.855469 8.894531 "/>
<path style=" stroke:none;fill-rule:nonzero;fill:rgb(100%,100%,100%);fill-opacity:1;" d="M 41.144531 35.054688 L 6.855469 35.054688 C 5.710938 35.054688 4.78125 34.140625 4.761719 33 L 4.761719 10.328125 C 4.773438 9.179688 5.703125 8.25 6.855469 8.25 L 41.144531 8.25 C 42.300781 8.25 43.238281 9.1875 43.238281 10.34375 L 43.238281 33 C 43.21875 34.140625 42.289062 35.054688 41.144531 35.054688 Z M 6.855469 9.554688 C 6.441406 9.554688 6.105469 9.890625 6.105469 10.304688 L 6.105469 33 C 6.105469 33.414062 6.441406 33.75 6.855469 33.75 L 41.144531 33.75 C 41.558594 33.75 41.894531 33.414062 41.894531 33 L 41.894531 10.328125 C 41.894531 9.914062 41.558594 9.578125 41.144531 9.578125 Z M 6.855469 9.554688 "/>
<path style=" stroke:none;fill-rule:nonzero;fill:rgb(100%,100%,100%);fill-opacity:1;" d="M 4.949219 31.5 L 42.984375 31.5 L 42.984375 33.148438 C 42.984375 34.0625 42.242188 34.800781 41.332031 34.800781 L 6.601562 34.800781 C 5.6875 34.800781 4.949219 34.0625 4.949219 33.148438 Z M 4.949219 31.5 "/>
<path style=" stroke:none;fill-rule:nonzero;fill:rgb(100%,100%,100%);fill-opacity:1;" d="M 17.085938 26.070312 L 18.9375 26.070312 C 19.285156 26.070312 19.570312 26.351562 19.570312 26.699219 L 19.570312 28.554688 C 19.570312 28.898438 19.285156 29.179688 18.9375 29.179688 L 17.085938 29.179688 C 16.734375 29.179688 16.453125 28.898438 16.453125 28.554688 L 16.453125 26.699219 C 16.453125 26.351562 16.734375 26.070312 17.085938 26.070312 Z M 17.085938 26.070312 "/>
<path style=" stroke:none;fill-rule:nonzero;fill:rgb(100%,100%,100%);fill-opacity:1;" d="M 21.074219 26.070312 L 22.929688 26.070312 C 23.273438 26.070312 23.554688 26.351562 23.554688 26.699219 L 23.554688 28.554688 C 23.554688 28.898438 23.273438 29.179688 22.929688 29.179688 L 21.074219 29.179688 C 20.726562 29.179688 20.445312 28.898438 20.445312 28.554688 L 20.445312 26.699219 C 20.445312 26.351562 20.726562 26.070312 21.074219 26.070312 Z M 21.074219 26.070312 "/>
<path style=" stroke:none;fill-rule:nonzero;fill:rgb(100%,100%,100%);fill-opacity:1;" d="M 25.070312 26.070312 L 26.925781 26.070312 C 27.273438 26.070312 27.554688 26.351562 27.554688 26.699219 L 27.554688 28.554688 C 27.554688 28.898438 27.273438 29.179688 26.925781 29.179688 L 25.070312 29.179688 C 24.726562 29.179688 24.445312 28.898438 24.445312 28.554688 L 24.445312 26.699219 C 24.445312 26.351562 24.726562 26.070312 25.070312 26.070312 Z M 25.070312 26.070312 "/>
<path style=" stroke:none;fill-rule:nonzero;fill:rgb(100%,100%,100%);fill-opacity:1;" d="M 29.0625 26.070312 L 30.914062 26.070312 C 31.265625 26.070312 31.546875 26.351562 31.546875 26.699219 L 31.546875 28.554688 C 31.546875 28.898438 31.265625 29.179688 30.914062 29.179688 L 29.0625 29.179688 C 28.714844 29.179688 28.429688 28.898438 28.429688 28.554688 L 28.429688 26.699219 C 28.429688 26.351562 28.714844 26.070312 29.0625 26.070312 Z M 29.0625 26.070312 "/>
</g>
</svg>
