
<svg xmlns="http://www.w3.org/2000/svg" xmlns:xlink="http://www.w3.org/1999/xlink" width="48px" height="48px" viewBox="0 0 48 48" version="1.1">
<g id="surface1">
<path style=" stroke:none;fill-rule:nonzero;fill:rgb(79.607843%,79.607843%,79.607843%);fill-opacity:1;" d="M 48 24 L 48 4.042969 C 48 1.8125 46.1875 0 43.957031 0 L 24 0 L 24 24 Z M 48 24 "/>
<path style=" stroke:none;fill-rule:nonzero;fill:rgb(49.411765%,34.117647%,76.862745%);fill-opacity:1;" d="M 31.15625 11.578125 C 30.949219 10.539062 30.15625 9.710938 29.125 9.460938 C 28.089844 9.210938 27.007812 9.585938 26.347656 10.417969 C 26.109375 10.734375 25.734375 10.929688 25.335938 10.9375 L 25 10.9375 C 24.445312 10.929688 24 10.484375 24 9.929688 L 24 0 L 4.042969 0 C 1.8125 0 0 1.8125 0 4.042969 L 0 24 L 24 24 L 24 14.25 C 24 13.699219 24.445312 13.25 25 13.25 L 25.335938 13.25 C 25.734375 13.257812 26.109375 13.449219 26.347656 13.769531 C 27.128906 14.773438 28.5 15.101562 29.648438 14.5625 C 30.796875 14.023438 31.421875 12.761719 31.15625 11.519531 Z M 31.15625 11.578125 "/>
<path style=" stroke:none;fill-rule:nonzero;fill:rgb(91.764706%,92.156863%,93.72549%);fill-opacity:1;" d="M 12.839844 23.25 L 12.839844 22.25 C 12.847656 21.851562 13.039062 21.480469 13.359375 21.242188 C 14.359375 20.460938 14.6875 19.089844 14.148438 17.9375 C 13.609375 16.789062 12.347656 16.164062 11.109375 16.429688 C 10.0625 16.636719 9.234375 17.429688 8.984375 18.464844 C 8.734375 19.496094 9.109375 20.582031 9.945312 21.242188 C 10.277344 21.472656 10.484375 21.847656 10.5 22.25 L 10.5 23.144531 C 10.53125 23.359375 10.464844 23.578125 10.320312 23.742188 C 10.179688 23.90625 9.96875 24 9.75 24 L 0 24 L 0 43.957031 C 0 46.1875 1.8125 48 4.042969 48 L 24 48 L 24 24 L 13.570312 24 C 13.164062 23.988281 12.839844 23.65625 12.839844 23.25 Z M 12.839844 23.25 "/>
<path style=" stroke:none;fill-rule:nonzero;fill:rgb(92.54902%,25.098039%,47.843137%);fill-opacity:1;" d="M 37.328125 23.039062 L 37.328125 22.1875 C 37.335938 21.785156 37.53125 21.410156 37.851562 21.171875 C 38.851562 20.390625 39.179688 19.023438 38.644531 17.871094 C 38.105469 16.722656 36.84375 16.097656 35.601562 16.367188 C 34.570312 16.585938 33.757812 17.390625 33.523438 18.417969 C 33.285156 19.445312 33.664062 20.523438 34.5 21.171875 C 34.820312 21.414062 35.011719 21.785156 35.015625 22.1875 L 35.015625 22.9375 C 35.039062 23.210938 34.945312 23.484375 34.757812 23.6875 C 34.570312 23.890625 34.304688 24.003906 34.027344 24 L 24 24 L 24 33.75 C 24 34.28125 23.570312 34.710938 23.039062 34.710938 L 22.230469 34.710938 C 21.828125 34.699219 21.453125 34.507812 21.210938 34.1875 C 20.464844 33.257812 19.203125 32.921875 18.09375 33.351562 C 16.988281 33.78125 16.289062 34.886719 16.367188 36.070312 C 16.453125 37.257812 17.292969 38.257812 18.449219 38.535156 C 19.484375 38.773438 20.5625 38.398438 21.21875 37.570312 C 21.457031 37.25 21.828125 37.054688 22.230469 37.050781 L 22.945312 37.050781 C 23.207031 37.03125 23.46875 37.121094 23.667969 37.296875 C 23.867188 37.472656 23.984375 37.722656 24 37.988281 L 24 48 L 43.957031 48 C 46.1875 48 48 46.1875 48 43.957031 L 48 24 L 38.25 24 C 37.734375 23.980469 37.328125 23.554688 37.328125 23.039062 Z M 37.328125 23.039062 "/>
</g>
</svg>
