
<svg xmlns="http://www.w3.org/2000/svg" xmlns:xlink="http://www.w3.org/1999/xlink" width="48px" height="48px" viewBox="0 0 48 48" version="1.1">
<g id="surface1">
<path style=" stroke:none;fill-rule:nonzero;fill:rgb(92.54902%,25.098039%,47.843137%);fill-opacity:1;" d="M 4.042969 0 L 43.957031 0 C 46.1875 0 48 1.8125 48 4.042969 L 48 43.957031 C 48 46.1875 46.1875 48 43.957031 48 L 4.042969 48 C 1.8125 48 0 46.1875 0 43.957031 L 0 4.042969 C 0 1.8125 1.8125 0 4.042969 0 Z M 4.042969 0 "/>
<path style=" stroke:none;fill-rule:nonzero;fill:rgb(100%,100%,100%);fill-opacity:1;" d="M 24.089844 12.070312 C 24.0625 12.03125 24.039062 11.992188 24.015625 11.945312 L 24.015625 11.882812 L 24.015625 11.917969 L 24.015625 11.882812 L 24.015625 11.945312 C 23.757812 12.515625 20.265625 16.296875 13.078125 17.070312 C 12.972656 19.28125 13.25 21.488281 13.898438 23.601562 L 24.089844 23.601562 Z M 24.089844 12.070312 "/>
<path style=" stroke:none;fill-rule:nonzero;fill:rgb(16.078431%,71.372549%,96.470588%);fill-opacity:1;" d="M 24.089844 36.0625 C 28.953125 33.398438 32.5625 28.917969 34.132812 23.601562 L 24.089844 23.601562 Z M 24.089844 36.0625 "/>
<path style=" stroke:none;fill-rule:nonzero;fill:rgb(100%,100%,100%);fill-opacity:1;" d="M 24 36.875 C 23.867188 36.875 23.734375 36.839844 23.617188 36.773438 C 23.578125 36.742188 23.535156 36.714844 23.5 36.679688 C 18.625 33.980469 14.96875 29.523438 13.265625 24.21875 C 12.5 21.890625 12.171875 19.445312 12.300781 17 C 12.335938 16.648438 12.613281 16.367188 12.96875 16.328125 C 19.375 15.636719 22.71875 12.488281 23.25 11.707031 C 23.316406 11.414062 23.546875 11.195312 23.84375 11.136719 C 23.945312 11.117188 24.046875 11.117188 24.148438 11.136719 C 24.4375 11.1875 24.664062 11.398438 24.742188 11.679688 C 27.484375 14.421875 31.132812 16.066406 35 16.3125 C 35.371094 16.335938 35.667969 16.625 35.699219 16.992188 C 35.828125 19.4375 35.5 21.882812 34.734375 24.210938 C 33.039062 29.515625 29.382812 33.976562 24.515625 36.679688 C 24.480469 36.71875 24.4375 36.75 24.390625 36.773438 C 24.273438 36.84375 24.136719 36.878906 24 36.875 Z M 13.769531 17.742188 C 13.78125 24.996094 17.6875 31.679688 24 35.25 C 28.421875 32.75 31.734375 28.671875 33.277344 23.828125 C 33.90625 21.867188 34.226562 19.824219 34.230469 17.765625 C 30.40625 17.367188 26.8125 15.734375 24 13.109375 C 22.648438 14.554688 19.222656 17 13.769531 17.742188 Z M 13.769531 17.742188 "/>
</g>
</svg>
