
<svg xmlns="http://www.w3.org/2000/svg" xmlns:xlink="http://www.w3.org/1999/xlink" width="48px" height="48px" viewBox="0 0 48 48" version="1.1">
<g id="surface1">
<path style=" stroke:none;fill-rule:nonzero;fill:rgb(49.411765%,34.117647%,76.862745%);fill-opacity:1;" d="M 4.042969 0 L 43.957031 0 C 46.1875 0 48 1.8125 48 4.042969 L 48 43.957031 C 48 46.1875 46.1875 48 43.957031 48 L 4.042969 48 C 1.8125 48 0 46.1875 0 43.957031 L 0 4.042969 C 0 1.8125 1.8125 0 4.042969 0 Z M 4.042969 0 "/>
<path style=" stroke:none;fill-rule:nonzero;fill:rgb(100%,100%,100%);fill-opacity:1;" d="M 38.882812 23.476562 C 38.664062 23.015625 38.398438 22.578125 38.09375 22.171875 C 37.757812 21.882812 37.320312 21.746094 36.882812 21.789062 C 35.585938 21.882812 34.375 21.132812 33.882812 19.929688 C 33.382812 18.757812 33.648438 17.398438 34.546875 16.5 C 35.40625 15.625 35.40625 14.21875 34.546875 13.34375 C 34.148438 12.9375 33.609375 12.707031 33.046875 12.695312 C 32.414062 12.710938 31.804688 12.953125 31.335938 13.375 C 30.695312 13.886719 29.90625 14.171875 29.085938 14.1875 C 28.753906 14.1875 28.425781 14.128906 28.117188 14.007812 C 27.0625 13.492188 26.359375 12.460938 26.25 11.296875 C 26.285156 10.15625 25.46875 9.171875 24.34375 9 L 24.203125 8.953125 L 23.757812 8.953125 C 23.695312 8.980469 23.632812 9 23.5625 9.015625 C 22.515625 9.210938 21.761719 10.140625 21.789062 11.210938 C 21.835938 12.46875 21.105469 13.628906 19.949219 14.132812 C 18.773438 14.640625 17.398438 14.367188 16.5 13.453125 C 16.050781 13.046875 15.46875 12.820312 14.867188 12.8125 C 14.304688 12.8125 13.765625 13.039062 13.367188 13.429688 C 12.507812 14.304688 12.507812 15.707031 13.367188 16.582031 C 14.25 17.441406 14.542969 18.742188 14.117188 19.898438 C 13.664062 21.085938 12.53125 21.875 11.257812 21.882812 C 10.238281 21.953125 9.464844 22.304688 9.007812 23.757812 L 9.007812 24.464844 C 9.054688 24.578125 9.097656 24.695312 9.132812 24.8125 C 9.429688 25.691406 10.246094 26.289062 11.175781 26.3125 C 12.484375 26.152344 13.742188 26.867188 14.277344 28.078125 C 14.8125 29.285156 14.492188 30.695312 13.492188 31.5625 C 12.679688 32.4375 12.679688 33.796875 13.492188 34.671875 C 13.90625 35.089844 14.46875 35.324219 15.054688 35.324219 C 15.589844 35.296875 16.101562 35.078125 16.5 34.71875 C 17.105469 34.128906 17.90625 33.78125 18.75 33.742188 C 20.460938 33.75 21.839844 35.144531 21.832031 36.855469 C 21.90625 37.84375 22.257812 38.601562 23.699219 39.105469 L 24.257812 39.105469 L 24.601562 38.917969 C 25.054688 38.703125 25.484375 38.4375 25.882812 38.132812 C 26.1875 37.726562 26.335938 37.230469 26.320312 36.726562 C 26.40625 35.601562 27.039062 34.585938 28.011719 34.011719 C 28.390625 33.804688 28.820312 33.695312 29.25 33.703125 C 30.070312 33.722656 30.863281 34.011719 31.5 34.53125 C 31.976562 34.941406 32.582031 35.171875 33.210938 35.179688 C 33.773438 35.1875 34.3125 34.960938 34.710938 34.5625 C 35.585938 33.660156 35.585938 32.226562 34.710938 31.328125 C 34.085938 30.539062 33.8125 29.53125 33.960938 28.539062 C 34.28125 27.273438 35.382812 26.367188 36.679688 26.289062 C 37.859375 26.359375 38.90625 25.554688 39.148438 24.40625 L 39.148438 23.859375 Z M 24 29.65625 C 20.875 29.65625 18.34375 27.125 18.34375 24 C 18.34375 20.875 20.875 18.34375 24 18.34375 C 27.125 18.34375 29.65625 20.875 29.65625 24 C 29.632812 27.113281 27.113281 29.632812 24 29.65625 Z M 24 29.65625 "/>
</g>
</svg>
