
<svg xmlns="http://www.w3.org/2000/svg" xmlns:xlink="http://www.w3.org/1999/xlink" width="48px" height="48px" viewBox="0 0 48 48" version="1.1">
<g id="surface1">
<path style=" stroke:none;fill-rule:nonzero;fill:rgb(91.764706%,92.156863%,93.72549%);fill-opacity:1;" d="M 4.042969 0 L 43.957031 0 C 46.1875 0 48 1.8125 48 4.042969 L 48 43.957031 C 48 46.1875 46.1875 48 43.957031 48 L 4.042969 48 C 1.8125 48 0 46.1875 0 43.957031 L 0 4.042969 C 0 1.8125 1.8125 0 4.042969 0 Z M 4.042969 0 "/>
<path style=" stroke:none;fill-rule:nonzero;fill:rgb(49.411765%,34.117647%,76.862745%);fill-opacity:1;" d="M 26.679688 16.980469 L 12.113281 16.980469 L 12.113281 14.671875 L 18.0625 14.671875 L 18.0625 11.617188 L 20.757812 11.617188 L 20.757812 14.671875 L 26.679688 14.671875 Z M 19.410156 28.132812 C 18.53125 28.15625 17.65625 28.023438 16.820312 27.75 C 16.152344 27.507812 15.53125 27.140625 15 26.671875 C 14.523438 26.257812 14.140625 25.742188 13.882812 25.171875 C 13.632812 24.632812 13.503906 24.046875 13.5 23.453125 L 13.5 22.625 C 13.5 22.023438 13.625 21.429688 13.867188 20.882812 C 14.125 20.304688 14.507812 19.792969 14.984375 19.382812 C 15.53125 18.921875 16.15625 18.570312 16.828125 18.335938 C 17.664062 18.058594 18.539062 17.921875 19.417969 17.9375 C 20.296875 17.921875 21.171875 18.058594 22.007812 18.335938 C 22.679688 18.570312 23.304688 18.929688 23.851562 19.394531 C 24.324219 19.8125 24.703125 20.320312 24.96875 20.894531 C 25.210938 21.4375 25.335938 22.023438 25.335938 22.617188 L 25.335938 23.445312 C 25.335938 24.039062 25.210938 24.625 24.96875 25.164062 C 24.710938 25.738281 24.328125 26.25 23.851562 26.664062 C 23.308594 27.140625 22.679688 27.507812 22 27.75 C 21.164062 28.023438 20.289062 28.15625 19.410156 28.132812 Z M 19.410156 25.957031 C 19.90625 25.964844 20.398438 25.890625 20.875 25.734375 C 21.257812 25.609375 21.609375 25.410156 21.914062 25.148438 C 22.179688 24.910156 22.394531 24.617188 22.539062 24.292969 C 22.671875 23.984375 22.742188 23.648438 22.742188 23.3125 L 22.742188 22.761719 C 22.738281 22.429688 22.671875 22.09375 22.539062 21.789062 C 22.394531 21.460938 22.179688 21.171875 21.914062 20.929688 C 21.609375 20.671875 21.257812 20.46875 20.882812 20.339844 C 19.921875 20.050781 18.898438 20.050781 17.9375 20.339844 C 17.5625 20.46875 17.210938 20.671875 16.90625 20.929688 C 16.640625 21.171875 16.425781 21.460938 16.28125 21.789062 C 16.148438 22.09375 16.082031 22.429688 16.078125 22.761719 L 16.078125 23.3125 C 16.078125 23.648438 16.148438 23.984375 16.28125 24.292969 C 16.425781 24.617188 16.640625 24.910156 16.90625 25.148438 C 17.210938 25.414062 17.570312 25.609375 17.953125 25.734375 C 18.421875 25.890625 18.914062 25.96875 19.410156 25.957031 Z M 19.078125 34.597656 L 32.578125 34.597656 L 32.578125 36.96875 L 16.359375 36.96875 L 16.359375 29.945312 L 19.078125 29.945312 Z M 35.460938 21.75 L 31.851562 21.75 L 31.851562 30.277344 L 29.152344 30.277344 L 29.152344 11.867188 L 31.851562 11.867188 L 31.851562 19.402344 L 35.460938 19.402344 Z M 35.460938 21.75 "/>
<path style=" stroke:none;fill-rule:nonzero;fill:rgb(92.54902%,25.098039%,47.843137%);fill-opacity:1;" d="M 31.0625 36.359375 L 28.671875 37.214844 L 28.335938 23.976562 L 36.488281 34.410156 L 33.953125 35.320312 L 35.320312 39.117188 L 32.429688 40.164062 Z M 31.0625 36.359375 "/>
<path style=" stroke:none;fill-rule:nonzero;fill:rgb(100%,100%,100%);fill-opacity:1;" d="M 29.203125 26.40625 L 35.160156 34.027344 L 32.910156 34.828125 L 34.273438 38.632812 L 32.902344 39.125 L 31.554688 35.324219 L 29.453125 36.074219 L 29.203125 26.40625 M 27.457031 21.554688 L 27.585938 26.445312 L 27.832031 36.117188 L 27.890625 38.367188 L 29.992188 37.617188 L 30.578125 37.410156 L 31.394531 39.660156 L 31.945312 41.160156 L 33.445312 40.613281 L 34.804688 40.117188 L 36.304688 39.570312 L 35.757812 38.070312 L 34.945312 35.820312 L 35.695312 35.554688 L 37.792969 34.804688 L 36.4375 33 L 30.472656 25.410156 L 27.472656 21.554688 Z M 27.457031 21.554688 "/>
</g>
</svg>
