
<svg xmlns="http://www.w3.org/2000/svg" xmlns:xlink="http://www.w3.org/1999/xlink" width="48px" height="48px" viewBox="0 0 48 48" version="1.1">
<g id="surface1">
<path style=" stroke:none;fill-rule:nonzero;fill:rgb(92.54902%,25.098039%,47.843137%);fill-opacity:1;" d="M 4.042969 0 L 43.957031 0 C 46.1875 0 48 1.8125 48 4.042969 L 48 43.957031 C 48 46.1875 46.1875 48 43.957031 48 L 4.042969 48 C 1.8125 48 0 46.1875 0 43.957031 L 0 4.042969 C 0 1.8125 1.8125 0 4.042969 0 Z M 4.042969 0 "/>
<path style=" stroke:none;fill-rule:nonzero;fill:rgb(16.078431%,71.372549%,96.470588%);fill-opacity:1;" d="M 15.75 33.359375 L 17.570312 30.492188 L 18.023438 29.789062 L 27.320312 29.789062 C 27.765625 28.335938 29.101562 27.34375 30.625 27.34375 L 30.75 27.34375 C 30.636719 27.269531 30.53125 27.1875 30.414062 27.117188 L 26.023438 24.644531 C 25.484375 24.339844 25.15625 23.765625 25.164062 23.144531 L 25.164062 21.992188 C 26.570312 21.058594 27.414062 19.484375 27.414062 17.796875 L 27.414062 16.230469 C 27.484375 14.390625 26.542969 12.65625 24.960938 11.71875 C 23.375 10.773438 21.40625 10.773438 19.820312 11.71875 C 18.242188 12.65625 17.296875 14.390625 17.367188 16.230469 L 17.367188 17.796875 C 17.367188 19.484375 18.210938 21.0625 19.617188 21.992188 L 19.617188 23.167969 C 19.628906 23.789062 19.296875 24.363281 18.757812 24.667969 L 14.375 27.140625 C 12.523438 28.195312 11.375 30.164062 11.375 32.296875 L 11.375 34.546875 L 15.125 34.546875 L 15.015625 34.445312 Z M 15.75 33.359375 "/>
<path style=" stroke:none;fill-rule:nonzero;fill:rgb(89.803922%,89.803922%,89.803922%);fill-opacity:1;" d="M 28.734375 32.601562 L 18.03125 32.601562 L 17.925781 32.742188 L 17.460938 33.472656 L 28.734375 33.472656 Z M 28.734375 32.601562 "/>
<path style=" stroke:none;fill-rule:nonzero;fill:rgb(100%,100%,100%);fill-opacity:1;" d="M 36.21875 28.867188 L 30.625 28.867188 C 29.558594 28.867188 28.695312 29.730469 28.695312 30.796875 L 28.695312 31.3125 L 18.839844 31.3125 L 17.925781 32.742188 L 18.023438 32.601562 L 28.734375 32.601562 L 28.734375 33.472656 L 17.484375 33.472656 L 17.03125 34.179688 L 17.414062 34.53125 L 18.863281 35.867188 L 28.695312 35.867188 L 28.695312 36.382812 C 28.695312 37.449219 29.554688 38.3125 30.625 38.320312 L 36.21875 38.320312 C 37.28125 38.3125 38.144531 37.449219 38.144531 36.382812 L 38.144531 30.796875 C 38.144531 29.730469 37.28125 28.867188 36.21875 28.867188 Z M 36.351562 34.648438 C 36.347656 35.214844 35.890625 35.671875 35.324219 35.671875 C 35.1875 35.671875 35.046875 35.640625 34.921875 35.578125 C 34.546875 35.421875 34.304688 35.054688 34.304688 34.648438 L 34.304688 32.535156 C 34.3125 32.148438 34.53125 31.796875 34.875 31.625 C 35.015625 31.554688 35.167969 31.515625 35.324219 31.507812 C 35.890625 31.511719 36.347656 31.96875 36.351562 32.535156 Z M 36.351562 34.648438 "/>
<path style=" stroke:none;fill-rule:nonzero;fill:rgb(100%,100%,100%);fill-opacity:1;" d="M 17.421875 33.472656 L 17.460938 33.472656 L 17.925781 32.742188 Z M 17.421875 33.472656 "/>
</g>
</svg>
