
<svg xmlns="http://www.w3.org/2000/svg" xmlns:xlink="http://www.w3.org/1999/xlink" width="48px" height="48px" viewBox="0 0 48 48" version="1.1">
<g id="surface1">
<path style=" stroke:none;fill-rule:nonzero;fill:rgb(36.078431%,41.960784%,75.294118%);fill-opacity:1;" d="M 4.042969 0 L 43.957031 0 C 46.1875 0 48 1.8125 48 4.042969 L 48 43.957031 C 48 46.1875 46.1875 48 43.957031 48 L 4.042969 48 C 1.8125 48 0 46.1875 0 43.957031 L 0 4.042969 C 0 1.8125 1.8125 0 4.042969 0 Z M 4.042969 0 "/>
<path style=" stroke:none;fill-rule:nonzero;fill:rgb(100%,100%,100%);fill-opacity:1;" d="M 39.242188 18.945312 L 8.757812 18.945312 L 13.445312 13.367188 C 13.671875 13.101562 13.996094 12.953125 14.339844 12.953125 L 33.660156 12.953125 C 34.003906 12.953125 34.328125 13.101562 34.554688 13.367188 Z M 39.242188 18.945312 "/>
<path style=" stroke:none;fill-rule:nonzero;fill:rgb(89.803922%,89.803922%,89.803922%);fill-opacity:1;" d="M 8.757812 18.945312 L 39.242188 18.945312 L 39.242188 31.273438 C 39.242188 31.917969 38.71875 32.4375 38.078125 32.4375 L 9.921875 32.4375 C 9.28125 32.4375 8.757812 31.917969 8.757812 31.273438 Z M 8.757812 18.945312 "/>
<path style=" stroke:none;fill-rule:nonzero;fill:rgb(16.078431%,71.372549%,96.470588%);fill-opacity:1;" d="M 35.835938 38.492188 L 12.164062 38.492188 C 11.835938 38.488281 11.53125 38.328125 11.339844 38.0625 C 11.148438 37.792969 11.101562 37.453125 11.203125 37.140625 L 14.585938 27.445312 L 33.414062 27.445312 L 36.796875 37.140625 C 36.90625 37.453125 36.859375 37.796875 36.664062 38.0625 C 36.476562 38.332031 36.164062 38.492188 35.835938 38.492188 Z M 35.835938 38.492188 "/>
<path style=" stroke:none;fill-rule:nonzero;fill:rgb(16.078431%,71.372549%,96.470588%);fill-opacity:1;" d="M 14.585938 12.953125 L 33.414062 12.953125 L 33.414062 21.171875 L 14.585938 21.171875 Z M 14.585938 12.953125 "/>
<path style=" stroke:none;fill-rule:nonzero;fill:rgb(100%,100%,100%);fill-opacity:1;" d="M 33.976562 36.046875 L 14.023438 36.046875 L 15.921875 28.828125 L 32.078125 28.828125 Z M 33.976562 36.046875 "/>
<path style=" stroke:none;fill-rule:nonzero;fill:rgb(79.607843%,79.607843%,79.607843%);fill-opacity:1;" d="M 8.757812 23.945312 L 39.242188 23.945312 L 39.242188 25.28125 L 8.757812 25.28125 Z M 8.757812 23.945312 "/>
<path style=" stroke:none;fill-rule:nonzero;fill:rgb(92.54902%,25.098039%,47.843137%);fill-opacity:1;" d="M 18.125 30.0625 L 29.882812 30.0625 C 30.285156 30.0625 30.617188 30.390625 30.617188 30.796875 C 30.617188 31.203125 30.285156 31.53125 29.882812 31.53125 L 18.125 31.53125 C 17.71875 31.53125 17.390625 31.203125 17.390625 30.796875 C 17.390625 30.390625 17.71875 30.0625 18.125 30.0625 Z M 18.125 30.0625 "/>
<path style=" stroke:none;fill-rule:nonzero;fill:rgb(92.54902%,25.098039%,47.843137%);fill-opacity:1;" d="M 17.195312 32.65625 L 30.8125 32.65625 C 31.21875 32.65625 31.546875 32.984375 31.546875 33.390625 C 31.546875 33.796875 31.21875 34.125 30.8125 34.125 L 17.195312 34.125 C 16.789062 34.125 16.460938 33.796875 16.460938 33.390625 C 16.460938 32.984375 16.789062 32.65625 17.195312 32.65625 Z M 17.195312 32.65625 "/>
<path style=" stroke:none;fill-rule:nonzero;fill:rgb(92.54902%,25.098039%,47.843137%);fill-opacity:1;" d="M 37.257812 21.5 C 37.257812 22.070312 36.800781 22.53125 36.234375 22.53125 C 35.664062 22.53125 35.203125 22.070312 35.203125 21.5 C 35.203125 20.9375 35.664062 20.476562 36.234375 20.476562 C 36.800781 20.476562 37.257812 20.9375 37.257812 21.5 Z M 37.257812 21.5 "/>
<path style=" stroke:none;fill-rule:nonzero;fill:rgb(100%,100%,100%);fill-opacity:1;" d="M 28.71875 9.507812 L 15.921875 9.507812 L 15.921875 16.757812 L 32.078125 16.757812 L 32.078125 12.601562 Z M 28.71875 9.507812 "/>
<path style=" stroke:none;fill-rule:nonzero;fill:rgb(79.607843%,79.607843%,79.607843%);fill-opacity:1;" d="M 28.71875 12.601562 L 32.078125 12.601562 L 28.71875 9.507812 Z M 28.71875 12.601562 "/>
</g>
</svg>
