
<svg xmlns="http://www.w3.org/2000/svg" xmlns:xlink="http://www.w3.org/1999/xlink" width="48px" height="48px" viewBox="0 0 48 48" version="1.1">
<defs>
<linearGradient id="linear0" gradientUnits="userSpaceOnUse" x1="32.86" y1="52.99" x2="32.86" y2="54.61" gradientTransform="matrix(0.75,0,0,0.75,-0.09,0.0375)">
<stop offset="0" style="stop-color:rgb(86.27451%,87.058824%,88.627451%);stop-opacity:1;"/>
<stop offset="0.57" style="stop-color:rgb(87.058824%,87.843137%,89.411765%);stop-opacity:1;"/>
<stop offset="0.81" style="stop-color:rgb(89.803922%,90.588235%,91.764706%);stop-opacity:1;"/>
<stop offset="0.99" style="stop-color:rgb(94.901961%,95.294118%,95.686275%);stop-opacity:1;"/>
<stop offset="1" style="stop-color:rgb(95.294118%,95.686275%,96.078431%);stop-opacity:1;"/>
</linearGradient>
</defs>
<g id="surface1">
<path style=" stroke:none;fill-rule:nonzero;fill:rgb(49.411765%,34.117647%,76.862745%);fill-opacity:1;" d="M 4.042969 0 L 43.957031 0 C 46.1875 0 48 1.8125 48 4.042969 L 48 43.957031 C 48 46.1875 46.1875 48 43.957031 48 L 4.042969 48 C 1.8125 48 0 46.1875 0 43.957031 L 0 4.042969 C 0 1.8125 1.8125 0 4.042969 0 Z M 4.042969 0 "/>
<path style=" stroke:none;fill-rule:nonzero;fill:url(#linear0);" d="M 32.910156 40.792969 L 31.5 40.792969 C 30.890625 40.792969 30.398438 40.296875 30.398438 39.6875 L 30.398438 34.613281 L 18.75 34.613281 L 18.75 39.679688 C 18.75 40.289062 18.257812 40.785156 17.648438 40.785156 L 16.1875 40.785156 C 15.585938 40.785156 15.097656 41.273438 15.097656 41.875 C 15.097656 42.472656 15.585938 42.960938 16.1875 42.960938 L 32.910156 42.960938 C 33.199219 42.960938 33.476562 42.847656 33.683594 42.644531 C 33.890625 42.4375 34.007812 42.164062 34.007812 41.875 C 34 41.273438 33.507812 40.789062 32.910156 40.792969 Z M 32.910156 40.792969 "/>
<path style=" stroke:none;fill-rule:nonzero;fill:rgb(92.54902%,25.098039%,47.843137%);fill-opacity:1;" d="M 6.855469 8.894531 L 41.144531 8.894531 C 41.9375 8.894531 42.578125 9.539062 42.578125 10.328125 L 42.578125 32.960938 C 42.578125 33.753906 41.9375 34.394531 41.144531 34.394531 L 6.855469 34.394531 C 6.0625 34.394531 5.421875 33.753906 5.421875 32.960938 L 5.421875 10.328125 C 5.421875 9.539062 6.0625 8.894531 6.855469 8.894531 Z M 6.855469 8.894531 "/>
<path style=" stroke:none;fill-rule:nonzero;fill:rgb(100%,100%,100%);fill-opacity:1;" d="M 41.144531 35.054688 L 6.855469 35.054688 C 5.710938 35.054688 4.78125 34.140625 4.761719 33 L 4.761719 10.328125 C 4.773438 9.179688 5.703125 8.25 6.855469 8.25 L 41.144531 8.25 C 42.300781 8.25 43.238281 9.1875 43.238281 10.34375 L 43.238281 33 C 43.21875 34.140625 42.289062 35.054688 41.144531 35.054688 Z M 6.855469 9.554688 C 6.441406 9.554688 6.105469 9.890625 6.105469 10.304688 L 6.105469 33 C 6.105469 33.414062 6.441406 33.75 6.855469 33.75 L 41.144531 33.75 C 41.558594 33.75 41.894531 33.414062 41.894531 33 L 41.894531 10.328125 C 41.894531 9.914062 41.558594 9.578125 41.144531 9.578125 Z M 6.855469 9.554688 "/>
<path style=" stroke:none;fill-rule:nonzero;fill:rgb(100%,100%,100%);fill-opacity:1;" d="M 4.949219 31.5 L 42.984375 31.5 L 42.984375 33.148438 C 42.984375 34.0625 42.242188 34.800781 41.332031 34.800781 L 6.601562 34.800781 C 5.6875 34.800781 4.949219 34.0625 4.949219 33.148438 Z M 4.949219 31.5 "/>
<path style=" stroke:none;fill-rule:nonzero;fill:rgb(100%,100%,100%);fill-opacity:1;" d="M 28.605469 17.714844 L 28.359375 17.714844 L 28.359375 15.210938 C 28.351562 13.632812 27.078125 12.359375 25.5 12.359375 L 22.703125 12.359375 C 21.125 12.359375 19.851562 13.632812 19.84375 15.210938 L 19.84375 17.714844 L 19.394531 17.714844 C 18.734375 17.714844 18.195312 18.25 18.195312 18.914062 L 18.195312 26.324219 C 18.195312 26.988281 18.734375 27.523438 19.394531 27.523438 L 28.605469 27.523438 C 29.265625 27.523438 29.804688 26.988281 29.804688 26.324219 L 29.804688 18.914062 C 29.804688 18.25 29.265625 17.714844 28.605469 17.714844 Z M 24.578125 22.5625 L 24.578125 25.011719 C 24.578125 25.332031 24.320312 25.589844 24 25.589844 C 23.679688 25.589844 23.421875 25.332031 23.421875 25.011719 L 23.421875 22.5625 C 22.734375 22.28125 22.34375 21.558594 22.484375 20.832031 C 22.625 20.109375 23.257812 19.582031 24 19.582031 C 24.742188 19.582031 25.375 20.109375 25.515625 20.832031 C 25.65625 21.558594 25.265625 22.28125 24.578125 22.5625 Z M 26.828125 17.714844 L 21.34375 17.714844 L 21.34375 15.210938 C 21.351562 14.460938 21.953125 13.859375 22.703125 13.859375 L 25.5 13.859375 C 26.246094 13.859375 26.851562 14.464844 26.851562 15.210938 Z M 26.828125 17.714844 "/>
</g>
</svg>
