
<svg xmlns="http://www.w3.org/2000/svg" xmlns:xlink="http://www.w3.org/1999/xlink" width="48px" height="48px" viewBox="0 0 48 48" version="1.1">
<defs>
<clipPath id="clip1">
  <path d="M 3.5 0 L 21.5 0 L 21.5 48 L 3.5 48 Z M 3.5 0 "/>
</clipPath>
<clipPath id="clip2">
  <path d="M 4.042969 0 L 43.957031 0 C 46.1875 0 48 1.8125 48 4.042969 L 48 43.957031 C 48 46.1875 46.1875 48 43.957031 48 L 4.042969 48 C 1.8125 48 0 46.1875 0 43.957031 L 0 4.042969 C 0 1.8125 1.8125 0 4.042969 0 Z M 4.042969 0 "/>
</clipPath>
<clipPath id="clip3">
  <path d="M 12.5 0 L 35.5 0 L 35.5 48 L 12.5 48 Z M 12.5 0 "/>
</clipPath>
<clipPath id="clip4">
  <path d="M 4.042969 0 L 43.957031 0 C 46.1875 0 48 1.8125 48 4.042969 L 48 43.957031 C 48 46.1875 46.1875 48 43.957031 48 L 4.042969 48 C 1.8125 48 0 46.1875 0 43.957031 L 0 4.042969 C 0 1.8125 1.8125 0 4.042969 0 Z M 4.042969 0 "/>
</clipPath>
<clipPath id="clip5">
  <path d="M 26.5 0 L 44 0 L 44 48 L 26.5 48 Z M 26.5 0 "/>
</clipPath>
<clipPath id="clip6">
  <path d="M 4.042969 0 L 43.957031 0 C 46.1875 0 48 1.8125 48 4.042969 L 48 43.957031 C 48 46.1875 46.1875 48 43.957031 48 L 4.042969 48 C 1.8125 48 0 46.1875 0 43.957031 L 0 4.042969 C 0 1.8125 1.8125 0 4.042969 0 Z M 4.042969 0 "/>
</clipPath>
<clipPath id="clip7">
  <path d="M 20.5 4 L 28 4 L 28 48 L 20.5 48 Z M 20.5 4 "/>
</clipPath>
<clipPath id="clip8">
  <path d="M 4.042969 0 L 43.957031 0 C 46.1875 0 48 1.8125 48 4.042969 L 48 43.957031 C 48 46.1875 46.1875 48 43.957031 48 L 4.042969 48 C 1.8125 48 0 46.1875 0 43.957031 L 0 4.042969 C 0 1.8125 1.8125 0 4.042969 0 Z M 4.042969 0 "/>
</clipPath>
<clipPath id="clip9">
  <path d="M 27.5 3.5 L 28 3.5 L 28 4.5 L 27.5 4.5 Z M 27.5 3.5 "/>
</clipPath>
<clipPath id="clip10">
  <path d="M 4.042969 0 L 43.957031 0 C 46.1875 0 48 1.8125 48 4.042969 L 48 43.957031 C 48 46.1875 46.1875 48 43.957031 48 L 4.042969 48 C 1.8125 48 0 46.1875 0 43.957031 L 0 4.042969 C 0 1.8125 1.8125 0 4.042969 0 Z M 4.042969 0 "/>
</clipPath>
<clipPath id="clip11">
  <path d="M 19.5 3 L 28 3 L 28 48 L 19.5 48 Z M 19.5 3 "/>
</clipPath>
<clipPath id="clip12">
  <path d="M 4.042969 0 L 43.957031 0 C 46.1875 0 48 1.8125 48 4.042969 L 48 43.957031 C 48 46.1875 46.1875 48 43.957031 48 L 4.042969 48 C 1.8125 48 0 46.1875 0 43.957031 L 0 4.042969 C 0 1.8125 1.8125 0 4.042969 0 Z M 4.042969 0 "/>
</clipPath>
<clipPath id="clip13">
  <path d="M 20 3.5 L 28 3.5 L 28 48 L 20 48 Z M 20 3.5 "/>
</clipPath>
<clipPath id="clip14">
  <path d="M 4.042969 0 L 43.957031 0 C 46.1875 0 48 1.8125 48 4.042969 L 48 43.957031 C 48 46.1875 46.1875 48 43.957031 48 L 4.042969 48 C 1.8125 48 0 46.1875 0 43.957031 L 0 4.042969 C 0 1.8125 1.8125 0 4.042969 0 Z M 4.042969 0 "/>
</clipPath>
<clipPath id="clip15">
  <path d="M 15.5 0 L 32.5 0 L 32.5 8.5 L 15.5 8.5 Z M 15.5 0 "/>
</clipPath>
<clipPath id="clip16">
  <path d="M 4.042969 0 L 43.957031 0 C 46.1875 0 48 1.8125 48 4.042969 L 48 43.957031 C 48 46.1875 46.1875 48 43.957031 48 L 4.042969 48 C 1.8125 48 0 46.1875 0 43.957031 L 0 4.042969 C 0 1.8125 1.8125 0 4.042969 0 Z M 4.042969 0 "/>
</clipPath>
<clipPath id="clip17">
  <path d="M 22.5 15 L 25 15 L 25 17.5 L 22.5 17.5 Z M 22.5 15 "/>
</clipPath>
<clipPath id="clip18">
  <path d="M 4.042969 0 L 43.957031 0 C 46.1875 0 48 1.8125 48 4.042969 L 48 43.957031 C 48 46.1875 46.1875 48 43.957031 48 L 4.042969 48 C 1.8125 48 0 46.1875 0 43.957031 L 0 4.042969 C 0 1.8125 1.8125 0 4.042969 0 Z M 4.042969 0 "/>
</clipPath>
<linearGradient id="linear0" gradientUnits="userSpaceOnUse" x1="30.56" y1="21.72" x2="33.25" y2="21.72" gradientTransform="matrix(0.75,0,0,0.75,0,0)">
<stop offset="0" style="stop-color:rgb(25.490196%,74.117647%,83.137255%);stop-opacity:1;"/>
<stop offset="1" style="stop-color:rgb(50.980392%,32.54902%,83.921569%);stop-opacity:1;"/>
</linearGradient>
<clipPath id="clip19">
  <path d="M 22.5 31 L 25 31 L 25 33.5 L 22.5 33.5 Z M 22.5 31 "/>
</clipPath>
<clipPath id="clip20">
  <path d="M 4.042969 0 L 43.957031 0 C 46.1875 0 48 1.8125 48 4.042969 L 48 43.957031 C 48 46.1875 46.1875 48 43.957031 48 L 4.042969 48 C 1.8125 48 0 46.1875 0 43.957031 L 0 4.042969 C 0 1.8125 1.8125 0 4.042969 0 Z M 4.042969 0 "/>
</clipPath>
<linearGradient id="linear1" gradientUnits="userSpaceOnUse" x1="30.56" y1="42.73" x2="33.25" y2="42.73" gradientTransform="matrix(0.75,0,0,0.75,0,0)">
<stop offset="0" style="stop-color:rgb(25.490196%,74.117647%,83.137255%);stop-opacity:1;"/>
<stop offset="1" style="stop-color:rgb(50.980392%,32.54902%,83.921569%);stop-opacity:1;"/>
</linearGradient>
</defs>
<g id="surface1">
<path style=" stroke:none;fill-rule:nonzero;fill:rgb(32.941176%,29.803922%,40.784314%);fill-opacity:1;" d="M 4.042969 0 L 43.957031 0 C 46.1875 0 48 1.8125 48 4.042969 L 48 43.957031 C 48 46.1875 46.1875 48 43.957031 48 L 4.042969 48 C 1.8125 48 0 46.1875 0 43.957031 L 0 4.042969 C 0 1.8125 1.8125 0 4.042969 0 Z M 4.042969 0 "/>
<g clip-path="url(#clip1)" clip-rule="nonzero">
<g clip-path="url(#clip2)" clip-rule="nonzero">
<path style=" stroke:none;fill-rule:nonzero;fill:rgb(79.607843%,79.607843%,79.607843%);fill-opacity:1;" d="M 12.457031 0 C 9.277344 0 6 -4.554688 3.804688 -2.59375 C 4.3125 6.652344 6.53125 34.230469 12.75 48 L 21.25 48 C 14.125 32.25 12.75 5.925781 12.523438 0 Z M 12.457031 0 "/>
</g>
</g>
<g clip-path="url(#clip3)" clip-rule="nonzero">
<g clip-path="url(#clip4)" clip-rule="nonzero">
<path style=" stroke:none;fill-rule:nonzero;fill:rgb(96.862745%,96.862745%,96.862745%);fill-opacity:1;" d="M 12.523438 0 C 12.75 5.925781 14.125 32.25 21.25 48 L 26.75 48 C 33.875 32.25 35.25 5.925781 35.476562 0 Z M 12.523438 0 "/>
</g>
</g>
<g clip-path="url(#clip5)" clip-rule="nonzero">
<g clip-path="url(#clip6)" clip-rule="nonzero">
<path style=" stroke:none;fill-rule:nonzero;fill:rgb(79.607843%,79.607843%,79.607843%);fill-opacity:1;" d="M 35.542969 0 L 35.476562 0 C 35.25 5.925781 33.875 32.25 26.75 48 L 35.25 48 C 41.46875 34.230469 43.5 9.074219 43.992188 -0.171875 C 41.796875 -2.125 38.722656 0 35.542969 0 Z M 35.542969 0 "/>
</g>
</g>
<g clip-path="url(#clip7)" clip-rule="nonzero">
<g clip-path="url(#clip8)" clip-rule="nonzero">
<path style=" stroke:none;fill-rule:nonzero;fill:rgb(94.509804%,94.509804%,94.509804%);fill-opacity:1;" d="M 21.53125 48 L 26.929688 48 L 27.960938 4.179688 L 20.507812 4.179688 Z M 21.53125 48 "/>
</g>
</g>
<g clip-path="url(#clip9)" clip-rule="nonzero">
<g clip-path="url(#clip10)" clip-rule="nonzero">
<path style=" stroke:none;fill-rule:nonzero;fill:rgb(89.803922%,89.803922%,89.803922%);fill-opacity:1;" d="M 27.96875 4.179688 L 27.96875 3.773438 L 27.960938 4.179688 Z M 27.96875 4.179688 "/>
</g>
</g>
<g clip-path="url(#clip11)" clip-rule="nonzero">
<g clip-path="url(#clip12)" clip-rule="nonzero">
<path style=" stroke:none;fill-rule:nonzero;fill:rgb(89.803922%,89.803922%,89.803922%);fill-opacity:1;" d="M 20.09375 3.773438 L 27.96875 3.773438 L 27.96875 3.367188 L 19.679688 3.367188 L 20.730469 48 L 21.132812 48 Z M 20.09375 3.773438 "/>
</g>
</g>
<g clip-path="url(#clip13)" clip-rule="nonzero">
<g clip-path="url(#clip14)" clip-rule="nonzero">
<path style=" stroke:none;fill-rule:nonzero;fill:rgb(89.803922%,89.803922%,89.803922%);fill-opacity:1;" d="M 21.132812 48 L 21.53125 48 L 20.507812 4.179688 L 27.960938 4.179688 L 27.96875 3.773438 L 20.09375 3.773438 Z M 21.132812 48 "/>
</g>
</g>
<g clip-path="url(#clip15)" clip-rule="nonzero">
<g clip-path="url(#clip16)" clip-rule="nonzero">
<path style=" stroke:none;fill-rule:nonzero;fill:rgb(92.54902%,25.098039%,47.843137%);fill-opacity:1;" d="M 32.382812 0.789062 C 32.382812 0.652344 32.3125 0.523438 32.195312 0.453125 C 32.078125 0.382812 31.9375 0.378906 31.8125 0.445312 L 25.6875 1.945312 C 25.539062 1.46875 25.101562 1.144531 24.609375 1.140625 L 23.109375 1.140625 C 22.65625 1.144531 22.253906 1.40625 22.0625 1.8125 L 16.1875 0.445312 C 16.0625 0.378906 15.921875 0.382812 15.804688 0.453125 C 15.6875 0.523438 15.617188 0.652344 15.617188 0.789062 L 15.617188 7.695312 C 15.617188 7.832031 15.6875 7.957031 15.804688 8.027344 C 15.921875 8.097656 16.0625 8.101562 16.1875 8.039062 L 22.289062 4.75 C 22.503906 4.980469 22.804688 5.117188 23.125 5.117188 L 24.625 5.117188 C 24.972656 5.101562 25.296875 4.929688 25.5 4.640625 L 31.792969 8.039062 C 31.914062 8.101562 32.058594 8.097656 32.171875 8.027344 C 32.289062 7.957031 32.359375 7.832031 32.363281 7.695312 Z M 32.382812 0.789062 "/>
</g>
</g>
<g clip-path="url(#clip17)" clip-rule="nonzero">
<g clip-path="url(#clip18)" clip-rule="nonzero">
<path style=" stroke:none;fill-rule:nonzero;fill:url(#linear0);" d="M 24.945312 16.289062 C 24.945312 16.851562 24.492188 17.304688 23.929688 17.304688 C 23.375 17.304688 22.921875 16.851562 22.921875 16.289062 C 22.921875 15.730469 23.375 15.277344 23.929688 15.277344 C 24.492188 15.277344 24.945312 15.730469 24.945312 16.289062 Z M 24.945312 16.289062 "/>
</g>
</g>
<g clip-path="url(#clip19)" clip-rule="nonzero">
<g clip-path="url(#clip20)" clip-rule="nonzero">
<path style=" stroke:none;fill-rule:nonzero;fill:url(#linear1);" d="M 24.945312 32.046875 C 24.945312 32.609375 24.492188 33.0625 23.929688 33.0625 C 23.375 33.0625 22.921875 32.609375 22.921875 32.046875 C 22.921875 31.488281 23.375 31.035156 23.929688 31.035156 C 24.492188 31.035156 24.945312 31.488281 24.945312 32.046875 Z M 24.945312 32.046875 "/>
</g>
</g>
</g>
</svg>
