
<svg xmlns="http://www.w3.org/2000/svg" xmlns:xlink="http://www.w3.org/1999/xlink" width="48px" height="48px" viewBox="0 0 48 48" version="1.1">
<g id="surface1">
<path style=" stroke:none;fill-rule:nonzero;fill:rgb(49.411765%,34.117647%,76.862745%);fill-opacity:1;" d="M 4.042969 0 L 43.957031 0 C 46.1875 0 48 1.8125 48 4.042969 L 48 43.957031 C 48 46.1875 46.1875 48 43.957031 48 L 4.042969 48 C 1.8125 48 0 46.1875 0 43.957031 L 0 4.042969 C 0 1.8125 1.8125 0 4.042969 0 Z M 4.042969 0 "/>
<path style=" stroke:none;fill-rule:nonzero;fill:rgb(100%,100%,100%);fill-opacity:1;" d="M 26.917969 23.0625 C 28.417969 22.078125 29.324219 20.40625 29.324219 18.617188 L 29.324219 16.957031 C 29.320312 14.015625 26.9375 11.636719 24 11.632812 C 21.0625 11.636719 18.679688 14.015625 18.675781 16.957031 L 18.675781 18.625 C 18.679688 20.414062 19.585938 22.082031 21.082031 23.0625 L 21.082031 24.3125 C 21.082031 24.964844 20.734375 25.5625 20.167969 25.882812 L 15.515625 28.5 C 13.542969 29.613281 12.320312 31.703125 12.320312 33.96875 L 12.320312 36.359375 L 35.679688 36.359375 L 35.679688 33.976562 C 35.679688 31.707031 34.460938 29.613281 32.484375 28.5 L 27.832031 25.875 C 27.265625 25.554688 26.921875 24.957031 26.917969 24.304688 L 26.917969 23.0625 "/>
</g>
</svg>
