
<svg xmlns="http://www.w3.org/2000/svg" xmlns:xlink="http://www.w3.org/1999/xlink" width="48px" height="48px" viewBox="0 0 48 48" version="1.1">
<g id="surface1">
<path style=" stroke:none;fill-rule:nonzero;fill:rgb(49.411765%,34.117647%,76.862745%);fill-opacity:1;" d="M 4.042969 0 L 43.957031 0 C 46.1875 0 48 1.8125 48 4.042969 L 48 43.957031 C 48 46.1875 46.1875 48 43.957031 48 L 4.042969 48 C 1.8125 48 0 46.1875 0 43.957031 L 0 4.042969 C 0 1.8125 1.8125 0 4.042969 0 Z M 4.042969 0 "/>
<path style=" stroke:none;fill-rule:nonzero;fill:rgb(100%,100%,100%);fill-opacity:1;" d="M 40.238281 36.070312 L 7.769531 36.070312 C 7.023438 36.070312 6.421875 35.460938 6.421875 34.71875 L 6.421875 13.273438 C 6.421875 12.53125 7.023438 11.925781 7.769531 11.925781 L 40.238281 11.925781 C 40.984375 11.925781 41.585938 12.53125 41.585938 13.273438 L 41.585938 34.71875 C 41.585938 35.460938 40.984375 36.070312 40.238281 36.070312 Z M 40.238281 36.070312 "/>
<path style=" stroke:none;fill-rule:nonzero;fill:rgb(92.54902%,25.098039%,47.843137%);fill-opacity:1;" d="M 7.769531 11.304688 L 40.230469 11.304688 C 41.324219 11.304688 42.210938 12.1875 42.210938 13.28125 L 42.210938 34.71875 C 42.210938 35.8125 41.324219 36.695312 40.230469 36.695312 L 7.769531 36.695312 C 6.675781 36.695312 5.789062 35.8125 5.789062 34.71875 L 5.789062 13.28125 C 5.789062 12.1875 6.675781 11.304688 7.769531 11.304688 Z M 40.230469 35.445312 C 40.644531 35.445312 40.980469 35.109375 40.980469 34.695312 L 40.980469 13.28125 C 40.980469 12.867188 40.644531 12.53125 40.230469 12.53125 L 7.769531 12.53125 C 7.355469 12.53125 7.019531 12.867188 7.019531 13.28125 L 7.019531 34.71875 C 7.019531 35.132812 7.355469 35.46875 7.769531 35.46875 Z M 40.230469 35.445312 "/>
<path style=" stroke:none;fill-rule:nonzero;fill:rgb(92.54902%,25.098039%,47.843137%);fill-opacity:1;" d="M 42.0625 14.707031 L 6.0625 14.707031 L 6.0625 13.148438 C 6.058594 12.308594 6.722656 11.617188 7.5625 11.585938 L 40.46875 11.585938 C 40.890625 11.578125 41.292969 11.742188 41.59375 12.03125 C 41.890625 12.328125 42.0625 12.726562 42.0625 13.148438 Z M 42.0625 14.707031 "/>
<path style=" stroke:none;fill-rule:nonzero;fill:rgb(100%,100%,100%);fill-opacity:1;" d="M 34.84375 13.195312 C 34.84375 13.714844 34.421875 14.136719 33.898438 14.136719 C 33.378906 14.136719 32.953125 13.714844 32.953125 13.195312 C 32.953125 12.671875 33.378906 12.25 33.898438 12.25 C 34.421875 12.25 34.84375 12.671875 34.84375 13.195312 Z M 34.84375 13.195312 "/>
<path style=" stroke:none;fill-rule:nonzero;fill:rgb(100%,100%,100%);fill-opacity:1;" d="M 38 13.195312 C 38 13.714844 37.578125 14.136719 37.054688 14.136719 C 36.535156 14.136719 36.113281 13.714844 36.113281 13.195312 C 36.113281 12.671875 36.535156 12.25 37.054688 12.25 C 37.578125 12.25 38 12.671875 38 13.195312 Z M 38 13.195312 "/>
<path style=" stroke:none;fill-rule:nonzero;fill:rgb(100%,100%,100%);fill-opacity:1;" d="M 41.160156 13.195312 C 41.160156 13.714844 40.734375 14.136719 40.214844 14.136719 C 39.695312 14.136719 39.269531 13.714844 39.269531 13.195312 C 39.269531 12.671875 39.695312 12.25 40.214844 12.25 C 40.734375 12.25 41.160156 12.671875 41.160156 13.195312 Z M 41.160156 13.195312 "/>
</g>
</svg>
