
<svg xmlns="http://www.w3.org/2000/svg" xmlns:xlink="http://www.w3.org/1999/xlink" width="48px" height="48px" viewBox="0 0 48 48" version="1.1">
<g id="surface1">
<path style=" stroke:none;fill-rule:nonzero;fill:rgb(36.078431%,41.960784%,75.294118%);fill-opacity:1;" d="M 4.042969 0 L 43.957031 0 C 46.191406 0 48 1.808594 48 4.042969 L 48 43.957031 C 48 46.191406 46.191406 48 43.957031 48 L 4.042969 48 C 1.808594 48 0 46.191406 0 43.957031 L 0 4.042969 C 0 1.808594 1.808594 0 4.042969 0 Z M 4.042969 0 "/>
<path style=" stroke:none;fill-rule:nonzero;fill:rgb(16.078431%,71.372549%,96.470588%);fill-opacity:1;" d="M 32.761719 36 L 32.761719 24.621094 C 32.761719 23.792969 32.089844 23.121094 31.261719 23.121094 L 16.769531 23.121094 C 16.367188 23.113281 15.972656 23.265625 15.683594 23.546875 C 15.394531 23.832031 15.230469 24.21875 15.234375 24.621094 L 15.234375 36 Z M 32.761719 36 "/>
<path style=" stroke:none;fill-rule:nonzero;fill:rgb(100%,100%,100%);fill-opacity:1;" d="M 36.480469 15 L 33 11.519531 C 32.679688 11.203125 32.25 11.027344 31.800781 11.023438 L 14.113281 11.023438 C 12.410156 11.027344 11.027344 12.410156 11.023438 14.113281 L 11.023438 33.886719 C 11.027344 35.589844 12.410156 36.972656 14.113281 36.976562 L 33.886719 36.976562 C 35.589844 36.972656 36.972656 35.589844 36.976562 33.886719 L 36.976562 16.222656 C 36.980469 15.765625 36.800781 15.324219 36.480469 15 Z M 29.566406 14.574219 L 29.566406 16.988281 C 29.566406 17.453125 29.1875 17.828125 28.726562 17.828125 C 28.261719 17.828125 27.886719 17.453125 27.886719 16.988281 L 27.886719 14.59375 C 27.886719 14.132812 28.261719 13.753906 28.726562 13.753906 C 29.1875 13.753906 29.566406 14.132812 29.566406 14.59375 Z M 15.234375 35.574219 L 14.113281 35.574219 C 13.164062 35.574219 12.390625 34.800781 12.390625 33.847656 L 12.390625 14.113281 C 12.390625 13.164062 13.164062 12.390625 14.113281 12.390625 L 16.71875 12.390625 L 16.71875 18 C 16.71875 18.40625 16.878906 18.792969 17.171875 19.074219 C 17.460938 19.355469 17.851562 19.511719 18.253906 19.5 L 29.746094 19.5 C 30.578125 19.5 31.261719 18.835938 31.28125 18 L 31.28125 12.390625 L 31.777344 12.390625 C 31.863281 12.394531 31.945312 12.429688 32.011719 12.488281 L 35.511719 15.988281 C 35.574219 16.050781 35.609375 16.136719 35.609375 16.222656 L 35.609375 33.886719 C 35.609375 34.835938 34.835938 35.609375 33.886719 35.609375 L 15.234375 35.609375 Z M 15.234375 35.574219 "/>
<path style=" stroke:none;fill-rule:nonzero;fill:rgb(100%,100%,100%);fill-opacity:1;" d="M 18.328125 26.046875 L 29.664062 26.046875 L 29.664062 26.917969 L 18.328125 26.917969 Z M 18.328125 26.046875 "/>
<path style=" stroke:none;fill-rule:nonzero;fill:rgb(100%,100%,100%);fill-opacity:1;" d="M 18.328125 29.371094 L 29.664062 29.371094 L 29.664062 30.238281 L 18.328125 30.238281 Z M 18.328125 29.371094 "/>
<path style=" stroke:none;fill-rule:nonzero;fill:rgb(100%,100%,100%);fill-opacity:1;" d="M 18.328125 32.691406 L 29.664062 32.691406 L 29.664062 33.5625 L 18.328125 33.5625 Z M 18.328125 32.691406 "/>
</g>
</svg>
