
<svg xmlns="http://www.w3.org/2000/svg" xmlns:xlink="http://www.w3.org/1999/xlink" width="48px" height="48px" viewBox="0 0 48 48" version="1.1">
<g id="surface1">
<path style=" stroke:none;fill-rule:nonzero;fill:rgb(100%,100%,100%);fill-opacity:1;" d="M 38.835938 48 L 9.164062 48 C 4.101562 48 0 43.898438 0 38.835938 L 0 9.164062 C 0 4.101562 4.101562 0 9.164062 0 L 38.835938 0 C 43.898438 0 48 4.101562 48 9.164062 L 48 38.835938 C 48 43.898438 43.898438 48 38.835938 48 Z M 9.164062 5.25 C 7.007812 5.261719 5.261719 7.007812 5.25 9.164062 L 5.25 38.835938 C 5.261719 40.992188 7.007812 42.738281 9.164062 42.75 L 38.835938 42.75 C 40.992188 42.738281 42.738281 40.992188 42.75 38.835938 L 42.75 9.164062 C 42.738281 7.007812 40.992188 5.261719 38.835938 5.25 Z M 9.164062 5.25 "/>
<path style=" stroke:none;fill-rule:nonzero;fill:rgb(100%,100%,100%);fill-opacity:1;" d="M 10.195312 21.5625 L 7.886719 18.386719 L 13.535156 14.25 L 7.886719 10.148438 L 10.195312 7.007812 L 18 12.691406 C 18.503906 13.066406 18.796875 13.652344 18.796875 14.285156 C 18.796875 14.90625 18.503906 15.492188 18 15.867188 Z M 10.195312 21.5625 "/>
<path style=" stroke:none;fill-rule:nonzero;fill:rgb(100%,100%,100%);fill-opacity:1;" d="M 17.578125 17.578125 L 28.640625 17.578125 L 28.640625 21.515625 L 17.578125 21.515625 Z M 17.578125 17.578125 "/>
</g>
</svg>
