
<svg xmlns="http://www.w3.org/2000/svg" xmlns:xlink="http://www.w3.org/1999/xlink" width="24px" height="24px" viewBox="0 0 24 24" version="1.1">
<defs>
<linearGradient id="linear0" gradientUnits="userSpaceOnUse" x1="32" y1="3.8" x2="32" y2="23.49" gradientTransform="matrix(0.375,0,0,0.375,0,0)">
<stop offset="0" style="stop-color:rgb(16.078431%,71.372549%,96.470588%);stop-opacity:1;"/>
<stop offset="0.67" style="stop-color:rgb(39.607843%,45.098039%,82.745098%);stop-opacity:1;"/>
<stop offset="1" style="stop-color:rgb(49.411765%,34.117647%,76.862745%);stop-opacity:1;"/>
</linearGradient>
<linearGradient id="linear1" gradientUnits="userSpaceOnUse" x1="32" y1="60.9" x2="32" y2="18.72" gradientTransform="matrix(0.375,0,0,0.375,0,0)">
<stop offset="0" style="stop-color:rgb(86.27451%,87.058824%,88.627451%);stop-opacity:1;"/>
<stop offset="0.57" style="stop-color:rgb(87.058824%,87.843137%,89.411765%);stop-opacity:1;"/>
<stop offset="0.81" style="stop-color:rgb(89.803922%,90.588235%,91.764706%);stop-opacity:1;"/>
<stop offset="0.99" style="stop-color:rgb(94.901961%,95.294118%,95.686275%);stop-opacity:1;"/>
<stop offset="1" style="stop-color:rgb(95.294118%,95.686275%,96.078431%);stop-opacity:1;"/>
</linearGradient>
<linearGradient id="linear2" gradientUnits="userSpaceOnUse" x1="35.11" y1="50.92" x2="35.11" y2="31.48" gradientTransform="matrix(0.375,0,0,0.375,0,0)">
<stop offset="0" style="stop-color:rgb(75.294118%,75.294118%,75.294118%);stop-opacity:1;"/>
<stop offset="1" style="stop-color:rgb(55.686275%,55.686275%,55.686275%);stop-opacity:1;"/>
</linearGradient>
<linearGradient id="linear3" gradientUnits="userSpaceOnUse" x1="26.15" y1="50.92" x2="26.15" y2="31.48" gradientTransform="matrix(0.375,0,0,0.375,0,0)">
<stop offset="0" style="stop-color:rgb(75.294118%,75.294118%,75.294118%);stop-opacity:1;"/>
<stop offset="1" style="stop-color:rgb(55.686275%,55.686275%,55.686275%);stop-opacity:1;"/>
</linearGradient>
<linearGradient id="linear4" gradientUnits="userSpaceOnUse" x1="31.82" y1="50.92" x2="31.82" y2="31.48" gradientTransform="matrix(0.375,0,0,0.375,-0.00119486,0.0016154)">
<stop offset="0" style="stop-color:rgb(75.294118%,75.294118%,75.294118%);stop-opacity:1;"/>
<stop offset="1" style="stop-color:rgb(55.686275%,55.686275%,55.686275%);stop-opacity:1;"/>
</linearGradient>
<linearGradient id="linear5" gradientUnits="userSpaceOnUse" x1="32" y1="50.92" x2="32" y2="31.48" gradientTransform="matrix(0.375,0,0,0.375,0,0)">
<stop offset="0" style="stop-color:rgb(75.294118%,75.294118%,75.294118%);stop-opacity:1;"/>
<stop offset="1" style="stop-color:rgb(55.686275%,55.686275%,55.686275%);stop-opacity:1;"/>
</linearGradient>
</defs>
<g id="surface1">
<path style=" stroke:none;fill-rule:nonzero;fill:url(#linear0);" d="M 24 7.992188 C 23.996094 6.929688 23.136719 6.070312 22.074219 6.070312 L 15.542969 6.070312 C 14.207031 6.070312 13.117188 5.003906 13.089844 3.667969 C 13.113281 2.308594 12.027344 1.1875 10.667969 1.164062 L 1.269531 1.164062 C 0.566406 1.164062 0 1.730469 0 2.429688 L 0 8.78125 L 24 8.78125 Z M 24 7.992188 "/>
<path style=" stroke:none;fill-rule:nonzero;fill:url(#linear1);" d="M 22.074219 7.019531 L 1.925781 7.019531 C 0.859375 7.019531 0 7.882812 0 8.945312 L 0 20.917969 C 0.00390625 21.976562 0.863281 22.835938 1.925781 22.835938 L 22.074219 22.835938 C 23.136719 22.835938 23.996094 21.976562 24 20.917969 L 24 8.945312 C 24 7.882812 23.140625 7.019531 22.074219 7.019531 Z M 22.074219 7.019531 "/>
<path style=" stroke:none;fill-rule:nonzero;fill:url(#linear2);" d="M 13.78125 13.160156 C 13.617188 13.050781 13.402344 13.074219 13.269531 13.214844 L 12.519531 13.964844 C 12.441406 14.035156 12.398438 14.136719 12.398438 14.238281 C 12.398438 14.34375 12.441406 14.441406 12.519531 14.511719 C 12.589844 14.589844 12.6875 14.632812 12.789062 14.632812 C 12.894531 14.632812 12.992188 14.589844 13.066406 14.511719 L 13.84375 13.730469 C 13.921875 13.652344 13.960938 13.542969 13.949219 13.429688 C 13.9375 13.320312 13.875 13.21875 13.78125 13.160156 Z M 13.78125 13.160156 "/>
<path style=" stroke:none;fill-rule:nonzero;fill:url(#linear3);" d="M 11.171875 15.023438 C 11.132812 14.832031 10.960938 14.695312 10.765625 14.699219 L 8.828125 14.699219 C 8.621094 14.699219 8.453125 14.867188 8.453125 15.074219 C 8.453125 15.28125 8.621094 15.449219 8.828125 15.449219 L 10.789062 15.449219 C 10.898438 15.453125 11.003906 15.40625 11.078125 15.324219 C 11.152344 15.242188 11.1875 15.132812 11.171875 15.023438 Z M 11.171875 15.023438 "/>
<path style=" stroke:none;fill-rule:nonzero;fill:url(#linear4);" d="M 11.960938 14.625 C 12.21875 14.640625 12.414062 14.863281 12.402344 15.121094 C 12.386719 15.378906 12.167969 15.578125 11.90625 15.5625 C 11.648438 15.546875 11.453125 15.328125 11.464844 15.066406 C 11.480469 14.808594 11.703125 14.613281 11.960938 14.625 Z M 11.960938 14.625 "/>
<path style=" stroke:none;fill-rule:nonzero;fill:url(#linear5);" d="M 14.851562 12.167969 C 13.273438 10.589844 10.71875 10.558594 9.097656 12.097656 L 9.042969 12.148438 L 9.023438 12.171875 L 8.011719 13.1875 C 7.957031 13.242188 7.9375 13.324219 7.96875 13.398438 C 8 13.46875 8.066406 13.515625 8.144531 13.515625 L 10.074219 13.515625 C 10.148438 13.515625 10.21875 13.46875 10.25 13.398438 C 10.277344 13.324219 10.261719 13.242188 10.207031 13.1875 L 9.660156 12.636719 C 11 11.382812 13.097656 11.441406 14.367188 12.765625 C 15.636719 14.089844 15.601562 16.191406 14.292969 17.476562 C 12.980469 18.757812 10.878906 18.746094 9.582031 17.449219 C 9.429688 17.292969 9.179688 17.289062 9.023438 17.445312 C 8.867188 17.59375 8.867188 17.84375 9.019531 18 C 10.054688 19.066406 11.585938 19.492188 13.023438 19.113281 C 14.460938 18.734375 15.585938 17.613281 15.964844 16.175781 C 16.34375 14.734375 15.917969 13.207031 14.851562 12.167969 Z M 14.851562 12.167969 "/>
</g>
</svg>
