
<svg xmlns="http://www.w3.org/2000/svg" xmlns:xlink="http://www.w3.org/1999/xlink" width="24px" height="24px" viewBox="0 0 24 24" version="1.1">
<defs>
<linearGradient id="linear0" gradientUnits="userSpaceOnUse" x1="216.4059" y1="78.6112" x2="526.9974" y2="670.5933" gradientTransform="matrix(0.0325644,0,0,0.0325644,0,0)">
<stop offset="0" style="stop-color:rgb(25.490196%,74.509804%,83.529412%);stop-opacity:1;"/>
<stop offset="0.9954" style="stop-color:rgb(51.372549%,32.54902%,84.313725%);stop-opacity:1;"/>
</linearGradient>
</defs>
<g id="surface1">
<path style=" stroke:none;fill-rule:nonzero;fill:url(#linear0);" d="M 22.957031 9.484375 L 14.515625 1.042969 C 13.128906 -0.34375 10.871094 -0.34375 9.484375 1.042969 L 1.042969 9.484375 C -0.34375 10.871094 -0.34375 13.128906 1.042969 14.515625 L 9.484375 22.957031 C 10.871094 24.34375 13.128906 24.34375 14.515625 22.957031 L 22.957031 14.515625 C 24.347656 13.128906 24.347656 10.871094 22.957031 9.484375 Z M 22.957031 9.484375 "/>
<path style=" stroke:none;fill-rule:nonzero;fill:rgb(93.72549%,93.72549%,93.72549%);fill-opacity:1;" d="M 4.359375 10.929688 C 3.824219 11.609375 3.871094 12.597656 4.492188 13.226562 C 5.171875 13.902344 6.269531 13.902344 6.945312 13.226562 L 9.628906 10.539062 C 8.003906 9.507812 5.855469 9.640625 4.359375 10.929688 Z M 4.359375 10.929688 "/>
<path style=" stroke:none;fill-rule:nonzero;fill:rgb(93.72549%,93.72549%,93.72549%);fill-opacity:1;" d="M 19.507812 10.777344 C 18.828125 10.097656 17.730469 10.097656 17.054688 10.777344 L 14.324219 13.511719 C 15.964844 14.550781 18.132812 14.410156 19.628906 13.089844 C 20.179688 12.40625 20.136719 11.40625 19.507812 10.777344 Z M 19.507812 10.777344 "/>
<path style=" stroke:none;fill-rule:nonzero;fill:rgb(100%,100%,100%);fill-opacity:1;" d="M 13.992188 13.835938 C 13.71875 13.664062 13.460938 13.460938 13.226562 13.226562 C 11.488281 11.488281 11.488281 8.679688 13.226562 6.945312 C 13.902344 6.265625 13.902344 5.167969 13.226562 4.492188 C 12.546875 3.816406 11.449219 3.816406 10.777344 4.492188 L 4.492188 10.777344 C 5.992188 9.277344 8.292969 9.078125 10.007812 10.164062 C 10.28125 10.335938 10.539062 10.539062 10.777344 10.777344 C 12.511719 12.511719 12.511719 15.320312 10.777344 17.054688 C 10.097656 17.734375 10.097656 18.832031 10.777344 19.507812 C 11.453125 20.183594 12.550781 20.183594 13.226562 19.507812 L 19.503906 13.226562 C 18.007812 14.722656 15.710938 14.921875 13.992188 13.835938 Z M 13.992188 13.835938 "/>
</g>
</svg>
