
<svg xmlns="http://www.w3.org/2000/svg" xmlns:xlink="http://www.w3.org/1999/xlink" width="128px" height="128px" viewBox="0 0 128 128" version="1.1">
<g id="surface1">
<path style=" stroke:none;fill-rule:nonzero;fill:rgb(100%,100%,100%);fill-opacity:1;" d="M 107.0625 43.121094 C 104.136719 40.667969 99.800781 40.953125 97.230469 43.769531 C 94.65625 46.582031 94.753906 50.925781 97.457031 53.621094 L 101.0625 56.902344 L 70 56.902344 C 67.371094 56.761719 64.875 58.082031 63.519531 60.34375 C 62.160156 62.597656 62.160156 65.421875 63.519531 67.675781 C 64.875 69.9375 67.371094 71.261719 70 71.121094 L 100.457031 71.121094 L 97.042969 74.816406 C 94.378906 77.703125 94.558594 82.199219 97.4375 84.859375 C 100.324219 87.519531 104.816406 87.34375 107.480469 84.457031 L 128 62.238281 Z M 107.0625 43.121094 "/>
<path style=" stroke:none;fill-rule:nonzero;fill:rgb(100%,100%,100%);fill-opacity:1;" d="M 78.761719 90.738281 C 63.988281 105.511719 40.042969 105.515625 25.269531 90.746094 C 10.5 75.972656 10.5 52.027344 25.269531 37.253906 C 40.042969 22.484375 63.988281 22.488281 78.761719 37.261719 C 81.59375 39.496094 85.652344 39.261719 88.203125 36.703125 C 90.761719 34.152344 90.996094 30.09375 88.761719 27.261719 C 72.125 10.597656 46.371094 7.191406 25.972656 18.957031 C 5.578125 30.722656 -4.363281 54.730469 1.734375 77.46875 C 7.832031 100.214844 28.453125 116.015625 52 116 C 65.8125 116.042969 79.0625 110.550781 88.800781 100.761719 C 91.035156 97.925781 90.796875 93.871094 88.246094 91.3125 C 85.691406 88.761719 81.636719 88.527344 78.800781 90.761719 Z M 78.761719 90.738281 "/>
</g>
</svg>
