
<svg xmlns="http://www.w3.org/2000/svg" xmlns:xlink="http://www.w3.org/1999/xlink" width="128px" height="128px" viewBox="0 0 128 128" version="1.1">
<g id="surface1">
<path style=" stroke:none;fill-rule:nonzero;fill:rgb(100%,100%,100%);fill-opacity:1;" d="M 64 128 C 41.097656 127.972656 20.464844 114.15625 11.707031 92.996094 C 2.957031 71.828125 7.808594 47.480469 24 31.28125 C 27.019531 28.253906 31.921875 28.25 34.949219 31.269531 C 37.972656 34.292969 37.980469 39.191406 34.957031 42.21875 C 18.878906 58.300781 18.878906 84.375 34.964844 100.457031 C 51.042969 116.535156 77.113281 116.535156 93.199219 100.457031 C 109.28125 84.375 109.28125 58.300781 93.199219 42.21875 C 90.84375 40.386719 89.753906 37.363281 90.390625 34.453125 C 91.03125 31.535156 93.292969 29.25 96.199219 28.574219 C 99.105469 27.894531 102.136719 28.949219 104 31.28125 C 120.191406 47.480469 125.042969 71.828125 116.292969 92.996094 C 107.535156 114.15625 86.902344 127.972656 64 128 Z M 64 128 "/>
<path style=" stroke:none;fill-rule:nonzero;fill:rgb(100%,100%,100%);fill-opacity:1;" d="M 64 70.9375 C 59.722656 70.9375 56.261719 67.472656 56.261719 63.199219 L 56.261719 7.738281 C 56.261719 3.464844 59.722656 0 64 0 C 68.277344 0 71.738281 3.464844 71.738281 7.738281 L 71.738281 63.199219 C 71.738281 67.472656 68.277344 70.9375 64 70.9375 Z M 64 70.9375 "/>
</g>
</svg>
