
<svg xmlns="http://www.w3.org/2000/svg" xmlns:xlink="http://www.w3.org/1999/xlink" width="128px" height="128px" viewBox="0 0 128 128" version="1.1">
<g id="surface1">
<path style=" stroke:none;fill-rule:nonzero;fill:rgb(100%,100%,100%);fill-opacity:1;" d="M 87.519531 127.4375 L 36.097656 127.4375 C 23.796875 127.425781 13.824219 117.464844 13.800781 105.160156 L 13.800781 62.097656 C 13.824219 49.796875 23.796875 39.832031 36.097656 39.816406 L 66 39.816406 C 69.785156 39.816406 72.859375 42.890625 72.859375 46.683594 C 72.859375 50.46875 69.785156 53.542969 66 53.542969 L 36.097656 53.542969 C 31.371094 53.542969 27.53125 57.371094 27.519531 62.097656 L 27.519531 105.160156 C 27.53125 109.890625 31.371094 113.71875 36.097656 113.71875 L 87.519531 113.71875 C 92.25 113.71875 96.089844 109.890625 96.097656 105.160156 L 96.097656 62.097656 C 96.089844 57.371094 92.25 53.542969 87.519531 53.542969 L 80.660156 53.542969 L 80.660156 25.542969 C 80.660156 18.761719 75.160156 13.261719 68.378906 13.261719 L 60.378906 13.261719 C 53.597656 13.261719 48.097656 18.761719 48.097656 25.542969 L 48.097656 28.378906 C 48.097656 32.167969 45.03125 35.238281 41.238281 35.238281 C 37.453125 35.238281 34.378906 32.167969 34.378906 28.378906 L 34.378906 25.4375 C 34.378906 11.078125 46.019531 -0.5625 60.378906 -0.5625 L 68.378906 -0.5625 C 82.738281 -0.5625 94.378906 11.078125 94.378906 25.4375 L 94.378906 40.902344 C 103.566406 43.886719 109.785156 52.441406 109.800781 62.097656 L 109.800781 105.160156 C 109.777344 117.457031 99.816406 127.417969 87.519531 127.4375 Z M 87.519531 127.4375 "/>
</g>
</svg>
