
<svg xmlns="http://www.w3.org/2000/svg" xmlns:xlink="http://www.w3.org/1999/xlink" width="22px" height="22px" viewBox="0 0 22 22" version="1.1">
<g id="surface1">
<path style=" stroke:none;fill-rule:nonzero;fill:rgb(100%,100%,100%);fill-opacity:1;" d="M 11 22 C 7.0625 21.996094 3.515625 19.621094 2.011719 15.984375 C 0.507812 12.34375 1.34375 8.160156 4.125 5.375 C 4.644531 4.855469 5.488281 4.855469 6.007812 5.375 C 6.527344 5.894531 6.527344 6.738281 6.007812 7.257812 C 3.246094 10.019531 3.246094 14.503906 6.007812 17.265625 C 8.773438 20.03125 13.253906 20.03125 16.019531 17.265625 C 18.78125 14.503906 18.78125 10.019531 16.019531 7.257812 C 15.613281 6.941406 15.425781 6.421875 15.535156 5.921875 C 15.644531 5.421875 16.035156 5.027344 16.535156 4.910156 C 17.03125 4.792969 17.554688 4.976562 17.875 5.375 C 20.65625 8.160156 21.492188 12.34375 19.988281 15.984375 C 18.484375 19.621094 14.9375 21.996094 11 22 Z M 11 22 "/>
<path style=" stroke:none;fill-rule:nonzero;fill:rgb(100%,100%,100%);fill-opacity:1;" d="M 11 12.191406 C 10.265625 12.191406 9.667969 11.597656 9.667969 10.863281 L 9.667969 1.332031 C 9.667969 0.59375 10.265625 0 11 0 C 11.734375 0 12.332031 0.59375 12.332031 1.332031 L 12.332031 10.863281 C 12.332031 11.597656 11.734375 12.191406 11 12.191406 Z M 11 12.191406 "/>
</g>
</svg>
