
<svg xmlns="http://www.w3.org/2000/svg" xmlns:xlink="http://www.w3.org/1999/xlink" width="22px" height="22px" viewBox="0 0 22 22" version="1.1">
<g id="surface1">
<path style=" stroke:none;fill-rule:nonzero;fill:rgb(100%,100%,100%);fill-opacity:1;" d="M 18.402344 7.410156 C 17.898438 6.988281 17.152344 7.039062 16.710938 7.523438 C 16.269531 8.007812 16.285156 8.753906 16.75 9.214844 L 17.371094 9.78125 L 12.03125 9.78125 C 11.578125 9.753906 11.152344 9.984375 10.917969 10.371094 C 10.683594 10.757812 10.683594 11.246094 10.917969 11.632812 C 11.152344 12.019531 11.578125 12.246094 12.03125 12.222656 L 17.265625 12.222656 L 16.679688 12.859375 C 16.222656 13.355469 16.253906 14.128906 16.746094 14.585938 C 17.242188 15.042969 18.015625 15.011719 18.472656 14.515625 L 22 10.699219 Z M 18.402344 7.410156 "/>
<path style=" stroke:none;fill-rule:nonzero;fill:rgb(100%,100%,100%);fill-opacity:1;" d="M 13.535156 15.597656 C 11 18.136719 6.882812 18.136719 4.34375 15.597656 C 1.804688 13.058594 1.804688 8.941406 4.34375 6.402344 C 6.882812 3.863281 11 3.863281 13.535156 6.402344 C 14.023438 6.789062 14.722656 6.746094 15.160156 6.308594 C 15.597656 5.871094 15.640625 5.171875 15.253906 4.683594 C 12.394531 1.820312 7.96875 1.234375 4.464844 3.257812 C 0.957031 5.28125 -0.75 9.40625 0.296875 13.316406 C 1.347656 17.222656 4.890625 19.941406 8.9375 19.9375 C 11.3125 19.945312 13.589844 19 15.261719 17.316406 C 15.648438 16.832031 15.605469 16.132812 15.167969 15.695312 C 14.726562 15.257812 14.03125 15.214844 13.542969 15.597656 Z M 13.535156 15.597656 "/>
</g>
</svg>
