
<svg xmlns="http://www.w3.org/2000/svg" xmlns:xlink="http://www.w3.org/1999/xlink" width="22px" height="22px" viewBox="0 0 22 22" version="1.1">
<g id="surface1">
<path style=" stroke:none;fill-rule:nonzero;fill:rgb(100%,100%,100%);fill-opacity:1;" d="M 15.042969 21.902344 L 6.203125 21.902344 C 4.089844 21.902344 2.375 20.1875 2.371094 18.074219 L 2.371094 10.671875 C 2.375 8.558594 4.089844 6.847656 6.203125 6.84375 L 11.34375 6.84375 C 11.996094 6.84375 12.523438 7.371094 12.523438 8.023438 C 12.523438 8.675781 11.996094 9.203125 11.34375 9.203125 L 6.203125 9.203125 C 5.390625 9.203125 4.730469 9.859375 4.730469 10.671875 L 4.730469 18.074219 C 4.730469 18.886719 5.390625 19.546875 6.203125 19.546875 L 15.042969 19.546875 C 15.855469 19.546875 16.515625 18.886719 16.515625 18.074219 L 16.515625 10.671875 C 16.515625 9.859375 15.855469 9.203125 15.042969 9.203125 L 13.863281 9.203125 L 13.863281 4.390625 C 13.863281 3.222656 12.917969 2.277344 11.753906 2.277344 L 10.378906 2.277344 C 9.210938 2.277344 8.265625 3.222656 8.265625 4.390625 L 8.265625 4.878906 C 8.265625 5.527344 7.738281 6.058594 7.089844 6.058594 C 6.4375 6.058594 5.910156 5.527344 5.910156 4.878906 L 5.910156 4.371094 C 5.910156 1.90625 7.910156 -0.0976562 10.378906 -0.0976562 L 11.753906 -0.0976562 C 14.222656 -0.0976562 16.222656 1.90625 16.222656 4.371094 L 16.222656 7.03125 C 17.800781 7.542969 18.871094 9.011719 18.871094 10.671875 L 18.871094 18.074219 C 18.867188 20.1875 17.15625 21.898438 15.042969 21.902344 Z M 15.042969 21.902344 "/>
</g>
</svg>
