
<svg xmlns="http://www.w3.org/2000/svg" xmlns:xlink="http://www.w3.org/1999/xlink" width="96px" height="96px" viewBox="0 0 96 96" version="1.1">
<g id="surface1">
<path style=" stroke:none;fill-rule:nonzero;fill:rgb(37.647059%,41.960784%,50.980392%);fill-opacity:1;" d="M 90.984375 85.957031 L 82.5 85.957031 L 82.5 23.308594 C 82.5 19.769531 79.640625 16.933594 76.125 16.933594 L 74.8125 16.933594 C 73.125 16.933594 71.484375 17.613281 70.3125 18.796875 C 69.128906 20.003906 68.4375 21.609375 68.4375 23.308594 L 68.4375 85.957031 L 60 85.957031 L 60 44.636719 C 60 41.121094 57.175781 38.261719 53.636719 38.261719 L 52.3125 38.261719 C 48.796875 38.261719 45.9375 41.121094 45.9375 44.636719 L 45.9375 85.957031 L 37.5 85.957031 L 37.5 62.203125 C 37.5 60.515625 36.808594 58.886719 35.625 57.703125 C 34.441406 56.496094 32.8125 55.863281 31.125 55.863281 L 29.8125 55.863281 C 26.296875 55.863281 23.4375 58.6875 23.4375 62.203125 L 23.4375 85.957031 L 12.234375 85.957031 C 11.015625 85.957031 10.019531 84.984375 10.019531 83.765625 L 10.019531 5.015625 C 10.125 3.175781 9.199219 1.394531 7.628906 0.433594 C 6.011719 -0.515625 4.042969 -0.515625 2.4375 0.433594 C 0.808594 1.394531 -0.105469 3.175781 0 5.015625 L 0 83.765625 C 0 90.515625 5.484375 96 12.234375 96 L 90.984375 96 C 92.824219 96.105469 94.605469 95.191406 95.566406 93.5625 C 96.515625 91.957031 96.515625 89.988281 95.566406 88.371094 C 94.605469 86.800781 92.824219 85.875 90.984375 85.957031 Z M 90.984375 85.957031 "/>
</g>
</svg>
