
<svg xmlns="http://www.w3.org/2000/svg" xmlns:xlink="http://www.w3.org/1999/xlink" width="96px" height="96px" viewBox="0 0 96 96" version="1.1">
<g id="surface1">
<path style=" stroke:none;fill-rule:nonzero;fill:rgb(100%,100%,100%);fill-opacity:1;" d="M 50.339844 96 L 46.5 96 C 40.679688 94.378906 36.976562 90.886719 36.480469 84.613281 C 36.359375 83.113281 36.015625 81.808594 34.453125 81.210938 C 32.894531 80.609375 31.800781 81.390625 30.660156 82.394531 C 25.960938 86.710938 18.6875 86.535156 14.207031 81.992188 C 9.726562 77.449219 9.644531 70.175781 14.023438 65.535156 C 14.96875 64.453125 15.75 63.433594 15.089844 61.933594 C 14.429688 60.433594 13.078125 60.195312 11.566406 60.148438 C 6.589844 60.050781 2.21875 56.820312 0.660156 52.09375 C 0.449219 51.511719 0.226562 51 0 50.339844 L 0 46.5 C 1.636719 40.589844 5.21875 36.886719 11.59375 36.464844 C 12.96875 36.574219 14.257812 35.777344 14.773438 34.5 C 15.21875 33.195312 14.8125 31.753906 13.753906 30.871094 C 9.136719 26.222656 9.160156 18.710938 13.808594 14.09375 C 18.453125 9.472656 25.964844 9.496094 30.585938 14.144531 C 31.550781 15.277344 33.152344 15.625 34.5 15 C 36 14.339844 36.195312 13.078125 36.253906 11.683594 C 36.269531 6.25 40.042969 1.550781 45.34375 0.359375 C 45.601562 0.261719 45.847656 0.140625 46.078125 0 L 49.921875 0 C 50.078125 0.128906 50.253906 0.234375 50.445312 0.316406 C 56.324219 1.921875 59.296875 5.609375 59.894531 11.699219 C 60.007812 12.925781 60.675781 14.03125 61.710938 14.699219 C 62.90625 14.902344 64.128906 14.566406 65.054688 13.785156 C 70.230469 9.511719 77.054688 9.554688 81.644531 14.054688 C 86.089844 18.621094 86.1875 25.867188 81.871094 30.554688 C 80.765625 31.511719 80.414062 33.074219 81 34.410156 C 81.628906 35.910156 82.890625 36.164062 84.300781 36.179688 C 87.191406 36 90.007812 37.136719 91.964844 39.269531 C 93.5 41.421875 94.851562 43.699219 96 46.078125 L 96 49.921875 C 94.171875 56.070312 90.375 59.730469 83.65625 59.941406 C 82.632812 60.09375 81.753906 60.746094 81.316406 61.679688 C 81.1875 62.882812 81.523438 64.09375 82.261719 65.054688 C 86.519531 70.214844 86.476562 77.144531 81.976562 81.675781 C 77.347656 86.09375 70.097656 86.207031 65.339844 81.929688 C 64.433594 81.140625 63.21875 80.808594 62.039062 81.03125 C 61.023438 81.789062 60.375 82.945312 60.253906 84.210938 C 60 87.210938 59.324219 90 57.121094 91.90625 C 54.984375 93.46875 52.71875 94.839844 50.339844 96 Z M 48.210938 88.273438 C 49.359375 88.316406 50.472656 87.882812 51.285156 87.070312 C 52.097656 86.257812 52.539062 85.148438 52.5 84 C 52.605469 79.394531 54.523438 75.871094 58.785156 73.980469 C 62.738281 72.082031 67.460938 72.933594 70.5 76.09375 C 72.15625 77.707031 74.804688 77.667969 76.417969 76.011719 C 78.027344 74.355469 77.992188 71.707031 76.335938 70.09375 C 73.25 67.066406 72.390625 62.433594 74.175781 58.5 C 75.914062 54.328125 79.289062 52.410156 83.683594 52.09375 C 86.578125 51.898438 88.335938 50.265625 88.273438 47.863281 C 88.214844 45.464844 86.460938 43.964844 83.503906 43.816406 C 79.320312 43.898438 75.511719 41.402344 73.921875 37.53125 C 72.019531 33.554688 72.804688 28.816406 75.886719 25.664062 C 77.835938 23.519531 77.894531 21.164062 76.15625 19.410156 C 74.414062 17.65625 72.121094 17.910156 70.066406 19.695312 C 67.054688 22.695312 62.503906 23.539062 58.621094 21.808594 C 54.359375 20.054688 52.410156 16.636719 52.140625 12.148438 C 51.976562 9.421875 50.339844 7.648438 48 7.648438 C 46.84375 7.667969 45.75 8.160156 44.96875 9.011719 C 44.1875 9.863281 43.792969 10.996094 43.875 12.148438 C 43.710938 16.648438 41.851562 20.191406 37.648438 21.988281 C 33.632812 23.945312 28.816406 23.144531 25.648438 19.996094 C 24.042969 18.339844 21.398438 18.296875 19.738281 19.90625 C 18.082031 21.511719 18.042969 24.15625 19.648438 25.816406 C 22.757812 28.867188 23.628906 33.535156 21.824219 37.5 C 20.347656 41.492188 16.542969 44.140625 12.285156 44.144531 C 11.5 44.144531 10.726562 44.320312 10.019531 44.65625 C 8.339844 45.433594 7.414062 47.265625 7.785156 49.078125 C 8.132812 51.152344 9.992188 52.628906 12.089844 52.5 C 16.695312 52.605469 20.21875 54.523438 22.09375 58.800781 C 23.972656 62.761719 23.089844 67.484375 19.90625 70.5 C 19.410156 71.007812 19.042969 71.625 18.824219 72.300781 C 18.207031 74.042969 18.871094 75.984375 20.429688 76.980469 C 22.074219 78.113281 24.300781 77.886719 25.679688 76.441406 C 28.3125 73.726562 32.203125 72.636719 35.863281 73.589844 C 40.5625 74.582031 43.96875 78.660156 44.101562 83.460938 C 44.371094 86.503906 45.839844 88.214844 48.210938 88.273438 Z M 48.210938 88.273438 "/>
<path style=" stroke:none;fill-rule:nonzero;fill:rgb(100%,100%,100%);fill-opacity:1;" d="M 48 63.914062 C 39.210938 63.914062 32.085938 56.789062 32.085938 48 C 32.085938 39.210938 39.210938 32.085938 48 32.085938 C 56.789062 32.085938 63.914062 39.210938 63.914062 48 C 63.851562 56.761719 56.761719 63.851562 48 63.914062 Z M 56.203125 48 C 56.191406 44.671875 54.171875 41.683594 51.089844 40.429688 C 48.007812 39.175781 44.476562 39.910156 42.144531 42.28125 C 39.816406 44.65625 39.148438 48.203125 40.457031 51.261719 C 41.765625 54.320312 44.792969 56.285156 48.121094 56.234375 C 52.585938 56.097656 56.152344 52.46875 56.203125 48 Z M 56.203125 48 "/>
</g>
</svg>
