
<svg xmlns="http://www.w3.org/2000/svg" xmlns:xlink="http://www.w3.org/1999/xlink" width="96px" height="96px" viewBox="0 0 96 96" version="1.1">
<g id="surface1">
<path style=" stroke:none;fill-rule:nonzero;fill:rgb(37.647059%,41.960784%,50.980392%);fill-opacity:1;" d="M 93.1875 82.066406 L 93.1875 18.609375 C 93.175781 8.355469 84.878906 0.0117188 74.613281 0 L 42.550781 0 C 32.296875 0.046875 24 8.355469 24 18.609375 L 24 57.996094 C 21.9375 57.175781 19.734375 56.753906 17.496094 56.753906 C 9.363281 56.753906 2.730469 62.25 2.730469 69.046875 C 2.730469 75.832031 9.363281 81.363281 17.496094 81.363281 C 25.675781 81.363281 32.261719 75.832031 32.261719 69.046875 C 32.261719 68.859375 32.261719 68.671875 32.261719 68.484375 L 32.378906 68.484375 L 32.378906 26.050781 C 32.378906 21.855469 35.800781 18.433594 39.984375 18.433594 L 77.25 18.433594 C 81.433594 18.480469 84.808594 21.855469 84.832031 26.050781 L 84.832031 72.550781 C 82.828125 71.765625 80.683594 71.355469 78.5625 71.355469 C 70.394531 71.355469 63.796875 76.863281 63.796875 83.636719 C 63.796875 90.433594 70.394531 96 78.5625 96 C 86.730469 96 93.328125 90.503906 93.328125 83.683594 C 93.328125 83.121094 93.269531 82.605469 93.1875 82.066406 Z M 93.1875 82.066406 "/>
<path style=" stroke:none;fill-rule:nonzero;fill:rgb(37.647059%,41.960784%,50.980392%);fill-opacity:1;" d="M 73.324219 42.1875 L 47.261719 27.1875 C 46.488281 26.753906 45.503906 26.753906 44.683594 27.1875 C 43.886719 27.644531 43.394531 28.5 43.394531 29.425781 L 43.394531 59.484375 C 43.394531 60.386719 43.886719 61.253906 44.683594 61.6875 C 45.503906 62.144531 46.488281 62.144531 47.261719 61.699219 L 73.324219 46.699219 C 74.144531 46.265625 74.671875 45.386719 74.671875 44.449219 C 74.671875 43.5 74.144531 42.621094 73.324219 42.1875 Z M 73.324219 42.1875 "/>
</g>
</svg>
