
<svg xmlns="http://www.w3.org/2000/svg" xmlns:xlink="http://www.w3.org/1999/xlink" width="96px" height="96px" viewBox="0 0 96 96" version="1.1">
<defs>
<linearGradient id="linear0" gradientUnits="userSpaceOnUse" x1="31.18" y1="-3.52" x2="31.18" y2="47.91" gradientTransform="matrix(1.5,0,0,1.5,0,0)">
<stop offset="0" style="stop-color:rgb(16.078431%,71.372549%,96.470588%);stop-opacity:1;"/>
<stop offset="1" style="stop-color:rgb(49.411765%,34.117647%,76.862745%);stop-opacity:1;"/>
</linearGradient>
</defs>
<g id="surface1">
<path style=" stroke:none;fill-rule:nonzero;fill:rgb(91.764706%,92.156863%,93.72549%);fill-opacity:1;" d="M 8.074219 0 L 87.925781 0 C 92.390625 0 96 3.609375 96 8.074219 L 96 87.925781 C 96 92.390625 92.390625 96 87.925781 96 L 8.074219 96 C 3.609375 96 0 92.390625 0 87.925781 L 0 8.074219 C 0 3.609375 3.609375 0 8.074219 0 Z M 8.074219 0 "/>
<path style=" stroke:none;fill-rule:nonzero;fill:url(#linear0);" d="M 73.347656 47.167969 C 71.800781 45.609375 69.339844 44.847656 66 44.847656 C 64.125 44.847656 62.285156 45.128906 60.503906 45.691406 C 58.769531 46.207031 57.140625 46.980469 55.640625 48 L 55.640625 51.75 C 55.640625 52.042969 55.640625 52.183594 55.839844 52.253906 C 56.0625 52.300781 56.121094 52.253906 56.296875 52.078125 C 57.703125 51.046875 59.203125 50.214844 60.796875 49.605469 C 62.296875 49.042969 63.878906 48.761719 65.449219 48.785156 C 66.328125 48.761719 67.207031 48.855469 68.0625 49.078125 C 68.753906 49.230469 69.363281 49.546875 69.878906 50.050781 C 70.394531 50.578125 70.769531 51.234375 70.933594 51.949219 C 71.214844 52.980469 71.332031 54 71.296875 55.066406 L 71.296875 55.5 L 62.472656 56.777344 C 59.777344 57 57.234375 58.136719 55.277344 60 L 44.203125 27 C 43.324219 24.421875 40.910156 22.675781 38.203125 22.652344 C 35.472656 22.675781 33.046875 24.421875 32.203125 27 L 18 69.246094 C 17.589844 70.464844 17.800781 71.8125 18.550781 72.855469 C 19.300781 73.886719 20.496094 74.496094 21.785156 74.496094 C 23.496094 74.496094 25.042969 73.394531 25.558594 71.753906 L 28.6875 62.203125 C 29.0625 61.066406 30.128906 60.292969 31.3125 60.292969 L 45 60.292969 C 46.207031 60.269531 47.285156 61.078125 47.636719 62.214844 L 50.636719 71.730469 C 51.175781 73.371094 52.699219 74.496094 54.421875 74.496094 L 62.097656 74.660156 C 63.878906 74.660156 65.625 74.238281 67.207031 73.453125 C 68.015625 73.066406 68.765625 72.550781 69.421875 71.953125 C 70.089844 71.390625 70.652344 70.699219 71.097656 69.9375 L 71.203125 72.421875 C 71.238281 73.640625 72.234375 74.613281 73.453125 74.578125 C 74.660156 74.542969 75.609375 73.535156 75.574219 72.328125 L 75.574219 54.761719 C 75.644531 51.246094 74.917969 48.714844 73.347656 47.167969 Z M 41.496094 53.578125 L 34.839844 53.578125 C 33.949219 53.578125 33.140625 53.167969 32.613281 52.453125 C 32.074219 51.738281 31.933594 50.8125 32.203125 49.980469 L 36.832031 35.214844 C 36.996094 34.628906 37.546875 34.183594 38.191406 34.183594 C 38.800781 34.183594 39.363281 34.628906 39.515625 35.214844 L 44.144531 49.980469 C 44.425781 50.8125 44.261719 51.738281 43.734375 52.453125 C 43.230469 53.167969 42.386719 53.578125 41.496094 53.578125 Z M 71.496094 62.578125 C 71.496094 63.644531 71.261719 64.699219 70.828125 65.671875 C 70.394531 66.691406 69.761719 67.582031 69 68.378906 C 68.238281 69.140625 67.324219 69.785156 66.328125 70.253906 C 65.355469 70.722656 64.265625 70.980469 63.175781 70.957031 C 61.722656 71.027344 60.292969 70.582031 59.121094 69.714844 C 58.628906 69.328125 58.230469 68.8125 57.972656 68.214844 L 57.902344 68.003906 C 57.691406 67.417969 57.5625 66.785156 57.5625 66.175781 C 57.457031 64.5 58.125 62.871094 59.378906 61.769531 C 60.714844 60.703125 62.332031 60.011719 64.066406 59.824219 L 70.3125 59.0625 C 70.605469 59.027344 70.910156 59.109375 71.144531 59.308594 C 71.390625 59.519531 71.496094 59.8125 71.496094 60.128906 Z M 71.496094 62.578125 "/>
</g>
</svg>
