
<svg xmlns="http://www.w3.org/2000/svg" xmlns:xlink="http://www.w3.org/1999/xlink" width="96px" height="96px" viewBox="0 0 96 96" version="1.1">
<g id="surface1">
<path style=" stroke:none;fill-rule:nonzero;fill:rgb(37.647059%,41.960784%,50.980392%);fill-opacity:1;" d="M 95.0625 21.246094 C 95.015625 20.074219 94.300781 19.066406 93.199219 18.609375 L 48.949219 0.375 C 48.199219 0.046875 47.378906 0.046875 46.605469 0.375 L 2.355469 18.609375 C 1.183594 19.066406 0.421875 20.203125 0.433594 21.433594 C 0.433594 21.550781 0.433594 21.609375 0.433594 21.703125 C 0.140625 22.183594 0 22.746094 0 23.332031 L 0 74.519531 C -0.0117188 75.761719 0.75 76.921875 1.886719 77.378906 L 46.019531 95.625 C 46.394531 95.800781 46.816406 95.859375 47.238281 95.859375 C 47.484375 95.8125 47.753906 95.753906 48 95.625 C 48.246094 95.753906 48.515625 95.8125 48.761719 95.859375 C 49.183594 95.859375 49.605469 95.800781 49.957031 95.625 L 94.113281 77.378906 C 95.25 76.921875 96.011719 75.761719 96 74.519531 L 96 23.332031 C 95.988281 22.546875 95.625 21.796875 95.0625 21.246094 Z M 44.121094 88.171875 L 6.175781 72.457031 L 6.175781 27.9375 L 44.121094 43.640625 Z M 89.824219 72.457031 L 51.878906 88.171875 L 51.878906 43.640625 L 89.824219 27.9375 Z M 89.824219 72.457031 "/>
</g>
</svg>
