
<svg xmlns="http://www.w3.org/2000/svg" xmlns:xlink="http://www.w3.org/1999/xlink" width="96px" height="96px" viewBox="0 0 96 96" version="1.1">
<g id="surface1">
<path style=" stroke:none;fill-rule:nonzero;fill:rgb(37.647059%,41.960784%,50.980392%);fill-opacity:1;" d="M 48 86.542969 C 21.550781 86.542969 0 69.246094 0 48 C 0 26.753906 21.550781 9.457031 48 9.457031 C 74.449219 9.457031 96 26.753906 96 48 C 95.988281 53.707031 94.417969 59.308594 91.5 64.230469 C 90.269531 66.363281 88.113281 67.792969 85.6875 68.074219 C 83.203125 68.425781 80.683594 67.582031 78.925781 65.8125 L 72.234375 59.097656 C 71.261719 58.019531 69.761719 57.5625 68.355469 57.925781 C 66.949219 58.277344 65.847656 59.378906 65.484375 60.785156 C 65.121094 62.203125 65.589844 63.691406 66.667969 64.675781 L 71.578125 69.5625 C 73.511719 71.496094 74.332031 74.285156 73.746094 76.933594 C 73.207031 79.582031 71.378906 81.75 68.859375 82.722656 C 62.203125 85.277344 55.125 86.578125 48 86.542969 Z M 48 17.636719 C 26.050781 17.636719 8.191406 31.265625 8.191406 48 C 8.191406 64.734375 26.050781 78.363281 48 78.363281 C 54.128906 78.386719 60.1875 77.285156 65.917969 75.105469 L 60.890625 70.5 C 56.121094 65.777344 56.109375 58.089844 60.855469 53.355469 C 65.578125 48.597656 73.265625 48.574219 78 53.308594 L 84.714844 60 C 86.707031 56.308594 87.785156 52.183594 87.808594 48 C 87.808594 31.265625 69.949219 17.636719 48 17.636719 Z M 48 17.636719 "/>
<path style=" stroke:none;fill-rule:nonzero;fill:rgb(37.647059%,41.960784%,50.980392%);fill-opacity:1;" d="M 47.894531 39.082031 C 47.894531 33.433594 42.316406 28.875 35.402344 28.875 C 28.5 28.875 22.910156 33.433594 22.910156 39.082031 C 22.910156 44.730469 28.5 49.3125 35.402344 49.3125 C 42.316406 49.3125 47.894531 44.730469 47.894531 39.082031 Z M 47.894531 39.082031 "/>
<path style=" stroke:none;fill-rule:nonzero;fill:rgb(37.647059%,41.960784%,50.980392%);fill-opacity:1;" d="M 45.058594 60.339844 C 45.058594 56.296875 40.675781 53.015625 35.238281 53.015625 C 29.800781 53.015625 25.394531 56.296875 25.394531 60.339844 C 25.394531 64.394531 29.800781 67.6875 35.238281 67.6875 C 40.675781 67.6875 45.058594 64.394531 45.058594 60.339844 Z M 45.058594 60.339844 "/>
</g>
</svg>
