
<svg xmlns="http://www.w3.org/2000/svg" xmlns:xlink="http://www.w3.org/1999/xlink" width="96px" height="96px" viewBox="0 0 96 96" version="1.1">
<g id="surface1">
<path style=" stroke:none;fill-rule:nonzero;fill:rgb(37.647059%,41.960784%,50.980392%);fill-opacity:1;" d="M 70.546875 20.625 L 70.546875 77.203125 L 73.125 81.691406 L 81.386719 96 L 89.671875 81.691406 L 92.25 77.203125 L 92.25 20.625 Z M 70.546875 20.625 "/>
<path style=" stroke:none;fill-rule:nonzero;fill:rgb(37.647059%,41.960784%,50.980392%);fill-opacity:1;" d="M 92.25 15.5625 L 70.5 15.5625 L 70.5 7.699219 C 70.5 5.636719 71.308594 3.691406 72.761719 2.25 C 74.238281 0.796875 76.183594 -0.0117188 78.246094 0 L 84.550781 0 C 88.816406 0 92.25 3.433594 92.25 7.699219 Z M 92.25 15.5625 "/>
<path style=" stroke:none;fill-rule:nonzero;fill:rgb(37.647059%,41.960784%,50.980392%);fill-opacity:1;" d="M 71.730469 96 L 17.566406 96 C 9.9375 96 3.75 89.8125 3.75 82.183594 L 3.75 13.816406 C 3.75 6.1875 9.9375 0 17.566406 0 L 62.144531 0 L 62.144531 5.109375 L 17.566406 5.109375 C 12.75 5.109375 8.859375 9 8.859375 13.816406 L 8.859375 82.183594 C 8.859375 87 12.75 90.890625 17.566406 90.890625 L 71.730469 90.890625 Z M 71.730469 96 "/>
<path style=" stroke:none;fill-rule:nonzero;fill:rgb(37.647059%,41.960784%,50.980392%);fill-opacity:1;" d="M 22.183594 14.121094 L 57.515625 14.121094 C 59.894531 14.121094 61.828125 16.066406 61.828125 18.433594 L 61.828125 24.574219 C 61.828125 26.953125 59.894531 28.886719 57.515625 28.886719 L 22.183594 28.886719 C 19.828125 28.886719 17.894531 26.953125 17.894531 24.574219 L 17.894531 18.433594 C 17.894531 16.066406 19.828125 14.121094 22.183594 14.121094 Z M 22.183594 14.121094 "/>
<path style=" stroke:none;fill-rule:nonzero;fill:rgb(37.647059%,41.960784%,50.980392%);fill-opacity:1;" d="M 20.953125 36.574219 L 26.074219 36.574219 C 27.925781 36.574219 29.425781 38.074219 29.425781 39.925781 L 29.425781 45.046875 C 29.425781 46.875 27.925781 48.375 26.074219 48.375 L 20.953125 48.375 C 19.125 48.375 17.625 46.875 17.625 45.046875 L 17.625 39.925781 C 17.625 38.074219 19.125 36.574219 20.953125 36.574219 Z M 20.953125 36.574219 "/>
<path style=" stroke:none;fill-rule:nonzero;fill:rgb(37.647059%,41.960784%,50.980392%);fill-opacity:1;" d="M 37.300781 36.574219 L 42.421875 36.574219 C 44.25 36.574219 45.75 38.074219 45.75 39.925781 L 45.75 45.046875 C 45.75 46.875 44.25 48.375 42.421875 48.375 L 37.300781 48.375 C 35.449219 48.375 33.949219 46.875 33.949219 45.046875 L 33.949219 39.925781 C 33.949219 38.074219 35.449219 36.574219 37.300781 36.574219 Z M 37.300781 36.574219 "/>
<path style=" stroke:none;fill-rule:nonzero;fill:rgb(37.647059%,41.960784%,50.980392%);fill-opacity:1;" d="M 53.636719 36.574219 L 58.769531 36.574219 C 60.609375 36.574219 62.109375 38.074219 62.109375 39.925781 L 62.109375 45.046875 C 62.109375 46.875 60.609375 48.375 58.769531 48.375 L 53.636719 48.375 C 51.796875 48.375 50.308594 46.875 50.308594 45.046875 L 50.308594 39.925781 C 50.308594 38.074219 51.796875 36.574219 53.636719 36.574219 Z M 53.636719 36.574219 "/>
<path style=" stroke:none;fill-rule:nonzero;fill:rgb(37.647059%,41.960784%,50.980392%);fill-opacity:1;" d="M 20.953125 53.308594 L 26.074219 53.308594 C 27.925781 53.308594 29.425781 54.796875 29.425781 56.636719 L 29.425781 61.769531 C 29.425781 63.609375 27.925781 65.109375 26.074219 65.109375 L 20.953125 65.109375 C 19.125 65.109375 17.625 63.609375 17.625 61.769531 L 17.625 56.636719 C 17.625 54.796875 19.125 53.308594 20.953125 53.308594 Z M 20.953125 53.308594 "/>
<path style=" stroke:none;fill-rule:nonzero;fill:rgb(37.647059%,41.960784%,50.980392%);fill-opacity:1;" d="M 37.300781 53.308594 L 42.421875 53.308594 C 44.25 53.308594 45.75 54.796875 45.75 56.636719 L 45.75 61.769531 C 45.75 63.609375 44.25 65.109375 42.421875 65.109375 L 37.300781 65.109375 C 35.449219 65.109375 33.949219 63.609375 33.949219 61.769531 L 33.949219 56.636719 C 33.949219 54.796875 35.449219 53.308594 37.300781 53.308594 Z M 37.300781 53.308594 "/>
<path style=" stroke:none;fill-rule:nonzero;fill:rgb(37.647059%,41.960784%,50.980392%);fill-opacity:1;" d="M 53.636719 53.308594 L 58.769531 53.308594 C 60.609375 53.308594 62.109375 54.796875 62.109375 56.636719 L 62.109375 61.769531 C 62.109375 63.609375 60.609375 65.109375 58.769531 65.109375 L 53.636719 65.109375 C 51.796875 65.109375 50.308594 63.609375 50.308594 61.769531 L 50.308594 56.636719 C 50.308594 54.796875 51.796875 53.308594 53.636719 53.308594 Z M 53.636719 53.308594 "/>
<path style=" stroke:none;fill-rule:nonzero;fill:rgb(37.647059%,41.960784%,50.980392%);fill-opacity:1;" d="M 20.953125 70.019531 L 26.074219 70.019531 C 27.925781 70.019531 29.425781 71.519531 29.425781 73.359375 L 29.425781 78.503906 C 29.425781 80.355469 27.925781 81.808594 26.074219 81.808594 L 20.953125 81.808594 C 19.125 81.808594 17.625 80.355469 17.625 78.503906 L 17.625 73.359375 C 17.625 71.519531 19.125 70.019531 20.953125 70.019531 Z M 20.953125 70.019531 "/>
<path style=" stroke:none;fill-rule:nonzero;fill:rgb(37.647059%,41.960784%,50.980392%);fill-opacity:1;" d="M 37.300781 70.019531 L 42.421875 70.019531 C 44.25 70.019531 45.75 71.519531 45.75 73.359375 L 45.75 78.503906 C 45.75 80.355469 44.25 81.808594 42.421875 81.808594 L 37.300781 81.808594 C 35.449219 81.808594 33.949219 80.355469 33.949219 78.503906 L 33.949219 73.359375 C 33.949219 71.519531 35.449219 70.019531 37.300781 70.019531 Z M 37.300781 70.019531 "/>
<path style=" stroke:none;fill-rule:nonzero;fill:rgb(37.647059%,41.960784%,50.980392%);fill-opacity:1;" d="M 53.636719 70.019531 L 58.769531 70.019531 C 60.609375 70.019531 62.109375 71.519531 62.109375 73.359375 L 62.109375 78.503906 C 62.109375 80.355469 60.609375 81.808594 58.769531 81.808594 L 53.636719 81.808594 C 51.796875 81.808594 50.308594 80.355469 50.308594 78.503906 L 50.308594 73.359375 C 50.308594 71.519531 51.796875 70.019531 53.636719 70.019531 Z M 53.636719 70.019531 "/>
</g>
</svg>
