
<svg xmlns="http://www.w3.org/2000/svg" xmlns:xlink="http://www.w3.org/1999/xlink" width="96px" height="96px" viewBox="0 0 96 96" version="1.1">
<g id="surface1">
<path style=" stroke:none;fill-rule:nonzero;fill:rgb(37.647059%,41.960784%,50.980392%);fill-opacity:1;" d="M 86.8125 4.5 L 66.421875 4.5 C 62.4375 4.511719 58.886719 7.125 57.703125 10.921875 L 0 10.921875 L 0 19.769531 L 57.703125 19.769531 C 58.886719 23.578125 62.425781 26.191406 66.421875 26.203125 L 86.8125 26.203125 C 91.886719 26.191406 96 22.078125 96 17.015625 L 96 13.675781 C 95.988281 8.613281 91.875 4.511719 86.8125 4.5 Z M 86.8125 4.5 "/>
<path style=" stroke:none;fill-rule:nonzero;fill:rgb(37.647059%,41.960784%,50.980392%);fill-opacity:1;" d="M 9.1875 58.863281 L 29.578125 58.863281 C 33.5625 58.863281 37.066406 56.261719 38.296875 52.5 L 96 52.5 L 96 43.640625 L 38.296875 43.640625 C 37.113281 39.855469 33.5625 37.253906 29.578125 37.230469 L 9.1875 37.230469 C 4.136719 37.253906 0.046875 41.296875 0 46.324219 L 0 49.6875 C 0.0117188 54.75 4.125 58.828125 9.1875 58.863281 Z M 9.1875 58.863281 "/>
<path style=" stroke:none;fill-rule:nonzero;fill:rgb(37.647059%,41.960784%,50.980392%);fill-opacity:1;" d="M 86.8125 69.796875 L 66.421875 69.796875 C 62.4375 69.808594 58.886719 72.421875 57.703125 76.207031 L 0 76.207031 L 0 85.078125 L 57.703125 85.078125 C 58.921875 88.875 62.4375 91.488281 66.421875 91.5 L 86.8125 91.5 C 91.875 91.5 96 87.375 96 82.3125 L 96 78.984375 C 95.988281 73.921875 91.875 69.808594 86.8125 69.796875 Z M 86.8125 69.796875 "/>
</g>
</svg>
