
<svg xmlns="http://www.w3.org/2000/svg" xmlns:xlink="http://www.w3.org/1999/xlink" width="96px" height="96px" viewBox="0 0 96 96" version="1.1">
<g id="surface1">
<path style=" stroke:none;fill-rule:nonzero;fill:rgb(37.647059%,41.960784%,50.980392%);fill-opacity:1;" d="M 57.828125 9.828125 C 57.828125 15.25 53.429688 19.648438 48 19.648438 C 42.570312 19.648438 38.171875 15.25 38.171875 9.828125 C 38.171875 4.398438 42.570312 0 48 0 C 53.429688 0 57.828125 4.398438 57.828125 9.828125 Z M 57.828125 9.828125 "/>
<path style=" stroke:none;fill-rule:nonzero;fill:rgb(37.647059%,41.960784%,50.980392%);fill-opacity:1;" d="M 61.5 34.78125 L 87 23.820312 C 89.617188 22.703125 90.828125 19.671875 89.71875 17.054688 C 88.585938 14.445312 85.5625 13.234375 82.953125 14.351562 L 62.039062 23.351562 C 57.601562 25.242188 52.828125 26.21875 48 26.21875 C 43.132812 26.21875 38.320312 25.226562 33.851562 23.3125 L 12.945312 14.3125 C 10.328125 13.195312 7.304688 14.398438 6.179688 17.007812 C 5.0625 19.625 6.28125 22.65625 8.898438 23.773438 L 33.765625 34.5 C 35.234375 35.125 36.179688 36.5625 36.179688 38.15625 L 35.265625 56.15625 C 35.25 56.828125 35.0625 57.476562 34.726562 58.046875 L 17.007812 88.046875 C 16.382812 89.0625 16.203125 90.296875 16.5 91.445312 C 16.796875 92.601562 17.554688 93.585938 18.601562 94.171875 L 20.90625 95.414062 C 23.164062 96.585938 25.9375 95.75 27.164062 93.523438 L 43.648438 64.5 C 44.445312 63.132812 45.90625 62.296875 47.492188 62.3125 C 49.070312 62.296875 50.539062 63.132812 51.328125 64.5 L 67.828125 93.539062 C 69.054688 95.765625 71.835938 96.601562 74.085938 95.429688 L 76.398438 94.1875 C 77.429688 93.601562 78.1875 92.625 78.492188 91.476562 C 78.789062 90.335938 78.617188 89.109375 78 88.09375 L 60.539062 58.5 C 60.195312 57.914062 60.015625 57.257812 60 56.578125 L 59.132812 38.445312 C 59.117188 36.859375 60.054688 35.421875 61.5 34.78125 Z M 61.5 34.78125 "/>
</g>
</svg>
