
<svg xmlns="http://www.w3.org/2000/svg" xmlns:xlink="http://www.w3.org/1999/xlink" width="16px" height="16px" viewBox="0 0 16 16" version="1.1">
<g id="surface1">
<path style=" stroke:none;fill-rule:nonzero;fill:rgb(100%,100%,100%);fill-opacity:1;" d="M 10.941406 15.929688 L 4.511719 15.929688 C 2.972656 15.929688 1.726562 14.683594 1.722656 13.144531 L 1.722656 7.761719 C 1.726562 6.222656 2.972656 4.980469 4.511719 4.976562 L 8.25 4.976562 C 8.722656 4.976562 9.109375 5.359375 9.109375 5.835938 C 9.109375 6.308594 8.722656 6.691406 8.25 6.691406 L 4.511719 6.691406 C 3.921875 6.691406 3.441406 7.171875 3.441406 7.761719 L 3.441406 13.144531 C 3.441406 13.734375 3.921875 14.214844 4.511719 14.214844 L 10.941406 14.214844 C 11.53125 14.214844 12.011719 13.734375 12.011719 13.144531 L 12.011719 7.761719 C 12.011719 7.171875 11.53125 6.691406 10.941406 6.691406 L 10.082031 6.691406 L 10.082031 3.191406 C 10.082031 2.34375 9.394531 1.65625 8.546875 1.65625 L 7.546875 1.65625 C 6.699219 1.65625 6.011719 2.34375 6.011719 3.191406 L 6.011719 3.546875 C 6.011719 4.019531 5.628906 4.40625 5.15625 4.40625 C 4.683594 4.40625 4.296875 4.019531 4.296875 3.546875 L 4.296875 3.179688 C 4.296875 1.386719 5.753906 -0.0703125 7.546875 -0.0703125 L 8.546875 -0.0703125 C 10.34375 -0.0703125 11.796875 1.386719 11.796875 3.179688 L 11.796875 5.113281 C 12.945312 5.484375 13.722656 6.554688 13.722656 7.761719 L 13.722656 13.144531 C 13.722656 14.683594 12.476562 15.925781 10.941406 15.929688 Z M 10.941406 15.929688 "/>
</g>
</svg>
