
<svg xmlns="http://www.w3.org/2000/svg" xmlns:xlink="http://www.w3.org/1999/xlink" width="16px" height="16px" viewBox="0 0 16 16" version="1.1">
<g id="surface1">
<path style=" stroke:none;fill-rule:nonzero;fill:rgb(100%,100%,100%);fill-opacity:1;" d="M 13.382812 5.390625 C 13.015625 5.082031 12.472656 5.121094 12.152344 5.472656 C 11.832031 5.824219 11.84375 6.367188 12.183594 6.703125 L 12.632812 7.113281 L 8.75 7.113281 C 8.421875 7.09375 8.109375 7.261719 7.941406 7.542969 C 7.769531 7.824219 7.769531 8.179688 7.941406 8.460938 C 8.109375 8.742188 8.421875 8.90625 8.75 8.890625 L 12.558594 8.890625 L 12.128906 9.351562 C 11.796875 9.714844 11.820312 10.277344 12.179688 10.609375 C 12.539062 10.941406 13.101562 10.917969 13.433594 10.558594 L 16 7.78125 Z M 13.382812 5.390625 "/>
<path style=" stroke:none;fill-rule:nonzero;fill:rgb(100%,100%,100%);fill-opacity:1;" d="M 9.84375 11.34375 C 8 13.191406 5.003906 13.191406 3.160156 11.34375 C 1.3125 9.496094 1.3125 6.503906 3.160156 4.65625 C 5.003906 2.808594 8 2.808594 9.84375 4.65625 C 10.199219 4.9375 10.707031 4.90625 11.027344 4.589844 C 11.34375 4.269531 11.375 3.761719 11.09375 3.40625 C 9.015625 1.324219 5.796875 0.898438 3.246094 2.371094 C 0.695312 3.839844 -0.546875 6.839844 0.214844 9.683594 C 0.980469 12.527344 3.558594 14.503906 6.5 14.5 C 8.226562 14.503906 9.882812 13.816406 11.097656 12.59375 C 11.378906 12.242188 11.347656 11.734375 11.03125 11.414062 C 10.710938 11.097656 10.203125 11.066406 9.847656 11.34375 Z M 9.84375 11.34375 "/>
</g>
</svg>
