
<svg xmlns="http://www.w3.org/2000/svg" xmlns:xlink="http://www.w3.org/1999/xlink" width="16px" height="16px" viewBox="0 0 16 16" version="1.1">
<g id="surface1">
<path style=" stroke:none;fill-rule:nonzero;fill:rgb(100%,100%,100%);fill-opacity:1;" d="M 8 16 C 5.136719 15.996094 2.558594 14.269531 1.464844 11.625 C 0.371094 8.976562 0.976562 5.933594 3 3.910156 C 3.378906 3.53125 3.992188 3.53125 4.371094 3.910156 C 4.746094 4.285156 4.746094 4.902344 4.371094 5.277344 C 2.359375 7.285156 2.359375 10.546875 4.371094 12.558594 C 6.378906 14.566406 9.640625 14.566406 11.652344 12.558594 C 13.660156 10.546875 13.660156 7.285156 11.652344 5.277344 C 11.355469 5.046875 11.21875 4.671875 11.296875 4.308594 C 11.378906 3.941406 11.660156 3.65625 12.027344 3.570312 C 12.386719 3.484375 12.765625 3.621094 13 3.910156 C 15.023438 5.933594 15.628906 8.976562 14.535156 11.625 C 13.441406 14.269531 10.863281 15.996094 8 16 Z M 8 16 "/>
<path style=" stroke:none;fill-rule:nonzero;fill:rgb(100%,100%,100%);fill-opacity:1;" d="M 8 8.867188 C 7.464844 8.867188 7.03125 8.433594 7.03125 7.902344 L 7.03125 0.96875 C 7.03125 0.433594 7.464844 0 8 0 C 8.535156 0 8.96875 0.433594 8.96875 0.96875 L 8.96875 7.902344 C 8.96875 8.433594 8.535156 8.867188 8 8.867188 Z M 8 8.867188 "/>
</g>
</svg>
