
<svg xmlns="http://www.w3.org/2000/svg" xmlns:xlink="http://www.w3.org/1999/xlink" width="24px" height="24px" viewBox="0 0 24 24" version="1.1">
<g id="surface1">
<path style=" stroke:none;fill-rule:nonzero;fill:rgb(100%,100%,100%);fill-opacity:1;" d="M 20.074219 8.082031 C 19.527344 7.625 18.710938 7.679688 18.230469 8.207031 C 17.75 8.734375 17.765625 9.550781 18.273438 10.050781 L 18.949219 10.671875 L 13.125 10.671875 C 12.628906 10.640625 12.167969 10.890625 11.910156 11.3125 C 11.65625 11.734375 11.65625 12.269531 11.910156 12.691406 C 12.167969 13.113281 12.628906 13.359375 13.125 13.332031 L 18.835938 13.332031 L 18.195312 14.027344 C 17.699219 14.570312 17.730469 15.414062 18.269531 15.910156 C 18.808594 16.410156 19.652344 16.375 20.152344 15.835938 L 24 11.671875 Z M 20.074219 8.082031 "/>
<path style=" stroke:none;fill-rule:nonzero;fill:rgb(100%,100%,100%);fill-opacity:1;" d="M 14.765625 17.015625 C 12 19.785156 7.507812 19.785156 4.738281 17.015625 C 1.96875 14.246094 1.96875 9.753906 4.738281 6.984375 C 7.507812 4.214844 12 4.214844 14.765625 6.984375 C 15.296875 7.40625 16.0625 7.359375 16.539062 6.882812 C 17.015625 6.40625 17.0625 5.640625 16.640625 5.109375 C 13.519531 1.984375 8.691406 1.347656 4.871094 3.554688 C 1.042969 5.761719 -0.816406 10.261719 0.324219 14.527344 C 1.46875 18.789062 5.335938 21.753906 9.75 21.75 C 12.339844 21.757812 14.824219 20.726562 16.648438 18.890625 C 17.070312 18.363281 17.023438 17.597656 16.546875 17.121094 C 16.066406 16.644531 15.308594 16.597656 14.773438 17.015625 Z M 14.765625 17.015625 "/>
</g>
</svg>
