
<svg xmlns="http://www.w3.org/2000/svg" xmlns:xlink="http://www.w3.org/1999/xlink" width="24px" height="24px" viewBox="0 0 24 24" version="1.1">
<g id="surface1">
<path style=" stroke:none;fill-rule:nonzero;fill:rgb(100%,100%,100%);fill-opacity:1;" d="M 16.410156 23.894531 L 6.765625 23.894531 C 4.460938 23.894531 2.589844 22.023438 2.585938 19.71875 L 2.585938 11.640625 C 2.589844 9.335938 4.460938 7.46875 6.765625 7.464844 L 12.375 7.464844 C 13.085938 7.464844 13.660156 8.042969 13.660156 8.753906 C 13.660156 9.464844 13.085938 10.039062 12.375 10.039062 L 6.765625 10.039062 C 5.878906 10.039062 5.160156 10.753906 5.160156 11.640625 L 5.160156 19.71875 C 5.160156 20.605469 5.878906 21.324219 6.765625 21.324219 L 16.410156 21.324219 C 17.296875 21.324219 18.015625 20.605469 18.015625 19.71875 L 18.015625 11.640625 C 18.015625 10.753906 17.296875 10.039062 16.410156 10.039062 L 15.125 10.039062 L 15.125 4.789062 C 15.125 3.515625 14.09375 2.484375 12.824219 2.484375 L 11.324219 2.484375 C 10.046875 2.484375 9.015625 3.515625 9.015625 4.789062 L 9.015625 5.324219 C 9.015625 6.03125 8.441406 6.609375 7.734375 6.609375 C 7.023438 6.609375 6.449219 6.03125 6.449219 5.324219 L 6.449219 4.769531 C 6.449219 2.078125 8.628906 -0.105469 11.324219 -0.105469 L 12.824219 -0.105469 C 15.515625 -0.105469 17.699219 2.078125 17.699219 4.769531 L 17.699219 7.671875 C 19.417969 8.230469 20.585938 9.832031 20.585938 11.640625 L 20.585938 19.71875 C 20.582031 22.023438 18.714844 23.890625 16.410156 23.894531 Z M 16.410156 23.894531 "/>
</g>
</svg>
