
<svg xmlns="http://www.w3.org/2000/svg" xmlns:xlink="http://www.w3.org/1999/xlink" width="24px" height="24px" viewBox="0 0 24 24" version="1.1">
<g id="surface1">
<path style=" stroke:none;fill-rule:nonzero;fill:rgb(100%,100%,100%);fill-opacity:1;" d="M 12 24 C 7.703125 23.996094 3.835938 21.40625 2.195312 17.4375 C 0.554688 13.464844 1.464844 8.902344 4.5 5.863281 C 5.066406 5.296875 5.988281 5.296875 6.554688 5.863281 C 7.121094 6.429688 7.121094 7.351562 6.554688 7.917969 C 3.542969 10.929688 3.542969 15.824219 6.554688 18.835938 C 9.570312 21.851562 14.457031 21.851562 17.476562 18.835938 C 20.488281 15.824219 20.488281 10.929688 17.476562 7.917969 C 17.03125 7.574219 16.828125 7.003906 16.949219 6.460938 C 17.066406 5.914062 17.492188 5.484375 18.039062 5.355469 C 18.578125 5.230469 19.152344 5.429688 19.5 5.863281 C 22.535156 8.902344 23.445312 13.464844 21.804688 17.4375 C 20.164062 21.40625 16.296875 23.996094 12 24 Z M 12 24 "/>
<path style=" stroke:none;fill-rule:nonzero;fill:rgb(100%,100%,100%);fill-opacity:1;" d="M 12 13.300781 C 11.199219 13.300781 10.546875 12.652344 10.546875 11.851562 L 10.546875 1.453125 C 10.546875 0.648438 11.199219 0 12 0 C 12.800781 0 13.453125 0.648438 13.453125 1.453125 L 13.453125 11.851562 C 13.453125 12.652344 12.800781 13.300781 12 13.300781 Z M 12 13.300781 "/>
</g>
</svg>
