
<svg xmlns="http://www.w3.org/2000/svg" xmlns:xlink="http://www.w3.org/1999/xlink" width="48px" height="48px" viewBox="0 0 48 48" version="1.1">
<defs>
<linearGradient id="linear0" gradientUnits="userSpaceOnUse" x1="32" y1="3.8" x2="32" y2="23.49" gradientTransform="matrix(0.75,0,0,0.75,0,0)">
<stop offset="0" style="stop-color:rgb(16.078431%,71.372549%,96.470588%);stop-opacity:1;"/>
<stop offset="0.67" style="stop-color:rgb(39.607843%,45.098039%,82.745098%);stop-opacity:1;"/>
<stop offset="1" style="stop-color:rgb(49.411765%,34.117647%,76.862745%);stop-opacity:1;"/>
</linearGradient>
<linearGradient id="linear1" gradientUnits="userSpaceOnUse" x1="32" y1="60.9" x2="32" y2="18.72" gradientTransform="matrix(0.75,0,0,0.75,0,0)">
<stop offset="0" style="stop-color:rgb(86.27451%,87.058824%,88.627451%);stop-opacity:1;"/>
<stop offset="0.57" style="stop-color:rgb(87.058824%,87.843137%,89.411765%);stop-opacity:1;"/>
<stop offset="0.81" style="stop-color:rgb(89.803922%,90.588235%,91.764706%);stop-opacity:1;"/>
<stop offset="0.99" style="stop-color:rgb(94.901961%,95.294118%,95.686275%);stop-opacity:1;"/>
<stop offset="1" style="stop-color:rgb(95.294118%,95.686275%,96.078431%);stop-opacity:1;"/>
</linearGradient>
<linearGradient id="linear2" gradientUnits="userSpaceOnUse" x1="32" y1="51.89" x2="32" y2="31.52" gradientTransform="matrix(0.75,0,0,0.75,0,0)">
<stop offset="0" style="stop-color:rgb(75.294118%,75.294118%,75.294118%);stop-opacity:1;"/>
<stop offset="1" style="stop-color:rgb(55.686275%,55.686275%,55.686275%);stop-opacity:1;"/>
</linearGradient>
<linearGradient id="linear3" gradientUnits="userSpaceOnUse" x1="32.01" y1="51.89" x2="32.01" y2="31.52" gradientTransform="matrix(0.75,0,0,0.75,0,0)">
<stop offset="0" style="stop-color:rgb(75.294118%,75.294118%,75.294118%);stop-opacity:1;"/>
<stop offset="1" style="stop-color:rgb(55.686275%,55.686275%,55.686275%);stop-opacity:1;"/>
</linearGradient>
<linearGradient id="linear4" gradientUnits="userSpaceOnUse" x1="32" y1="51.89" x2="32" y2="31.52" gradientTransform="matrix(0.75,0,0,0.75,0,0)">
<stop offset="0" style="stop-color:rgb(75.294118%,75.294118%,75.294118%);stop-opacity:1;"/>
<stop offset="1" style="stop-color:rgb(55.686275%,55.686275%,55.686275%);stop-opacity:1;"/>
</linearGradient>
</defs>
<g id="surface1">
<path style=" stroke:none;fill-rule:nonzero;fill:url(#linear0);" d="M 48 15.984375 C 47.996094 13.859375 46.273438 12.140625 44.152344 12.140625 L 31.085938 12.140625 C 28.417969 12.144531 26.234375 10.007812 26.183594 7.335938 C 26.222656 4.617188 24.058594 2.375 21.335938 2.324219 L 2.535156 2.324219 C 1.136719 2.324219 0 3.460938 0 4.859375 L 0 17.566406 L 48 17.566406 Z M 48 15.984375 "/>
<path style=" stroke:none;fill-rule:nonzero;fill:url(#linear1);" d="M 44.152344 14.039062 L 3.847656 14.039062 C 1.722656 14.039062 0 15.761719 0 17.886719 L 0 41.835938 C 0.00390625 43.957031 1.726562 45.675781 3.847656 45.675781 L 44.152344 45.675781 C 46.273438 45.675781 47.996094 43.957031 48 41.835938 L 48 17.886719 C 48 15.761719 46.277344 14.039062 44.152344 14.039062 Z M 44.152344 14.039062 "/>
<path style=" stroke:none;fill-rule:nonzero;fill:url(#linear2);" d="M 18.164062 24.34375 C 14.945312 27.566406 14.945312 32.789062 18.167969 36.011719 C 21.386719 39.234375 26.613281 39.234375 29.832031 36.011719 C 33.054688 32.789062 33.054688 27.566406 29.835938 24.34375 C 26.613281 21.121094 21.386719 21.121094 18.164062 24.34375 Z M 28.808594 34.980469 C 26.367188 37.394531 22.507812 37.613281 19.808594 35.492188 L 22.957031 32.347656 C 23.128906 32.191406 23.21875 31.960938 23.199219 31.730469 C 23.179688 31.5 23.054688 31.289062 22.859375 31.164062 C 22.535156 30.945312 22.101562 30.996094 21.832031 31.28125 L 18.71875 34.394531 C 16.449219 31.535156 16.847656 27.390625 19.621094 25.015625 C 22.394531 22.636719 26.550781 22.875 29.03125 25.558594 C 31.511719 28.238281 31.429688 32.398438 28.84375 34.980469 Z M 28.808594 34.980469 "/>
<path style=" stroke:none;fill-rule:nonzero;fill:url(#linear3);" d="M 23.878906 24.839844 C 23.503906 24.921875 23.242188 25.257812 23.25 25.640625 L 23.25 27.808594 C 23.25 28.234375 23.59375 28.582031 24.023438 28.582031 C 24.449219 28.582031 24.796875 28.234375 24.796875 27.808594 L 24.796875 25.605469 C 24.804688 25.371094 24.707031 25.144531 24.527344 24.996094 C 24.347656 24.847656 24.109375 24.789062 23.878906 24.839844 Z M 23.878906 24.839844 "/>
<path style=" stroke:none;fill-rule:nonzero;fill:url(#linear4);" d="M 23.0625 30.1875 C 23.058594 30.570312 23.289062 30.917969 23.640625 31.066406 C 23.996094 31.214844 24.40625 31.132812 24.675781 30.863281 C 24.945312 30.59375 25.027344 30.183594 24.878906 29.828125 C 24.730469 29.476562 24.382812 29.246094 24 29.25 C 23.484375 29.253906 23.066406 29.671875 23.0625 30.1875 Z M 23.0625 30.1875 "/>
</g>
</svg>
