
<svg xmlns="http://www.w3.org/2000/svg" xmlns:xlink="http://www.w3.org/1999/xlink" width="48px" height="48px" viewBox="0 0 48 48" version="1.1">
<defs>
<linearGradient id="linear0" gradientUnits="userSpaceOnUse" x1="32" y1="3.8" x2="32" y2="23.49" gradientTransform="matrix(0.75,0,0,0.75,0,0)">
<stop offset="0" style="stop-color:rgb(16.078431%,71.372549%,96.470588%);stop-opacity:1;"/>
<stop offset="0.67" style="stop-color:rgb(39.607843%,45.098039%,82.745098%);stop-opacity:1;"/>
<stop offset="1" style="stop-color:rgb(49.411765%,34.117647%,76.862745%);stop-opacity:1;"/>
</linearGradient>
<linearGradient id="linear1" gradientUnits="userSpaceOnUse" x1="32" y1="60.9" x2="32" y2="18.72" gradientTransform="matrix(0.75,0,0,0.75,0,0)">
<stop offset="0" style="stop-color:rgb(86.27451%,87.058824%,88.627451%);stop-opacity:1;"/>
<stop offset="0.57" style="stop-color:rgb(87.058824%,87.843137%,89.411765%);stop-opacity:1;"/>
<stop offset="0.81" style="stop-color:rgb(89.803922%,90.588235%,91.764706%);stop-opacity:1;"/>
<stop offset="0.99" style="stop-color:rgb(94.901961%,95.294118%,95.686275%);stop-opacity:1;"/>
<stop offset="1" style="stop-color:rgb(95.294118%,95.686275%,96.078431%);stop-opacity:1;"/>
</linearGradient>
<linearGradient id="linear2" gradientUnits="userSpaceOnUse" x1="32" y1="29.75" x2="32" y2="48.32" gradientTransform="matrix(0.75,0,0,0.75,0,0)">
<stop offset="0" style="stop-color:rgb(55.686275%,55.686275%,55.686275%);stop-opacity:1;"/>
<stop offset="1" style="stop-color:rgb(75.294118%,75.294118%,75.294118%);stop-opacity:1;"/>
</linearGradient>
</defs>
<g id="surface1">
<path style=" stroke:none;fill-rule:nonzero;fill:url(#linear0);" d="M 48 15.984375 C 47.996094 13.859375 46.273438 12.140625 44.152344 12.140625 L 31.085938 12.140625 C 28.417969 12.144531 26.234375 10.007812 26.183594 7.335938 C 26.222656 4.617188 24.058594 2.375 21.335938 2.324219 L 2.535156 2.324219 C 1.136719 2.324219 0 3.460938 0 4.859375 L 0 17.566406 L 48 17.566406 Z M 48 15.984375 "/>
<path style=" stroke:none;fill-rule:nonzero;fill:url(#linear1);" d="M 44.152344 14.039062 L 3.847656 14.039062 C 1.722656 14.039062 0 15.761719 0 17.886719 L 0 41.835938 C 0.00390625 43.957031 1.726562 45.675781 3.847656 45.675781 L 44.152344 45.675781 C 46.273438 45.675781 47.996094 43.957031 48 41.835938 L 48 17.886719 C 48 15.761719 46.277344 14.039062 44.152344 14.039062 Z M 44.152344 14.039062 "/>
<path style=" stroke:none;fill-rule:nonzero;fill:url(#linear2);" d="M 33 25.117188 L 28.882812 23.746094 C 28.578125 23.640625 28.371094 23.355469 28.371094 23.03125 C 28.371094 22.617188 28.039062 22.28125 27.621094 22.28125 L 15.246094 22.28125 C 14.832031 22.28125 14.496094 22.617188 14.496094 23.03125 L 14.496094 36.328125 C 14.496094 36.742188 14.832031 37.078125 15.246094 37.078125 L 27.609375 37.078125 C 28.019531 37.078125 28.359375 36.742188 28.359375 36.328125 C 28.34375 36.082031 28.453125 35.847656 28.652344 35.695312 C 28.847656 35.546875 29.105469 35.503906 29.339844 35.578125 L 29.46875 35.617188 C 29.65625 35.683594 29.863281 35.667969 30.042969 35.578125 C 30.222656 35.492188 30.359375 35.335938 30.421875 35.144531 L 33.421875 26.046875 C 33.546875 25.675781 33.363281 25.269531 33 25.117188 Z M 25.929688 33.90625 L 16.929688 33.90625 C 16.511719 33.90625 16.179688 33.570312 16.179688 33.15625 L 16.179688 24.703125 C 16.179688 24.292969 16.511719 23.953125 16.929688 23.953125 L 25.929688 23.953125 C 26.34375 23.953125 26.679688 24.292969 26.679688 24.703125 L 26.679688 33.15625 C 26.679688 33.570312 26.34375 33.90625 25.929688 33.90625 Z M 28.359375 32.25 L 28.359375 25.933594 C 28.359375 25.695312 28.472656 25.46875 28.667969 25.328125 C 28.863281 25.1875 29.113281 25.148438 29.339844 25.222656 L 31.394531 25.914062 C 31.585938 25.976562 31.742188 26.113281 31.828125 26.289062 C 31.917969 26.46875 31.933594 26.675781 31.867188 26.867188 L 30 32.511719 C 29.871094 32.90625 29.449219 33.121094 29.054688 32.992188 L 28.890625 32.933594 C 28.585938 32.839844 28.371094 32.566406 28.359375 32.25 Z M 28.359375 32.25 "/>
</g>
</svg>
