
<svg xmlns="http://www.w3.org/2000/svg" xmlns:xlink="http://www.w3.org/1999/xlink" width="48px" height="48px" viewBox="0 0 48 48" version="1.1">
<defs>
<linearGradient id="linear0" gradientUnits="userSpaceOnUse" x1="32" y1="3.8" x2="32" y2="23.49" gradientTransform="matrix(0.75,0,0,0.75,0,0)">
<stop offset="0" style="stop-color:rgb(16.078431%,71.372549%,96.470588%);stop-opacity:1;"/>
<stop offset="0.67" style="stop-color:rgb(39.607843%,45.098039%,82.745098%);stop-opacity:1;"/>
<stop offset="1" style="stop-color:rgb(49.411765%,34.117647%,76.862745%);stop-opacity:1;"/>
</linearGradient>
<linearGradient id="linear1" gradientUnits="userSpaceOnUse" x1="32" y1="60.9" x2="32" y2="18.72" gradientTransform="matrix(0.75,0,0,0.75,0,0)">
<stop offset="0" style="stop-color:rgb(86.27451%,87.058824%,88.627451%);stop-opacity:1;"/>
<stop offset="0.57" style="stop-color:rgb(87.058824%,87.843137%,89.411765%);stop-opacity:1;"/>
<stop offset="0.81" style="stop-color:rgb(89.803922%,90.588235%,91.764706%);stop-opacity:1;"/>
<stop offset="0.99" style="stop-color:rgb(94.901961%,95.294118%,95.686275%);stop-opacity:1;"/>
<stop offset="1" style="stop-color:rgb(95.294118%,95.686275%,96.078431%);stop-opacity:1;"/>
</linearGradient>
<linearGradient id="linear2" gradientUnits="userSpaceOnUse" x1="22.61" y1="42.63" x2="22.61" y2="37.58" gradientTransform="matrix(0.75,0,0,0.75,0,0)">
<stop offset="0" style="stop-color:rgb(75.294118%,75.294118%,75.294118%);stop-opacity:1;"/>
<stop offset="1" style="stop-color:rgb(55.686275%,55.686275%,55.686275%);stop-opacity:1;"/>
</linearGradient>
<linearGradient id="linear3" gradientUnits="userSpaceOnUse" x1="32" y1="42.63" x2="32" y2="37.58" gradientTransform="matrix(0.75,0,0,0.75,0,0)">
<stop offset="0" style="stop-color:rgb(75.294118%,75.294118%,75.294118%);stop-opacity:1;"/>
<stop offset="1" style="stop-color:rgb(55.686275%,55.686275%,55.686275%);stop-opacity:1;"/>
</linearGradient>
<linearGradient id="linear4" gradientUnits="userSpaceOnUse" x1="41.39" y1="42.63" x2="41.39" y2="37.58" gradientTransform="matrix(0.75,0,0,0.75,0,0)">
<stop offset="0" style="stop-color:rgb(75.294118%,75.294118%,75.294118%);stop-opacity:1;"/>
<stop offset="1" style="stop-color:rgb(55.686275%,55.686275%,55.686275%);stop-opacity:1;"/>
</linearGradient>
</defs>
<g id="surface1">
<path style=" stroke:none;fill-rule:nonzero;fill:url(#linear0);" d="M 48 15.984375 C 47.996094 13.859375 46.273438 12.140625 44.152344 12.140625 L 31.085938 12.140625 C 28.417969 12.144531 26.234375 10.007812 26.183594 7.335938 C 26.222656 4.617188 24.058594 2.375 21.335938 2.324219 L 2.535156 2.324219 C 1.136719 2.324219 0 3.460938 0 4.859375 L 0 17.566406 L 48 17.566406 Z M 48 15.984375 "/>
<path style=" stroke:none;fill-rule:nonzero;fill:url(#linear1);" d="M 44.152344 14.039062 L 3.847656 14.039062 C 1.722656 14.039062 0 15.761719 0 17.886719 L 0 41.835938 C 0.00390625 43.957031 1.726562 45.675781 3.847656 45.675781 L 44.152344 45.675781 C 46.273438 45.675781 47.996094 43.957031 48 41.835938 L 48 17.886719 C 48 15.761719 46.277344 14.039062 44.152344 14.039062 Z M 44.152344 14.039062 "/>
<path style=" stroke:none;fill-rule:nonzero;fill:url(#linear2);" d="M 18.914062 29.992188 C 18.914062 31.074219 18.039062 31.949219 16.957031 31.949219 C 15.875 31.949219 15 31.074219 15 29.992188 C 15 28.910156 15.875 28.035156 16.957031 28.035156 C 18.039062 28.035156 18.914062 28.910156 18.914062 29.992188 Z M 18.914062 29.992188 "/>
<path style=" stroke:none;fill-rule:nonzero;fill:url(#linear3);" d="M 25.957031 29.992188 C 25.957031 31.074219 25.082031 31.949219 24 31.949219 C 22.917969 31.949219 22.042969 31.074219 22.042969 29.992188 C 22.042969 28.910156 22.917969 28.035156 24 28.035156 C 25.082031 28.035156 25.957031 28.910156 25.957031 29.992188 Z M 25.957031 29.992188 "/>
<path style=" stroke:none;fill-rule:nonzero;fill:url(#linear4);" d="M 33 29.992188 C 33 31.074219 32.125 31.949219 31.042969 31.949219 C 29.960938 31.949219 29.085938 31.074219 29.085938 29.992188 C 29.085938 28.910156 29.960938 28.035156 31.042969 28.035156 C 32.125 28.035156 33 28.910156 33 29.992188 Z M 33 29.992188 "/>
</g>
</svg>
