
<svg xmlns="http://www.w3.org/2000/svg" xmlns:xlink="http://www.w3.org/1999/xlink" width="48px" height="48px" viewBox="0 0 48 48" version="1.1">
<defs>
<linearGradient id="linear0" gradientUnits="userSpaceOnUse" x1="32" y1="3.8" x2="32" y2="23.49" gradientTransform="matrix(0.75,0,0,0.75,0,0)">
<stop offset="0" style="stop-color:rgb(16.078431%,71.372549%,96.470588%);stop-opacity:1;"/>
<stop offset="0.67" style="stop-color:rgb(39.607843%,45.098039%,82.745098%);stop-opacity:1;"/>
<stop offset="1" style="stop-color:rgb(49.411765%,34.117647%,76.862745%);stop-opacity:1;"/>
</linearGradient>
<linearGradient id="linear1" gradientUnits="userSpaceOnUse" x1="32" y1="60.9" x2="32" y2="18.72" gradientTransform="matrix(0.75,0,0,0.75,0,0)">
<stop offset="0" style="stop-color:rgb(86.27451%,87.058824%,88.627451%);stop-opacity:1;"/>
<stop offset="0.57" style="stop-color:rgb(87.058824%,87.843137%,89.411765%);stop-opacity:1;"/>
<stop offset="0.81" style="stop-color:rgb(89.803922%,90.588235%,91.764706%);stop-opacity:1;"/>
<stop offset="0.99" style="stop-color:rgb(94.901961%,95.294118%,95.686275%);stop-opacity:1;"/>
<stop offset="1" style="stop-color:rgb(95.294118%,95.686275%,96.078431%);stop-opacity:1;"/>
</linearGradient>
<linearGradient id="linear2" gradientUnits="userSpaceOnUse" x1="32" y1="46.24" x2="32" y2="39" gradientTransform="matrix(0.75,0,0,0.75,0,0)">
<stop offset="0" style="stop-color:rgb(75.294118%,75.294118%,75.294118%);stop-opacity:1;"/>
<stop offset="1" style="stop-color:rgb(55.686275%,55.686275%,55.686275%);stop-opacity:1;"/>
</linearGradient>
<linearGradient id="linear3" gradientUnits="userSpaceOnUse" x1="32" y1="52.62" x2="32" y2="29.91" gradientTransform="matrix(0.75,0,0,0.75,0,0)">
<stop offset="0" style="stop-color:rgb(75.294118%,75.294118%,75.294118%);stop-opacity:1;"/>
<stop offset="1" style="stop-color:rgb(55.686275%,55.686275%,55.686275%);stop-opacity:1;"/>
</linearGradient>
</defs>
<g id="surface1">
<path style=" stroke:none;fill-rule:nonzero;fill:url(#linear0);" d="M 48 15.984375 C 47.996094 13.859375 46.273438 12.140625 44.152344 12.140625 L 31.085938 12.140625 C 28.417969 12.144531 26.234375 10.007812 26.183594 7.335938 C 26.222656 4.617188 24.058594 2.375 21.335938 2.324219 L 2.535156 2.324219 C 1.136719 2.324219 0 3.460938 0 4.859375 L 0 17.566406 L 48 17.566406 Z M 48 15.984375 "/>
<path style=" stroke:none;fill-rule:nonzero;fill:url(#linear1);" d="M 44.152344 14.039062 L 3.847656 14.039062 C 1.722656 14.039062 0 15.761719 0 17.886719 L 0 41.835938 C 0.00390625 43.957031 1.726562 45.675781 3.847656 45.675781 L 44.152344 45.675781 C 46.273438 45.675781 47.996094 43.957031 48 41.835938 L 48 17.886719 C 48 15.761719 46.277344 14.039062 44.152344 14.039062 Z M 44.152344 14.039062 "/>
<path style=" stroke:none;fill-rule:nonzero;fill:url(#linear2);" d="M 26.511719 31.703125 C 26.511719 33.089844 25.386719 34.214844 24 34.214844 C 22.613281 34.214844 21.488281 33.089844 21.488281 31.703125 C 21.488281 30.316406 22.613281 29.191406 24 29.191406 C 25.386719 29.191406 26.511719 30.316406 26.511719 31.703125 Z M 26.511719 31.703125 "/>
<path style=" stroke:none;fill-rule:nonzero;fill:url(#linear3);" d="M 30.300781 24.75 L 28.5 24.75 L 28.5 23.789062 C 28.480469 22.96875 27.820312 22.308594 27 22.289062 L 21 22.289062 C 20.164062 22.289062 19.484375 22.957031 19.460938 23.789062 L 19.460938 24.75 L 17.699219 24.75 C 16.285156 24.753906 15.140625 25.902344 15.140625 27.316406 L 15.140625 35.453125 C 15.148438 36.863281 16.289062 38.003906 17.699219 38.007812 L 30.300781 38.007812 C 31.710938 38.003906 32.851562 36.863281 32.859375 35.453125 L 32.859375 27.316406 C 32.859375 25.902344 31.714844 24.753906 30.300781 24.75 Z M 24 36.316406 C 21.453125 36.316406 19.386719 34.25 19.386719 31.703125 C 19.386719 29.15625 21.453125 27.089844 24 27.089844 C 26.546875 27.089844 28.613281 29.15625 28.613281 31.703125 C 28.609375 34.25 26.546875 36.3125 24 36.316406 Z M 30 28.710938 C 29.421875 28.710938 28.949219 28.238281 28.949219 27.660156 C 28.949219 27.082031 29.421875 26.609375 30 26.609375 C 30.578125 26.609375 31.050781 27.082031 31.050781 27.660156 C 31.050781 28.238281 30.578125 28.710938 30 28.710938 Z M 30 28.710938 "/>
</g>
</svg>
