
<svg xmlns="http://www.w3.org/2000/svg" xmlns:xlink="http://www.w3.org/1999/xlink" width="48px" height="48px" viewBox="0 0 48 48" version="1.1">
<defs>
<linearGradient id="linear0" gradientUnits="userSpaceOnUse" x1="32" y1="3.8" x2="32" y2="23.49" gradientTransform="matrix(0.75,0,0,0.75,0,0)">
<stop offset="0" style="stop-color:rgb(16.078431%,71.372549%,96.470588%);stop-opacity:1;"/>
<stop offset="0.67" style="stop-color:rgb(39.607843%,45.098039%,82.745098%);stop-opacity:1;"/>
<stop offset="1" style="stop-color:rgb(49.411765%,34.117647%,76.862745%);stop-opacity:1;"/>
</linearGradient>
<linearGradient id="linear1" gradientUnits="userSpaceOnUse" x1="32" y1="60.9" x2="32" y2="18.72" gradientTransform="matrix(0.75,0,0,0.75,0,0)">
<stop offset="0" style="stop-color:rgb(86.27451%,87.058824%,88.627451%);stop-opacity:1;"/>
<stop offset="0.57" style="stop-color:rgb(87.058824%,87.843137%,89.411765%);stop-opacity:1;"/>
<stop offset="0.81" style="stop-color:rgb(89.803922%,90.588235%,91.764706%);stop-opacity:1;"/>
<stop offset="0.99" style="stop-color:rgb(94.901961%,95.294118%,95.686275%);stop-opacity:1;"/>
<stop offset="1" style="stop-color:rgb(95.294118%,95.686275%,96.078431%);stop-opacity:1;"/>
</linearGradient>
<linearGradient id="linear2" gradientUnits="userSpaceOnUse" x1="29.32" y1="51.81" x2="29.32" y2="28.38" gradientTransform="matrix(0.75,0,0,0.75,0,0)">
<stop offset="0" style="stop-color:rgb(75.294118%,75.294118%,75.294118%);stop-opacity:1;"/>
<stop offset="1" style="stop-color:rgb(55.686275%,55.686275%,55.686275%);stop-opacity:1;"/>
</linearGradient>
<linearGradient id="linear3" gradientUnits="userSpaceOnUse" x1="30.58" y1="51.81" x2="30.58" y2="28.38" gradientTransform="matrix(0.75,0,0,0.75,0,0)">
<stop offset="0" style="stop-color:rgb(75.294118%,75.294118%,75.294118%);stop-opacity:1;"/>
<stop offset="1" style="stop-color:rgb(55.686275%,55.686275%,55.686275%);stop-opacity:1;"/>
</linearGradient>
<linearGradient id="linear4" gradientUnits="userSpaceOnUse" x1="33.42" y1="51.81" x2="33.42" y2="28.38" gradientTransform="matrix(0.75,0,0,0.75,0,0)">
<stop offset="0" style="stop-color:rgb(75.294118%,75.294118%,75.294118%);stop-opacity:1;"/>
<stop offset="1" style="stop-color:rgb(55.686275%,55.686275%,55.686275%);stop-opacity:1;"/>
</linearGradient>
<linearGradient id="linear5" gradientUnits="userSpaceOnUse" x1="33.59" y1="51.81" x2="33.59" y2="28.38" gradientTransform="matrix(0.75,0,0,0.75,0,0)">
<stop offset="0" style="stop-color:rgb(75.294118%,75.294118%,75.294118%);stop-opacity:1;"/>
<stop offset="1" style="stop-color:rgb(55.686275%,55.686275%,55.686275%);stop-opacity:1;"/>
</linearGradient>
<linearGradient id="linear6" gradientUnits="userSpaceOnUse" x1="27.57" y1="51.81" x2="27.57" y2="28.38" gradientTransform="matrix(0.75,0,0,0.75,0,0)">
<stop offset="0" style="stop-color:rgb(75.294118%,75.294118%,75.294118%);stop-opacity:1;"/>
<stop offset="1" style="stop-color:rgb(55.686275%,55.686275%,55.686275%);stop-opacity:1;"/>
</linearGradient>
<linearGradient id="linear7" gradientUnits="userSpaceOnUse" x1="26.59" y1="40.56" x2="35.31" y2="40.56" gradientTransform="matrix(0.75,0,0,0.75,0,0)">
<stop offset="0" style="stop-color:rgb(75.294118%,75.294118%,75.294118%);stop-opacity:1;"/>
<stop offset="1" style="stop-color:rgb(55.686275%,55.686275%,55.686275%);stop-opacity:1;"/>
</linearGradient>
</defs>
<g id="surface1">
<path style=" stroke:none;fill-rule:nonzero;fill:url(#linear0);" d="M 48 15.984375 C 47.996094 13.859375 46.273438 12.140625 44.152344 12.140625 L 31.085938 12.140625 C 28.417969 12.144531 26.234375 10.007812 26.183594 7.335938 C 26.222656 4.617188 24.058594 2.375 21.335938 2.324219 L 2.535156 2.324219 C 1.136719 2.324219 0 3.460938 0 4.859375 L 0 17.566406 L 48 17.566406 Z M 48 15.984375 "/>
<path style=" stroke:none;fill-rule:nonzero;fill:url(#linear1);" d="M 44.152344 14.039062 L 3.847656 14.039062 C 1.722656 14.039062 0 15.761719 0 17.886719 L 0 41.835938 C 0.00390625 43.957031 1.726562 45.675781 3.847656 45.675781 L 44.152344 45.675781 C 46.273438 45.675781 47.996094 43.957031 48 41.835938 L 48 17.886719 C 48 15.761719 46.277344 14.039062 44.152344 14.039062 Z M 44.152344 14.039062 "/>
<path style=" stroke:none;fill-rule:nonzero;fill:url(#linear2);" d="M 21.644531 21.695312 C 21.359375 21.695312 21.128906 21.929688 21.128906 22.214844 C 21.128906 22.5 21.359375 22.734375 21.644531 22.734375 L 22.84375 22.734375 C 22.820312 22.5625 22.808594 22.390625 22.808594 22.214844 C 22.808594 22.042969 22.820312 21.867188 22.84375 21.695312 Z M 21.644531 21.695312 "/>
<path style=" stroke:none;fill-rule:nonzero;fill:url(#linear3);" d="M 29.382812 37.050781 L 29.382812 22.214844 C 29.382812 21.929688 29.152344 21.695312 28.867188 21.695312 L 26.160156 21.695312 C 25.875 21.695312 25.640625 21.929688 25.640625 22.214844 C 25.640625 22.5 25.875 22.734375 26.160156 22.734375 L 28.351562 22.734375 L 28.351562 36.53125 L 17.519531 36.53125 L 17.519531 22.734375 L 18.328125 22.734375 C 18.304688 22.5625 18.292969 22.390625 18.292969 22.214844 C 18.292969 22.042969 18.304688 21.867188 18.328125 21.695312 L 17.003906 21.695312 C 16.71875 21.695312 16.484375 21.929688 16.484375 22.214844 L 16.484375 37.050781 C 16.484375 37.1875 16.539062 37.316406 16.636719 37.414062 C 16.734375 37.507812 16.867188 37.5625 17.003906 37.558594 L 28.867188 37.558594 C 29.003906 37.5625 29.136719 37.507812 29.234375 37.414062 C 29.332031 37.316406 29.382812 37.1875 29.382812 37.050781 Z M 29.382812 37.050781 "/>
<path style=" stroke:none;fill-rule:nonzero;fill:url(#linear4);" d="M 30.996094 23.828125 C 30.710938 23.828125 30.480469 24.058594 30.480469 24.34375 L 30.480469 38.664062 L 19.132812 38.664062 C 18.996094 38.660156 18.863281 38.710938 18.765625 38.808594 C 18.667969 38.90625 18.617188 39.035156 18.617188 39.171875 C 18.617188 39.457031 18.847656 39.691406 19.132812 39.691406 L 30.996094 39.691406 C 31.28125 39.691406 31.515625 39.457031 31.515625 39.171875 L 31.515625 24.34375 C 31.515625 24.058594 31.28125 23.828125 30.996094 23.828125 Z M 30.996094 23.828125 "/>
<path style=" stroke:none;fill-rule:nonzero;fill:url(#linear5);" d="M 26.160156 24.667969 C 26.445312 24.667969 26.679688 24.4375 26.679688 24.148438 C 26.679688 23.863281 26.445312 23.632812 26.160156 23.632812 C 25.578125 23.632812 25.054688 23.273438 24.839844 22.734375 C 24.777344 22.566406 24.742188 22.390625 24.742188 22.214844 C 24.742188 22.039062 24.777344 21.863281 24.839844 21.695312 C 25.054688 21.15625 25.578125 20.800781 26.160156 20.796875 C 26.445312 20.796875 26.679688 20.566406 26.679688 20.28125 C 26.679688 19.992188 26.445312 19.761719 26.160156 19.761719 C 24.808594 19.777344 23.71875 20.867188 23.707031 22.214844 C 23.707031 22.390625 23.726562 22.5625 23.765625 22.734375 C 24.007812 23.859375 25.007812 24.667969 26.160156 24.667969 Z M 26.160156 24.667969 "/>
<path style=" stroke:none;fill-rule:nonzero;fill:url(#linear6);" d="M 21.644531 24.667969 C 21.929688 24.667969 22.164062 24.4375 22.164062 24.148438 C 22.164062 23.863281 21.929688 23.632812 21.644531 23.632812 C 21.0625 23.632812 20.539062 23.273438 20.324219 22.734375 C 20.261719 22.566406 20.230469 22.390625 20.226562 22.214844 C 20.230469 22.039062 20.261719 21.863281 20.324219 21.695312 C 20.539062 21.15625 21.0625 20.800781 21.644531 20.796875 C 21.929688 20.796875 22.164062 20.566406 22.164062 20.28125 C 22.164062 19.992188 21.929688 19.761719 21.644531 19.761719 C 20.296875 19.777344 19.203125 20.867188 19.191406 22.214844 C 19.191406 22.390625 19.214844 22.5625 19.253906 22.734375 C 19.5 23.859375 20.492188 24.664062 21.644531 24.667969 Z M 21.644531 24.667969 "/>
<path style=" stroke:none;fill-rule:nonzero;fill:url(#linear7);" d="M 25.777344 33.90625 C 25.550781 33.914062 25.324219 33.871094 25.117188 33.78125 C 24.945312 33.703125 24.800781 33.578125 24.691406 33.429688 C 24.574219 33.269531 24.492188 33.085938 24.449219 32.894531 C 24.402344 32.671875 24.382812 32.441406 24.382812 32.210938 L 24.382812 30.929688 C 23.9375 30.75 23.46875 30.640625 22.988281 30.59375 C 22.632812 30.558594 22.277344 30.59375 21.9375 30.695312 C 21.675781 30.78125 21.445312 30.9375 21.277344 31.15625 C 21.121094 31.371094 21.042969 31.636719 21.054688 31.90625 C 21.035156 32.234375 21.183594 32.550781 21.449219 32.746094 C 21.765625 32.929688 22.132812 33.019531 22.5 33 C 22.6875 33.011719 22.878906 32.992188 23.0625 32.945312 C 23.226562 32.945312 23.390625 32.859375 23.566406 32.804688 C 23.667969 32.757812 23.785156 32.757812 23.886719 32.804688 C 23.96875 32.835938 24.035156 32.898438 24.074219 32.976562 C 24.109375 33.066406 24.109375 33.164062 24.074219 33.253906 C 24.039062 33.371094 23.96875 33.46875 23.871094 33.539062 C 23.683594 33.683594 23.46875 33.78125 23.234375 33.832031 C 22.933594 33.90625 22.628906 33.941406 22.320312 33.9375 C 22.023438 33.9375 21.726562 33.894531 21.441406 33.808594 C 21.171875 33.722656 20.917969 33.59375 20.691406 33.421875 C 20.464844 33.242188 20.28125 33.011719 20.152344 32.753906 C 20.003906 32.453125 19.933594 32.125 19.941406 31.792969 C 19.933594 31.367188 20.070312 30.949219 20.332031 30.617188 C 20.59375 30.277344 20.945312 30.015625 21.34375 29.867188 C 21.804688 29.703125 22.289062 29.632812 22.777344 29.664062 C 23.335938 29.695312 23.882812 29.835938 24.382812 30.082031 L 24.382812 29.25 C 24.390625 29.046875 24.347656 28.839844 24.253906 28.65625 C 24.171875 28.492188 24.050781 28.351562 23.902344 28.246094 C 23.75 28.136719 23.574219 28.058594 23.390625 28.011719 C 23.191406 27.960938 22.984375 27.933594 22.777344 27.9375 C 22.523438 27.925781 22.265625 27.96875 22.027344 28.058594 C 21.863281 28.121094 21.710938 28.207031 21.570312 28.3125 L 21.242188 28.574219 C 21.121094 28.65625 20.980469 28.699219 20.835938 28.695312 C 20.714844 28.695312 20.59375 28.648438 20.503906 28.566406 C 20.402344 28.476562 20.34375 28.339844 20.355469 28.199219 C 20.363281 28.03125 20.425781 27.871094 20.535156 27.742188 C 20.671875 27.570312 20.84375 27.421875 21.039062 27.316406 C 21.273438 27.175781 21.523438 27.070312 21.789062 27 C 22.105469 26.914062 22.433594 26.875 22.761719 26.878906 C 23.125 26.875 23.484375 26.929688 23.828125 27.039062 C 24.140625 27.128906 24.433594 27.285156 24.691406 27.488281 C 24.929688 27.675781 25.125 27.914062 25.265625 28.183594 C 25.414062 28.464844 25.492188 28.773438 25.5 29.09375 L 25.5 32.09375 C 25.496094 32.300781 25.515625 32.507812 25.558594 32.707031 C 25.605469 32.859375 25.664062 32.933594 25.753906 32.933594 L 25.90625 32.933594 C 26.058594 32.925781 26.210938 32.976562 26.332031 33.074219 C 26.4375 33.160156 26.5 33.292969 26.496094 33.429688 C 26.496094 33.566406 26.429688 33.699219 26.316406 33.78125 C 26.15625 33.882812 25.96875 33.925781 25.777344 33.90625 Z M 25.777344 33.90625 "/>
</g>
</svg>
