
<svg xmlns="http://www.w3.org/2000/svg" xmlns:xlink="http://www.w3.org/1999/xlink" width="48px" height="48px" viewBox="0 0 48 48" version="1.1">
<defs>
<linearGradient id="linear0" gradientUnits="userSpaceOnUse" x1="32" y1="3.8" x2="32" y2="23.49" gradientTransform="matrix(0.75,0,0,0.75,0,0)">
<stop offset="0" style="stop-color:rgb(16.078431%,71.372549%,96.470588%);stop-opacity:1;"/>
<stop offset="0.67" style="stop-color:rgb(39.607843%,45.098039%,82.745098%);stop-opacity:1;"/>
<stop offset="1" style="stop-color:rgb(49.411765%,34.117647%,76.862745%);stop-opacity:1;"/>
</linearGradient>
<linearGradient id="linear1" gradientUnits="userSpaceOnUse" x1="32" y1="60.9" x2="32" y2="18.72" gradientTransform="matrix(0.75,0,0,0.75,0,0)">
<stop offset="0" style="stop-color:rgb(86.27451%,87.058824%,88.627451%);stop-opacity:1;"/>
<stop offset="0.57" style="stop-color:rgb(87.058824%,87.843137%,89.411765%);stop-opacity:1;"/>
<stop offset="0.81" style="stop-color:rgb(89.803922%,90.588235%,91.764706%);stop-opacity:1;"/>
<stop offset="0.99" style="stop-color:rgb(94.901961%,95.294118%,95.686275%);stop-opacity:1;"/>
<stop offset="1" style="stop-color:rgb(95.294118%,95.686275%,96.078431%);stop-opacity:1;"/>
</linearGradient>
<linearGradient id="linear2" gradientUnits="userSpaceOnUse" x1="32" y1="51.33" x2="32" y2="29.83" gradientTransform="matrix(0.75,0,0,0.75,0,0)">
<stop offset="0" style="stop-color:rgb(75.294118%,75.294118%,75.294118%);stop-opacity:1;"/>
<stop offset="1" style="stop-color:rgb(55.686275%,55.686275%,55.686275%);stop-opacity:1;"/>
</linearGradient>
</defs>
<g id="surface1">
<path style=" stroke:none;fill-rule:nonzero;fill:url(#linear0);" d="M 48 15.984375 C 47.996094 13.859375 46.273438 12.140625 44.152344 12.140625 L 31.085938 12.140625 C 28.417969 12.144531 26.234375 10.007812 26.183594 7.335938 C 26.222656 4.617188 24.058594 2.375 21.335938 2.324219 L 2.535156 2.324219 C 1.136719 2.324219 0 3.460938 0 4.859375 L 0 17.566406 L 48 17.566406 Z M 48 15.984375 "/>
<path style=" stroke:none;fill-rule:nonzero;fill:url(#linear1);" d="M 44.152344 14.039062 L 3.847656 14.039062 C 1.722656 14.039062 0 15.761719 0 17.886719 L 0 41.835938 C 0.00390625 43.957031 1.726562 45.675781 3.847656 45.675781 L 44.152344 45.675781 C 46.273438 45.675781 47.996094 43.957031 48 41.835938 L 48 17.886719 C 48 15.761719 46.277344 14.039062 44.152344 14.039062 Z M 44.152344 14.039062 "/>
<path style=" stroke:none;fill-rule:nonzero;fill:url(#linear2);" d="M 31.035156 32.78125 L 31.035156 32.460938 C 31.042969 31.546875 30.628906 30.679688 29.917969 30.105469 L 27.804688 28.367188 C 29.054688 26.464844 28.710938 23.929688 26.992188 22.433594 C 25.277344 20.9375 22.722656 20.9375 21.007812 22.433594 C 19.289062 23.929688 18.945312 26.464844 20.195312 28.367188 L 18.074219 30.105469 C 17.367188 30.679688 16.957031 31.546875 16.964844 32.460938 L 16.964844 32.78125 C 15.726562 33.035156 14.882812 34.183594 15.007812 35.441406 C 15.132812 36.695312 16.195312 37.652344 17.457031 37.652344 C 18.71875 37.652344 19.777344 36.695312 19.90625 35.441406 C 20.03125 34.183594 19.183594 33.035156 17.945312 32.78125 L 17.945312 32.460938 C 17.941406 31.839844 18.21875 31.253906 18.695312 30.863281 L 20.828125 29.121094 C 21.554688 29.835938 22.5 30.28125 23.511719 30.390625 L 23.511719 33.496094 C 22.277344 33.746094 21.433594 34.890625 21.558594 36.144531 C 21.6875 37.398438 22.742188 38.351562 24 38.351562 C 25.257812 38.351562 26.3125 37.398438 26.441406 36.144531 C 26.566406 34.890625 25.722656 33.746094 24.488281 33.496094 L 24.488281 30.390625 C 25.5 30.28125 26.445312 29.835938 27.171875 29.121094 L 29.304688 30.863281 C 29.78125 31.253906 30.058594 31.839844 30.054688 32.460938 L 30.054688 32.78125 C 28.816406 33.035156 27.96875 34.183594 28.09375 35.441406 C 28.222656 36.695312 29.28125 37.652344 30.542969 37.652344 C 31.804688 37.652344 32.867188 36.695312 32.992188 35.441406 C 33.117188 34.183594 32.273438 33.035156 31.035156 32.78125 Z M 18.660156 35.191406 C 18.660156 35.855469 18.117188 36.398438 17.453125 36.398438 C 16.785156 36.398438 16.246094 35.855469 16.246094 35.191406 C 16.246094 34.523438 16.785156 33.984375 17.453125 33.984375 C 18.117188 33.984375 18.660156 34.523438 18.660156 35.191406 Z M 25.207031 35.902344 C 25.207031 36.570312 24.667969 37.109375 24 37.109375 C 23.332031 37.109375 22.792969 36.570312 22.792969 35.902344 C 22.792969 35.234375 23.332031 34.695312 24 34.695312 C 24.667969 34.695312 25.207031 35.234375 25.207031 35.902344 Z M 24 28.816406 C 22.367188 28.820312 21.039062 27.5 21.039062 25.863281 C 21.035156 24.230469 22.355469 22.90625 23.988281 22.90625 C 25.625 22.90625 26.945312 24.226562 26.945312 25.859375 C 26.945312 27.488281 25.628906 28.8125 24 28.816406 Z M 30.546875 36.398438 C 29.882812 36.398438 29.339844 35.855469 29.339844 35.191406 C 29.339844 34.523438 29.882812 33.984375 30.546875 33.984375 C 31.214844 33.984375 31.753906 34.523438 31.753906 35.191406 C 31.753906 35.855469 31.214844 36.398438 30.546875 36.398438 Z M 30.546875 36.398438 "/>
</g>
</svg>
