
<svg xmlns="http://www.w3.org/2000/svg" xmlns:xlink="http://www.w3.org/1999/xlink" width="48px" height="48px" viewBox="0 0 48 48" version="1.1">
<defs>
<linearGradient id="linear0" gradientUnits="userSpaceOnUse" x1="32" y1="3.8" x2="32" y2="23.49" gradientTransform="matrix(0.75,0,0,0.75,0,0)">
<stop offset="0" style="stop-color:rgb(16.078431%,71.372549%,96.470588%);stop-opacity:1;"/>
<stop offset="0.67" style="stop-color:rgb(39.607843%,45.098039%,82.745098%);stop-opacity:1;"/>
<stop offset="1" style="stop-color:rgb(49.411765%,34.117647%,76.862745%);stop-opacity:1;"/>
</linearGradient>
<linearGradient id="linear1" gradientUnits="userSpaceOnUse" x1="32" y1="60.9" x2="32" y2="18.72" gradientTransform="matrix(0.75,0,0,0.75,0,0)">
<stop offset="0" style="stop-color:rgb(86.27451%,87.058824%,88.627451%);stop-opacity:1;"/>
<stop offset="0.57" style="stop-color:rgb(87.058824%,87.843137%,89.411765%);stop-opacity:1;"/>
<stop offset="0.81" style="stop-color:rgb(89.803922%,90.588235%,91.764706%);stop-opacity:1;"/>
<stop offset="0.99" style="stop-color:rgb(94.901961%,95.294118%,95.686275%);stop-opacity:1;"/>
<stop offset="1" style="stop-color:rgb(95.294118%,95.686275%,96.078431%);stop-opacity:1;"/>
</linearGradient>
<linearGradient id="linear2" gradientUnits="userSpaceOnUse" x1="32.02" y1="30.5" x2="32.02" y2="49.51" gradientTransform="matrix(0.75,0,0,0.75,0,0)">
<stop offset="0" style="stop-color:rgb(55.686275%,55.686275%,55.686275%);stop-opacity:1;"/>
<stop offset="1" style="stop-color:rgb(75.294118%,75.294118%,75.294118%);stop-opacity:1;"/>
</linearGradient>
<linearGradient id="linear3" gradientUnits="userSpaceOnUse" x1="32.01" y1="30.5" x2="32.01" y2="49.51" gradientTransform="matrix(0.75,0,0,0.75,0,0)">
<stop offset="0" style="stop-color:rgb(55.686275%,55.686275%,55.686275%);stop-opacity:1;"/>
<stop offset="1" style="stop-color:rgb(75.294118%,75.294118%,75.294118%);stop-opacity:1;"/>
</linearGradient>
<linearGradient id="linear4" gradientUnits="userSpaceOnUse" x1="32" y1="30.5" x2="32" y2="49.51" gradientTransform="matrix(0.75,0,0,0.75,0,0)">
<stop offset="0" style="stop-color:rgb(55.686275%,55.686275%,55.686275%);stop-opacity:1;"/>
<stop offset="1" style="stop-color:rgb(75.294118%,75.294118%,75.294118%);stop-opacity:1;"/>
</linearGradient>
<linearGradient id="linear5" gradientUnits="userSpaceOnUse" x1="32.09" y1="30.5" x2="32.09" y2="49.51" gradientTransform="matrix(0.75,0,0,0.75,-0.00270418,-0.00294098)">
<stop offset="0" style="stop-color:rgb(55.686275%,55.686275%,55.686275%);stop-opacity:1;"/>
<stop offset="1" style="stop-color:rgb(75.294118%,75.294118%,75.294118%);stop-opacity:1;"/>
</linearGradient>
</defs>
<g id="surface1">
<path style=" stroke:none;fill-rule:nonzero;fill:url(#linear0);" d="M 48 15.984375 C 47.996094 13.859375 46.273438 12.140625 44.152344 12.140625 L 31.085938 12.140625 C 28.417969 12.144531 26.234375 10.007812 26.183594 7.335938 C 26.222656 4.617188 24.058594 2.375 21.335938 2.324219 L 2.535156 2.324219 C 1.136719 2.324219 0 3.460938 0 4.859375 L 0 17.566406 L 48 17.566406 Z M 48 15.984375 "/>
<path style=" stroke:none;fill-rule:nonzero;fill:url(#linear1);" d="M 44.152344 14.039062 L 3.847656 14.039062 C 1.722656 14.039062 0 15.761719 0 17.886719 L 0 41.835938 C 0.00390625 43.957031 1.726562 45.675781 3.847656 45.675781 L 44.152344 45.675781 C 46.273438 45.675781 47.996094 43.957031 48 41.835938 L 48 17.886719 C 48 15.761719 46.277344 14.039062 44.152344 14.039062 Z M 44.152344 14.039062 "/>
<path style=" stroke:none;fill-rule:nonzero;fill:url(#linear2);" d="M 28.921875 33 C 28.746094 33.175781 28.507812 33.273438 28.257812 33.273438 C 28.011719 33.273438 27.773438 33.175781 27.601562 33 C 25.617188 31.027344 22.414062 31.027344 20.429688 33 C 20.066406 33.363281 19.476562 33.363281 19.109375 33 C 18.746094 32.636719 18.746094 32.046875 19.109375 31.679688 C 21.820312 28.976562 26.203125 28.976562 28.914062 31.679688 C 29.277344 32.042969 29.28125 32.632812 28.921875 33 Z M 28.921875 33 "/>
<path style=" stroke:none;fill-rule:nonzero;fill:url(#linear3);" d="M 30.996094 30.816406 C 30.824219 30.992188 30.585938 31.09375 30.335938 31.09375 C 30.089844 31.09375 29.851562 30.992188 29.679688 30.816406 C 26.542969 27.691406 21.46875 27.691406 18.335938 30.816406 C 17.96875 31.148438 17.402344 31.136719 17.050781 30.785156 C 16.695312 30.433594 16.679688 29.871094 17.007812 29.496094 C 20.875 25.640625 27.132812 25.640625 30.996094 29.496094 C 31.359375 29.863281 31.359375 30.453125 30.996094 30.816406 Z M 30.996094 30.816406 "/>
<path style=" stroke:none;fill-rule:nonzero;fill:url(#linear4);" d="M 33.105469 28.582031 C 32.738281 28.941406 32.152344 28.941406 31.785156 28.582031 C 27.488281 24.285156 20.519531 24.285156 16.222656 28.582031 C 15.851562 28.914062 15.289062 28.902344 14.933594 28.550781 C 14.582031 28.199219 14.566406 27.632812 14.894531 27.261719 C 19.921875 22.238281 28.070312 22.238281 33.097656 27.261719 C 33.460938 27.625 33.464844 28.214844 33.105469 28.582031 Z M 33.105469 28.582031 "/>
<path style=" stroke:none;fill-rule:nonzero;fill:url(#linear5);" d="M 25.667969 33.707031 C 25.023438 32.824219 23.789062 32.625 22.90625 33.265625 C 22.027344 33.902344 21.832031 35.140625 22.476562 36.023438 C 23.117188 36.910156 24.351562 37.109375 25.234375 36.46875 C 26.117188 35.828125 26.308594 34.59375 25.667969 33.707031 Z M 25.667969 33.707031 "/>
</g>
</svg>
