
<svg xmlns="http://www.w3.org/2000/svg" xmlns:xlink="http://www.w3.org/1999/xlink" width="48px" height="48px" viewBox="0 0 48 48" version="1.1">
<defs>
<linearGradient id="linear0" gradientUnits="userSpaceOnUse" x1="32" y1="3.8" x2="32" y2="23.49" gradientTransform="matrix(0.75,0,0,0.75,0,0)">
<stop offset="0" style="stop-color:rgb(16.078431%,71.372549%,96.470588%);stop-opacity:1;"/>
<stop offset="0.67" style="stop-color:rgb(39.607843%,45.098039%,82.745098%);stop-opacity:1;"/>
<stop offset="1" style="stop-color:rgb(49.411765%,34.117647%,76.862745%);stop-opacity:1;"/>
</linearGradient>
<linearGradient id="linear1" gradientUnits="userSpaceOnUse" x1="32" y1="60.9" x2="32" y2="18.72" gradientTransform="matrix(0.75,0,0,0.75,0,0)">
<stop offset="0" style="stop-color:rgb(86.27451%,87.058824%,88.627451%);stop-opacity:1;"/>
<stop offset="0.57" style="stop-color:rgb(87.058824%,87.843137%,89.411765%);stop-opacity:1;"/>
<stop offset="0.81" style="stop-color:rgb(89.803922%,90.588235%,91.764706%);stop-opacity:1;"/>
<stop offset="0.99" style="stop-color:rgb(94.901961%,95.294118%,95.686275%);stop-opacity:1;"/>
<stop offset="1" style="stop-color:rgb(95.294118%,95.686275%,96.078431%);stop-opacity:1;"/>
</linearGradient>
<linearGradient id="linear2" gradientUnits="userSpaceOnUse" x1="22.23" y1="50" x2="22.23" y2="31.89" gradientTransform="matrix(0.75,0,0,0.75,0,0)">
<stop offset="0" style="stop-color:rgb(75.294118%,75.294118%,75.294118%);stop-opacity:1;"/>
<stop offset="1" style="stop-color:rgb(55.686275%,55.686275%,55.686275%);stop-opacity:1;"/>
</linearGradient>
<linearGradient id="linear3" gradientUnits="userSpaceOnUse" x1="41.77" y1="50" x2="41.77" y2="31.89" gradientTransform="matrix(0.75,0,0,0.75,0,0)">
<stop offset="0" style="stop-color:rgb(75.294118%,75.294118%,75.294118%);stop-opacity:1;"/>
<stop offset="1" style="stop-color:rgb(55.686275%,55.686275%,55.686275%);stop-opacity:1;"/>
</linearGradient>
<linearGradient id="linear4" gradientUnits="userSpaceOnUse" x1="32" y1="50" x2="32" y2="31.89" gradientTransform="matrix(0.75,0,0,0.75,0,0)">
<stop offset="0" style="stop-color:rgb(75.294118%,75.294118%,75.294118%);stop-opacity:1;"/>
<stop offset="1" style="stop-color:rgb(55.686275%,55.686275%,55.686275%);stop-opacity:1;"/>
</linearGradient>
</defs>
<g id="surface1">
<path style=" stroke:none;fill-rule:nonzero;fill:url(#linear0);" d="M 48 15.984375 C 47.996094 13.859375 46.273438 12.140625 44.152344 12.140625 L 31.085938 12.140625 C 28.417969 12.144531 26.234375 10.007812 26.183594 7.335938 C 26.222656 4.617188 24.058594 2.375 21.335938 2.324219 L 2.535156 2.324219 C 1.136719 2.324219 0 3.460938 0 4.859375 L 0 17.566406 L 48 17.566406 Z M 48 15.984375 "/>
<path style=" stroke:none;fill-rule:nonzero;fill:url(#linear1);" d="M 44.152344 14.039062 L 3.847656 14.039062 C 1.722656 14.039062 0 15.761719 0 17.886719 L 0 41.835938 C 0.00390625 43.957031 1.726562 45.675781 3.847656 45.675781 L 44.152344 45.675781 C 46.273438 45.675781 47.996094 43.957031 48 41.835938 L 48 17.886719 C 48 15.761719 46.277344 14.039062 44.152344 14.039062 Z M 44.152344 14.039062 "/>
<path style=" stroke:none;fill-rule:nonzero;fill:url(#linear2);" d="M 19.28125 36.945312 C 19.019531 36.945312 18.765625 36.832031 18.59375 36.628906 L 13.378906 30.691406 C 13.078125 30.34375 13.078125 29.828125 13.378906 29.484375 L 18.628906 23.542969 C 18.824219 23.230469 19.183594 23.0625 19.546875 23.121094 C 19.910156 23.175781 20.203125 23.441406 20.292969 23.796875 C 20.386719 24.152344 20.257812 24.527344 19.964844 24.75 L 15.285156 30.089844 L 19.964844 35.429688 C 20.136719 35.613281 20.226562 35.859375 20.210938 36.109375 C 20.191406 36.359375 20.074219 36.589844 19.882812 36.75 C 19.710938 36.882812 19.5 36.953125 19.28125 36.945312 Z M 19.28125 36.945312 "/>
<path style=" stroke:none;fill-rule:nonzero;fill:url(#linear3);" d="M 28.71875 36.945312 C 28.496094 36.945312 28.285156 36.863281 28.117188 36.71875 C 27.933594 36.5625 27.820312 36.335938 27.804688 36.09375 C 27.789062 35.847656 27.875 35.613281 28.035156 35.429688 L 32.714844 30.089844 L 28.035156 24.75 C 27.800781 24.507812 27.71875 24.15625 27.820312 23.835938 C 27.925781 23.515625 28.195312 23.277344 28.527344 23.214844 C 28.859375 23.152344 29.195312 23.28125 29.40625 23.542969 L 34.621094 29.484375 C 34.921875 29.828125 34.921875 30.34375 34.621094 30.691406 L 29.40625 36.628906 C 29.234375 36.832031 28.980469 36.945312 28.71875 36.945312 Z M 28.71875 36.945312 "/>
<path style=" stroke:none;fill-rule:nonzero;fill:url(#linear4);" d="M 21.929688 37.15625 C 21.832031 37.15625 21.730469 37.136719 21.636719 37.101562 C 21.160156 36.941406 20.902344 36.425781 21.058594 35.945312 L 25.207031 23.648438 C 25.390625 23.199219 25.886719 22.972656 26.34375 23.125 C 26.800781 23.277344 27.0625 23.757812 26.941406 24.226562 L 22.792969 36.53125 C 22.671875 36.902344 22.320312 37.15625 21.929688 37.15625 Z M 21.929688 37.15625 "/>
</g>
</svg>
