
<svg xmlns="http://www.w3.org/2000/svg" xmlns:xlink="http://www.w3.org/1999/xlink" width="48px" height="48px" viewBox="0 0 48 48" version="1.1">
<defs>
<linearGradient id="linear0" gradientUnits="userSpaceOnUse" x1="32" y1="3.8" x2="32" y2="23.49" gradientTransform="matrix(0.75,0,0,0.75,0,0)">
<stop offset="0" style="stop-color:rgb(16.078431%,71.372549%,96.470588%);stop-opacity:1;"/>
<stop offset="0.67" style="stop-color:rgb(39.607843%,45.098039%,82.745098%);stop-opacity:1;"/>
<stop offset="1" style="stop-color:rgb(49.411765%,34.117647%,76.862745%);stop-opacity:1;"/>
</linearGradient>
<linearGradient id="linear1" gradientUnits="userSpaceOnUse" x1="32" y1="60.9" x2="32" y2="18.72" gradientTransform="matrix(0.75,0,0,0.75,0,0)">
<stop offset="0" style="stop-color:rgb(86.27451%,87.058824%,88.627451%);stop-opacity:1;"/>
<stop offset="0.57" style="stop-color:rgb(87.058824%,87.843137%,89.411765%);stop-opacity:1;"/>
<stop offset="0.81" style="stop-color:rgb(89.803922%,90.588235%,91.764706%);stop-opacity:1;"/>
<stop offset="0.99" style="stop-color:rgb(94.901961%,95.294118%,95.686275%);stop-opacity:1;"/>
<stop offset="1" style="stop-color:rgb(95.294118%,95.686275%,96.078431%);stop-opacity:1;"/>
</linearGradient>
<linearGradient id="linear2" gradientUnits="userSpaceOnUse" x1="32" y1="50.63" x2="32" y2="28.33" gradientTransform="matrix(0.75,0,0,0.75,0,0)">
<stop offset="0" style="stop-color:rgb(75.294118%,75.294118%,75.294118%);stop-opacity:1;"/>
<stop offset="1" style="stop-color:rgb(55.686275%,55.686275%,55.686275%);stop-opacity:1;"/>
</linearGradient>
<linearGradient id="linear3" gradientUnits="userSpaceOnUse" x1="32" y1="50.63" x2="32" y2="28.33" gradientTransform="matrix(0.75,0,0,0.75,0,0)">
<stop offset="0" style="stop-color:rgb(75.294118%,75.294118%,75.294118%);stop-opacity:1;"/>
<stop offset="1" style="stop-color:rgb(55.686275%,55.686275%,55.686275%);stop-opacity:1;"/>
</linearGradient>
</defs>
<g id="surface1">
<path style=" stroke:none;fill-rule:nonzero;fill:url(#linear0);" d="M 48 15.984375 C 47.996094 13.859375 46.273438 12.140625 44.152344 12.140625 L 31.085938 12.140625 C 28.417969 12.144531 26.234375 10.007812 26.183594 7.335938 C 26.222656 4.617188 24.058594 2.375 21.335938 2.324219 L 2.535156 2.324219 C 1.136719 2.324219 0 3.460938 0 4.859375 L 0 17.566406 L 48 17.566406 Z M 48 15.984375 "/>
<path style=" stroke:none;fill-rule:nonzero;fill:url(#linear1);" d="M 44.152344 14.039062 L 3.847656 14.039062 C 1.722656 14.039062 0 15.761719 0 17.886719 L 0 41.835938 C 0.00390625 43.957031 1.726562 45.675781 3.847656 45.675781 L 44.152344 45.675781 C 46.273438 45.675781 47.996094 43.957031 48 41.835938 L 48 17.886719 C 48 15.761719 46.277344 14.039062 44.152344 14.039062 Z M 44.152344 14.039062 "/>
<path style=" stroke:none;fill-rule:nonzero;fill:url(#linear2);" d="M 24 23.535156 C 25.140625 23.535156 26.070312 24.460938 26.070312 25.605469 C 26.070312 26.75 25.140625 27.675781 24 27.675781 C 23.449219 27.679688 22.921875 27.460938 22.539062 27.066406 C 21.945312 26.476562 21.769531 25.585938 22.089844 24.8125 C 22.410156 24.039062 23.164062 23.535156 24 23.535156 M 24 21.855469 C 21.929688 21.855469 20.25 23.535156 20.25 25.605469 C 20.25 27.675781 21.929688 29.355469 24 29.355469 C 26.070312 29.355469 27.75 27.675781 27.75 25.605469 C 27.75 23.535156 26.070312 21.855469 24 21.855469 Z M 24 21.855469 "/>
<path style=" stroke:none;fill-rule:nonzero;fill:url(#linear3);" d="M 24 31.859375 C 27.054688 31.855469 29.726562 33.902344 30.523438 36.847656 C 30.539062 36.875 30.539062 36.902344 30.523438 36.929688 C 30.511719 36.9375 30.492188 36.9375 30.480469 36.929688 L 17.527344 36.929688 C 17.515625 36.9375 17.496094 36.9375 17.484375 36.929688 C 17.46875 36.902344 17.46875 36.875 17.484375 36.847656 C 18.277344 33.902344 20.949219 31.859375 24 31.859375 M 24 30.1875 C 20.195312 30.1875 16.859375 32.734375 15.855469 36.40625 C 15.695312 36.933594 15.796875 37.507812 16.125 37.949219 C 16.457031 38.394531 16.976562 38.65625 17.527344 38.65625 L 30.472656 38.65625 C 31.023438 38.65625 31.542969 38.394531 31.875 37.949219 C 32.203125 37.507812 32.304688 36.933594 32.144531 36.40625 C 31.140625 32.734375 27.804688 30.1875 24 30.1875 Z M 24 30.1875 "/>
</g>
</svg>
