
<svg xmlns="http://www.w3.org/2000/svg" xmlns:xlink="http://www.w3.org/1999/xlink" width="48px" height="48px" viewBox="0 0 48 48" version="1.1">
<defs>
<linearGradient id="linear0" gradientUnits="userSpaceOnUse" x1="32" y1="3.8" x2="32" y2="23.49" gradientTransform="matrix(0.75,0,0,0.75,0,0)">
<stop offset="0" style="stop-color:rgb(16.078431%,71.372549%,96.470588%);stop-opacity:1;"/>
<stop offset="0.67" style="stop-color:rgb(39.607843%,45.098039%,82.745098%);stop-opacity:1;"/>
<stop offset="1" style="stop-color:rgb(49.411765%,34.117647%,76.862745%);stop-opacity:1;"/>
</linearGradient>
<linearGradient id="linear1" gradientUnits="userSpaceOnUse" x1="32" y1="60.9" x2="32" y2="18.72" gradientTransform="matrix(0.75,0,0,0.75,0,0)">
<stop offset="0" style="stop-color:rgb(86.27451%,87.058824%,88.627451%);stop-opacity:1;"/>
<stop offset="0.57" style="stop-color:rgb(87.058824%,87.843137%,89.411765%);stop-opacity:1;"/>
<stop offset="0.81" style="stop-color:rgb(89.803922%,90.588235%,91.764706%);stop-opacity:1;"/>
<stop offset="0.99" style="stop-color:rgb(94.901961%,95.294118%,95.686275%);stop-opacity:1;"/>
<stop offset="1" style="stop-color:rgb(95.294118%,95.686275%,96.078431%);stop-opacity:1;"/>
</linearGradient>
<linearGradient id="linear2" gradientUnits="userSpaceOnUse" x1="32" y1="48.87" x2="32" y2="29.99" gradientTransform="matrix(0.75,0,0,0.75,0,0)">
<stop offset="0" style="stop-color:rgb(75.294118%,75.294118%,75.294118%);stop-opacity:1;"/>
<stop offset="1" style="stop-color:rgb(55.686275%,55.686275%,55.686275%);stop-opacity:1;"/>
</linearGradient>
</defs>
<g id="surface1">
<path style=" stroke:none;fill-rule:nonzero;fill:url(#linear0);" d="M 48 15.984375 C 47.996094 13.859375 46.273438 12.140625 44.152344 12.140625 L 31.085938 12.140625 C 28.417969 12.144531 26.234375 10.007812 26.183594 7.335938 C 26.222656 4.617188 24.058594 2.375 21.335938 2.324219 L 2.535156 2.324219 C 1.136719 2.324219 0 3.460938 0 4.859375 L 0 17.566406 L 48 17.566406 Z M 48 15.984375 "/>
<path style=" stroke:none;fill-rule:nonzero;fill:url(#linear1);" d="M 44.152344 14.039062 L 3.847656 14.039062 C 1.722656 14.039062 0 15.761719 0 17.886719 L 0 41.835938 C 0.00390625 43.957031 1.726562 45.675781 3.847656 45.675781 L 44.152344 45.675781 C 46.273438 45.675781 47.996094 43.957031 48 41.835938 L 48 17.886719 C 48 15.761719 46.277344 14.039062 44.152344 14.039062 Z M 44.152344 14.039062 "/>
<path style=" stroke:none;fill-rule:nonzero;fill:url(#linear2);" d="M 32.578125 21.515625 L 31.597656 21.515625 C 31.34375 21.515625 31.140625 21.722656 31.140625 21.976562 L 31.140625 22.84375 C 31.140625 23.09375 30.9375 23.296875 30.691406 23.296875 L 30 23.296875 C 29.878906 23.296875 29.761719 23.25 29.675781 23.167969 C 29.589844 23.082031 29.542969 22.964844 29.542969 22.84375 L 29.542969 21.976562 C 29.542969 21.722656 29.335938 21.515625 29.085938 21.515625 L 18.890625 21.515625 C 18.640625 21.515625 18.433594 21.722656 18.433594 21.976562 L 18.433594 22.84375 C 18.433594 22.964844 18.386719 23.082031 18.300781 23.167969 C 18.214844 23.25 18.097656 23.296875 17.976562 23.296875 L 17.308594 23.296875 C 17.0625 23.296875 16.859375 23.09375 16.859375 22.84375 L 16.859375 21.976562 C 16.859375 21.722656 16.65625 21.515625 16.402344 21.515625 L 15.421875 21.515625 C 15.300781 21.515625 15.183594 21.566406 15.101562 21.652344 C 15.015625 21.738281 14.96875 21.855469 14.96875 21.976562 L 14.96875 36.871094 C 14.96875 36.992188 15.015625 37.109375 15.101562 37.191406 C 15.183594 37.277344 15.300781 37.328125 15.421875 37.328125 L 16.402344 37.328125 C 16.65625 37.328125 16.859375 37.121094 16.859375 36.871094 L 16.859375 36 C 16.859375 35.75 17.0625 35.550781 17.308594 35.550781 L 18 35.550781 C 18.121094 35.546875 18.238281 35.59375 18.324219 35.679688 C 18.410156 35.765625 18.457031 35.878906 18.457031 36 L 18.457031 36.871094 C 18.457031 37.121094 18.664062 37.328125 18.914062 37.328125 L 29.109375 37.328125 C 29.359375 37.328125 29.566406 37.121094 29.566406 36.871094 L 29.566406 36 C 29.566406 35.878906 29.613281 35.765625 29.699219 35.679688 C 29.785156 35.59375 29.902344 35.546875 30.023438 35.550781 L 30.691406 35.550781 C 30.9375 35.550781 31.140625 35.75 31.140625 36 L 31.140625 36.871094 C 31.140625 37.121094 31.34375 37.328125 31.597656 37.328125 L 32.578125 37.328125 C 32.703125 37.328125 32.816406 37.277344 32.898438 37.191406 C 32.984375 37.109375 33.03125 36.992188 33.03125 36.871094 L 33.03125 21.976562 C 33.03125 21.855469 32.984375 21.738281 32.898438 21.652344 C 32.816406 21.566406 32.703125 21.515625 32.578125 21.515625 Z M 18.433594 32.347656 C 18.433594 32.601562 18.230469 32.804688 17.976562 32.804688 L 17.308594 32.804688 C 17.191406 32.804688 17.074219 32.757812 16.988281 32.671875 C 16.90625 32.585938 16.859375 32.46875 16.859375 32.347656 L 16.859375 31.253906 C 16.859375 31.132812 16.90625 31.015625 16.988281 30.929688 C 17.074219 30.84375 17.191406 30.796875 17.308594 30.796875 L 18 30.796875 C 18.25 30.796875 18.457031 31 18.457031 31.253906 Z M 18.433594 27.59375 C 18.433594 27.84375 18.230469 28.050781 17.976562 28.050781 L 17.308594 28.050781 C 17.191406 28.050781 17.074219 28 16.988281 27.914062 C 16.90625 27.828125 16.859375 27.714844 16.859375 27.59375 L 16.859375 26.496094 C 16.859375 26.246094 17.058594 26.042969 17.308594 26.039062 L 18 26.039062 C 18.25 26.039062 18.457031 26.242188 18.457031 26.496094 Z M 26.398438 29.945312 L 22.28125 32.324219 C 22.070312 32.449219 21.808594 32.449219 21.597656 32.328125 C 21.382812 32.203125 21.253906 31.976562 21.253906 31.734375 L 21.253906 27 C 21.253906 26.753906 21.382812 26.527344 21.597656 26.40625 C 21.808594 26.28125 22.070312 26.285156 22.28125 26.40625 L 26.398438 28.785156 C 26.601562 28.910156 26.726562 29.128906 26.726562 29.367188 C 26.726562 29.601562 26.601562 29.824219 26.398438 29.945312 Z M 31.140625 32.347656 C 31.140625 32.46875 31.09375 32.585938 31.011719 32.671875 C 30.925781 32.757812 30.808594 32.804688 30.691406 32.804688 L 30 32.804688 C 29.75 32.804688 29.542969 32.601562 29.542969 32.347656 L 29.542969 31.253906 C 29.542969 31 29.75 30.796875 30 30.796875 L 30.667969 30.796875 C 30.789062 30.796875 30.902344 30.84375 30.988281 30.929688 C 31.070312 31.015625 31.117188 31.132812 31.117188 31.253906 Z M 31.140625 27.59375 C 31.140625 27.714844 31.09375 27.828125 31.011719 27.914062 C 30.925781 28 30.808594 28.050781 30.691406 28.050781 L 30 28.050781 C 29.75 28.050781 29.542969 27.84375 29.542969 27.59375 L 29.542969 26.496094 C 29.542969 26.242188 29.75 26.039062 30 26.039062 L 30.667969 26.039062 C 30.917969 26.042969 31.117188 26.246094 31.117188 26.496094 Z M 31.140625 27.59375 "/>
</g>
</svg>
