
<svg xmlns="http://www.w3.org/2000/svg" xmlns:xlink="http://www.w3.org/1999/xlink" width="48px" height="48px" viewBox="0 0 48 48" version="1.1">
<defs>
<linearGradient id="linear0" gradientUnits="userSpaceOnUse" x1="32" y1="3.8" x2="32" y2="23.49" gradientTransform="matrix(0.75,0,0,0.75,0,0)">
<stop offset="0" style="stop-color:rgb(16.078431%,71.372549%,96.470588%);stop-opacity:1;"/>
<stop offset="0.67" style="stop-color:rgb(39.607843%,45.098039%,82.745098%);stop-opacity:1;"/>
<stop offset="1" style="stop-color:rgb(49.411765%,34.117647%,76.862745%);stop-opacity:1;"/>
</linearGradient>
<linearGradient id="linear1" gradientUnits="userSpaceOnUse" x1="32" y1="60.9" x2="32" y2="18.72" gradientTransform="matrix(0.75,0,0,0.75,0,0)">
<stop offset="0" style="stop-color:rgb(86.27451%,87.058824%,88.627451%);stop-opacity:1;"/>
<stop offset="0.57" style="stop-color:rgb(87.058824%,87.843137%,89.411765%);stop-opacity:1;"/>
<stop offset="0.81" style="stop-color:rgb(89.803922%,90.588235%,91.764706%);stop-opacity:1;"/>
<stop offset="0.99" style="stop-color:rgb(94.901961%,95.294118%,95.686275%);stop-opacity:1;"/>
<stop offset="1" style="stop-color:rgb(95.294118%,95.686275%,96.078431%);stop-opacity:1;"/>
</linearGradient>
<linearGradient id="linear2" gradientUnits="userSpaceOnUse" x1="32.26" y1="50.88" x2="32.26" y2="29.56" gradientTransform="matrix(0.75,0,0,0.75,0,0)">
<stop offset="0" style="stop-color:rgb(75.294118%,75.294118%,75.294118%);stop-opacity:1;"/>
<stop offset="1" style="stop-color:rgb(55.686275%,55.686275%,55.686275%);stop-opacity:1;"/>
</linearGradient>
</defs>
<g id="surface1">
<path style=" stroke:none;fill-rule:nonzero;fill:url(#linear0);" d="M 48 15.984375 C 47.996094 13.859375 46.273438 12.140625 44.152344 12.140625 L 31.085938 12.140625 C 28.417969 12.144531 26.234375 10.007812 26.183594 7.335938 C 26.222656 4.617188 24.058594 2.375 21.335938 2.324219 L 2.535156 2.324219 C 1.136719 2.324219 0 3.460938 0 4.859375 L 0 17.566406 L 48 17.566406 Z M 48 15.984375 "/>
<path style=" stroke:none;fill-rule:nonzero;fill:url(#linear1);" d="M 44.152344 14.039062 L 3.847656 14.039062 C 1.722656 14.039062 0 15.761719 0 17.886719 L 0 41.835938 C 0.00390625 43.957031 1.726562 45.675781 3.847656 45.675781 L 44.152344 45.675781 C 46.273438 45.675781 47.996094 43.957031 48 41.835938 L 48 17.886719 C 48 15.761719 46.277344 14.039062 44.152344 14.039062 Z M 44.152344 14.039062 "/>
<path style=" stroke:none;fill-rule:nonzero;fill:url(#linear2);" d="M 29.429688 27.367188 L 24.984375 27.367188 L 24.984375 25.972656 C 24.984375 25.460938 25.394531 25.046875 25.90625 25.042969 L 27.21875 25.042969 C 28.3125 25.042969 29.195312 24.15625 29.195312 23.0625 L 29.195312 22.070312 C 29.199219 21.929688 29.144531 21.796875 29.046875 21.695312 C 28.949219 21.597656 28.8125 21.539062 28.671875 21.539062 C 28.378906 21.539062 28.140625 21.777344 28.140625 22.070312 L 28.140625 23.0625 C 28.144531 23.308594 28.046875 23.550781 27.875 23.726562 C 27.703125 23.902344 27.464844 24 27.21875 24 L 25.90625 24 C 24.808594 24.003906 23.925781 24.890625 23.925781 25.988281 L 23.925781 27.382812 L 18.96875 27.382812 C 16.332031 27.382812 14.09375 29.300781 13.6875 31.902344 C 13.28125 34.503906 14.835938 37.015625 17.34375 37.8125 C 19.855469 38.609375 22.570312 37.460938 23.746094 35.101562 L 24.652344 35.101562 C 25.824219 37.460938 28.542969 38.609375 31.050781 37.8125 C 33.5625 37.015625 35.117188 34.503906 34.710938 31.902344 C 34.304688 29.300781 32.0625 27.382812 29.429688 27.382812 Z M 20.332031 33.074219 L 19.386719 33.074219 L 19.386719 34.066406 C 19.382812 34.335938 19.164062 34.554688 18.890625 34.558594 L 18.75 34.558594 C 18.480469 34.554688 18.261719 34.335938 18.261719 34.066406 L 18.261719 33.074219 L 17.25 33.074219 C 16.980469 33.070312 16.757812 32.851562 16.753906 32.578125 L 16.753906 32.414062 C 16.757812 32.144531 16.980469 31.929688 17.25 31.929688 L 18.226562 31.929688 L 18.226562 30.996094 C 18.226562 30.726562 18.445312 30.507812 18.710938 30.507812 L 18.878906 30.507812 C 19.148438 30.507812 19.367188 30.726562 19.371094 30.996094 L 19.371094 31.929688 L 20.316406 31.929688 C 20.585938 31.929688 20.804688 32.144531 20.804688 32.414062 L 20.804688 32.578125 C 20.804688 32.84375 20.597656 33.0625 20.332031 33.074219 Z M 25.296875 31.898438 C 25.292969 32.15625 25.082031 32.363281 24.824219 32.363281 L 23.65625 32.363281 C 23.398438 32.363281 23.1875 32.15625 23.183594 31.898438 L 23.183594 31.742188 C 23.183594 31.480469 23.394531 31.265625 23.65625 31.265625 L 24.824219 31.265625 C 25.085938 31.265625 25.296875 31.480469 25.296875 31.742188 Z M 28.5 33.074219 C 28.289062 33.296875 27.960938 33.367188 27.679688 33.253906 C 27.394531 33.140625 27.207031 32.863281 27.207031 32.558594 C 27.207031 32.25 27.394531 31.976562 27.679688 31.863281 C 27.960938 31.746094 28.289062 31.816406 28.5 32.039062 C 28.777344 32.328125 28.777344 32.785156 28.5 33.074219 Z M 29.015625 30.433594 C 29.230469 30.210938 29.554688 30.140625 29.839844 30.257812 C 30.125 30.371094 30.3125 30.644531 30.3125 30.953125 C 30.3125 31.257812 30.125 31.535156 29.839844 31.648438 C 29.554688 31.761719 29.230469 31.691406 29.015625 31.46875 C 28.734375 31.1875 28.726562 30.730469 28.996094 30.433594 Z M 30.105469 34.628906 C 29.816406 34.90625 29.359375 34.90625 29.070312 34.628906 C 28.847656 34.417969 28.777344 34.089844 28.890625 33.804688 C 29.003906 33.523438 29.28125 33.335938 29.585938 33.335938 C 29.894531 33.335938 30.171875 33.523438 30.285156 33.804688 C 30.398438 34.089844 30.328125 34.417969 30.105469 34.628906 Z M 31.632812 33 C 31.421875 33.21875 31.097656 33.289062 30.8125 33.175781 C 30.53125 33.058594 30.34375 32.785156 30.34375 32.476562 C 30.34375 32.171875 30.53125 31.898438 30.8125 31.78125 C 31.097656 31.667969 31.421875 31.738281 31.632812 31.957031 C 31.914062 32.25 31.914062 32.710938 31.632812 33 Z M 31.632812 33 "/>
</g>
</svg>
