
<svg xmlns="http://www.w3.org/2000/svg" xmlns:xlink="http://www.w3.org/1999/xlink" width="48px" height="48px" viewBox="0 0 48 48" version="1.1">
<defs>
<linearGradient id="linear0" gradientUnits="userSpaceOnUse" x1="32" y1="3.8" x2="32" y2="23.49" gradientTransform="matrix(0.75,0,0,0.75,0,0)">
<stop offset="0" style="stop-color:rgb(16.078431%,71.372549%,96.470588%);stop-opacity:1;"/>
<stop offset="0.67" style="stop-color:rgb(39.607843%,45.098039%,82.745098%);stop-opacity:1;"/>
<stop offset="1" style="stop-color:rgb(49.411765%,34.117647%,76.862745%);stop-opacity:1;"/>
</linearGradient>
<linearGradient id="linear1" gradientUnits="userSpaceOnUse" x1="32" y1="60.9" x2="32" y2="18.72" gradientTransform="matrix(0.75,0,0,0.75,0,0)">
<stop offset="0" style="stop-color:rgb(86.27451%,87.058824%,88.627451%);stop-opacity:1;"/>
<stop offset="0.57" style="stop-color:rgb(87.058824%,87.843137%,89.411765%);stop-opacity:1;"/>
<stop offset="0.81" style="stop-color:rgb(89.803922%,90.588235%,91.764706%);stop-opacity:1;"/>
<stop offset="0.99" style="stop-color:rgb(94.901961%,95.294118%,95.686275%);stop-opacity:1;"/>
<stop offset="1" style="stop-color:rgb(95.294118%,95.686275%,96.078431%);stop-opacity:1;"/>
</linearGradient>
<linearGradient id="linear2" gradientUnits="userSpaceOnUse" x1="29.32" y1="51.64" x2="29.32" y2="28.21" gradientTransform="matrix(0.75,0,0,0.75,0,0)">
<stop offset="0" style="stop-color:rgb(75.294118%,75.294118%,75.294118%);stop-opacity:1;"/>
<stop offset="1" style="stop-color:rgb(55.686275%,55.686275%,55.686275%);stop-opacity:1;"/>
</linearGradient>
<linearGradient id="linear3" gradientUnits="userSpaceOnUse" x1="30.58" y1="51.64" x2="30.58" y2="28.21" gradientTransform="matrix(0.75,0,0,0.75,0,0)">
<stop offset="0" style="stop-color:rgb(75.294118%,75.294118%,75.294118%);stop-opacity:1;"/>
<stop offset="1" style="stop-color:rgb(55.686275%,55.686275%,55.686275%);stop-opacity:1;"/>
</linearGradient>
<linearGradient id="linear4" gradientUnits="userSpaceOnUse" x1="33.42" y1="51.64" x2="33.42" y2="28.21" gradientTransform="matrix(0.75,0,0,0.75,0,0)">
<stop offset="0" style="stop-color:rgb(75.294118%,75.294118%,75.294118%);stop-opacity:1;"/>
<stop offset="1" style="stop-color:rgb(55.686275%,55.686275%,55.686275%);stop-opacity:1;"/>
</linearGradient>
<linearGradient id="linear5" gradientUnits="userSpaceOnUse" x1="30.58" y1="51.64" x2="30.58" y2="28.21" gradientTransform="matrix(0.75,0,0,0.75,0,0)">
<stop offset="0" style="stop-color:rgb(75.294118%,75.294118%,75.294118%);stop-opacity:1;"/>
<stop offset="1" style="stop-color:rgb(55.686275%,55.686275%,55.686275%);stop-opacity:1;"/>
</linearGradient>
<linearGradient id="linear6" gradientUnits="userSpaceOnUse" x1="30.58" y1="51.64" x2="30.58" y2="28.21" gradientTransform="matrix(0.75,0,0,0.75,0,0)">
<stop offset="0" style="stop-color:rgb(75.294118%,75.294118%,75.294118%);stop-opacity:1;"/>
<stop offset="1" style="stop-color:rgb(55.686275%,55.686275%,55.686275%);stop-opacity:1;"/>
</linearGradient>
<linearGradient id="linear7" gradientUnits="userSpaceOnUse" x1="30.58" y1="51.64" x2="30.58" y2="28.21" gradientTransform="matrix(0.75,0,0,0.75,0,0)">
<stop offset="0" style="stop-color:rgb(75.294118%,75.294118%,75.294118%);stop-opacity:1;"/>
<stop offset="1" style="stop-color:rgb(55.686275%,55.686275%,55.686275%);stop-opacity:1;"/>
</linearGradient>
<linearGradient id="linear8" gradientUnits="userSpaceOnUse" x1="29.08" y1="51.64" x2="29.08" y2="28.21" gradientTransform="matrix(0.75,0,0,0.75,0,0)">
<stop offset="0" style="stop-color:rgb(75.294118%,75.294118%,75.294118%);stop-opacity:1;"/>
<stop offset="1" style="stop-color:rgb(55.686275%,55.686275%,55.686275%);stop-opacity:1;"/>
</linearGradient>
<linearGradient id="linear9" gradientUnits="userSpaceOnUse" x1="33.59" y1="51.64" x2="33.59" y2="28.21" gradientTransform="matrix(0.75,0,0,0.75,0,0)">
<stop offset="0" style="stop-color:rgb(75.294118%,75.294118%,75.294118%);stop-opacity:1;"/>
<stop offset="1" style="stop-color:rgb(55.686275%,55.686275%,55.686275%);stop-opacity:1;"/>
</linearGradient>
<linearGradient id="linear10" gradientUnits="userSpaceOnUse" x1="27.57" y1="51.64" x2="27.57" y2="28.21" gradientTransform="matrix(0.75,0,0,0.75,0,0)">
<stop offset="0" style="stop-color:rgb(75.294118%,75.294118%,75.294118%);stop-opacity:1;"/>
<stop offset="1" style="stop-color:rgb(55.686275%,55.686275%,55.686275%);stop-opacity:1;"/>
</linearGradient>
</defs>
<g id="surface1">
<path style=" stroke:none;fill-rule:nonzero;fill:url(#linear0);" d="M 48 15.984375 C 47.996094 13.859375 46.273438 12.140625 44.152344 12.140625 L 31.085938 12.140625 C 28.417969 12.144531 26.234375 10.007812 26.183594 7.335938 C 26.222656 4.617188 24.058594 2.375 21.335938 2.324219 L 2.535156 2.324219 C 1.136719 2.324219 0 3.460938 0 4.859375 L 0 17.566406 L 48 17.566406 Z M 48 15.984375 "/>
<path style=" stroke:none;fill-rule:nonzero;fill:url(#linear1);" d="M 44.152344 14.039062 L 3.847656 14.039062 C 1.722656 14.039062 0 15.761719 0 17.886719 L 0 41.835938 C 0.00390625 43.957031 1.726562 45.675781 3.847656 45.675781 L 44.152344 45.675781 C 46.273438 45.675781 47.996094 43.957031 48 41.835938 L 48 17.886719 C 48 15.761719 46.277344 14.039062 44.152344 14.039062 Z M 44.152344 14.039062 "/>
<path style=" stroke:none;fill-rule:nonzero;fill:url(#linear2);" d="M 21.644531 21.570312 C 21.359375 21.570312 21.128906 21.800781 21.128906 22.085938 C 21.128906 22.375 21.359375 22.605469 21.644531 22.605469 L 22.84375 22.605469 C 22.820312 22.433594 22.808594 22.261719 22.808594 22.085938 C 22.808594 21.914062 22.820312 21.742188 22.84375 21.570312 Z M 21.644531 21.570312 "/>
<path style=" stroke:none;fill-rule:nonzero;fill:url(#linear3);" d="M 29.382812 36.914062 L 29.382812 22.085938 C 29.382812 21.800781 29.152344 21.570312 28.867188 21.570312 L 26.160156 21.570312 C 25.875 21.570312 25.640625 21.800781 25.640625 22.085938 C 25.640625 22.375 25.875 22.605469 26.160156 22.605469 L 28.351562 22.605469 L 28.351562 36.40625 L 17.519531 36.40625 L 17.519531 22.605469 L 18.328125 22.605469 C 18.304688 22.433594 18.292969 22.261719 18.292969 22.085938 C 18.292969 21.914062 18.304688 21.742188 18.328125 21.570312 L 17.003906 21.570312 C 16.71875 21.570312 16.484375 21.800781 16.484375 22.085938 L 16.484375 36.914062 C 16.484375 37.203125 16.71875 37.433594 17.003906 37.433594 L 28.867188 37.433594 C 29.152344 37.433594 29.382812 37.203125 29.382812 36.914062 Z M 29.382812 36.914062 "/>
<path style=" stroke:none;fill-rule:nonzero;fill:url(#linear4);" d="M 30.996094 23.699219 C 30.710938 23.699219 30.480469 23.929688 30.480469 24.21875 L 30.480469 38.527344 L 19.132812 38.527344 C 18.847656 38.527344 18.617188 38.757812 18.617188 39.046875 C 18.617188 39.332031 18.847656 39.5625 19.132812 39.5625 L 30.996094 39.5625 C 31.28125 39.5625 31.515625 39.332031 31.515625 39.046875 L 31.515625 24.21875 C 31.515625 23.929688 31.28125 23.699219 30.996094 23.699219 Z M 30.996094 23.699219 "/>
<path style=" stroke:none;fill-rule:nonzero;fill:url(#linear5);" d="M 19.710938 27.246094 L 26.160156 27.246094 C 26.445312 27.246094 26.679688 27.015625 26.679688 26.730469 C 26.679688 26.445312 26.445312 26.210938 26.160156 26.210938 L 19.710938 26.210938 C 19.425781 26.210938 19.191406 26.445312 19.191406 26.730469 C 19.191406 27.015625 19.425781 27.246094 19.710938 27.246094 Z M 19.710938 27.246094 "/>
<path style=" stroke:none;fill-rule:nonzero;fill:url(#linear6);" d="M 19.710938 29.566406 L 26.160156 29.566406 C 26.445312 29.566406 26.679688 29.332031 26.679688 29.046875 C 26.679688 28.910156 26.621094 28.78125 26.523438 28.683594 C 26.429688 28.585938 26.296875 28.535156 26.160156 28.539062 L 19.710938 28.539062 C 19.574219 28.535156 19.441406 28.585938 19.34375 28.683594 C 19.246094 28.78125 19.191406 28.910156 19.191406 29.046875 C 19.191406 29.332031 19.425781 29.566406 19.710938 29.566406 Z M 19.710938 29.566406 "/>
<path style=" stroke:none;fill-rule:nonzero;fill:url(#linear7);" d="M 19.710938 31.890625 L 26.160156 31.890625 C 26.445312 31.890625 26.679688 31.65625 26.679688 31.371094 C 26.679688 31.085938 26.445312 30.855469 26.160156 30.855469 L 19.710938 30.855469 C 19.425781 30.855469 19.191406 31.085938 19.191406 31.371094 C 19.191406 31.65625 19.425781 31.890625 19.710938 31.890625 Z M 19.710938 31.890625 "/>
<path style=" stroke:none;fill-rule:nonzero;fill:url(#linear8);" d="M 19.710938 34.207031 L 23.917969 34.207031 C 24.054688 34.207031 24.183594 34.152344 24.28125 34.054688 C 24.375 33.957031 24.429688 33.828125 24.429688 33.691406 C 24.429688 33.554688 24.375 33.421875 24.28125 33.328125 C 24.183594 33.230469 24.054688 33.175781 23.917969 33.179688 L 19.710938 33.179688 C 19.574219 33.179688 19.441406 33.230469 19.34375 33.328125 C 19.246094 33.421875 19.191406 33.554688 19.191406 33.691406 C 19.191406 33.976562 19.425781 34.207031 19.710938 34.207031 Z M 19.710938 34.207031 "/>
<path style=" stroke:none;fill-rule:nonzero;fill:url(#linear9);" d="M 26.160156 24.539062 C 26.445312 24.539062 26.679688 24.308594 26.679688 24.023438 C 26.679688 23.738281 26.445312 23.503906 26.160156 23.503906 C 25.578125 23.503906 25.054688 23.144531 24.839844 22.605469 C 24.777344 22.441406 24.742188 22.265625 24.742188 22.085938 C 24.742188 21.910156 24.777344 21.734375 24.839844 21.570312 C 25.054688 21.027344 25.578125 20.671875 26.160156 20.671875 C 26.445312 20.671875 26.679688 20.4375 26.679688 20.152344 C 26.679688 19.867188 26.445312 19.632812 26.160156 19.632812 C 25.007812 19.632812 24.007812 20.441406 23.765625 21.570312 C 23.726562 21.738281 23.707031 21.914062 23.707031 22.085938 C 23.71875 23.4375 24.808594 24.527344 26.160156 24.539062 Z M 26.160156 24.539062 "/>
<path style=" stroke:none;fill-rule:nonzero;fill:url(#linear10);" d="M 21.644531 24.539062 C 21.929688 24.539062 22.164062 24.308594 22.164062 24.023438 C 22.164062 23.738281 21.929688 23.503906 21.644531 23.503906 C 21.0625 23.503906 20.539062 23.144531 20.324219 22.605469 C 20.261719 22.441406 20.230469 22.265625 20.226562 22.085938 C 20.230469 21.910156 20.261719 21.734375 20.324219 21.570312 C 20.539062 21.027344 21.0625 20.671875 21.644531 20.671875 C 21.929688 20.671875 22.164062 20.4375 22.164062 20.152344 C 22.164062 19.867188 21.929688 19.632812 21.644531 19.632812 C 20.492188 19.640625 19.5 20.445312 19.253906 21.570312 C 19.214844 21.738281 19.191406 21.914062 19.191406 22.085938 C 19.203125 23.4375 20.296875 24.527344 21.644531 24.539062 Z M 21.644531 24.539062 "/>
</g>
</svg>
