
<svg xmlns="http://www.w3.org/2000/svg" xmlns:xlink="http://www.w3.org/1999/xlink" width="48px" height="48px" viewBox="0 0 48 48" version="1.1">
<defs>
<linearGradient id="linear0" gradientUnits="userSpaceOnUse" x1="32" y1="3.8" x2="32" y2="23.49" gradientTransform="matrix(0.75,0,0,0.75,0,0)">
<stop offset="0" style="stop-color:rgb(16.078431%,71.372549%,96.470588%);stop-opacity:1;"/>
<stop offset="0.67" style="stop-color:rgb(39.607843%,45.098039%,82.745098%);stop-opacity:1;"/>
<stop offset="1" style="stop-color:rgb(49.411765%,34.117647%,76.862745%);stop-opacity:1;"/>
</linearGradient>
<linearGradient id="linear1" gradientUnits="userSpaceOnUse" x1="32" y1="60.9" x2="32" y2="18.72" gradientTransform="matrix(0.75,0,0,0.75,0,0)">
<stop offset="0" style="stop-color:rgb(86.27451%,87.058824%,88.627451%);stop-opacity:1;"/>
<stop offset="0.57" style="stop-color:rgb(87.058824%,87.843137%,89.411765%);stop-opacity:1;"/>
<stop offset="0.81" style="stop-color:rgb(89.803922%,90.588235%,91.764706%);stop-opacity:1;"/>
<stop offset="0.99" style="stop-color:rgb(94.901961%,95.294118%,95.686275%);stop-opacity:1;"/>
<stop offset="1" style="stop-color:rgb(95.294118%,95.686275%,96.078431%);stop-opacity:1;"/>
</linearGradient>
<linearGradient id="linear2" gradientUnits="userSpaceOnUse" x1="32" y1="32.39" x2="32" y2="50.79" gradientTransform="matrix(0.75,0,0,0.75,0,0)">
<stop offset="0" style="stop-color:rgb(55.686275%,55.686275%,55.686275%);stop-opacity:1;"/>
<stop offset="1" style="stop-color:rgb(75.294118%,75.294118%,75.294118%);stop-opacity:1;"/>
</linearGradient>
</defs>
<g id="surface1">
<path style=" stroke:none;fill-rule:nonzero;fill:url(#linear0);" d="M 48 15.984375 C 47.996094 13.859375 46.273438 12.140625 44.152344 12.140625 L 31.085938 12.140625 C 28.417969 12.144531 26.234375 10.007812 26.183594 7.335938 C 26.222656 4.617188 24.058594 2.375 21.335938 2.324219 L 2.535156 2.324219 C 1.136719 2.324219 0 3.460938 0 4.859375 L 0 17.566406 L 48 17.566406 Z M 48 15.984375 "/>
<path style=" stroke:none;fill-rule:nonzero;fill:url(#linear1);" d="M 44.152344 14.039062 L 3.847656 14.039062 C 1.722656 14.039062 0 15.761719 0 17.886719 L 0 41.835938 C 0.00390625 43.957031 1.726562 45.675781 3.847656 45.675781 L 44.152344 45.675781 C 46.273438 45.675781 47.996094 43.957031 48 41.835938 L 48 17.886719 C 48 15.761719 46.277344 14.039062 44.152344 14.039062 Z M 44.152344 14.039062 "/>
<path style=" stroke:none;fill-rule:nonzero;fill:url(#linear2);" d="M 31.941406 36.457031 L 31.941406 25.207031 C 31.941406 23.402344 30.480469 21.9375 28.671875 21.9375 L 23.039062 21.9375 C 21.234375 21.941406 19.773438 23.402344 19.769531 25.207031 L 19.769531 32.144531 C 19.410156 31.992188 19.019531 31.914062 18.628906 31.914062 C 17.316406 31.804688 16.160156 32.769531 16.027344 34.078125 C 16.160156 35.390625 17.316406 36.355469 18.628906 36.246094 C 19.941406 36.351562 21.09375 35.390625 21.226562 34.078125 C 21.226562 34.042969 21.226562 34.011719 21.226562 33.984375 L 21.226562 26.484375 C 21.226562 25.742188 21.828125 25.140625 22.566406 25.140625 L 29.136719 25.140625 C 29.875 25.144531 30.472656 25.746094 30.472656 26.484375 L 30.472656 34.710938 C 30.121094 34.570312 29.75 34.5 29.371094 34.5 C 28.0625 34.390625 26.90625 35.351562 26.773438 36.660156 C 26.902344 37.96875 28.058594 38.9375 29.371094 38.828125 C 30.683594 38.9375 31.839844 37.972656 31.972656 36.660156 C 31.964844 36.59375 31.957031 36.523438 31.941406 36.457031 Z M 31.941406 36.457031 "/>
</g>
</svg>
