
<svg xmlns="http://www.w3.org/2000/svg" xmlns:xlink="http://www.w3.org/1999/xlink" width="48px" height="48px" viewBox="0 0 48 48" version="1.1">
<defs>
<linearGradient id="linear0" gradientUnits="userSpaceOnUse" x1="32" y1="3.8" x2="32" y2="23.49" gradientTransform="matrix(0.75,0,0,0.75,0,0)">
<stop offset="0" style="stop-color:rgb(16.078431%,71.372549%,96.470588%);stop-opacity:1;"/>
<stop offset="0.67" style="stop-color:rgb(39.607843%,45.098039%,82.745098%);stop-opacity:1;"/>
<stop offset="1" style="stop-color:rgb(49.411765%,34.117647%,76.862745%);stop-opacity:1;"/>
</linearGradient>
<linearGradient id="linear1" gradientUnits="userSpaceOnUse" x1="32" y1="60.9" x2="32" y2="18.72" gradientTransform="matrix(0.75,0,0,0.75,0,0)">
<stop offset="0" style="stop-color:rgb(86.27451%,87.058824%,88.627451%);stop-opacity:1;"/>
<stop offset="0.57" style="stop-color:rgb(87.058824%,87.843137%,89.411765%);stop-opacity:1;"/>
<stop offset="0.81" style="stop-color:rgb(89.803922%,90.588235%,91.764706%);stop-opacity:1;"/>
<stop offset="0.99" style="stop-color:rgb(94.901961%,95.294118%,95.686275%);stop-opacity:1;"/>
<stop offset="1" style="stop-color:rgb(95.294118%,95.686275%,96.078431%);stop-opacity:1;"/>
</linearGradient>
<linearGradient id="linear2" gradientUnits="userSpaceOnUse" x1="32" y1="52.36" x2="32" y2="27.36" gradientTransform="matrix(0.75,0,0,0.75,0,0)">
<stop offset="0" style="stop-color:rgb(75.294118%,75.294118%,75.294118%);stop-opacity:1;"/>
<stop offset="1" style="stop-color:rgb(55.686275%,55.686275%,55.686275%);stop-opacity:1;"/>
</linearGradient>
</defs>
<g id="surface1">
<path style=" stroke:none;fill-rule:nonzero;fill:url(#linear0);" d="M 48 15.984375 C 47.996094 13.859375 46.273438 12.140625 44.152344 12.140625 L 31.085938 12.140625 C 28.417969 12.144531 26.234375 10.007812 26.183594 7.335938 C 26.222656 4.617188 24.058594 2.375 21.335938 2.324219 L 2.535156 2.324219 C 1.136719 2.324219 0 3.460938 0 4.859375 L 0 17.566406 L 48 17.566406 Z M 48 15.984375 "/>
<path style=" stroke:none;fill-rule:nonzero;fill:url(#linear1);" d="M 44.152344 14.039062 L 3.847656 14.039062 C 1.722656 14.039062 0 15.761719 0 17.886719 L 0 41.835938 C 0.00390625 43.957031 1.726562 45.675781 3.847656 45.675781 L 44.152344 45.675781 C 46.273438 45.675781 47.996094 43.957031 48 41.835938 L 48 17.886719 C 48 15.761719 46.277344 14.039062 44.152344 14.039062 Z M 44.152344 14.039062 "/>
<path style=" stroke:none;fill-rule:nonzero;fill:url(#linear2);" d="M 24.269531 39.269531 L 23.78125 39.269531 C 23.40625 39.234375 23.058594 39.050781 22.816406 38.757812 C 20.269531 36.203125 17.71875 33.65625 15.164062 31.109375 C 14.882812 30.882812 14.691406 30.566406 14.625 30.210938 L 14.625 29.570312 C 14.679688 29.21875 14.859375 28.898438 15.128906 28.664062 C 16.777344 27.035156 18.417969 25.398438 20.046875 23.753906 L 20.324219 23.476562 C 20.570312 23.234375 20.625 23.234375 20.867188 23.476562 L 22.648438 25.257812 C 22.789062 25.378906 22.84375 25.5625 22.800781 25.742188 C 22.625 26.332031 22.898438 26.964844 23.453125 27.242188 C 23.570312 27.316406 23.632812 27.453125 23.609375 27.59375 L 23.609375 29.699219 C 23.609375 30.578125 23.609375 31.460938 23.609375 32.339844 C 23.632812 32.535156 23.53125 32.726562 23.355469 32.8125 C 22.882812 33.097656 22.652344 33.65625 22.785156 34.191406 C 22.910156 34.742188 23.382812 35.148438 23.945312 35.1875 C 24.511719 35.230469 25.035156 34.898438 25.242188 34.375 C 25.449219 33.847656 25.289062 33.246094 24.847656 32.894531 C 24.625 32.753906 24.503906 32.496094 24.53125 32.234375 C 24.53125 30.78125 24.53125 29.316406 24.53125 27.855469 C 24.53125 27.710938 24.464844 27.523438 24.628906 27.449219 C 24.796875 27.375 24.890625 27.570312 24.996094 27.675781 C 25.492188 28.15625 25.972656 28.65625 26.496094 29.175781 C 26.683594 29.324219 26.757812 29.570312 26.691406 29.796875 C 26.570312 30.417969 26.921875 31.035156 27.515625 31.246094 C 28.097656 31.453125 28.746094 31.222656 29.0625 30.691406 C 29.382812 30.160156 29.277344 29.476562 28.808594 29.070312 C 28.527344 28.808594 28.136719 28.695312 27.757812 28.769531 C 27.550781 28.820312 27.332031 28.746094 27.203125 28.574219 L 25.46875 26.84375 C 25.34375 26.730469 25.285156 26.558594 25.3125 26.390625 C 25.394531 25.976562 25.265625 25.542969 24.964844 25.242188 C 24.664062 24.941406 24.230469 24.808594 23.8125 24.890625 C 23.644531 24.917969 23.476562 24.859375 23.363281 24.734375 L 21.523438 22.898438 C 21.300781 22.664062 21.300781 22.613281 21.523438 22.371094 C 21.953125 21.945312 22.394531 21.53125 22.800781 21.089844 C 23.027344 20.804688 23.355469 20.625 23.714844 20.585938 L 24.300781 20.585938 C 24.652344 20.632812 24.972656 20.808594 25.199219 21.082031 C 27.753906 23.65625 30.320312 26.21875 32.894531 28.769531 C 33.179688 29.015625 33.363281 29.363281 33.40625 29.738281 L 33.40625 30.226562 C 33.363281 30.625 33.160156 30.996094 32.84375 31.246094 C 30.34375 33.746094 27.84375 36.246094 25.34375 38.746094 C 25.066406 39.054688 24.683594 39.242188 24.269531 39.269531 Z M 24.269531 39.269531 "/>
</g>
</svg>
