
<svg xmlns="http://www.w3.org/2000/svg" xmlns:xlink="http://www.w3.org/1999/xlink" width="48px" height="48px" viewBox="0 0 48 48" version="1.1">
<g id="surface1">
<path style=" stroke:none;fill-rule:nonzero;fill:rgb(100%,100%,100%);fill-opacity:1;" d="M 34.359375 12.75 C 33.414062 12.109375 32.140625 12.246094 31.359375 13.078125 L 26.859375 17.578125 C 25.980469 18.457031 25.980469 19.882812 26.859375 20.761719 C 27.28125 21.183594 27.851562 21.421875 28.453125 21.421875 C 29.050781 21.421875 29.621094 21.183594 30.046875 20.761719 L 34.648438 16.199219 C 35.128906 15.730469 35.371094 15.074219 35.3125 14.40625 C 35.257812 13.738281 34.90625 13.132812 34.359375 12.75 Z M 34.359375 12.75 "/>
<path style=" stroke:none;fill-rule:nonzero;fill:rgb(100%,100%,100%);fill-opacity:1;" d="M 19.171875 23.609375 C 18.9375 22.507812 17.957031 21.726562 16.828125 21.75 L 5.578125 21.75 C 4.335938 21.75 3.328125 22.757812 3.328125 24 C 3.328125 25.242188 4.335938 26.25 5.578125 26.25 L 16.949219 26.25 C 17.617188 26.25 18.246094 25.957031 18.675781 25.449219 C 19.105469 24.9375 19.285156 24.265625 19.171875 23.609375 Z M 19.171875 23.609375 "/>
<path style=" stroke:none;fill-rule:nonzero;fill:rgb(100%,100%,100%);fill-opacity:1;" d="M 23.765625 21.292969 C 25.277344 21.378906 26.433594 22.667969 26.347656 24.179688 C 26.265625 25.6875 24.972656 26.84375 23.464844 26.761719 C 21.953125 26.675781 20.796875 25.382812 20.882812 23.875 C 20.964844 22.367188 22.257812 21.210938 23.765625 21.292969 Z M 23.765625 21.292969 "/>
<path style=" stroke:none;fill-rule:nonzero;fill:rgb(100%,100%,100%);fill-opacity:1;" d="M 40.613281 7.011719 C 31.40625 -2.1875 16.542969 -2.371094 7.109375 6.601562 L 6.808594 6.898438 L 6.667969 7.027344 L 6.609375 7.101562 L 0.699219 12.984375 C 0.378906 13.296875 0.277344 13.769531 0.441406 14.1875 C 0.605469 14.601562 1 14.882812 1.449219 14.894531 L 12.699219 14.894531 C 13.144531 14.882812 13.539062 14.601562 13.703125 14.1875 C 13.867188 13.769531 13.765625 13.296875 13.449219 12.984375 L 10.246094 9.789062 C 18.039062 2.46875 30.273438 2.792969 37.667969 10.511719 C 45.066406 18.230469 44.871094 30.464844 37.230469 37.941406 C 29.585938 45.417969 17.351562 45.347656 9.796875 37.785156 C 8.917969 36.90625 7.492188 36.902344 6.609375 37.78125 C 5.730469 38.660156 5.730469 40.085938 6.609375 40.964844 C 15.984375 50.355469 31.195312 50.367188 40.585938 40.992188 C 49.976562 31.617188 49.988281 16.402344 40.613281 7.011719 Z M 40.613281 7.011719 "/>
</g>
</svg>
