
<svg xmlns="http://www.w3.org/2000/svg" xmlns:xlink="http://www.w3.org/1999/xlink" width="48px" height="48px" viewBox="0 0 48 48" version="1.1">
<defs>
<linearGradient id="linear0" gradientUnits="userSpaceOnUse" x1="32" y1="3.8" x2="32" y2="23.49" gradientTransform="matrix(0.75,0,0,0.75,0,0)">
<stop offset="0" style="stop-color:rgb(16.078431%,71.372549%,96.470588%);stop-opacity:1;"/>
<stop offset="0.67" style="stop-color:rgb(39.607843%,45.098039%,82.745098%);stop-opacity:1;"/>
<stop offset="1" style="stop-color:rgb(49.411765%,34.117647%,76.862745%);stop-opacity:1;"/>
</linearGradient>
<linearGradient id="linear1" gradientUnits="userSpaceOnUse" x1="32" y1="60.9" x2="32" y2="18.72" gradientTransform="matrix(0.75,0,0,0.75,0,0)">
<stop offset="0" style="stop-color:rgb(86.27451%,87.058824%,88.627451%);stop-opacity:1;"/>
<stop offset="0.57" style="stop-color:rgb(87.058824%,87.843137%,89.411765%);stop-opacity:1;"/>
<stop offset="0.81" style="stop-color:rgb(89.803922%,90.588235%,91.764706%);stop-opacity:1;"/>
<stop offset="0.99" style="stop-color:rgb(94.901961%,95.294118%,95.686275%);stop-opacity:1;"/>
<stop offset="1" style="stop-color:rgb(95.294118%,95.686275%,96.078431%);stop-opacity:1;"/>
</linearGradient>
<linearGradient id="linear2" gradientUnits="userSpaceOnUse" x1="32" y1="32.9" x2="32" y2="49.02" gradientTransform="matrix(0.75,0,0,0.75,0,0)">
<stop offset="0" style="stop-color:rgb(55.686275%,55.686275%,55.686275%);stop-opacity:1;"/>
<stop offset="1" style="stop-color:rgb(75.294118%,75.294118%,75.294118%);stop-opacity:1;"/>
</linearGradient>
<linearGradient id="linear3" gradientUnits="userSpaceOnUse" x1="32" y1="32.9" x2="32" y2="49.02" gradientTransform="matrix(0.75,0,0,0.75,0,0)">
<stop offset="0" style="stop-color:rgb(55.686275%,55.686275%,55.686275%);stop-opacity:1;"/>
<stop offset="1" style="stop-color:rgb(75.294118%,75.294118%,75.294118%);stop-opacity:1;"/>
</linearGradient>
</defs>
<g id="surface1">
<path style=" stroke:none;fill-rule:nonzero;fill:url(#linear0);" d="M 48 15.984375 C 47.996094 13.859375 46.273438 12.140625 44.152344 12.140625 L 31.085938 12.140625 C 28.417969 12.144531 26.234375 10.007812 26.183594 7.335938 C 26.222656 4.617188 24.058594 2.375 21.335938 2.324219 L 2.535156 2.324219 C 1.136719 2.324219 0 3.460938 0 4.859375 L 0 17.566406 L 48 17.566406 Z M 48 15.984375 "/>
<path style=" stroke:none;fill-rule:nonzero;fill:url(#linear1);" d="M 44.152344 14.039062 L 3.847656 14.039062 C 1.722656 14.039062 0 15.761719 0 17.886719 L 0 41.835938 C 0.00390625 43.957031 1.726562 45.675781 3.847656 45.675781 L 44.152344 45.675781 C 46.273438 45.675781 47.996094 43.957031 48 41.835938 L 48 17.886719 C 48 15.761719 46.277344 14.039062 44.152344 14.039062 Z M 44.152344 14.039062 "/>
<path style=" stroke:none;fill-rule:nonzero;fill:url(#linear2);" d="M 29.648438 37.335938 L 18.351562 37.335938 C 16.726562 37.335938 15.410156 36.019531 15.40625 34.394531 L 15.40625 31.066406 C 15.40625 30.632812 15.753906 30.285156 16.183594 30.285156 C 16.617188 30.285156 16.964844 30.632812 16.964844 31.066406 L 16.964844 34.394531 C 16.964844 35.160156 17.585938 35.78125 18.351562 35.78125 L 29.648438 35.78125 C 30.414062 35.78125 31.035156 35.160156 31.035156 34.394531 L 31.035156 31.066406 C 31.035156 30.632812 31.382812 30.285156 31.816406 30.285156 C 32.246094 30.285156 32.59375 30.632812 32.59375 31.066406 L 32.59375 34.394531 C 32.589844 36.019531 31.273438 37.335938 29.648438 37.335938 Z M 29.648438 37.335938 "/>
<path style=" stroke:none;fill-rule:nonzero;fill:url(#linear3);" d="M 24 34.183594 C 23.726562 34.1875 23.457031 34.089844 23.25 33.90625 L 17.738281 29.0625 C 17.382812 28.75 17.261719 28.253906 17.429688 27.816406 C 17.585938 27.371094 18.007812 27.070312 18.480469 27.066406 L 19.898438 27.066406 L 19.898438 23.316406 C 19.898438 22.886719 20.246094 22.539062 20.679688 22.539062 C 21.109375 22.539062 21.457031 22.886719 21.457031 23.316406 L 21.457031 27.503906 C 21.453125 28.121094 20.949219 28.621094 20.332031 28.621094 L 19.632812 28.621094 L 24 32.492188 L 28.359375 28.648438 L 27.660156 28.648438 C 27.042969 28.648438 26.542969 28.148438 26.542969 27.53125 L 26.542969 23.347656 C 26.542969 22.917969 26.890625 22.570312 27.320312 22.570312 C 27.746094 22.570312 28.09375 22.917969 28.09375 23.347656 L 28.09375 27.097656 L 29.511719 27.097656 C 29.980469 27.097656 30.398438 27.386719 30.566406 27.820312 C 30.734375 28.257812 30.609375 28.75 30.261719 29.0625 L 24.75 33.90625 C 24.542969 34.089844 24.273438 34.1875 24 34.183594 Z M 23.714844 32.738281 Z M 23.714844 32.738281 "/>
</g>
</svg>
