<svg id="레이어_1" data-name="레이어 1" xmlns="http://www.w3.org/2000/svg" xmlns:xlink="http://www.w3.org/1999/xlink" viewBox="0 0 64 64"><defs><style>.cls-1{fill:url(#무제_그라디언트_38);}.cls-2{fill:url(#무제_그라디언트_4);}.cls-3{fill:url(#무제_그라디언트_7);}</style><linearGradient id="무제_그라디언트_38" x1="32" y1="3.8" x2="32" y2="23.49" gradientUnits="userSpaceOnUse"><stop offset="0" stop-color="#29b6f6"/><stop offset="0.67" stop-color="#6573d3"/><stop offset="1" stop-color="#7e57c4"/></linearGradient><linearGradient id="무제_그라디언트_4" x1="32" y1="60.9" x2="32" y2="18.72" gradientUnits="userSpaceOnUse"><stop offset="0" stop-color="#dcdee2"/><stop offset="0.57" stop-color="#dee0e4"/><stop offset="0.81" stop-color="#e5e7ea"/><stop offset="0.99" stop-color="#f2f3f4"/><stop offset="1" stop-color="#f3f4f5"/></linearGradient><linearGradient id="무제_그라디언트_7" x1="32" y1="51.31" x2="32" y2="28.79" gradientUnits="userSpaceOnUse"><stop offset="0" stop-color="silver"/><stop offset="1" stop-color="#8e8e8e"/></linearGradient></defs><title>잠금</title><path class="cls-1" d="M64,21.31a5.13,5.13,0,0,0-5.13-5.12H41.45a6.54,6.54,0,0,1-6.54-6.41A6.58,6.58,0,0,0,28.45,3.1H3.38A3.38,3.38,0,0,0,0,6.48V23.42H64Z"/><path class="cls-2" d="M58.87,18.72H5.13A5.13,5.13,0,0,0,0,23.85V55.78A5.13,5.13,0,0,0,5.13,60.9H58.87A5.13,5.13,0,0,0,64,55.78V23.85A5.13,5.13,0,0,0,58.87,18.72Z"/><path class="cls-3" d="M36.52,51.31h-9a3.93,3.93,0,0,1-3.93-3.92V39.81a3.93,3.93,0,0,1,3.93-3.92h5.73a1.21,1.21,0,0,1,0,2.42H27.48A1.5,1.5,0,0,0,26,39.81v7.58a1.51,1.51,0,0,0,1.51,1.51h9A1.51,1.51,0,0,0,38,47.39V39.81a1.5,1.5,0,0,0-1.51-1.5h-1.2v-5a2.16,2.16,0,0,0-2.16-2.16H31.75a2.16,2.16,0,0,0-2.16,2.16v.5a1.21,1.21,0,0,1-2.42,0v-.5a4.58,4.58,0,0,1,4.58-4.57h1.41a4.58,4.58,0,0,1,4.57,4.57v2.72a3.92,3.92,0,0,1,2.72,3.73v7.58A3.93,3.93,0,0,1,36.52,51.31Z"/></svg>