
<svg xmlns="http://www.w3.org/2000/svg" xmlns:xlink="http://www.w3.org/1999/xlink" width="48px" height="48px" viewBox="0 0 48 48" version="1.1">
<defs>
<linearGradient id="linear0" gradientUnits="userSpaceOnUse" x1="32" y1="3.8" x2="32" y2="23.49" gradientTransform="matrix(0.75,0,0,0.75,0,0)">
<stop offset="0" style="stop-color:rgb(16.078431%,71.372549%,96.470588%);stop-opacity:1;"/>
<stop offset="0.67" style="stop-color:rgb(39.607843%,45.098039%,82.745098%);stop-opacity:1;"/>
<stop offset="1" style="stop-color:rgb(49.411765%,34.117647%,76.862745%);stop-opacity:1;"/>
</linearGradient>
<linearGradient id="linear1" gradientUnits="userSpaceOnUse" x1="32" y1="60.9" x2="32" y2="18.72" gradientTransform="matrix(0.75,0,0,0.75,0,0)">
<stop offset="0" style="stop-color:rgb(86.27451%,87.058824%,88.627451%);stop-opacity:1;"/>
<stop offset="0.57" style="stop-color:rgb(87.058824%,87.843137%,89.411765%);stop-opacity:1;"/>
<stop offset="0.81" style="stop-color:rgb(89.803922%,90.588235%,91.764706%);stop-opacity:1;"/>
<stop offset="0.99" style="stop-color:rgb(94.901961%,95.294118%,95.686275%);stop-opacity:1;"/>
<stop offset="1" style="stop-color:rgb(95.294118%,95.686275%,96.078431%);stop-opacity:1;"/>
</linearGradient>
<linearGradient id="linear2" gradientUnits="userSpaceOnUse" x1="32" y1="51.86" x2="32" y2="31.55" gradientTransform="matrix(0.75,0,0,0.75,0,0)">
<stop offset="0" style="stop-color:rgb(75.294118%,75.294118%,75.294118%);stop-opacity:1;"/>
<stop offset="1" style="stop-color:rgb(55.686275%,55.686275%,55.686275%);stop-opacity:1;"/>
</linearGradient>
<linearGradient id="linear3" gradientUnits="userSpaceOnUse" x1="32" y1="51.86" x2="32" y2="31.55" gradientTransform="matrix(0.75,0,0,0.75,0,0)">
<stop offset="0" style="stop-color:rgb(75.294118%,75.294118%,75.294118%);stop-opacity:1;"/>
<stop offset="1" style="stop-color:rgb(55.686275%,55.686275%,55.686275%);stop-opacity:1;"/>
</linearGradient>
</defs>
<g id="surface1">
<path style=" stroke:none;fill-rule:nonzero;fill:url(#linear0);" d="M 48 15.984375 C 47.996094 13.859375 46.273438 12.140625 44.152344 12.140625 L 31.085938 12.140625 C 28.417969 12.144531 26.234375 10.007812 26.183594 7.335938 C 26.222656 4.617188 24.058594 2.375 21.335938 2.324219 L 2.535156 2.324219 C 1.136719 2.324219 0 3.460938 0 4.859375 L 0 17.566406 L 48 17.566406 Z M 48 15.984375 "/>
<path style=" stroke:none;fill-rule:nonzero;fill:url(#linear1);" d="M 44.152344 14.039062 L 3.847656 14.039062 C 1.722656 14.039062 0 15.761719 0 17.886719 L 0 41.835938 C 0.00390625 43.957031 1.726562 45.675781 3.847656 45.675781 L 44.152344 45.675781 C 46.273438 45.675781 47.996094 43.957031 48 41.835938 L 48 17.886719 C 48 15.761719 46.277344 14.039062 44.152344 14.039062 Z M 44.152344 14.039062 "/>
<path style=" stroke:none;fill-rule:nonzero;fill:url(#linear2);" d="M 26.304688 30.488281 C 26.304688 29.214844 25.273438 28.183594 24 28.183594 C 22.730469 28.183594 21.695312 29.214844 21.695312 30.488281 C 21.695312 31.757812 22.730469 32.789062 24 32.789062 C 25.273438 32.789062 26.304688 31.757812 26.304688 30.488281 Z M 22.785156 30.488281 C 22.785156 29.816406 23.328125 29.273438 24 29.273438 C 24.671875 29.273438 25.214844 29.816406 25.214844 30.488281 C 25.214844 31.160156 24.671875 31.703125 24 31.703125 C 23.679688 31.703125 23.367188 31.578125 23.140625 31.347656 C 22.910156 31.121094 22.78125 30.808594 22.785156 30.488281 Z M 22.785156 30.488281 "/>
<path style=" stroke:none;fill-rule:nonzero;fill:url(#linear3);" d="M 24 22.238281 C 19.445312 22.238281 15.75 25.929688 15.75 30.488281 C 15.75 35.042969 19.445312 38.738281 24 38.738281 C 28.554688 38.738281 32.25 35.042969 32.25 30.488281 C 32.25 25.929688 28.554688 22.238281 24 22.238281 Z M 29.699219 30.488281 C 29.695312 33.636719 27.148438 36.1875 24 36.195312 L 24 35.578125 C 26.8125 35.574219 29.089844 33.296875 29.09375 30.488281 Z M 20.078125 30.488281 C 20.078125 28.320312 21.832031 26.566406 24 26.566406 C 26.167969 26.566406 27.921875 28.320312 27.921875 30.488281 C 27.921875 32.65625 26.167969 34.410156 24 34.410156 C 21.835938 34.40625 20.082031 32.652344 20.078125 30.488281 Z M 24 37.753906 L 24 37.148438 C 27.675781 37.144531 30.65625 34.164062 30.660156 30.488281 L 31.265625 30.488281 C 31.261719 34.5 28.011719 37.75 24 37.753906 Z M 24 37.753906 "/>
</g>
</svg>
