
<svg xmlns="http://www.w3.org/2000/svg" xmlns:xlink="http://www.w3.org/1999/xlink" width="48px" height="48px" viewBox="0 0 48 48" version="1.1">
<defs>
<linearGradient id="linear0" gradientUnits="userSpaceOnUse" x1="32" y1="60.27" x2="32" y2="4.37" gradientTransform="matrix(0.75,0,0,0.75,0,0)">
<stop offset="0" style="stop-color:rgb(92.54902%,25.098039%,47.843137%);stop-opacity:1;"/>
<stop offset="1" style="stop-color:rgb(49.411765%,34.117647%,76.862745%);stop-opacity:1;"/>
</linearGradient>
<linearGradient id="linear1" gradientUnits="userSpaceOnUse" x1="26.83" y1="31.6" x2="28.94" y2="38.82" gradientTransform="matrix(0.75,0,0,0.75,0,0)">
<stop offset="0" style="stop-color:rgb(86.27451%,87.058824%,88.627451%);stop-opacity:1;"/>
<stop offset="0.57" style="stop-color:rgb(87.058824%,87.843137%,89.411765%);stop-opacity:1;"/>
<stop offset="0.81" style="stop-color:rgb(89.803922%,90.588235%,91.764706%);stop-opacity:1;"/>
<stop offset="0.99" style="stop-color:rgb(94.901961%,95.294118%,95.686275%);stop-opacity:1;"/>
<stop offset="1" style="stop-color:rgb(95.294118%,95.686275%,96.078431%);stop-opacity:1;"/>
</linearGradient>
<linearGradient id="linear2" gradientUnits="userSpaceOnUse" x1="35.67" y1="31.6" x2="37.78" y2="38.82" gradientTransform="matrix(0.75,0,0,0.75,0,0)">
<stop offset="0" style="stop-color:rgb(86.27451%,87.058824%,88.627451%);stop-opacity:1;"/>
<stop offset="0.57" style="stop-color:rgb(87.058824%,87.843137%,89.411765%);stop-opacity:1;"/>
<stop offset="0.81" style="stop-color:rgb(89.803922%,90.588235%,91.764706%);stop-opacity:1;"/>
<stop offset="0.99" style="stop-color:rgb(94.901961%,95.294118%,95.686275%);stop-opacity:1;"/>
<stop offset="1" style="stop-color:rgb(95.294118%,95.686275%,96.078431%);stop-opacity:1;"/>
</linearGradient>
<linearGradient id="linear3" gradientUnits="userSpaceOnUse" x1="26.83" y1="40.44" x2="28.94" y2="47.66" gradientTransform="matrix(0.75,0,0,0.75,0,0)">
<stop offset="0" style="stop-color:rgb(86.27451%,87.058824%,88.627451%);stop-opacity:1;"/>
<stop offset="0.57" style="stop-color:rgb(87.058824%,87.843137%,89.411765%);stop-opacity:1;"/>
<stop offset="0.81" style="stop-color:rgb(89.803922%,90.588235%,91.764706%);stop-opacity:1;"/>
<stop offset="0.99" style="stop-color:rgb(94.901961%,95.294118%,95.686275%);stop-opacity:1;"/>
<stop offset="1" style="stop-color:rgb(95.294118%,95.686275%,96.078431%);stop-opacity:1;"/>
</linearGradient>
<linearGradient id="linear4" gradientUnits="userSpaceOnUse" x1="35.67" y1="40.44" x2="37.78" y2="47.66" gradientTransform="matrix(0.75,0,0,0.75,0,0)">
<stop offset="0" style="stop-color:rgb(86.27451%,87.058824%,88.627451%);stop-opacity:1;"/>
<stop offset="0.57" style="stop-color:rgb(87.058824%,87.843137%,89.411765%);stop-opacity:1;"/>
<stop offset="0.81" style="stop-color:rgb(89.803922%,90.588235%,91.764706%);stop-opacity:1;"/>
<stop offset="0.99" style="stop-color:rgb(94.901961%,95.294118%,95.686275%);stop-opacity:1;"/>
<stop offset="1" style="stop-color:rgb(95.294118%,95.686275%,96.078431%);stop-opacity:1;"/>
</linearGradient>
</defs>
<g id="surface1">
<path style=" stroke:none;fill-rule:nonzero;fill:url(#linear0);" d="M 38.304688 16.199219 L 26.304688 4.199219 C 25.699219 3.589844 24.875 3.25 24.015625 3.25 C 23.15625 3.25 22.332031 3.589844 21.726562 4.199219 L 9.726562 16.199219 L 4.890625 21 L 4.890625 46.101562 L 43.140625 46.101562 L 43.140625 21 Z M 38.304688 16.199219 "/>
<path style=" stroke:none;fill-rule:nonzero;fill:rgb(80.784314%,80.784314%,80.784314%);fill-opacity:1;" d="M 46.441406 27.34375 C 46.027344 27.34375 45.632812 27.179688 45.335938 26.886719 L 24 5.550781 L 2.664062 26.886719 C 2.039062 27.496094 1.042969 27.484375 0.433594 26.867188 C -0.175781 26.242188 -0.164062 25.246094 0.457031 24.636719 L 22.207031 2.886719 C 23.210938 1.886719 24.832031 1.886719 25.835938 2.886719 L 47.585938 24.636719 C 48.03125 25.085938 48.164062 25.757812 47.921875 26.335938 C 47.683594 26.921875 47.117188 27.304688 46.484375 27.308594 Z M 46.441406 27.34375 "/>
<path style=" stroke:none;fill-rule:nonzero;fill:url(#linear1);" d="M 18.636719 24.132812 L 23.191406 24.132812 L 23.191406 28.6875 L 18.636719 28.6875 Z M 18.636719 24.132812 "/>
<path style=" stroke:none;fill-rule:nonzero;fill:url(#linear2);" d="M 25.265625 24.132812 L 29.820312 24.132812 L 29.820312 28.6875 L 25.265625 28.6875 Z M 25.265625 24.132812 "/>
<path style=" stroke:none;fill-rule:nonzero;fill:url(#linear3);" d="M 18.636719 30.765625 L 23.191406 30.765625 L 23.191406 35.316406 L 18.636719 35.316406 Z M 18.636719 30.765625 "/>
<path style=" stroke:none;fill-rule:nonzero;fill:url(#linear4);" d="M 25.265625 30.765625 L 29.820312 30.765625 L 29.820312 35.316406 L 25.265625 35.316406 Z M 25.265625 30.765625 "/>
</g>
</svg>
