
<svg xmlns="http://www.w3.org/2000/svg" xmlns:xlink="http://www.w3.org/1999/xlink" width="48px" height="48px" viewBox="0 0 48 48" version="1.1">
<defs>
<linearGradient id="linear0" gradientUnits="userSpaceOnUse" x1="32" y1="3.8" x2="32" y2="23.49" gradientTransform="matrix(0.75,0,0,0.75,0,0)">
<stop offset="0" style="stop-color:rgb(16.078431%,71.372549%,96.470588%);stop-opacity:1;"/>
<stop offset="0.67" style="stop-color:rgb(39.607843%,45.098039%,82.745098%);stop-opacity:1;"/>
<stop offset="1" style="stop-color:rgb(49.411765%,34.117647%,76.862745%);stop-opacity:1;"/>
</linearGradient>
<linearGradient id="linear1" gradientUnits="userSpaceOnUse" x1="32" y1="60.9" x2="32" y2="18.72" gradientTransform="matrix(0.75,0,0,0.75,0,0)">
<stop offset="0" style="stop-color:rgb(86.27451%,87.058824%,88.627451%);stop-opacity:1;"/>
<stop offset="0.57" style="stop-color:rgb(87.058824%,87.843137%,89.411765%);stop-opacity:1;"/>
<stop offset="0.81" style="stop-color:rgb(89.803922%,90.588235%,91.764706%);stop-opacity:1;"/>
<stop offset="0.99" style="stop-color:rgb(94.901961%,95.294118%,95.686275%);stop-opacity:1;"/>
<stop offset="1" style="stop-color:rgb(95.294118%,95.686275%,96.078431%);stop-opacity:1;"/>
</linearGradient>
<linearGradient id="linear2" gradientUnits="userSpaceOnUse" x1="31.3" y1="51.94" x2="31.3" y2="35.8" gradientTransform="matrix(0.75,0,0,0.75,0,0)">
<stop offset="0" style="stop-color:rgb(75.294118%,75.294118%,75.294118%);stop-opacity:1;"/>
<stop offset="1" style="stop-color:rgb(55.686275%,55.686275%,55.686275%);stop-opacity:1;"/>
</linearGradient>
<linearGradient id="linear3" gradientUnits="userSpaceOnUse" x1="38.52" y1="34.71" x2="38.52" y2="27.38" gradientTransform="matrix(0.75,0,0,0.75,0,0)">
<stop offset="0" style="stop-color:rgb(75.294118%,75.294118%,75.294118%);stop-opacity:1;"/>
<stop offset="1" style="stop-color:rgb(55.686275%,55.686275%,55.686275%);stop-opacity:1;"/>
</linearGradient>
<linearGradient id="linear4" gradientUnits="userSpaceOnUse" x1="31.59" y1="33.82" x2="31.59" y2="28.35" gradientTransform="matrix(0.75,0,0,0.75,0,0)">
<stop offset="0" style="stop-color:rgb(75.294118%,75.294118%,75.294118%);stop-opacity:1;"/>
<stop offset="1" style="stop-color:rgb(55.686275%,55.686275%,55.686275%);stop-opacity:1;"/>
</linearGradient>
<linearGradient id="linear5" gradientUnits="userSpaceOnUse" x1="26.9" y1="35.08" x2="26.9" y2="30.33" gradientTransform="matrix(0.75,0,0,0.75,0,0)">
<stop offset="0" style="stop-color:rgb(75.294118%,75.294118%,75.294118%);stop-opacity:1;"/>
<stop offset="1" style="stop-color:rgb(55.686275%,55.686275%,55.686275%);stop-opacity:1;"/>
</linearGradient>
<linearGradient id="linear6" gradientUnits="userSpaceOnUse" x1="23.44" y1="37.56" x2="23.44" y2="33.39" gradientTransform="matrix(0.75,0,0,0.75,0,0)">
<stop offset="0" style="stop-color:rgb(75.294118%,75.294118%,75.294118%);stop-opacity:1;"/>
<stop offset="1" style="stop-color:rgb(55.686275%,55.686275%,55.686275%);stop-opacity:1;"/>
</linearGradient>
</defs>
<g id="surface1">
<path style=" stroke:none;fill-rule:nonzero;fill:url(#linear0);" d="M 48 15.984375 C 47.996094 13.859375 46.273438 12.140625 44.152344 12.140625 L 31.085938 12.140625 C 28.417969 12.144531 26.234375 10.007812 26.183594 7.335938 C 26.222656 4.617188 24.058594 2.375 21.335938 2.324219 L 2.535156 2.324219 C 1.136719 2.324219 0 3.460938 0 4.859375 L 0 17.566406 L 48 17.566406 Z M 48 15.984375 "/>
<path style=" stroke:none;fill-rule:nonzero;fill:url(#linear1);" d="M 44.152344 14.039062 L 3.847656 14.039062 C 1.722656 14.039062 0 15.761719 0 17.886719 L 0 41.835938 C 0.00390625 43.957031 1.726562 45.675781 3.847656 45.675781 L 44.152344 45.675781 C 46.273438 45.675781 47.996094 43.957031 48 41.835938 L 48 17.886719 C 48 15.761719 46.277344 14.039062 44.152344 14.039062 Z M 44.152344 14.039062 "/>
<path style=" stroke:none;fill-rule:nonzero;fill:url(#linear2);" d="M 24.644531 38.945312 C 23.21875 38.90625 21.855469 38.375 20.773438 37.445312 C 19.535156 36.5 18.59375 35.214844 18.058594 33.75 C 17.292969 31.824219 17.996094 29.621094 19.742188 28.5 C 20.992188 27.601562 22.464844 27.054688 24 26.917969 C 24.695312 26.847656 25.398438 26.832031 26.101562 26.871094 C 26.730469 26.90625 27.34375 27.082031 27.890625 27.390625 C 28.339844 27.625 28.667969 28.035156 28.796875 28.523438 C 28.929688 29.007812 28.847656 29.53125 28.574219 29.953125 C 28.113281 30.6875 27.488281 31.300781 26.753906 31.753906 C 25.828125 32.371094 24.882812 32.945312 23.960938 33.5625 C 23.6875 33.753906 23.4375 33.976562 23.210938 34.222656 C 22.933594 34.429688 22.773438 34.75 22.773438 35.097656 C 22.773438 35.441406 22.933594 35.765625 23.210938 35.96875 C 23.453125 36.21875 23.734375 36.421875 24.046875 36.570312 C 24.421875 36.773438 24.882812 36.742188 25.234375 36.492188 C 25.582031 36.242188 25.757812 35.816406 25.6875 35.390625 C 25.605469 35.027344 25.792969 34.652344 26.136719 34.5 C 26.859375 34.109375 27.699219 33.992188 28.5 34.171875 C 28.757812 34.175781 28.992188 34.308594 29.125 34.53125 C 29.261719 34.746094 29.273438 35.019531 29.160156 35.25 C 28.648438 37.152344 27.089844 38.589844 25.15625 38.945312 C 24.984375 38.960938 24.8125 38.960938 24.644531 38.945312 Z M 24.644531 38.945312 "/>
<path style=" stroke:none;fill-rule:nonzero;fill:url(#linear3);" d="M 30.074219 20.59375 C 30.226562 20.609375 30.375 20.632812 30.523438 20.664062 C 30.855469 20.703125 31.152344 20.890625 31.328125 21.175781 C 31.5 21.460938 31.535156 21.8125 31.417969 22.125 C 31.125 23.15625 30.550781 24.082031 29.753906 24.796875 C 29.300781 25.273438 28.75 25.648438 28.140625 25.898438 C 27.78125 26.105469 27.335938 26.109375 26.96875 25.90625 C 26.605469 25.707031 26.375 25.332031 26.355469 24.914062 C 26.078125 23.164062 27.050781 21.457031 28.695312 20.796875 C 29.148438 20.683594 29.605469 20.59375 30.066406 20.535156 Z M 30.074219 20.59375 "/>
<path style=" stroke:none;fill-rule:nonzero;fill:url(#linear4);" d="M 22.425781 23.054688 C 22.40625 22.476562 22.664062 21.921875 23.117188 21.554688 C 23.410156 21.335938 23.777344 21.242188 24.140625 21.292969 C 24.632812 21.394531 24.972656 21.835938 24.953125 22.335938 C 25.003906 23.183594 24.789062 24.03125 24.335938 24.75 C 24.15625 25.042969 23.945312 25.359375 23.550781 25.351562 C 23.152344 25.34375 22.949219 25.011719 22.800781 24.695312 C 22.542969 24.1875 22.414062 23.625 22.425781 23.054688 Z M 22.425781 23.054688 "/>
<path style=" stroke:none;fill-rule:nonzero;fill:url(#linear5);" d="M 19.070312 24.105469 C 19.035156 23.574219 19.335938 23.074219 19.820312 22.859375 C 20.035156 22.730469 20.292969 22.703125 20.527344 22.789062 C 20.757812 22.875 20.941406 23.058594 21.023438 23.296875 C 21.25 23.785156 21.335938 24.332031 21.261719 24.871094 C 21.21875 25.21875 21.132812 25.5625 21 25.890625 C 20.796875 26.371094 20.398438 26.429688 19.996094 26.09375 C 19.5625 25.710938 19.265625 25.195312 19.148438 24.628906 C 19.109375 24.457031 19.085938 24.28125 19.070312 24.105469 Z M 19.070312 24.105469 "/>
<path style=" stroke:none;fill-rule:nonzero;fill:url(#linear6);" d="M 16.5 26.398438 C 16.410156 25.902344 16.644531 25.402344 17.085938 25.15625 C 17.355469 24.972656 17.71875 25.015625 17.933594 25.257812 C 18.3125 25.671875 18.539062 26.203125 18.578125 26.757812 C 18.609375 27.03125 18.609375 27.304688 18.578125 27.578125 C 18.523438 28.109375 18.15625 28.328125 17.691406 28.050781 C 17.054688 27.722656 16.613281 27.109375 16.5 26.398438 Z M 16.5 26.398438 "/>
</g>
</svg>
