
<svg xmlns="http://www.w3.org/2000/svg" xmlns:xlink="http://www.w3.org/1999/xlink" width="48px" height="48px" viewBox="0 0 48 48" version="1.1">
<defs>
<linearGradient id="linear0" gradientUnits="userSpaceOnUse" x1="32" y1="3.8" x2="32" y2="23.49" gradientTransform="matrix(0.75,0,0,0.75,0,0)">
<stop offset="0" style="stop-color:rgb(16.078431%,71.372549%,96.470588%);stop-opacity:1;"/>
<stop offset="0.67" style="stop-color:rgb(39.607843%,45.098039%,82.745098%);stop-opacity:1;"/>
<stop offset="1" style="stop-color:rgb(49.411765%,34.117647%,76.862745%);stop-opacity:1;"/>
</linearGradient>
<linearGradient id="linear1" gradientUnits="userSpaceOnUse" x1="32" y1="60.9" x2="32" y2="18.72" gradientTransform="matrix(0.75,0,0,0.75,0,0)">
<stop offset="0" style="stop-color:rgb(86.27451%,87.058824%,88.627451%);stop-opacity:1;"/>
<stop offset="0.57" style="stop-color:rgb(87.058824%,87.843137%,89.411765%);stop-opacity:1;"/>
<stop offset="0.81" style="stop-color:rgb(89.803922%,90.588235%,91.764706%);stop-opacity:1;"/>
<stop offset="0.99" style="stop-color:rgb(94.901961%,95.294118%,95.686275%);stop-opacity:1;"/>
<stop offset="1" style="stop-color:rgb(95.294118%,95.686275%,96.078431%);stop-opacity:1;"/>
</linearGradient>
<linearGradient id="linear2" gradientUnits="userSpaceOnUse" x1="32" y1="52.32" x2="32" y2="28.32" gradientTransform="matrix(0.75,0,0,0.75,0,0)">
<stop offset="0" style="stop-color:rgb(75.294118%,75.294118%,75.294118%);stop-opacity:1;"/>
<stop offset="1" style="stop-color:rgb(55.686275%,55.686275%,55.686275%);stop-opacity:1;"/>
</linearGradient>
<linearGradient id="linear3" gradientUnits="userSpaceOnUse" x1="32" y1="44.29" x2="32" y2="36.33" gradientTransform="matrix(0.75,0,0,0.75,0,0)">
<stop offset="0" style="stop-color:rgb(75.294118%,75.294118%,75.294118%);stop-opacity:1;"/>
<stop offset="1" style="stop-color:rgb(55.686275%,55.686275%,55.686275%);stop-opacity:1;"/>
</linearGradient>
</defs>
<g id="surface1">
<path style=" stroke:none;fill-rule:nonzero;fill:url(#linear0);" d="M 48 15.984375 C 47.996094 13.859375 46.273438 12.140625 44.152344 12.140625 L 31.085938 12.140625 C 28.417969 12.144531 26.234375 10.007812 26.183594 7.335938 C 26.222656 4.617188 24.058594 2.375 21.335938 2.324219 L 2.535156 2.324219 C 1.136719 2.324219 0 3.460938 0 4.859375 L 0 17.566406 L 48 17.566406 Z M 48 15.984375 "/>
<path style=" stroke:none;fill-rule:nonzero;fill:url(#linear1);" d="M 44.152344 14.039062 L 3.847656 14.039062 C 1.722656 14.039062 0 15.761719 0 17.886719 L 0 41.835938 C 0.00390625 43.957031 1.726562 45.675781 3.847656 45.675781 L 44.152344 45.675781 C 46.273438 45.675781 47.996094 43.957031 48 41.835938 L 48 17.886719 C 48 15.761719 46.277344 14.039062 44.152344 14.039062 Z M 44.152344 14.039062 "/>
<path style=" stroke:none;fill-rule:nonzero;fill:url(#linear2);" d="M 24.457031 39.242188 L 23.707031 39.242188 C 22.632812 39.078125 21.820312 38.1875 21.75 37.101562 C 21.75 36.808594 21.660156 36.578125 21.359375 36.464844 C 21.089844 36.375 20.789062 36.460938 20.609375 36.683594 C 19.691406 37.472656 18.320312 37.4375 17.445312 36.601562 C 16.59375 35.757812 16.570312 34.394531 17.390625 33.523438 C 17.570312 33.320312 17.730469 33.128906 17.601562 32.851562 C 17.476562 32.570312 17.210938 32.519531 16.921875 32.511719 C 15.96875 32.507812 15.121094 31.910156 14.804688 31.011719 C 14.765625 30.898438 14.722656 30.796875 14.679688 30.683594 L 14.679688 29.933594 C 14.890625 28.855469 15.828125 28.070312 16.929688 28.050781 C 17.191406 28.085938 17.449219 27.941406 17.550781 27.695312 C 17.65625 27.453125 17.585938 27.167969 17.378906 27 C 16.96875 26.585938 16.746094 26.023438 16.757812 25.4375 C 16.769531 24.855469 17.015625 24.304688 17.4375 23.902344 C 18.339844 23.074219 19.730469 23.074219 20.632812 23.902344 C 20.820312 24.113281 21.125 24.175781 21.382812 24.058594 C 21.683594 23.941406 21.710938 23.707031 21.71875 23.445312 C 21.753906 22.410156 22.484375 21.53125 23.496094 21.316406 C 23.542969 21.300781 23.589844 21.28125 23.632812 21.253906 L 24.382812 21.253906 C 24.414062 21.277344 24.445312 21.296875 24.480469 21.316406 C 25.511719 21.507812 26.273438 22.394531 26.308594 23.445312 C 26.332031 23.671875 26.460938 23.875 26.65625 24 C 26.886719 24.039062 27.125 23.976562 27.308594 23.828125 C 28.230469 23.019531 29.617188 23.039062 30.515625 23.878906 C 31.375 24.738281 31.375 26.125 30.515625 26.984375 C 30.289062 27.164062 30.21875 27.476562 30.351562 27.734375 C 30.472656 28.027344 30.710938 28.066406 30.992188 28.066406 C 31.550781 28.023438 32.101562 28.234375 32.492188 28.640625 C 32.789062 29.046875 33.050781 29.476562 33.277344 29.925781 L 33.277344 30.675781 C 33.03125 31.792969 32.027344 32.578125 30.882812 32.550781 C 30.691406 32.578125 30.523438 32.703125 30.433594 32.878906 C 30.410156 33.105469 30.476562 33.332031 30.617188 33.507812 C 31.433594 34.394531 31.410156 35.765625 30.5625 36.621094 C 29.660156 37.457031 28.273438 37.476562 27.34375 36.675781 C 27.171875 36.523438 26.9375 36.457031 26.707031 36.503906 C 26.511719 36.644531 26.382812 36.859375 26.363281 37.101562 C 26.359375 37.644531 26.140625 38.164062 25.753906 38.542969 C 25.34375 38.808594 24.90625 39.042969 24.457031 39.242188 Z M 24.039062 37.785156 C 24.257812 37.808594 24.480469 37.730469 24.640625 37.574219 C 24.800781 37.417969 24.882812 37.199219 24.863281 36.976562 C 24.820312 36.152344 25.3125 35.394531 26.078125 35.09375 C 26.839844 34.75 27.734375 34.914062 28.328125 35.503906 C 28.648438 35.8125 29.15625 35.8125 29.476562 35.503906 C 29.640625 35.363281 29.738281 35.15625 29.738281 34.933594 C 29.738281 34.714844 29.640625 34.507812 29.476562 34.367188 C 28.875 33.808594 28.707031 32.929688 29.054688 32.191406 C 29.371094 31.457031 30.09375 30.984375 30.890625 30.992188 C 31.453125 30.953125 31.792969 30.644531 31.777344 30.195312 C 31.761719 29.746094 31.433594 29.445312 30.855469 29.445312 C 30.054688 29.46875 29.324219 29 29.003906 28.265625 C 28.625 27.515625 28.78125 26.601562 29.382812 26.015625 C 29.570312 25.882812 29.683594 25.671875 29.691406 25.445312 C 29.703125 25.21875 29.609375 24.996094 29.4375 24.847656 C 29.273438 24.699219 29.058594 24.621094 28.839844 24.628906 C 28.617188 24.640625 28.410156 24.738281 28.257812 24.898438 C 27.667969 25.464844 26.796875 25.621094 26.046875 25.296875 C 25.289062 25.015625 24.789062 24.292969 24.796875 23.484375 C 24.789062 23.046875 24.4375 22.691406 24 22.6875 C 23.78125 22.683594 23.570312 22.773438 23.421875 22.929688 C 23.269531 23.089844 23.191406 23.304688 23.203125 23.519531 C 23.234375 24.332031 22.75 25.070312 21.996094 25.371094 C 21.21875 25.738281 20.292969 25.585938 19.671875 24.992188 C 19.523438 24.828125 19.3125 24.734375 19.09375 24.722656 C 18.871094 24.714844 18.65625 24.792969 18.496094 24.945312 C 18.328125 25.085938 18.234375 25.296875 18.234375 25.515625 C 18.234375 25.734375 18.328125 25.941406 18.496094 26.085938 C 19.085938 26.648438 19.253906 27.527344 18.90625 28.265625 C 18.609375 29.023438 17.875 29.519531 17.0625 29.511719 C 16.910156 29.515625 16.765625 29.546875 16.628906 29.609375 C 16.308594 29.75 16.128906 30.09375 16.191406 30.433594 C 16.269531 30.828125 16.628906 31.097656 17.023438 31.070312 C 17.863281 31.011719 18.652344 31.480469 18.992188 32.25 C 19.382812 33.007812 19.210938 33.933594 18.570312 34.5 C 18.472656 34.59375 18.402344 34.710938 18.359375 34.835938 C 18.246094 35.167969 18.375 35.527344 18.667969 35.714844 C 18.988281 35.929688 19.417969 35.886719 19.6875 35.609375 C 20.203125 35.101562 20.949219 34.898438 21.652344 35.078125 C 22.535156 35.246094 23.195312 35.992188 23.25 36.890625 C 23.296875 37.453125 23.578125 37.777344 24.039062 37.785156 Z M 24.039062 37.785156 "/>
<path style=" stroke:none;fill-rule:nonzero;fill:url(#linear3);" d="M 24 33.21875 C 22.351562 33.179688 21.042969 31.820312 21.066406 30.171875 C 21.09375 28.527344 22.441406 27.207031 24.089844 27.21875 C 25.738281 27.230469 27.066406 28.570312 27.066406 30.21875 C 27.039062 31.886719 25.671875 33.226562 24 33.21875 Z M 25.582031 30.21875 C 25.59375 29.570312 25.214844 28.980469 24.621094 28.726562 C 24.027344 28.472656 23.335938 28.601562 22.875 29.054688 C 22.417969 29.507812 22.277344 30.195312 22.523438 30.792969 C 22.769531 31.390625 23.355469 31.78125 24 31.777344 C 24.859375 31.773438 25.5625 31.089844 25.589844 30.234375 Z M 25.582031 30.21875 "/>
</g>
</svg>
