
<svg xmlns="http://www.w3.org/2000/svg" xmlns:xlink="http://www.w3.org/1999/xlink" width="48px" height="48px" viewBox="0 0 48 48" version="1.1">
<defs>
<linearGradient id="linear0" gradientUnits="userSpaceOnUse" x1="21.91" y1="9.34" x2="44.22" y2="59.46" gradientTransform="matrix(0.75,0,0,0.75,0,0)">
<stop offset="0" style="stop-color:rgb(25.490196%,74.509804%,83.529412%);stop-opacity:1;"/>
<stop offset="1" style="stop-color:rgb(51.372549%,32.54902%,84.313725%);stop-opacity:1;"/>
</linearGradient>
</defs>
<g id="surface1">
<path style=" stroke:none;fill-rule:nonzero;fill:rgb(26.666667%,53.72549%,75.686275%);fill-opacity:1;" d="M 1.117188 20.789062 C -0.625 22.941406 -0.367188 26.085938 1.703125 27.925781 C 3.773438 29.765625 6.925781 29.652344 8.859375 27.667969 L 16.90625 19.621094 C 11.957031 16.5 5.550781 16.972656 1.117188 20.789062 Z M 1.117188 20.789062 "/>
<path style=" stroke:none;fill-rule:nonzero;fill:rgb(39.215686%,27.45098%,75.686275%);fill-opacity:1;" d="M 46.5 20.332031 C 44.472656 18.308594 41.191406 18.308594 39.164062 20.332031 L 30.945312 28.5 C 35.9375 31.65625 42.410156 31.140625 46.84375 27.238281 C 48.503906 25.183594 48.355469 22.210938 46.5 20.332031 Z M 46.5 20.332031 "/>
<path style=" stroke:none;fill-rule:nonzero;fill:url(#linear0);" d="M 30 29.503906 C 29.171875 28.976562 28.402344 28.363281 27.703125 27.667969 C 22.511719 22.472656 22.511719 14.050781 27.703125 8.859375 C 29.738281 6.820312 29.734375 3.523438 27.699219 1.492188 C 25.660156 -0.539062 22.363281 -0.535156 20.332031 1.5 L 10.925781 10.925781 L 1.5 20.332031 C 6.695312 15.132812 15.121094 15.128906 20.320312 20.320312 C 25.523438 25.515625 25.527344 33.941406 20.332031 39.140625 C 18.300781 41.167969 18.296875 44.457031 20.320312 46.488281 C 22.347656 48.519531 25.636719 48.527344 27.667969 46.5 L 37.074219 37.074219 L 46.5 27.667969 C 42.105469 32.058594 35.253906 32.820312 30 29.503906 Z M 30 29.503906 "/>
</g>
</svg>
