
<svg xmlns="http://www.w3.org/2000/svg" xmlns:xlink="http://www.w3.org/1999/xlink" width="48px" height="48px" viewBox="0 0 48 48" version="1.1">
<defs>
<linearGradient id="linear0" gradientUnits="userSpaceOnUse" x1="5.67" y1="32.07" x2="58.33" y2="32.07" gradientTransform="matrix(0.75,0,0,0.75,0,0)">
<stop offset="0" style="stop-color:rgb(83.921569%,85.098039%,86.666667%);stop-opacity:1;"/>
<stop offset="0.27" style="stop-color:rgb(82.352941%,83.921569%,85.490196%);stop-opacity:1;"/>
<stop offset="0.5" style="stop-color:rgb(78.431373%,79.607843%,81.960784%);stop-opacity:1;"/>
<stop offset="0.73" style="stop-color:rgb(71.372549%,72.941176%,76.078431%);stop-opacity:1;"/>
<stop offset="0.92" style="stop-color:rgb(62.352941%,64.705882%,69.019608%);stop-opacity:1;"/>
</linearGradient>
</defs>
<g id="surface1">
<path style=" stroke:none;fill-rule:nonzero;fill:url(#linear0);" d="M 8.617188 41.378906 L 4.253906 8.535156 C 4.253906 4.019531 13.09375 0.351562 24 0.351562 C 34.90625 0.351562 43.746094 4.019531 43.746094 8.535156 L 39.382812 41.378906 C 39.382812 44.894531 32.496094 47.753906 24 47.753906 C 15.503906 47.753906 8.617188 44.894531 8.617188 41.378906 Z M 8.617188 41.378906 "/>
<path style=" stroke:none;fill-rule:nonzero;fill:rgb(36.078431%,49.019608%,84.705882%);fill-opacity:1;" d="M 24 15.96875 C 12.636719 15.96875 5.003906 12.128906 5.003906 8.535156 C 5.003906 4.941406 12.636719 1.101562 24 1.101562 C 35.363281 1.101562 42.996094 4.949219 42.996094 8.535156 C 42.996094 12.121094 35.363281 15.96875 24 15.96875 Z M 24 15.96875 "/>
<path style=" stroke:none;fill-rule:nonzero;fill:rgb(100%,100%,100%);fill-opacity:1;" d="M 24 1.851562 C 34.445312 1.851562 42.246094 5.382812 42.246094 8.535156 C 42.246094 11.683594 34.445312 15.21875 24 15.21875 C 13.554688 15.21875 5.753906 11.691406 5.753906 8.535156 C 5.753906 5.378906 13.554688 1.851562 24 1.851562 M 24 0.351562 C 13.09375 0.351562 4.253906 4.019531 4.253906 8.535156 C 4.253906 13.050781 13.09375 16.71875 24 16.71875 C 34.90625 16.71875 43.746094 13.058594 43.746094 8.535156 C 43.746094 4.011719 34.90625 0.351562 24 0.351562 Z M 24 0.351562 "/>
<path style=" stroke:none;fill-rule:nonzero;fill:rgb(29.411765%,42.352941%,71.764706%);fill-opacity:1;" d="M 24.621094 25.5 C 24.570312 24.640625 25.175781 23.878906 26.023438 23.738281 C 26.914062 23.519531 27.84375 23.886719 28.34375 24.652344 L 30.359375 27.855469 C 30.429688 27.960938 30.40625 28.003906 30.300781 28.058594 L 27.066406 29.804688 C 26.953125 29.871094 26.910156 29.859375 26.84375 29.746094 L 24.855469 26.46875 C 24.707031 26.167969 24.625 25.835938 24.621094 25.5 Z M 24.621094 25.5 "/>
<path style=" stroke:none;fill-rule:nonzero;fill:rgb(29.411765%,42.352941%,71.764706%);fill-opacity:1;" d="M 29.25 35.121094 C 29.902344 35.144531 30.511719 35.449219 30.921875 35.953125 C 31.195312 36.34375 31.296875 36.828125 31.207031 37.292969 C 31.117188 37.761719 30.839844 38.171875 30.441406 38.429688 C 30.0625 38.6875 29.613281 38.828125 29.152344 38.828125 L 25.230469 38.828125 C 25.078125 38.828125 25.019531 38.828125 25.019531 38.632812 C 25.019531 37.492188 25.019531 36.382812 25.019531 35.257812 C 25.019531 35.117188 25.019531 35.078125 25.199219 35.078125 Z M 29.25 35.121094 "/>
<path style=" stroke:none;fill-rule:nonzero;fill:rgb(29.411765%,42.352941%,71.764706%);fill-opacity:1;" d="M 17.453125 35.25 C 16.753906 35.289062 16.089844 34.949219 15.71875 34.359375 C 15.34375 33.765625 15.324219 33.019531 15.660156 32.40625 C 16.3125 31.3125 16.996094 30.226562 17.65625 29.136719 C 17.714844 29.03125 17.765625 29.039062 17.867188 29.085938 C 18.953125 29.695312 20.039062 30.277344 21.113281 30.832031 C 21.242188 30.898438 21.234375 30.945312 21.164062 31.050781 C 20.492188 32.109375 19.828125 33.179688 19.140625 34.222656 C 18.761719 34.800781 18.140625 35.179688 17.453125 35.25 Z M 17.453125 35.25 "/>
<path style=" stroke:none;fill-rule:nonzero;fill:rgb(36.078431%,49.019608%,84.705882%);fill-opacity:1;" d="M 27.089844 33.570312 L 29.484375 30.113281 C 29.519531 30.058594 29.578125 30.03125 29.640625 30.03125 L 32.84375 29.859375 L 34.125 29.789062 C 34.125 29.867188 34.042969 29.867188 34.003906 29.886719 L 32.476562 30.75 C 32.363281 30.808594 32.347656 30.847656 32.414062 30.953125 C 32.789062 31.539062 33.164062 32.121094 33.515625 32.714844 C 33.703125 33.054688 33.753906 33.453125 33.652344 33.824219 C 33.542969 34.328125 33.351562 34.808594 33.082031 35.25 C 32.46875 36.25 31.734375 37.175781 30.898438 38.003906 C 30.984375 37.675781 31.046875 37.339844 31.09375 37.003906 C 31.148438 36.65625 31.082031 36.304688 30.90625 36 C 30.269531 34.898438 29.566406 33.839844 28.882812 32.765625 C 28.816406 32.671875 28.769531 32.691406 28.6875 32.765625 L 27.128906 33.601562 Z M 27.089844 33.570312 "/>
<path style=" stroke:none;fill-rule:nonzero;fill:rgb(36.078431%,49.019608%,84.705882%);fill-opacity:1;" d="M 15.59375 34.164062 C 15.660156 34.164062 15.691406 34.214844 15.734375 34.253906 C 15.78125 34.289062 16.011719 34.5 16.164062 34.621094 C 16.53125 34.945312 17.007812 35.113281 17.496094 35.09375 C 18.773438 35.09375 20.046875 35.09375 21.316406 35.09375 C 21.472656 35.09375 21.515625 35.054688 21.507812 34.898438 C 21.507812 34.34375 21.507812 33.789062 21.507812 33.226562 C 21.578125 33.226562 21.578125 33.285156 21.601562 33.320312 L 23.527344 36.878906 C 23.585938 36.953125 23.585938 37.058594 23.527344 37.132812 L 21.578125 40.734375 C 21.578125 40.734375 21.539062 40.792969 21.507812 40.859375 C 21.507812 40.777344 21.507812 40.726562 21.507812 40.679688 C 21.507812 40.140625 21.507812 39.601562 21.507812 39.058594 C 21.507812 38.933594 21.507812 38.878906 21.351562 38.886719 C 20.601562 38.886719 19.90625 38.886719 19.183594 38.886719 C 18.945312 38.886719 18.707031 38.820312 18.503906 38.691406 C 17.972656 38.382812 17.523438 37.957031 17.191406 37.441406 C 16.515625 36.429688 15.972656 35.335938 15.585938 34.183594 C 15.585938 34.183594 15.585938 34.179688 15.59375 34.164062 Z M 15.59375 34.164062 "/>
<path style=" stroke:none;fill-rule:nonzero;fill:rgb(36.078431%,49.019608%,84.705882%);fill-opacity:1;" d="M 17.625 25.15625 L 19.265625 26.03125 C 19.367188 26.085938 19.417969 26.101562 19.484375 25.988281 C 19.828125 25.394531 20.183594 24.816406 20.535156 24.242188 C 20.652344 24.066406 20.820312 23.933594 21.015625 23.859375 C 21.453125 23.671875 21.914062 23.554688 22.386719 23.519531 C 23.691406 23.410156 25.003906 23.445312 26.304688 23.617188 L 26.789062 23.617188 C 26.789062 23.664062 26.707031 23.664062 26.664062 23.679688 C 26.382812 23.746094 26.109375 23.835938 25.84375 23.941406 C 25.457031 24.070312 25.132812 24.339844 24.921875 24.691406 C 24.308594 25.726562 23.664062 26.753906 23.023438 27.773438 C 22.957031 27.882812 22.949219 27.9375 23.085938 28.003906 C 23.566406 28.253906 24.039062 28.515625 24.507812 28.753906 C 24.566406 28.777344 24.613281 28.816406 24.644531 28.867188 L 23.40625 28.816406 C 22.476562 28.769531 21.546875 28.710938 20.609375 28.6875 C 20.28125 28.707031 19.96875 28.539062 19.808594 28.253906 C 19.125 27.234375 18.398438 26.242188 17.691406 25.253906 L 17.601562 25.101562 Z M 17.625 25.15625 "/>
</g>
</svg>
