
<svg xmlns="http://www.w3.org/2000/svg" xmlns:xlink="http://www.w3.org/1999/xlink" width="24px" height="24px" viewBox="0 0 24 24" version="1.1">
<defs>
<linearGradient id="linear0" gradientUnits="userSpaceOnUse" x1="32.86" y1="52.99" x2="32.86" y2="54.6" gradientTransform="matrix(0.375,0,0,0.375,-0.04875,0.01875)">
<stop offset="0" style="stop-color:rgb(86.27451%,87.058824%,88.627451%);stop-opacity:1;"/>
<stop offset="0.57" style="stop-color:rgb(87.058824%,87.843137%,89.411765%);stop-opacity:1;"/>
<stop offset="0.81" style="stop-color:rgb(89.803922%,90.588235%,91.764706%);stop-opacity:1;"/>
<stop offset="0.99" style="stop-color:rgb(94.901961%,95.294118%,95.686275%);stop-opacity:1;"/>
<stop offset="1" style="stop-color:rgb(95.294118%,95.686275%,96.078431%);stop-opacity:1;"/>
</linearGradient>
</defs>
<g id="surface1">
<path style=" stroke:none;fill-rule:nonzero;fill:rgb(36.078431%,41.960784%,75.294118%);fill-opacity:1;" d="M 2.023438 0 L 21.976562 0 C 23.09375 0 24 0.90625 24 2.023438 L 24 21.976562 C 24 23.09375 23.09375 24 21.976562 24 L 2.023438 24 C 0.90625 24 0 23.09375 0 21.976562 L 0 2.023438 C 0 0.90625 0.90625 0 2.023438 0 Z M 2.023438 0 "/>
<path style=" stroke:none;fill-rule:nonzero;fill:url(#linear0);" d="M 16.453125 20.398438 L 15.75 20.398438 C 15.445312 20.398438 15.199219 20.148438 15.199219 19.84375 L 15.199219 17.304688 L 9.375 17.304688 L 9.375 19.839844 C 9.375 20.144531 9.128906 20.390625 8.824219 20.390625 L 8.09375 20.390625 C 7.792969 20.390625 7.546875 20.636719 7.546875 20.9375 C 7.546875 21.234375 7.792969 21.480469 8.09375 21.480469 L 16.453125 21.480469 C 16.601562 21.480469 16.738281 21.421875 16.84375 21.320312 C 16.945312 21.21875 17.003906 21.082031 17.003906 20.9375 C 17 20.636719 16.753906 20.394531 16.453125 20.398438 Z M 16.453125 20.398438 "/>
<path style=" stroke:none;fill-rule:nonzero;fill:rgb(16.078431%,71.372549%,96.470588%);fill-opacity:1;" d="M 3.429688 4.445312 L 20.570312 4.445312 C 20.96875 4.445312 21.289062 4.769531 21.289062 5.164062 L 21.289062 16.480469 C 21.289062 16.875 20.96875 17.195312 20.570312 17.195312 L 3.429688 17.195312 C 3.03125 17.195312 2.710938 16.875 2.710938 16.480469 L 2.710938 5.164062 C 2.710938 4.769531 3.03125 4.445312 3.429688 4.445312 Z M 3.429688 4.445312 "/>
<path style=" stroke:none;fill-rule:nonzero;fill:rgb(100%,100%,100%);fill-opacity:1;" d="M 20.570312 17.527344 L 3.429688 17.527344 C 2.855469 17.527344 2.390625 17.070312 2.382812 16.5 L 2.382812 5.164062 C 2.386719 4.589844 2.851562 4.125 3.429688 4.125 L 20.570312 4.125 C 21.148438 4.125 21.617188 4.59375 21.617188 5.171875 L 21.617188 16.5 C 21.609375 17.070312 21.144531 17.527344 20.570312 17.527344 Z M 3.429688 4.777344 C 3.21875 4.777344 3.054688 4.945312 3.054688 5.152344 L 3.054688 16.5 C 3.054688 16.707031 3.21875 16.875 3.429688 16.875 L 20.570312 16.875 C 20.78125 16.875 20.945312 16.707031 20.945312 16.5 L 20.945312 5.164062 C 20.945312 4.957031 20.78125 4.789062 20.570312 4.789062 Z M 3.429688 4.777344 "/>
<path style=" stroke:none;fill-rule:nonzero;fill:rgb(100%,100%,100%);fill-opacity:1;" d="M 2.476562 15.75 L 21.492188 15.75 L 21.492188 16.574219 C 21.492188 17.03125 21.121094 17.398438 20.664062 17.398438 L 3.300781 17.398438 C 2.84375 17.398438 2.476562 17.03125 2.476562 16.574219 Z M 2.476562 15.75 "/>
<path style=" stroke:none;fill-rule:nonzero;fill:rgb(100%,100%,100%);fill-opacity:1;" d="M 15.515625 9.710938 C 15.429688 9.636719 15.324219 9.601562 15.214844 9.609375 C 14.890625 9.636719 14.585938 9.449219 14.464844 9.148438 C 14.335938 8.859375 14.402344 8.515625 14.625 8.289062 C 14.84375 8.070312 14.84375 7.71875 14.625 7.5 C 14.527344 7.398438 14.390625 7.339844 14.25 7.339844 C 14.09375 7.34375 13.941406 7.398438 13.820312 7.503906 C 13.664062 7.632812 13.46875 7.703125 13.265625 7.710938 C 13.1875 7.710938 13.101562 7.695312 13.027344 7.664062 C 12.765625 7.539062 12.585938 7.28125 12.554688 6.992188 C 12.570312 6.703125 12.363281 6.457031 12.082031 6.414062 L 11.886719 6.414062 C 11.625 6.460938 11.4375 6.695312 11.445312 6.960938 C 11.460938 7.273438 11.277344 7.566406 10.988281 7.6875 C 10.890625 7.726562 10.78125 7.75 10.675781 7.75 C 10.472656 7.75 10.273438 7.675781 10.125 7.539062 C 10.015625 7.433594 9.867188 7.375 9.714844 7.371094 C 9.574219 7.375 9.441406 7.429688 9.339844 7.53125 C 9.125 7.746094 9.125 8.097656 9.339844 8.3125 C 9.5625 8.53125 9.632812 8.855469 9.523438 9.140625 C 9.417969 9.441406 9.132812 9.640625 8.8125 9.636719 C 8.535156 9.632812 8.296875 9.828125 8.25 10.101562 L 8.25 10.277344 C 8.257812 10.308594 8.265625 10.335938 8.28125 10.367188 C 8.351562 10.585938 8.558594 10.734375 8.789062 10.742188 C 9.117188 10.703125 9.425781 10.878906 9.5625 11.179688 C 9.695312 11.476562 9.617188 11.828125 9.375 12.046875 C 9.171875 12.265625 9.171875 12.601562 9.375 12.820312 C 9.476562 12.921875 9.609375 12.980469 9.75 12.984375 C 9.886719 12.976562 10.019531 12.925781 10.125 12.835938 C 10.277344 12.6875 10.476562 12.597656 10.691406 12.59375 C 10.78125 12.59375 10.875 12.609375 10.960938 12.640625 C 11.261719 12.757812 11.460938 13.046875 11.460938 13.367188 C 11.460938 13.640625 11.65625 13.875 11.925781 13.921875 L 12.0625 13.921875 L 12.148438 13.875 C 12.261719 13.820312 12.367188 13.753906 12.46875 13.675781 C 12.542969 13.574219 12.582031 13.453125 12.578125 13.328125 C 12.601562 13.046875 12.757812 12.792969 13 12.648438 C 13.089844 12.601562 13.1875 12.578125 13.285156 12.582031 C 13.488281 12.585938 13.679688 12.660156 13.835938 12.789062 C 13.957031 12.890625 14.109375 12.949219 14.265625 12.953125 C 14.40625 12.953125 14.539062 12.898438 14.640625 12.796875 C 14.859375 12.570312 14.859375 12.214844 14.640625 11.988281 C 14.484375 11.792969 14.414062 11.542969 14.453125 11.296875 C 14.53125 10.976562 14.804688 10.746094 15.132812 10.726562 C 15.425781 10.75 15.691406 10.546875 15.75 10.257812 L 15.75 10.125 L 15.703125 10.039062 C 15.652344 9.921875 15.589844 9.8125 15.515625 9.710938 Z M 12.003906 11.585938 C 11.433594 11.585938 10.917969 11.242188 10.699219 10.714844 C 10.476562 10.1875 10.601562 9.578125 11.003906 9.175781 C 11.40625 8.773438 12.015625 8.652344 12.539062 8.871094 C 13.070312 9.089844 13.410156 9.605469 13.410156 10.179688 C 13.394531 10.949219 12.769531 11.566406 12 11.570312 Z M 12.003906 11.585938 "/>
<path style=" stroke:none;fill-rule:nonzero;fill:rgb(100%,100%,100%);fill-opacity:1;" d="M 12 9.4375 C 11.703125 9.4375 11.4375 9.609375 11.320312 9.882812 C 11.207031 10.15625 11.269531 10.46875 11.476562 10.679688 C 11.683594 10.890625 12 10.953125 12.273438 10.835938 C 12.542969 10.726562 12.722656 10.457031 12.71875 10.164062 C 12.707031 9.769531 12.390625 9.453125 12 9.4375 Z M 12 9.4375 "/>
</g>
</svg>
