
<svg xmlns="http://www.w3.org/2000/svg" xmlns:xlink="http://www.w3.org/1999/xlink" width="24px" height="24px" viewBox="0 0 24 24" version="1.1">
<defs>
<linearGradient id="linear0" gradientUnits="userSpaceOnUse" x1="32.85" y1="53" x2="32.85" y2="54.61" gradientTransform="matrix(0.375,0,0,0.375,-0.045,0.01875)">
<stop offset="0" style="stop-color:rgb(86.27451%,87.058824%,88.627451%);stop-opacity:1;"/>
<stop offset="0.57" style="stop-color:rgb(87.058824%,87.843137%,89.411765%);stop-opacity:1;"/>
<stop offset="0.81" style="stop-color:rgb(89.803922%,90.588235%,91.764706%);stop-opacity:1;"/>
<stop offset="0.99" style="stop-color:rgb(94.901961%,95.294118%,95.686275%);stop-opacity:1;"/>
<stop offset="1" style="stop-color:rgb(95.294118%,95.686275%,96.078431%);stop-opacity:1;"/>
</linearGradient>
</defs>
<g id="surface1">
<path style=" stroke:none;fill-rule:nonzero;fill:rgb(49.411765%,34.117647%,76.862745%);fill-opacity:1;" d="M 2.023438 0 L 21.976562 0 C 23.09375 0 24 0.90625 24 2.023438 L 24 21.976562 C 24 23.09375 23.09375 24 21.976562 24 L 2.023438 24 C 0.90625 24 0 23.09375 0 21.976562 L 0 2.023438 C 0 0.90625 0.90625 0 2.023438 0 Z M 2.023438 0 "/>
<path style=" stroke:none;fill-rule:nonzero;fill:url(#linear0);" d="M 16.453125 20.398438 L 15.75 20.398438 C 15.445312 20.398438 15.199219 20.148438 15.199219 19.84375 L 15.199219 17.304688 L 9.375 17.304688 L 9.375 19.839844 C 9.375 20.144531 9.128906 20.390625 8.824219 20.390625 L 8.09375 20.390625 C 7.792969 20.390625 7.546875 20.636719 7.546875 20.9375 C 7.546875 21.234375 7.792969 21.480469 8.09375 21.480469 L 16.453125 21.480469 C 16.601562 21.480469 16.738281 21.421875 16.84375 21.320312 C 16.945312 21.21875 17.003906 21.082031 17.003906 20.9375 C 17 20.636719 16.753906 20.394531 16.453125 20.398438 Z M 16.453125 20.398438 "/>
<path style=" stroke:none;fill-rule:nonzero;fill:rgb(92.54902%,25.098039%,47.843137%);fill-opacity:1;" d="M 3.429688 4.445312 L 20.570312 4.445312 C 20.96875 4.445312 21.289062 4.769531 21.289062 5.164062 L 21.289062 16.480469 C 21.289062 16.875 20.96875 17.195312 20.570312 17.195312 L 3.429688 17.195312 C 3.03125 17.195312 2.710938 16.875 2.710938 16.480469 L 2.710938 5.164062 C 2.710938 4.769531 3.03125 4.445312 3.429688 4.445312 Z M 3.429688 4.445312 "/>
<path style=" stroke:none;fill-rule:nonzero;fill:rgb(100%,100%,100%);fill-opacity:1;" d="M 20.570312 17.527344 L 3.429688 17.527344 C 2.855469 17.527344 2.390625 17.070312 2.382812 16.5 L 2.382812 5.164062 C 2.386719 4.589844 2.851562 4.125 3.429688 4.125 L 20.570312 4.125 C 21.148438 4.125 21.617188 4.59375 21.617188 5.171875 L 21.617188 16.5 C 21.609375 17.070312 21.144531 17.527344 20.570312 17.527344 Z M 3.429688 4.777344 C 3.21875 4.777344 3.054688 4.945312 3.054688 5.152344 L 3.054688 16.5 C 3.054688 16.707031 3.21875 16.875 3.429688 16.875 L 20.570312 16.875 C 20.78125 16.875 20.945312 16.707031 20.945312 16.5 L 20.945312 5.164062 C 20.945312 4.957031 20.78125 4.789062 20.570312 4.789062 Z M 3.429688 4.777344 "/>
<path style=" stroke:none;fill-rule:nonzero;fill:rgb(100%,100%,100%);fill-opacity:1;" d="M 2.476562 15.75 L 21.492188 15.75 L 21.492188 16.574219 C 21.492188 17.03125 21.121094 17.398438 20.664062 17.398438 L 3.300781 17.398438 C 2.84375 17.398438 2.476562 17.03125 2.476562 16.574219 Z M 2.476562 15.75 "/>
<path style=" stroke:none;fill-rule:nonzero;fill:rgb(100%,100%,100%);fill-opacity:1;" d="M 8.542969 13.035156 L 9.46875 13.035156 C 9.640625 13.035156 9.785156 13.175781 9.785156 13.351562 L 9.785156 14.277344 C 9.785156 14.449219 9.640625 14.589844 9.46875 14.589844 L 8.542969 14.589844 C 8.367188 14.589844 8.226562 14.449219 8.226562 14.277344 L 8.226562 13.351562 C 8.226562 13.175781 8.367188 13.035156 8.542969 13.035156 Z M 8.542969 13.035156 "/>
<path style=" stroke:none;fill-rule:nonzero;fill:rgb(100%,100%,100%);fill-opacity:1;" d="M 10.539062 13.035156 L 11.464844 13.035156 C 11.636719 13.035156 11.777344 13.175781 11.777344 13.351562 L 11.777344 14.277344 C 11.777344 14.449219 11.636719 14.589844 11.464844 14.589844 L 10.539062 14.589844 C 10.363281 14.589844 10.222656 14.449219 10.222656 14.277344 L 10.222656 13.351562 C 10.222656 13.175781 10.363281 13.035156 10.539062 13.035156 Z M 10.539062 13.035156 "/>
<path style=" stroke:none;fill-rule:nonzero;fill:rgb(100%,100%,100%);fill-opacity:1;" d="M 12.535156 13.035156 L 13.460938 13.035156 C 13.636719 13.035156 13.777344 13.175781 13.777344 13.351562 L 13.777344 14.277344 C 13.777344 14.449219 13.636719 14.589844 13.460938 14.589844 L 12.535156 14.589844 C 12.363281 14.589844 12.222656 14.449219 12.222656 14.277344 L 12.222656 13.351562 C 12.222656 13.175781 12.363281 13.035156 12.535156 13.035156 Z M 12.535156 13.035156 "/>
<path style=" stroke:none;fill-rule:nonzero;fill:rgb(100%,100%,100%);fill-opacity:1;" d="M 14.53125 13.035156 L 15.457031 13.035156 C 15.632812 13.035156 15.773438 13.175781 15.773438 13.351562 L 15.773438 14.277344 C 15.773438 14.449219 15.632812 14.589844 15.457031 14.589844 L 14.53125 14.589844 C 14.359375 14.589844 14.214844 14.449219 14.214844 14.277344 L 14.214844 13.351562 C 14.214844 13.175781 14.359375 13.035156 14.53125 13.035156 Z M 14.53125 13.035156 "/>
</g>
</svg>
