
<svg xmlns="http://www.w3.org/2000/svg" xmlns:xlink="http://www.w3.org/1999/xlink" width="24px" height="24px" viewBox="0 0 24 24" version="1.1">
<defs>
<clipPath id="clip1">
  <path d="M 11.5 3.25 L 12.25 3.25 L 12.25 5.75 L 11.5 5.75 Z M 11.5 3.25 "/>
</clipPath>
<clipPath id="clip2">
  <path d="M 20.726562 12 C 20.726562 16.820312 16.820312 20.726562 12 20.726562 C 7.179688 20.726562 3.273438 16.820312 3.273438 12 C 3.273438 7.179688 7.179688 3.273438 12 3.273438 C 16.820312 3.273438 20.726562 7.179688 20.726562 12 Z M 20.726562 12 "/>
</clipPath>
<clipPath id="clip3">
  <path d="M 11.5 18.25 L 12.25 18.25 L 12.25 20.75 L 11.5 20.75 Z M 11.5 18.25 "/>
</clipPath>
<clipPath id="clip4">
  <path d="M 20.726562 12 C 20.726562 16.820312 16.820312 20.726562 12 20.726562 C 7.179688 20.726562 3.273438 16.820312 3.273438 12 C 3.273438 7.179688 7.179688 3.273438 12 3.273438 C 16.820312 3.273438 20.726562 7.179688 20.726562 12 Z M 20.726562 12 "/>
</clipPath>
<clipPath id="clip5">
  <path d="M 18.25 11.75 L 20.75 11.75 L 20.75 12.5 L 18.25 12.5 Z M 18.25 11.75 "/>
</clipPath>
<clipPath id="clip6">
  <path d="M 20.726562 12 C 20.726562 16.820312 16.820312 20.726562 12 20.726562 C 7.179688 20.726562 3.273438 16.820312 3.273438 12 C 3.273438 7.179688 7.179688 3.273438 12 3.273438 C 16.820312 3.273438 20.726562 7.179688 20.726562 12 Z M 20.726562 12 "/>
</clipPath>
<clipPath id="clip7">
  <path d="M 3.25 11.75 L 5.5 11.75 L 5.5 12.25 L 3.25 12.25 Z M 3.25 11.75 "/>
</clipPath>
<clipPath id="clip8">
  <path d="M 20.726562 12 C 20.726562 16.820312 16.820312 20.726562 12 20.726562 C 7.179688 20.726562 3.273438 16.820312 3.273438 12 C 3.273438 7.179688 7.179688 3.273438 12 3.273438 C 16.820312 3.273438 20.726562 7.179688 20.726562 12 Z M 20.726562 12 "/>
</clipPath>
<clipPath id="clip9">
  <path d="M 18 15.5 L 20.75 15.5 L 20.75 18.5 L 18 18.5 Z M 18 15.5 "/>
</clipPath>
<clipPath id="clip10">
  <path d="M 20.726562 12 C 20.726562 16.820312 16.820312 20.726562 12 20.726562 C 7.179688 20.726562 3.273438 16.820312 3.273438 12 C 3.273438 7.179688 7.179688 3.273438 12 3.273438 C 16.820312 3.273438 20.726562 7.179688 20.726562 12 Z M 20.726562 12 "/>
</clipPath>
<clipPath id="clip11">
  <path d="M 3.25 5.5 L 5.75 5.5 L 5.75 8.5 L 3.25 8.5 Z M 3.25 5.5 "/>
</clipPath>
<clipPath id="clip12">
  <path d="M 20.726562 12 C 20.726562 16.820312 16.820312 20.726562 12 20.726562 C 7.179688 20.726562 3.273438 16.820312 3.273438 12 C 3.273438 7.179688 7.179688 3.273438 12 3.273438 C 16.820312 3.273438 20.726562 7.179688 20.726562 12 Z M 20.726562 12 "/>
</clipPath>
<clipPath id="clip13">
  <path d="M 15 18.25 L 17.75 18.25 L 17.75 20.75 L 15 20.75 Z M 15 18.25 "/>
</clipPath>
<clipPath id="clip14">
  <path d="M 20.726562 12 C 20.726562 16.820312 16.820312 20.726562 12 20.726562 C 7.179688 20.726562 3.273438 16.820312 3.273438 12 C 3.273438 7.179688 7.179688 3.273438 12 3.273438 C 16.820312 3.273438 20.726562 7.179688 20.726562 12 Z M 20.726562 12 "/>
</clipPath>
<clipPath id="clip15">
  <path d="M 6 3.25 L 8.75 3.25 L 8.75 5.75 L 6 5.75 Z M 6 3.25 "/>
</clipPath>
<clipPath id="clip16">
  <path d="M 20.726562 12 C 20.726562 16.820312 16.820312 20.726562 12 20.726562 C 7.179688 20.726562 3.273438 16.820312 3.273438 12 C 3.273438 7.179688 7.179688 3.273438 12 3.273438 C 16.820312 3.273438 20.726562 7.179688 20.726562 12 Z M 20.726562 12 "/>
</clipPath>
<clipPath id="clip17">
  <path d="M 3.25 15.5 L 5.75 15.5 L 5.75 18.5 L 3.25 18.5 Z M 3.25 15.5 "/>
</clipPath>
<clipPath id="clip18">
  <path d="M 20.726562 12 C 20.726562 16.820312 16.820312 20.726562 12 20.726562 C 7.179688 20.726562 3.273438 16.820312 3.273438 12 C 3.273438 7.179688 7.179688 3.273438 12 3.273438 C 16.820312 3.273438 20.726562 7.179688 20.726562 12 Z M 20.726562 12 "/>
</clipPath>
<clipPath id="clip19">
  <path d="M 18 5.5 L 20.75 5.5 L 20.75 8.5 L 18 8.5 Z M 18 5.5 "/>
</clipPath>
<clipPath id="clip20">
  <path d="M 20.726562 12 C 20.726562 16.820312 16.820312 20.726562 12 20.726562 C 7.179688 20.726562 3.273438 16.820312 3.273438 12 C 3.273438 7.179688 7.179688 3.273438 12 3.273438 C 16.820312 3.273438 20.726562 7.179688 20.726562 12 Z M 20.726562 12 "/>
</clipPath>
<clipPath id="clip21">
  <path d="M 6 18.25 L 8.75 18.25 L 8.75 20.75 L 6 20.75 Z M 6 18.25 "/>
</clipPath>
<clipPath id="clip22">
  <path d="M 20.726562 12 C 20.726562 16.820312 16.820312 20.726562 12 20.726562 C 7.179688 20.726562 3.273438 16.820312 3.273438 12 C 3.273438 7.179688 7.179688 3.273438 12 3.273438 C 16.820312 3.273438 20.726562 7.179688 20.726562 12 Z M 20.726562 12 "/>
</clipPath>
<clipPath id="clip23">
  <path d="M 15 3.25 L 17.75 3.25 L 17.75 5.75 L 15 5.75 Z M 15 3.25 "/>
</clipPath>
<clipPath id="clip24">
  <path d="M 20.726562 12 C 20.726562 16.820312 16.820312 20.726562 12 20.726562 C 7.179688 20.726562 3.273438 16.820312 3.273438 12 C 3.273438 7.179688 7.179688 3.273438 12 3.273438 C 16.820312 3.273438 20.726562 7.179688 20.726562 12 Z M 20.726562 12 "/>
</clipPath>
</defs>
<g id="surface1">
<path style=" stroke:none;fill-rule:nonzero;fill:rgb(91.764706%,92.156863%,93.72549%);fill-opacity:1;" d="M 2.023438 0 L 21.976562 0 C 23.09375 0 24 0.90625 24 2.023438 L 24 21.976562 C 24 23.09375 23.09375 24 21.976562 24 L 2.023438 24 C 0.90625 24 0 23.09375 0 21.976562 L 0 2.023438 C 0 0.90625 0.90625 0 2.023438 0 Z M 2.023438 0 "/>
<path style=" stroke:none;fill-rule:nonzero;fill:rgb(49.411765%,34.117647%,76.862745%);fill-opacity:1;" d="M 20.726562 12 C 20.726562 16.820312 16.820312 20.726562 12 20.726562 C 7.179688 20.726562 3.273438 16.820312 3.273438 12 C 3.273438 7.179688 7.179688 3.273438 12 3.273438 C 16.820312 3.273438 20.726562 7.179688 20.726562 12 Z M 20.726562 12 "/>
<path style=" stroke:none;fill-rule:nonzero;fill:rgb(100%,100%,100%);fill-opacity:1;" d="M 11.914062 6.984375 C 12.070312 6.984375 12.195312 7.113281 12.195312 7.265625 L 12.195312 11.785156 C 12.195312 11.941406 12.070312 12.066406 11.914062 12.066406 C 11.757812 12.066406 11.632812 11.941406 11.632812 11.785156 L 11.632812 7.265625 C 11.632812 7.113281 11.757812 6.984375 11.914062 6.984375 Z M 11.914062 6.984375 "/>
<path style=" stroke:none;fill-rule:nonzero;fill:rgb(100%,40%,84.313725%);fill-opacity:1;" d="M 12.136719 12.035156 L 16.789062 16.6875 C 16.835938 16.734375 16.835938 16.816406 16.789062 16.867188 C 16.738281 16.917969 16.65625 16.917969 16.609375 16.867188 L 11.953125 12.21875 C 11.90625 12.167969 11.90625 12.085938 11.953125 12.035156 C 12.003906 11.984375 12.085938 11.984375 12.136719 12.035156 Z M 12.136719 12.035156 "/>
<path style=" stroke:none;fill-rule:nonzero;fill:rgb(100%,100%,100%);fill-opacity:1;" d="M 12.433594 12 C 12.433594 12.273438 12.214844 12.492188 11.945312 12.492188 C 11.671875 12.492188 11.453125 12.273438 11.453125 12 C 11.453125 11.726562 11.671875 11.507812 11.945312 11.507812 C 12.214844 11.507812 12.433594 11.726562 12.433594 12 Z M 12.433594 12 "/>
<g clip-path="url(#clip1)" clip-rule="nonzero">
<g clip-path="url(#clip2)" clip-rule="nonzero">
<path style=" stroke:none;fill-rule:nonzero;fill:rgb(100%,100%,100%);fill-opacity:1;" d="M 11.914062 1.089844 C 12.050781 1.089844 12.160156 1.203125 12.160156 1.339844 L 12.160156 5.320312 C 12.160156 5.457031 12.050781 5.570312 11.914062 5.570312 C 11.777344 5.570312 11.664062 5.457031 11.664062 5.320312 L 11.664062 1.339844 C 11.664062 1.203125 11.777344 1.089844 11.914062 1.089844 Z M 11.914062 1.089844 "/>
</g>
</g>
<g clip-path="url(#clip3)" clip-rule="nonzero">
<g clip-path="url(#clip4)" clip-rule="nonzero">
<path style=" stroke:none;fill-rule:nonzero;fill:rgb(100%,100%,100%);fill-opacity:1;" d="M 11.914062 18.429688 C 12.050781 18.429688 12.160156 18.542969 12.160156 18.679688 L 12.160156 22.660156 C 12.160156 22.796875 12.050781 22.910156 11.914062 22.910156 C 11.777344 22.910156 11.664062 22.796875 11.664062 22.660156 L 11.664062 18.679688 C 11.664062 18.542969 11.777344 18.429688 11.914062 18.429688 Z M 11.914062 18.429688 "/>
</g>
</g>
<g clip-path="url(#clip5)" clip-rule="nonzero">
<g clip-path="url(#clip6)" clip-rule="nonzero">
<path style=" stroke:none;fill-rule:nonzero;fill:rgb(100%,100%,100%);fill-opacity:1;" d="M 22.820312 12.003906 C 22.820312 12.140625 22.710938 12.25 22.574219 12.25 L 18.59375 12.25 C 18.457031 12.25 18.34375 12.140625 18.34375 12.003906 C 18.34375 11.867188 18.457031 11.757812 18.59375 11.757812 L 22.574219 11.757812 C 22.710938 11.757812 22.820312 11.867188 22.820312 12.003906 Z M 22.820312 12.003906 "/>
</g>
</g>
<g clip-path="url(#clip7)" clip-rule="nonzero">
<g clip-path="url(#clip8)" clip-rule="nonzero">
<path style=" stroke:none;fill-rule:nonzero;fill:rgb(100%,100%,100%);fill-opacity:1;" d="M 5.484375 12 C 5.484375 12.136719 5.371094 12.246094 5.234375 12.246094 L 1.253906 12.246094 C 1.117188 12.246094 1.003906 12.136719 1.003906 12 C 1.003906 11.863281 1.117188 11.753906 1.253906 11.753906 L 5.234375 11.753906 C 5.371094 11.753906 5.484375 11.863281 5.484375 12 Z M 5.484375 12 "/>
</g>
</g>
<g clip-path="url(#clip9)" clip-rule="nonzero">
<g clip-path="url(#clip10)" clip-rule="nonzero">
<path style=" stroke:none;fill-rule:nonzero;fill:rgb(100%,100%,100%);fill-opacity:1;" d="M 22.609375 18.242188 C 22.585938 18.285156 22.527344 18.296875 22.484375 18.273438 L 18.257812 15.804688 C 18.210938 15.78125 18.195312 15.722656 18.222656 15.679688 C 18.246094 15.636719 18.304688 15.621094 18.347656 15.648438 L 22.574219 18.113281 C 22.621094 18.140625 22.636719 18.195312 22.609375 18.242188 Z M 22.609375 18.242188 "/>
</g>
</g>
<g clip-path="url(#clip11)" clip-rule="nonzero">
<g clip-path="url(#clip12)" clip-rule="nonzero">
<path style=" stroke:none;fill-rule:nonzero;fill:rgb(100%,100%,100%);fill-opacity:1;" d="M 5.609375 8.320312 C 5.582031 8.367188 5.523438 8.378906 5.480469 8.351562 L 1.253906 5.886719 C 1.210938 5.859375 1.195312 5.804688 1.21875 5.761719 C 1.242188 5.71875 1.300781 5.703125 1.34375 5.726562 L 5.570312 8.195312 C 5.617188 8.21875 5.632812 8.277344 5.609375 8.320312 Z M 5.609375 8.320312 "/>
</g>
</g>
<g clip-path="url(#clip13)" clip-rule="nonzero">
<g clip-path="url(#clip14)" clip-rule="nonzero">
<path style=" stroke:none;fill-rule:nonzero;fill:rgb(100%,100%,100%);fill-opacity:1;" d="M 17.550781 23.03125 C 17.507812 23.054688 17.449219 23.035156 17.425781 22.988281 L 15.203125 18.628906 C 15.179688 18.582031 15.195312 18.527344 15.242188 18.503906 C 15.285156 18.480469 15.34375 18.5 15.367188 18.546875 L 17.589844 22.90625 C 17.613281 22.949219 17.597656 23.007812 17.550781 23.03125 Z M 17.550781 23.03125 "/>
</g>
</g>
<g clip-path="url(#clip15)" clip-rule="nonzero">
<g clip-path="url(#clip16)" clip-rule="nonzero">
<path style=" stroke:none;fill-rule:nonzero;fill:rgb(100%,100%,100%);fill-opacity:1;" d="M 8.589844 5.503906 C 8.546875 5.527344 8.488281 5.507812 8.464844 5.460938 L 6.242188 1.105469 C 6.21875 1.058594 6.234375 1 6.28125 0.980469 C 6.324219 0.957031 6.382812 0.976562 6.40625 1.023438 L 8.628906 5.378906 C 8.652344 5.425781 8.636719 5.480469 8.589844 5.503906 Z M 8.589844 5.503906 "/>
</g>
</g>
<g clip-path="url(#clip17)" clip-rule="nonzero">
<g clip-path="url(#clip18)" clip-rule="nonzero">
<path style=" stroke:none;fill-rule:nonzero;fill:rgb(100%,100%,100%);fill-opacity:1;" d="M 5.609375 15.679688 C 5.632812 15.722656 5.617188 15.777344 5.574219 15.804688 L 1.347656 18.269531 C 1.304688 18.296875 1.246094 18.28125 1.21875 18.238281 C 1.195312 18.195312 1.210938 18.140625 1.253906 18.113281 L 5.480469 15.644531 C 5.527344 15.617188 5.582031 15.632812 5.609375 15.679688 Z M 5.609375 15.679688 "/>
</g>
</g>
<g clip-path="url(#clip19)" clip-rule="nonzero">
<g clip-path="url(#clip20)" clip-rule="nonzero">
<path style=" stroke:none;fill-rule:nonzero;fill:rgb(100%,100%,100%);fill-opacity:1;" d="M 22.539062 5.671875 C 22.566406 5.710938 22.550781 5.769531 22.507812 5.796875 L 18.296875 8.242188 C 18.253906 8.269531 18.195312 8.253906 18.171875 8.210938 C 18.144531 8.167969 18.160156 8.109375 18.207031 8.085938 L 22.414062 5.636719 C 22.460938 5.609375 22.515625 5.625 22.539062 5.671875 Z M 22.539062 5.671875 "/>
</g>
</g>
<g clip-path="url(#clip21)" clip-rule="nonzero">
<g clip-path="url(#clip22)" clip-rule="nonzero">
<path style=" stroke:none;fill-rule:nonzero;fill:rgb(100%,100%,100%);fill-opacity:1;" d="M 8.589844 18.5 C 8.632812 18.523438 8.652344 18.582031 8.628906 18.628906 L 6.402344 22.984375 C 6.378906 23.03125 6.324219 23.050781 6.277344 23.027344 C 6.234375 23.003906 6.214844 22.949219 6.238281 22.902344 L 8.464844 18.542969 C 8.488281 18.5 8.542969 18.480469 8.589844 18.5 Z M 8.589844 18.5 "/>
</g>
</g>
<g clip-path="url(#clip23)" clip-rule="nonzero">
<g clip-path="url(#clip24)" clip-rule="nonzero">
<path style=" stroke:none;fill-rule:nonzero;fill:rgb(100%,100%,100%);fill-opacity:1;" d="M 17.546875 0.976562 C 17.589844 1 17.609375 1.054688 17.585938 1.101562 L 15.359375 5.460938 C 15.335938 5.507812 15.28125 5.523438 15.234375 5.5 C 15.1875 5.476562 15.171875 5.421875 15.195312 5.375 L 17.421875 1.015625 C 17.445312 0.972656 17.5 0.953125 17.546875 0.976562 Z M 17.546875 0.976562 "/>
</g>
</g>
</g>
</svg>
