
<svg xmlns="http://www.w3.org/2000/svg" xmlns:xlink="http://www.w3.org/1999/xlink" width="24px" height="24px" viewBox="0 0 24 24" version="1.1">
<defs>
<linearGradient id="linear0" gradientUnits="userSpaceOnUse" x1="31.18" y1="-3.52" x2="31.18" y2="47.91" gradientTransform="matrix(0.375,0,0,0.375,0,0)">
<stop offset="0" style="stop-color:rgb(16.078431%,71.372549%,96.470588%);stop-opacity:1;"/>
<stop offset="1" style="stop-color:rgb(49.411765%,34.117647%,76.862745%);stop-opacity:1;"/>
</linearGradient>
</defs>
<g id="surface1">
<path style=" stroke:none;fill-rule:nonzero;fill:rgb(91.764706%,92.156863%,93.72549%);fill-opacity:1;" d="M 2.023438 0 L 21.976562 0 C 23.09375 0 24 0.90625 24 2.023438 L 24 21.976562 C 24 23.09375 23.09375 24 21.976562 24 L 2.023438 24 C 0.90625 24 0 23.09375 0 21.976562 L 0 2.023438 C 0 0.90625 0.90625 0 2.023438 0 Z M 2.023438 0 "/>
<path style=" stroke:none;fill-rule:nonzero;fill:url(#linear0);" d="M 18.335938 11.789062 C 17.945312 11.40625 17.335938 11.210938 16.5 11.210938 C 16.03125 11.210938 15.570312 11.28125 15.125 11.417969 C 14.691406 11.550781 14.28125 11.746094 13.910156 12 L 13.910156 12.9375 C 13.910156 13.007812 13.910156 13.050781 13.960938 13.0625 C 14.015625 13.070312 14.03125 13.0625 14.078125 13.015625 C 14.421875 12.761719 14.800781 12.554688 15.203125 12.402344 C 15.574219 12.261719 15.96875 12.191406 16.367188 12.195312 C 16.582031 12.191406 16.800781 12.214844 17.015625 12.265625 C 17.183594 12.304688 17.339844 12.390625 17.46875 12.507812 C 17.597656 12.644531 17.691406 12.808594 17.738281 12.992188 C 17.804688 13.242188 17.832031 13.5 17.828125 13.761719 L 17.828125 13.875 L 15.617188 14.195312 C 14.945312 14.25 14.308594 14.535156 13.820312 15 L 11.046875 6.75 C 10.832031 6.105469 10.226562 5.667969 9.546875 5.664062 C 8.867188 5.667969 8.265625 6.105469 8.046875 6.75 L 4.5 17.3125 C 4.398438 17.617188 4.449219 17.953125 4.636719 18.210938 C 4.824219 18.472656 5.125 18.625 5.445312 18.625 C 5.875 18.625 6.261719 18.347656 6.394531 17.9375 L 7.171875 15.550781 C 7.265625 15.265625 7.53125 15.070312 7.828125 15.070312 L 11.25 15.070312 C 11.550781 15.070312 11.820312 15.265625 11.910156 15.554688 L 12.660156 17.933594 C 12.789062 18.34375 13.175781 18.625 13.609375 18.625 L 15.523438 18.664062 C 15.96875 18.664062 16.40625 18.558594 16.804688 18.363281 C 17.003906 18.261719 17.191406 18.136719 17.359375 17.988281 C 17.523438 17.84375 17.664062 17.675781 17.773438 17.484375 L 17.800781 18.109375 C 17.808594 18.410156 18.058594 18.648438 18.363281 18.644531 C 18.664062 18.636719 18.902344 18.382812 18.898438 18.082031 L 18.898438 13.691406 C 18.914062 12.8125 18.726562 12.179688 18.335938 11.789062 Z M 10.375 13.394531 L 8.710938 13.394531 C 8.492188 13.394531 8.28125 13.289062 8.152344 13.113281 C 8.023438 12.933594 7.984375 12.703125 8.050781 12.496094 L 9.210938 8.804688 C 9.25 8.652344 9.386719 8.546875 9.542969 8.546875 C 9.699219 8.546875 9.835938 8.652344 9.878906 8.804688 L 11.035156 12.496094 C 11.101562 12.703125 11.066406 12.933594 10.9375 13.113281 C 10.804688 13.289062 10.597656 13.394531 10.375 13.394531 Z M 17.875 15.644531 C 17.875 15.914062 17.820312 16.175781 17.707031 16.417969 C 17.597656 16.667969 17.441406 16.898438 17.25 17.09375 C 17.054688 17.285156 16.832031 17.445312 16.582031 17.5625 C 16.335938 17.679688 16.066406 17.742188 15.789062 17.742188 C 15.429688 17.757812 15.074219 17.644531 14.78125 17.429688 C 14.65625 17.332031 14.558594 17.203125 14.492188 17.054688 L 14.476562 17 C 14.417969 16.851562 14.390625 16.695312 14.390625 16.539062 C 14.367188 16.125 14.53125 15.71875 14.84375 15.441406 C 15.179688 15.171875 15.585938 15.007812 16.011719 14.960938 L 17.578125 14.765625 C 17.652344 14.757812 17.726562 14.78125 17.789062 14.828125 C 17.84375 14.878906 17.875 14.953125 17.875 15.03125 Z M 17.875 15.644531 "/>
</g>
</svg>
