
<svg xmlns="http://www.w3.org/2000/svg" xmlns:xlink="http://www.w3.org/1999/xlink" width="24px" height="24px" viewBox="0 0 24 24" version="1.1">
<g id="surface1">
<path style=" stroke:none;fill-rule:nonzero;fill:rgb(49.411765%,34.117647%,76.862745%);fill-opacity:1;" d="M 2.023438 0 L 21.976562 0 C 23.09375 0 24 0.90625 24 2.023438 L 24 21.976562 C 24 23.09375 23.09375 24 21.976562 24 L 2.023438 24 C 0.90625 24 0 23.09375 0 21.976562 L 0 2.023438 C 0 0.90625 0.90625 0 2.023438 0 Z M 2.023438 0 "/>
<path style=" stroke:none;fill-rule:nonzero;fill:rgb(100%,100%,100%);fill-opacity:1;" d="M 19.441406 11.738281 C 19.332031 11.507812 19.199219 11.289062 19.046875 11.085938 C 18.878906 10.941406 18.660156 10.875 18.441406 10.894531 C 17.792969 10.941406 17.1875 10.566406 16.941406 9.964844 C 16.691406 9.378906 16.824219 8.699219 17.273438 8.25 C 17.703125 7.8125 17.703125 7.109375 17.273438 6.671875 C 17.074219 6.46875 16.804688 6.351562 16.523438 6.347656 C 16.207031 6.355469 15.902344 6.476562 15.667969 6.6875 C 15.347656 6.945312 14.953125 7.085938 14.542969 7.09375 C 14.375 7.09375 14.210938 7.0625 14.058594 7.003906 C 13.53125 6.746094 13.179688 6.230469 13.125 5.648438 C 13.140625 5.078125 12.734375 4.585938 12.171875 4.5 L 12.101562 4.476562 L 11.878906 4.476562 C 11.847656 4.492188 11.816406 4.5 11.78125 4.507812 C 11.257812 4.605469 10.882812 5.070312 10.894531 5.605469 C 10.917969 6.234375 10.554688 6.8125 9.976562 7.066406 C 9.386719 7.320312 8.699219 7.183594 8.25 6.726562 C 8.023438 6.523438 7.734375 6.410156 7.433594 6.40625 C 7.152344 6.40625 6.882812 6.519531 6.683594 6.714844 C 6.253906 7.152344 6.253906 7.851562 6.683594 8.289062 C 7.125 8.71875 7.273438 9.371094 7.058594 9.949219 C 6.832031 10.542969 6.265625 10.9375 5.628906 10.941406 C 5.117188 10.976562 4.734375 11.152344 4.503906 11.878906 L 4.503906 12.234375 C 4.527344 12.289062 4.546875 12.347656 4.566406 12.40625 C 4.714844 12.84375 5.125 13.144531 5.585938 13.15625 C 6.242188 13.078125 6.871094 13.433594 7.140625 14.039062 C 7.40625 14.640625 7.246094 15.347656 6.746094 15.78125 C 6.339844 16.21875 6.339844 16.898438 6.746094 17.335938 C 6.953125 17.546875 7.234375 17.664062 7.527344 17.664062 C 7.796875 17.648438 8.050781 17.539062 8.25 17.359375 C 8.554688 17.0625 8.953125 16.890625 9.375 16.871094 C 10.230469 16.875 10.921875 17.570312 10.914062 18.429688 C 10.953125 18.921875 11.128906 19.300781 11.851562 19.554688 L 12.128906 19.554688 L 12.300781 19.460938 C 12.527344 19.351562 12.742188 19.21875 12.941406 19.066406 C 13.09375 18.863281 13.167969 18.617188 13.160156 18.363281 C 13.203125 17.800781 13.519531 17.292969 14.007812 17.007812 C 14.195312 16.902344 14.410156 16.847656 14.625 16.851562 C 15.035156 16.859375 15.429688 17.007812 15.75 17.265625 C 15.988281 17.46875 16.289062 17.585938 16.605469 17.589844 C 16.886719 17.59375 17.15625 17.480469 17.355469 17.28125 C 17.792969 16.828125 17.792969 16.113281 17.355469 15.664062 C 17.042969 15.269531 16.90625 14.765625 16.980469 14.269531 C 17.140625 13.636719 17.691406 13.183594 18.339844 13.144531 C 18.929688 13.179688 19.453125 12.777344 19.574219 12.203125 L 19.574219 11.929688 Z M 12 14.828125 C 10.4375 14.828125 9.171875 13.5625 9.171875 12 C 9.171875 10.4375 10.4375 9.171875 12 9.171875 C 13.5625 9.171875 14.828125 10.4375 14.828125 12 C 14.816406 13.554688 13.554688 14.816406 12 14.828125 Z M 12 14.828125 "/>
</g>
</svg>
