
<svg xmlns="http://www.w3.org/2000/svg" xmlns:xlink="http://www.w3.org/1999/xlink" width="24px" height="24px" viewBox="0 0 24 24" version="1.1">
<g id="surface1">
<path style=" stroke:none;fill-rule:nonzero;fill:rgb(91.764706%,92.156863%,93.72549%);fill-opacity:1;" d="M 2.023438 0 L 21.976562 0 C 23.09375 0 24 0.90625 24 2.023438 L 24 21.976562 C 24 23.09375 23.09375 24 21.976562 24 L 2.023438 24 C 0.90625 24 0 23.09375 0 21.976562 L 0 2.023438 C 0 0.90625 0.90625 0 2.023438 0 Z M 2.023438 0 "/>
<path style=" stroke:none;fill-rule:nonzero;fill:rgb(49.411765%,34.117647%,76.862745%);fill-opacity:1;" d="M 13.339844 8.492188 L 6.054688 8.492188 L 6.054688 7.335938 L 9.03125 7.335938 L 9.03125 5.808594 L 10.378906 5.808594 L 10.378906 7.335938 L 13.339844 7.335938 Z M 9.703125 14.066406 C 9.265625 14.078125 8.828125 14.011719 8.410156 13.875 C 8.078125 13.753906 7.765625 13.570312 7.5 13.335938 C 7.261719 13.128906 7.070312 12.871094 6.941406 12.585938 C 6.816406 12.316406 6.75 12.023438 6.75 11.726562 L 6.75 11.3125 C 6.75 11.011719 6.8125 10.714844 6.933594 10.441406 C 7.0625 10.152344 7.253906 9.898438 7.492188 9.691406 C 7.765625 9.460938 8.078125 9.285156 8.414062 9.167969 C 8.832031 9.03125 9.269531 8.960938 9.710938 8.96875 C 10.148438 8.960938 10.585938 9.03125 11.003906 9.167969 C 11.339844 9.285156 11.652344 9.464844 11.925781 9.695312 C 12.164062 9.90625 12.351562 10.160156 12.484375 10.445312 C 12.605469 10.71875 12.667969 11.011719 12.667969 11.308594 L 12.667969 11.722656 C 12.667969 12.019531 12.605469 12.3125 12.484375 12.582031 C 12.355469 12.867188 12.164062 13.125 11.925781 13.332031 C 11.65625 13.570312 11.339844 13.753906 11 13.875 C 10.582031 14.011719 10.144531 14.078125 9.703125 14.066406 Z M 9.703125 12.976562 C 9.953125 12.984375 10.199219 12.945312 10.4375 12.867188 C 10.628906 12.804688 10.804688 12.703125 10.957031 12.574219 C 11.089844 12.453125 11.195312 12.308594 11.269531 12.148438 C 11.335938 11.992188 11.371094 11.824219 11.371094 11.65625 L 11.371094 11.382812 C 11.367188 11.214844 11.335938 11.046875 11.269531 10.894531 C 11.195312 10.730469 11.089844 10.585938 10.957031 10.464844 C 10.804688 10.335938 10.628906 10.234375 10.441406 10.171875 C 9.960938 10.023438 9.449219 10.023438 8.96875 10.171875 C 8.78125 10.234375 8.605469 10.335938 8.453125 10.464844 C 8.320312 10.585938 8.210938 10.730469 8.140625 10.894531 C 8.074219 11.046875 8.039062 11.214844 8.039062 11.382812 L 8.039062 11.65625 C 8.039062 11.824219 8.074219 11.992188 8.140625 12.148438 C 8.210938 12.308594 8.320312 12.453125 8.453125 12.574219 C 8.605469 12.707031 8.785156 12.804688 8.976562 12.867188 C 9.210938 12.945312 9.457031 12.984375 9.703125 12.976562 Z M 9.539062 17.296875 L 16.289062 17.296875 L 16.289062 18.484375 L 8.179688 18.484375 L 8.179688 14.972656 L 9.539062 14.972656 Z M 17.730469 10.875 L 15.925781 10.875 L 15.925781 15.140625 L 14.578125 15.140625 L 14.578125 5.933594 L 15.925781 5.933594 L 15.925781 9.703125 L 17.730469 9.703125 Z M 17.730469 10.875 "/>
<path style=" stroke:none;fill-rule:nonzero;fill:rgb(92.54902%,25.098039%,47.843137%);fill-opacity:1;" d="M 15.53125 18.179688 L 14.335938 18.609375 L 14.167969 11.988281 L 18.242188 17.203125 L 16.976562 17.660156 L 17.660156 19.558594 L 16.214844 20.082031 Z M 15.53125 18.179688 "/>
<path style=" stroke:none;fill-rule:nonzero;fill:rgb(100%,100%,100%);fill-opacity:1;" d="M 14.601562 13.203125 L 17.578125 17.015625 L 16.453125 17.414062 L 17.136719 19.316406 L 16.453125 19.5625 L 15.777344 17.664062 L 14.726562 18.039062 L 14.601562 13.203125 M 13.726562 10.777344 L 13.792969 13.222656 L 13.914062 18.058594 L 13.945312 19.183594 L 14.996094 18.808594 L 15.289062 18.703125 L 15.695312 19.828125 L 15.972656 20.578125 L 16.722656 20.304688 L 17.402344 20.058594 L 18.152344 19.785156 L 17.878906 19.035156 L 17.472656 17.910156 L 17.847656 17.777344 L 18.898438 17.402344 L 18.21875 16.5 L 15.234375 12.703125 L 13.734375 10.777344 Z M 13.726562 10.777344 "/>
</g>
</svg>
