
<svg xmlns="http://www.w3.org/2000/svg" xmlns:xlink="http://www.w3.org/1999/xlink" width="24px" height="24px" viewBox="0 0 24 24" version="1.1">
<g id="surface1">
<path style=" stroke:none;fill-rule:nonzero;fill:rgb(36.078431%,41.960784%,75.294118%);fill-opacity:1;" d="M 2.023438 0 L 21.976562 0 C 23.09375 0 24 0.90625 24 2.023438 L 24 21.976562 C 24 23.09375 23.09375 24 21.976562 24 L 2.023438 24 C 0.90625 24 0 23.09375 0 21.976562 L 0 2.023438 C 0 0.90625 0.90625 0 2.023438 0 Z M 2.023438 0 "/>
<path style=" stroke:none;fill-rule:nonzero;fill:rgb(16.078431%,71.372549%,96.470588%);fill-opacity:1;" d="M 17.496094 9.878906 L 16.535156 9.878906 L 16.535156 8.25 C 16.523438 7.820312 16.179688 7.476562 15.75 7.464844 L 9.035156 7.464844 C 8.0625 7.464844 7.277344 6.679688 7.273438 5.707031 L 7.273438 4.875 L 8.25 4.875 L 8.25 5.71875 C 8.25 6.15625 8.605469 6.515625 9.046875 6.515625 L 15.75 6.515625 C 16.722656 6.515625 17.511719 7.304688 17.511719 8.277344 Z M 17.496094 9.878906 "/>
<path style=" stroke:none;fill-rule:nonzero;fill:rgb(100%,100%,100%);fill-opacity:1;" d="M 18.703125 9.300781 L 5.296875 9.300781 C 4.738281 9.300781 4.285156 9.753906 4.285156 10.3125 L 4.285156 18.125 C 4.285156 18.683594 4.738281 19.136719 5.296875 19.136719 L 18.703125 19.136719 C 19.261719 19.136719 19.714844 18.683594 19.714844 18.125 L 19.714844 10.3125 C 19.714844 9.753906 19.261719 9.300781 18.703125 9.300781 Z M 18.703125 9.300781 "/>
<path style=" stroke:none;fill-rule:nonzero;fill:rgb(79.607843%,79.607843%,79.607843%);fill-opacity:1;" d="M 15.679688 15.695312 L 8.3125 15.695312 C 8.1875 15.695312 8.0625 15.75 7.972656 15.839844 C 7.882812 15.929688 7.832031 16.054688 7.835938 16.179688 L 7.835938 16.78125 C 7.839844 17.042969 8.054688 17.25 8.3125 17.25 L 15.679688 17.25 C 15.804688 17.25 15.929688 17.203125 16.019531 17.109375 C 16.109375 17.019531 16.164062 16.898438 16.164062 16.769531 L 16.164062 16.171875 C 16.164062 15.902344 15.945312 15.6875 15.679688 15.6875 Z M 15.679688 15.695312 "/>
<path style=" stroke:none;fill-rule:nonzero;fill:rgb(92.54902%,25.098039%,47.843137%);fill-opacity:1;" d="M 6.828125 15.695312 L 6.492188 15.695312 C 6.359375 15.695312 6.234375 15.746094 6.144531 15.835938 C 6.050781 15.929688 6 16.050781 6 16.179688 L 6 16.78125 C 6.007812 17.046875 6.226562 17.257812 6.492188 17.25 L 6.828125 17.25 C 6.957031 17.25 7.078125 17.203125 7.171875 17.109375 C 7.261719 17.019531 7.3125 16.898438 7.3125 16.769531 L 7.3125 16.171875 C 7.3125 15.902344 7.09375 15.6875 6.828125 15.6875 Z M 6.828125 15.695312 "/>
<path style=" stroke:none;fill-rule:nonzero;fill:rgb(79.607843%,79.607843%,79.607843%);fill-opacity:1;" d="M 17.589844 15.695312 L 17.25 15.695312 C 16.984375 15.695312 16.765625 15.914062 16.765625 16.179688 L 16.765625 16.78125 C 16.773438 17.042969 16.988281 17.25 17.25 17.25 L 17.585938 17.25 C 17.714844 17.25 17.839844 17.203125 17.929688 17.109375 C 18.019531 17.019531 18.070312 16.898438 18.070312 16.769531 L 18.070312 16.171875 C 18.070312 15.902344 17.855469 15.6875 17.585938 15.6875 Z M 17.589844 15.695312 "/>
<path style=" stroke:none;fill-rule:nonzero;fill:rgb(79.607843%,79.607843%,79.607843%);fill-opacity:1;" d="M 10.28125 13.464844 L 9.941406 13.464844 C 9.675781 13.464844 9.460938 13.679688 9.460938 13.945312 L 9.460938 14.546875 C 9.460938 14.671875 9.511719 14.796875 9.601562 14.886719 C 9.691406 14.976562 9.8125 15.03125 9.941406 15.03125 L 10.28125 15.03125 C 10.410156 15.03125 10.53125 14.976562 10.625 14.886719 C 10.710938 14.796875 10.765625 14.671875 10.761719 14.546875 L 10.761719 13.945312 C 10.761719 13.679688 10.546875 13.464844 10.28125 13.464844 Z M 10.28125 13.464844 "/>
<path style=" stroke:none;fill-rule:nonzero;fill:rgb(92.54902%,25.098039%,47.843137%);fill-opacity:1;" d="M 8.570312 13.464844 L 6.492188 13.464844 C 6.363281 13.460938 6.238281 13.511719 6.144531 13.601562 C 6.050781 13.695312 6 13.816406 6 13.945312 L 6 14.546875 C 6 14.8125 6.21875 15.03125 6.484375 15.03125 L 8.566406 15.03125 C 8.832031 15.03125 9.046875 14.8125 9.046875 14.546875 L 9.046875 13.945312 C 9.046875 13.820312 9 13.695312 8.90625 13.605469 C 8.816406 13.515625 8.695312 13.464844 8.566406 13.464844 Z M 8.570312 13.464844 "/>
<path style=" stroke:none;fill-rule:nonzero;fill:rgb(79.607843%,79.607843%,79.607843%);fill-opacity:1;" d="M 12.109375 13.464844 L 11.773438 13.464844 C 11.644531 13.464844 11.519531 13.515625 11.429688 13.605469 C 11.339844 13.695312 11.289062 13.820312 11.289062 13.945312 L 11.289062 14.546875 C 11.289062 14.8125 11.503906 15.03125 11.773438 15.03125 L 12.109375 15.03125 C 12.375 15.03125 12.59375 14.8125 12.59375 14.546875 L 12.59375 13.945312 C 12.59375 13.820312 12.539062 13.695312 12.449219 13.605469 C 12.359375 13.515625 12.234375 13.464844 12.109375 13.464844 Z M 12.109375 13.464844 "/>
<path style=" stroke:none;fill-rule:nonzero;fill:rgb(79.607843%,79.607843%,79.607843%);fill-opacity:1;" d="M 13.9375 13.464844 L 13.597656 13.464844 C 13.335938 13.46875 13.125 13.683594 13.125 13.945312 L 13.125 14.546875 C 13.125 14.671875 13.171875 14.796875 13.265625 14.886719 C 13.355469 14.976562 13.476562 15.03125 13.605469 15.03125 L 13.945312 15.03125 C 14.074219 15.03125 14.195312 14.976562 14.289062 14.886719 C 14.375 14.796875 14.429688 14.671875 14.425781 14.546875 L 14.425781 13.945312 C 14.425781 13.679688 14.210938 13.464844 13.945312 13.464844 Z M 13.9375 13.464844 "/>
<path style=" stroke:none;fill-rule:nonzero;fill:rgb(79.607843%,79.607843%,79.607843%);fill-opacity:1;" d="M 15.75 13.464844 L 15.414062 13.464844 C 15.285156 13.464844 15.160156 13.515625 15.070312 13.605469 C 14.980469 13.695312 14.929688 13.820312 14.929688 13.945312 L 14.929688 14.546875 C 14.929688 14.8125 15.144531 15.03125 15.414062 15.03125 L 15.75 15.03125 C 16.015625 15.03125 16.234375 14.8125 16.234375 14.546875 L 16.234375 13.945312 C 16.234375 13.820312 16.183594 13.695312 16.09375 13.605469 C 16 13.515625 15.878906 13.464844 15.75 13.464844 Z M 15.75 13.464844 "/>
<path style=" stroke:none;fill-rule:nonzero;fill:rgb(79.607843%,79.607843%,79.607843%);fill-opacity:1;" d="M 17.589844 13.464844 L 17.25 13.464844 C 17.121094 13.464844 17 13.515625 16.90625 13.605469 C 16.816406 13.695312 16.765625 13.820312 16.765625 13.945312 L 16.765625 14.546875 C 16.765625 14.8125 16.984375 15.03125 17.25 15.03125 L 17.585938 15.03125 C 17.855469 15.03125 18.070312 14.8125 18.070312 14.546875 L 18.070312 13.945312 C 18.070312 13.820312 18.019531 13.695312 17.929688 13.605469 C 17.839844 13.515625 17.714844 13.464844 17.585938 13.464844 Z M 17.589844 13.464844 "/>
<path style=" stroke:none;fill-rule:nonzero;fill:rgb(79.607843%,79.607843%,79.607843%);fill-opacity:1;" d="M 9.265625 11.25 L 8.929688 11.25 C 8.800781 11.25 8.679688 11.296875 8.585938 11.390625 C 8.496094 11.480469 8.445312 11.601562 8.445312 11.730469 L 8.445312 12.328125 C 8.445312 12.597656 8.660156 12.8125 8.929688 12.8125 L 9.265625 12.8125 C 9.398438 12.8125 9.523438 12.761719 9.617188 12.664062 C 9.707031 12.570312 9.753906 12.441406 9.75 12.3125 L 9.75 11.710938 C 9.742188 11.453125 9.523438 11.25 9.265625 11.25 Z M 9.265625 11.25 "/>
<path style=" stroke:none;fill-rule:nonzero;fill:rgb(79.607843%,79.607843%,79.607843%);fill-opacity:1;" d="M 11.097656 11.25 L 10.753906 11.25 C 10.625 11.25 10.503906 11.296875 10.414062 11.390625 C 10.320312 11.480469 10.273438 11.601562 10.273438 11.730469 L 10.273438 12.328125 C 10.273438 12.597656 10.488281 12.8125 10.753906 12.8125 L 11.097656 12.8125 C 11.226562 12.8125 11.347656 12.761719 11.4375 12.671875 C 11.527344 12.582031 11.578125 12.457031 11.578125 12.328125 L 11.578125 11.730469 C 11.578125 11.464844 11.359375 11.25 11.097656 11.25 Z M 11.097656 11.25 "/>
<path style=" stroke:none;fill-rule:nonzero;fill:rgb(79.607843%,79.607843%,79.607843%);fill-opacity:1;" d="M 12.921875 11.25 L 12.582031 11.25 C 12.316406 11.25 12.101562 11.464844 12.101562 11.730469 L 12.101562 12.328125 C 12.101562 12.457031 12.148438 12.582031 12.242188 12.671875 C 12.332031 12.761719 12.453125 12.8125 12.582031 12.8125 L 12.921875 12.8125 C 13.050781 12.8125 13.171875 12.761719 13.265625 12.671875 C 13.351562 12.582031 13.402344 12.457031 13.402344 12.328125 L 13.402344 11.730469 C 13.402344 11.464844 13.1875 11.25 12.921875 11.25 Z M 12.921875 11.25 "/>
<path style=" stroke:none;fill-rule:nonzero;fill:rgb(79.607843%,79.607843%,79.607843%);fill-opacity:1;" d="M 14.75 11.25 L 14.410156 11.25 C 14.28125 11.25 14.160156 11.296875 14.070312 11.390625 C 13.976562 11.480469 13.929688 11.601562 13.929688 11.730469 L 13.929688 12.328125 C 13.929688 12.597656 14.144531 12.8125 14.410156 12.8125 L 14.75 12.8125 C 15.015625 12.8125 15.234375 12.597656 15.234375 12.328125 L 15.234375 11.730469 C 15.234375 11.601562 15.179688 11.480469 15.089844 11.390625 C 15 11.296875 14.875 11.25 14.75 11.25 Z M 14.75 11.25 "/>
<path style=" stroke:none;fill-rule:nonzero;fill:rgb(79.607843%,79.607843%,79.607843%);fill-opacity:1;" d="M 17.507812 11.25 L 16.183594 11.25 C 16.054688 11.25 15.933594 11.296875 15.84375 11.390625 C 15.75 11.480469 15.703125 11.601562 15.703125 11.730469 L 15.703125 12.328125 C 15.703125 12.597656 15.917969 12.8125 16.183594 12.8125 L 17.507812 12.8125 C 17.640625 12.816406 17.769531 12.765625 17.863281 12.671875 C 17.957031 12.574219 18.007812 12.445312 18 12.3125 L 18 11.710938 C 17.992188 11.449219 17.773438 11.242188 17.507812 11.25 Z M 17.507812 11.25 "/>
<path style=" stroke:none;fill-rule:nonzero;fill:rgb(92.54902%,25.098039%,47.843137%);fill-opacity:1;" d="M 7.351562 11.25 L 6.433594 11.25 C 6.171875 11.25 5.953125 11.464844 5.953125 11.730469 L 5.953125 12.328125 C 5.953125 12.457031 6.003906 12.582031 6.09375 12.671875 C 6.183594 12.761719 6.304688 12.8125 6.433594 12.8125 L 7.351562 12.8125 C 7.621094 12.8125 7.835938 12.597656 7.835938 12.328125 L 7.835938 11.730469 C 7.835938 11.601562 7.785156 11.480469 7.695312 11.390625 C 7.605469 11.296875 7.480469 11.25 7.351562 11.25 Z M 7.351562 11.25 "/>
</g>
</svg>
