
<svg xmlns="http://www.w3.org/2000/svg" xmlns:xlink="http://www.w3.org/1999/xlink" width="24px" height="24px" viewBox="0 0 24 24" version="1.1">
<defs>
<clipPath id="clip1">
  <path d="M 11.25 19 L 19.75 19 L 19.75 24 L 11.25 24 Z M 11.25 19 "/>
</clipPath>
<clipPath id="clip2">
  <path d="M 2.023438 0 L 21.976562 0 C 23.09375 0 24 0.90625 24 2.023438 L 24 21.976562 C 24 23.09375 23.09375 24 21.976562 24 L 2.023438 24 C 0.90625 24 0 23.09375 0 21.976562 L 0 2.023438 C 0 0.90625 0.90625 0 2.023438 0 Z M 2.023438 0 "/>
</clipPath>
<clipPath id="clip3">
  <path d="M 14.75 16.75 L 18.75 16.75 L 18.75 19 L 14.75 19 Z M 14.75 16.75 "/>
</clipPath>
<clipPath id="clip4">
  <path d="M 2.023438 0 L 21.976562 0 C 23.09375 0 24 0.90625 24 2.023438 L 24 21.976562 C 24 23.09375 23.09375 24 21.976562 24 L 2.023438 24 C 0.90625 24 0 23.09375 0 21.976562 L 0 2.023438 C 0 0.90625 0.90625 0 2.023438 0 Z M 2.023438 0 "/>
</clipPath>
<clipPath id="clip5">
  <path d="M 18.25 17.75 L 19 17.75 L 19 18.25 L 18.25 18.25 Z M 18.25 17.75 "/>
</clipPath>
<clipPath id="clip6">
  <path d="M 2.023438 0 L 21.976562 0 C 23.09375 0 24 0.90625 24 2.023438 L 24 21.976562 C 24 23.09375 23.09375 24 21.976562 24 L 2.023438 24 C 0.90625 24 0 23.09375 0 21.976562 L 0 2.023438 C 0 0.90625 0.90625 0 2.023438 0 Z M 2.023438 0 "/>
</clipPath>
<clipPath id="clip7">
  <path d="M 9.75 17.75 L 12 17.75 L 12 18.75 L 9.75 18.75 Z M 9.75 17.75 "/>
</clipPath>
<clipPath id="clip8">
  <path d="M 2.023438 0 L 21.976562 0 C 23.09375 0 24 0.90625 24 2.023438 L 24 21.976562 C 24 23.09375 23.09375 24 21.976562 24 L 2.023438 24 C 0.90625 24 0 23.09375 0 21.976562 L 0 2.023438 C 0 0.90625 0.90625 0 2.023438 0 Z M 2.023438 0 "/>
</clipPath>
<clipPath id="clip9">
  <path d="M 13.75 18.25 L 14.25 18.25 L 14.25 18.75 L 13.75 18.75 Z M 13.75 18.25 "/>
</clipPath>
<clipPath id="clip10">
  <path d="M 2.023438 0 L 21.976562 0 C 23.09375 0 24 0.90625 24 2.023438 L 24 21.976562 C 24 23.09375 23.09375 24 21.976562 24 L 2.023438 24 C 0.90625 24 0 23.09375 0 21.976562 L 0 2.023438 C 0 0.90625 0.90625 0 2.023438 0 Z M 2.023438 0 "/>
</clipPath>
<clipPath id="clip11">
  <path d="M 7.75 15.5 L 10.25 15.5 L 10.25 18 L 7.75 18 Z M 7.75 15.5 "/>
</clipPath>
<clipPath id="clip12">
  <path d="M 2.023438 0 L 21.976562 0 C 23.09375 0 24 0.90625 24 2.023438 L 24 21.976562 C 24 23.09375 23.09375 24 21.976562 24 L 2.023438 24 C 0.90625 24 0 23.09375 0 21.976562 L 0 2.023438 C 0 0.90625 0.90625 0 2.023438 0 Z M 2.023438 0 "/>
</clipPath>
<clipPath id="clip13">
  <path d="M 0 0 L 22.25 0 L 22.25 22.5 L 0 22.5 Z M 0 0 "/>
</clipPath>
<clipPath id="clip14">
  <path d="M 2.023438 0 L 21.976562 0 C 23.09375 0 24 0.90625 24 2.023438 L 24 21.976562 C 24 23.09375 23.09375 24 21.976562 24 L 2.023438 24 C 0.90625 24 0 23.09375 0 21.976562 L 0 2.023438 C 0 0.90625 0.90625 0 2.023438 0 Z M 2.023438 0 "/>
</clipPath>
<clipPath id="clip15">
  <path d="M 10.5 15.75 L 12.5 15.75 L 12.5 17.75 L 10.5 17.75 Z M 10.5 15.75 "/>
</clipPath>
<clipPath id="clip16">
  <path d="M 2.023438 0 L 21.976562 0 C 23.09375 0 24 0.90625 24 2.023438 L 24 21.976562 C 24 23.09375 23.09375 24 21.976562 24 L 2.023438 24 C 0.90625 24 0 23.09375 0 21.976562 L 0 2.023438 C 0 0.90625 0.90625 0 2.023438 0 Z M 2.023438 0 "/>
</clipPath>
<clipPath id="clip17">
  <path d="M 13 16.25 L 13.75 16.25 L 13.75 17 L 13 17 Z M 13 16.25 "/>
</clipPath>
<clipPath id="clip18">
  <path d="M 2.023438 0 L 21.976562 0 C 23.09375 0 24 0.90625 24 2.023438 L 24 21.976562 C 24 23.09375 23.09375 24 21.976562 24 L 2.023438 24 C 0.90625 24 0 23.09375 0 21.976562 L 0 2.023438 C 0 0.90625 0.90625 0 2.023438 0 Z M 2.023438 0 "/>
</clipPath>
<clipPath id="clip19">
  <path d="M 14 16.25 L 14.5 16.25 L 14.5 17 L 14 17 Z M 14 16.25 "/>
</clipPath>
<clipPath id="clip20">
  <path d="M 2.023438 0 L 21.976562 0 C 23.09375 0 24 0.90625 24 2.023438 L 24 21.976562 C 24 23.09375 23.09375 24 21.976562 24 L 2.023438 24 C 0.90625 24 0 23.09375 0 21.976562 L 0 2.023438 C 0 0.90625 0.90625 0 2.023438 0 Z M 2.023438 0 "/>
</clipPath>
<clipPath id="clip21">
  <path d="M 12.5 16.75 L 13.5 16.75 L 13.5 18 L 12.5 18 Z M 12.5 16.75 "/>
</clipPath>
<clipPath id="clip22">
  <path d="M 2.023438 0 L 21.976562 0 C 23.09375 0 24 0.90625 24 2.023438 L 24 21.976562 C 24 23.09375 23.09375 24 21.976562 24 L 2.023438 24 C 0.90625 24 0 23.09375 0 21.976562 L 0 2.023438 C 0 0.90625 0.90625 0 2.023438 0 Z M 2.023438 0 "/>
</clipPath>
<clipPath id="clip23">
  <path d="M 10.25 10.25 L 11 10.25 L 11 11 L 10.25 11 Z M 10.25 10.25 "/>
</clipPath>
<clipPath id="clip24">
  <path d="M 2.023438 0 L 21.976562 0 C 23.09375 0 24 0.90625 24 2.023438 L 24 21.976562 C 24 23.09375 23.09375 24 21.976562 24 L 2.023438 24 C 0.90625 24 0 23.09375 0 21.976562 L 0 2.023438 C 0 0.90625 0.90625 0 2.023438 0 Z M 2.023438 0 "/>
</clipPath>
<clipPath id="clip25">
  <path d="M 8.5 14 L 10.25 14 L 10.25 15.25 L 8.5 15.25 Z M 8.5 14 "/>
</clipPath>
<clipPath id="clip26">
  <path d="M 2.023438 0 L 21.976562 0 C 23.09375 0 24 0.90625 24 2.023438 L 24 21.976562 C 24 23.09375 23.09375 24 21.976562 24 L 2.023438 24 C 0.90625 24 0 23.09375 0 21.976562 L 0 2.023438 C 0 0.90625 0.90625 0 2.023438 0 Z M 2.023438 0 "/>
</clipPath>
<clipPath id="clip27">
  <path d="M 12.75 5.75 L 15.25 5.75 L 15.25 8.75 L 12.75 8.75 Z M 12.75 5.75 "/>
</clipPath>
<clipPath id="clip28">
  <path d="M 2.023438 0 L 21.976562 0 C 23.09375 0 24 0.90625 24 2.023438 L 24 21.976562 C 24 23.09375 23.09375 24 21.976562 24 L 2.023438 24 C 0.90625 24 0 23.09375 0 21.976562 L 0 2.023438 C 0 0.90625 0.90625 0 2.023438 0 Z M 2.023438 0 "/>
</clipPath>
<clipPath id="clip29">
  <path d="M 12.25 8.25 L 13 8.25 L 13 9.25 L 12.25 9.25 Z M 12.25 8.25 "/>
</clipPath>
<clipPath id="clip30">
  <path d="M 2.023438 0 L 21.976562 0 C 23.09375 0 24 0.90625 24 2.023438 L 24 21.976562 C 24 23.09375 23.09375 24 21.976562 24 L 2.023438 24 C 0.90625 24 0 23.09375 0 21.976562 L 0 2.023438 C 0 0.90625 0.90625 0 2.023438 0 Z M 2.023438 0 "/>
</clipPath>
<clipPath id="clip31">
  <path d="M 10.75 13.5 L 11.75 13.5 L 11.75 14.25 L 10.75 14.25 Z M 10.75 13.5 "/>
</clipPath>
<clipPath id="clip32">
  <path d="M 2.023438 0 L 21.976562 0 C 23.09375 0 24 0.90625 24 2.023438 L 24 21.976562 C 24 23.09375 23.09375 24 21.976562 24 L 2.023438 24 C 0.90625 24 0 23.09375 0 21.976562 L 0 2.023438 C 0 0.90625 0.90625 0 2.023438 0 Z M 2.023438 0 "/>
</clipPath>
<clipPath id="clip33">
  <path d="M 10.25 11.5 L 11.25 11.5 L 11.25 13 L 10.25 13 Z M 10.25 11.5 "/>
</clipPath>
<clipPath id="clip34">
  <path d="M 2.023438 0 L 21.976562 0 C 23.09375 0 24 0.90625 24 2.023438 L 24 21.976562 C 24 23.09375 23.09375 24 21.976562 24 L 2.023438 24 C 0.90625 24 0 23.09375 0 21.976562 L 0 2.023438 C 0 0.90625 0.90625 0 2.023438 0 Z M 2.023438 0 "/>
</clipPath>
<clipPath id="clip35">
  <path d="M 10.75 13.25 L 11.25 13.25 L 11.25 13.75 L 10.75 13.75 Z M 10.75 13.25 "/>
</clipPath>
<clipPath id="clip36">
  <path d="M 2.023438 0 L 21.976562 0 C 23.09375 0 24 0.90625 24 2.023438 L 24 21.976562 C 24 23.09375 23.09375 24 21.976562 24 L 2.023438 24 C 0.90625 24 0 23.09375 0 21.976562 L 0 2.023438 C 0 0.90625 0.90625 0 2.023438 0 Z M 2.023438 0 "/>
</clipPath>
<clipPath id="clip37">
  <path d="M 2.5 13.5 L 3 13.5 L 3 14.25 L 2.5 14.25 Z M 2.5 13.5 "/>
</clipPath>
<clipPath id="clip38">
  <path d="M 2.023438 0 L 21.976562 0 C 23.09375 0 24 0.90625 24 2.023438 L 24 21.976562 C 24 23.09375 23.09375 24 21.976562 24 L 2.023438 24 C 0.90625 24 0 23.09375 0 21.976562 L 0 2.023438 C 0 0.90625 0.90625 0 2.023438 0 Z M 2.023438 0 "/>
</clipPath>
</defs>
<g id="surface1">
<path style=" stroke:none;fill-rule:nonzero;fill:rgb(49.411765%,34.117647%,76.862745%);fill-opacity:1;" d="M 2.023438 0 L 21.976562 0 C 23.09375 0 24 0.90625 24 2.023438 L 24 21.976562 C 24 23.09375 23.09375 24 21.976562 24 L 2.023438 24 C 0.90625 24 0 23.09375 0 21.976562 L 0 2.023438 C 0 0.90625 0.90625 0 2.023438 0 Z M 2.023438 0 "/>
<g clip-path="url(#clip1)" clip-rule="nonzero">
<g clip-path="url(#clip2)" clip-rule="nonzero">
<path style=" stroke:none;fill-rule:nonzero;fill:rgb(27.058824%,89.019608%,100%);fill-opacity:1;" d="M 19.351562 22.125 L 18.769531 21.320312 C 18.753906 21.226562 18.679688 21.152344 18.585938 21.140625 L 18.5625 21.140625 C 18.460938 20.894531 18.253906 20.703125 18 20.617188 C 18.007812 20.59375 18.007812 20.570312 18 20.546875 C 18.164062 20.304688 18.054688 20.121094 17.867188 19.960938 L 17.746094 19.820312 C 17.308594 19.757812 17.496094 19.195312 17.15625 19.042969 C 17.007812 19.230469 17.078125 19.417969 17.085938 19.589844 C 16.871094 20.363281 16.582031 20.417969 15.910156 19.828125 C 15.878906 19.796875 15.832031 19.789062 15.789062 19.808594 C 15.714844 19.613281 15.925781 19.566406 16 19.433594 C 16.078125 19.058594 15.808594 19.265625 15.679688 19.242188 L 15.429688 19.125 C 15.398438 19.144531 15.351562 19.132812 15.328125 19.101562 L 15.199219 19.207031 L 14.867188 19.207031 C 14.84375 19.230469 14.828125 19.261719 14.820312 19.292969 C 14.789062 19.289062 14.761719 19.308594 14.753906 19.335938 C 14.570312 19.441406 14.679688 19.820312 14.335938 19.769531 C 13.960938 19.359375 13.75 19.628906 13.585938 19.980469 C 13.554688 19.992188 13.523438 20 13.488281 20.003906 C 13.453125 20.214844 12.96875 20.117188 13.144531 20.492188 L 12.6875 20.84375 C 12.375 20.984375 11.988281 20.964844 11.75 21.265625 C 11.320312 21.375 11.410156 21.714844 11.410156 22.015625 C 11.417969 22.203125 11.460938 22.386719 11.53125 22.558594 C 11.550781 22.703125 11.636719 22.835938 11.765625 22.910156 C 11.765625 23.1875 11.890625 23.4375 11.898438 23.722656 C 11.90625 24.007812 12.089844 24.246094 12.453125 24.054688 C 12.640625 23.984375 12.75 23.742188 13 23.816406 C 13 23.785156 13.039062 23.757812 13.058594 23.726562 L 13.378906 23.726562 C 13.558594 23.757812 13.585938 23.621094 13.632812 23.5 L 13.84375 23.390625 C 14.371094 23.125 14.984375 23.085938 15.539062 23.277344 C 15.703125 23.433594 15.625 23.847656 16.03125 23.730469 C 16.175781 23.777344 16.277344 23.90625 16.289062 24.054688 L 16.488281 24.078125 C 16.664062 24.636719 16.992188 24.945312 17.613281 24.773438 C 17.652344 24.773438 17.707031 24.816406 17.757812 24.84375 C 18.421875 24.914062 18.640625 24.46875 18.808594 23.953125 C 18.957031 23.886719 19.089844 23.808594 19.042969 23.609375 L 19.238281 23.253906 C 19.238281 23.1875 19.238281 23.117188 19.257812 23.046875 L 19.3125 23.046875 C 19.554688 22.910156 19.527344 22.671875 19.523438 22.445312 C 19.507812 22.320312 19.449219 22.207031 19.351562 22.125 Z M 17.851562 22.8125 Z M 15.796875 20.625 Z M 15.796875 20.527344 L 15.796875 20.503906 Z M 17.882812 20.847656 Z M 17.882812 20.847656 "/>
</g>
</g>
<g clip-path="url(#clip3)" clip-rule="nonzero">
<g clip-path="url(#clip4)" clip-rule="nonzero">
<path style=" stroke:none;fill-rule:nonzero;fill:rgb(27.058824%,89.019608%,100%);fill-opacity:1;" d="M 17.773438 17.921875 C 17.773438 17.59375 17.523438 17.546875 17.289062 17.503906 C 17.101562 17.457031 16.863281 17.460938 16.726562 17.34375 C 16.351562 17.03125 16.089844 17.179688 15.789062 17.402344 C 15.703125 17.402344 15.570312 17.402344 15.550781 17.296875 C 15.472656 16.800781 15.203125 16.839844 14.867188 17.035156 C 14.886719 17.066406 14.898438 17.101562 14.90625 17.136719 C 15.191406 17.339844 15.421875 17.628906 15.789062 17.691406 L 16.140625 17.808594 L 16.398438 18.183594 C 16.398438 18.269531 16.230469 18.335938 16.367188 18.4375 C 16.523438 18.335938 16.609375 18.472656 16.714844 18.539062 C 16.820312 18.632812 16.960938 18.667969 17.097656 18.640625 C 17.234375 18.609375 17.351562 18.515625 17.40625 18.390625 L 17.753906 18.390625 C 17.867188 18.429688 17.878906 18.515625 17.875 18.617188 C 18.054688 18.710938 18.164062 18.933594 18.414062 18.882812 C 18.507812 18.882812 18.644531 18.757812 18.574219 18.734375 C 18.164062 18.597656 18.292969 17.9375 17.773438 17.921875 Z M 17.773438 17.921875 "/>
</g>
</g>
<g clip-path="url(#clip5)" clip-rule="nonzero">
<g clip-path="url(#clip6)" clip-rule="nonzero">
<path style=" stroke:none;fill-rule:nonzero;fill:rgb(27.058824%,89.019608%,100%);fill-opacity:1;" d="M 18.90625 17.804688 C 18.75 17.898438 18.53125 17.777344 18.375 17.96875 C 18.5 18.097656 18.652344 18.058594 18.789062 18.070312 C 18.75 17.953125 19.164062 18.027344 18.90625 17.804688 Z M 18.90625 17.804688 "/>
</g>
</g>
<g clip-path="url(#clip7)" clip-rule="nonzero">
<g clip-path="url(#clip8)" clip-rule="nonzero">
<path style=" stroke:none;fill-rule:nonzero;fill:rgb(27.058824%,89.019608%,100%);fill-opacity:1;" d="M 11.867188 18.429688 L 11.390625 18.320312 C 11.214844 18.226562 11.050781 18.078125 10.828125 18.191406 L 9.972656 17.964844 C 10.015625 18.484375 10.398438 18.378906 10.722656 18.367188 C 10.921875 18.339844 11.042969 18.609375 11.261719 18.507812 L 11.742188 18.542969 Z M 11.867188 18.429688 "/>
</g>
</g>
<g clip-path="url(#clip9)" clip-rule="nonzero">
<g clip-path="url(#clip10)" clip-rule="nonzero">
<path style=" stroke:none;fill-rule:nonzero;fill:rgb(27.058824%,89.019608%,100%);fill-opacity:1;" d="M 13.785156 18.660156 L 14.160156 18.53125 C 13.976562 18.375 13.800781 18.28125 13.785156 18.660156 Z M 13.785156 18.660156 "/>
</g>
</g>
<g clip-path="url(#clip11)" clip-rule="nonzero">
<g clip-path="url(#clip12)" clip-rule="nonzero">
<path style=" stroke:none;fill-rule:nonzero;fill:rgb(27.058824%,89.019608%,100%);fill-opacity:1;" d="M 10.046875 17.382812 C 10.148438 17.34375 10.132812 17.277344 10.078125 17.210938 C 9.964844 17.078125 9.890625 17.242188 9.796875 17.261719 L 9.6875 17.132812 L 9.578125 17.023438 C 9.523438 16.921875 9.636719 16.746094 9.4375 16.707031 C 9.359375 16.671875 9.246094 16.707031 9.21875 16.570312 C 9.191406 16.578125 9.167969 16.578125 9.140625 16.570312 C 9.140625 16.535156 9.140625 16.5 9.140625 16.460938 C 9 16.238281 8.824219 16.039062 8.625 15.863281 C 8.4375 15.683594 8.226562 15.539062 7.976562 15.78125 C 8.390625 16.359375 8.8125 16.929688 9.226562 17.503906 C 9.414062 17.765625 9.601562 18.015625 9.976562 17.960938 L 10.070312 17.382812 Z M 10.046875 17.382812 "/>
</g>
</g>
<g clip-path="url(#clip13)" clip-rule="nonzero">
<g clip-path="url(#clip14)" clip-rule="nonzero">
<path style=" stroke:none;fill-rule:nonzero;fill:rgb(27.058824%,89.019608%,100%);fill-opacity:1;" d="M 22.042969 1.125 L 21.996094 1.011719 C 22.019531 0.808594 21.703125 0.75 21.796875 0.523438 C 21.882812 0.523438 21.972656 0.523438 22.019531 0.433594 L 22.125 0.433594 L 22.125 0.207031 C 22.15625 0.179688 22.171875 0.144531 22.164062 0.105469 C 22.179688 -0.03125 22.164062 -0.167969 22.125 -0.300781 C 22.125 -0.394531 22.125 -0.492188 22.125 -0.589844 C 22.179688 -0.703125 22.179688 -0.832031 22.125 -0.945312 C 21.695312 -1.144531 21.222656 -1.226562 20.753906 -1.183594 C 20.5 -1.296875 20.238281 -1.460938 20.378906 -0.941406 C 20.441406 -0.714844 20.257812 -0.796875 20.144531 -0.820312 L 19.941406 -0.820312 C 19.835938 -1.121094 19.671875 -1.195312 19.441406 -0.933594 C 19.410156 -0.925781 19.378906 -0.925781 19.351562 -0.933594 C 19.125 -1.265625 18.847656 -1.125 18.5625 -1.066406 C 18.140625 -0.953125 18.277344 -1.570312 17.925781 -1.554688 C 17.695312 -1.691406 17.40625 -1.691406 17.175781 -1.554688 L 16.949219 -1.5 L 16.125 -1.941406 C 15.867188 -2.246094 15.496094 -1.878906 15.222656 -2.097656 C 14.996094 -2.097656 14.824219 -2.390625 14.566406 -2.222656 C 14.523438 -2.089844 14.308594 -2.160156 14.289062 -1.996094 C 14.273438 -1.828125 14.042969 -1.871094 13.953125 -1.753906 L 13.835938 -1.726562 C 13.34375 -1.941406 12.90625 -1.6875 12.457031 -1.554688 C 12.320312 -1.554688 12.265625 -1.675781 12.199219 -1.769531 C 12.164062 -1.910156 12.035156 -2.007812 11.890625 -2.007812 L 11.765625 -2.230469 C 11.851562 -2.257812 11.992188 -2.359375 11.964844 -2.367188 C 11.691406 -2.429688 11.375 -2.804688 11.179688 -2.566406 C 10.921875 -2.25 10.648438 -2.382812 10.382812 -2.328125 C 10.132812 -2.46875 9.90625 -2.703125 9.578125 -2.570312 C 9.515625 -2.605469 9.476562 -2.570312 9.445312 -2.527344 L 9.175781 -2.472656 C 9.152344 -2.539062 9.128906 -2.601562 9.101562 -2.664062 C 8.945312 -2.554688 8.796875 -2.703125 8.644531 -2.664062 L 8.644531 -2.703125 C 8.476562 -2.773438 8.339844 -2.652344 8.1875 -2.636719 L 8.214844 -2.679688 L 8.289062 -2.679688 C 8.4375 -2.695312 8.5625 -2.78125 8.636719 -2.90625 C 8.765625 -2.960938 8.890625 -3.03125 9.011719 -3.113281 C 9.234375 -3.289062 9.339844 -3.488281 8.96875 -3.621094 C 8.71875 -3.855469 8.335938 -3.886719 8.046875 -3.695312 L 7.5 -4.171875 C 7.085938 -4.199219 6.75 -4.125 6.773438 -3.625 L 6 -3.480469 L 5.800781 -3.515625 C 5.207031 -3.542969 4.617188 -3.414062 4.085938 -3.140625 C 3.953125 -3.027344 4.085938 -2.746094 3.808594 -2.714844 L 3.59375 -2.714844 C 3.484375 -2.632812 3.347656 -2.683594 3.21875 -2.648438 L 3.183594 -2.625 C 3.085938 -2.671875 2.972656 -2.671875 2.871094 -2.625 C 2.625 -2.433594 2.710938 -2.25 3.113281 -2.027344 L 3.089844 -2.027344 L 3.089844 -2 C 3.207031 -1.898438 3.191406 -1.761719 3.199219 -1.625 C 3.160156 -1.710938 3.125 -1.792969 3.09375 -1.882812 C 2.929688 -1.863281 2.761719 -1.902344 2.625 -1.996094 C 2.546875 -2.09375 2.40625 -2.128906 2.289062 -2.074219 L 1.820312 -1.972656 C 1.664062 -2.015625 1.496094 -1.976562 1.367188 -1.875 C 1.328125 -1.761719 1.386719 -1.695312 1.445312 -1.625 L 1.375 -1.519531 C 1.1875 -1.144531 1.253906 -0.890625 1.648438 -0.808594 C 1.613281 -0.785156 1.59375 -0.722656 1.609375 -0.609375 C 1.609375 -0.535156 1.578125 -0.464844 1.566406 -0.394531 C 1.34375 -0.0703125 0.945312 0.078125 0.5625 -0.0195312 C 0.59375 -0.253906 1.023438 -0.0195312 0.964844 -0.351562 L 1.066406 -0.453125 C 1.398438 -0.828125 1.035156 -1.25 1.179688 -1.632812 L 1.027344 -1.746094 C 1.019531 -1.785156 1.019531 -1.824219 1.027344 -1.859375 C 1.203125 -1.96875 1.128906 -2.132812 1.121094 -2.285156 C 0.824219 -2.28125 0.441406 -2.398438 0.441406 -1.875 C 0.25 -1.828125 -0.0078125 -1.875 0.0898438 -1.523438 C 0.242188 -1.351562 -0.101562 -1.253906 0.0234375 -1.085938 C 0.0390625 -1.035156 0.0625 -0.988281 0.0898438 -0.945312 C 0.0234375 -0.976562 -0.0546875 -0.988281 -0.128906 -0.976562 C -0.339844 -0.890625 -0.503906 -1.101562 -0.703125 -1.085938 C -0.84375 -1.234375 -0.976562 -1.265625 -1.101562 -1.085938 C -1.027344 -0.898438 -1.222656 -0.859375 -1.28125 -0.75 C -1.359375 -0.710938 -1.433594 -0.871094 -1.515625 -0.75 C -1.824219 -0.84375 -2.15625 -0.804688 -2.433594 -0.636719 C -2.671875 -1.117188 -2.894531 -0.636719 -3.128906 -0.636719 L -3.644531 -0.421875 C -3.796875 -0.046875 -4.042969 -0.226562 -4.273438 -0.3125 C -4.273438 -0.429688 -4.273438 -0.507812 -4.117188 -0.523438 C -3.882812 -0.523438 -3.972656 -0.65625 -4.054688 -0.765625 C -4.207031 -0.808594 -4.367188 -0.882812 -4.429688 -0.640625 C -4.476562 -0.484375 -4.554688 -0.320312 -4.386719 -0.179688 C -4.433594 -0.128906 -4.472656 -0.0742188 -4.519531 -0.0273438 L -4.847656 -0.0546875 C -4.941406 0.0078125 -5.117188 -0.0546875 -5.101562 0.148438 L -5.144531 0.148438 C -5.261719 0.234375 -5.3125 0.382812 -5.277344 0.523438 L -5.339844 0.542969 C -5.476562 0.542969 -5.597656 0.347656 -5.742188 0.523438 C -5.78125 0.574219 -5.742188 0.617188 -5.679688 0.636719 C -5.679688 0.671875 -5.679688 0.710938 -5.679688 0.746094 C -6.054688 0.746094 -6.375 0.660156 -6.355469 0.179688 C -6.394531 0.121094 -6.429688 0.0585938 -6.464844 0.00390625 C -6.550781 -0.0664062 -6.660156 -0.121094 -6.695312 -0.242188 C -6.667969 -0.242188 -6.640625 -0.253906 -6.617188 -0.273438 C -6.578125 -0.171875 -6.484375 -0.0976562 -6.375 -0.0898438 L -6.316406 -0.0898438 C -6.261719 -0.0195312 -6.191406 0.0351562 -6.113281 0.0703125 C -5.859375 0.148438 -5.597656 0.316406 -5.363281 0.0703125 C -5.292969 0.00390625 -5.226562 -0.0664062 -5.164062 -0.140625 L -5.121094 -0.171875 L -5.074219 -0.246094 C -5.109375 -0.394531 -5.144531 -0.546875 -5.335938 -0.574219 C -5.527344 -0.601562 -5.710938 -0.824219 -5.917969 -0.914062 C -5.964844 -1.019531 -6.046875 -1 -6.132812 -0.976562 C -6.144531 -0.96875 -6.152344 -0.957031 -6.15625 -0.945312 C -6.304688 -0.996094 -6.484375 -0.914062 -6.609375 -1.0625 C -6.644531 -1.054688 -6.679688 -1.054688 -6.714844 -1.0625 C -6.71875 -1.09375 -6.71875 -1.125 -6.714844 -1.15625 L -6.933594 -1.15625 L -7.070312 -1.292969 C -7.042969 -1.328125 -7.042969 -1.371094 -7.070312 -1.402344 C -7.46875 -1.667969 -7.90625 -1.460938 -8.320312 -1.488281 L -9 -1.085938 L -9.351562 -0.96875 C -9.789062 -0.9375 -9.90625 -0.535156 -10.15625 -0.277344 C -10.589844 -0.226562 -10.574219 0.125 -10.640625 0.421875 L -10.746094 0.523438 L -11.0625 0.664062 L -11.085938 0.78125 L -11.347656 0.984375 C -11.597656 0.984375 -11.722656 1.210938 -11.910156 1.308594 C -12.183594 1.714844 -11.941406 2.089844 -11.847656 2.476562 C -11.609375 2.5625 -11.339844 2.46875 -11.210938 2.25 L -10.875 2.179688 C -10.875 2.4375 -10.765625 2.679688 -10.574219 2.851562 C -10.574219 3.019531 -10.648438 3.128906 -10.835938 3.117188 C -10.835938 3.164062 -10.8125 3.210938 -10.773438 3.238281 C -10.734375 3.269531 -10.6875 3.28125 -10.640625 3.273438 C -10.582031 3.292969 -10.523438 3.265625 -10.5 3.210938 C -10.476562 3.234375 -10.445312 3.25 -10.414062 3.257812 C -9.734375 3.148438 -9.566406 2.921875 -9.761719 2.371094 L -9.722656 2.371094 C -9.550781 2.371094 -9.402344 2.328125 -9.390625 2.109375 C -9.394531 2.09375 -9.398438 2.074219 -9.410156 2.054688 C -9.335938 1.871094 -9.453125 1.839844 -9.5625 1.804688 C -9.59375 1.75 -9.601562 1.691406 -9.59375 1.632812 C -9.597656 1.5625 -9.632812 1.496094 -9.683594 1.445312 L -9.558594 1.136719 L -9.183594 0.898438 L -9 0.898438 C -8.933594 0.851562 -8.890625 0.773438 -8.878906 0.691406 C -8.878906 0.691406 -8.878906 0.664062 -8.878906 0.652344 C -8.816406 0.507812 -8.898438 0.308594 -8.75 0.203125 L -8.171875 0.183594 C -7.929688 0.515625 -8.425781 0.53125 -8.421875 0.761719 C -8.578125 0.902344 -8.867188 0.929688 -8.851562 1.230469 C -8.835938 1.417969 -8.878906 1.605469 -8.746094 1.785156 L -8.519531 1.949219 C -8.398438 1.980469 -8.277344 2 -8.144531 2.027344 L -8.101562 2.027344 C -8.171875 2.046875 -8.234375 2.082031 -8.28125 2.132812 C -8.382812 2.175781 -8.4375 2.269531 -8.382812 2.351562 C -8.007812 2.9375 -8.472656 2.75 -8.734375 2.75 C -8.945312 2.851562 -8.90625 3.019531 -8.839844 3.191406 C -8.839844 3.421875 -9.132812 3.363281 -9.191406 3.535156 L -9.414062 3.515625 C -9.542969 3.363281 -9.65625 3.46875 -9.769531 3.546875 C -10.023438 3.679688 -10.328125 3.671875 -10.578125 3.527344 C -10.664062 3.648438 -10.828125 3.683594 -10.953125 3.609375 C -10.980469 3.5625 -11.019531 3.527344 -11.0625 3.5 C -11.089844 3.492188 -11.117188 3.492188 -11.140625 3.5 C -11.191406 3.300781 -11.113281 3.09375 -10.945312 2.976562 L -10.921875 2.851562 C -10.945312 2.773438 -10.902344 2.613281 -11.015625 2.640625 C -11.125 2.664062 -11.371094 2.738281 -11.363281 2.976562 C -11.4375 3.183594 -11.304688 3.351562 -11.257812 3.542969 C -11.257812 3.609375 -11.289062 3.683594 -11.296875 3.75 C -11.660156 3.699219 -12.019531 3.867188 -12.214844 4.179688 C -12.320312 4.351562 -12.488281 4.351562 -12.648438 4.390625 C -12.847656 3.9375 -13.136719 3.535156 -13.5 3.199219 C -13.53125 3.148438 -13.59375 3.074219 -13.578125 3.054688 C -13.277344 2.585938 -13.757812 2.535156 -13.953125 2.503906 C -14.210938 2.464844 -14.15625 2.773438 -14.195312 2.953125 C -13.996094 3.101562 -13.957031 3.402344 -13.726562 3.523438 C -13.792969 3.632812 -13.898438 3.734375 -13.882812 3.898438 L -13.859375 3.9375 L -14.074219 4.246094 C -14.0625 4.273438 -14.039062 4.296875 -14.007812 4.304688 C -13.976562 4.3125 -13.945312 4.304688 -13.921875 4.28125 C -13.921875 4.433594 -13.941406 4.578125 -13.734375 4.589844 C -13.683594 4.550781 -13.625 4.519531 -13.5625 4.503906 C -13.433594 4.554688 -13.289062 4.554688 -13.160156 4.503906 L -12.9375 4.460938 L -12.695312 4.480469 C -12.695312 4.523438 -12.695312 4.5625 -12.695312 4.605469 C -12.859375 4.882812 -13.226562 4.734375 -13.445312 4.945312 C -13.535156 5.078125 -13.800781 4.914062 -13.820312 5.171875 L -13.445312 5.632812 C -13.359375 5.820312 -13.359375 6.039062 -13.445312 6.226562 C -13.484375 6.253906 -13.507812 6.296875 -13.5 6.34375 C -13.925781 6.265625 -14.363281 6.257812 -14.792969 6.316406 C -14.992188 6.734375 -14.816406 7.179688 -14.882812 7.609375 C -14.882812 7.984375 -14.578125 7.71875 -14.453125 7.828125 C -14.449219 7.804688 -14.449219 7.78125 -14.453125 7.761719 C -14.34375 7.84375 -14.277344 7.996094 -14.109375 7.976562 C -13.972656 7.835938 -13.777344 7.902344 -13.617188 7.847656 C -13.574219 7.855469 -13.535156 7.867188 -13.496094 7.882812 C -13.359375 7.867188 -13.257812 7.753906 -13.257812 7.621094 C -12.839844 7.289062 -12.523438 6.851562 -12.339844 6.355469 C -12.296875 6.378906 -12.253906 6.402344 -12.214844 6.429688 C -11.902344 6.53125 -11.5625 6.445312 -11.335938 6.210938 L -11.304688 6.171875 C -11.238281 6.179688 -11.171875 6.164062 -11.117188 6.128906 C -11.023438 6.421875 -10.796875 6.65625 -10.5 6.75 L -10.171875 6.914062 L -9.910156 7.226562 C -9.941406 7.375 -10.03125 7.5 -10.164062 7.574219 C -10.289062 7.613281 -10.453125 7.421875 -10.539062 7.617188 C -10.539062 7.640625 -10.367188 7.75 -10.273438 7.828125 C -10.09375 7.828125 -9.992188 7.761719 -10.085938 7.566406 C -9.847656 7.507812 -9.640625 7.421875 -9.710938 7.109375 L -9.675781 7.109375 C -9.714844 6.824219 -9.84375 6.632812 -10.164062 6.660156 C -10.34375 6.601562 -10.320312 6.414062 -10.417969 6.285156 C -10.496094 6.203125 -10.566406 6.109375 -10.621094 6.007812 L -10.578125 5.984375 C -10.222656 5.875 -10.132812 6.382812 -9.796875 6.320312 L -9.757812 6.304688 L -9.246094 6.628906 C -9.210938 6.773438 -9.3125 6.953125 -9.160156 7.070312 C -9.175781 7.183594 -9.113281 7.296875 -9.007812 7.347656 L -9 7.347656 C -8.964844 7.445312 -8.828125 7.519531 -8.914062 7.652344 C -8.765625 7.8125 -8.664062 7.8125 -8.515625 7.617188 C -8.289062 7.328125 -8.664062 7.273438 -8.679688 7.085938 C -8.503906 6.832031 -8.242188 6.851562 -7.984375 6.84375 C -7.882812 6.953125 -7.960938 7.164062 -7.773438 7.21875 C -7.773438 7.324219 -7.886719 7.441406 -7.742188 7.53125 C -7.597656 7.839844 -7.367188 7.964844 -7.050781 7.785156 C -7.015625 7.78125 -6.976562 7.769531 -6.945312 7.753906 C -6.761719 7.839844 -6.570312 8.054688 -6.390625 7.753906 C -6.285156 7.875 -6.039062 7.753906 -6.015625 7.980469 C -6.074219 8.398438 -6.242188 8.796875 -6.507812 9.128906 L -6.710938 9.128906 C -6.855469 8.96875 -7.089844 8.929688 -7.277344 9.03125 C -7.601562 9.113281 -7.941406 9.089844 -8.25 8.964844 C -8.558594 8.867188 -8.917969 8.339844 -9.128906 9.070312 C -9.128906 9.109375 -9.148438 9.148438 -9.152344 9.183594 C -9.609375 9.3125 -9.902344 8.953125 -10.277344 8.808594 L -10.949219 8.589844 C -11.082031 8.5 -11.121094 8.398438 -11.007812 8.265625 C -10.851562 7.953125 -10.957031 7.78125 -11.296875 7.777344 C -11.632812 7.773438 -11.859375 7.8125 -12.140625 7.835938 C -12.605469 7.78125 -13.070312 7.914062 -13.429688 8.210938 C -13.441406 8.203125 -13.453125 8.203125 -13.464844 8.210938 C -13.476562 8.214844 -13.484375 8.226562 -13.488281 8.238281 C -13.675781 8.082031 -13.902344 8.179688 -14.109375 8.140625 L -14.109375 8.101562 C -14.351562 8.210938 -14.449219 8.578125 -14.796875 8.503906 C -14.984375 8.71875 -15.070312 9.007812 -15.023438 9.292969 C -15.179688 9.703125 -15.816406 9.667969 -15.855469 10.195312 L -16.070312 10.460938 C -16.101562 10.457031 -16.132812 10.457031 -16.164062 10.460938 C -16.078125 10.734375 -16.539062 10.910156 -16.359375 11.210938 L -16.40625 11.320312 C -16.445312 11.664062 -16.339844 12.019531 -16.523438 12.34375 C -16.527344 12.371094 -16.527344 12.398438 -16.523438 12.429688 C -16.328125 12.695312 -16.429688 13.113281 -16.070312 13.296875 C -15.859375 13.410156 -15.773438 13.640625 -15.628906 13.8125 L -15.394531 14.140625 L -15.28125 14.140625 C -14.9375 14.230469 -14.679688 14.738281 -14.242188 14.367188 C -13.988281 14.324219 -13.730469 14.359375 -13.5 14.476562 L -12.578125 14.128906 L -12.117188 14.128906 L -12 14.25 C -11.96875 14.601562 -11.71875 14.464844 -11.527344 14.460938 L -11.414062 14.492188 L -11.195312 14.523438 L -11.085938 14.714844 C -11.257812 15.351562 -11.289062 15.957031 -10.632812 16.367188 C -10.457031 16.832031 -10.371094 17.328125 -10.378906 17.828125 C -10.667969 17.925781 -10.554688 18.25 -10.714844 18.421875 L -10.714844 18.523438 C -10.808594 19.15625 -10.273438 19.574219 -10.15625 20.132812 C -10.15625 20.261719 -10.199219 20.398438 -10.058594 20.507812 C -10.046875 20.539062 -10.046875 20.574219 -10.058594 20.605469 C -10.222656 20.785156 -10.011719 20.859375 -9.953125 20.980469 C -9.75 21.355469 -9.464844 21.703125 -9.484375 22.171875 C -9.484375 22.332031 -9.378906 22.410156 -9.234375 22.445312 C -9.246094 22.460938 -9.246094 22.480469 -9.234375 22.496094 L -9.105469 22.496094 L -9.105469 22.445312 C -8.554688 22.273438 -7.855469 22.539062 -7.464844 21.898438 C -7.144531 21.832031 -7.054688 21.542969 -6.898438 21.316406 L -6.804688 21.316406 C -6.632812 21.117188 -6.609375 20.832031 -6.75 20.609375 C -6.746094 20.585938 -6.757812 20.5625 -6.78125 20.558594 C -6.507812 20.558594 -6.339844 20.34375 -6.109375 20.261719 C -6.1875 19.6875 -6.257812 19.117188 -5.605469 18.796875 C -5.484375 18.8125 -5.367188 18.761719 -5.296875 18.667969 L -5.140625 18.550781 C -5.109375 18.398438 -5.085938 18.242188 -5.054688 18.089844 C -4.753906 17.664062 -5.101562 17.289062 -5.144531 16.890625 C -5.304688 16.601562 -5.109375 16.304688 -5.164062 16.011719 C -5.039062 15.808594 -4.789062 15.695312 -4.742188 15.4375 L -4.707031 15.328125 C -4.453125 15.328125 -4.332031 15.078125 -4.140625 14.972656 C -3.703125 14.660156 -3.378906 14.21875 -3.214844 13.707031 C -3.011719 13.546875 -3.128906 13.332031 -3.109375 13.132812 C -3.503906 12.960938 -3.960938 13.042969 -4.273438 13.34375 C -4.535156 13.238281 -4.582031 12.96875 -4.691406 12.753906 L -4.742188 12.753906 C -4.816406 12.625 -4.929688 12.523438 -5.066406 12.460938 L -5.40625 12.304688 C -5.40625 12.265625 -5.40625 12.230469 -5.40625 12.195312 C -5.59375 11.488281 -5.898438 10.816406 -6.304688 10.207031 L -6.429688 9.890625 L -6.1875 9.664062 C -6.152344 9.652344 -6.117188 9.644531 -6.082031 9.644531 C -5.933594 10.042969 -5.699219 10.40625 -5.398438 10.703125 C -5.320312 10.890625 -5.398438 11.121094 -5.195312 11.269531 C -5.195312 11.285156 -5.195312 11.300781 -5.195312 11.316406 C -5.1875 11.535156 -5.03125 11.71875 -4.820312 11.765625 L -4.777344 11.765625 C -4.707031 11.859375 -4.640625 11.964844 -4.589844 12.074219 C -4.613281 12.148438 -4.625 12.222656 -4.628906 12.300781 C -4.640625 12.382812 -4.609375 12.460938 -4.554688 12.515625 L -4.464844 12.578125 C -4.464844 12.777344 -4.421875 12.929688 -4.179688 12.84375 C -3.933594 12.757812 -3.660156 12.632812 -3.40625 12.527344 C -3.035156 12.371094 -2.679688 12.183594 -2.339844 11.964844 L -2.132812 11.964844 L -1.546875 11.277344 C -0.972656 10.8125 -1.46875 10.726562 -1.800781 10.585938 C -1.910156 10.394531 -1.957031 10.023438 -2.257812 10.453125 C -2.390625 10.652344 -2.632812 10.53125 -2.828125 10.597656 C -2.824219 10.628906 -2.824219 10.664062 -2.828125 10.695312 L -2.851562 10.695312 C -2.835938 10.667969 -2.828125 10.632812 -2.828125 10.601562 C -2.828125 10.367188 -2.910156 10.226562 -3.160156 10.226562 C -3.160156 9.878906 -3.507812 9.71875 -3.621094 9.429688 C -3.597656 9.410156 -3.585938 9.378906 -3.589844 9.34375 C -3.558594 9.347656 -3.53125 9.335938 -3.515625 9.308594 C -3.203125 9.226562 -3.046875 9.40625 -2.929688 9.660156 C -2.902344 9.769531 -2.816406 9.789062 -2.71875 9.796875 C -2.601562 10.007812 -2.34375 10.09375 -2.125 9.992188 C -2.078125 9.957031 -2.023438 9.945312 -1.96875 9.953125 C -1.910156 9.964844 -1.863281 9.996094 -1.828125 10.042969 C -1.589844 10.3125 -1.21875 10.429688 -0.871094 10.34375 L -0.0546875 10.34375 L 0.171875 10.480469 C 0.234375 10.632812 0.363281 10.753906 0.523438 10.808594 C 0.730469 10.90625 0.4375 11.050781 0.558594 11.15625 C 0.738281 11.15625 0.863281 11.367188 1.0625 11.273438 C 1.105469 11.242188 1.128906 11.1875 1.125 11.132812 C 1.15625 11.195312 1.195312 11.253906 1.226562 11.3125 C 1.164062 11.398438 1.203125 11.5 1.226562 11.597656 C 1.191406 11.898438 1.289062 12.199219 1.5 12.414062 C 1.554688 12.820312 1.875 13.136719 1.875 13.5625 C 2.023438 13.5625 2.152344 14.054688 2.320312 13.5625 C 2.59375 13.460938 2.472656 13.132812 2.648438 12.972656 C 2.710938 12.910156 2.710938 12.8125 2.652344 12.75 C 2.652344 12.640625 2.652344 12.527344 2.632812 12.414062 C 2.632812 12.402344 2.632812 12.386719 2.632812 12.371094 C 2.671875 12.34375 2.703125 12.308594 2.730469 12.269531 C 2.726562 12.242188 2.726562 12.214844 2.730469 12.1875 C 2.925781 12.1875 3.007812 12.007812 3.15625 11.945312 C 3.175781 11.910156 3.1875 11.875 3.191406 11.839844 C 3.328125 11.8125 3.453125 11.734375 3.535156 11.625 C 3.890625 11.539062 3.960938 11.046875 4.367188 11.039062 C 4.585938 11.128906 4.941406 10.640625 5.046875 11.203125 C 5.082031 11.320312 5.183594 11.363281 5.285156 11.40625 C 5.3125 11.554688 5.390625 11.6875 5.503906 11.78125 C 5.503906 11.96875 5.28125 12.304688 5.757812 12.226562 L 5.757812 12.179688 C 6.113281 11.945312 6.1875 12.101562 6.132812 12.441406 C 6.027344 12.636719 6.308594 12.726562 6.257812 12.90625 L 6.257812 13.128906 C 6.257812 13.25 6.257812 13.371094 6.257812 13.503906 C 6.257812 13.632812 6.046875 13.648438 6.234375 13.761719 C 6.4375 13.921875 6.570312 14.152344 6.609375 14.40625 L 6.609375 14.636719 C 6.765625 14.839844 6.929688 15.039062 7.234375 14.976562 C 7.234375 14.753906 7.296875 14.519531 7.148438 14.316406 C 7.117188 14.171875 6.976562 14.078125 6.832031 14.101562 L 6.785156 14.101562 L 6.472656 13.585938 L 6.445312 13.238281 C 6.453125 13.199219 6.453125 13.164062 6.449219 13.125 C 6.582031 12.667969 6.824219 12.785156 6.996094 13.0625 C 7.101562 13.234375 7.289062 13.34375 7.488281 13.351562 C 7.53125 13.480469 7.441406 13.570312 7.378906 13.671875 C 7.714844 13.691406 7.828125 13.371094 8.066406 13.238281 C 8.476562 13.054688 8.382812 12.742188 8.265625 12.429688 C 8.144531 12.113281 7.554688 11.917969 7.71875 11.390625 L 7.949219 11.164062 L 8.289062 11.164062 C 8.304688 11.195312 8.328125 11.226562 8.355469 11.253906 C 8.492188 11.34375 8.148438 11.558594 8.441406 11.597656 C 8.734375 11.640625 8.617188 11.441406 8.613281 11.304688 C 8.609375 11.171875 8.808594 11.15625 8.871094 11.042969 L 9.214844 10.929688 C 9.269531 10.863281 9.386719 10.875 9.453125 10.820312 C 9.570312 10.859375 9.6875 10.898438 9.789062 10.785156 C 9.789062 10.753906 9.789062 10.726562 9.789062 10.695312 C 10.335938 10.554688 10.359375 9.976562 10.671875 9.640625 C 10.703125 9.53125 10.894531 9.433594 10.695312 9.308594 C 10.808594 9.011719 10.734375 8.679688 10.5 8.464844 C 10.425781 8.394531 10.382812 8.296875 10.382812 8.195312 C 10.382812 8.09375 10.425781 7.992188 10.5 7.921875 C 10.597656 7.902344 10.765625 7.921875 10.714844 7.757812 C 10.617188 7.417969 10.398438 7.878906 10.265625 7.707031 C 10.269531 7.671875 10.261719 7.640625 10.242188 7.613281 C 10.21875 7.585938 10.1875 7.570312 10.15625 7.570312 C 10 7.453125 10.050781 7.34375 10.15625 7.238281 C 10.296875 7.21875 10.421875 7.128906 10.484375 7 C 10.589844 6.976562 10.75 6.820312 10.773438 6.910156 C 10.894531 7.371094 11.496094 7.183594 11.636719 7.585938 C 11.804688 7.785156 11.605469 8.058594 11.773438 8.257812 C 12.203125 8.277344 12.449219 8.15625 12.226562 7.667969 L 12.078125 7.46875 C 12.058594 7.347656 11.910156 7.257812 11.980469 7.09375 C 12.300781 7.039062 12.355469 6.761719 12.46875 6.523438 L 12.683594 6.421875 L 12.683594 6.390625 L 12.804688 6.390625 C 12.992188 6.515625 13.136719 6.441406 13.265625 6.300781 L 13.800781 5.773438 L 13.875 5.773438 C 14.210938 5.582031 14.453125 5.253906 14.535156 4.875 C 14.53125 4.699219 14.558594 4.523438 14.625 4.359375 C 14.625 4.359375 14.625 4.332031 14.625 4.320312 C 14.632812 4.386719 14.671875 4.449219 14.726562 4.488281 C 14.714844 4.503906 14.714844 4.523438 14.726562 4.539062 L 14.699219 4.539062 C 14.460938 4.820312 14.453125 5.234375 14.679688 5.53125 C 14.730469 5.542969 14.785156 5.539062 14.835938 5.511719 C 14.835938 5.21875 14.917969 4.929688 15.066406 4.671875 C 15.078125 4.546875 15.035156 4.421875 14.945312 4.328125 C 14.902344 4.144531 15.074219 3.875 14.867188 3.777344 C 14.65625 3.679688 14.824219 4.078125 14.609375 4.078125 C 14.554688 3.957031 14.558594 3.804688 14.425781 3.726562 L 14.253906 3.523438 L 14.027344 3.640625 L 13.800781 3.640625 C 13.675781 3.523438 13.515625 3.445312 13.453125 3.265625 L 13.574219 3.164062 L 13.683594 3.046875 L 14.289062 2.625 C 14.757812 2.058594 15.386719 2.101562 16.023438 2.175781 L 16.144531 2.050781 L 16.371094 2.085938 C 16.441406 2.101562 16.503906 2.128906 16.5625 2.167969 C 16.5625 2.308594 16.640625 2.351562 16.828125 2.289062 C 17.015625 2.230469 17.203125 2.210938 17.203125 1.9375 C 17.347656 1.871094 17.460938 1.742188 17.511719 1.589844 L 17.546875 1.476562 L 17.878906 1.429688 C 18.152344 1.371094 18.226562 1.804688 18.53125 1.6875 C 18.753906 1.6875 18.871094 1.515625 19.03125 1.414062 C 18.964844 1.484375 18.949219 1.589844 18.984375 1.679688 C 18.890625 1.640625 18.828125 1.652344 18.804688 1.742188 C 18.757812 1.75 18.71875 1.765625 18.683594 1.796875 C 18.59375 2.09375 18.222656 2.121094 18.113281 2.398438 C 17.96875 2.433594 17.828125 2.464844 17.773438 2.628906 L 17.65625 2.757812 C 17.28125 2.988281 17.507812 3.351562 17.46875 3.65625 C 17.46875 3.695312 17.46875 3.738281 17.441406 3.785156 C 17.558594 3.953125 17.507812 4.292969 17.871094 4.210938 C 18.019531 4.152344 17.988281 4.019531 18 3.902344 L 18.207031 3.882812 C 18.273438 3.734375 18.367188 3.597656 18.484375 3.484375 C 18.78125 3.300781 18.890625 2.921875 18.738281 2.609375 C 18.738281 2.527344 18.515625 2.476562 18.65625 2.414062 C 18.882812 2.308594 18.902344 2.085938 19.03125 1.929688 C 19.164062 1.929688 19.300781 1.988281 19.40625 1.847656 C 19.441406 1.851562 19.476562 1.839844 19.5 1.816406 C 19.507812 1.796875 19.523438 1.777344 19.546875 1.769531 L 19.5 1.816406 L 19.847656 1.789062 L 20.308594 1.820312 C 20.453125 1.804688 20.570312 1.710938 20.625 1.578125 C 21 1.492188 21.265625 1.203125 21.664062 1.203125 C 21.804688 1.199219 21.953125 1.273438 22.042969 1.125 Z M -9.878906 12.601562 L -9.960938 12.601562 Z M -8.898438 14.730469 Z M -7.050781 12.304688 Z M -8.894531 12.304688 L -8.925781 12.304688 Z M -10.144531 14.554688 L -10.171875 14.554688 L -10.125 14.554688 Z M -6.929688 14.703125 Z M -15.242188 12.285156 Z M -13.5 10.34375 Z M -13.5 12.296875 Z M -13.371094 12.296875 C -13.375 12.316406 -13.375 12.335938 -13.371094 12.351562 Z M -13.5 10.574219 Z M -10.179688 14.625 C -10.15625 14.679688 -10.203125 14.625 -10.179688 14.597656 C -10.183594 14.609375 -10.183594 14.617188 -10.179688 14.625 Z M -6.9375 14.8125 Z M -11.089844 12.296875 Z M -9.128906 20.484375 Z M 7.765625 -2.585938 C 7.789062 -2.554688 7.820312 -2.523438 7.851562 -2.492188 C 7.785156 -2.460938 7.726562 -2.414062 7.679688 -2.355469 C 7.65625 -2.359375 7.632812 -2.359375 7.613281 -2.355469 C 7.59375 -2.445312 7.632812 -2.535156 7.710938 -2.585938 Z M -6.933594 -0.507812 Z M -6.933594 -0.386719 Z M 5.410156 -0.421875 L 5.429688 -0.394531 L 5.410156 -0.394531 Z M -0.703125 3.773438 Z M 5.527344 1.574219 Z M 7.597656 6.207031 L 7.621094 6.207031 C 7.613281 6.203125 7.605469 6.203125 7.597656 6.207031 Z M 7.726562 6.183594 Z M 7.726562 1.683594 L 7.726562 1.648438 C 7.71875 1.660156 7.71875 1.671875 7.726562 1.6875 Z M 3.226562 3.878906 Z M 7.726562 1.570312 Z M 9.574219 1.570312 Z M -2.890625 1.691406 Z M -0.703125 7.914062 Z M 1.257812 8.03125 L 1.257812 8.003906 L 1.257812 8.050781 Z M 7.726562 8.03125 L 7.742188 8.03125 Z M 13.726562 -0.410156 C 13.726562 -0.410156 13.714844 -0.375 13.714844 -0.398438 Z M 11.871094 -0.375 C 11.871094 -0.375 11.871094 -0.375 11.871094 -0.398438 Z M 9.679688 -0.375 Z M 9.5625 -0.375 Z M 1.257812 1.585938 Z M -0.703125 -0.375 L -0.703125 -0.429688 C -0.703125 -0.410156 -0.703125 -0.390625 -0.703125 -0.375 Z M -3.488281 7.230469 C -3.40625 7.164062 -3.359375 7.066406 -3.351562 6.960938 C -3.347656 6.859375 -3.386719 6.757812 -3.457031 6.683594 C -3.605469 6.554688 -3.707031 6.386719 -3.75 6.199219 C -3.75 6.082031 -3.789062 5.964844 -3.8125 5.851562 L -3.554688 5.640625 L -2.910156 5.371094 C -2.585938 5.492188 -2.476562 5.632812 -2.867188 5.816406 C -2.980469 5.871094 -3.125 5.90625 -3.046875 6.085938 C -3.085938 6.328125 -2.703125 6.367188 -2.785156 6.628906 C -2.707031 6.714844 -2.652344 6.722656 -2.605469 6.691406 C -2.578125 6.726562 -2.558594 6.765625 -2.539062 6.804688 C -2.589844 6.808594 -2.640625 6.828125 -2.679688 6.859375 C -2.914062 7.171875 -2.429688 7.136719 -2.449219 7.347656 L -2.449219 7.828125 C -2.460938 7.804688 -2.476562 7.78125 -2.492188 7.757812 C -2.664062 7.640625 -2.898438 7.648438 -3.0625 7.78125 C -3.09375 7.773438 -3.128906 7.773438 -3.160156 7.78125 L -3.222656 7.808594 C -3.503906 7.675781 -3.460938 7.441406 -3.488281 7.230469 Z M 9.5625 8.035156 Z M 9.675781 8.035156 Z M 18 -0.507812 C 17.992188 -0.5 17.984375 -0.492188 17.980469 -0.480469 Z M 17.871094 -1.257812 C 17.828125 -1.238281 17.871094 -1.277344 17.871094 -1.28125 Z M -0.9375 8.160156 L -0.9375 8.210938 C -0.9375 8.191406 -0.9375 8.175781 -0.964844 8.160156 Z M -0.9375 9.40625 Z M 3.449219 11.378906 Z M 19.257812 1.472656 Z M -7.671875 1.875 L -7.601562 1.875 L -7.628906 1.898438 C -7.679688 1.941406 -7.742188 1.972656 -7.8125 1.984375 C -7.757812 1.960938 -7.710938 1.921875 -7.671875 1.875 Z M -6.875 6.75 C -7.050781 6.601562 -7.3125 6.613281 -7.476562 6.777344 C -7.519531 6.273438 -7.132812 5.945312 -6.960938 5.527344 C -6.882812 5.683594 -6.710938 5.738281 -6.554688 5.804688 L -6.53125 5.804688 C -6.574219 5.945312 -6.484375 6.007812 -6.335938 6.003906 C -6.25 5.984375 -6.167969 5.953125 -6.09375 5.90625 L -6.261719 5.765625 C -6.183594 5.726562 -6.117188 5.667969 -6.070312 5.59375 C -6.058594 5.570312 -6.039062 5.546875 -6.019531 5.523438 C -5.945312 5.515625 -5.871094 5.496094 -5.800781 5.464844 L -5.714844 5.484375 C -5.59375 5.484375 -5.460938 5.484375 -5.597656 5.652344 C -5.605469 5.667969 -5.605469 5.683594 -5.597656 5.699219 C -5.695312 5.789062 -5.886719 5.875 -5.597656 5.996094 L -5.542969 5.996094 C -5.558594 6.015625 -5.578125 6.027344 -5.601562 6.039062 C -5.589844 6.117188 -5.542969 6.183594 -5.476562 6.226562 C -5.40625 6.265625 -5.324219 6.269531 -5.25 6.242188 C -5.296875 6.464844 -5.152344 6.558594 -4.953125 6.617188 C -4.914062 6.648438 -4.910156 6.5625 -4.886719 6.558594 C -4.890625 6.570312 -4.894531 6.585938 -4.90625 6.597656 C -4.917969 6.621094 -4.917969 6.648438 -4.90625 6.675781 C -5.074219 6.640625 -5.132812 6.777344 -5.203125 6.890625 C -5.269531 6.886719 -5.335938 6.886719 -5.398438 6.890625 C -5.621094 6.859375 -5.875 6.890625 -6.023438 6.683594 C -6.289062 6.519531 -6.625 6.539062 -6.875 6.726562 Z M -6.875 6.75 "/>
</g>
</g>
<g clip-path="url(#clip15)" clip-rule="nonzero">
<g clip-path="url(#clip16)" clip-rule="nonzero">
<path style=" stroke:none;fill-rule:nonzero;fill:rgb(27.058824%,89.019608%,100%);fill-opacity:1;" d="M 11.523438 16.578125 C 11.257812 16.410156 11 16.820312 10.726562 16.578125 C 10.675781 16.535156 10.578125 16.605469 10.601562 16.703125 C 10.648438 16.957031 10.796875 17.347656 10.9375 17.34375 C 11.289062 17.34375 11.636719 17.78125 11.980469 17.371094 C 12.078125 16.949219 12.636719 16.621094 12.261719 16.097656 C 12.183594 15.882812 12.039062 15.910156 11.886719 15.996094 C 11.886719 16.210938 11.796875 16.414062 11.644531 16.558594 Z M 11.523438 16.578125 "/>
</g>
</g>
<g clip-path="url(#clip17)" clip-rule="nonzero">
<g clip-path="url(#clip18)" clip-rule="nonzero">
<path style=" stroke:none;fill-rule:nonzero;fill:rgb(27.058824%,89.019608%,100%);fill-opacity:1;" d="M 13.003906 16.6875 C 13.21875 16.835938 13.503906 16.835938 13.71875 16.6875 L 13.71875 16.464844 C 13.519531 16.675781 13.1875 16.453125 13.003906 16.6875 Z M 13.003906 16.6875 "/>
</g>
</g>
<g clip-path="url(#clip19)" clip-rule="nonzero">
<g clip-path="url(#clip20)" clip-rule="nonzero">
<path style=" stroke:none;fill-rule:nonzero;fill:rgb(27.058824%,89.019608%,100%);fill-opacity:1;" d="M 14.1875 16.476562 C 14.148438 16.640625 14.183594 16.816406 14.289062 16.949219 C 14.570312 16.5625 14.566406 16.527344 14.1875 16.476562 Z M 14.1875 16.476562 "/>
</g>
</g>
<g clip-path="url(#clip21)" clip-rule="nonzero">
<g clip-path="url(#clip22)" clip-rule="nonzero">
<path style=" stroke:none;fill-rule:nonzero;fill:rgb(27.058824%,89.019608%,100%);fill-opacity:1;" d="M 12.75 17.945312 C 12.882812 17.804688 12.90625 17.59375 12.804688 17.425781 C 12.851562 17.453125 12.902344 17.46875 12.957031 17.472656 C 12.949219 17.523438 12.96875 17.578125 13.003906 17.613281 C 13.085938 17.714844 13.171875 17.757812 13.257812 17.613281 L 13.125 17.382812 C 13.066406 17.234375 13.183594 17.144531 13.242188 17.035156 C 13.09375 16.859375 12.921875 17.148438 12.773438 17.007812 L 12.773438 17.035156 L 12.796875 17.035156 C 12.320312 17.324219 12.652344 17.625 12.75 17.945312 Z M 12.75 17.945312 "/>
</g>
</g>
<g clip-path="url(#clip23)" clip-rule="nonzero">
<g clip-path="url(#clip24)" clip-rule="nonzero">
<path style=" stroke:none;fill-rule:nonzero;fill:rgb(27.058824%,89.019608%,100%);fill-opacity:1;" d="M 10.453125 10.828125 C 10.480469 10.882812 10.523438 10.929688 10.574219 10.960938 C 10.761719 10.828125 10.726562 10.585938 10.859375 10.308594 C 10.535156 10.445312 10.390625 10.574219 10.453125 10.828125 Z M 10.453125 10.828125 "/>
</g>
</g>
<g clip-path="url(#clip25)" clip-rule="nonzero">
<g clip-path="url(#clip26)" clip-rule="nonzero">
<path style=" stroke:none;fill-rule:nonzero;fill:rgb(27.058824%,89.019608%,100%);fill-opacity:1;" d="M 9.34375 14.960938 C 9.5625 14.960938 9.550781 14.777344 9.570312 14.628906 C 9.746094 14.425781 10.203125 14.746094 10.238281 14.273438 C 10.023438 14.195312 9.832031 13.933594 9.578125 14.195312 L 9.335938 14.496094 C 9.257812 14.578125 9.179688 14.660156 9.105469 14.742188 C 8.917969 14.816406 8.707031 14.859375 8.613281 15.074219 C 8.855469 15.195312 9.148438 15.152344 9.34375 14.960938 Z M 9.34375 14.960938 "/>
</g>
</g>
<g clip-path="url(#clip27)" clip-rule="nonzero">
<g clip-path="url(#clip28)" clip-rule="nonzero">
<path style=" stroke:none;fill-rule:nonzero;fill:rgb(27.058824%,89.019608%,100%);fill-opacity:1;" d="M 14.214844 7.265625 C 14.179688 7.371094 14.136719 7.476562 14.082031 7.578125 L 13.992188 7.710938 C 13.914062 7.671875 13.820312 7.671875 13.742188 7.710938 L 13.570312 8.039062 C 13.539062 8.085938 13.488281 8.109375 13.453125 8.148438 L 12.90625 8.148438 L 12.863281 8.25 C 12.738281 8.304688 12.761719 8.390625 12.796875 8.492188 C 12.925781 8.578125 13.085938 8.621094 13.246094 8.601562 C 13.335938 8.511719 13.351562 8.375 13.28125 8.265625 L 13.417969 8.285156 L 13.417969 8.308594 C 13.457031 8.394531 13.535156 8.457031 13.628906 8.476562 C 13.78125 8.351562 13.96875 8.273438 14.164062 8.25 C 14.304688 8.226562 14.570312 8.25 14.511719 7.9375 C 14.511719 7.585938 15 7.296875 14.632812 6.902344 C 14.578125 6.695312 14.554688 6.507812 14.871094 6.550781 C 15.191406 6.597656 15.28125 6.480469 15.128906 6.175781 L 14.875 5.871094 C 14.699219 5.871094 14.648438 6.03125 14.589844 6.164062 C 14.585938 6.1875 14.585938 6.214844 14.589844 6.242188 L 14.527344 6.242188 C 14.390625 6.25 14.273438 6.335938 14.214844 6.460938 C 14.152344 6.617188 14.214844 6.796875 14.359375 6.882812 L 14.398438 6.882812 C 14.308594 6.996094 14.246094 7.125 14.214844 7.265625 Z M 14.214844 7.265625 "/>
</g>
</g>
<g clip-path="url(#clip29)" clip-rule="nonzero">
<g clip-path="url(#clip30)" clip-rule="nonzero">
<path style=" stroke:none;fill-rule:nonzero;fill:rgb(27.058824%,89.019608%,100%);fill-opacity:1;" d="M 12.441406 8.859375 L 12.558594 9.015625 C 12.652344 8.96875 12.722656 8.886719 12.75 8.785156 C 12.773438 8.6875 12.753906 8.578125 12.695312 8.492188 C 12.40625 8.476562 12.34375 8.625 12.441406 8.859375 Z M 12.441406 8.859375 "/>
</g>
</g>
<g clip-path="url(#clip31)" clip-rule="nonzero">
<g clip-path="url(#clip32)" clip-rule="nonzero">
<path style=" stroke:none;fill-rule:nonzero;fill:rgb(27.058824%,89.019608%,100%);fill-opacity:1;" d="M 11.65625 13.800781 C 11.65625 13.703125 11.65625 13.589844 11.523438 13.554688 L 11.304688 13.722656 C 11.121094 13.652344 10.914062 13.738281 10.835938 13.921875 L 10.945312 13.953125 C 11.0625 13.902344 11.160156 13.894531 11.203125 14.042969 C 11.25 14.195312 11.34375 14.121094 11.40625 14.167969 C 11.472656 14.210938 11.539062 14.148438 11.566406 14.074219 C 11.566406 14.0625 11.566406 14.046875 11.566406 14.035156 L 11.625 14.035156 C 11.695312 13.960938 11.816406 13.894531 11.65625 13.800781 Z M 11.65625 13.800781 "/>
</g>
</g>
<g clip-path="url(#clip33)" clip-rule="nonzero">
<g clip-path="url(#clip34)" clip-rule="nonzero">
<path style=" stroke:none;fill-rule:nonzero;fill:rgb(27.058824%,89.019608%,100%);fill-opacity:1;" d="M 10.648438 11.742188 C 10.511719 11.921875 10.460938 12.152344 10.5 12.375 C 10.5 12.402344 10.546875 12.421875 10.574219 12.449219 C 10.546875 12.824219 10.855469 12.75 11.070312 12.796875 C 11.101562 12.6875 11.050781 12.578125 10.949219 12.527344 L 10.734375 12.429688 C 10.765625 12.34375 10.800781 12.257812 10.839844 12.175781 C 10.972656 11.886719 10.804688 11.578125 10.648438 11.742188 Z M 10.648438 11.742188 "/>
</g>
</g>
<g clip-path="url(#clip35)" clip-rule="nonzero">
<g clip-path="url(#clip36)" clip-rule="nonzero">
<path style=" stroke:none;fill-rule:nonzero;fill:rgb(27.058824%,89.019608%,100%);fill-opacity:1;" d="M 11.082031 13.289062 C 10.988281 13.257812 10.953125 13.324219 10.953125 13.40625 C 10.964844 13.464844 10.984375 13.523438 11.003906 13.582031 C 11.054688 13.511719 11.101562 13.472656 11.109375 13.429688 C 11.117188 13.382812 11.101562 13.296875 11.082031 13.289062 Z M 11.082031 13.289062 "/>
</g>
</g>
<g clip-path="url(#clip37)" clip-rule="nonzero">
<g clip-path="url(#clip38)" clip-rule="nonzero">
<path style=" stroke:none;fill-rule:nonzero;fill:rgb(27.058824%,89.019608%,100%);fill-opacity:1;" d="M 2.699219 13.554688 C 2.511719 13.515625 2.519531 13.683594 2.519531 13.820312 C 2.507812 13.898438 2.53125 13.976562 2.578125 14.035156 C 2.625 14.09375 2.691406 14.132812 2.765625 14.140625 C 2.898438 14.140625 2.988281 14.101562 2.972656 13.933594 C 2.890625 13.808594 2.890625 13.585938 2.699219 13.554688 Z M 2.699219 13.554688 "/>
</g>
</g>
</g>
</svg>
