
<svg xmlns="http://www.w3.org/2000/svg" xmlns:xlink="http://www.w3.org/1999/xlink" width="24px" height="24px" viewBox="0 0 24 24" version="1.1">
<g id="surface1">
<path style=" stroke:none;fill-rule:nonzero;fill:rgb(36.078431%,41.960784%,75.294118%);fill-opacity:1;" d="M 2.023438 0 L 21.976562 0 C 23.09375 0 24 0.90625 24 2.023438 L 24 21.976562 C 24 23.09375 23.09375 24 21.976562 24 L 2.023438 24 C 0.90625 24 0 23.09375 0 21.976562 L 0 2.023438 C 0 0.90625 0.90625 0 2.023438 0 Z M 2.023438 0 "/>
<path style=" stroke:none;fill-rule:nonzero;fill:rgb(100%,100%,100%);fill-opacity:1;" d="M 12.804688 8.082031 L 12.25 8.082031 L 12.25 10.445312 C 12.492188 10.542969 12.652344 10.78125 12.652344 11.042969 L 12.652344 12.542969 C 12.652344 12.90625 12.359375 13.195312 12 13.195312 C 11.640625 13.195312 11.347656 12.90625 11.347656 12.542969 L 11.347656 11.042969 C 11.347656 10.78125 11.507812 10.542969 11.75 10.445312 L 11.75 8.082031 L 11.195312 8.082031 C 9.257812 8.085938 7.6875 9.65625 7.679688 11.597656 L 7.679688 15.816406 C 7.8125 18.101562 9.703125 19.882812 11.992188 19.882812 C 14.28125 19.882812 16.171875 18.101562 16.304688 15.816406 L 16.304688 11.597656 C 16.296875 9.664062 14.734375 8.09375 12.804688 8.082031 Z M 12.804688 8.082031 "/>
<path style=" stroke:none;fill-rule:nonzero;fill:rgb(16.078431%,71.372549%,96.470588%);fill-opacity:1;" d="M 12.335938 8.082031 L 11.738281 8.082031 L 11.738281 7.78125 C 11.738281 6.953125 12.410156 6.28125 13.238281 6.28125 L 14.34375 6.28125 C 14.84375 6.28125 15.246094 5.875 15.246094 5.378906 C 15.246094 4.878906 14.84375 4.472656 14.34375 4.472656 L 8.753906 4.472656 L 8.753906 3.863281 L 14.347656 3.863281 C 15.175781 3.863281 15.847656 4.535156 15.847656 5.363281 C 15.847656 6.191406 15.175781 6.863281 14.347656 6.863281 L 13.242188 6.863281 C 12.742188 6.863281 12.335938 7.265625 12.335938 7.765625 Z M 12.335938 8.082031 "/>
</g>
</svg>
