
<svg xmlns="http://www.w3.org/2000/svg" xmlns:xlink="http://www.w3.org/1999/xlink" width="24px" height="24px" viewBox="0 0 24 24" version="1.1">
<g id="surface1">
<path style=" stroke:none;fill-rule:nonzero;fill:rgb(49.411765%,34.117647%,76.862745%);fill-opacity:1;" d="M 2.023438 0 L 21.976562 0 C 23.09375 0 24 0.90625 24 2.023438 L 24 21.976562 C 24 23.09375 23.09375 24 21.976562 24 L 2.023438 24 C 0.90625 24 0 23.09375 0 21.976562 L 0 2.023438 C 0 0.90625 0.90625 0 2.023438 0 Z M 2.023438 0 "/>
<path style=" stroke:none;fill-rule:nonzero;fill:rgb(92.54902%,25.098039%,47.843137%);fill-opacity:1;" d="M 13.460938 10.085938 C 14.203125 9.59375 14.65625 8.765625 14.664062 7.875 L 14.664062 7.03125 C 14.660156 5.5625 13.46875 4.371094 12 4.367188 C 10.53125 4.371094 9.339844 5.5625 9.335938 7.03125 L 9.335938 7.875 C 9.339844 8.769531 9.792969 9.605469 10.539062 10.09375 L 10.539062 10.722656 C 10.539062 11.046875 10.367188 11.34375 10.085938 11.503906 L 7.757812 12.816406 C 6.773438 13.375 6.160156 14.417969 6.160156 15.550781 L 6.160156 16.746094 L 9.820312 16.746094 L 12 15.246094 L 12.75 15.347656 L 14.25 16.734375 L 17.859375 16.734375 L 17.859375 15.539062 C 17.859375 14.40625 17.246094 13.363281 16.257812 12.804688 L 13.933594 11.492188 C 13.652344 11.335938 13.476562 11.035156 13.476562 10.710938 L 13.476562 10.085938 "/>
<path style=" stroke:none;fill-rule:nonzero;fill:rgb(100%,100%,100%);fill-opacity:1;" d="M 14.304688 14.726562 L 14.175781 14.726562 L 14.175781 13.476562 C 14.175781 12.6875 13.539062 12.050781 12.75 12.046875 L 11.347656 12.046875 C 10.558594 12.050781 9.921875 12.6875 9.921875 13.476562 L 9.921875 14.726562 L 9.695312 14.726562 C 9.539062 14.726562 9.382812 14.789062 9.273438 14.902344 C 9.160156 15.015625 9.097656 15.171875 9.097656 15.328125 L 9.097656 19.03125 C 9.097656 19.191406 9.160156 19.34375 9.273438 19.457031 C 9.382812 19.570312 9.539062 19.632812 9.695312 19.632812 L 14.304688 19.632812 C 14.632812 19.632812 14.902344 19.363281 14.902344 19.03125 L 14.902344 15.328125 C 14.902344 15 14.632812 14.726562 14.304688 14.726562 Z M 12.289062 17.148438 L 12.289062 18.375 C 12.289062 18.535156 12.160156 18.664062 12 18.664062 C 11.839844 18.664062 11.710938 18.535156 11.710938 18.375 L 11.710938 17.148438 C 11.371094 17.011719 11.175781 16.648438 11.246094 16.289062 C 11.316406 15.929688 11.632812 15.667969 12 15.667969 C 12.367188 15.667969 12.683594 15.929688 12.753906 16.289062 C 12.824219 16.648438 12.628906 17.011719 12.289062 17.148438 Z M 13.414062 14.726562 L 10.671875 14.726562 L 10.671875 13.476562 C 10.671875 13.105469 10.976562 12.804688 11.347656 12.804688 L 12.75 12.804688 C 13.125 12.804688 13.425781 13.105469 13.425781 13.476562 Z M 13.414062 14.726562 "/>
</g>
</svg>
