
<svg xmlns="http://www.w3.org/2000/svg" xmlns:xlink="http://www.w3.org/1999/xlink" width="24px" height="24px" viewBox="0 0 24 24" version="1.1">
<defs>
<linearGradient id="linear0" gradientUnits="userSpaceOnUse" x1="-571.81" y1="-2840.37" x2="-571.81" y2="-2826.56" gradientTransform="matrix(0.265165,-0.265165,0.265165,0.265165,914.071796,611.013754)">
<stop offset="0" style="stop-color:rgb(100%,100%,100%);stop-opacity:0;"/>
<stop offset="1" style="stop-color:rgb(100%,100%,100%);stop-opacity:1;"/>
</linearGradient>
</defs>
<g id="surface1">
<path style=" stroke:none;fill-rule:nonzero;fill:rgb(36.078431%,41.960784%,75.294118%);fill-opacity:1;" d="M 2.023438 0 L 21.976562 0 C 23.09375 0 24 0.90625 24 2.023438 L 24 21.976562 C 24 23.09375 23.09375 24 21.976562 24 L 2.023438 24 C 0.90625 24 0 23.09375 0 21.976562 L 0 2.023438 C 0 0.90625 0.90625 0 2.023438 0 Z M 2.023438 0 "/>
<path style=" stroke:none;fill-rule:nonzero;fill:rgb(100%,100%,100%);fill-opacity:1;" d="M 10.953125 5.78125 C 11.1875 5.769531 11.417969 5.851562 11.589844 6.007812 L 17.25 11.664062 L 19.21875 13.632812 C 19.859375 14.277344 19.078125 16.089844 17.484375 17.6875 C 16.265625 18.90625 14.917969 19.648438 14.0625 19.648438 C 13.828125 19.664062 13.597656 19.582031 13.425781 19.425781 L 5.792969 11.792969 C 5.152344 11.152344 5.929688 9.335938 7.53125 7.734375 C 8.75 6.515625 10.089844 5.773438 10.945312 5.773438 M 10.945312 5.210938 C 9.902344 5.210938 8.441406 6.027344 7.132812 7.339844 C 5.5 9 4.378906 11.175781 5.402344 12.199219 L 12.527344 19.324219 L 13.035156 19.828125 C 13.3125 20.089844 13.6875 20.226562 14.070312 20.203125 C 15.113281 20.203125 16.574219 19.390625 17.886719 18.078125 C 18.648438 17.34375 19.265625 16.476562 19.714844 15.515625 C 20.289062 14.179688 19.902344 13.507812 19.625 13.230469 L 17.648438 11.25 L 12 5.625 C 11.71875 5.363281 11.347656 5.230469 10.964844 5.25 Z M 10.945312 5.210938 "/>
<path style=" stroke:none;fill-rule:nonzero;fill:url(#linear0);" d="M 5.800781 11.800781 L 11.589844 6.011719 L 16.085938 10.507812 L 10.296875 16.296875 Z M 5.800781 11.800781 "/>
<path style=" stroke:none;fill-rule:nonzero;fill:rgb(100%,100%,100%);fill-opacity:1;" d="M 11.589844 6.007812 C 10.949219 5.367188 9.132812 6.144531 7.535156 7.742188 C 5.9375 9.34375 5.15625 11.15625 5.796875 11.796875 C 6.4375 12.4375 8.253906 11.660156 9.851562 10.0625 C 11.453125 8.460938 12.230469 6.648438 11.589844 6.007812 Z M 11.589844 6.007812 "/>
<path style=" stroke:none;fill-rule:nonzero;fill:rgb(70.196078%,70.196078%,70.196078%);fill-opacity:1;" d="M 9.679688 6.417969 C 9.296875 6.035156 8.207031 6.5 7.25 7.457031 C 6.292969 8.414062 5.828125 9.503906 6.210938 9.886719 C 6.59375 10.269531 7.679688 9.804688 8.640625 8.847656 C 9.597656 7.890625 10.0625 6.800781 9.679688 6.417969 Z M 9.679688 6.417969 "/>
<path style=" stroke:none;fill-rule:nonzero;fill:rgb(100%,100%,100%);fill-opacity:1;" d="M 9.089844 5.863281 C 8.703125 5.480469 7.617188 5.945312 6.660156 6.902344 C 5.703125 7.859375 5.234375 8.949219 5.621094 9.332031 C 6.003906 9.714844 7.09375 9.25 8.050781 8.292969 C 9.007812 7.335938 9.472656 6.246094 9.089844 5.863281 Z M 9.089844 5.863281 "/>
<path style=" stroke:none;fill-rule:nonzero;fill:rgb(16.078431%,71.372549%,96.470588%);fill-opacity:1;" d="M 11.457031 17.457031 L 13.425781 19.425781 C 14.066406 20.066406 15.882812 19.289062 17.484375 17.6875 C 19.085938 16.085938 19.859375 14.277344 19.21875 13.632812 L 17.25 11.664062 Z M 11.457031 17.457031 "/>
<path style=" stroke:none;fill-rule:nonzero;fill:rgb(100%,100%,100%);fill-opacity:1;" d="M 17.246094 11.667969 C 16.605469 11.027344 14.789062 11.804688 13.191406 13.40625 C 11.59375 15.003906 10.8125 16.820312 11.453125 17.460938 C 12.09375 18.097656 13.910156 17.320312 15.507812 15.722656 C 17.109375 14.125 17.886719 12.308594 17.246094 11.667969 Z M 17.246094 11.667969 "/>
<path style=" stroke:none;fill-rule:nonzero;fill:rgb(16.078431%,71.372549%,96.470588%);fill-opacity:1;" d="M 8.964844 14.964844 L 10.933594 16.933594 C 11.578125 17.578125 13.390625 16.800781 14.992188 15.199219 C 16.59375 13.597656 17.371094 11.785156 16.726562 11.144531 L 14.757812 9.175781 Z M 8.964844 14.964844 "/>
<path style=" stroke:none;fill-rule:nonzero;fill:rgb(100%,100%,100%);fill-opacity:1;" d="M 14.757812 9.179688 C 14.117188 8.539062 12.300781 9.316406 10.703125 10.914062 C 9.101562 12.515625 8.324219 14.328125 8.964844 14.96875 C 9.605469 15.609375 11.421875 14.832031 13.019531 13.234375 C 14.617188 11.632812 15.394531 9.816406 14.757812 9.179688 Z M 14.757812 9.179688 "/>
</g>
</svg>
