
<svg xmlns="http://www.w3.org/2000/svg" xmlns:xlink="http://www.w3.org/1999/xlink" width="24px" height="24px" viewBox="0 0 24 24" version="1.1">
<g id="surface1">
<path style=" stroke:none;fill-rule:nonzero;fill:rgb(49.411765%,34.117647%,76.862745%);fill-opacity:1;" d="M 2.023438 0 L 21.976562 0 C 23.09375 0 24 0.90625 24 2.023438 L 24 21.976562 C 24 23.09375 23.09375 24 21.976562 24 L 2.023438 24 C 0.90625 24 0 23.09375 0 21.976562 L 0 2.023438 C 0 0.90625 0.90625 0 2.023438 0 Z M 2.023438 0 "/>
<path style=" stroke:none;fill-rule:nonzero;fill:rgb(100%,100%,100%);fill-opacity:1;" d="M 13.460938 11.53125 C 14.210938 11.039062 14.664062 10.203125 14.664062 9.308594 L 14.664062 8.476562 C 14.660156 7.007812 13.46875 5.820312 12 5.816406 C 10.53125 5.820312 9.339844 7.007812 9.335938 8.476562 L 9.335938 9.3125 C 9.339844 10.207031 9.792969 11.039062 10.539062 11.53125 L 10.539062 12.15625 C 10.539062 12.484375 10.367188 12.78125 10.085938 12.941406 L 7.757812 14.25 C 6.773438 14.804688 6.160156 15.851562 6.160156 16.984375 L 6.160156 18.179688 L 17.839844 18.179688 L 17.839844 16.988281 C 17.839844 15.851562 17.230469 14.804688 16.242188 14.25 L 13.914062 12.9375 C 13.632812 12.777344 13.460938 12.476562 13.460938 12.152344 L 13.460938 11.53125 "/>
</g>
</svg>
