
<svg xmlns="http://www.w3.org/2000/svg" xmlns:xlink="http://www.w3.org/1999/xlink" width="24px" height="24px" viewBox="0 0 24 24" version="1.1">
<g id="surface1">
<path style=" stroke:none;fill-rule:nonzero;fill:rgb(92.54902%,25.098039%,47.843137%);fill-opacity:1;" d="M 24 12 L 24 2.023438 C 24 0.90625 23.09375 0 21.976562 0 L 12 0 L 12 12 Z M 24 12 "/>
<path style=" stroke:none;fill-rule:nonzero;fill:rgb(91.764706%,92.156863%,93.72549%);fill-opacity:1;" d="M 12 0 L 2.023438 0 C 0.90625 0 0 0.90625 0 2.023438 L 0 12 L 12 12 Z M 12 0 "/>
<path style=" stroke:none;fill-rule:nonzero;fill:rgb(16.078431%,71.372549%,96.470588%);fill-opacity:1;" d="M 12 12 L 12 24 L 21.976562 24 C 23.09375 24 24 23.09375 24 21.976562 L 24 12 Z M 12 12 "/>
<path style=" stroke:none;fill-rule:nonzero;fill:rgb(63.137255%,38.431373%,96.862745%);fill-opacity:1;" d="M 0 12 L 0 21.976562 C 0 23.09375 0.90625 24 2.023438 24 L 12 24 L 12 12 Z M 0 12 "/>
<path style=" stroke:none;fill-rule:nonzero;fill:rgb(100%,100%,100%);fill-opacity:1;" d="M 19.007812 20.136719 L 17.195312 20.136719 C 16.765625 20.136719 16.414062 19.785156 16.414062 19.351562 L 16.414062 17.851562 C 16.414062 17.421875 16.765625 17.070312 17.195312 17.070312 L 18.34375 17.070312 C 18.476562 17.070312 18.585938 17.179688 18.585938 17.308594 C 18.585938 17.441406 18.476562 17.550781 18.34375 17.550781 L 17.195312 17.550781 C 17.03125 17.550781 16.894531 17.6875 16.894531 17.851562 L 16.894531 19.351562 C 16.894531 19.519531 17.03125 19.652344 17.195312 19.652344 L 19.007812 19.652344 C 19.089844 19.65625 19.164062 19.625 19.222656 19.566406 C 19.28125 19.511719 19.3125 19.433594 19.3125 19.351562 L 19.3125 17.851562 C 19.3125 17.6875 19.175781 17.550781 19.007812 17.550781 L 18.769531 17.550781 L 18.769531 16.539062 C 18.757812 16.308594 18.566406 16.125 18.335938 16.125 L 18.054688 16.125 C 17.820312 16.128906 17.632812 16.3125 17.625 16.539062 L 17.625 16.640625 C 17.636719 16.734375 17.59375 16.828125 17.515625 16.878906 C 17.433594 16.929688 17.332031 16.929688 17.253906 16.878906 C 17.171875 16.828125 17.128906 16.734375 17.140625 16.640625 L 17.140625 16.539062 C 17.144531 16.039062 17.550781 15.628906 18.054688 15.625 L 18.335938 15.625 C 18.84375 15.625 19.253906 16.035156 19.257812 16.539062 L 19.257812 17.089844 C 19.582031 17.195312 19.800781 17.496094 19.800781 17.839844 L 19.800781 19.339844 C 19.804688 19.550781 19.71875 19.753906 19.570312 19.90625 C 19.421875 20.054688 19.21875 20.140625 19.007812 20.136719 Z M 19.007812 20.136719 "/>
<path style=" stroke:none;fill-rule:nonzero;fill:rgb(100%,100%,100%);fill-opacity:1;" d="M 17.890625 4.648438 C 18.199219 4.648438 18.445312 4.894531 18.445312 5.203125 C 18.445312 5.507812 18.199219 5.757812 17.890625 5.757812 C 17.585938 5.757812 17.335938 5.507812 17.335938 5.203125 C 17.335938 5.054688 17.394531 4.914062 17.5 4.808594 C 17.601562 4.703125 17.742188 4.644531 17.890625 4.648438 M 17.890625 4.199219 C 17.519531 4.175781 17.164062 4.363281 16.972656 4.679688 C 16.78125 5 16.78125 5.398438 16.972656 5.71875 C 17.164062 6.035156 17.519531 6.222656 17.890625 6.199219 C 18.261719 6.222656 18.617188 6.035156 18.808594 5.71875 C 19 5.398438 19 5 18.808594 4.679688 C 18.617188 4.363281 18.261719 4.175781 17.890625 4.199219 Z M 17.890625 4.199219 "/>
<path style=" stroke:none;fill-rule:nonzero;fill:rgb(100%,100%,100%);fill-opacity:1;" d="M 17.890625 6.871094 C 18.703125 6.871094 19.417969 7.414062 19.632812 8.203125 C 19.636719 8.207031 19.636719 8.21875 19.632812 8.222656 L 16.152344 8.222656 C 16.152344 8.222656 16.152344 8.203125 16.152344 8.203125 C 16.367188 7.414062 17.078125 6.871094 17.894531 6.871094 M 17.894531 6.421875 C 16.878906 6.421875 15.984375 7.101562 15.71875 8.085938 C 15.679688 8.226562 15.707031 8.375 15.796875 8.492188 C 15.882812 8.609375 16.019531 8.675781 16.164062 8.679688 L 19.625 8.679688 C 19.769531 8.675781 19.90625 8.605469 19.992188 8.492188 C 20.078125 8.375 20.109375 8.226562 20.070312 8.085938 C 19.804688 7.101562 18.914062 6.421875 17.894531 6.421875 Z M 17.894531 6.421875 "/>
<path style=" stroke:none;fill-rule:nonzero;fill:rgb(50.196078%,50.196078%,50.196078%);fill-opacity:1;" d="M 8.070312 8.023438 L 8.070312 5.023438 C 8.070312 4.539062 7.679688 4.148438 7.195312 4.148438 L 5.695312 4.148438 C 5.214844 4.148438 4.820312 4.539062 4.820312 5.023438 L 4.820312 6.875 C 4.726562 6.835938 4.625 6.8125 4.519531 6.8125 C 4.167969 6.78125 3.859375 7.039062 3.824219 7.390625 C 3.859375 7.734375 4.15625 7.984375 4.5 7.964844 C 4.847656 7.992188 5.15625 7.734375 5.191406 7.386719 L 5.191406 5.371094 C 5.1875 5.171875 5.347656 5.003906 5.546875 4.996094 L 7.300781 4.996094 C 7.5 5.003906 7.65625 5.171875 7.65625 5.371094 L 7.65625 7.554688 C 7.5625 7.515625 7.464844 7.496094 7.367188 7.496094 C 7.015625 7.46875 6.707031 7.726562 6.671875 8.074219 C 6.707031 8.421875 7.015625 8.679688 7.367188 8.652344 C 7.714844 8.679688 8.023438 8.421875 8.058594 8.074219 C 8.078125 8.054688 8.070312 8.035156 8.070312 8.023438 Z M 8.070312 8.023438 "/>
<path style=" stroke:none;fill-rule:nonzero;fill:rgb(100%,100%,100%);fill-opacity:1;" d="M 9.066406 16.757812 L 7.96875 16.382812 C 7.886719 16.355469 7.828125 16.28125 7.828125 16.191406 C 7.828125 16.082031 7.742188 15.992188 7.632812 15.992188 L 4.332031 15.992188 C 4.222656 15.992188 4.132812 16.082031 4.132812 16.191406 L 4.132812 19.742188 C 4.132812 19.855469 4.21875 19.945312 4.332031 19.945312 L 7.632812 19.945312 C 7.683594 19.945312 7.734375 19.925781 7.773438 19.886719 C 7.8125 19.847656 7.832031 19.796875 7.828125 19.742188 C 7.828125 19.679688 7.859375 19.617188 7.914062 19.582031 C 7.96875 19.542969 8.035156 19.535156 8.097656 19.554688 L 8.128906 19.554688 C 8.179688 19.574219 8.234375 19.570312 8.28125 19.546875 C 8.328125 19.519531 8.367188 19.480469 8.382812 19.429688 L 9.195312 17 C 9.21875 16.898438 9.164062 16.796875 9.066406 16.757812 Z M 7.191406 19.105469 L 4.78125 19.105469 C 4.671875 19.105469 4.582031 19.015625 4.578125 18.90625 L 4.578125 16.65625 C 4.578125 16.546875 4.667969 16.453125 4.78125 16.453125 L 7.183594 16.453125 C 7.296875 16.457031 7.382812 16.546875 7.382812 16.65625 L 7.382812 18.90625 C 7.390625 18.960938 7.371094 19.019531 7.332031 19.0625 C 7.296875 19.101562 7.242188 19.125 7.183594 19.125 Z M 7.835938 18.65625 L 7.835938 16.976562 C 7.835938 16.910156 7.867188 16.851562 7.921875 16.8125 C 7.976562 16.773438 8.042969 16.765625 8.101562 16.789062 L 8.652344 16.972656 C 8.703125 16.988281 8.742188 17.023438 8.765625 17.070312 C 8.789062 17.117188 8.796875 17.171875 8.777344 17.222656 L 8.25 18.75 C 8.234375 18.800781 8.199219 18.84375 8.148438 18.867188 C 8.101562 18.890625 8.046875 18.894531 8 18.878906 L 7.953125 18.878906 C 7.867188 18.839844 7.816406 18.75 7.828125 18.65625 Z M 7.835938 18.65625 "/>
</g>
</svg>
