
<svg xmlns="http://www.w3.org/2000/svg" xmlns:xlink="http://www.w3.org/1999/xlink" width="24px" height="24px" viewBox="0 0 24 24" version="1.1">
<g id="surface1">
<path style=" stroke:none;fill-rule:nonzero;fill:rgb(36.078431%,41.960784%,75.294118%);fill-opacity:1;" d="M 2.019531 0 L 21.980469 0 C 23.09375 0 24 0.90625 24 2.019531 L 24 21.980469 C 24 23.09375 23.09375 24 21.980469 24 L 2.019531 24 C 0.90625 24 0 23.09375 0 21.980469 L 0 2.019531 C 0 0.90625 0.90625 0 2.019531 0 Z M 2.019531 0 "/>
<path style=" stroke:none;fill-rule:nonzero;fill:rgb(16.078431%,71.372549%,96.470588%);fill-opacity:1;" d="M 16.378906 18 L 16.378906 12.3125 C 16.378906 11.898438 16.042969 11.5625 15.628906 11.5625 L 8.386719 11.5625 C 8.183594 11.554688 7.988281 11.632812 7.84375 11.773438 C 7.699219 11.914062 7.617188 12.109375 7.617188 12.3125 L 7.617188 18 Z M 16.378906 18 "/>
<path style=" stroke:none;fill-rule:nonzero;fill:rgb(100%,100%,100%);fill-opacity:1;" d="M 18.238281 7.5 L 16.5 5.761719 C 16.339844 5.601562 16.125 5.511719 15.898438 5.511719 L 7.058594 5.511719 C 6.203125 5.515625 5.515625 6.203125 5.511719 7.058594 L 5.511719 16.941406 C 5.515625 17.796875 6.203125 18.484375 7.058594 18.488281 L 16.941406 18.488281 C 17.796875 18.484375 18.484375 17.796875 18.488281 16.941406 L 18.488281 8.109375 C 18.488281 7.882812 18.402344 7.664062 18.238281 7.5 Z M 14.78125 7.285156 L 14.78125 8.492188 C 14.78125 8.726562 14.59375 8.914062 14.363281 8.914062 C 14.128906 8.914062 13.941406 8.726562 13.941406 8.492188 L 13.941406 7.296875 C 13.941406 7.066406 14.128906 6.878906 14.363281 6.878906 C 14.59375 6.878906 14.78125 7.066406 14.78125 7.296875 Z M 7.617188 17.785156 L 7.058594 17.785156 C 6.582031 17.785156 6.195312 17.398438 6.195312 16.921875 L 6.195312 7.058594 C 6.195312 6.582031 6.582031 6.195312 7.058594 6.195312 L 8.359375 6.195312 L 8.359375 9 C 8.359375 9.203125 8.441406 9.394531 8.585938 9.535156 C 8.730469 9.679688 8.925781 9.753906 9.128906 9.75 L 14.871094 9.75 C 15.289062 9.75 15.632812 9.417969 15.640625 9 L 15.640625 6.195312 L 15.890625 6.195312 C 15.933594 6.195312 15.972656 6.214844 16.003906 6.242188 L 17.757812 7.996094 C 17.785156 8.027344 17.804688 8.066406 17.804688 8.109375 L 17.804688 16.941406 C 17.804688 17.417969 17.417969 17.804688 16.941406 17.804688 L 7.617188 17.804688 Z M 7.617188 17.785156 "/>
<path style=" stroke:none;fill-rule:nonzero;fill:rgb(100%,100%,100%);fill-opacity:1;" d="M 9.164062 13.023438 L 14.832031 13.023438 L 14.832031 13.457031 L 9.164062 13.457031 Z M 9.164062 13.023438 "/>
<path style=" stroke:none;fill-rule:nonzero;fill:rgb(100%,100%,100%);fill-opacity:1;" d="M 9.164062 14.683594 L 14.832031 14.683594 L 14.832031 15.121094 L 9.164062 15.121094 Z M 9.164062 14.683594 "/>
<path style=" stroke:none;fill-rule:nonzero;fill:rgb(100%,100%,100%);fill-opacity:1;" d="M 9.164062 16.347656 L 14.832031 16.347656 L 14.832031 16.78125 L 9.164062 16.78125 Z M 9.164062 16.347656 "/>
</g>
</svg>
