
<svg xmlns="http://www.w3.org/2000/svg" xmlns:xlink="http://www.w3.org/1999/xlink" width="24px" height="24px" viewBox="0 0 24 24" version="1.1">
<g id="surface1">
<path style=" stroke:none;fill-rule:nonzero;fill:rgb(100%,100%,100%);fill-opacity:1;" d="M 19.417969 24 L 4.582031 24 C 2.050781 24 0 21.949219 0 19.417969 L 0 4.582031 C 0 2.050781 2.050781 0 4.582031 0 L 19.417969 0 C 21.949219 0 24 2.050781 24 4.582031 L 24 19.417969 C 24 21.949219 21.949219 24 19.417969 24 Z M 4.582031 2.625 C 3.503906 2.628906 2.628906 3.503906 2.625 4.582031 L 2.625 19.417969 C 2.628906 20.496094 3.503906 21.371094 4.582031 21.375 L 19.417969 21.375 C 20.496094 21.371094 21.371094 20.496094 21.375 19.417969 L 21.375 4.582031 C 21.371094 3.503906 20.496094 2.628906 19.417969 2.625 Z M 4.582031 2.625 "/>
<path style=" stroke:none;fill-rule:nonzero;fill:rgb(100%,100%,100%);fill-opacity:1;" d="M 5.097656 10.78125 L 3.941406 9.191406 L 6.769531 7.125 L 3.941406 5.074219 L 5.097656 3.503906 L 9 6.347656 C 9.253906 6.535156 9.398438 6.824219 9.398438 7.144531 C 9.398438 7.453125 9.253906 7.746094 9 7.933594 Z M 5.097656 10.78125 "/>
<path style=" stroke:none;fill-rule:nonzero;fill:rgb(100%,100%,100%);fill-opacity:1;" d="M 8.789062 8.789062 L 14.320312 8.789062 L 14.320312 10.757812 L 8.789062 10.757812 Z M 8.789062 8.789062 "/>
</g>
</svg>
