
<svg xmlns="http://www.w3.org/2000/svg" xmlns:xlink="http://www.w3.org/1999/xlink" width="16px" height="16px" viewBox="0 0 16 16" version="1.1">
<g id="surface1">
<path style=" stroke:none;fill-rule:nonzero;fill:rgb(49.411765%,34.117647%,76.862745%);fill-opacity:1;" d="M 1.347656 0 L 14.652344 0 C 15.394531 0 16 0.605469 16 1.347656 L 16 14.652344 C 16 15.394531 15.394531 16 14.652344 16 L 1.347656 16 C 0.605469 16 0 15.394531 0 14.652344 L 0 1.347656 C 0 0.605469 0.605469 0 1.347656 0 Z M 1.347656 0 "/>
<path style=" stroke:none;fill-rule:nonzero;fill:rgb(100%,100%,100%);fill-opacity:1;" d="M 2.9375 3.789062 L 4.289062 3.789062 C 4.542969 3.789062 4.753906 3.996094 4.753906 4.253906 L 4.753906 5.605469 C 4.753906 5.863281 4.542969 6.070312 4.289062 6.070312 L 2.9375 6.070312 C 2.679688 6.070312 2.472656 5.863281 2.472656 5.605469 L 2.472656 4.253906 C 2.472656 3.996094 2.679688 3.789062 2.9375 3.789062 Z M 2.9375 3.789062 "/>
<path style=" stroke:none;fill-rule:nonzero;fill:rgb(100%,100%,100%);fill-opacity:1;" d="M 5.863281 3.789062 L 7.210938 3.789062 C 7.46875 3.789062 7.675781 3.996094 7.675781 4.253906 L 7.675781 5.605469 C 7.675781 5.863281 7.46875 6.070312 7.210938 6.070312 L 5.863281 6.070312 C 5.605469 6.070312 5.398438 5.863281 5.398438 5.605469 L 5.398438 4.253906 C 5.398438 3.996094 5.605469 3.789062 5.863281 3.789062 Z M 5.863281 3.789062 "/>
<path style=" stroke:none;fill-rule:nonzero;fill:rgb(100%,100%,100%);fill-opacity:1;" d="M 8.789062 3.789062 L 10.136719 3.789062 C 10.394531 3.789062 10.601562 3.996094 10.601562 4.253906 L 10.601562 5.605469 C 10.601562 5.863281 10.394531 6.070312 10.136719 6.070312 L 8.789062 6.070312 C 8.53125 6.070312 8.324219 5.863281 8.324219 5.605469 L 8.324219 4.253906 C 8.324219 3.996094 8.53125 3.789062 8.789062 3.789062 Z M 8.789062 3.789062 "/>
<path style=" stroke:none;fill-rule:nonzero;fill:rgb(100%,100%,100%);fill-opacity:1;" d="M 11.710938 3.789062 L 13.058594 3.789062 C 13.316406 3.789062 13.523438 3.996094 13.523438 4.253906 L 13.523438 5.605469 C 13.523438 5.863281 13.316406 6.070312 13.058594 6.070312 L 11.710938 6.070312 C 11.453125 6.070312 11.246094 5.863281 11.246094 5.605469 L 11.246094 4.253906 C 11.246094 3.996094 11.453125 3.789062 11.710938 3.789062 Z M 11.710938 3.789062 "/>
<path style=" stroke:none;fill-rule:nonzero;fill:rgb(100%,100%,100%);fill-opacity:1;" d="M 2.9375 7.199219 L 4.289062 7.199219 C 4.542969 7.199219 4.753906 7.410156 4.753906 7.664062 L 4.753906 9.015625 C 4.753906 9.273438 4.542969 9.480469 4.289062 9.480469 L 2.9375 9.480469 C 2.679688 9.480469 2.472656 9.273438 2.472656 9.015625 L 2.472656 7.664062 C 2.472656 7.410156 2.679688 7.199219 2.9375 7.199219 Z M 2.9375 7.199219 "/>
<path style=" stroke:none;fill-rule:nonzero;fill:rgb(100%,100%,100%);fill-opacity:1;" d="M 5.863281 7.199219 L 7.210938 7.199219 C 7.46875 7.199219 7.675781 7.410156 7.675781 7.664062 L 7.675781 9.015625 C 7.675781 9.273438 7.46875 9.480469 7.210938 9.480469 L 5.863281 9.480469 C 5.605469 9.480469 5.398438 9.273438 5.398438 9.015625 L 5.398438 7.664062 C 5.398438 7.410156 5.605469 7.199219 5.863281 7.199219 Z M 5.863281 7.199219 "/>
</g>
</svg>
