
<svg xmlns="http://www.w3.org/2000/svg" xmlns:xlink="http://www.w3.org/1999/xlink" width="16px" height="16px" viewBox="0 0 16 16" version="1.1">
<defs>
<clipPath id="clip1">
  <path d="M 7.667969 2.167969 L 8.167969 2.167969 L 8.167969 3.832031 L 7.667969 3.832031 Z M 7.667969 2.167969 "/>
</clipPath>
<clipPath id="clip2">
  <path d="M 13.816406 8 C 13.816406 11.214844 11.214844 13.816406 8 13.816406 C 4.785156 13.816406 2.183594 11.214844 2.183594 8 C 2.183594 4.785156 4.785156 2.183594 8 2.183594 C 11.214844 2.183594 13.816406 4.785156 13.816406 8 Z M 13.816406 8 "/>
</clipPath>
<clipPath id="clip3">
  <path d="M 7.667969 12.167969 L 8.167969 12.167969 L 8.167969 13.832031 L 7.667969 13.832031 Z M 7.667969 12.167969 "/>
</clipPath>
<clipPath id="clip4">
  <path d="M 13.816406 8 C 13.816406 11.214844 11.214844 13.816406 8 13.816406 C 4.785156 13.816406 2.183594 11.214844 2.183594 8 C 2.183594 4.785156 4.785156 2.183594 8 2.183594 C 11.214844 2.183594 13.816406 4.785156 13.816406 8 Z M 13.816406 8 "/>
</clipPath>
<clipPath id="clip5">
  <path d="M 12.167969 7.832031 L 13.832031 7.832031 L 13.832031 8.332031 L 12.167969 8.332031 Z M 12.167969 7.832031 "/>
</clipPath>
<clipPath id="clip6">
  <path d="M 13.816406 8 C 13.816406 11.214844 11.214844 13.816406 8 13.816406 C 4.785156 13.816406 2.183594 11.214844 2.183594 8 C 2.183594 4.785156 4.785156 2.183594 8 2.183594 C 11.214844 2.183594 13.816406 4.785156 13.816406 8 Z M 13.816406 8 "/>
</clipPath>
<clipPath id="clip7">
  <path d="M 2.167969 7.832031 L 3.667969 7.832031 L 3.667969 8.167969 L 2.167969 8.167969 Z M 2.167969 7.832031 "/>
</clipPath>
<clipPath id="clip8">
  <path d="M 13.816406 8 C 13.816406 11.214844 11.214844 13.816406 8 13.816406 C 4.785156 13.816406 2.183594 11.214844 2.183594 8 C 2.183594 4.785156 4.785156 2.183594 8 2.183594 C 11.214844 2.183594 13.816406 4.785156 13.816406 8 Z M 13.816406 8 "/>
</clipPath>
<clipPath id="clip9">
  <path d="M 12 10.332031 L 13.832031 10.332031 L 13.832031 12.332031 L 12 12.332031 Z M 12 10.332031 "/>
</clipPath>
<clipPath id="clip10">
  <path d="M 13.816406 8 C 13.816406 11.214844 11.214844 13.816406 8 13.816406 C 4.785156 13.816406 2.183594 11.214844 2.183594 8 C 2.183594 4.785156 4.785156 2.183594 8 2.183594 C 11.214844 2.183594 13.816406 4.785156 13.816406 8 Z M 13.816406 8 "/>
</clipPath>
<clipPath id="clip11">
  <path d="M 2.167969 3.667969 L 3.832031 3.667969 L 3.832031 5.667969 L 2.167969 5.667969 Z M 2.167969 3.667969 "/>
</clipPath>
<clipPath id="clip12">
  <path d="M 13.816406 8 C 13.816406 11.214844 11.214844 13.816406 8 13.816406 C 4.785156 13.816406 2.183594 11.214844 2.183594 8 C 2.183594 4.785156 4.785156 2.183594 8 2.183594 C 11.214844 2.183594 13.816406 4.785156 13.816406 8 Z M 13.816406 8 "/>
</clipPath>
<clipPath id="clip13">
  <path d="M 10 12.167969 L 11.832031 12.167969 L 11.832031 13.832031 L 10 13.832031 Z M 10 12.167969 "/>
</clipPath>
<clipPath id="clip14">
  <path d="M 13.816406 8 C 13.816406 11.214844 11.214844 13.816406 8 13.816406 C 4.785156 13.816406 2.183594 11.214844 2.183594 8 C 2.183594 4.785156 4.785156 2.183594 8 2.183594 C 11.214844 2.183594 13.816406 4.785156 13.816406 8 Z M 13.816406 8 "/>
</clipPath>
<clipPath id="clip15">
  <path d="M 4 2.167969 L 5.832031 2.167969 L 5.832031 3.832031 L 4 3.832031 Z M 4 2.167969 "/>
</clipPath>
<clipPath id="clip16">
  <path d="M 13.816406 8 C 13.816406 11.214844 11.214844 13.816406 8 13.816406 C 4.785156 13.816406 2.183594 11.214844 2.183594 8 C 2.183594 4.785156 4.785156 2.183594 8 2.183594 C 11.214844 2.183594 13.816406 4.785156 13.816406 8 Z M 13.816406 8 "/>
</clipPath>
<clipPath id="clip17">
  <path d="M 2.167969 10.332031 L 3.832031 10.332031 L 3.832031 12.332031 L 2.167969 12.332031 Z M 2.167969 10.332031 "/>
</clipPath>
<clipPath id="clip18">
  <path d="M 13.816406 8 C 13.816406 11.214844 11.214844 13.816406 8 13.816406 C 4.785156 13.816406 2.183594 11.214844 2.183594 8 C 2.183594 4.785156 4.785156 2.183594 8 2.183594 C 11.214844 2.183594 13.816406 4.785156 13.816406 8 Z M 13.816406 8 "/>
</clipPath>
<clipPath id="clip19">
  <path d="M 12 3.667969 L 13.832031 3.667969 L 13.832031 5.667969 L 12 5.667969 Z M 12 3.667969 "/>
</clipPath>
<clipPath id="clip20">
  <path d="M 13.816406 8 C 13.816406 11.214844 11.214844 13.816406 8 13.816406 C 4.785156 13.816406 2.183594 11.214844 2.183594 8 C 2.183594 4.785156 4.785156 2.183594 8 2.183594 C 11.214844 2.183594 13.816406 4.785156 13.816406 8 Z M 13.816406 8 "/>
</clipPath>
<clipPath id="clip21">
  <path d="M 4 12.167969 L 5.832031 12.167969 L 5.832031 13.832031 L 4 13.832031 Z M 4 12.167969 "/>
</clipPath>
<clipPath id="clip22">
  <path d="M 13.816406 8 C 13.816406 11.214844 11.214844 13.816406 8 13.816406 C 4.785156 13.816406 2.183594 11.214844 2.183594 8 C 2.183594 4.785156 4.785156 2.183594 8 2.183594 C 11.214844 2.183594 13.816406 4.785156 13.816406 8 Z M 13.816406 8 "/>
</clipPath>
<clipPath id="clip23">
  <path d="M 10 2.167969 L 11.832031 2.167969 L 11.832031 3.832031 L 10 3.832031 Z M 10 2.167969 "/>
</clipPath>
<clipPath id="clip24">
  <path d="M 13.816406 8 C 13.816406 11.214844 11.214844 13.816406 8 13.816406 C 4.785156 13.816406 2.183594 11.214844 2.183594 8 C 2.183594 4.785156 4.785156 2.183594 8 2.183594 C 11.214844 2.183594 13.816406 4.785156 13.816406 8 Z M 13.816406 8 "/>
</clipPath>
</defs>
<g id="surface1">
<path style=" stroke:none;fill-rule:nonzero;fill:rgb(91.764706%,92.156863%,93.72549%);fill-opacity:1;" d="M 1.347656 0 L 14.652344 0 C 15.394531 0 16 0.605469 16 1.347656 L 16 14.652344 C 16 15.394531 15.394531 16 14.652344 16 L 1.347656 16 C 0.605469 16 0 15.394531 0 14.652344 L 0 1.347656 C 0 0.605469 0.605469 0 1.347656 0 Z M 1.347656 0 "/>
<path style=" stroke:none;fill-rule:nonzero;fill:rgb(49.411765%,34.117647%,76.862745%);fill-opacity:1;" d="M 13.816406 8 C 13.816406 11.214844 11.214844 13.816406 8 13.816406 C 4.785156 13.816406 2.183594 11.214844 2.183594 8 C 2.183594 4.785156 4.785156 2.183594 8 2.183594 C 11.214844 2.183594 13.816406 4.785156 13.816406 8 Z M 13.816406 8 "/>
<path style=" stroke:none;fill-rule:nonzero;fill:rgb(100%,100%,100%);fill-opacity:1;" d="M 7.941406 4.65625 C 8.046875 4.65625 8.128906 4.742188 8.128906 4.84375 L 8.128906 7.855469 C 8.128906 7.960938 8.046875 8.042969 7.941406 8.042969 C 7.839844 8.042969 7.753906 7.960938 7.753906 7.855469 L 7.753906 4.84375 C 7.753906 4.742188 7.839844 4.65625 7.941406 4.65625 Z M 7.941406 4.65625 "/>
<path style=" stroke:none;fill-rule:nonzero;fill:rgb(100%,40%,84.313725%);fill-opacity:1;" d="M 8.089844 8.023438 L 11.191406 11.125 C 11.222656 11.15625 11.222656 11.210938 11.191406 11.246094 C 11.160156 11.277344 11.105469 11.277344 11.070312 11.246094 L 7.96875 8.144531 C 7.9375 8.113281 7.9375 8.058594 7.96875 8.023438 C 8.003906 7.992188 8.058594 7.992188 8.089844 8.023438 Z M 8.089844 8.023438 "/>
<path style=" stroke:none;fill-rule:nonzero;fill:rgb(100%,100%,100%);fill-opacity:1;" d="M 8.289062 8 C 8.289062 8.179688 8.144531 8.328125 7.960938 8.328125 C 7.78125 8.328125 7.636719 8.179688 7.636719 8 C 7.636719 7.820312 7.78125 7.671875 7.960938 7.671875 C 8.144531 7.671875 8.289062 7.820312 8.289062 8 Z M 8.289062 8 "/>
<g clip-path="url(#clip1)" clip-rule="nonzero">
<g clip-path="url(#clip2)" clip-rule="nonzero">
<path style=" stroke:none;fill-rule:nonzero;fill:rgb(100%,100%,100%);fill-opacity:1;" d="M 7.941406 0.726562 C 8.035156 0.726562 8.105469 0.800781 8.105469 0.894531 L 8.105469 3.546875 C 8.105469 3.636719 8.035156 3.710938 7.941406 3.710938 C 7.851562 3.710938 7.777344 3.636719 7.777344 3.546875 L 7.777344 0.894531 C 7.777344 0.800781 7.851562 0.726562 7.941406 0.726562 Z M 7.941406 0.726562 "/>
</g>
</g>
<g clip-path="url(#clip3)" clip-rule="nonzero">
<g clip-path="url(#clip4)" clip-rule="nonzero">
<path style=" stroke:none;fill-rule:nonzero;fill:rgb(100%,100%,100%);fill-opacity:1;" d="M 7.941406 12.289062 C 8.035156 12.289062 8.105469 12.363281 8.105469 12.453125 L 8.105469 15.105469 C 8.105469 15.199219 8.035156 15.273438 7.941406 15.273438 C 7.851562 15.273438 7.777344 15.199219 7.777344 15.105469 L 7.777344 12.453125 C 7.777344 12.363281 7.851562 12.289062 7.941406 12.289062 Z M 7.941406 12.289062 "/>
</g>
</g>
<g clip-path="url(#clip5)" clip-rule="nonzero">
<g clip-path="url(#clip6)" clip-rule="nonzero">
<path style=" stroke:none;fill-rule:nonzero;fill:rgb(100%,100%,100%);fill-opacity:1;" d="M 15.214844 8.003906 C 15.214844 8.09375 15.140625 8.167969 15.050781 8.167969 L 12.394531 8.167969 C 12.304688 8.167969 12.230469 8.09375 12.230469 8.003906 C 12.230469 7.910156 12.304688 7.835938 12.394531 7.835938 L 15.050781 7.835938 C 15.140625 7.835938 15.214844 7.910156 15.214844 8.003906 Z M 15.214844 8.003906 "/>
</g>
</g>
<g clip-path="url(#clip7)" clip-rule="nonzero">
<g clip-path="url(#clip8)" clip-rule="nonzero">
<path style=" stroke:none;fill-rule:nonzero;fill:rgb(100%,100%,100%);fill-opacity:1;" d="M 3.65625 8 C 3.65625 8.089844 3.582031 8.164062 3.488281 8.164062 L 0.835938 8.164062 C 0.746094 8.164062 0.667969 8.089844 0.667969 8 C 0.667969 7.910156 0.746094 7.835938 0.835938 7.835938 L 3.488281 7.835938 C 3.582031 7.835938 3.65625 7.910156 3.65625 8 Z M 3.65625 8 "/>
</g>
</g>
<g clip-path="url(#clip9)" clip-rule="nonzero">
<g clip-path="url(#clip10)" clip-rule="nonzero">
<path style=" stroke:none;fill-rule:nonzero;fill:rgb(100%,100%,100%);fill-opacity:1;" d="M 15.074219 12.160156 C 15.054688 12.191406 15.019531 12.199219 14.988281 12.183594 L 12.171875 10.535156 C 12.140625 10.519531 12.128906 10.480469 12.148438 10.453125 C 12.164062 10.425781 12.203125 10.414062 12.230469 10.433594 L 15.050781 12.074219 C 15.082031 12.09375 15.089844 12.132812 15.074219 12.160156 Z M 15.074219 12.160156 "/>
</g>
</g>
<g clip-path="url(#clip11)" clip-rule="nonzero">
<g clip-path="url(#clip12)" clip-rule="nonzero">
<path style=" stroke:none;fill-rule:nonzero;fill:rgb(100%,100%,100%);fill-opacity:1;" d="M 3.738281 5.546875 C 3.722656 5.578125 3.683594 5.585938 3.652344 5.570312 L 0.835938 3.925781 C 0.804688 3.90625 0.796875 3.871094 0.8125 3.839844 C 0.828125 3.8125 0.867188 3.800781 0.898438 3.820312 L 3.714844 5.464844 C 3.746094 5.480469 3.753906 5.519531 3.738281 5.546875 Z M 3.738281 5.546875 "/>
</g>
</g>
<g clip-path="url(#clip13)" clip-rule="nonzero">
<g clip-path="url(#clip14)" clip-rule="nonzero">
<path style=" stroke:none;fill-rule:nonzero;fill:rgb(100%,100%,100%);fill-opacity:1;" d="M 11.699219 15.351562 C 11.671875 15.367188 11.632812 15.355469 11.617188 15.324219 L 10.132812 12.417969 C 10.117188 12.386719 10.128906 12.351562 10.160156 12.335938 C 10.191406 12.320312 10.226562 12.332031 10.242188 12.363281 L 11.726562 15.269531 C 11.742188 15.300781 11.730469 15.339844 11.699219 15.351562 Z M 11.699219 15.351562 "/>
</g>
</g>
<g clip-path="url(#clip15)" clip-rule="nonzero">
<g clip-path="url(#clip16)" clip-rule="nonzero">
<path style=" stroke:none;fill-rule:nonzero;fill:rgb(100%,100%,100%);fill-opacity:1;" d="M 5.726562 3.667969 C 5.695312 3.683594 5.660156 3.671875 5.644531 3.640625 L 4.160156 0.738281 C 4.144531 0.707031 4.15625 0.667969 4.1875 0.652344 C 4.214844 0.636719 4.253906 0.648438 4.269531 0.679688 L 5.753906 3.585938 C 5.769531 3.617188 5.757812 3.652344 5.726562 3.667969 Z M 5.726562 3.667969 "/>
</g>
</g>
<g clip-path="url(#clip17)" clip-rule="nonzero">
<g clip-path="url(#clip18)" clip-rule="nonzero">
<path style=" stroke:none;fill-rule:nonzero;fill:rgb(100%,100%,100%);fill-opacity:1;" d="M 3.738281 10.453125 C 3.757812 10.480469 3.746094 10.519531 3.714844 10.535156 L 0.898438 12.179688 C 0.867188 12.199219 0.832031 12.1875 0.8125 12.160156 C 0.796875 12.128906 0.808594 12.09375 0.835938 12.074219 L 3.652344 10.429688 C 3.683594 10.414062 3.722656 10.421875 3.738281 10.453125 Z M 3.738281 10.453125 "/>
</g>
</g>
<g clip-path="url(#clip19)" clip-rule="nonzero">
<g clip-path="url(#clip20)" clip-rule="nonzero">
<path style=" stroke:none;fill-rule:nonzero;fill:rgb(100%,100%,100%);fill-opacity:1;" d="M 15.027344 3.78125 C 15.042969 3.808594 15.035156 3.847656 15.003906 3.863281 L 12.199219 5.496094 C 12.167969 5.511719 12.128906 5.503906 12.113281 5.472656 C 12.097656 5.445312 12.105469 5.40625 12.136719 5.390625 L 14.941406 3.757812 C 14.972656 3.742188 15.011719 3.75 15.027344 3.78125 Z M 15.027344 3.78125 "/>
</g>
</g>
<g clip-path="url(#clip21)" clip-rule="nonzero">
<g clip-path="url(#clip22)" clip-rule="nonzero">
<path style=" stroke:none;fill-rule:nonzero;fill:rgb(100%,100%,100%);fill-opacity:1;" d="M 5.726562 12.335938 C 5.757812 12.351562 5.769531 12.386719 5.753906 12.417969 L 4.269531 15.324219 C 4.253906 15.355469 4.214844 15.367188 4.183594 15.351562 C 4.15625 15.335938 4.144531 15.300781 4.160156 15.269531 L 5.644531 12.363281 C 5.660156 12.332031 5.695312 12.320312 5.726562 12.335938 Z M 5.726562 12.335938 "/>
</g>
</g>
<g clip-path="url(#clip23)" clip-rule="nonzero">
<g clip-path="url(#clip24)" clip-rule="nonzero">
<path style=" stroke:none;fill-rule:nonzero;fill:rgb(100%,100%,100%);fill-opacity:1;" d="M 11.699219 0.652344 C 11.726562 0.667969 11.738281 0.703125 11.722656 0.734375 L 10.238281 3.640625 C 10.222656 3.671875 10.1875 3.683594 10.15625 3.667969 C 10.125 3.652344 10.113281 3.613281 10.128906 3.582031 L 11.613281 0.679688 C 11.628906 0.648438 11.667969 0.636719 11.699219 0.652344 Z M 11.699219 0.652344 "/>
</g>
</g>
</g>
</svg>
