
<svg xmlns="http://www.w3.org/2000/svg" xmlns:xlink="http://www.w3.org/1999/xlink" width="16px" height="16px" viewBox="0 0 16 16" version="1.1">
<g id="surface1">
<path style=" stroke:none;fill-rule:nonzero;fill:rgb(92.54902%,25.098039%,47.843137%);fill-opacity:1;" d="M 1.347656 0 L 14.652344 0 C 15.394531 0 16 0.605469 16 1.347656 L 16 14.652344 C 16 15.394531 15.394531 16 14.652344 16 L 1.347656 16 C 0.605469 16 0 15.394531 0 14.652344 L 0 1.347656 C 0 0.605469 0.605469 0 1.347656 0 Z M 1.347656 0 "/>
<path style=" stroke:none;fill-rule:nonzero;fill:rgb(100%,100%,100%);fill-opacity:1;" d="M 8.03125 4.023438 C 8.019531 4.011719 8.011719 3.996094 8.003906 3.980469 L 8.003906 3.960938 L 8.003906 3.972656 L 8.003906 3.960938 L 8.003906 3.980469 C 7.917969 4.171875 6.753906 5.433594 4.359375 5.691406 C 4.324219 6.425781 4.417969 7.164062 4.632812 7.867188 L 8.03125 7.867188 Z M 8.03125 4.023438 "/>
<path style=" stroke:none;fill-rule:nonzero;fill:rgb(16.078431%,71.372549%,96.470588%);fill-opacity:1;" d="M 8.03125 12.019531 C 9.652344 11.132812 10.855469 9.640625 11.378906 7.867188 L 8.03125 7.867188 Z M 8.03125 12.019531 "/>
<path style=" stroke:none;fill-rule:nonzero;fill:rgb(100%,100%,100%);fill-opacity:1;" d="M 8 12.292969 C 7.957031 12.292969 7.910156 12.28125 7.871094 12.257812 C 7.859375 12.246094 7.84375 12.238281 7.832031 12.226562 C 6.207031 11.328125 4.988281 9.839844 4.421875 8.074219 C 4.167969 7.296875 4.058594 6.480469 4.101562 5.667969 C 4.113281 5.550781 4.203125 5.457031 4.324219 5.441406 C 6.457031 5.210938 7.574219 4.164062 7.75 3.902344 C 7.773438 3.804688 7.847656 3.730469 7.949219 3.710938 C 7.980469 3.707031 8.015625 3.707031 8.050781 3.710938 C 8.144531 3.730469 8.222656 3.800781 8.246094 3.894531 C 9.160156 4.808594 10.378906 5.355469 11.667969 5.4375 C 11.789062 5.445312 11.890625 5.542969 11.898438 5.664062 C 11.941406 6.480469 11.832031 7.292969 11.578125 8.070312 C 11.011719 9.839844 9.792969 11.324219 8.171875 12.226562 C 8.160156 12.238281 8.144531 12.25 8.128906 12.257812 C 8.089844 12.28125 8.046875 12.292969 8 12.292969 Z M 4.589844 5.914062 C 4.59375 8.332031 5.894531 10.558594 8 11.75 C 9.472656 10.917969 10.578125 9.558594 11.09375 7.941406 C 11.300781 7.289062 11.410156 6.609375 11.410156 5.921875 C 10.136719 5.789062 8.9375 5.246094 8 4.371094 C 7.550781 4.851562 6.40625 5.667969 4.589844 5.914062 Z M 4.589844 5.914062 "/>
</g>
</svg>
