
<svg xmlns="http://www.w3.org/2000/svg" xmlns:xlink="http://www.w3.org/1999/xlink" width="16px" height="16px" viewBox="0 0 16 16" version="1.1">
<g id="surface1">
<path style=" stroke:none;fill-rule:nonzero;fill:rgb(49.411765%,34.117647%,76.862745%);fill-opacity:1;" d="M 1.347656 0 L 14.652344 0 C 15.394531 0 16 0.605469 16 1.347656 L 16 14.652344 C 16 15.394531 15.394531 16 14.652344 16 L 1.347656 16 C 0.605469 16 0 15.394531 0 14.652344 L 0 1.347656 C 0 0.605469 0.605469 0 1.347656 0 Z M 1.347656 0 "/>
<path style=" stroke:none;fill-rule:nonzero;fill:rgb(100%,100%,100%);fill-opacity:1;" d="M 12.960938 7.824219 C 12.886719 7.671875 12.800781 7.527344 12.699219 7.390625 C 12.585938 7.292969 12.441406 7.25 12.292969 7.261719 C 11.863281 7.292969 11.457031 7.042969 11.292969 6.644531 C 11.128906 6.253906 11.214844 5.800781 11.515625 5.5 C 11.800781 5.207031 11.800781 4.738281 11.515625 4.449219 C 11.382812 4.3125 11.203125 4.234375 11.015625 4.230469 C 10.804688 4.238281 10.601562 4.316406 10.445312 4.457031 C 10.230469 4.628906 9.96875 4.722656 9.695312 4.730469 C 9.585938 4.730469 9.476562 4.710938 9.371094 4.667969 C 9.019531 4.496094 8.785156 4.152344 8.75 3.765625 C 8.761719 3.386719 8.488281 3.058594 8.113281 3 L 8.066406 2.984375 L 7.917969 2.984375 C 7.898438 2.992188 7.878906 3 7.855469 3.003906 C 7.503906 3.070312 7.253906 3.378906 7.261719 3.738281 C 7.277344 4.15625 7.035156 4.542969 6.648438 4.710938 C 6.257812 4.878906 5.800781 4.789062 5.5 4.484375 C 5.351562 4.347656 5.15625 4.273438 4.957031 4.269531 C 4.769531 4.269531 4.589844 4.347656 4.457031 4.476562 C 4.167969 4.769531 4.167969 5.234375 4.457031 5.527344 C 4.75 5.8125 4.847656 6.246094 4.707031 6.632812 C 4.554688 7.027344 4.175781 7.292969 3.753906 7.292969 C 3.414062 7.316406 3.15625 7.433594 3.003906 7.917969 L 3.003906 8.15625 C 3.019531 8.191406 3.03125 8.230469 3.042969 8.269531 C 3.144531 8.5625 3.414062 8.761719 3.726562 8.769531 C 4.160156 8.71875 4.582031 8.957031 4.757812 9.359375 C 4.9375 9.761719 4.832031 10.230469 4.496094 10.519531 C 4.226562 10.8125 4.226562 11.265625 4.496094 11.558594 C 4.636719 11.695312 4.824219 11.773438 5.019531 11.773438 C 5.195312 11.765625 5.367188 11.691406 5.5 11.574219 C 5.703125 11.375 5.96875 11.261719 6.25 11.246094 C 6.820312 11.25 7.28125 11.714844 7.277344 12.285156 C 7.300781 12.613281 7.417969 12.867188 7.898438 13.035156 L 8.085938 13.035156 L 8.199219 12.972656 C 8.351562 12.902344 8.496094 12.8125 8.628906 12.710938 C 8.730469 12.574219 8.777344 12.410156 8.773438 12.242188 C 8.800781 11.867188 9.011719 11.527344 9.335938 11.335938 C 9.464844 11.269531 9.605469 11.230469 9.75 11.234375 C 10.023438 11.242188 10.289062 11.335938 10.5 11.511719 C 10.660156 11.648438 10.859375 11.722656 11.070312 11.726562 C 11.257812 11.730469 11.4375 11.652344 11.570312 11.519531 C 11.863281 11.21875 11.863281 10.742188 11.570312 10.441406 C 11.363281 10.179688 11.269531 9.84375 11.320312 9.511719 C 11.425781 9.089844 11.792969 8.789062 12.226562 8.761719 C 12.621094 8.785156 12.96875 8.519531 13.050781 8.136719 L 13.050781 7.953125 Z M 8 9.886719 C 6.957031 9.886719 6.113281 9.042969 6.113281 8 C 6.113281 6.957031 6.957031 6.113281 8 6.113281 C 9.042969 6.113281 9.886719 6.957031 9.886719 8 C 9.878906 9.039062 9.039062 9.878906 8 9.886719 Z M 8 9.886719 "/>
</g>
</svg>
