
<svg xmlns="http://www.w3.org/2000/svg" xmlns:xlink="http://www.w3.org/1999/xlink" width="16px" height="16px" viewBox="0 0 16 16" version="1.1">
<g id="surface1">
<path style=" stroke:none;fill-rule:nonzero;fill:rgb(36.078431%,41.960784%,75.294118%);fill-opacity:1;" d="M 1.347656 0 L 14.652344 0 C 15.394531 0 16 0.605469 16 1.347656 L 16 14.652344 C 16 15.394531 15.394531 16 14.652344 16 L 1.347656 16 C 0.605469 16 0 15.394531 0 14.652344 L 0 1.347656 C 0 0.605469 0.605469 0 1.347656 0 Z M 1.347656 0 "/>
<path style=" stroke:none;fill-rule:nonzero;fill:rgb(16.078431%,71.372549%,96.470588%);fill-opacity:1;" d="M 11.664062 6.585938 L 11.023438 6.585938 L 11.023438 5.5 C 11.015625 5.214844 10.785156 4.984375 10.5 4.976562 L 6.023438 4.976562 C 5.375 4.976562 4.851562 4.453125 4.851562 3.804688 L 4.851562 3.25 L 5.5 3.25 L 5.5 3.8125 C 5.5 4.105469 5.738281 4.34375 6.03125 4.34375 L 10.5 4.34375 C 11.148438 4.34375 11.675781 4.871094 11.675781 5.519531 Z M 11.664062 6.585938 "/>
<path style=" stroke:none;fill-rule:nonzero;fill:rgb(100%,100%,100%);fill-opacity:1;" d="M 12.46875 6.199219 L 3.53125 6.199219 C 3.160156 6.199219 2.855469 6.503906 2.855469 6.875 L 2.855469 12.082031 C 2.855469 12.457031 3.160156 12.757812 3.53125 12.757812 L 12.46875 12.757812 C 12.839844 12.757812 13.144531 12.457031 13.144531 12.082031 L 13.144531 6.875 C 13.144531 6.503906 12.839844 6.199219 12.46875 6.199219 Z M 12.46875 6.199219 "/>
<path style=" stroke:none;fill-rule:nonzero;fill:rgb(79.607843%,79.607843%,79.607843%);fill-opacity:1;" d="M 10.453125 10.464844 L 5.542969 10.464844 C 5.457031 10.464844 5.375 10.5 5.316406 10.558594 C 5.253906 10.621094 5.222656 10.703125 5.222656 10.789062 L 5.222656 11.1875 C 5.226562 11.363281 5.367188 11.5 5.542969 11.5 L 10.453125 11.5 C 10.539062 11.5 10.621094 11.46875 10.679688 11.40625 C 10.742188 11.347656 10.773438 11.265625 10.773438 11.179688 L 10.773438 10.78125 C 10.773438 10.601562 10.628906 10.457031 10.453125 10.457031 Z M 10.453125 10.464844 "/>
<path style=" stroke:none;fill-rule:nonzero;fill:rgb(92.54902%,25.098039%,47.843137%);fill-opacity:1;" d="M 4.550781 10.464844 L 4.328125 10.464844 C 4.242188 10.464844 4.15625 10.496094 4.097656 10.558594 C 4.035156 10.617188 4 10.699219 4 10.789062 L 4 11.1875 C 4.003906 11.363281 4.152344 11.503906 4.328125 11.5 L 4.550781 11.5 C 4.636719 11.5 4.71875 11.46875 4.78125 11.40625 C 4.839844 11.347656 4.875 11.265625 4.875 11.179688 L 4.875 10.78125 C 4.875 10.601562 4.730469 10.457031 4.550781 10.457031 Z M 4.550781 10.464844 "/>
<path style=" stroke:none;fill-rule:nonzero;fill:rgb(79.607843%,79.607843%,79.607843%);fill-opacity:1;" d="M 11.726562 10.464844 L 11.5 10.464844 C 11.320312 10.464844 11.175781 10.609375 11.175781 10.789062 L 11.175781 11.1875 C 11.183594 11.363281 11.324219 11.5 11.5 11.5 L 11.726562 11.5 C 11.808594 11.5 11.894531 11.46875 11.953125 11.40625 C 12.011719 11.347656 12.046875 11.265625 12.046875 11.179688 L 12.046875 10.78125 C 12.046875 10.601562 11.902344 10.457031 11.726562 10.457031 Z M 11.726562 10.464844 "/>
<path style=" stroke:none;fill-rule:nonzero;fill:rgb(79.607843%,79.607843%,79.607843%);fill-opacity:1;" d="M 6.855469 8.976562 L 6.628906 8.976562 C 6.449219 8.976562 6.308594 9.121094 6.308594 9.296875 L 6.308594 9.699219 C 6.308594 9.78125 6.339844 9.863281 6.402344 9.925781 C 6.460938 9.984375 6.542969 10.019531 6.628906 10.019531 L 6.855469 10.019531 C 6.941406 10.019531 7.023438 9.984375 7.082031 9.925781 C 7.140625 9.863281 7.175781 9.78125 7.175781 9.699219 L 7.175781 9.296875 C 7.175781 9.121094 7.03125 8.976562 6.855469 8.976562 Z M 6.855469 8.976562 "/>
<path style=" stroke:none;fill-rule:nonzero;fill:rgb(92.54902%,25.098039%,47.843137%);fill-opacity:1;" d="M 5.714844 8.976562 L 4.328125 8.976562 C 4.242188 8.976562 4.160156 9.007812 4.097656 9.066406 C 4.035156 9.128906 4 9.210938 4 9.296875 L 4 9.699219 C 4 9.875 4.144531 10.019531 4.324219 10.019531 L 5.710938 10.019531 C 5.886719 10.019531 6.03125 9.875 6.03125 9.699219 L 6.03125 9.296875 C 6.03125 9.210938 6 9.128906 5.9375 9.070312 C 5.878906 9.011719 5.796875 8.976562 5.710938 8.976562 Z M 5.714844 8.976562 "/>
<path style=" stroke:none;fill-rule:nonzero;fill:rgb(79.607843%,79.607843%,79.607843%);fill-opacity:1;" d="M 8.074219 8.976562 L 7.847656 8.976562 C 7.761719 8.976562 7.679688 9.011719 7.621094 9.070312 C 7.558594 9.128906 7.523438 9.210938 7.523438 9.296875 L 7.523438 9.699219 C 7.523438 9.875 7.667969 10.019531 7.847656 10.019531 L 8.074219 10.019531 C 8.25 10.019531 8.394531 9.875 8.394531 9.699219 L 8.394531 9.296875 C 8.394531 9.210938 8.359375 9.128906 8.300781 9.070312 C 8.238281 9.011719 8.15625 8.976562 8.074219 8.976562 Z M 8.074219 8.976562 "/>
<path style=" stroke:none;fill-rule:nonzero;fill:rgb(79.607843%,79.607843%,79.607843%);fill-opacity:1;" d="M 9.292969 8.976562 L 9.066406 8.976562 C 8.890625 8.980469 8.75 9.121094 8.75 9.296875 L 8.75 9.699219 C 8.75 9.78125 8.78125 9.863281 8.84375 9.925781 C 8.902344 9.984375 8.984375 10.019531 9.070312 10.019531 L 9.296875 10.019531 C 9.382812 10.019531 9.464844 9.984375 9.523438 9.925781 C 9.585938 9.863281 9.617188 9.78125 9.617188 9.699219 L 9.617188 9.296875 C 9.617188 9.121094 9.472656 8.976562 9.296875 8.976562 Z M 9.292969 8.976562 "/>
<path style=" stroke:none;fill-rule:nonzero;fill:rgb(79.607843%,79.607843%,79.607843%);fill-opacity:1;" d="M 10.5 8.976562 L 10.273438 8.976562 C 10.191406 8.976562 10.105469 9.011719 10.046875 9.070312 C 9.988281 9.128906 9.953125 9.210938 9.953125 9.296875 L 9.953125 9.699219 C 9.953125 9.875 10.097656 10.019531 10.273438 10.019531 L 10.5 10.019531 C 10.679688 10.019531 10.824219 9.875 10.824219 9.699219 L 10.824219 9.296875 C 10.824219 9.210938 10.789062 9.128906 10.726562 9.070312 C 10.667969 9.011719 10.585938 8.976562 10.5 8.976562 Z M 10.5 8.976562 "/>
<path style=" stroke:none;fill-rule:nonzero;fill:rgb(79.607843%,79.607843%,79.607843%);fill-opacity:1;" d="M 11.726562 8.976562 L 11.5 8.976562 C 11.414062 8.976562 11.332031 9.011719 11.273438 9.070312 C 11.210938 9.128906 11.175781 9.210938 11.175781 9.296875 L 11.175781 9.699219 C 11.175781 9.875 11.320312 10.019531 11.5 10.019531 L 11.726562 10.019531 C 11.902344 10.019531 12.046875 9.875 12.046875 9.699219 L 12.046875 9.296875 C 12.046875 9.210938 12.011719 9.128906 11.953125 9.070312 C 11.894531 9.011719 11.808594 8.976562 11.726562 8.976562 Z M 11.726562 8.976562 "/>
<path style=" stroke:none;fill-rule:nonzero;fill:rgb(79.607843%,79.607843%,79.607843%);fill-opacity:1;" d="M 6.175781 7.5 L 5.953125 7.5 C 5.867188 7.5 5.785156 7.53125 5.722656 7.59375 C 5.664062 7.652344 5.628906 7.734375 5.628906 7.820312 L 5.628906 8.21875 C 5.628906 8.398438 5.773438 8.542969 5.953125 8.542969 L 6.175781 8.542969 C 6.265625 8.542969 6.347656 8.507812 6.410156 8.441406 C 6.472656 8.378906 6.503906 8.292969 6.5 8.207031 L 6.5 7.808594 C 6.492188 7.636719 6.351562 7.5 6.175781 7.5 Z M 6.175781 7.5 "/>
<path style=" stroke:none;fill-rule:nonzero;fill:rgb(79.607843%,79.607843%,79.607843%);fill-opacity:1;" d="M 7.398438 7.5 L 7.167969 7.5 C 7.085938 7.5 7.003906 7.53125 6.941406 7.59375 C 6.882812 7.652344 6.847656 7.734375 6.847656 7.820312 L 6.847656 8.21875 C 6.847656 8.398438 6.992188 8.542969 7.167969 8.542969 L 7.398438 8.542969 C 7.484375 8.542969 7.566406 8.507812 7.625 8.449219 C 7.683594 8.386719 7.71875 8.304688 7.71875 8.21875 L 7.71875 7.820312 C 7.71875 7.644531 7.574219 7.5 7.398438 7.5 Z M 7.398438 7.5 "/>
<path style=" stroke:none;fill-rule:nonzero;fill:rgb(79.607843%,79.607843%,79.607843%);fill-opacity:1;" d="M 8.613281 7.5 L 8.386719 7.5 C 8.210938 7.5 8.066406 7.644531 8.066406 7.820312 L 8.066406 8.21875 C 8.066406 8.304688 8.101562 8.386719 8.160156 8.449219 C 8.222656 8.507812 8.300781 8.542969 8.386719 8.542969 L 8.613281 8.542969 C 8.699219 8.542969 8.78125 8.507812 8.84375 8.449219 C 8.902344 8.386719 8.933594 8.304688 8.933594 8.21875 L 8.933594 7.820312 C 8.933594 7.644531 8.792969 7.5 8.613281 7.5 Z M 8.613281 7.5 "/>
<path style=" stroke:none;fill-rule:nonzero;fill:rgb(79.607843%,79.607843%,79.607843%);fill-opacity:1;" d="M 9.832031 7.5 L 9.605469 7.5 C 9.523438 7.5 9.441406 7.53125 9.378906 7.59375 C 9.320312 7.652344 9.285156 7.734375 9.285156 7.820312 L 9.285156 8.21875 C 9.285156 8.398438 9.429688 8.542969 9.605469 8.542969 L 9.832031 8.542969 C 10.011719 8.542969 10.15625 8.398438 10.15625 8.21875 L 10.15625 7.820312 C 10.15625 7.734375 10.121094 7.652344 10.058594 7.59375 C 10 7.53125 9.917969 7.5 9.832031 7.5 Z M 9.832031 7.5 "/>
<path style=" stroke:none;fill-rule:nonzero;fill:rgb(79.607843%,79.607843%,79.607843%);fill-opacity:1;" d="M 11.671875 7.5 L 10.789062 7.5 C 10.703125 7.5 10.621094 7.53125 10.5625 7.59375 C 10.5 7.652344 10.46875 7.734375 10.46875 7.820312 L 10.46875 8.21875 C 10.46875 8.398438 10.613281 8.542969 10.789062 8.542969 L 11.671875 8.542969 C 11.761719 8.542969 11.847656 8.511719 11.910156 8.445312 C 11.972656 8.382812 12.003906 8.296875 12 8.207031 L 12 7.808594 C 11.992188 7.632812 11.847656 7.496094 11.671875 7.5 Z M 11.671875 7.5 "/>
<path style=" stroke:none;fill-rule:nonzero;fill:rgb(92.54902%,25.098039%,47.843137%);fill-opacity:1;" d="M 4.902344 7.5 L 4.289062 7.5 C 4.113281 7.5 3.96875 7.644531 3.96875 7.820312 L 3.96875 8.21875 C 3.96875 8.304688 4.003906 8.386719 4.0625 8.449219 C 4.121094 8.507812 4.203125 8.542969 4.289062 8.542969 L 4.902344 8.542969 C 5.082031 8.542969 5.226562 8.398438 5.226562 8.21875 L 5.226562 7.820312 C 5.226562 7.734375 5.191406 7.652344 5.128906 7.59375 C 5.070312 7.53125 4.988281 7.5 4.902344 7.5 Z M 4.902344 7.5 "/>
</g>
</svg>
