
<svg xmlns="http://www.w3.org/2000/svg" xmlns:xlink="http://www.w3.org/1999/xlink" width="16px" height="16px" viewBox="0 0 16 16" version="1.1">
<defs>
<clipPath id="clip1">
  <path d="M 7.5 12.667969 L 13.167969 12.667969 L 13.167969 16 L 7.5 16 Z M 7.5 12.667969 "/>
</clipPath>
<clipPath id="clip2">
  <path d="M 1.347656 0 L 14.652344 0 C 15.394531 0 16 0.605469 16 1.347656 L 16 14.652344 C 16 15.394531 15.394531 16 14.652344 16 L 1.347656 16 C 0.605469 16 0 15.394531 0 14.652344 L 0 1.347656 C 0 0.605469 0.605469 0 1.347656 0 Z M 1.347656 0 "/>
</clipPath>
<clipPath id="clip3">
  <path d="M 9.832031 11.167969 L 12.5 11.167969 L 12.5 12.667969 L 9.832031 12.667969 Z M 9.832031 11.167969 "/>
</clipPath>
<clipPath id="clip4">
  <path d="M 1.347656 0 L 14.652344 0 C 15.394531 0 16 0.605469 16 1.347656 L 16 14.652344 C 16 15.394531 15.394531 16 14.652344 16 L 1.347656 16 C 0.605469 16 0 15.394531 0 14.652344 L 0 1.347656 C 0 0.605469 0.605469 0 1.347656 0 Z M 1.347656 0 "/>
</clipPath>
<clipPath id="clip5">
  <path d="M 12.167969 11.832031 L 12.667969 11.832031 L 12.667969 12.167969 L 12.167969 12.167969 Z M 12.167969 11.832031 "/>
</clipPath>
<clipPath id="clip6">
  <path d="M 1.347656 0 L 14.652344 0 C 15.394531 0 16 0.605469 16 1.347656 L 16 14.652344 C 16 15.394531 15.394531 16 14.652344 16 L 1.347656 16 C 0.605469 16 0 15.394531 0 14.652344 L 0 1.347656 C 0 0.605469 0.605469 0 1.347656 0 Z M 1.347656 0 "/>
</clipPath>
<clipPath id="clip7">
  <path d="M 6.5 11.832031 L 8 11.832031 L 8 12.5 L 6.5 12.5 Z M 6.5 11.832031 "/>
</clipPath>
<clipPath id="clip8">
  <path d="M 1.347656 0 L 14.652344 0 C 15.394531 0 16 0.605469 16 1.347656 L 16 14.652344 C 16 15.394531 15.394531 16 14.652344 16 L 1.347656 16 C 0.605469 16 0 15.394531 0 14.652344 L 0 1.347656 C 0 0.605469 0.605469 0 1.347656 0 Z M 1.347656 0 "/>
</clipPath>
<clipPath id="clip9">
  <path d="M 9.167969 12.167969 L 9.5 12.167969 L 9.5 12.5 L 9.167969 12.5 Z M 9.167969 12.167969 "/>
</clipPath>
<clipPath id="clip10">
  <path d="M 1.347656 0 L 14.652344 0 C 15.394531 0 16 0.605469 16 1.347656 L 16 14.652344 C 16 15.394531 15.394531 16 14.652344 16 L 1.347656 16 C 0.605469 16 0 15.394531 0 14.652344 L 0 1.347656 C 0 0.605469 0.605469 0 1.347656 0 Z M 1.347656 0 "/>
</clipPath>
<clipPath id="clip11">
  <path d="M 5.167969 10.332031 L 6.832031 10.332031 L 6.832031 12 L 5.167969 12 Z M 5.167969 10.332031 "/>
</clipPath>
<clipPath id="clip12">
  <path d="M 1.347656 0 L 14.652344 0 C 15.394531 0 16 0.605469 16 1.347656 L 16 14.652344 C 16 15.394531 15.394531 16 14.652344 16 L 1.347656 16 C 0.605469 16 0 15.394531 0 14.652344 L 0 1.347656 C 0 0.605469 0.605469 0 1.347656 0 Z M 1.347656 0 "/>
</clipPath>
<clipPath id="clip13">
  <path d="M 0 0 L 14.832031 0 L 14.832031 15 L 0 15 Z M 0 0 "/>
</clipPath>
<clipPath id="clip14">
  <path d="M 1.347656 0 L 14.652344 0 C 15.394531 0 16 0.605469 16 1.347656 L 16 14.652344 C 16 15.394531 15.394531 16 14.652344 16 L 1.347656 16 C 0.605469 16 0 15.394531 0 14.652344 L 0 1.347656 C 0 0.605469 0.605469 0 1.347656 0 Z M 1.347656 0 "/>
</clipPath>
<clipPath id="clip15">
  <path d="M 7 10.5 L 8.332031 10.5 L 8.332031 11.832031 L 7 11.832031 Z M 7 10.5 "/>
</clipPath>
<clipPath id="clip16">
  <path d="M 1.347656 0 L 14.652344 0 C 15.394531 0 16 0.605469 16 1.347656 L 16 14.652344 C 16 15.394531 15.394531 16 14.652344 16 L 1.347656 16 C 0.605469 16 0 15.394531 0 14.652344 L 0 1.347656 C 0 0.605469 0.605469 0 1.347656 0 Z M 1.347656 0 "/>
</clipPath>
<clipPath id="clip17">
  <path d="M 8.667969 10.832031 L 9.167969 10.832031 L 9.167969 11.332031 L 8.667969 11.332031 Z M 8.667969 10.832031 "/>
</clipPath>
<clipPath id="clip18">
  <path d="M 1.347656 0 L 14.652344 0 C 15.394531 0 16 0.605469 16 1.347656 L 16 14.652344 C 16 15.394531 15.394531 16 14.652344 16 L 1.347656 16 C 0.605469 16 0 15.394531 0 14.652344 L 0 1.347656 C 0 0.605469 0.605469 0 1.347656 0 Z M 1.347656 0 "/>
</clipPath>
<clipPath id="clip19">
  <path d="M 9.332031 10.832031 L 9.667969 10.832031 L 9.667969 11.332031 L 9.332031 11.332031 Z M 9.332031 10.832031 "/>
</clipPath>
<clipPath id="clip20">
  <path d="M 1.347656 0 L 14.652344 0 C 15.394531 0 16 0.605469 16 1.347656 L 16 14.652344 C 16 15.394531 15.394531 16 14.652344 16 L 1.347656 16 C 0.605469 16 0 15.394531 0 14.652344 L 0 1.347656 C 0 0.605469 0.605469 0 1.347656 0 Z M 1.347656 0 "/>
</clipPath>
<clipPath id="clip21">
  <path d="M 8.332031 11.167969 L 9 11.167969 L 9 12 L 8.332031 12 Z M 8.332031 11.167969 "/>
</clipPath>
<clipPath id="clip22">
  <path d="M 1.347656 0 L 14.652344 0 C 15.394531 0 16 0.605469 16 1.347656 L 16 14.652344 C 16 15.394531 15.394531 16 14.652344 16 L 1.347656 16 C 0.605469 16 0 15.394531 0 14.652344 L 0 1.347656 C 0 0.605469 0.605469 0 1.347656 0 Z M 1.347656 0 "/>
</clipPath>
<clipPath id="clip23">
  <path d="M 6.832031 6.832031 L 7.332031 6.832031 L 7.332031 7.332031 L 6.832031 7.332031 Z M 6.832031 6.832031 "/>
</clipPath>
<clipPath id="clip24">
  <path d="M 1.347656 0 L 14.652344 0 C 15.394531 0 16 0.605469 16 1.347656 L 16 14.652344 C 16 15.394531 15.394531 16 14.652344 16 L 1.347656 16 C 0.605469 16 0 15.394531 0 14.652344 L 0 1.347656 C 0 0.605469 0.605469 0 1.347656 0 Z M 1.347656 0 "/>
</clipPath>
<clipPath id="clip25">
  <path d="M 5.667969 9.332031 L 6.832031 9.332031 L 6.832031 10.167969 L 5.667969 10.167969 Z M 5.667969 9.332031 "/>
</clipPath>
<clipPath id="clip26">
  <path d="M 1.347656 0 L 14.652344 0 C 15.394531 0 16 0.605469 16 1.347656 L 16 14.652344 C 16 15.394531 15.394531 16 14.652344 16 L 1.347656 16 C 0.605469 16 0 15.394531 0 14.652344 L 0 1.347656 C 0 0.605469 0.605469 0 1.347656 0 Z M 1.347656 0 "/>
</clipPath>
<clipPath id="clip27">
  <path d="M 8.5 3.832031 L 10.167969 3.832031 L 10.167969 5.832031 L 8.5 5.832031 Z M 8.5 3.832031 "/>
</clipPath>
<clipPath id="clip28">
  <path d="M 1.347656 0 L 14.652344 0 C 15.394531 0 16 0.605469 16 1.347656 L 16 14.652344 C 16 15.394531 15.394531 16 14.652344 16 L 1.347656 16 C 0.605469 16 0 15.394531 0 14.652344 L 0 1.347656 C 0 0.605469 0.605469 0 1.347656 0 Z M 1.347656 0 "/>
</clipPath>
<clipPath id="clip29">
  <path d="M 8.167969 5.5 L 8.667969 5.5 L 8.667969 6.167969 L 8.167969 6.167969 Z M 8.167969 5.5 "/>
</clipPath>
<clipPath id="clip30">
  <path d="M 1.347656 0 L 14.652344 0 C 15.394531 0 16 0.605469 16 1.347656 L 16 14.652344 C 16 15.394531 15.394531 16 14.652344 16 L 1.347656 16 C 0.605469 16 0 15.394531 0 14.652344 L 0 1.347656 C 0 0.605469 0.605469 0 1.347656 0 Z M 1.347656 0 "/>
</clipPath>
<clipPath id="clip31">
  <path d="M 7.167969 9 L 7.832031 9 L 7.832031 9.5 L 7.167969 9.5 Z M 7.167969 9 "/>
</clipPath>
<clipPath id="clip32">
  <path d="M 1.347656 0 L 14.652344 0 C 15.394531 0 16 0.605469 16 1.347656 L 16 14.652344 C 16 15.394531 15.394531 16 14.652344 16 L 1.347656 16 C 0.605469 16 0 15.394531 0 14.652344 L 0 1.347656 C 0 0.605469 0.605469 0 1.347656 0 Z M 1.347656 0 "/>
</clipPath>
<clipPath id="clip33">
  <path d="M 6.832031 7.667969 L 7.5 7.667969 L 7.5 8.667969 L 6.832031 8.667969 Z M 6.832031 7.667969 "/>
</clipPath>
<clipPath id="clip34">
  <path d="M 1.347656 0 L 14.652344 0 C 15.394531 0 16 0.605469 16 1.347656 L 16 14.652344 C 16 15.394531 15.394531 16 14.652344 16 L 1.347656 16 C 0.605469 16 0 15.394531 0 14.652344 L 0 1.347656 C 0 0.605469 0.605469 0 1.347656 0 Z M 1.347656 0 "/>
</clipPath>
<clipPath id="clip35">
  <path d="M 7.167969 8.832031 L 7.5 8.832031 L 7.5 9.167969 L 7.167969 9.167969 Z M 7.167969 8.832031 "/>
</clipPath>
<clipPath id="clip36">
  <path d="M 1.347656 0 L 14.652344 0 C 15.394531 0 16 0.605469 16 1.347656 L 16 14.652344 C 16 15.394531 15.394531 16 14.652344 16 L 1.347656 16 C 0.605469 16 0 15.394531 0 14.652344 L 0 1.347656 C 0 0.605469 0.605469 0 1.347656 0 Z M 1.347656 0 "/>
</clipPath>
<clipPath id="clip37">
  <path d="M 1.667969 9 L 2 9 L 2 9.5 L 1.667969 9.5 Z M 1.667969 9 "/>
</clipPath>
<clipPath id="clip38">
  <path d="M 1.347656 0 L 14.652344 0 C 15.394531 0 16 0.605469 16 1.347656 L 16 14.652344 C 16 15.394531 15.394531 16 14.652344 16 L 1.347656 16 C 0.605469 16 0 15.394531 0 14.652344 L 0 1.347656 C 0 0.605469 0.605469 0 1.347656 0 Z M 1.347656 0 "/>
</clipPath>
</defs>
<g id="surface1">
<path style=" stroke:none;fill-rule:nonzero;fill:rgb(49.411765%,34.117647%,76.862745%);fill-opacity:1;" d="M 1.347656 0 L 14.652344 0 C 15.394531 0 16 0.605469 16 1.347656 L 16 14.652344 C 16 15.394531 15.394531 16 14.652344 16 L 1.347656 16 C 0.605469 16 0 15.394531 0 14.652344 L 0 1.347656 C 0 0.605469 0.605469 0 1.347656 0 Z M 1.347656 0 "/>
<g clip-path="url(#clip1)" clip-rule="nonzero">
<g clip-path="url(#clip2)" clip-rule="nonzero">
<path style=" stroke:none;fill-rule:nonzero;fill:rgb(27.058824%,89.019608%,100%);fill-opacity:1;" d="M 12.902344 14.75 L 12.511719 14.210938 C 12.503906 14.152344 12.453125 14.101562 12.390625 14.09375 L 12.375 14.09375 C 12.308594 13.929688 12.167969 13.800781 12 13.746094 C 12.003906 13.730469 12.003906 13.714844 12 13.699219 C 12.109375 13.535156 12.035156 13.414062 11.910156 13.308594 L 11.832031 13.210938 C 11.539062 13.171875 11.664062 12.796875 11.4375 12.695312 C 11.335938 12.820312 11.386719 12.945312 11.390625 13.058594 C 11.246094 13.574219 11.054688 13.613281 10.605469 13.21875 C 10.585938 13.199219 10.554688 13.191406 10.527344 13.207031 C 10.476562 13.074219 10.617188 13.042969 10.667969 12.957031 C 10.71875 12.707031 10.539062 12.84375 10.453125 12.828125 L 10.289062 12.75 C 10.265625 12.761719 10.234375 12.757812 10.21875 12.734375 L 10.132812 12.804688 L 9.914062 12.804688 C 9.894531 12.820312 9.882812 12.839844 9.878906 12.863281 C 9.859375 12.859375 9.839844 12.871094 9.835938 12.890625 C 9.710938 12.960938 9.785156 13.210938 9.558594 13.179688 C 9.308594 12.90625 9.167969 13.085938 9.058594 13.320312 C 9.035156 13.328125 9.015625 13.332031 8.992188 13.335938 C 8.96875 13.476562 8.644531 13.414062 8.761719 13.660156 L 8.457031 13.894531 C 8.25 13.988281 7.992188 13.976562 7.832031 14.175781 C 7.546875 14.25 7.605469 14.476562 7.605469 14.675781 C 7.613281 14.800781 7.640625 14.925781 7.6875 15.039062 C 7.699219 15.136719 7.757812 15.222656 7.84375 15.273438 C 7.84375 15.457031 7.925781 15.625 7.933594 15.816406 C 7.9375 16.003906 8.058594 16.164062 8.300781 16.039062 C 8.425781 15.988281 8.5 15.828125 8.667969 15.878906 C 8.667969 15.855469 8.691406 15.839844 8.707031 15.816406 L 8.917969 15.816406 C 9.039062 15.839844 9.058594 15.746094 9.085938 15.667969 L 9.230469 15.59375 C 9.582031 15.417969 9.988281 15.390625 10.359375 15.519531 C 10.46875 15.621094 10.417969 15.898438 10.6875 15.820312 C 10.785156 15.851562 10.851562 15.9375 10.859375 16.039062 L 10.992188 16.050781 C 11.109375 16.425781 11.328125 16.628906 11.742188 16.515625 C 11.769531 16.515625 11.804688 16.542969 11.835938 16.5625 C 12.28125 16.609375 12.425781 16.3125 12.539062 15.96875 C 12.636719 15.925781 12.726562 15.871094 12.695312 15.738281 L 12.824219 15.503906 C 12.824219 15.457031 12.824219 15.410156 12.835938 15.363281 L 12.875 15.363281 C 13.039062 15.273438 13.019531 15.113281 13.015625 14.964844 C 13.003906 14.882812 12.964844 14.804688 12.902344 14.75 Z M 11.902344 15.207031 Z M 10.53125 13.75 Z M 10.53125 13.683594 L 10.53125 13.667969 Z M 11.921875 13.898438 Z M 11.921875 13.898438 "/>
</g>
</g>
<g clip-path="url(#clip3)" clip-rule="nonzero">
<g clip-path="url(#clip4)" clip-rule="nonzero">
<path style=" stroke:none;fill-rule:nonzero;fill:rgb(27.058824%,89.019608%,100%);fill-opacity:1;" d="M 11.847656 11.949219 C 11.847656 11.730469 11.683594 11.699219 11.527344 11.667969 C 11.398438 11.636719 11.242188 11.640625 11.152344 11.5625 C 10.902344 11.355469 10.726562 11.453125 10.527344 11.601562 C 10.46875 11.601562 10.378906 11.601562 10.367188 11.53125 C 10.316406 11.199219 10.136719 11.226562 9.910156 11.355469 C 9.925781 11.378906 9.933594 11.402344 9.9375 11.425781 C 10.128906 11.558594 10.28125 11.753906 10.527344 11.792969 L 10.761719 11.871094 L 10.933594 12.121094 C 10.933594 12.179688 10.820312 12.222656 10.914062 12.292969 C 11.015625 12.226562 11.074219 12.316406 11.144531 12.359375 C 11.214844 12.421875 11.308594 12.445312 11.398438 12.425781 C 11.488281 12.40625 11.566406 12.34375 11.605469 12.261719 L 11.835938 12.261719 C 11.910156 12.285156 11.917969 12.34375 11.917969 12.414062 C 12.039062 12.472656 12.109375 12.621094 12.277344 12.585938 C 12.339844 12.585938 12.429688 12.503906 12.382812 12.488281 C 12.109375 12.398438 12.195312 11.957031 11.847656 11.949219 Z M 11.847656 11.949219 "/>
</g>
</g>
<g clip-path="url(#clip5)" clip-rule="nonzero">
<g clip-path="url(#clip6)" clip-rule="nonzero">
<path style=" stroke:none;fill-rule:nonzero;fill:rgb(27.058824%,89.019608%,100%);fill-opacity:1;" d="M 12.605469 11.871094 C 12.5 11.933594 12.355469 11.851562 12.25 11.980469 C 12.332031 12.066406 12.433594 12.039062 12.527344 12.046875 C 12.5 11.96875 12.777344 12.019531 12.605469 11.871094 Z M 12.605469 11.871094 "/>
</g>
</g>
<g clip-path="url(#clip7)" clip-rule="nonzero">
<g clip-path="url(#clip8)" clip-rule="nonzero">
<path style=" stroke:none;fill-rule:nonzero;fill:rgb(27.058824%,89.019608%,100%);fill-opacity:1;" d="M 7.910156 12.289062 L 7.59375 12.214844 C 7.476562 12.148438 7.367188 12.050781 7.21875 12.128906 L 6.648438 11.976562 C 6.675781 12.324219 6.933594 12.253906 7.148438 12.246094 C 7.28125 12.226562 7.363281 12.40625 7.507812 12.339844 L 7.828125 12.363281 Z M 7.910156 12.289062 "/>
</g>
</g>
<g clip-path="url(#clip9)" clip-rule="nonzero">
<g clip-path="url(#clip10)" clip-rule="nonzero">
<path style=" stroke:none;fill-rule:nonzero;fill:rgb(27.058824%,89.019608%,100%);fill-opacity:1;" d="M 9.191406 12.441406 L 9.441406 12.355469 C 9.316406 12.25 9.199219 12.1875 9.191406 12.441406 Z M 9.191406 12.441406 "/>
</g>
</g>
<g clip-path="url(#clip11)" clip-rule="nonzero">
<g clip-path="url(#clip12)" clip-rule="nonzero">
<path style=" stroke:none;fill-rule:nonzero;fill:rgb(27.058824%,89.019608%,100%);fill-opacity:1;" d="M 6.699219 11.585938 C 6.765625 11.5625 6.753906 11.519531 6.71875 11.476562 C 6.644531 11.386719 6.59375 11.496094 6.53125 11.507812 L 6.457031 11.421875 L 6.386719 11.351562 C 6.347656 11.28125 6.425781 11.164062 6.292969 11.136719 C 6.238281 11.113281 6.164062 11.136719 6.144531 11.046875 C 6.128906 11.050781 6.113281 11.050781 6.09375 11.046875 C 6.09375 11.023438 6.09375 11 6.09375 10.976562 C 6 10.824219 5.882812 10.691406 5.75 10.574219 C 5.625 10.457031 5.484375 10.359375 5.316406 10.519531 C 5.59375 10.90625 5.875 11.289062 6.152344 11.667969 C 6.273438 11.84375 6.402344 12.011719 6.652344 11.972656 L 6.710938 11.589844 Z M 6.699219 11.585938 "/>
</g>
</g>
<g clip-path="url(#clip13)" clip-rule="nonzero">
<g clip-path="url(#clip14)" clip-rule="nonzero">
<path style=" stroke:none;fill-rule:nonzero;fill:rgb(27.058824%,89.019608%,100%);fill-opacity:1;" d="M 14.695312 0.75 L 14.664062 0.675781 C 14.679688 0.539062 14.46875 0.5 14.53125 0.347656 C 14.589844 0.347656 14.648438 0.347656 14.679688 0.289062 L 14.75 0.289062 L 14.75 0.136719 C 14.769531 0.121094 14.78125 0.0976562 14.777344 0.0703125 C 14.785156 -0.0195312 14.777344 -0.113281 14.75 -0.199219 C 14.75 -0.261719 14.75 -0.328125 14.75 -0.394531 C 14.789062 -0.46875 14.789062 -0.554688 14.75 -0.628906 C 14.464844 -0.761719 14.148438 -0.820312 13.835938 -0.789062 C 13.667969 -0.863281 13.492188 -0.972656 13.585938 -0.628906 C 13.628906 -0.476562 13.503906 -0.53125 13.429688 -0.546875 L 13.292969 -0.546875 C 13.222656 -0.746094 13.113281 -0.796875 12.960938 -0.621094 C 12.941406 -0.617188 12.917969 -0.617188 12.898438 -0.621094 C 12.75 -0.84375 12.566406 -0.75 12.375 -0.710938 C 12.09375 -0.636719 12.183594 -1.046875 11.949219 -1.035156 C 11.796875 -1.128906 11.605469 -1.128906 11.449219 -1.035156 L 11.300781 -1 L 10.75 -1.292969 C 10.578125 -1.496094 10.332031 -1.253906 10.148438 -1.398438 C 9.996094 -1.398438 9.882812 -1.59375 9.710938 -1.480469 C 9.683594 -1.394531 9.539062 -1.441406 9.527344 -1.332031 C 9.515625 -1.21875 9.363281 -1.246094 9.300781 -1.167969 L 9.226562 -1.148438 C 8.894531 -1.292969 8.605469 -1.125 8.304688 -1.039062 C 8.210938 -1.039062 8.175781 -1.117188 8.132812 -1.179688 C 8.109375 -1.273438 8.023438 -1.339844 7.925781 -1.335938 L 7.84375 -1.488281 C 7.902344 -1.503906 7.996094 -1.574219 7.976562 -1.578125 C 7.792969 -1.621094 7.582031 -1.871094 7.453125 -1.710938 C 7.28125 -1.5 7.101562 -1.585938 6.921875 -1.550781 C 6.753906 -1.644531 6.605469 -1.800781 6.386719 -1.714844 C 6.34375 -1.738281 6.316406 -1.714844 6.296875 -1.683594 L 6.117188 -1.648438 C 6.101562 -1.691406 6.085938 -1.734375 6.066406 -1.777344 C 5.964844 -1.703125 5.863281 -1.800781 5.761719 -1.777344 L 5.761719 -1.800781 C 5.652344 -1.847656 5.558594 -1.769531 5.457031 -1.757812 L 5.476562 -1.789062 L 5.527344 -1.789062 C 5.625 -1.796875 5.707031 -1.855469 5.757812 -1.9375 C 5.84375 -1.976562 5.929688 -2.019531 6.007812 -2.074219 C 6.15625 -2.191406 6.226562 -2.324219 5.980469 -2.414062 C 5.8125 -2.570312 5.558594 -2.589844 5.363281 -2.464844 L 5 -2.78125 C 4.726562 -2.800781 4.5 -2.75 4.515625 -2.417969 L 4 -2.320312 L 3.867188 -2.34375 C 3.472656 -2.363281 3.078125 -2.277344 2.726562 -2.09375 C 2.636719 -2.019531 2.726562 -1.832031 2.539062 -1.808594 L 2.394531 -1.808594 C 2.324219 -1.753906 2.230469 -1.789062 2.144531 -1.765625 L 2.121094 -1.75 C 2.058594 -1.78125 1.980469 -1.78125 1.914062 -1.75 C 1.75 -1.621094 1.808594 -1.5 2.074219 -1.351562 L 2.058594 -1.351562 L 2.058594 -1.332031 C 2.136719 -1.265625 2.128906 -1.175781 2.132812 -1.082031 C 2.105469 -1.140625 2.082031 -1.195312 2.0625 -1.253906 C 1.953125 -1.242188 1.839844 -1.269531 1.75 -1.332031 C 1.695312 -1.394531 1.605469 -1.417969 1.527344 -1.382812 L 1.210938 -1.316406 C 1.109375 -1.34375 0.996094 -1.316406 0.914062 -1.25 C 0.886719 -1.175781 0.925781 -1.128906 0.960938 -1.082031 L 0.917969 -1.011719 C 0.792969 -0.761719 0.835938 -0.59375 1.101562 -0.539062 C 1.074219 -0.523438 1.0625 -0.480469 1.074219 -0.40625 C 1.074219 -0.355469 1.050781 -0.308594 1.042969 -0.261719 C 0.894531 -0.046875 0.628906 0.0546875 0.375 -0.0117188 C 0.394531 -0.167969 0.683594 -0.0117188 0.644531 -0.234375 L 0.710938 -0.300781 C 0.933594 -0.550781 0.691406 -0.832031 0.785156 -1.089844 L 0.683594 -1.164062 C 0.679688 -1.191406 0.679688 -1.214844 0.683594 -1.238281 C 0.800781 -1.3125 0.753906 -1.421875 0.746094 -1.523438 C 0.550781 -1.519531 0.292969 -1.597656 0.292969 -1.25 C 0.167969 -1.21875 -0.00390625 -1.25 0.0585938 -1.015625 C 0.164062 -0.898438 -0.0664062 -0.835938 0.015625 -0.722656 C 0.0273438 -0.691406 0.0429688 -0.660156 0.0585938 -0.628906 C 0.015625 -0.652344 -0.0351562 -0.660156 -0.0859375 -0.648438 C -0.226562 -0.59375 -0.335938 -0.734375 -0.46875 -0.722656 C -0.5625 -0.824219 -0.652344 -0.84375 -0.734375 -0.722656 C -0.683594 -0.601562 -0.816406 -0.574219 -0.855469 -0.5 C -0.90625 -0.472656 -0.957031 -0.582031 -1.011719 -0.5 C -1.214844 -0.5625 -1.4375 -0.535156 -1.621094 -0.425781 C -1.78125 -0.746094 -1.929688 -0.425781 -2.085938 -0.425781 L -2.429688 -0.28125 C -2.53125 -0.03125 -2.695312 -0.152344 -2.847656 -0.207031 C -2.847656 -0.289062 -2.847656 -0.339844 -2.746094 -0.347656 C -2.589844 -0.347656 -2.648438 -0.4375 -2.703125 -0.511719 C -2.804688 -0.539062 -2.914062 -0.589844 -2.953125 -0.425781 C -2.984375 -0.324219 -3.035156 -0.210938 -2.925781 -0.121094 C -2.957031 -0.0859375 -2.980469 -0.0507812 -3.011719 -0.0195312 L -3.230469 -0.0351562 C -3.292969 0.00390625 -3.410156 -0.0351562 -3.402344 0.101562 L -3.429688 0.101562 C -3.507812 0.15625 -3.542969 0.257812 -3.519531 0.351562 L -3.558594 0.363281 C -3.648438 0.363281 -3.730469 0.230469 -3.828125 0.347656 C -3.855469 0.382812 -3.828125 0.414062 -3.789062 0.425781 C -3.785156 0.449219 -3.785156 0.472656 -3.789062 0.496094 C -4.039062 0.496094 -4.25 0.441406 -4.238281 0.121094 C -4.261719 0.0820312 -4.285156 0.0390625 -4.308594 0.00390625 C -4.367188 -0.0429688 -4.441406 -0.0820312 -4.464844 -0.160156 C -4.445312 -0.160156 -4.425781 -0.167969 -4.414062 -0.183594 C -4.386719 -0.113281 -4.324219 -0.0664062 -4.25 -0.0585938 L -4.210938 -0.0585938 C -4.175781 -0.0117188 -4.128906 0.0234375 -4.074219 0.046875 C -3.90625 0.0976562 -3.730469 0.210938 -3.574219 0.046875 C -3.527344 0.00390625 -3.484375 -0.0429688 -3.441406 -0.09375 L -3.414062 -0.113281 L -3.382812 -0.164062 C -3.40625 -0.261719 -3.429688 -0.363281 -3.558594 -0.382812 C -3.683594 -0.398438 -3.808594 -0.550781 -3.945312 -0.609375 C -3.976562 -0.679688 -4.03125 -0.667969 -4.089844 -0.648438 C -4.097656 -0.644531 -4.101562 -0.636719 -4.105469 -0.628906 C -4.203125 -0.664062 -4.324219 -0.609375 -4.40625 -0.707031 C -4.429688 -0.703125 -4.453125 -0.703125 -4.476562 -0.707031 C -4.480469 -0.730469 -4.480469 -0.75 -4.476562 -0.769531 L -4.621094 -0.769531 L -4.710938 -0.863281 C -4.695312 -0.882812 -4.695312 -0.914062 -4.710938 -0.933594 C -4.980469 -1.113281 -5.269531 -0.972656 -5.546875 -0.992188 L -6 -0.726562 L -6.234375 -0.644531 C -6.527344 -0.625 -6.605469 -0.355469 -6.769531 -0.183594 C -7.058594 -0.148438 -7.050781 0.0820312 -7.09375 0.28125 L -7.164062 0.351562 L -7.375 0.441406 L -7.390625 0.519531 L -7.566406 0.65625 C -7.730469 0.65625 -7.816406 0.808594 -7.941406 0.871094 C -8.121094 1.144531 -7.960938 1.394531 -7.898438 1.648438 C -7.738281 1.707031 -7.558594 1.644531 -7.472656 1.5 L -7.25 1.453125 C -7.25 1.625 -7.175781 1.789062 -7.050781 1.902344 C -7.050781 2.011719 -7.101562 2.085938 -7.226562 2.078125 C -7.222656 2.109375 -7.207031 2.140625 -7.183594 2.160156 C -7.15625 2.179688 -7.125 2.1875 -7.09375 2.183594 C -7.054688 2.195312 -7.015625 2.175781 -7 2.140625 C -6.984375 2.15625 -6.964844 2.167969 -6.941406 2.171875 C -6.488281 2.097656 -6.378906 1.949219 -6.507812 1.582031 L -6.480469 1.582031 C -6.367188 1.582031 -6.269531 1.550781 -6.261719 1.40625 C -6.261719 1.394531 -6.265625 1.382812 -6.273438 1.371094 C -6.222656 1.246094 -6.300781 1.226562 -6.375 1.203125 C -6.394531 1.167969 -6.402344 1.128906 -6.394531 1.085938 C -6.398438 1.039062 -6.421875 0.996094 -6.457031 0.964844 L -6.371094 0.757812 L -6.121094 0.601562 L -6 0.601562 C -5.957031 0.566406 -5.925781 0.515625 -5.917969 0.460938 C -5.917969 0.460938 -5.917969 0.441406 -5.917969 0.433594 C -5.878906 0.339844 -5.933594 0.207031 -5.832031 0.136719 L -5.449219 0.121094 C -5.289062 0.34375 -5.617188 0.355469 -5.613281 0.507812 C -5.71875 0.601562 -5.910156 0.621094 -5.902344 0.820312 C -5.890625 0.945312 -5.917969 1.070312 -5.832031 1.191406 L -5.679688 1.300781 C -5.601562 1.320312 -5.519531 1.332031 -5.429688 1.351562 L -5.402344 1.351562 C -5.449219 1.363281 -5.488281 1.386719 -5.519531 1.421875 C -5.585938 1.449219 -5.625 1.511719 -5.585938 1.566406 C -5.335938 1.957031 -5.648438 1.832031 -5.824219 1.832031 C -5.964844 1.902344 -5.9375 2.011719 -5.894531 2.128906 C -5.894531 2.28125 -6.085938 2.242188 -6.128906 2.355469 L -6.273438 2.34375 C -6.363281 2.242188 -6.4375 2.3125 -6.511719 2.363281 C -6.683594 2.453125 -6.886719 2.449219 -7.050781 2.351562 C -7.109375 2.433594 -7.21875 2.457031 -7.300781 2.40625 C -7.320312 2.375 -7.347656 2.351562 -7.375 2.332031 C -7.394531 2.328125 -7.410156 2.328125 -7.425781 2.332031 C -7.460938 2.199219 -7.410156 2.0625 -7.296875 1.984375 L -7.28125 1.902344 C -7.296875 1.851562 -7.269531 1.742188 -7.34375 1.761719 C -7.417969 1.777344 -7.582031 1.824219 -7.574219 1.984375 C -7.625 2.121094 -7.539062 2.234375 -7.503906 2.363281 C -7.503906 2.40625 -7.523438 2.457031 -7.53125 2.5 C -7.773438 2.464844 -8.011719 2.578125 -8.144531 2.785156 C -8.210938 2.898438 -8.324219 2.902344 -8.433594 2.925781 C -8.566406 2.625 -8.757812 2.355469 -9 2.132812 C -9.019531 2.101562 -9.0625 2.050781 -9.050781 2.035156 C -8.851562 1.726562 -9.171875 1.691406 -9.300781 1.667969 C -9.472656 1.644531 -9.4375 1.851562 -9.460938 1.96875 C -9.332031 2.066406 -9.304688 2.269531 -9.152344 2.347656 C -9.195312 2.421875 -9.265625 2.488281 -9.253906 2.597656 L -9.238281 2.625 L -9.382812 2.832031 C -9.375 2.847656 -9.359375 2.863281 -9.339844 2.867188 C -9.316406 2.875 -9.296875 2.867188 -9.28125 2.855469 C -9.28125 2.957031 -9.292969 3.050781 -9.15625 3.058594 C -9.121094 3.035156 -9.082031 3.011719 -9.042969 3.003906 C -8.957031 3.035156 -8.859375 3.035156 -8.773438 3.003906 L -8.625 2.972656 L -8.460938 2.988281 C -8.460938 3.015625 -8.460938 3.042969 -8.460938 3.070312 C -8.574219 3.253906 -8.816406 3.15625 -8.960938 3.296875 C -9.023438 3.386719 -9.199219 3.277344 -9.210938 3.449219 L -8.960938 3.753906 C -8.90625 3.882812 -8.90625 4.027344 -8.960938 4.152344 C -8.988281 4.167969 -9.003906 4.199219 -9 4.230469 C -9.285156 4.175781 -9.574219 4.171875 -9.863281 4.210938 C -9.996094 4.488281 -9.878906 4.789062 -9.921875 5.074219 C -9.921875 5.324219 -9.71875 5.144531 -9.636719 5.21875 C -9.632812 5.203125 -9.632812 5.1875 -9.636719 5.175781 C -9.5625 5.230469 -9.519531 5.332031 -9.40625 5.316406 C -9.316406 5.226562 -9.183594 5.269531 -9.078125 5.230469 C -9.050781 5.238281 -9.023438 5.246094 -8.996094 5.253906 C -8.90625 5.246094 -8.839844 5.167969 -8.835938 5.082031 C -8.558594 4.859375 -8.347656 4.570312 -8.226562 4.238281 C -8.199219 4.253906 -8.167969 4.269531 -8.144531 4.289062 C -7.933594 4.351562 -7.707031 4.296875 -7.558594 4.140625 L -7.535156 4.113281 C -7.492188 4.121094 -7.449219 4.109375 -7.414062 4.085938 C -7.351562 4.28125 -7.195312 4.4375 -7 4.5 L -6.78125 4.609375 L -6.605469 4.816406 C -6.628906 4.914062 -6.6875 5 -6.773438 5.050781 C -6.859375 5.074219 -6.96875 4.949219 -7.023438 5.078125 C -7.023438 5.09375 -6.910156 5.167969 -6.847656 5.21875 C -6.730469 5.21875 -6.660156 5.175781 -6.726562 5.042969 C -6.566406 5.003906 -6.425781 4.949219 -6.476562 4.738281 L -6.449219 4.738281 C -6.476562 4.550781 -6.5625 4.421875 -6.777344 4.441406 C -6.894531 4.402344 -6.878906 4.273438 -6.945312 4.191406 C -6.996094 4.136719 -7.042969 4.074219 -7.082031 4.003906 L -7.050781 3.988281 C -6.816406 3.917969 -6.753906 4.253906 -6.53125 4.214844 L -6.503906 4.203125 L -6.164062 4.417969 C -6.140625 4.515625 -6.207031 4.636719 -6.105469 4.710938 C -6.117188 4.789062 -6.074219 4.863281 -6.003906 4.898438 L -6 4.898438 C -5.976562 4.964844 -5.886719 5.011719 -5.941406 5.101562 C -5.84375 5.207031 -5.777344 5.207031 -5.675781 5.078125 C -5.527344 4.886719 -5.777344 4.847656 -5.789062 4.722656 C -5.667969 4.554688 -5.496094 4.566406 -5.324219 4.5625 C -5.253906 4.636719 -5.308594 4.773438 -5.183594 4.8125 C -5.183594 4.882812 -5.257812 4.960938 -5.164062 5.019531 C -5.066406 5.226562 -4.914062 5.308594 -4.699219 5.191406 C -4.675781 5.1875 -4.652344 5.179688 -4.628906 5.167969 C -4.507812 5.226562 -4.378906 5.371094 -4.261719 5.167969 C -4.191406 5.25 -4.023438 5.167969 -4.011719 5.320312 C -4.050781 5.597656 -4.164062 5.863281 -4.335938 6.085938 L -4.476562 6.085938 C -4.570312 5.980469 -4.726562 5.953125 -4.851562 6.019531 C -5.066406 6.074219 -5.292969 6.058594 -5.5 5.976562 C -5.707031 5.910156 -5.945312 5.558594 -6.085938 6.046875 C -6.085938 6.074219 -6.097656 6.097656 -6.101562 6.121094 C -6.40625 6.207031 -6.601562 5.96875 -6.851562 5.871094 L -7.300781 5.726562 C -7.386719 5.667969 -7.414062 5.597656 -7.335938 5.511719 C -7.234375 5.300781 -7.304688 5.1875 -7.53125 5.183594 C -7.753906 5.183594 -7.90625 5.207031 -8.09375 5.222656 C -8.402344 5.1875 -8.710938 5.277344 -8.953125 5.472656 C -8.960938 5.46875 -8.96875 5.46875 -8.976562 5.472656 C -8.984375 5.476562 -8.988281 5.484375 -8.992188 5.492188 C -9.117188 5.386719 -9.269531 5.453125 -9.40625 5.425781 L -9.40625 5.398438 C -9.566406 5.472656 -9.632812 5.71875 -9.863281 5.667969 C -9.992188 5.8125 -10.046875 6.007812 -10.015625 6.195312 C -10.121094 6.46875 -10.542969 6.445312 -10.570312 6.796875 L -10.710938 6.976562 C -10.734375 6.972656 -10.753906 6.972656 -10.777344 6.976562 C -10.71875 7.15625 -11.027344 7.273438 -10.90625 7.476562 L -10.9375 7.546875 C -10.964844 7.773438 -10.894531 8.011719 -11.015625 8.230469 C -11.019531 8.246094 -11.019531 8.265625 -11.015625 8.285156 C -10.886719 8.460938 -10.953125 8.742188 -10.714844 8.863281 C -10.574219 8.941406 -10.515625 9.09375 -10.417969 9.207031 L -10.261719 9.425781 L -10.1875 9.425781 C -9.957031 9.488281 -9.789062 9.824219 -9.496094 9.578125 C -9.324219 9.550781 -9.152344 9.574219 -9 9.648438 L -8.386719 9.417969 L -8.078125 9.417969 L -8 9.5 C -7.980469 9.734375 -7.8125 9.644531 -7.683594 9.640625 L -7.609375 9.660156 L -7.460938 9.683594 L -7.390625 9.808594 C -7.503906 10.234375 -7.527344 10.636719 -7.085938 10.910156 C -6.972656 11.222656 -6.914062 11.550781 -6.917969 11.886719 C -7.113281 11.949219 -7.035156 12.167969 -7.144531 12.28125 L -7.144531 12.347656 C -7.207031 12.769531 -6.851562 13.050781 -6.769531 13.421875 C -6.769531 13.507812 -6.800781 13.601562 -6.707031 13.671875 C -6.699219 13.695312 -6.699219 13.714844 -6.707031 13.738281 C -6.816406 13.855469 -6.675781 13.90625 -6.636719 13.988281 C -6.5 14.238281 -6.308594 14.46875 -6.324219 14.78125 C -6.324219 14.886719 -6.253906 14.941406 -6.15625 14.960938 C -6.164062 14.972656 -6.164062 14.988281 -6.15625 14.996094 L -6.070312 14.996094 L -6.070312 14.964844 C -5.703125 14.851562 -5.238281 15.023438 -4.976562 14.597656 C -4.761719 14.554688 -4.703125 14.363281 -4.597656 14.210938 L -4.535156 14.210938 C -4.421875 14.078125 -4.40625 13.886719 -4.5 13.738281 C -4.496094 13.722656 -4.503906 13.710938 -4.519531 13.707031 C -4.335938 13.707031 -4.226562 13.5625 -4.074219 13.507812 C -4.125 13.125 -4.171875 12.746094 -3.738281 12.53125 C -3.65625 12.542969 -3.578125 12.507812 -3.53125 12.445312 L -3.425781 12.367188 C -3.40625 12.265625 -3.390625 12.164062 -3.371094 12.058594 C -3.167969 11.777344 -3.398438 11.527344 -3.429688 11.261719 C -3.539062 11.066406 -3.40625 10.871094 -3.441406 10.675781 C -3.359375 10.539062 -3.191406 10.464844 -3.160156 10.292969 L -3.136719 10.21875 C -2.96875 10.21875 -2.886719 10.050781 -2.761719 9.980469 C -2.46875 9.773438 -2.253906 9.476562 -2.144531 9.136719 C -2.007812 9.03125 -2.085938 8.886719 -2.074219 8.753906 C -2.335938 8.640625 -2.640625 8.695312 -2.847656 8.894531 C -3.023438 8.824219 -3.054688 8.644531 -3.128906 8.503906 L -3.160156 8.503906 C -3.210938 8.417969 -3.285156 8.347656 -3.378906 8.308594 L -3.605469 8.203125 C -3.601562 8.179688 -3.601562 8.152344 -3.605469 8.128906 C -3.730469 7.660156 -3.929688 7.210938 -4.203125 6.804688 L -4.289062 6.59375 L -4.125 6.441406 C -4.101562 6.433594 -4.078125 6.429688 -4.054688 6.429688 C -3.957031 6.695312 -3.800781 6.9375 -3.597656 7.136719 C -3.546875 7.261719 -3.597656 7.414062 -3.460938 7.511719 C -3.464844 7.523438 -3.464844 7.535156 -3.460938 7.542969 C -3.457031 7.691406 -3.355469 7.8125 -3.210938 7.84375 L -3.183594 7.84375 C -3.136719 7.90625 -3.09375 7.976562 -3.058594 8.050781 C -3.074219 8.097656 -3.085938 8.148438 -3.085938 8.199219 C -3.09375 8.253906 -3.074219 8.308594 -3.035156 8.34375 L -2.976562 8.386719 C -2.976562 8.519531 -2.949219 8.621094 -2.785156 8.5625 C -2.621094 8.503906 -2.441406 8.421875 -2.269531 8.351562 C -2.023438 8.246094 -1.785156 8.121094 -1.558594 7.976562 L -1.421875 7.976562 L -1.03125 7.519531 C -0.648438 7.207031 -0.980469 7.152344 -1.199219 7.058594 C -1.273438 6.929688 -1.304688 6.683594 -1.503906 6.96875 C -1.59375 7.101562 -1.753906 7.019531 -1.886719 7.066406 C -1.882812 7.085938 -1.882812 7.109375 -1.886719 7.128906 L -1.902344 7.128906 C -1.890625 7.113281 -1.882812 7.089844 -1.886719 7.066406 C -1.886719 6.914062 -1.941406 6.816406 -2.105469 6.816406 C -2.105469 6.585938 -2.335938 6.480469 -2.414062 6.289062 C -2.398438 6.273438 -2.390625 6.253906 -2.394531 6.230469 C -2.371094 6.230469 -2.355469 6.222656 -2.34375 6.207031 C -2.136719 6.152344 -2.03125 6.269531 -1.953125 6.441406 C -1.933594 6.511719 -1.878906 6.527344 -1.8125 6.53125 C -1.734375 6.671875 -1.5625 6.730469 -1.417969 6.660156 C -1.386719 6.636719 -1.347656 6.628906 -1.3125 6.636719 C -1.273438 6.644531 -1.242188 6.664062 -1.21875 6.695312 C -1.058594 6.875 -0.8125 6.953125 -0.582031 6.894531 L -0.0390625 6.894531 L 0.113281 6.988281 C 0.15625 7.089844 0.242188 7.167969 0.347656 7.207031 C 0.488281 7.269531 0.292969 7.367188 0.371094 7.4375 C 0.492188 7.4375 0.574219 7.578125 0.707031 7.515625 C 0.738281 7.492188 0.753906 7.457031 0.75 7.421875 C 0.769531 7.464844 0.796875 7.503906 0.816406 7.542969 C 0.777344 7.601562 0.800781 7.667969 0.816406 7.730469 C 0.792969 7.933594 0.859375 8.132812 1 8.277344 C 1.035156 8.546875 1.25 8.757812 1.25 9.042969 C 1.351562 9.042969 1.433594 9.371094 1.546875 9.042969 C 1.730469 8.972656 1.648438 8.753906 1.765625 8.648438 C 1.804688 8.605469 1.808594 8.542969 1.769531 8.5 C 1.769531 8.425781 1.769531 8.351562 1.753906 8.277344 C 1.753906 8.269531 1.753906 8.257812 1.753906 8.246094 C 1.78125 8.230469 1.800781 8.207031 1.820312 8.179688 C 1.816406 8.160156 1.816406 8.144531 1.820312 8.125 C 1.949219 8.125 2.003906 8.003906 2.105469 7.960938 C 2.117188 7.941406 2.125 7.917969 2.128906 7.894531 C 2.21875 7.875 2.300781 7.824219 2.355469 7.75 C 2.59375 7.691406 2.640625 7.363281 2.914062 7.359375 C 3.058594 7.417969 3.292969 7.09375 3.363281 7.46875 C 3.386719 7.546875 3.457031 7.574219 3.523438 7.605469 C 3.542969 7.703125 3.59375 7.789062 3.667969 7.855469 C 3.667969 7.980469 3.519531 8.203125 3.839844 8.148438 L 3.839844 8.121094 C 4.074219 7.964844 4.125 8.066406 4.089844 8.292969 C 4.019531 8.425781 4.207031 8.484375 4.171875 8.605469 L 4.171875 8.753906 C 4.171875 8.832031 4.171875 8.914062 4.171875 9.003906 C 4.171875 9.089844 4.03125 9.097656 4.15625 9.175781 C 4.292969 9.28125 4.378906 9.433594 4.40625 9.605469 L 4.40625 9.757812 C 4.511719 9.894531 4.621094 10.023438 4.824219 9.984375 C 4.824219 9.835938 4.863281 9.679688 4.765625 9.542969 C 4.742188 9.449219 4.652344 9.386719 4.554688 9.398438 L 4.523438 9.398438 L 4.316406 9.058594 L 4.296875 8.824219 C 4.300781 8.800781 4.300781 8.773438 4.300781 8.75 C 4.386719 8.445312 4.550781 8.523438 4.664062 8.707031 C 4.734375 8.824219 4.859375 8.894531 4.992188 8.898438 C 5.019531 8.988281 4.960938 9.046875 4.917969 9.113281 C 5.144531 9.128906 5.21875 8.914062 5.378906 8.824219 C 5.652344 8.703125 5.589844 8.496094 5.511719 8.285156 C 5.429688 8.074219 5.039062 7.945312 5.144531 7.59375 L 5.300781 7.441406 L 5.523438 7.441406 C 5.535156 7.464844 5.550781 7.484375 5.570312 7.503906 C 5.664062 7.5625 5.433594 7.707031 5.628906 7.730469 C 5.824219 7.761719 5.746094 7.628906 5.742188 7.539062 C 5.738281 7.449219 5.871094 7.4375 5.914062 7.363281 L 6.144531 7.285156 C 6.179688 7.242188 6.257812 7.25 6.300781 7.214844 C 6.378906 7.238281 6.457031 7.265625 6.523438 7.191406 C 6.527344 7.167969 6.527344 7.148438 6.523438 7.128906 C 6.890625 7.039062 6.90625 6.652344 7.113281 6.425781 C 7.136719 6.355469 7.261719 6.289062 7.128906 6.207031 C 7.207031 6.007812 7.15625 5.785156 7 5.644531 C 6.949219 5.597656 6.921875 5.53125 6.921875 5.460938 C 6.921875 5.394531 6.949219 5.328125 7 5.28125 C 7.066406 5.269531 7.175781 5.28125 7.144531 5.171875 C 7.078125 4.945312 6.933594 5.253906 6.84375 5.136719 C 6.847656 5.117188 6.839844 5.09375 6.828125 5.074219 C 6.8125 5.058594 6.792969 5.046875 6.769531 5.046875 C 6.667969 4.96875 6.699219 4.894531 6.769531 4.824219 C 6.863281 4.8125 6.945312 4.753906 6.988281 4.667969 C 7.058594 4.648438 7.167969 4.546875 7.183594 4.605469 C 7.261719 4.914062 7.664062 4.789062 7.757812 5.058594 C 7.871094 5.191406 7.738281 5.371094 7.847656 5.503906 C 8.136719 5.519531 8.300781 5.4375 8.152344 5.113281 L 8.050781 4.980469 C 8.039062 4.898438 7.941406 4.839844 7.988281 4.730469 C 8.199219 4.691406 8.238281 4.507812 8.3125 4.351562 L 8.457031 4.28125 L 8.457031 4.261719 L 8.539062 4.261719 C 8.660156 4.34375 8.757812 4.292969 8.84375 4.199219 L 9.199219 3.851562 L 9.25 3.851562 C 9.476562 3.722656 9.636719 3.503906 9.691406 3.25 C 9.6875 3.132812 9.707031 3.015625 9.75 2.90625 C 9.75 2.90625 9.75 2.886719 9.75 2.878906 C 9.757812 2.925781 9.78125 2.964844 9.816406 2.992188 C 9.808594 3.003906 9.808594 3.015625 9.816406 3.023438 L 9.800781 3.023438 C 9.640625 3.214844 9.632812 3.488281 9.785156 3.6875 C 9.820312 3.695312 9.855469 3.691406 9.890625 3.675781 C 9.890625 3.476562 9.945312 3.285156 10.042969 3.113281 C 10.050781 3.03125 10.023438 2.945312 9.964844 2.886719 C 9.933594 2.761719 10.050781 2.582031 9.910156 2.519531 C 9.769531 2.453125 9.882812 2.71875 9.738281 2.71875 C 9.703125 2.636719 9.707031 2.539062 9.617188 2.484375 L 9.503906 2.347656 L 9.351562 2.425781 L 9.199219 2.425781 C 9.117188 2.351562 9.011719 2.296875 8.96875 2.175781 L 9.050781 2.109375 L 9.121094 2.03125 L 9.527344 1.75 C 9.839844 1.371094 10.257812 1.398438 10.683594 1.449219 L 10.761719 1.367188 L 10.914062 1.390625 C 10.960938 1.402344 11.003906 1.417969 11.042969 1.445312 C 11.042969 1.539062 11.09375 1.566406 11.21875 1.527344 C 11.34375 1.488281 11.46875 1.472656 11.46875 1.292969 C 11.566406 1.246094 11.640625 1.164062 11.675781 1.058594 L 11.699219 0.984375 L 11.917969 0.953125 C 12.101562 0.914062 12.152344 1.203125 12.355469 1.125 C 12.503906 1.125 12.582031 1.011719 12.6875 0.941406 C 12.644531 0.992188 12.632812 1.058594 12.65625 1.121094 C 12.59375 1.09375 12.550781 1.101562 12.535156 1.160156 C 12.503906 1.164062 12.476562 1.179688 12.457031 1.199219 C 12.394531 1.394531 12.148438 1.414062 12.074219 1.601562 C 11.980469 1.621094 11.886719 1.644531 11.847656 1.753906 L 11.769531 1.835938 C 11.519531 1.992188 11.671875 2.234375 11.644531 2.4375 C 11.644531 2.464844 11.644531 2.492188 11.628906 2.523438 C 11.707031 2.636719 11.671875 2.863281 11.914062 2.808594 C 12.011719 2.769531 11.992188 2.679688 12 2.601562 L 12.136719 2.589844 C 12.179688 2.488281 12.242188 2.398438 12.324219 2.324219 C 12.519531 2.199219 12.59375 1.949219 12.492188 1.738281 C 12.492188 1.683594 12.34375 1.648438 12.4375 1.609375 C 12.589844 1.539062 12.601562 1.390625 12.6875 1.289062 C 12.773438 1.289062 12.867188 1.324219 12.9375 1.230469 C 12.960938 1.234375 12.984375 1.226562 13 1.210938 C 13.003906 1.195312 13.015625 1.183594 13.03125 1.179688 L 13 1.210938 L 13.230469 1.191406 L 13.539062 1.214844 C 13.632812 1.203125 13.714844 1.140625 13.75 1.050781 C 14 0.996094 14.175781 0.800781 14.441406 0.800781 C 14.535156 0.800781 14.636719 0.851562 14.695312 0.75 Z M -6.585938 8.402344 L -6.640625 8.402344 Z M -5.933594 9.820312 Z M -4.699219 8.203125 Z M -5.929688 8.203125 L -5.949219 8.203125 Z M -6.761719 9.703125 L -6.78125 9.703125 L -6.75 9.703125 Z M -4.621094 9.800781 Z M -10.160156 8.191406 Z M -9 6.894531 Z M -9 8.199219 Z M -8.914062 8.199219 C -8.917969 8.210938 -8.917969 8.222656 -8.914062 8.234375 Z M -9 7.050781 Z M -6.789062 9.75 C -6.769531 9.789062 -6.800781 9.75 -6.789062 9.730469 C -6.789062 9.738281 -6.789062 9.746094 -6.789062 9.75 Z M -4.625 9.875 Z M -7.394531 8.199219 Z M -6.085938 13.65625 Z M 5.175781 -1.726562 C 5.195312 -1.703125 5.214844 -1.679688 5.234375 -1.664062 C 5.191406 -1.640625 5.152344 -1.609375 5.121094 -1.570312 C 5.105469 -1.574219 5.089844 -1.574219 5.074219 -1.570312 C 5.0625 -1.628906 5.089844 -1.691406 5.140625 -1.722656 L 5.175781 -1.722656 Z M -4.621094 -0.335938 Z M -4.621094 -0.257812 Z M 3.605469 -0.28125 L 3.621094 -0.261719 L 3.605469 -0.261719 Z M -0.46875 2.515625 Z M 3.683594 1.050781 Z M 5.066406 4.136719 L 5.082031 4.136719 C 5.074219 4.136719 5.070312 4.136719 5.066406 4.136719 Z M 5.148438 4.121094 Z M 5.148438 1.121094 L 5.148438 1.097656 C 5.148438 1.105469 5.148438 1.117188 5.148438 1.125 Z M 2.148438 2.585938 Z M 5.148438 1.046875 Z M 6.382812 1.046875 Z M -1.925781 1.128906 Z M -0.46875 5.277344 Z M 0.839844 5.355469 L 0.839844 5.335938 L 0.839844 5.367188 Z M 5.148438 5.355469 L 5.164062 5.355469 Z M 9.148438 -0.273438 C 9.148438 -0.273438 9.144531 -0.25 9.144531 -0.265625 Z M 7.914062 -0.25 C 7.914062 -0.25 7.914062 -0.25 7.914062 -0.265625 Z M 6.453125 -0.25 Z M 6.375 -0.25 Z M 0.835938 1.058594 Z M -0.46875 -0.25 L -0.46875 -0.285156 C -0.46875 -0.273438 -0.46875 -0.261719 -0.46875 -0.25 Z M -2.324219 4.820312 C -2.273438 4.777344 -2.238281 4.710938 -2.234375 4.640625 C -2.230469 4.574219 -2.257812 4.503906 -2.304688 4.457031 C -2.402344 4.371094 -2.472656 4.257812 -2.5 4.132812 C -2.5 4.054688 -2.527344 3.976562 -2.542969 3.902344 L -2.371094 3.761719 L -1.941406 3.582031 C -1.726562 3.660156 -1.652344 3.753906 -1.910156 3.878906 C -1.988281 3.914062 -2.082031 3.9375 -2.03125 4.058594 C -2.058594 4.21875 -1.800781 4.246094 -1.855469 4.417969 C -1.804688 4.476562 -1.769531 4.480469 -1.738281 4.460938 C -1.71875 4.484375 -1.707031 4.511719 -1.691406 4.539062 C -1.726562 4.539062 -1.761719 4.550781 -1.789062 4.574219 C -1.941406 4.78125 -1.621094 4.757812 -1.632812 4.898438 L -1.632812 5.21875 C -1.640625 5.203125 -1.648438 5.1875 -1.660156 5.171875 C -1.777344 5.09375 -1.933594 5.097656 -2.042969 5.1875 C -2.0625 5.183594 -2.085938 5.183594 -2.105469 5.1875 L -2.148438 5.207031 C -2.335938 5.117188 -2.308594 4.960938 -2.324219 4.820312 Z M 6.375 5.355469 Z M 6.449219 5.355469 Z M 12 -0.339844 C 11.996094 -0.332031 11.992188 -0.328125 11.988281 -0.320312 Z M 11.914062 -0.839844 C 11.886719 -0.824219 11.914062 -0.851562 11.914062 -0.855469 Z M -0.625 5.441406 L -0.625 5.472656 C -0.625 5.460938 -0.625 5.449219 -0.644531 5.441406 Z M -0.625 6.269531 Z M 2.300781 7.585938 Z M 12.835938 0.980469 Z M -5.113281 1.25 L -5.066406 1.25 L -5.085938 1.265625 C -5.121094 1.292969 -5.160156 1.316406 -5.207031 1.324219 C -5.171875 1.304688 -5.140625 1.28125 -5.113281 1.25 Z M -4.582031 4.5 C -4.699219 4.402344 -4.875 4.410156 -4.984375 4.519531 C -5.011719 4.183594 -4.753906 3.960938 -4.640625 3.683594 C -4.585938 3.789062 -4.476562 3.824219 -4.371094 3.871094 L -4.355469 3.871094 C -4.382812 3.960938 -4.324219 4.003906 -4.222656 4.003906 C -4.164062 3.992188 -4.113281 3.96875 -4.0625 3.9375 L -4.175781 3.84375 C -4.121094 3.820312 -4.078125 3.777344 -4.046875 3.730469 C -4.039062 3.710938 -4.027344 3.695312 -4.011719 3.683594 C -3.960938 3.675781 -3.914062 3.664062 -3.867188 3.644531 L -3.808594 3.65625 C -3.730469 3.65625 -3.640625 3.65625 -3.730469 3.769531 C -3.738281 3.777344 -3.738281 3.789062 -3.730469 3.800781 C -3.796875 3.859375 -3.925781 3.917969 -3.730469 3.996094 L -3.695312 3.996094 C -3.707031 4.007812 -3.71875 4.019531 -3.734375 4.023438 C -3.726562 4.078125 -3.695312 4.121094 -3.652344 4.148438 C -3.605469 4.175781 -3.550781 4.179688 -3.5 4.160156 C -3.53125 4.308594 -3.433594 4.371094 -3.300781 4.410156 C -3.273438 4.433594 -3.273438 4.375 -3.257812 4.371094 C -3.261719 4.382812 -3.261719 4.390625 -3.269531 4.398438 C -3.277344 4.414062 -3.277344 4.433594 -3.269531 4.449219 C -3.382812 4.425781 -3.421875 4.519531 -3.46875 4.59375 C -3.511719 4.589844 -3.558594 4.589844 -3.601562 4.59375 C -3.746094 4.574219 -3.917969 4.59375 -4.015625 4.457031 C -4.191406 4.347656 -4.417969 4.359375 -4.582031 4.484375 Z M -4.582031 4.5 "/>
</g>
</g>
<g clip-path="url(#clip15)" clip-rule="nonzero">
<g clip-path="url(#clip16)" clip-rule="nonzero">
<path style=" stroke:none;fill-rule:nonzero;fill:rgb(27.058824%,89.019608%,100%);fill-opacity:1;" d="M 7.683594 11.050781 C 7.503906 10.941406 7.332031 11.214844 7.148438 11.050781 C 7.117188 11.023438 7.050781 11.070312 7.066406 11.136719 C 7.101562 11.304688 7.199219 11.566406 7.292969 11.5625 C 7.523438 11.5625 7.757812 11.855469 7.988281 11.582031 C 8.050781 11.300781 8.425781 11.082031 8.175781 10.730469 C 8.121094 10.585938 8.023438 10.605469 7.925781 10.664062 C 7.925781 10.808594 7.867188 10.941406 7.761719 11.039062 Z M 7.683594 11.050781 "/>
</g>
</g>
<g clip-path="url(#clip17)" clip-rule="nonzero">
<g clip-path="url(#clip18)" clip-rule="nonzero">
<path style=" stroke:none;fill-rule:nonzero;fill:rgb(27.058824%,89.019608%,100%);fill-opacity:1;" d="M 8.667969 11.125 C 8.8125 11.226562 9.003906 11.226562 9.144531 11.125 L 9.144531 10.976562 C 9.011719 11.117188 8.792969 10.96875 8.667969 11.125 Z M 8.667969 11.125 "/>
</g>
</g>
<g clip-path="url(#clip19)" clip-rule="nonzero">
<g clip-path="url(#clip20)" clip-rule="nonzero">
<path style=" stroke:none;fill-rule:nonzero;fill:rgb(27.058824%,89.019608%,100%);fill-opacity:1;" d="M 9.457031 10.984375 C 9.429688 11.09375 9.457031 11.210938 9.523438 11.300781 C 9.714844 11.042969 9.710938 11.019531 9.457031 10.984375 Z M 9.457031 10.984375 "/>
</g>
</g>
<g clip-path="url(#clip21)" clip-rule="nonzero">
<g clip-path="url(#clip22)" clip-rule="nonzero">
<path style=" stroke:none;fill-rule:nonzero;fill:rgb(27.058824%,89.019608%,100%);fill-opacity:1;" d="M 8.5 11.960938 C 8.585938 11.867188 8.601562 11.726562 8.539062 11.617188 C 8.566406 11.636719 8.601562 11.648438 8.636719 11.648438 C 8.632812 11.683594 8.644531 11.71875 8.667969 11.742188 C 8.726562 11.808594 8.78125 11.835938 8.835938 11.742188 L 8.75 11.585938 C 8.710938 11.488281 8.789062 11.429688 8.828125 11.355469 C 8.730469 11.238281 8.613281 11.433594 8.515625 11.335938 L 8.515625 11.355469 L 8.53125 11.355469 C 8.214844 11.550781 8.433594 11.75 8.5 11.960938 Z M 8.5 11.960938 "/>
</g>
</g>
<g clip-path="url(#clip23)" clip-rule="nonzero">
<g clip-path="url(#clip24)" clip-rule="nonzero">
<path style=" stroke:none;fill-rule:nonzero;fill:rgb(27.058824%,89.019608%,100%);fill-opacity:1;" d="M 6.96875 7.21875 C 6.988281 7.253906 7.015625 7.285156 7.050781 7.308594 C 7.175781 7.21875 7.148438 7.058594 7.238281 6.871094 C 7.023438 6.960938 6.925781 7.050781 6.96875 7.21875 Z M 6.96875 7.21875 "/>
</g>
</g>
<g clip-path="url(#clip25)" clip-rule="nonzero">
<g clip-path="url(#clip26)" clip-rule="nonzero">
<path style=" stroke:none;fill-rule:nonzero;fill:rgb(27.058824%,89.019608%,100%);fill-opacity:1;" d="M 6.230469 9.976562 C 6.375 9.976562 6.367188 9.851562 6.378906 9.753906 C 6.496094 9.617188 6.800781 9.832031 6.824219 9.515625 C 6.683594 9.464844 6.554688 9.289062 6.386719 9.460938 L 6.226562 9.664062 C 6.171875 9.71875 6.121094 9.773438 6.070312 9.828125 C 5.945312 9.878906 5.804688 9.90625 5.742188 10.050781 C 5.902344 10.132812 6.101562 10.101562 6.230469 9.976562 Z M 6.230469 9.976562 "/>
</g>
</g>
<g clip-path="url(#clip27)" clip-rule="nonzero">
<g clip-path="url(#clip28)" clip-rule="nonzero">
<path style=" stroke:none;fill-rule:nonzero;fill:rgb(27.058824%,89.019608%,100%);fill-opacity:1;" d="M 9.476562 4.84375 C 9.453125 4.914062 9.425781 4.984375 9.386719 5.050781 L 9.328125 5.140625 C 9.277344 5.113281 9.214844 5.113281 9.164062 5.140625 L 9.046875 5.359375 C 9.027344 5.390625 8.992188 5.40625 8.96875 5.433594 L 8.605469 5.433594 L 8.574219 5.5 C 8.492188 5.535156 8.507812 5.59375 8.53125 5.660156 C 8.617188 5.71875 8.722656 5.746094 8.832031 5.734375 C 8.890625 5.675781 8.898438 5.582031 8.855469 5.511719 L 8.945312 5.523438 L 8.945312 5.539062 C 8.972656 5.597656 9.023438 5.636719 9.085938 5.648438 C 9.1875 5.570312 9.3125 5.515625 9.441406 5.5 C 9.539062 5.484375 9.714844 5.5 9.675781 5.292969 C 9.675781 5.058594 10 4.863281 9.753906 4.601562 C 9.71875 4.460938 9.703125 4.335938 9.914062 4.367188 C 10.128906 4.398438 10.1875 4.320312 10.085938 4.117188 L 9.917969 3.914062 C 9.800781 3.914062 9.765625 4.019531 9.726562 4.109375 C 9.726562 4.125 9.726562 4.144531 9.726562 4.160156 L 9.683594 4.160156 C 9.59375 4.167969 9.515625 4.222656 9.476562 4.308594 C 9.433594 4.410156 9.476562 4.53125 9.574219 4.589844 L 9.597656 4.589844 C 9.539062 4.664062 9.496094 4.75 9.476562 4.84375 Z M 9.476562 4.84375 "/>
</g>
</g>
<g clip-path="url(#clip29)" clip-rule="nonzero">
<g clip-path="url(#clip30)" clip-rule="nonzero">
<path style=" stroke:none;fill-rule:nonzero;fill:rgb(27.058824%,89.019608%,100%);fill-opacity:1;" d="M 8.292969 5.90625 L 8.371094 6.011719 C 8.433594 5.980469 8.480469 5.925781 8.5 5.855469 C 8.515625 5.789062 8.503906 5.71875 8.460938 5.664062 C 8.269531 5.648438 8.230469 5.75 8.292969 5.90625 Z M 8.292969 5.90625 "/>
</g>
</g>
<g clip-path="url(#clip31)" clip-rule="nonzero">
<g clip-path="url(#clip32)" clip-rule="nonzero">
<path style=" stroke:none;fill-rule:nonzero;fill:rgb(27.058824%,89.019608%,100%);fill-opacity:1;" d="M 7.769531 9.199219 C 7.769531 9.136719 7.769531 9.058594 7.683594 9.039062 L 7.539062 9.148438 C 7.414062 9.101562 7.277344 9.160156 7.222656 9.28125 L 7.296875 9.300781 C 7.375 9.269531 7.441406 9.261719 7.46875 9.363281 C 7.5 9.460938 7.5625 9.414062 7.605469 9.445312 C 7.648438 9.476562 7.691406 9.433594 7.710938 9.382812 C 7.710938 9.375 7.710938 9.367188 7.710938 9.355469 L 7.75 9.355469 C 7.796875 9.308594 7.878906 9.261719 7.769531 9.199219 Z M 7.769531 9.199219 "/>
</g>
</g>
<g clip-path="url(#clip33)" clip-rule="nonzero">
<g clip-path="url(#clip34)" clip-rule="nonzero">
<path style=" stroke:none;fill-rule:nonzero;fill:rgb(27.058824%,89.019608%,100%);fill-opacity:1;" d="M 7.097656 7.828125 C 7.007812 7.949219 6.972656 8.101562 7 8.25 C 7 8.269531 7.03125 8.28125 7.050781 8.300781 C 7.03125 8.550781 7.238281 8.5 7.378906 8.53125 C 7.402344 8.457031 7.367188 8.382812 7.300781 8.351562 L 7.15625 8.285156 C 7.175781 8.230469 7.199219 8.171875 7.226562 8.117188 C 7.316406 7.925781 7.203125 7.71875 7.097656 7.828125 Z M 7.097656 7.828125 "/>
</g>
</g>
<g clip-path="url(#clip35)" clip-rule="nonzero">
<g clip-path="url(#clip36)" clip-rule="nonzero">
<path style=" stroke:none;fill-rule:nonzero;fill:rgb(27.058824%,89.019608%,100%);fill-opacity:1;" d="M 7.386719 8.859375 C 7.324219 8.839844 7.300781 8.882812 7.300781 8.9375 C 7.308594 8.976562 7.320312 9.015625 7.335938 9.054688 C 7.371094 9.007812 7.398438 8.980469 7.40625 8.953125 C 7.410156 8.921875 7.402344 8.863281 7.386719 8.859375 Z M 7.386719 8.859375 "/>
</g>
</g>
<g clip-path="url(#clip37)" clip-rule="nonzero">
<g clip-path="url(#clip38)" clip-rule="nonzero">
<path style=" stroke:none;fill-rule:nonzero;fill:rgb(27.058824%,89.019608%,100%);fill-opacity:1;" d="M 1.800781 9.035156 C 1.675781 9.011719 1.679688 9.121094 1.679688 9.214844 C 1.671875 9.265625 1.6875 9.316406 1.71875 9.355469 C 1.75 9.394531 1.792969 9.421875 1.84375 9.425781 C 1.933594 9.425781 1.992188 9.398438 1.980469 9.289062 C 1.925781 9.207031 1.925781 9.058594 1.800781 9.035156 Z M 1.800781 9.035156 "/>
</g>
</g>
</g>
</svg>
