
<svg xmlns="http://www.w3.org/2000/svg" xmlns:xlink="http://www.w3.org/1999/xlink" width="16px" height="16px" viewBox="0 0 16 16" version="1.1">
<defs>
<linearGradient id="linear0" gradientUnits="userSpaceOnUse" x1="-571.81" y1="-2840.37" x2="-571.81" y2="-2826.56" gradientTransform="matrix(0.176777,-0.176777,0.176777,0.176777,609.381197,407.342503)">
<stop offset="0" style="stop-color:rgb(100%,100%,100%);stop-opacity:0;"/>
<stop offset="1" style="stop-color:rgb(100%,100%,100%);stop-opacity:1;"/>
</linearGradient>
</defs>
<g id="surface1">
<path style=" stroke:none;fill-rule:nonzero;fill:rgb(36.078431%,41.960784%,75.294118%);fill-opacity:1;" d="M 1.347656 0 L 14.652344 0 C 15.394531 0 16 0.605469 16 1.347656 L 16 14.652344 C 16 15.394531 15.394531 16 14.652344 16 L 1.347656 16 C 0.605469 16 0 15.394531 0 14.652344 L 0 1.347656 C 0 0.605469 0.605469 0 1.347656 0 Z M 1.347656 0 "/>
<path style=" stroke:none;fill-rule:nonzero;fill:rgb(100%,100%,100%);fill-opacity:1;" d="M 7.300781 3.855469 C 7.457031 3.847656 7.613281 3.902344 7.726562 4.003906 L 12.8125 9.089844 C 13.238281 9.519531 12.71875 10.726562 11.65625 11.792969 C 10.84375 12.605469 9.945312 13.101562 9.375 13.101562 C 9.21875 13.109375 9.066406 13.054688 8.949219 12.949219 L 3.863281 7.863281 C 3.433594 7.433594 3.953125 6.226562 5.019531 5.15625 C 5.832031 4.34375 6.726562 3.851562 7.296875 3.851562 M 7.296875 3.476562 C 6.601562 3.476562 5.628906 4.019531 4.753906 4.894531 C 3.667969 6 2.917969 7.449219 3.601562 8.132812 L 8.351562 12.882812 L 8.691406 13.21875 C 8.875 13.394531 9.125 13.484375 9.378906 13.46875 C 10.074219 13.46875 11.050781 12.925781 11.925781 12.050781 C 12.433594 11.5625 12.84375 10.984375 13.144531 10.34375 C 13.523438 9.453125 13.269531 9.003906 13.082031 8.820312 L 11.765625 7.5 L 8 3.75 C 7.8125 3.574219 7.566406 3.488281 7.308594 3.5 Z M 7.296875 3.476562 "/>
<path style=" stroke:none;fill-rule:nonzero;fill:url(#linear0);" d="M 3.867188 7.867188 L 7.726562 4.007812 L 10.726562 7.003906 L 6.863281 10.867188 Z M 3.867188 7.867188 "/>
<path style=" stroke:none;fill-rule:nonzero;fill:rgb(100%,100%,100%);fill-opacity:1;" d="M 7.726562 4.003906 C 7.300781 3.578125 6.089844 4.097656 5.023438 5.160156 C 3.957031 6.230469 3.4375 7.4375 3.867188 7.863281 C 4.292969 8.292969 5.503906 7.773438 6.566406 6.707031 C 7.636719 5.640625 8.152344 4.429688 7.726562 4.003906 Z M 7.726562 4.003906 "/>
<path style=" stroke:none;fill-rule:nonzero;fill:rgb(70.196078%,70.196078%,70.196078%);fill-opacity:1;" d="M 6.453125 4.277344 C 6.195312 4.023438 5.472656 4.332031 4.832031 4.972656 C 4.195312 5.609375 3.886719 6.335938 4.140625 6.589844 C 4.394531 6.847656 5.121094 6.535156 5.761719 5.898438 C 6.398438 5.257812 6.707031 4.535156 6.453125 4.277344 Z M 6.453125 4.277344 "/>
<path style=" stroke:none;fill-rule:nonzero;fill:rgb(100%,100%,100%);fill-opacity:1;" d="M 6.058594 3.910156 C 5.804688 3.652344 5.078125 3.964844 4.441406 4.601562 C 3.800781 5.238281 3.492188 5.964844 3.746094 6.222656 C 4.003906 6.476562 4.726562 6.167969 5.367188 5.527344 C 6.003906 4.890625 6.316406 4.164062 6.058594 3.910156 Z M 6.058594 3.910156 "/>
<path style=" stroke:none;fill-rule:nonzero;fill:rgb(16.078431%,71.372549%,96.470588%);fill-opacity:1;" d="M 7.636719 11.636719 L 8.949219 12.949219 C 9.378906 13.378906 10.585938 12.859375 11.65625 11.792969 C 12.722656 10.726562 13.238281 9.519531 12.8125 9.089844 L 11.5 7.777344 Z M 7.636719 11.636719 "/>
<path style=" stroke:none;fill-rule:nonzero;fill:rgb(100%,100%,100%);fill-opacity:1;" d="M 11.496094 7.777344 C 11.070312 7.351562 9.859375 7.871094 8.792969 8.9375 C 7.730469 10.003906 7.210938 11.214844 7.636719 11.640625 C 8.0625 12.066406 9.273438 11.546875 10.339844 10.480469 C 11.40625 9.414062 11.925781 8.207031 11.496094 7.777344 Z M 11.496094 7.777344 "/>
<path style=" stroke:none;fill-rule:nonzero;fill:rgb(16.078431%,71.372549%,96.470588%);fill-opacity:1;" d="M 5.976562 9.976562 L 7.289062 11.289062 C 7.71875 11.71875 8.925781 11.199219 9.996094 10.132812 C 11.0625 9.066406 11.582031 7.855469 11.152344 7.429688 L 9.839844 6.117188 Z M 5.976562 9.976562 "/>
<path style=" stroke:none;fill-rule:nonzero;fill:rgb(100%,100%,100%);fill-opacity:1;" d="M 9.835938 6.117188 C 9.410156 5.691406 8.199219 6.210938 7.132812 7.277344 C 6.066406 8.34375 5.550781 9.550781 5.976562 9.980469 C 6.402344 10.40625 7.613281 9.886719 8.679688 8.820312 C 9.746094 7.753906 10.261719 6.542969 9.835938 6.117188 Z M 9.835938 6.117188 "/>
</g>
</svg>
