
<svg xmlns="http://www.w3.org/2000/svg" xmlns:xlink="http://www.w3.org/1999/xlink" width="16px" height="16px" viewBox="0 0 16 16" version="1.1">
<g id="surface1">
<path style=" stroke:none;fill-rule:nonzero;fill:rgb(49.411765%,34.117647%,76.862745%);fill-opacity:1;" d="M 1.347656 0 L 14.652344 0 C 15.394531 0 16 0.605469 16 1.347656 L 16 14.652344 C 16 15.394531 15.394531 16 14.652344 16 L 1.347656 16 C 0.605469 16 0 15.394531 0 14.652344 L 0 1.347656 C 0 0.605469 0.605469 0 1.347656 0 Z M 1.347656 0 "/>
<path style=" stroke:none;fill-rule:nonzero;fill:rgb(92.54902%,25.098039%,47.843137%);fill-opacity:1;" d="M 8.972656 6.722656 C 9.46875 6.398438 9.769531 5.84375 9.773438 5.25 L 9.773438 4.6875 C 9.773438 3.707031 8.980469 2.914062 8 2.914062 C 7.019531 2.914062 6.226562 3.707031 6.226562 4.6875 L 6.226562 5.25 C 6.226562 5.847656 6.527344 6.402344 7.027344 6.730469 L 7.027344 7.148438 C 7.027344 7.363281 6.910156 7.5625 6.722656 7.667969 L 5.171875 8.542969 C 4.515625 8.917969 4.105469 9.613281 4.105469 10.367188 L 4.105469 11.164062 L 6.546875 11.164062 L 8 10.164062 L 8.5 10.230469 L 9.5 11.15625 L 11.90625 11.15625 L 11.90625 10.359375 C 11.90625 9.605469 11.496094 8.910156 10.839844 8.539062 L 9.289062 7.664062 C 9.101562 7.554688 8.984375 7.355469 8.984375 7.140625 L 8.984375 6.722656 "/>
<path style=" stroke:none;fill-rule:nonzero;fill:rgb(100%,100%,100%);fill-opacity:1;" d="M 9.535156 9.816406 L 9.449219 9.816406 L 9.449219 8.984375 C 9.449219 8.460938 9.027344 8.035156 8.5 8.03125 L 7.566406 8.03125 C 7.039062 8.035156 6.613281 8.460938 6.613281 8.984375 L 6.613281 9.816406 L 6.464844 9.816406 C 6.359375 9.816406 6.257812 9.859375 6.179688 9.933594 C 6.105469 10.011719 6.066406 10.113281 6.066406 10.21875 L 6.066406 12.6875 C 6.066406 12.792969 6.105469 12.894531 6.183594 12.972656 C 6.257812 13.046875 6.359375 13.089844 6.464844 13.085938 L 9.535156 13.085938 C 9.753906 13.085938 9.933594 12.910156 9.933594 12.6875 L 9.933594 10.21875 C 9.933594 10 9.757812 9.820312 9.535156 9.816406 Z M 8.191406 11.433594 L 8.191406 12.25 C 8.191406 12.355469 8.105469 12.441406 8 12.441406 C 7.894531 12.441406 7.808594 12.355469 7.808594 12.25 L 7.808594 11.433594 C 7.582031 11.339844 7.449219 11.101562 7.496094 10.859375 C 7.542969 10.617188 7.753906 10.445312 8 10.445312 C 8.246094 10.445312 8.457031 10.617188 8.503906 10.859375 C 8.550781 11.101562 8.417969 11.339844 8.191406 11.433594 Z M 8.941406 9.816406 L 7.113281 9.816406 L 7.113281 8.984375 C 7.113281 8.738281 7.316406 8.535156 7.566406 8.535156 L 8.5 8.535156 C 8.75 8.535156 8.949219 8.738281 8.949219 8.984375 Z M 8.941406 9.816406 "/>
</g>
</svg>
