
<svg xmlns="http://www.w3.org/2000/svg" xmlns:xlink="http://www.w3.org/1999/xlink" width="16px" height="16px" viewBox="0 0 16 16" version="1.1">
<defs>
<linearGradient id="linear0" gradientUnits="userSpaceOnUse" x1="32.86" y1="52.99" x2="32.86" y2="54.61" gradientTransform="matrix(0.25,0,0,0.25,-0.03,0.0125)">
<stop offset="0" style="stop-color:rgb(86.27451%,87.058824%,88.627451%);stop-opacity:1;"/>
<stop offset="0.57" style="stop-color:rgb(87.058824%,87.843137%,89.411765%);stop-opacity:1;"/>
<stop offset="0.81" style="stop-color:rgb(89.803922%,90.588235%,91.764706%);stop-opacity:1;"/>
<stop offset="0.99" style="stop-color:rgb(94.901961%,95.294118%,95.686275%);stop-opacity:1;"/>
<stop offset="1" style="stop-color:rgb(95.294118%,95.686275%,96.078431%);stop-opacity:1;"/>
</linearGradient>
</defs>
<g id="surface1">
<path style=" stroke:none;fill-rule:nonzero;fill:rgb(49.411765%,34.117647%,76.862745%);fill-opacity:1;" d="M 1.347656 0 L 14.652344 0 C 15.394531 0 16 0.605469 16 1.347656 L 16 14.652344 C 16 15.394531 15.394531 16 14.652344 16 L 1.347656 16 C 0.605469 16 0 15.394531 0 14.652344 L 0 1.347656 C 0 0.605469 0.605469 0 1.347656 0 Z M 1.347656 0 "/>
<path style=" stroke:none;fill-rule:nonzero;fill:url(#linear0);" d="M 10.96875 13.597656 L 10.5 13.597656 C 10.296875 13.597656 10.132812 13.433594 10.132812 13.230469 L 10.132812 11.539062 L 6.25 11.539062 L 6.25 13.226562 C 6.25 13.429688 6.085938 13.59375 5.882812 13.59375 L 5.394531 13.59375 C 5.195312 13.59375 5.03125 13.757812 5.03125 13.957031 C 5.03125 14.15625 5.195312 14.320312 5.394531 14.320312 L 10.96875 14.320312 C 11.066406 14.320312 11.160156 14.28125 11.226562 14.214844 C 11.296875 14.144531 11.335938 14.054688 11.335938 13.957031 C 11.332031 13.757812 11.167969 13.597656 10.96875 13.597656 Z M 10.96875 13.597656 "/>
<path style=" stroke:none;fill-rule:nonzero;fill:rgb(92.54902%,25.098039%,47.843137%);fill-opacity:1;" d="M 2.285156 2.964844 L 13.714844 2.964844 C 13.980469 2.964844 14.191406 3.179688 14.191406 3.441406 L 14.191406 10.988281 C 14.191406 11.25 13.980469 11.464844 13.714844 11.464844 L 2.285156 11.464844 C 2.019531 11.464844 1.808594 11.25 1.808594 10.988281 L 1.808594 3.441406 C 1.808594 3.179688 2.019531 2.964844 2.285156 2.964844 Z M 2.285156 2.964844 "/>
<path style=" stroke:none;fill-rule:nonzero;fill:rgb(100%,100%,100%);fill-opacity:1;" d="M 13.714844 11.683594 L 2.285156 11.683594 C 1.902344 11.683594 1.59375 11.378906 1.585938 11 L 1.585938 3.441406 C 1.589844 3.058594 1.902344 2.75 2.285156 2.75 L 13.714844 2.75 C 14.101562 2.75 14.414062 3.0625 14.414062 3.449219 L 14.414062 11 C 14.40625 11.378906 14.097656 11.683594 13.714844 11.683594 Z M 2.285156 3.183594 C 2.148438 3.183594 2.035156 3.296875 2.035156 3.433594 L 2.035156 11 C 2.035156 11.136719 2.148438 11.25 2.285156 11.25 L 13.714844 11.25 C 13.851562 11.25 13.964844 11.136719 13.964844 11 L 13.964844 3.441406 C 13.964844 3.304688 13.851562 3.191406 13.714844 3.191406 Z M 2.285156 3.183594 "/>
<path style=" stroke:none;fill-rule:nonzero;fill:rgb(100%,100%,100%);fill-opacity:1;" d="M 1.648438 10.5 L 14.328125 10.5 L 14.328125 11.050781 C 14.328125 11.355469 14.082031 11.601562 13.777344 11.601562 L 2.199219 11.601562 C 1.894531 11.601562 1.648438 11.355469 1.648438 11.050781 Z M 1.648438 10.5 "/>
<path style=" stroke:none;fill-rule:nonzero;fill:rgb(100%,100%,100%);fill-opacity:1;" d="M 9.535156 5.90625 L 9.453125 5.90625 L 9.453125 5.070312 C 9.449219 4.542969 9.027344 4.121094 8.5 4.121094 L 7.566406 4.121094 C 7.042969 4.121094 6.617188 4.542969 6.613281 5.070312 L 6.613281 5.90625 L 6.464844 5.90625 C 6.246094 5.90625 6.066406 6.082031 6.066406 6.304688 L 6.066406 8.773438 C 6.066406 8.996094 6.246094 9.175781 6.464844 9.175781 L 9.535156 9.175781 C 9.753906 9.175781 9.933594 8.996094 9.933594 8.773438 L 9.933594 6.304688 C 9.933594 6.082031 9.753906 5.90625 9.535156 5.90625 Z M 8.191406 7.519531 L 8.191406 8.335938 C 8.191406 8.445312 8.105469 8.53125 8 8.53125 C 7.894531 8.53125 7.808594 8.445312 7.808594 8.335938 L 7.808594 7.519531 C 7.578125 7.425781 7.449219 7.1875 7.496094 6.945312 C 7.542969 6.703125 7.753906 6.527344 8 6.527344 C 8.246094 6.527344 8.457031 6.703125 8.503906 6.945312 C 8.550781 7.1875 8.421875 7.425781 8.191406 7.519531 Z M 8.941406 5.90625 L 7.113281 5.90625 L 7.113281 5.070312 C 7.117188 4.820312 7.316406 4.621094 7.566406 4.621094 L 8.5 4.621094 C 8.75 4.621094 8.949219 4.820312 8.949219 5.070312 Z M 8.941406 5.90625 "/>
</g>
</svg>
