
<svg xmlns="http://www.w3.org/2000/svg" xmlns:xlink="http://www.w3.org/1999/xlink" width="16px" height="16px" viewBox="0 0 16 16" version="1.1">
<g id="surface1">
<path style=" stroke:none;fill-rule:nonzero;fill:rgb(92.54902%,25.098039%,47.843137%);fill-opacity:1;" d="M 1.347656 0 L 14.652344 0 C 15.394531 0 16 0.605469 16 1.347656 L 16 14.652344 C 16 15.394531 15.394531 16 14.652344 16 L 1.347656 16 C 0.605469 16 0 15.394531 0 14.652344 L 0 1.347656 C 0 0.605469 0.605469 0 1.347656 0 Z M 1.347656 0 "/>
<path style=" stroke:none;fill-rule:nonzero;fill:rgb(100%,100%,100%);fill-opacity:1;" d="M 8.042969 3.011719 L 5.5625 4.339844 L 8.042969 5.667969 L 10.523438 4.339844 Z M 8.042969 3.011719 "/>
<path style=" stroke:none;fill-rule:nonzero;fill:rgb(79.607843%,79.607843%,79.607843%);fill-opacity:1;" d="M 8.042969 8.324219 L 5.5625 6.992188 L 5.5625 4.339844 L 8.042969 5.667969 Z M 8.042969 8.324219 "/>
<path style=" stroke:none;fill-rule:nonzero;fill:rgb(16.078431%,71.372549%,96.470588%);fill-opacity:1;" d="M 8.042969 5.667969 L 10.523438 4.339844 L 10.523438 6.992188 L 8.042969 8.324219 Z M 8.042969 5.667969 "/>
<path style=" stroke:none;fill-rule:nonzero;fill:rgb(100%,100%,100%);fill-opacity:1;" d="M 5.527344 7.675781 L 3.046875 9.007812 L 5.527344 10.335938 L 8.007812 9.007812 Z M 5.527344 7.675781 "/>
<path style=" stroke:none;fill-rule:nonzero;fill:rgb(79.607843%,79.607843%,79.607843%);fill-opacity:1;" d="M 5.527344 12.988281 L 3.046875 11.660156 L 3.046875 9.007812 L 5.527344 10.335938 Z M 5.527344 12.988281 "/>
<path style=" stroke:none;fill-rule:nonzero;fill:rgb(16.078431%,71.372549%,96.470588%);fill-opacity:1;" d="M 5.527344 10.335938 L 8.007812 9.007812 L 8.007812 11.660156 L 5.527344 12.988281 Z M 5.527344 10.335938 "/>
<path style=" stroke:none;fill-rule:nonzero;fill:rgb(100%,100%,100%);fill-opacity:1;" d="M 10.472656 7.675781 L 7.992188 9.007812 L 10.472656 10.335938 L 12.953125 9.007812 Z M 10.472656 7.675781 "/>
<path style=" stroke:none;fill-rule:nonzero;fill:rgb(79.607843%,79.607843%,79.607843%);fill-opacity:1;" d="M 10.472656 12.988281 L 7.992188 11.660156 L 7.992188 9.007812 L 10.472656 10.335938 Z M 10.472656 12.988281 "/>
<path style=" stroke:none;fill-rule:nonzero;fill:rgb(16.078431%,71.372549%,96.470588%);fill-opacity:1;" d="M 10.472656 10.335938 L 12.953125 9.007812 L 12.953125 11.660156 L 10.472656 12.988281 Z M 10.472656 10.335938 "/>
</g>
</svg>
