
<svg xmlns="http://www.w3.org/2000/svg" xmlns:xlink="http://www.w3.org/1999/xlink" width="16px" height="16px" viewBox="0 0 16 16" version="1.1">
<defs>
<clipPath id="clip1">
  <path d="M 1.167969 0 L 7.167969 0 L 7.167969 16 L 1.167969 16 Z M 1.167969 0 "/>
</clipPath>
<clipPath id="clip2">
  <path d="M 1.347656 0 L 14.652344 0 C 15.394531 0 16 0.605469 16 1.347656 L 16 14.652344 C 16 15.394531 15.394531 16 14.652344 16 L 1.347656 16 C 0.605469 16 0 15.394531 0 14.652344 L 0 1.347656 C 0 0.605469 0.605469 0 1.347656 0 Z M 1.347656 0 "/>
</clipPath>
<clipPath id="clip3">
  <path d="M 4.167969 0 L 11.832031 0 L 11.832031 16 L 4.167969 16 Z M 4.167969 0 "/>
</clipPath>
<clipPath id="clip4">
  <path d="M 1.347656 0 L 14.652344 0 C 15.394531 0 16 0.605469 16 1.347656 L 16 14.652344 C 16 15.394531 15.394531 16 14.652344 16 L 1.347656 16 C 0.605469 16 0 15.394531 0 14.652344 L 0 1.347656 C 0 0.605469 0.605469 0 1.347656 0 Z M 1.347656 0 "/>
</clipPath>
<clipPath id="clip5">
  <path d="M 8.832031 0 L 14.667969 0 L 14.667969 16 L 8.832031 16 Z M 8.832031 0 "/>
</clipPath>
<clipPath id="clip6">
  <path d="M 1.347656 0 L 14.652344 0 C 15.394531 0 16 0.605469 16 1.347656 L 16 14.652344 C 16 15.394531 15.394531 16 14.652344 16 L 1.347656 16 C 0.605469 16 0 15.394531 0 14.652344 L 0 1.347656 C 0 0.605469 0.605469 0 1.347656 0 Z M 1.347656 0 "/>
</clipPath>
<clipPath id="clip7">
  <path d="M 6.832031 1.332031 L 9.332031 1.332031 L 9.332031 16 L 6.832031 16 Z M 6.832031 1.332031 "/>
</clipPath>
<clipPath id="clip8">
  <path d="M 1.347656 0 L 14.652344 0 C 15.394531 0 16 0.605469 16 1.347656 L 16 14.652344 C 16 15.394531 15.394531 16 14.652344 16 L 1.347656 16 C 0.605469 16 0 15.394531 0 14.652344 L 0 1.347656 C 0 0.605469 0.605469 0 1.347656 0 Z M 1.347656 0 "/>
</clipPath>
<clipPath id="clip9">
  <path d="M 9.167969 1.167969 L 9.332031 1.167969 L 9.332031 1.5 L 9.167969 1.5 Z M 9.167969 1.167969 "/>
</clipPath>
<clipPath id="clip10">
  <path d="M 1.347656 0 L 14.652344 0 C 15.394531 0 16 0.605469 16 1.347656 L 16 14.652344 C 16 15.394531 15.394531 16 14.652344 16 L 1.347656 16 C 0.605469 16 0 15.394531 0 14.652344 L 0 1.347656 C 0 0.605469 0.605469 0 1.347656 0 Z M 1.347656 0 "/>
</clipPath>
<clipPath id="clip11">
  <path d="M 6.5 1 L 9.332031 1 L 9.332031 16 L 6.5 16 Z M 6.5 1 "/>
</clipPath>
<clipPath id="clip12">
  <path d="M 1.347656 0 L 14.652344 0 C 15.394531 0 16 0.605469 16 1.347656 L 16 14.652344 C 16 15.394531 15.394531 16 14.652344 16 L 1.347656 16 C 0.605469 16 0 15.394531 0 14.652344 L 0 1.347656 C 0 0.605469 0.605469 0 1.347656 0 Z M 1.347656 0 "/>
</clipPath>
<clipPath id="clip13">
  <path d="M 6.667969 1.167969 L 9.332031 1.167969 L 9.332031 16 L 6.667969 16 Z M 6.667969 1.167969 "/>
</clipPath>
<clipPath id="clip14">
  <path d="M 1.347656 0 L 14.652344 0 C 15.394531 0 16 0.605469 16 1.347656 L 16 14.652344 C 16 15.394531 15.394531 16 14.652344 16 L 1.347656 16 C 0.605469 16 0 15.394531 0 14.652344 L 0 1.347656 C 0 0.605469 0.605469 0 1.347656 0 Z M 1.347656 0 "/>
</clipPath>
<clipPath id="clip15">
  <path d="M 5.167969 0 L 10.832031 0 L 10.832031 2.832031 L 5.167969 2.832031 Z M 5.167969 0 "/>
</clipPath>
<clipPath id="clip16">
  <path d="M 1.347656 0 L 14.652344 0 C 15.394531 0 16 0.605469 16 1.347656 L 16 14.652344 C 16 15.394531 15.394531 16 14.652344 16 L 1.347656 16 C 0.605469 16 0 15.394531 0 14.652344 L 0 1.347656 C 0 0.605469 0.605469 0 1.347656 0 Z M 1.347656 0 "/>
</clipPath>
<clipPath id="clip17">
  <path d="M 7.5 5 L 8.332031 5 L 8.332031 5.832031 L 7.5 5.832031 Z M 7.5 5 "/>
</clipPath>
<clipPath id="clip18">
  <path d="M 1.347656 0 L 14.652344 0 C 15.394531 0 16 0.605469 16 1.347656 L 16 14.652344 C 16 15.394531 15.394531 16 14.652344 16 L 1.347656 16 C 0.605469 16 0 15.394531 0 14.652344 L 0 1.347656 C 0 0.605469 0.605469 0 1.347656 0 Z M 1.347656 0 "/>
</clipPath>
<linearGradient id="linear0" gradientUnits="userSpaceOnUse" x1="30.56" y1="21.72" x2="33.25" y2="21.72" gradientTransform="matrix(0.25,0,0,0.25,0,0)">
<stop offset="0" style="stop-color:rgb(25.490196%,74.117647%,83.137255%);stop-opacity:1;"/>
<stop offset="1" style="stop-color:rgb(50.980392%,32.54902%,83.921569%);stop-opacity:1;"/>
</linearGradient>
<clipPath id="clip19">
  <path d="M 7.5 10.332031 L 8.332031 10.332031 L 8.332031 11.167969 L 7.5 11.167969 Z M 7.5 10.332031 "/>
</clipPath>
<clipPath id="clip20">
  <path d="M 1.347656 0 L 14.652344 0 C 15.394531 0 16 0.605469 16 1.347656 L 16 14.652344 C 16 15.394531 15.394531 16 14.652344 16 L 1.347656 16 C 0.605469 16 0 15.394531 0 14.652344 L 0 1.347656 C 0 0.605469 0.605469 0 1.347656 0 Z M 1.347656 0 "/>
</clipPath>
<linearGradient id="linear1" gradientUnits="userSpaceOnUse" x1="30.56" y1="42.73" x2="33.25" y2="42.73" gradientTransform="matrix(0.25,0,0,0.25,0,0)">
<stop offset="0" style="stop-color:rgb(25.490196%,74.117647%,83.137255%);stop-opacity:1;"/>
<stop offset="1" style="stop-color:rgb(50.980392%,32.54902%,83.921569%);stop-opacity:1;"/>
</linearGradient>
</defs>
<g id="surface1">
<path style=" stroke:none;fill-rule:nonzero;fill:rgb(32.941176%,29.803922%,40.784314%);fill-opacity:1;" d="M 1.347656 0 L 14.652344 0 C 15.394531 0 16 0.605469 16 1.347656 L 16 14.652344 C 16 15.394531 15.394531 16 14.652344 16 L 1.347656 16 C 0.605469 16 0 15.394531 0 14.652344 L 0 1.347656 C 0 0.605469 0.605469 0 1.347656 0 Z M 1.347656 0 "/>
<g clip-path="url(#clip1)" clip-rule="nonzero">
<g clip-path="url(#clip2)" clip-rule="nonzero">
<path style=" stroke:none;fill-rule:nonzero;fill:rgb(79.607843%,79.607843%,79.607843%);fill-opacity:1;" d="M 4.152344 0 C 3.09375 0 2 -1.519531 1.269531 -0.863281 C 1.4375 2.21875 2.175781 11.410156 4.25 16 L 7.082031 16 C 4.707031 10.75 4.25 1.976562 4.175781 0 Z M 4.152344 0 "/>
</g>
</g>
<g clip-path="url(#clip3)" clip-rule="nonzero">
<g clip-path="url(#clip4)" clip-rule="nonzero">
<path style=" stroke:none;fill-rule:nonzero;fill:rgb(96.862745%,96.862745%,96.862745%);fill-opacity:1;" d="M 4.175781 0 C 4.25 1.976562 4.707031 10.75 7.082031 16 L 8.917969 16 C 11.292969 10.75 11.75 1.976562 11.824219 0 Z M 4.175781 0 "/>
</g>
</g>
<g clip-path="url(#clip5)" clip-rule="nonzero">
<g clip-path="url(#clip6)" clip-rule="nonzero">
<path style=" stroke:none;fill-rule:nonzero;fill:rgb(79.607843%,79.607843%,79.607843%);fill-opacity:1;" d="M 11.847656 0 L 11.824219 0 C 11.75 1.976562 11.292969 10.75 8.917969 16 L 11.75 16 C 13.824219 11.410156 14.5 3.023438 14.664062 -0.0585938 C 13.933594 -0.707031 12.90625 0 11.847656 0 Z M 11.847656 0 "/>
</g>
</g>
<g clip-path="url(#clip7)" clip-rule="nonzero">
<g clip-path="url(#clip8)" clip-rule="nonzero">
<path style=" stroke:none;fill-rule:nonzero;fill:rgb(94.509804%,94.509804%,94.509804%);fill-opacity:1;" d="M 7.175781 16 L 8.976562 16 L 9.320312 1.394531 L 6.835938 1.394531 Z M 7.175781 16 "/>
</g>
</g>
<g clip-path="url(#clip9)" clip-rule="nonzero">
<g clip-path="url(#clip10)" clip-rule="nonzero">
<path style=" stroke:none;fill-rule:nonzero;fill:rgb(89.803922%,89.803922%,89.803922%);fill-opacity:1;" d="M 9.324219 1.394531 L 9.324219 1.257812 L 9.320312 1.394531 Z M 9.324219 1.394531 "/>
</g>
</g>
<g clip-path="url(#clip11)" clip-rule="nonzero">
<g clip-path="url(#clip12)" clip-rule="nonzero">
<path style=" stroke:none;fill-rule:nonzero;fill:rgb(89.803922%,89.803922%,89.803922%);fill-opacity:1;" d="M 6.699219 1.257812 L 9.324219 1.257812 L 9.324219 1.121094 L 6.558594 1.121094 L 6.910156 16 L 7.042969 16 Z M 6.699219 1.257812 "/>
</g>
</g>
<g clip-path="url(#clip13)" clip-rule="nonzero">
<g clip-path="url(#clip14)" clip-rule="nonzero">
<path style=" stroke:none;fill-rule:nonzero;fill:rgb(89.803922%,89.803922%,89.803922%);fill-opacity:1;" d="M 7.042969 16 L 7.175781 16 L 6.835938 1.394531 L 9.320312 1.394531 L 9.324219 1.257812 L 6.699219 1.257812 Z M 7.042969 16 "/>
</g>
</g>
<g clip-path="url(#clip15)" clip-rule="nonzero">
<g clip-path="url(#clip16)" clip-rule="nonzero">
<path style=" stroke:none;fill-rule:nonzero;fill:rgb(92.54902%,25.098039%,47.843137%);fill-opacity:1;" d="M 10.792969 0.261719 C 10.792969 0.21875 10.769531 0.175781 10.730469 0.152344 C 10.691406 0.128906 10.644531 0.125 10.605469 0.148438 L 8.5625 0.648438 C 8.511719 0.488281 8.367188 0.382812 8.203125 0.378906 L 7.703125 0.378906 C 7.550781 0.382812 7.417969 0.46875 7.355469 0.605469 L 5.394531 0.148438 C 5.355469 0.125 5.308594 0.128906 5.269531 0.152344 C 5.230469 0.175781 5.207031 0.21875 5.207031 0.261719 L 5.207031 2.566406 C 5.207031 2.609375 5.230469 2.652344 5.269531 2.675781 C 5.308594 2.699219 5.355469 2.699219 5.394531 2.679688 L 7.429688 1.582031 C 7.5 1.660156 7.601562 1.707031 7.707031 1.707031 L 8.207031 1.707031 C 8.324219 1.699219 8.433594 1.644531 8.5 1.546875 L 10.597656 2.679688 C 10.636719 2.699219 10.6875 2.699219 10.722656 2.675781 C 10.761719 2.652344 10.785156 2.609375 10.789062 2.566406 Z M 10.792969 0.261719 "/>
</g>
</g>
<g clip-path="url(#clip17)" clip-rule="nonzero">
<g clip-path="url(#clip18)" clip-rule="nonzero">
<path style=" stroke:none;fill-rule:nonzero;fill:url(#linear0);" d="M 8.316406 5.429688 C 8.316406 5.617188 8.164062 5.769531 7.976562 5.769531 C 7.792969 5.769531 7.640625 5.617188 7.640625 5.429688 C 7.640625 5.242188 7.792969 5.09375 7.976562 5.09375 C 8.164062 5.09375 8.316406 5.242188 8.316406 5.429688 Z M 8.316406 5.429688 "/>
</g>
</g>
<g clip-path="url(#clip19)" clip-rule="nonzero">
<g clip-path="url(#clip20)" clip-rule="nonzero">
<path style=" stroke:none;fill-rule:nonzero;fill:url(#linear1);" d="M 8.316406 10.683594 C 8.316406 10.871094 8.164062 11.019531 7.976562 11.019531 C 7.792969 11.019531 7.640625 10.871094 7.640625 10.683594 C 7.640625 10.496094 7.792969 10.34375 7.976562 10.34375 C 8.164062 10.34375 8.316406 10.496094 8.316406 10.683594 Z M 8.316406 10.683594 "/>
</g>
</g>
</g>
</svg>
