
<svg xmlns="http://www.w3.org/2000/svg" xmlns:xlink="http://www.w3.org/1999/xlink" width="16px" height="16px" viewBox="0 0 16 16" version="1.1">
<g id="surface1">
<path style=" stroke:none;fill-rule:nonzero;fill:rgb(36.078431%,41.960784%,75.294118%);fill-opacity:1;" d="M 1.347656 0 L 14.652344 0 C 15.398438 0 16 0.601562 16 1.347656 L 16 14.652344 C 16 15.398438 15.398438 16 14.652344 16 L 1.347656 16 C 0.601562 16 0 15.398438 0 14.652344 L 0 1.347656 C 0 0.601562 0.601562 0 1.347656 0 Z M 1.347656 0 "/>
<path style=" stroke:none;fill-rule:nonzero;fill:rgb(16.078431%,71.372549%,96.470588%);fill-opacity:1;" d="M 10.921875 12 L 10.921875 8.207031 C 10.921875 7.929688 10.695312 7.707031 10.421875 7.707031 L 5.589844 7.707031 C 5.457031 7.703125 5.324219 7.753906 5.226562 7.847656 C 5.132812 7.945312 5.078125 8.074219 5.078125 8.207031 L 5.078125 12 Z M 10.921875 12 "/>
<path style=" stroke:none;fill-rule:nonzero;fill:rgb(100%,100%,100%);fill-opacity:1;" d="M 12.160156 5 L 11 3.839844 C 10.894531 3.734375 10.75 3.675781 10.601562 3.675781 L 4.703125 3.675781 C 4.136719 3.675781 3.675781 4.136719 3.675781 4.703125 L 3.675781 11.296875 C 3.675781 11.863281 4.136719 12.324219 4.703125 12.324219 L 11.296875 12.324219 C 11.863281 12.324219 12.324219 11.863281 12.324219 11.296875 L 12.324219 5.40625 C 12.328125 5.253906 12.265625 5.109375 12.160156 5 Z M 9.855469 4.859375 L 9.855469 5.664062 C 9.855469 5.816406 9.730469 5.941406 9.574219 5.941406 C 9.421875 5.941406 9.296875 5.816406 9.296875 5.664062 L 9.296875 4.863281 C 9.296875 4.710938 9.421875 4.585938 9.574219 4.585938 C 9.730469 4.585938 9.855469 4.710938 9.855469 4.863281 Z M 5.078125 11.859375 L 4.703125 11.859375 C 4.386719 11.859375 4.128906 11.601562 4.128906 11.28125 L 4.128906 4.703125 C 4.128906 4.386719 4.386719 4.128906 4.703125 4.128906 L 5.574219 4.128906 L 5.574219 6 C 5.574219 6.136719 5.625 6.265625 5.722656 6.359375 C 5.820312 6.453125 5.949219 6.503906 6.085938 6.5 L 9.914062 6.5 C 10.191406 6.5 10.421875 6.277344 10.425781 6 L 10.425781 4.128906 L 10.59375 4.128906 C 10.621094 4.132812 10.648438 4.144531 10.671875 4.164062 L 11.835938 5.328125 C 11.859375 5.351562 11.871094 5.378906 11.871094 5.40625 L 11.871094 11.296875 C 11.871094 11.613281 11.613281 11.871094 11.296875 11.871094 L 5.078125 11.871094 Z M 5.078125 11.859375 "/>
<path style=" stroke:none;fill-rule:nonzero;fill:rgb(100%,100%,100%);fill-opacity:1;" d="M 6.109375 8.683594 L 9.886719 8.683594 L 9.886719 8.972656 L 6.109375 8.972656 Z M 6.109375 8.683594 "/>
<path style=" stroke:none;fill-rule:nonzero;fill:rgb(100%,100%,100%);fill-opacity:1;" d="M 6.109375 9.789062 L 9.886719 9.789062 L 9.886719 10.078125 L 6.109375 10.078125 Z M 6.109375 9.789062 "/>
<path style=" stroke:none;fill-rule:nonzero;fill:rgb(100%,100%,100%);fill-opacity:1;" d="M 6.109375 10.898438 L 9.886719 10.898438 L 9.886719 11.1875 L 6.109375 11.1875 Z M 6.109375 10.898438 "/>
</g>
</svg>
