
<svg xmlns="http://www.w3.org/2000/svg" xmlns:xlink="http://www.w3.org/1999/xlink" width="16px" height="16px" viewBox="0 0 16 16" version="1.1">
<g id="surface1">
<path style=" stroke:none;fill-rule:nonzero;fill:rgb(100%,100%,100%);fill-opacity:1;" d="M 12.945312 16 L 3.054688 16 C 1.367188 16 0 14.632812 0 12.945312 L 0 3.054688 C 0 1.367188 1.367188 0 3.054688 0 L 12.945312 0 C 14.632812 0 16 1.367188 16 3.054688 L 16 12.945312 C 16 14.632812 14.632812 16 12.945312 16 Z M 3.054688 1.75 C 2.335938 1.753906 1.753906 2.335938 1.75 3.054688 L 1.75 12.945312 C 1.753906 13.664062 2.335938 14.246094 3.054688 14.25 L 12.945312 14.25 C 13.664062 14.246094 14.246094 13.664062 14.25 12.945312 L 14.25 3.054688 C 14.246094 2.335938 13.664062 1.753906 12.945312 1.75 Z M 3.054688 1.75 "/>
<path style=" stroke:none;fill-rule:nonzero;fill:rgb(100%,100%,100%);fill-opacity:1;" d="M 3.398438 7.1875 L 2.628906 6.128906 L 4.511719 4.75 L 2.628906 3.382812 L 3.398438 2.335938 L 6 4.230469 C 6.167969 4.355469 6.265625 4.550781 6.265625 4.761719 C 6.265625 4.96875 6.167969 5.164062 6 5.289062 Z M 3.398438 7.1875 "/>
<path style=" stroke:none;fill-rule:nonzero;fill:rgb(100%,100%,100%);fill-opacity:1;" d="M 5.859375 5.859375 L 9.546875 5.859375 L 9.546875 7.171875 L 5.859375 7.171875 Z M 5.859375 5.859375 "/>
</g>
</svg>
