
<svg xmlns="http://www.w3.org/2000/svg" xmlns:xlink="http://www.w3.org/1999/xlink" width="48px" height="48px" viewBox="0 0 48 48" version="1.1">
<defs>
<linearGradient id="linear0" gradientUnits="userSpaceOnUse" x1="32.07" y1="43.53" x2="33.1" y2="13.73" gradientTransform="matrix(0.75,0,0,0.75,0,0)">
<stop offset="0" style="stop-color:rgb(83.137255%,83.137255%,83.137255%);stop-opacity:1;"/>
<stop offset="0.55" style="stop-color:rgb(83.921569%,83.921569%,83.921569%);stop-opacity:1;"/>
<stop offset="0.78" style="stop-color:rgb(86.666667%,86.666667%,86.666667%);stop-opacity:1;"/>
<stop offset="0.96" style="stop-color:rgb(91.764706%,91.764706%,91.764706%);stop-opacity:1;"/>
<stop offset="1" style="stop-color:rgb(93.333333%,93.333333%,93.333333%);stop-opacity:1;"/>
</linearGradient>
<linearGradient id="linear1" gradientUnits="userSpaceOnUse" x1="0.79" y1="47.36" x2="63.23" y2="47.36" gradientTransform="matrix(0.75,0,0,0.75,0,0)">
<stop offset="0" style="stop-color:rgb(16.078431%,71.372549%,96.470588%);stop-opacity:1;"/>
<stop offset="1" style="stop-color:rgb(49.411765%,34.117647%,76.862745%);stop-opacity:1;"/>
</linearGradient>
</defs>
<g id="surface1">
<path style=" stroke:none;fill-rule:nonzero;fill:url(#linear0);" d="M 47.929688 31.078125 L 47.929688 30.925781 C 47.894531 30.738281 47.835938 30.5625 47.777344 30.386719 L 41.671875 8.425781 L 41.671875 8.847656 C 41.648438 7.230469 40.335938 5.917969 38.71875 5.894531 L 9.234375 5.894531 C 7.886719 5.894531 6.703125 6.820312 6.375 8.144531 L 0.222656 30.386719 C 0.164062 30.5625 0.117188 30.738281 0.0703125 30.925781 L 0.0351562 31.078125 C 0 31.265625 0 31.453125 0 31.652344 L 0 36.808594 C 0 39.011719 1.792969 40.804688 3.996094 40.816406 L 43.992188 40.816406 C 46.195312 40.816406 48 39.023438 48 36.808594 L 48 31.652344 C 47.988281 31.453125 47.964844 31.265625 47.929688 31.078125 Z M 47.929688 31.078125 "/>
<path style=" stroke:none;fill-rule:nonzero;fill:url(#linear1);" d="M 4.007812 29.53125 L 44.003906 29.53125 C 45.890625 29.53125 47.425781 31.054688 47.425781 32.953125 L 47.425781 38.109375 C 47.425781 39.996094 45.890625 41.53125 44.003906 41.53125 L 4.007812 41.53125 C 2.121094 41.53125 0.597656 39.996094 0.597656 38.109375 L 0.597656 32.953125 C 0.597656 31.054688 2.121094 29.53125 4.007812 29.53125 Z M 4.007812 29.53125 "/>
<path style=" stroke:none;fill-rule:nonzero;fill:rgb(94.901961%,94.901961%,94.901961%);fill-opacity:1;" d="M 44.003906 30.105469 C 45.5625 30.105469 46.828125 31.371094 46.839844 32.941406 L 46.839844 38.097656 C 46.839844 39.667969 45.574219 40.933594 44.003906 40.945312 L 4.007812 40.945312 C 2.4375 40.945312 1.171875 39.667969 1.171875 38.097656 L 1.171875 32.941406 C 1.171875 31.371094 2.449219 30.105469 4.007812 30.105469 L 44.003906 30.105469 M 44.003906 28.945312 L 4.007812 28.945312 C 1.804688 28.945312 0.0117188 30.726562 0 32.941406 L 0 38.097656 C 0 40.3125 1.792969 42.105469 4.007812 42.105469 L 44.003906 42.105469 C 46.207031 42.09375 48 40.3125 48 38.097656 L 48 32.941406 C 47.988281 30.738281 46.207031 28.945312 44.003906 28.945312 Z M 44.003906 28.945312 "/>
<path style=" stroke:none;fill-rule:nonzero;fill:rgb(100%,100%,100%);fill-opacity:1;" d="M 43.546875 35.71875 C 43.546875 36.5625 42.855469 37.265625 42 37.265625 C 41.144531 37.265625 40.453125 36.5625 40.453125 35.71875 C 40.453125 34.863281 41.144531 34.171875 42 34.171875 C 42.855469 34.171875 43.546875 34.863281 43.546875 35.71875 Z M 43.546875 35.71875 "/>
</g>
</svg>
