
<svg xmlns="http://www.w3.org/2000/svg" xmlns:xlink="http://www.w3.org/1999/xlink" width="48px" height="48px" viewBox="0 0 48 48" version="1.1">
<defs>
<linearGradient id="linear0" gradientUnits="userSpaceOnUse" x1="32.9" y1="55.46" x2="32.9" y2="57.44" gradientTransform="matrix(0.75,0,0,0.75,0,0)">
<stop offset="0" style="stop-color:rgb(80.392157%,81.568627%,83.921569%);stop-opacity:1;"/>
<stop offset="0.56" style="stop-color:rgb(81.176471%,82.352941%,84.313725%);stop-opacity:1;"/>
<stop offset="0.79" style="stop-color:rgb(83.921569%,84.705882%,86.27451%);stop-opacity:1;"/>
<stop offset="0.97" style="stop-color:rgb(89.019608%,89.019608%,89.411765%);stop-opacity:1;"/>
<stop offset="1" style="stop-color:rgb(90.196078%,90.196078%,90.196078%);stop-opacity:1;"/>
</linearGradient>
<linearGradient id="linear1" gradientUnits="userSpaceOnUse" x1="10.4" y1="2.59" x2="55.09" y2="50.6" gradientTransform="matrix(0.75,0,0,0.75,0,0)">
<stop offset="0" style="stop-color:rgb(16.078431%,71.372549%,96.470588%);stop-opacity:1;"/>
<stop offset="0.67" style="stop-color:rgb(39.607843%,45.098039%,82.745098%);stop-opacity:1;"/>
<stop offset="1" style="stop-color:rgb(49.411765%,34.117647%,76.862745%);stop-opacity:1;"/>
</linearGradient>
</defs>
<g id="surface1">
<path style=" stroke:none;fill-rule:nonzero;fill:url(#linear0);" d="M 34.933594 42.832031 L 33.152344 42.832031 C 32.414062 42.832031 31.804688 42.234375 31.804688 41.484375 L 31.804688 35.25 L 17.554688 35.25 L 17.554688 41.472656 C 17.554688 42.222656 16.945312 42.820312 16.195312 42.820312 L 14.414062 42.820312 C 13.675781 42.820312 13.078125 43.417969 13.078125 44.15625 C 13.078125 44.894531 13.675781 45.492188 14.414062 45.492188 L 34.933594 45.492188 C 35.671875 45.492188 36.269531 44.894531 36.269531 44.15625 C 36.269531 43.429688 35.671875 42.832031 34.933594 42.832031 Z M 34.933594 42.832031 "/>
<path style=" stroke:none;fill-rule:nonzero;fill:url(#linear1);" d="M 2.964844 3.09375 L 45.035156 3.09375 C 46.335938 3.09375 47.390625 4.160156 47.390625 5.460938 L 47.390625 33.234375 C 47.390625 34.535156 46.335938 35.589844 45.035156 35.589844 L 2.964844 35.589844 C 1.664062 35.589844 0.609375 34.535156 0.609375 33.234375 L 0.609375 5.460938 C 0.609375 4.160156 1.664062 3.09375 2.964844 3.09375 Z M 2.964844 3.09375 "/>
<path style=" stroke:none;fill-rule:nonzero;fill:rgb(90.196078%,90.196078%,90.196078%);fill-opacity:1;" d="M 45.035156 3.703125 C 45.503906 3.703125 45.949219 3.890625 46.277344 4.21875 C 46.605469 4.546875 46.78125 4.992188 46.78125 5.460938 L 46.78125 33.210938 C 46.78125 33.679688 46.605469 34.125 46.277344 34.453125 C 45.949219 34.78125 45.503906 34.96875 45.035156 34.96875 L 3 34.96875 C 2.53125 34.96875 2.085938 34.78125 1.757812 34.453125 C 1.429688 34.125 1.242188 33.679688 1.242188 33.210938 L 1.242188 5.460938 C 1.242188 4.488281 2.027344 3.703125 3 3.703125 L 45.035156 3.703125 M 45.035156 2.496094 L 3 2.496094 C 1.347656 2.496094 0 3.84375 0 5.496094 L 0 33.246094 C 0 34.910156 1.347656 36.246094 3 36.246094 L 45.035156 36.246094 C 46.699219 36.246094 48.035156 34.910156 48.035156 33.246094 L 48.035156 5.496094 C 48.011719 3.855469 46.675781 2.53125 45.035156 2.53125 Z M 45.035156 2.496094 "/>
<path style=" stroke:none;fill-rule:nonzero;fill:rgb(90.196078%,90.196078%,90.196078%);fill-opacity:1;" d="M 45.257812 35.4375 L 2.660156 35.4375 C 2.121094 35.4375 1.605469 35.226562 1.230469 34.839844 C 0.84375 34.464844 0.632812 33.949219 0.632812 33.410156 L 0.632812 31.382812 L 47.285156 31.382812 L 47.285156 33.410156 C 47.285156 34.535156 46.382812 35.4375 45.257812 35.4375 Z M 45.257812 35.4375 "/>
</g>
</svg>
