
<svg xmlns="http://www.w3.org/2000/svg" xmlns:xlink="http://www.w3.org/1999/xlink" width="32px" height="32px" viewBox="0 0 32 32" version="1.1">
<defs>
<linearGradient id="linear0" gradientUnits="userSpaceOnUse" x1="32.07" y1="43.53" x2="33.1" y2="13.73" gradientTransform="matrix(0.5,0,0,0.5,0,0)">
<stop offset="0" style="stop-color:rgb(83.137255%,83.137255%,83.137255%);stop-opacity:1;"/>
<stop offset="0.55" style="stop-color:rgb(83.921569%,83.921569%,83.921569%);stop-opacity:1;"/>
<stop offset="0.78" style="stop-color:rgb(86.666667%,86.666667%,86.666667%);stop-opacity:1;"/>
<stop offset="0.96" style="stop-color:rgb(91.764706%,91.764706%,91.764706%);stop-opacity:1;"/>
<stop offset="1" style="stop-color:rgb(93.333333%,93.333333%,93.333333%);stop-opacity:1;"/>
</linearGradient>
<linearGradient id="linear1" gradientUnits="userSpaceOnUse" x1="0.79" y1="47.36" x2="63.23" y2="47.36" gradientTransform="matrix(0.5,0,0,0.5,0,0)">
<stop offset="0" style="stop-color:rgb(16.078431%,71.372549%,96.470588%);stop-opacity:1;"/>
<stop offset="1" style="stop-color:rgb(49.411765%,34.117647%,76.862745%);stop-opacity:1;"/>
</linearGradient>
</defs>
<g id="surface1">
<path style=" stroke:none;fill-rule:nonzero;fill:url(#linear0);" d="M 31.953125 20.71875 L 31.953125 20.617188 C 31.929688 20.492188 31.890625 20.375 31.851562 20.257812 L 27.78125 5.617188 L 27.78125 5.898438 C 27.765625 4.820312 26.890625 3.945312 25.8125 3.929688 L 6.15625 3.929688 C 5.257812 3.929688 4.46875 4.546875 4.25 5.429688 L 0.148438 20.257812 C 0.109375 20.375 0.078125 20.492188 0.046875 20.617188 L 0.0234375 20.71875 C 0 20.84375 0 20.96875 0 21.101562 L 0 24.539062 C 0 26.007812 1.195312 27.203125 2.664062 27.210938 L 29.328125 27.210938 C 30.796875 27.210938 32 26.015625 32 24.539062 L 32 21.101562 C 31.992188 20.96875 31.976562 20.84375 31.953125 20.71875 Z M 31.953125 20.71875 "/>
<path style=" stroke:none;fill-rule:nonzero;fill:url(#linear1);" d="M 2.671875 19.6875 L 29.335938 19.6875 C 30.59375 19.6875 31.617188 20.703125 31.617188 21.96875 L 31.617188 25.40625 C 31.617188 26.664062 30.59375 27.6875 29.335938 27.6875 L 2.671875 27.6875 C 1.414062 27.6875 0.398438 26.664062 0.398438 25.40625 L 0.398438 21.96875 C 0.398438 20.703125 1.414062 19.6875 2.671875 19.6875 Z M 2.671875 19.6875 "/>
<path style=" stroke:none;fill-rule:nonzero;fill:rgb(94.901961%,94.901961%,94.901961%);fill-opacity:1;" d="M 29.335938 20.070312 C 30.375 20.070312 31.21875 20.914062 31.226562 21.960938 L 31.226562 25.398438 C 31.226562 26.445312 30.382812 27.289062 29.335938 27.296875 L 2.671875 27.296875 C 1.625 27.296875 0.78125 26.445312 0.78125 25.398438 L 0.78125 21.960938 C 0.78125 20.914062 1.632812 20.070312 2.671875 20.070312 L 29.335938 20.070312 M 29.335938 19.296875 L 2.671875 19.296875 C 1.203125 19.296875 0.0078125 20.484375 0 21.960938 L 0 25.398438 C 0 26.875 1.195312 28.070312 2.671875 28.070312 L 29.335938 28.070312 C 30.804688 28.0625 32 26.875 32 25.398438 L 32 21.960938 C 31.992188 20.492188 30.804688 19.296875 29.335938 19.296875 Z M 29.335938 19.296875 "/>
<path style=" stroke:none;fill-rule:nonzero;fill:rgb(100%,100%,100%);fill-opacity:1;" d="M 29.03125 23.8125 C 29.03125 24.375 28.570312 24.84375 28 24.84375 C 27.429688 24.84375 26.96875 24.375 26.96875 23.8125 C 26.96875 23.242188 27.429688 22.78125 28 22.78125 C 28.570312 22.78125 29.03125 23.242188 29.03125 23.8125 Z M 29.03125 23.8125 "/>
</g>
</svg>
