
<svg xmlns="http://www.w3.org/2000/svg" xmlns:xlink="http://www.w3.org/1999/xlink" width="32px" height="32px" viewBox="0 0 32 32" version="1.1">
<defs>
<linearGradient id="linear0" gradientUnits="userSpaceOnUse" x1="32.9" y1="55.46" x2="32.9" y2="57.44" gradientTransform="matrix(0.5,0,0,0.5,0,0)">
<stop offset="0" style="stop-color:rgb(80.392157%,81.568627%,83.921569%);stop-opacity:1;"/>
<stop offset="0.56" style="stop-color:rgb(81.176471%,82.352941%,84.313725%);stop-opacity:1;"/>
<stop offset="0.79" style="stop-color:rgb(83.921569%,84.705882%,86.27451%);stop-opacity:1;"/>
<stop offset="0.97" style="stop-color:rgb(89.019608%,89.019608%,89.411765%);stop-opacity:1;"/>
<stop offset="1" style="stop-color:rgb(90.196078%,90.196078%,90.196078%);stop-opacity:1;"/>
</linearGradient>
<linearGradient id="linear1" gradientUnits="userSpaceOnUse" x1="10.4" y1="2.59" x2="55.09" y2="50.6" gradientTransform="matrix(0.5,0,0,0.5,0,0)">
<stop offset="0" style="stop-color:rgb(16.078431%,71.372549%,96.470588%);stop-opacity:1;"/>
<stop offset="0.67" style="stop-color:rgb(39.607843%,45.098039%,82.745098%);stop-opacity:1;"/>
<stop offset="1" style="stop-color:rgb(49.411765%,34.117647%,76.862745%);stop-opacity:1;"/>
</linearGradient>
</defs>
<g id="surface1">
<path style=" stroke:none;fill-rule:nonzero;fill:url(#linear0);" d="M 23.289062 28.554688 L 22.101562 28.554688 C 21.609375 28.554688 21.203125 28.15625 21.203125 27.65625 L 21.203125 23.5 L 11.703125 23.5 L 11.703125 27.648438 C 11.703125 28.148438 11.296875 28.546875 10.796875 28.546875 L 9.609375 28.546875 C 9.117188 28.546875 8.71875 28.945312 8.71875 29.4375 C 8.71875 29.929688 9.117188 30.328125 9.609375 30.328125 L 23.289062 30.328125 C 23.78125 30.328125 24.179688 29.929688 24.179688 29.4375 C 24.179688 28.953125 23.78125 28.554688 23.289062 28.554688 Z M 23.289062 28.554688 "/>
<path style=" stroke:none;fill-rule:nonzero;fill:url(#linear1);" d="M 1.976562 2.0625 L 30.023438 2.0625 C 30.890625 2.0625 31.59375 2.773438 31.59375 3.640625 L 31.59375 22.15625 C 31.59375 23.023438 30.890625 23.726562 30.023438 23.726562 L 1.976562 23.726562 C 1.109375 23.726562 0.40625 23.023438 0.40625 22.15625 L 0.40625 3.640625 C 0.40625 2.773438 1.109375 2.0625 1.976562 2.0625 Z M 1.976562 2.0625 "/>
<path style=" stroke:none;fill-rule:nonzero;fill:rgb(90.196078%,90.196078%,90.196078%);fill-opacity:1;" d="M 30.023438 2.46875 C 30.335938 2.46875 30.632812 2.59375 30.851562 2.8125 C 31.070312 3.03125 31.1875 3.328125 31.1875 3.640625 L 31.1875 22.140625 C 31.1875 22.453125 31.070312 22.75 30.851562 22.96875 C 30.632812 23.1875 30.335938 23.3125 30.023438 23.3125 L 2 23.3125 C 1.6875 23.3125 1.390625 23.1875 1.171875 22.96875 C 0.953125 22.75 0.828125 22.453125 0.828125 22.140625 L 0.828125 3.640625 C 0.828125 2.992188 1.351562 2.46875 2 2.46875 L 30.023438 2.46875 M 30.023438 1.664062 L 2 1.664062 C 0.898438 1.664062 0 2.5625 0 3.664062 L 0 22.164062 C 0 23.273438 0.898438 24.164062 2 24.164062 L 30.023438 24.164062 C 31.132812 24.164062 32.023438 23.273438 32.023438 22.164062 L 32.023438 3.664062 C 32.007812 2.570312 31.117188 1.6875 30.023438 1.6875 Z M 30.023438 1.664062 "/>
<path style=" stroke:none;fill-rule:nonzero;fill:rgb(90.196078%,90.196078%,90.196078%);fill-opacity:1;" d="M 30.171875 23.625 L 1.773438 23.625 C 1.414062 23.625 1.070312 23.484375 0.820312 23.226562 C 0.5625 22.976562 0.421875 22.632812 0.421875 22.273438 L 0.421875 20.921875 L 31.523438 20.921875 L 31.523438 22.273438 C 31.523438 23.023438 30.921875 23.625 30.171875 23.625 Z M 30.171875 23.625 "/>
</g>
</svg>
