
<svg xmlns="http://www.w3.org/2000/svg" xmlns:xlink="http://www.w3.org/1999/xlink" width="32px" height="32px" viewBox="0 0 32 32" version="1.1">
<defs>
<clipPath id="clip1">
  <path d="M 6.667969 0 L 15 0 L 15 5.667969 L 6.667969 5.667969 Z M 6.667969 0 "/>
</clipPath>
<clipPath id="clip2">
  <path d="M 2.695312 0 L 29.304688 0 C 30.792969 0 32 1.207031 32 2.695312 L 32 29.304688 C 32 30.792969 30.792969 32 29.304688 32 L 2.695312 32 C 1.207031 32 0 30.792969 0 29.304688 L 0 2.695312 C 0 1.207031 1.207031 0 2.695312 0 Z M 2.695312 0 "/>
</clipPath>
<clipPath id="clip3">
  <path d="M 0 0 L 0.667969 0 L 0.667969 4 L 0 4 Z M 0 0 "/>
</clipPath>
<clipPath id="clip4">
  <path d="M 2.695312 0 L 29.304688 0 C 30.792969 0 32 1.207031 32 2.695312 L 32 29.304688 C 32 30.792969 30.792969 32 29.304688 32 L 2.695312 32 C 1.207031 32 0 30.792969 0 29.304688 L 0 2.695312 C 0 1.207031 1.207031 0 2.695312 0 Z M 2.695312 0 "/>
</clipPath>
<clipPath id="clip5">
  <path d="M 0 0 L 8 0 L 8 4.667969 L 0 4.667969 Z M 0 0 "/>
</clipPath>
<clipPath id="clip6">
  <path d="M 2.695312 0 L 29.304688 0 C 30.792969 0 32 1.207031 32 2.695312 L 32 29.304688 C 32 30.792969 30.792969 32 29.304688 32 L 2.695312 32 C 1.207031 32 0 30.792969 0 29.304688 L 0 2.695312 C 0 1.207031 1.207031 0 2.695312 0 Z M 2.695312 0 "/>
</clipPath>
<clipPath id="clip7">
  <path d="M 17.332031 27.667969 L 25.667969 27.667969 L 25.667969 32 L 17.332031 32 Z M 17.332031 27.667969 "/>
</clipPath>
<clipPath id="clip8">
  <path d="M 2.695312 0 L 29.304688 0 C 30.792969 0 32 1.207031 32 2.695312 L 32 29.304688 C 32 30.792969 30.792969 32 29.304688 32 L 2.695312 32 C 1.207031 32 0 30.792969 0 29.304688 L 0 2.695312 C 0 1.207031 1.207031 0 2.695312 0 Z M 2.695312 0 "/>
</clipPath>
<clipPath id="clip9">
  <path d="M 24.667969 28 L 32 28 L 32 32 L 24.667969 32 Z M 24.667969 28 "/>
</clipPath>
<clipPath id="clip10">
  <path d="M 2.695312 0 L 29.304688 0 C 30.792969 0 32 1.207031 32 2.695312 L 32 29.304688 C 32 30.792969 30.792969 32 29.304688 32 L 2.695312 32 C 1.207031 32 0 30.792969 0 29.304688 L 0 2.695312 C 0 1.207031 1.207031 0 2.695312 0 Z M 2.695312 0 "/>
</clipPath>
<clipPath id="clip11">
  <path d="M 25.332031 21 L 32 21 L 32 29.332031 L 25.332031 29.332031 Z M 25.332031 21 "/>
</clipPath>
<clipPath id="clip12">
  <path d="M 2.695312 0 L 29.304688 0 C 30.792969 0 32 1.207031 32 2.695312 L 32 29.304688 C 32 30.792969 30.792969 32 29.304688 32 L 2.695312 32 C 1.207031 32 0 30.792969 0 29.304688 L 0 2.695312 C 0 1.207031 1.207031 0 2.695312 0 Z M 2.695312 0 "/>
</clipPath>
<clipPath id="clip13">
  <path d="M 3.332031 25.667969 L 11.667969 25.667969 L 11.667969 32 L 3.332031 32 Z M 3.332031 25.667969 "/>
</clipPath>
<clipPath id="clip14">
  <path d="M 2.695312 0 L 29.304688 0 C 30.792969 0 32 1.207031 32 2.695312 L 32 29.304688 C 32 30.792969 30.792969 32 29.304688 32 L 2.695312 32 C 1.207031 32 0 30.792969 0 29.304688 L 0 2.695312 C 0 1.207031 1.207031 0 2.695312 0 Z M 2.695312 0 "/>
</clipPath>
<clipPath id="clip15">
  <path d="M 10.332031 26.667969 L 18.667969 26.667969 L 18.667969 32 L 10.332031 32 Z M 10.332031 26.667969 "/>
</clipPath>
<clipPath id="clip16">
  <path d="M 2.695312 0 L 29.304688 0 C 30.792969 0 32 1.207031 32 2.695312 L 32 29.304688 C 32 30.792969 30.792969 32 29.304688 32 L 2.695312 32 C 1.207031 32 0 30.792969 0 29.304688 L 0 2.695312 C 0 1.207031 1.207031 0 2.695312 0 Z M 2.695312 0 "/>
</clipPath>
<clipPath id="clip17">
  <path d="M 0 25 L 4.667969 25 L 4.667969 32 L 0 32 Z M 0 25 "/>
</clipPath>
<clipPath id="clip18">
  <path d="M 2.695312 0 L 29.304688 0 C 30.792969 0 32 1.207031 32 2.695312 L 32 29.304688 C 32 30.792969 30.792969 32 29.304688 32 L 2.695312 32 C 1.207031 32 0 30.792969 0 29.304688 L 0 2.695312 C 0 1.207031 1.207031 0 2.695312 0 Z M 2.695312 0 "/>
</clipPath>
<clipPath id="clip19">
  <path d="M 13.667969 0 L 22 0 L 22 6.332031 L 13.667969 6.332031 Z M 13.667969 0 "/>
</clipPath>
<clipPath id="clip20">
  <path d="M 2.695312 0 L 29.304688 0 C 30.792969 0 32 1.207031 32 2.695312 L 32 29.304688 C 32 30.792969 30.792969 32 29.304688 32 L 2.695312 32 C 1.207031 32 0 30.792969 0 29.304688 L 0 2.695312 C 0 1.207031 1.207031 0 2.695312 0 Z M 2.695312 0 "/>
</clipPath>
<clipPath id="clip21">
  <path d="M 6 4.332031 L 14 4.332031 L 14 12.667969 L 6 12.667969 Z M 6 4.332031 "/>
</clipPath>
<clipPath id="clip22">
  <path d="M 2.695312 0 L 29.304688 0 C 30.792969 0 32 1.207031 32 2.695312 L 32 29.304688 C 32 30.792969 30.792969 32 29.304688 32 L 2.695312 32 C 1.207031 32 0 30.792969 0 29.304688 L 0 2.695312 C 0 1.207031 1.207031 0 2.695312 0 Z M 2.695312 0 "/>
</clipPath>
<clipPath id="clip23">
  <path d="M 13 5.332031 L 21.332031 5.332031 L 21.332031 13.667969 L 13 13.667969 Z M 13 5.332031 "/>
</clipPath>
<clipPath id="clip24">
  <path d="M 2.695312 0 L 29.304688 0 C 30.792969 0 32 1.207031 32 2.695312 L 32 29.304688 C 32 30.792969 30.792969 32 29.304688 32 L 2.695312 32 C 1.207031 32 0 30.792969 0 29.304688 L 0 2.695312 C 0 1.207031 1.207031 0 2.695312 0 Z M 2.695312 0 "/>
</clipPath>
<clipPath id="clip25">
  <path d="M 0 10.667969 L 6.332031 10.667969 L 6.332031 19 L 0 19 Z M 0 10.667969 "/>
</clipPath>
<clipPath id="clip26">
  <path d="M 2.695312 0 L 29.304688 0 C 30.792969 0 32 1.207031 32 2.695312 L 32 29.304688 C 32 30.792969 30.792969 32 29.304688 32 L 2.695312 32 C 1.207031 32 0 30.792969 0 29.304688 L 0 2.695312 C 0 1.207031 1.207031 0 2.695312 0 Z M 2.695312 0 "/>
</clipPath>
<clipPath id="clip27">
  <path d="M 26.332031 14 L 32 14 L 32 22.332031 L 26.332031 22.332031 Z M 26.332031 14 "/>
</clipPath>
<clipPath id="clip28">
  <path d="M 2.695312 0 L 29.304688 0 C 30.792969 0 32 1.207031 32 2.695312 L 32 29.304688 C 32 30.792969 30.792969 32 29.304688 32 L 2.695312 32 C 1.207031 32 0 30.792969 0 29.304688 L 0 2.695312 C 0 1.207031 1.207031 0 2.695312 0 Z M 2.695312 0 "/>
</clipPath>
<clipPath id="clip29">
  <path d="M 5 11.667969 L 13.332031 11.667969 L 13.332031 19.667969 L 5 19.667969 Z M 5 11.667969 "/>
</clipPath>
<clipPath id="clip30">
  <path d="M 2.695312 0 L 29.304688 0 C 30.792969 0 32 1.207031 32 2.695312 L 32 29.304688 C 32 30.792969 30.792969 32 29.304688 32 L 2.695312 32 C 1.207031 32 0 30.792969 0 29.304688 L 0 2.695312 C 0 1.207031 1.207031 0 2.695312 0 Z M 2.695312 0 "/>
</clipPath>
<clipPath id="clip31">
  <path d="M 12 12.332031 L 20.332031 12.332031 L 20.332031 20.667969 L 12 20.667969 Z M 12 12.332031 "/>
</clipPath>
<clipPath id="clip32">
  <path d="M 2.695312 0 L 29.304688 0 C 30.792969 0 32 1.207031 32 2.695312 L 32 29.304688 C 32 30.792969 30.792969 32 29.304688 32 L 2.695312 32 C 1.207031 32 0 30.792969 0 29.304688 L 0 2.695312 C 0 1.207031 1.207031 0 2.695312 0 Z M 2.695312 0 "/>
</clipPath>
<clipPath id="clip33">
  <path d="M 0 3.667969 L 7 3.667969 L 7 12 L 0 12 Z M 0 3.667969 "/>
</clipPath>
<clipPath id="clip34">
  <path d="M 2.695312 0 L 29.304688 0 C 30.792969 0 32 1.207031 32 2.695312 L 32 29.304688 C 32 30.792969 30.792969 32 29.304688 32 L 2.695312 32 C 1.207031 32 0 30.792969 0 29.304688 L 0 2.695312 C 0 1.207031 1.207031 0 2.695312 0 Z M 2.695312 0 "/>
</clipPath>
<clipPath id="clip35">
  <path d="M 20 6 L 28.332031 6 L 28.332031 14.332031 L 20 14.332031 Z M 20 6 "/>
</clipPath>
<clipPath id="clip36">
  <path d="M 2.695312 0 L 29.304688 0 C 30.792969 0 32 1.207031 32 2.695312 L 32 29.304688 C 32 30.792969 30.792969 32 29.304688 32 L 2.695312 32 C 1.207031 32 0 30.792969 0 29.304688 L 0 2.695312 C 0 1.207031 1.207031 0 2.695312 0 Z M 2.695312 0 "/>
</clipPath>
<clipPath id="clip37">
  <path d="M 21 0 L 29 0 L 29 7.332031 L 21 7.332031 Z M 21 0 "/>
</clipPath>
<clipPath id="clip38">
  <path d="M 2.695312 0 L 29.304688 0 C 30.792969 0 32 1.207031 32 2.695312 L 32 29.304688 C 32 30.792969 30.792969 32 29.304688 32 L 2.695312 32 C 1.207031 32 0 30.792969 0 29.304688 L 0 2.695312 C 0 1.207031 1.207031 0 2.695312 0 Z M 2.695312 0 "/>
</clipPath>
<clipPath id="clip39">
  <path d="M 0 17.667969 L 5.332031 17.667969 L 5.332031 26 L 0 26 Z M 0 17.667969 "/>
</clipPath>
<clipPath id="clip40">
  <path d="M 2.695312 0 L 29.304688 0 C 30.792969 0 32 1.207031 32 2.695312 L 32 29.304688 C 32 30.792969 30.792969 32 29.304688 32 L 2.695312 32 C 1.207031 32 0 30.792969 0 29.304688 L 0 2.695312 C 0 1.207031 1.207031 0 2.695312 0 Z M 2.695312 0 "/>
</clipPath>
<clipPath id="clip41">
  <path d="M 19.332031 13.332031 L 27.332031 13.332031 L 27.332031 21.332031 L 19.332031 21.332031 Z M 19.332031 13.332031 "/>
</clipPath>
<clipPath id="clip42">
  <path d="M 2.695312 0 L 29.304688 0 C 30.792969 0 32 1.207031 32 2.695312 L 32 29.304688 C 32 30.792969 30.792969 32 29.304688 32 L 2.695312 32 C 1.207031 32 0 30.792969 0 29.304688 L 0 2.695312 C 0 1.207031 1.207031 0 2.695312 0 Z M 2.695312 0 "/>
</clipPath>
<clipPath id="clip43">
  <path d="M 4.332031 18.667969 L 12.332031 18.667969 L 12.332031 27 L 4.332031 27 Z M 4.332031 18.667969 "/>
</clipPath>
<clipPath id="clip44">
  <path d="M 2.695312 0 L 29.304688 0 C 30.792969 0 32 1.207031 32 2.695312 L 32 29.304688 C 32 30.792969 30.792969 32 29.304688 32 L 2.695312 32 C 1.207031 32 0 30.792969 0 29.304688 L 0 2.695312 C 0 1.207031 1.207031 0 2.695312 0 Z M 2.695312 0 "/>
</clipPath>
<clipPath id="clip45">
  <path d="M 18.332031 20.332031 L 26.667969 20.332031 L 26.667969 28.332031 L 18.332031 28.332031 Z M 18.332031 20.332031 "/>
</clipPath>
<clipPath id="clip46">
  <path d="M 2.695312 0 L 29.304688 0 C 30.792969 0 32 1.207031 32 2.695312 L 32 29.304688 C 32 30.792969 30.792969 32 29.304688 32 L 2.695312 32 C 1.207031 32 0 30.792969 0 29.304688 L 0 2.695312 C 0 1.207031 1.207031 0 2.695312 0 Z M 2.695312 0 "/>
</clipPath>
<clipPath id="clip47">
  <path d="M 11.332031 19.667969 L 19.667969 19.667969 L 19.667969 27.667969 L 11.332031 27.667969 Z M 11.332031 19.667969 "/>
</clipPath>
<clipPath id="clip48">
  <path d="M 2.695312 0 L 29.304688 0 C 30.792969 0 32 1.207031 32 2.695312 L 32 29.304688 C 32 30.792969 30.792969 32 29.304688 32 L 2.695312 32 C 1.207031 32 0 30.792969 0 29.304688 L 0 2.695312 C 0 1.207031 1.207031 0 2.695312 0 Z M 2.695312 0 "/>
</clipPath>
<clipPath id="clip49">
  <path d="M 27 7 L 32 7 L 32 15.332031 L 27 15.332031 Z M 27 7 "/>
</clipPath>
<clipPath id="clip50">
  <path d="M 2.695312 0 L 29.304688 0 C 30.792969 0 32 1.207031 32 2.695312 L 32 29.304688 C 32 30.792969 30.792969 32 29.304688 32 L 2.695312 32 C 1.207031 32 0 30.792969 0 29.304688 L 0 2.695312 C 0 1.207031 1.207031 0 2.695312 0 Z M 2.695312 0 "/>
</clipPath>
<clipPath id="clip51">
  <path d="M 28 0 L 32 0 L 32 8 L 28 8 Z M 28 0 "/>
</clipPath>
<clipPath id="clip52">
  <path d="M 2.695312 0 L 29.304688 0 C 30.792969 0 32 1.207031 32 2.695312 L 32 29.304688 C 32 30.792969 30.792969 32 29.304688 32 L 2.695312 32 C 1.207031 32 0 30.792969 0 29.304688 L 0 2.695312 C 0 1.207031 1.207031 0 2.695312 0 Z M 2.695312 0 "/>
</clipPath>
</defs>
<g id="surface1">
<g clip-path="url(#clip1)" clip-rule="nonzero">
<g clip-path="url(#clip2)" clip-rule="nonzero">
<path style=" stroke:none;fill-rule:nonzero;fill:rgb(53.333333%,32.941176%,61.960784%);fill-opacity:1;" d="M 6.871094 4.621094 L 7.703125 -2.453125 L 14.773438 -1.621094 L 13.941406 5.449219 Z M 6.871094 4.621094 "/>
</g>
</g>
<g clip-path="url(#clip3)" clip-rule="nonzero">
<g clip-path="url(#clip4)" clip-rule="nonzero">
<path style=" stroke:none;fill-rule:nonzero;fill:rgb(84.313725%,21.176471%,57.647059%);fill-opacity:1;" d="M -7.273438 2.957031 L -6.441406 -4.113281 L 0.628906 -3.28125 L -0.199219 3.789062 Z M -7.273438 2.957031 "/>
</g>
</g>
<g clip-path="url(#clip5)" clip-rule="nonzero">
<g clip-path="url(#clip6)" clip-rule="nonzero">
<path style=" stroke:none;fill-rule:nonzero;fill:rgb(47.843137%,33.333333%,60.784314%);fill-opacity:1;" d="M -0.203125 3.789062 L 0.628906 -3.28125 L 7.699219 -2.453125 L 6.867188 4.621094 Z M -0.203125 3.789062 "/>
</g>
</g>
<g clip-path="url(#clip7)" clip-rule="nonzero">
<g clip-path="url(#clip8)" clip-rule="nonzero">
<path style=" stroke:none;fill-rule:nonzero;fill:rgb(74.509804%,84.705882%,18.431373%);fill-opacity:1;" d="M 17.664062 34.726562 L 18.519531 27.679688 L 25.570312 28.535156 L 24.714844 35.582031 Z M 17.664062 34.726562 "/>
</g>
</g>
<g clip-path="url(#clip9)" clip-rule="nonzero">
<g clip-path="url(#clip10)" clip-rule="nonzero">
<path style=" stroke:none;fill-rule:nonzero;fill:rgb(93.333333%,90.588235%,15.294118%);fill-opacity:1;" d="M 24.765625 35.398438 L 25.59375 28.328125 L 32.664062 29.15625 L 31.835938 36.230469 Z M 24.765625 35.398438 "/>
</g>
</g>
<g clip-path="url(#clip11)" clip-rule="nonzero">
<g clip-path="url(#clip12)" clip-rule="nonzero">
<path style=" stroke:none;fill-rule:nonzero;fill:rgb(74.509804%,84.705882%,18.431373%);fill-opacity:1;" d="M 25.589844 28.328125 L 26.417969 21.257812 L 33.492188 22.085938 L 32.660156 29.160156 Z M 25.589844 28.328125 "/>
</g>
</g>
<g clip-path="url(#clip13)" clip-rule="nonzero">
<g clip-path="url(#clip14)" clip-rule="nonzero">
<path style=" stroke:none;fill-rule:nonzero;fill:rgb(32.54902%,74.901961%,62.352941%);fill-opacity:1;" d="M 3.550781 32.914062 L 4.382812 25.839844 L 11.453125 26.671875 L 10.621094 33.742188 Z M 3.550781 32.914062 "/>
</g>
</g>
<g clip-path="url(#clip15)" clip-rule="nonzero">
<g clip-path="url(#clip16)" clip-rule="nonzero">
<path style=" stroke:none;fill-rule:nonzero;fill:rgb(50.196078%,76.470588%,25.882353%);fill-opacity:1;" d="M 10.621094 33.746094 L 11.449219 26.675781 L 18.523438 27.507812 L 17.691406 34.578125 Z M 10.621094 33.746094 "/>
</g>
</g>
<g clip-path="url(#clip17)" clip-rule="nonzero">
<g clip-path="url(#clip18)" clip-rule="nonzero">
<path style=" stroke:none;fill-rule:nonzero;fill:rgb(26.27451%,76.078431%,81.960784%);fill-opacity:1;" d="M -3.519531 32.082031 L -2.6875 25.011719 L 4.382812 25.839844 L 3.550781 32.914062 Z M -3.519531 32.082031 "/>
</g>
</g>
<g clip-path="url(#clip19)" clip-rule="nonzero">
<g clip-path="url(#clip20)" clip-rule="nonzero">
<path style=" stroke:none;fill-rule:nonzero;fill:rgb(27.843137%,52.941176%,78.039216%);fill-opacity:1;" d="M 13.945312 5.449219 L 14.777344 -1.621094 L 21.847656 -0.792969 L 21.015625 6.28125 Z M 13.945312 5.449219 "/>
</g>
</g>
<g clip-path="url(#clip21)" clip-rule="nonzero">
<g clip-path="url(#clip22)" clip-rule="nonzero">
<path style=" stroke:none;fill-rule:nonzero;fill:rgb(27.843137%,52.941176%,78.039216%);fill-opacity:1;" d="M 6.039062 11.695312 L 6.871094 4.621094 L 13.941406 5.453125 L 13.113281 12.523438 Z M 6.039062 11.695312 "/>
</g>
</g>
<g clip-path="url(#clip23)" clip-rule="nonzero">
<g clip-path="url(#clip24)" clip-rule="nonzero">
<path style=" stroke:none;fill-rule:nonzero;fill:rgb(13.72549%,65.098039%,87.058824%);fill-opacity:1;" d="M 13.113281 12.527344 L 13.945312 5.457031 L 21.015625 6.289062 L 20.1875 13.359375 Z M 13.113281 12.527344 "/>
</g>
</g>
<g clip-path="url(#clip25)" clip-rule="nonzero">
<g clip-path="url(#clip26)" clip-rule="nonzero">
<path style=" stroke:none;fill-rule:nonzero;fill:rgb(21.176471%,35.686275%,66.27451%);fill-opacity:1;" d="M -1.859375 17.933594 L -1.027344 10.863281 L 6.042969 11.691406 L 5.214844 18.765625 Z M -1.859375 17.933594 "/>
</g>
</g>
<g clip-path="url(#clip27)" clip-rule="nonzero">
<g clip-path="url(#clip28)" clip-rule="nonzero">
<path style=" stroke:none;fill-rule:nonzero;fill:rgb(50.196078%,76.470588%,25.882353%);fill-opacity:1;" d="M 26.425781 21.253906 L 27.253906 14.183594 L 34.324219 15.011719 L 33.496094 22.085938 Z M 26.425781 21.253906 "/>
</g>
</g>
<g clip-path="url(#clip29)" clip-rule="nonzero">
<g clip-path="url(#clip30)" clip-rule="nonzero">
<path style=" stroke:none;fill-rule:nonzero;fill:rgb(18.823529%,41.568627%,70.196078%);fill-opacity:1;" d="M 5.210938 18.769531 L 6.042969 11.695312 L 13.113281 12.527344 L 12.28125 19.597656 Z M 5.210938 18.769531 "/>
</g>
</g>
<g clip-path="url(#clip31)" clip-rule="nonzero">
<g clip-path="url(#clip32)" clip-rule="nonzero">
<path style=" stroke:none;fill-rule:nonzero;fill:rgb(14.509804%,72.54902%,86.666667%);fill-opacity:1;" d="M 12.28125 19.597656 L 13.109375 12.527344 L 20.183594 13.359375 L 19.351562 20.429688 Z M 12.28125 19.597656 "/>
</g>
</g>
<g clip-path="url(#clip33)" clip-rule="nonzero">
<g clip-path="url(#clip34)" clip-rule="nonzero">
<path style=" stroke:none;fill-rule:nonzero;fill:rgb(65.098039%,32.941176%,62.745098%);fill-opacity:1;" d="M -1.027344 10.859375 L -0.199219 3.785156 L 6.875 4.617188 L 6.042969 11.6875 Z M -1.027344 10.859375 "/>
</g>
</g>
<g clip-path="url(#clip35)" clip-rule="nonzero">
<g clip-path="url(#clip36)" clip-rule="nonzero">
<path style=" stroke:none;fill-rule:nonzero;fill:rgb(32.156863%,75.294118%,70.196078%);fill-opacity:1;" d="M 20.183594 13.355469 L 21.015625 6.28125 L 28.085938 7.113281 L 27.257812 14.183594 Z M 20.183594 13.355469 "/>
</g>
</g>
<g clip-path="url(#clip37)" clip-rule="nonzero">
<g clip-path="url(#clip38)" clip-rule="nonzero">
<path style=" stroke:none;fill-rule:nonzero;fill:rgb(14.509804%,72.54902%,86.666667%);fill-opacity:1;" d="M 21.015625 6.28125 L 21.847656 -0.792969 L 28.917969 0.0390625 L 28.085938 7.109375 Z M 21.015625 6.28125 "/>
</g>
</g>
<g clip-path="url(#clip39)" clip-rule="nonzero">
<g clip-path="url(#clip40)" clip-rule="nonzero">
<path style=" stroke:none;fill-rule:nonzero;fill:rgb(27.843137%,52.941176%,78.039216%);fill-opacity:1;" d="M -2.695312 25.007812 L -1.863281 17.9375 L 5.207031 18.765625 L 4.378906 25.839844 Z M -2.695312 25.007812 "/>
</g>
</g>
<g clip-path="url(#clip41)" clip-rule="nonzero">
<g clip-path="url(#clip42)" clip-rule="nonzero">
<path style=" stroke:none;fill-rule:nonzero;fill:rgb(32.54902%,74.901961%,62.352941%);fill-opacity:1;" d="M 19.351562 20.421875 L 20.179688 13.351562 L 27.25 14.183594 L 26.421875 21.253906 Z M 19.351562 20.421875 "/>
</g>
</g>
<g clip-path="url(#clip43)" clip-rule="nonzero">
<g clip-path="url(#clip44)" clip-rule="nonzero">
<path style=" stroke:none;fill-rule:nonzero;fill:rgb(13.72549%,65.098039%,87.058824%);fill-opacity:1;" d="M 4.375 25.84375 L 5.207031 18.769531 L 12.277344 19.601562 L 11.445312 26.671875 Z M 4.375 25.84375 "/>
</g>
</g>
<g clip-path="url(#clip45)" clip-rule="nonzero">
<g clip-path="url(#clip46)" clip-rule="nonzero">
<path style=" stroke:none;fill-rule:nonzero;fill:rgb(34.117647%,72.941176%,46.666667%);fill-opacity:1;" d="M 18.519531 27.503906 L 19.351562 20.433594 L 26.421875 21.261719 L 25.589844 28.332031 Z M 18.519531 27.503906 "/>
</g>
</g>
<g clip-path="url(#clip47)" clip-rule="nonzero">
<g clip-path="url(#clip48)" clip-rule="nonzero">
<path style=" stroke:none;fill-rule:nonzero;fill:rgb(32.156863%,75.294118%,70.196078%);fill-opacity:1;" d="M 11.429688 26.777344 L 12.285156 19.726562 L 19.335938 20.582031 L 18.480469 27.632812 Z M 11.429688 26.777344 "/>
</g>
</g>
<g clip-path="url(#clip49)" clip-rule="nonzero">
<g clip-path="url(#clip50)" clip-rule="nonzero">
<path style=" stroke:none;fill-rule:nonzero;fill:rgb(32.54902%,74.901961%,62.352941%);fill-opacity:1;" d="M 27.253906 14.183594 L 28.085938 7.113281 L 35.15625 7.945312 L 34.324219 15.015625 Z M 27.253906 14.183594 "/>
</g>
</g>
<g clip-path="url(#clip51)" clip-rule="nonzero">
<g clip-path="url(#clip52)" clip-rule="nonzero">
<path style=" stroke:none;fill-rule:nonzero;fill:rgb(26.27451%,76.078431%,81.960784%);fill-opacity:1;" d="M 28.085938 7.113281 L 28.914062 0.0429688 L 35.988281 0.875 L 35.15625 7.945312 Z M 28.085938 7.113281 "/>
</g>
</g>
<path style=" stroke:none;fill-rule:nonzero;fill:rgb(100%,100%,100%);fill-opacity:1;" d="M 19.945312 15.34375 L 16.445312 9.429688 C 16.351562 9.265625 16.175781 9.167969 15.988281 9.167969 C 15.800781 9.167969 15.625 9.265625 15.53125 9.429688 L 12.03125 15.34375 C 10.664062 17.335938 10.996094 20.035156 12.804688 21.636719 C 14.613281 23.238281 17.335938 23.238281 19.144531 21.636719 C 20.957031 20.035156 21.289062 17.335938 19.921875 15.34375 Z M 19.945312 15.34375 "/>
</g>
</svg>
