
<svg xmlns="http://www.w3.org/2000/svg" xmlns:xlink="http://www.w3.org/1999/xlink" width="32px" height="32px" viewBox="0 0 32 32" version="1.1">
<defs>
<linearGradient id="linear0" gradientUnits="userSpaceOnUse" x1="32.85" y1="53" x2="32.85" y2="54.61" gradientTransform="matrix(0.5,0,0,0.5,-0.06,0.025)">
<stop offset="0" style="stop-color:rgb(86.27451%,87.058824%,88.627451%);stop-opacity:1;"/>
<stop offset="0.57" style="stop-color:rgb(87.058824%,87.843137%,89.411765%);stop-opacity:1;"/>
<stop offset="0.81" style="stop-color:rgb(89.803922%,90.588235%,91.764706%);stop-opacity:1;"/>
<stop offset="0.99" style="stop-color:rgb(94.901961%,95.294118%,95.686275%);stop-opacity:1;"/>
<stop offset="1" style="stop-color:rgb(95.294118%,95.686275%,96.078431%);stop-opacity:1;"/>
</linearGradient>
</defs>
<g id="surface1">
<path style=" stroke:none;fill-rule:nonzero;fill:rgb(49.411765%,34.117647%,76.862745%);fill-opacity:1;" d="M 2.695312 0 L 29.304688 0 C 30.792969 0 32 1.207031 32 2.695312 L 32 29.304688 C 32 30.792969 30.792969 32 29.304688 32 L 2.695312 32 C 1.207031 32 0 30.792969 0 29.304688 L 0 2.695312 C 0 1.207031 1.207031 0 2.695312 0 Z M 2.695312 0 "/>
<path style=" stroke:none;fill-rule:nonzero;fill:url(#linear0);" d="M 21.941406 27.195312 L 21 27.195312 C 20.59375 27.195312 20.265625 26.867188 20.265625 26.460938 L 20.265625 23.074219 L 12.5 23.074219 L 12.5 26.453125 C 12.5 26.859375 12.171875 27.191406 11.765625 27.191406 L 10.789062 27.191406 C 10.390625 27.191406 10.066406 27.515625 10.066406 27.914062 C 10.066406 28.316406 10.390625 28.640625 10.789062 28.640625 L 21.941406 28.640625 C 22.132812 28.640625 22.320312 28.566406 22.457031 28.429688 C 22.59375 28.292969 22.671875 28.109375 22.671875 27.914062 C 22.667969 27.515625 22.339844 27.191406 21.941406 27.195312 Z M 21.941406 27.195312 "/>
<path style=" stroke:none;fill-rule:nonzero;fill:rgb(92.54902%,25.098039%,47.843137%);fill-opacity:1;" d="M 4.570312 5.929688 L 27.429688 5.929688 C 27.957031 5.929688 28.386719 6.359375 28.386719 6.886719 L 28.386719 21.976562 C 28.386719 22.503906 27.957031 22.929688 27.429688 22.929688 L 4.570312 22.929688 C 4.042969 22.929688 3.613281 22.503906 3.613281 21.976562 L 3.613281 6.886719 C 3.613281 6.359375 4.042969 5.929688 4.570312 5.929688 Z M 4.570312 5.929688 "/>
<path style=" stroke:none;fill-rule:nonzero;fill:rgb(100%,100%,100%);fill-opacity:1;" d="M 27.429688 23.371094 L 4.570312 23.371094 C 3.808594 23.371094 3.1875 22.761719 3.175781 22 L 3.175781 6.886719 C 3.179688 6.117188 3.804688 5.5 4.570312 5.5 L 27.429688 5.5 C 28.199219 5.5 28.824219 6.125 28.824219 6.894531 L 28.824219 22 C 28.8125 22.761719 28.191406 23.371094 27.429688 23.371094 Z M 4.570312 6.371094 C 4.292969 6.371094 4.070312 6.59375 4.070312 6.871094 L 4.070312 22 C 4.070312 22.277344 4.292969 22.5 4.570312 22.5 L 27.429688 22.5 C 27.707031 22.5 27.929688 22.277344 27.929688 22 L 27.929688 6.886719 C 27.929688 6.609375 27.707031 6.386719 27.429688 6.386719 Z M 4.570312 6.371094 "/>
<path style=" stroke:none;fill-rule:nonzero;fill:rgb(100%,100%,100%);fill-opacity:1;" d="M 3.300781 21 L 28.65625 21 L 28.65625 22.101562 C 28.65625 22.707031 28.164062 23.199219 27.554688 23.199219 L 4.398438 23.199219 C 3.792969 23.199219 3.300781 22.707031 3.300781 22.101562 Z M 3.300781 21 "/>
<path style=" stroke:none;fill-rule:nonzero;fill:rgb(100%,100%,100%);fill-opacity:1;" d="M 11.390625 17.378906 L 12.625 17.378906 C 12.855469 17.378906 13.046875 17.566406 13.046875 17.800781 L 13.046875 19.035156 C 13.046875 19.265625 12.855469 19.453125 12.625 19.453125 L 11.390625 19.453125 C 11.15625 19.453125 10.96875 19.265625 10.96875 19.035156 L 10.96875 17.800781 C 10.96875 17.566406 11.15625 17.378906 11.390625 17.378906 Z M 11.390625 17.378906 "/>
<path style=" stroke:none;fill-rule:nonzero;fill:rgb(100%,100%,100%);fill-opacity:1;" d="M 14.050781 17.378906 L 15.285156 17.378906 C 15.515625 17.378906 15.703125 17.566406 15.703125 17.800781 L 15.703125 19.035156 C 15.703125 19.265625 15.515625 19.453125 15.285156 19.453125 L 14.050781 19.453125 C 13.816406 19.453125 13.628906 19.265625 13.628906 19.035156 L 13.628906 17.800781 C 13.628906 17.566406 13.816406 17.378906 14.050781 17.378906 Z M 14.050781 17.378906 "/>
<path style=" stroke:none;fill-rule:nonzero;fill:rgb(100%,100%,100%);fill-opacity:1;" d="M 16.714844 17.378906 L 17.949219 17.378906 C 18.183594 17.378906 18.371094 17.566406 18.371094 17.800781 L 18.371094 19.035156 C 18.371094 19.265625 18.183594 19.453125 17.949219 19.453125 L 16.714844 19.453125 C 16.484375 19.453125 16.296875 19.265625 16.296875 19.035156 L 16.296875 17.800781 C 16.296875 17.566406 16.484375 17.378906 16.714844 17.378906 Z M 16.714844 17.378906 "/>
<path style=" stroke:none;fill-rule:nonzero;fill:rgb(100%,100%,100%);fill-opacity:1;" d="M 19.375 17.378906 L 20.609375 17.378906 C 20.84375 17.378906 21.03125 17.566406 21.03125 17.800781 L 21.03125 19.035156 C 21.03125 19.265625 20.84375 19.453125 20.609375 19.453125 L 19.375 19.453125 C 19.144531 19.453125 18.953125 19.265625 18.953125 19.035156 L 18.953125 17.800781 C 18.953125 17.566406 19.144531 17.378906 19.375 17.378906 Z M 19.375 17.378906 "/>
</g>
</svg>
