
<svg xmlns="http://www.w3.org/2000/svg" xmlns:xlink="http://www.w3.org/1999/xlink" width="32px" height="32px" viewBox="0 0 32 32" version="1.1">
<defs>
<linearGradient id="linear0" gradientUnits="userSpaceOnUse" x1="31.18" y1="-3.52" x2="31.18" y2="47.91" gradientTransform="matrix(0.5,0,0,0.5,0,0)">
<stop offset="0" style="stop-color:rgb(16.078431%,71.372549%,96.470588%);stop-opacity:1;"/>
<stop offset="1" style="stop-color:rgb(49.411765%,34.117647%,76.862745%);stop-opacity:1;"/>
</linearGradient>
</defs>
<g id="surface1">
<path style=" stroke:none;fill-rule:nonzero;fill:rgb(91.764706%,92.156863%,93.72549%);fill-opacity:1;" d="M 2.695312 0 L 29.304688 0 C 30.792969 0 32 1.207031 32 2.695312 L 32 29.304688 C 32 30.792969 30.792969 32 29.304688 32 L 2.695312 32 C 1.207031 32 0 30.792969 0 29.304688 L 0 2.695312 C 0 1.207031 1.207031 0 2.695312 0 Z M 2.695312 0 "/>
<path style=" stroke:none;fill-rule:nonzero;fill:url(#linear0);" d="M 24.449219 15.71875 C 23.929688 15.207031 23.113281 14.949219 22 14.949219 C 21.378906 14.949219 20.757812 15.039062 20.164062 15.226562 C 19.589844 15.402344 19.042969 15.660156 18.546875 16 L 18.546875 17.25 C 18.546875 17.34375 18.546875 17.398438 18.613281 17.414062 C 18.683594 17.429688 18.710938 17.414062 18.769531 17.355469 C 19.230469 17.015625 19.734375 16.738281 20.269531 16.535156 C 20.765625 16.347656 21.289062 16.253906 21.820312 16.261719 C 22.109375 16.253906 22.402344 16.285156 22.683594 16.355469 C 22.914062 16.40625 23.121094 16.519531 23.289062 16.679688 C 23.464844 16.859375 23.589844 17.078125 23.648438 17.320312 C 23.738281 17.65625 23.777344 18.003906 23.769531 18.351562 L 23.769531 18.5 L 20.824219 18.925781 C 19.925781 19 19.078125 19.378906 18.425781 20 L 14.730469 9 C 14.441406 8.140625 13.636719 7.554688 12.730469 7.550781 C 11.820312 7.554688 11.019531 8.140625 10.730469 9 L 6 23.085938 C 5.863281 23.488281 5.933594 23.933594 6.183594 24.28125 C 6.433594 24.628906 6.832031 24.835938 7.261719 24.835938 C 7.835938 24.835938 8.347656 24.464844 8.523438 23.914062 L 9.558594 20.734375 C 9.683594 20.355469 10.039062 20.097656 10.441406 20.09375 L 15 20.09375 C 15.402344 20.09375 15.757812 20.355469 15.878906 20.738281 L 16.878906 23.910156 C 17.054688 24.460938 17.566406 24.835938 18.144531 24.835938 L 20.699219 24.886719 C 21.292969 24.882812 21.875 24.746094 22.40625 24.484375 C 22.671875 24.351562 22.921875 24.183594 23.144531 23.984375 C 23.363281 23.792969 23.550781 23.566406 23.699219 23.316406 L 23.734375 24.144531 C 23.746094 24.546875 24.078125 24.867188 24.484375 24.859375 C 24.886719 24.847656 25.203125 24.511719 25.195312 24.109375 L 25.195312 18.253906 C 25.21875 17.085938 24.96875 16.238281 24.449219 15.71875 Z M 13.835938 17.859375 L 11.613281 17.859375 C 11.320312 17.859375 11.042969 17.722656 10.871094 17.484375 C 10.695312 17.246094 10.644531 16.941406 10.734375 16.660156 L 12.28125 11.738281 C 12.332031 11.539062 12.515625 11.398438 12.726562 11.398438 C 12.933594 11.398438 13.117188 11.539062 13.171875 11.738281 L 14.714844 16.660156 C 14.804688 16.941406 14.753906 17.246094 14.582031 17.484375 C 14.40625 17.722656 14.128906 17.859375 13.835938 17.859375 Z M 23.835938 20.859375 C 23.835938 21.214844 23.757812 21.566406 23.609375 21.890625 C 23.464844 22.226562 23.257812 22.53125 23 22.789062 C 22.742188 23.046875 22.441406 23.261719 22.109375 23.414062 C 21.78125 23.574219 21.421875 23.65625 21.054688 23.65625 C 20.574219 23.675781 20.097656 23.527344 19.710938 23.238281 C 19.542969 23.109375 19.410156 22.9375 19.324219 22.738281 L 19.300781 22.664062 C 19.226562 22.46875 19.1875 22.261719 19.191406 22.054688 C 19.152344 21.5 19.375 20.960938 19.789062 20.589844 C 20.238281 20.230469 20.78125 20.007812 21.351562 19.945312 L 23.433594 19.691406 C 23.535156 19.675781 23.636719 19.707031 23.714844 19.773438 C 23.792969 19.839844 23.835938 19.9375 23.835938 20.039062 Z M 23.835938 20.859375 "/>
</g>
</svg>
