
<svg xmlns="http://www.w3.org/2000/svg" xmlns:xlink="http://www.w3.org/1999/xlink" width="32px" height="32px" viewBox="0 0 32 32" version="1.1">
<g id="surface1">
<path style=" stroke:none;fill-rule:nonzero;fill:rgb(49.411765%,34.117647%,76.862745%);fill-opacity:1;" d="M 2.695312 0 L 29.304688 0 C 30.792969 0 32 1.207031 32 2.695312 L 32 29.304688 C 32 30.792969 30.792969 32 29.304688 32 L 2.695312 32 C 1.207031 32 0 30.792969 0 29.304688 L 0 2.695312 C 0 1.207031 1.207031 0 2.695312 0 Z M 2.695312 0 "/>
<path style=" stroke:none;fill-rule:nonzero;fill:rgb(100%,100%,100%);fill-opacity:1;" d="M 25.921875 15.648438 C 25.773438 15.34375 25.597656 15.050781 25.394531 14.78125 C 25.171875 14.589844 24.882812 14.496094 24.589844 14.523438 C 23.726562 14.589844 22.917969 14.089844 22.589844 13.285156 C 22.257812 12.503906 22.429688 11.601562 23.03125 11 C 23.605469 10.417969 23.605469 9.480469 23.03125 8.894531 C 22.765625 8.625 22.40625 8.472656 22.03125 8.464844 C 21.609375 8.476562 21.203125 8.632812 20.890625 8.914062 C 20.464844 9.257812 19.9375 9.449219 19.390625 9.460938 C 19.167969 9.460938 18.949219 9.417969 18.746094 9.339844 C 18.042969 8.996094 17.570312 8.308594 17.5 7.53125 C 17.523438 6.773438 16.980469 6.117188 16.230469 6 L 16.136719 5.96875 L 15.839844 5.96875 C 15.796875 5.988281 15.753906 6 15.710938 6.011719 C 15.007812 6.140625 14.507812 6.761719 14.523438 7.476562 C 14.558594 8.3125 14.070312 9.085938 13.300781 9.421875 C 12.515625 9.757812 11.601562 9.578125 11 8.96875 C 10.699219 8.699219 10.3125 8.546875 9.910156 8.539062 C 9.535156 8.542969 9.175781 8.691406 8.910156 8.953125 C 8.339844 9.539062 8.339844 10.472656 8.910156 11.054688 C 9.5 11.628906 9.695312 12.496094 9.410156 13.265625 C 9.109375 14.058594 8.351562 14.585938 7.503906 14.589844 C 6.824219 14.636719 6.308594 14.871094 6.003906 15.839844 L 6.003906 16.308594 C 6.035156 16.386719 6.066406 16.464844 6.089844 16.539062 C 6.285156 17.128906 6.832031 17.527344 7.449219 17.539062 C 8.324219 17.433594 9.164062 17.914062 9.519531 18.71875 C 9.875 19.523438 9.660156 20.464844 8.996094 21.039062 C 8.453125 21.625 8.453125 22.53125 8.996094 23.113281 C 9.269531 23.394531 9.644531 23.550781 10.035156 23.550781 C 10.394531 23.53125 10.734375 23.386719 11 23.144531 C 11.402344 22.753906 11.9375 22.523438 12.5 22.496094 C 13.640625 22.5 14.558594 23.429688 14.554688 24.570312 C 14.605469 25.230469 14.839844 25.734375 15.800781 26.070312 L 16.171875 26.070312 L 16.398438 25.945312 C 16.703125 25.800781 16.988281 25.625 17.253906 25.421875 C 17.457031 25.152344 17.558594 24.820312 17.546875 24.484375 C 17.605469 23.734375 18.027344 23.058594 18.675781 22.675781 C 18.925781 22.535156 19.210938 22.464844 19.5 22.46875 C 20.046875 22.480469 20.574219 22.675781 21 23.019531 C 21.316406 23.292969 21.722656 23.449219 22.140625 23.453125 C 22.515625 23.457031 22.875 23.308594 23.140625 23.039062 C 23.722656 22.441406 23.722656 21.484375 23.140625 20.886719 C 22.722656 20.359375 22.542969 19.6875 22.640625 19.023438 C 22.855469 18.183594 23.589844 17.578125 24.453125 17.523438 C 25.238281 17.570312 25.9375 17.039062 26.101562 16.269531 L 26.101562 15.90625 Z M 16 19.769531 C 13.917969 19.769531 12.230469 18.082031 12.230469 16 C 12.230469 13.917969 13.917969 12.230469 16 12.230469 C 18.082031 12.230469 19.769531 13.917969 19.769531 16 C 19.753906 18.074219 18.074219 19.753906 16 19.769531 Z M 16 19.769531 "/>
</g>
</svg>
