
<svg xmlns="http://www.w3.org/2000/svg" xmlns:xlink="http://www.w3.org/1999/xlink" width="32px" height="32px" viewBox="0 0 32 32" version="1.1">
<g id="surface1">
<path style=" stroke:none;fill-rule:nonzero;fill:rgb(36.078431%,41.960784%,75.294118%);fill-opacity:1;" d="M 2.695312 0 L 29.304688 0 C 30.792969 0 32 1.207031 32 2.695312 L 32 29.304688 C 32 30.792969 30.792969 32 29.304688 32 L 2.695312 32 C 1.207031 32 0 30.792969 0 29.304688 L 0 2.695312 C 0 1.207031 1.207031 0 2.695312 0 Z M 2.695312 0 "/>
<path style=" stroke:none;fill-rule:nonzero;fill:rgb(16.078431%,71.372549%,96.470588%);fill-opacity:1;" d="M 23.328125 13.171875 L 22.046875 13.171875 L 22.046875 11 C 22.03125 10.429688 21.570312 9.96875 21 9.953125 L 12.046875 9.953125 C 10.75 9.953125 9.703125 8.902344 9.699219 7.609375 L 9.699219 6.5 L 11 6.5 L 11 7.625 C 11 8.210938 11.472656 8.683594 12.058594 8.683594 L 21 8.683594 C 22.296875 8.6875 23.347656 9.738281 23.351562 11.035156 Z M 23.328125 13.171875 "/>
<path style=" stroke:none;fill-rule:nonzero;fill:rgb(100%,100%,100%);fill-opacity:1;" d="M 24.933594 12.398438 L 7.066406 12.398438 C 6.320312 12.398438 5.714844 13.003906 5.714844 13.75 L 5.714844 24.164062 C 5.714844 24.910156 6.320312 25.515625 7.066406 25.515625 L 24.933594 25.515625 C 25.679688 25.515625 26.285156 24.910156 26.285156 24.164062 L 26.285156 13.75 C 26.285156 13.003906 25.679688 12.398438 24.933594 12.398438 Z M 24.933594 12.398438 "/>
<path style=" stroke:none;fill-rule:nonzero;fill:rgb(79.607843%,79.607843%,79.607843%);fill-opacity:1;" d="M 20.90625 20.929688 L 11.085938 20.929688 C 10.914062 20.929688 10.75 21 10.628906 21.121094 C 10.511719 21.242188 10.445312 21.40625 10.445312 21.574219 L 10.445312 22.375 C 10.453125 22.722656 10.738281 23 11.085938 23 L 20.90625 23 C 21.074219 23 21.238281 22.933594 21.359375 22.8125 C 21.480469 22.695312 21.550781 22.53125 21.550781 22.359375 L 21.550781 21.558594 C 21.550781 21.203125 21.261719 20.914062 20.90625 20.914062 Z M 20.90625 20.929688 "/>
<path style=" stroke:none;fill-rule:nonzero;fill:rgb(92.54902%,25.098039%,47.843137%);fill-opacity:1;" d="M 9.105469 20.929688 L 8.65625 20.929688 C 8.480469 20.925781 8.316406 20.992188 8.191406 21.117188 C 8.070312 21.238281 8 21.402344 8 21.574219 L 8 22.375 C 8.007812 22.726562 8.300781 23.007812 8.65625 23 L 9.105469 23 C 9.277344 23 9.441406 22.933594 9.5625 22.8125 C 9.683594 22.695312 9.75 22.53125 9.75 22.359375 L 9.75 21.558594 C 9.75 21.203125 9.460938 20.914062 9.105469 20.914062 Z M 9.105469 20.929688 "/>
<path style=" stroke:none;fill-rule:nonzero;fill:rgb(79.607843%,79.607843%,79.607843%);fill-opacity:1;" d="M 23.453125 20.929688 L 23 20.929688 C 22.644531 20.929688 22.355469 21.21875 22.355469 21.574219 L 22.355469 22.375 C 22.363281 22.722656 22.648438 23.003906 23 23 L 23.449219 23 C 23.621094 23 23.785156 22.933594 23.90625 22.8125 C 24.027344 22.695312 24.09375 22.53125 24.09375 22.359375 L 24.09375 21.558594 C 24.09375 21.203125 23.804688 20.914062 23.449219 20.914062 Z M 23.453125 20.929688 "/>
<path style=" stroke:none;fill-rule:nonzero;fill:rgb(79.607843%,79.607843%,79.607843%);fill-opacity:1;" d="M 13.710938 17.953125 L 13.253906 17.953125 C 12.902344 17.953125 12.613281 18.242188 12.613281 18.59375 L 12.613281 19.394531 C 12.613281 19.566406 12.679688 19.730469 12.800781 19.851562 C 12.921875 19.972656 13.085938 20.039062 13.253906 20.039062 L 13.710938 20.039062 C 13.878906 20.039062 14.042969 19.972656 14.164062 19.851562 C 14.285156 19.730469 14.351562 19.566406 14.351562 19.394531 L 14.351562 18.59375 C 14.351562 18.242188 14.0625 17.953125 13.710938 17.953125 Z M 13.710938 17.953125 "/>
<path style=" stroke:none;fill-rule:nonzero;fill:rgb(92.54902%,25.098039%,47.843137%);fill-opacity:1;" d="M 11.429688 17.953125 L 8.65625 17.953125 C 8.484375 17.949219 8.316406 18.015625 8.191406 18.136719 C 8.070312 18.257812 8 18.421875 8 18.59375 L 8 19.394531 C 8 19.75 8.289062 20.039062 8.644531 20.039062 L 11.421875 20.039062 C 11.777344 20.039062 12.066406 19.75 12.066406 19.394531 L 12.066406 18.59375 C 12.066406 18.425781 11.996094 18.261719 11.875 18.140625 C 11.753906 18.019531 11.589844 17.953125 11.421875 17.953125 Z M 11.429688 17.953125 "/>
<path style=" stroke:none;fill-rule:nonzero;fill:rgb(79.607843%,79.607843%,79.607843%);fill-opacity:1;" d="M 16.144531 17.953125 L 15.695312 17.953125 C 15.523438 17.953125 15.359375 18.019531 15.238281 18.140625 C 15.117188 18.261719 15.050781 18.425781 15.050781 18.59375 L 15.050781 19.394531 C 15.050781 19.75 15.339844 20.039062 15.695312 20.039062 L 16.144531 20.039062 C 16.5 20.039062 16.789062 19.75 16.789062 19.394531 L 16.789062 18.59375 C 16.789062 18.425781 16.722656 18.261719 16.601562 18.140625 C 16.480469 18.019531 16.316406 17.953125 16.144531 17.953125 Z M 16.144531 17.953125 "/>
<path style=" stroke:none;fill-rule:nonzero;fill:rgb(79.607843%,79.607843%,79.607843%);fill-opacity:1;" d="M 18.585938 17.953125 L 18.128906 17.953125 C 17.78125 17.960938 17.5 18.246094 17.5 18.59375 L 17.5 19.394531 C 17.5 19.566406 17.566406 19.730469 17.6875 19.851562 C 17.804688 19.972656 17.96875 20.039062 18.140625 20.039062 L 18.59375 20.039062 C 18.765625 20.039062 18.929688 19.972656 19.050781 19.851562 C 19.167969 19.730469 19.238281 19.566406 19.234375 19.394531 L 19.234375 18.59375 C 19.234375 18.242188 18.949219 17.953125 18.59375 17.953125 Z M 18.585938 17.953125 "/>
<path style=" stroke:none;fill-rule:nonzero;fill:rgb(79.607843%,79.607843%,79.607843%);fill-opacity:1;" d="M 21 17.953125 L 20.550781 17.953125 C 20.378906 17.953125 20.214844 18.019531 20.09375 18.140625 C 19.972656 18.261719 19.90625 18.425781 19.90625 18.59375 L 19.90625 19.394531 C 19.90625 19.75 20.195312 20.039062 20.550781 20.039062 L 21 20.039062 C 21.355469 20.039062 21.644531 19.75 21.644531 19.394531 L 21.644531 18.59375 C 21.644531 18.425781 21.578125 18.261719 21.457031 18.140625 C 21.335938 18.019531 21.171875 17.953125 21 17.953125 Z M 21 17.953125 "/>
<path style=" stroke:none;fill-rule:nonzero;fill:rgb(79.607843%,79.607843%,79.607843%);fill-opacity:1;" d="M 23.453125 17.953125 L 23 17.953125 C 22.828125 17.953125 22.664062 18.019531 22.542969 18.140625 C 22.421875 18.261719 22.355469 18.425781 22.355469 18.59375 L 22.355469 19.394531 C 22.355469 19.75 22.644531 20.039062 23 20.039062 L 23.449219 20.039062 C 23.804688 20.039062 24.09375 19.75 24.09375 19.394531 L 24.09375 18.59375 C 24.09375 18.425781 24.027344 18.261719 23.90625 18.140625 C 23.785156 18.019531 23.621094 17.953125 23.449219 17.953125 Z M 23.453125 17.953125 "/>
<path style=" stroke:none;fill-rule:nonzero;fill:rgb(79.607843%,79.607843%,79.607843%);fill-opacity:1;" d="M 12.355469 15 L 11.90625 15 C 11.734375 15 11.570312 15.066406 11.449219 15.1875 C 11.328125 15.304688 11.261719 15.46875 11.261719 15.640625 L 11.261719 16.441406 C 11.261719 16.796875 11.546875 17.085938 11.90625 17.085938 L 12.355469 17.085938 C 12.53125 17.085938 12.699219 17.015625 12.820312 16.886719 C 12.941406 16.761719 13.007812 16.589844 13 16.414062 L 13 15.613281 C 12.988281 15.269531 12.699219 14.996094 12.355469 15 Z M 12.355469 15 "/>
<path style=" stroke:none;fill-rule:nonzero;fill:rgb(79.607843%,79.607843%,79.607843%);fill-opacity:1;" d="M 14.796875 15 L 14.339844 15 C 14.167969 15 14.003906 15.066406 13.882812 15.1875 C 13.761719 15.304688 13.695312 15.46875 13.695312 15.640625 L 13.695312 16.441406 C 13.695312 16.796875 13.984375 17.085938 14.339844 17.085938 L 14.796875 17.085938 C 14.964844 17.085938 15.128906 17.015625 15.25 16.894531 C 15.371094 16.773438 15.4375 16.609375 15.433594 16.441406 L 15.433594 15.640625 C 15.433594 15.285156 15.148438 15 14.796875 15 Z M 14.796875 15 "/>
<path style=" stroke:none;fill-rule:nonzero;fill:rgb(79.607843%,79.607843%,79.607843%);fill-opacity:1;" d="M 17.230469 15 L 16.773438 15 C 16.421875 15 16.136719 15.285156 16.136719 15.640625 L 16.136719 16.441406 C 16.132812 16.609375 16.199219 16.773438 16.320312 16.894531 C 16.441406 17.015625 16.605469 17.085938 16.773438 17.085938 L 17.230469 17.085938 C 17.402344 17.085938 17.5625 17.015625 17.683594 16.894531 C 17.804688 16.773438 17.871094 16.609375 17.871094 16.441406 L 17.871094 15.640625 C 17.871094 15.285156 17.582031 15 17.230469 15 Z M 17.230469 15 "/>
<path style=" stroke:none;fill-rule:nonzero;fill:rgb(79.607843%,79.607843%,79.607843%);fill-opacity:1;" d="M 19.664062 15 L 19.214844 15 C 19.042969 15 18.878906 15.066406 18.757812 15.1875 C 18.636719 15.304688 18.570312 15.46875 18.570312 15.640625 L 18.570312 16.441406 C 18.570312 16.796875 18.859375 17.085938 19.214844 17.085938 L 19.664062 17.085938 C 20.019531 17.085938 20.308594 16.796875 20.308594 16.441406 L 20.308594 15.640625 C 20.308594 15.46875 20.242188 15.304688 20.121094 15.1875 C 20 15.066406 19.835938 15 19.664062 15 Z M 19.664062 15 "/>
<path style=" stroke:none;fill-rule:nonzero;fill:rgb(79.607843%,79.607843%,79.607843%);fill-opacity:1;" d="M 23.34375 15 L 21.578125 15 C 21.410156 15 21.246094 15.066406 21.125 15.1875 C 21.003906 15.304688 20.933594 15.46875 20.933594 15.640625 L 20.933594 16.441406 C 20.933594 16.796875 21.222656 17.085938 21.578125 17.085938 L 23.34375 17.085938 C 23.523438 17.089844 23.695312 17.019531 23.816406 16.894531 C 23.941406 16.765625 24.007812 16.59375 24 16.414062 L 24 15.613281 C 23.988281 15.265625 23.695312 14.992188 23.34375 15 Z M 23.34375 15 "/>
<path style=" stroke:none;fill-rule:nonzero;fill:rgb(92.54902%,25.098039%,47.843137%);fill-opacity:1;" d="M 9.804688 15 L 8.578125 15 C 8.226562 15 7.941406 15.285156 7.941406 15.640625 L 7.941406 16.441406 C 7.9375 16.609375 8.003906 16.773438 8.125 16.894531 C 8.246094 17.015625 8.410156 17.085938 8.578125 17.085938 L 9.804688 17.085938 C 10.160156 17.085938 10.449219 16.796875 10.449219 16.441406 L 10.449219 15.640625 C 10.449219 15.46875 10.382812 15.304688 10.261719 15.1875 C 10.140625 15.066406 9.976562 15 9.804688 15 Z M 9.804688 15 "/>
</g>
</svg>
