
<svg xmlns="http://www.w3.org/2000/svg" xmlns:xlink="http://www.w3.org/1999/xlink" width="32px" height="32px" viewBox="0 0 32 32" version="1.1">
<g id="surface1">
<path style=" stroke:none;fill-rule:nonzero;fill:rgb(92.54902%,25.098039%,47.843137%);fill-opacity:1;" d="M 2.695312 0 L 29.304688 0 C 30.792969 0 32 1.207031 32 2.695312 L 32 29.304688 C 32 30.792969 30.792969 32 29.304688 32 L 2.695312 32 C 1.207031 32 0 30.792969 0 29.304688 L 0 2.695312 C 0 1.207031 1.207031 0 2.695312 0 Z M 2.695312 0 "/>
<path style=" stroke:none;fill-rule:nonzero;fill:rgb(16.078431%,71.372549%,96.470588%);fill-opacity:1;" d="M 10.5 22.238281 L 11.714844 20.328125 L 12.015625 19.859375 L 18.214844 19.859375 C 18.511719 18.890625 19.402344 18.230469 20.414062 18.230469 L 20.5 18.230469 C 20.425781 18.179688 20.355469 18.125 20.273438 18.078125 L 17.351562 16.429688 C 16.988281 16.226562 16.769531 15.84375 16.773438 15.429688 L 16.773438 14.660156 C 17.710938 14.039062 18.277344 12.988281 18.273438 11.863281 L 18.273438 10.820312 C 18.324219 9.59375 17.695312 8.4375 16.640625 7.8125 C 15.585938 7.183594 14.269531 7.183594 13.214844 7.8125 C 12.160156 8.4375 11.53125 9.59375 11.578125 10.820312 L 11.578125 11.863281 C 11.578125 12.988281 12.140625 14.039062 13.078125 14.660156 L 13.078125 15.445312 C 13.085938 15.859375 12.863281 16.242188 12.503906 16.445312 L 9.585938 18.09375 C 8.347656 18.796875 7.585938 20.109375 7.585938 21.53125 L 7.585938 23.03125 L 10.085938 23.03125 L 10.011719 22.964844 Z M 10.5 22.238281 "/>
<path style=" stroke:none;fill-rule:nonzero;fill:rgb(89.803922%,89.803922%,89.803922%);fill-opacity:1;" d="M 19.15625 21.734375 L 12.019531 21.734375 L 11.949219 21.828125 L 11.640625 22.316406 L 19.15625 22.316406 Z M 19.15625 21.734375 "/>
<path style=" stroke:none;fill-rule:nonzero;fill:rgb(100%,100%,100%);fill-opacity:1;" d="M 24.144531 19.246094 L 20.414062 19.246094 C 19.707031 19.246094 19.128906 19.820312 19.128906 20.53125 L 19.128906 20.875 L 12.558594 20.875 L 11.949219 21.828125 L 12.015625 21.734375 L 19.15625 21.734375 L 19.15625 22.316406 L 11.65625 22.316406 L 11.355469 22.785156 L 12.574219 23.910156 L 19.128906 23.910156 L 19.128906 24.253906 C 19.128906 24.964844 19.703125 25.542969 20.414062 25.546875 L 24.144531 25.546875 C 24.855469 25.542969 25.429688 24.964844 25.429688 24.253906 L 25.429688 20.53125 C 25.429688 19.820312 24.855469 19.246094 24.144531 19.246094 Z M 24.234375 23.101562 C 24.230469 23.476562 23.925781 23.78125 23.550781 23.78125 C 23.457031 23.78125 23.363281 23.761719 23.28125 23.71875 C 23.03125 23.613281 22.871094 23.371094 22.871094 23.101562 L 22.871094 21.691406 C 22.875 21.433594 23.019531 21.199219 23.25 21.085938 C 23.34375 21.035156 23.445312 21.007812 23.550781 21.003906 C 23.925781 21.007812 24.230469 21.3125 24.234375 21.691406 Z M 24.234375 23.101562 "/>
<path style=" stroke:none;fill-rule:nonzero;fill:rgb(100%,100%,100%);fill-opacity:1;" d="M 11.613281 22.316406 L 11.640625 22.316406 L 11.949219 21.828125 Z M 11.613281 22.316406 "/>
</g>
</svg>
