
<svg xmlns="http://www.w3.org/2000/svg" xmlns:xlink="http://www.w3.org/1999/xlink" width="32px" height="32px" viewBox="0 0 32 32" version="1.1">
<defs>
<linearGradient id="linear0" gradientUnits="userSpaceOnUse" x1="-571.81" y1="-2840.37" x2="-571.81" y2="-2826.56" gradientTransform="matrix(0.353553,-0.353553,0.353553,0.353553,1218.762394,814.685006)">
<stop offset="0" style="stop-color:rgb(100%,100%,100%);stop-opacity:0;"/>
<stop offset="1" style="stop-color:rgb(100%,100%,100%);stop-opacity:1;"/>
</linearGradient>
</defs>
<g id="surface1">
<path style=" stroke:none;fill-rule:nonzero;fill:rgb(36.078431%,41.960784%,75.294118%);fill-opacity:1;" d="M 2.695312 0 L 29.304688 0 C 30.792969 0 32 1.207031 32 2.695312 L 32 29.304688 C 32 30.792969 30.792969 32 29.304688 32 L 2.695312 32 C 1.207031 32 0 30.792969 0 29.304688 L 0 2.695312 C 0 1.207031 1.207031 0 2.695312 0 Z M 2.695312 0 "/>
<path style=" stroke:none;fill-rule:nonzero;fill:rgb(100%,100%,100%);fill-opacity:1;" d="M 14.605469 7.710938 C 14.917969 7.691406 15.222656 7.800781 15.453125 8.011719 L 23 15.554688 L 25.625 18.179688 C 26.480469 19.035156 25.441406 21.453125 23.308594 23.585938 C 21.683594 25.210938 19.890625 26.199219 18.75 26.199219 C 18.4375 26.21875 18.132812 26.109375 17.898438 25.898438 L 7.726562 15.726562 C 6.871094 14.871094 7.90625 12.449219 10.039062 10.316406 C 11.664062 8.691406 13.453125 7.699219 14.59375 7.699219 M 14.59375 6.949219 C 13.203125 6.949219 11.253906 8.035156 9.511719 9.785156 C 7.335938 12 5.839844 14.898438 7.203125 16.265625 L 17.378906 26.441406 C 17.753906 26.789062 18.25 26.96875 18.761719 26.941406 C 20.148438 26.941406 22.101562 25.855469 23.851562 24.105469 C 24.863281 23.125 25.6875 21.96875 26.285156 20.691406 C 27.050781 18.90625 26.535156 18.011719 26.164062 17.640625 L 23.53125 15 L 16 7.5 C 15.628906 7.152344 15.128906 6.972656 14.621094 7 Z M 14.59375 6.949219 "/>
<path style=" stroke:none;fill-rule:nonzero;fill:url(#linear0);" d="M 7.734375 15.734375 L 15.453125 8.015625 L 21.449219 14.011719 L 13.730469 21.730469 Z M 7.734375 15.734375 "/>
<path style=" stroke:none;fill-rule:nonzero;fill:rgb(100%,100%,100%);fill-opacity:1;" d="M 15.453125 8.007812 C 14.601562 7.15625 12.179688 8.191406 10.046875 10.324219 C 7.914062 12.457031 6.878906 14.878906 7.730469 15.730469 C 8.585938 16.582031 11.003906 15.546875 13.136719 13.414062 C 15.269531 11.28125 16.304688 8.863281 15.453125 8.007812 Z M 15.453125 8.007812 "/>
<path style=" stroke:none;fill-rule:nonzero;fill:rgb(70.196078%,70.196078%,70.196078%);fill-opacity:1;" d="M 12.90625 8.558594 C 12.394531 8.046875 10.945312 8.667969 9.667969 9.941406 C 8.390625 11.21875 7.769531 12.671875 8.28125 13.183594 C 8.792969 13.691406 10.242188 13.074219 11.519531 11.796875 C 12.796875 10.519531 13.417969 9.070312 12.90625 8.558594 Z M 12.90625 8.558594 "/>
<path style=" stroke:none;fill-rule:nonzero;fill:rgb(100%,100%,100%);fill-opacity:1;" d="M 12.117188 7.816406 C 11.605469 7.304688 10.15625 7.925781 8.878906 9.203125 C 7.601562 10.480469 6.980469 11.929688 7.492188 12.441406 C 8.003906 12.953125 9.457031 12.332031 10.734375 11.054688 C 12.007812 9.777344 12.628906 8.328125 12.117188 7.816406 Z M 12.117188 7.816406 "/>
<path style=" stroke:none;fill-rule:nonzero;fill:rgb(16.078431%,71.372549%,96.470588%);fill-opacity:1;" d="M 15.273438 23.273438 L 17.898438 25.898438 C 18.753906 26.753906 21.175781 25.71875 23.308594 23.585938 C 25.445312 21.449219 26.480469 19.035156 25.625 18.179688 L 23 15.554688 Z M 15.273438 23.273438 "/>
<path style=" stroke:none;fill-rule:nonzero;fill:rgb(100%,100%,100%);fill-opacity:1;" d="M 22.996094 15.558594 C 22.140625 14.703125 19.722656 15.742188 17.589844 17.871094 C 15.457031 20.003906 14.417969 22.425781 15.273438 23.277344 C 16.125 24.132812 18.546875 23.09375 20.679688 20.964844 C 22.8125 18.832031 23.847656 16.410156 22.996094 15.558594 Z M 22.996094 15.558594 "/>
<path style=" stroke:none;fill-rule:nonzero;fill:rgb(16.078431%,71.372549%,96.470588%);fill-opacity:1;" d="M 11.953125 19.953125 L 14.578125 22.578125 C 15.433594 23.433594 17.855469 22.398438 19.988281 20.265625 C 22.125 18.128906 23.160156 15.714844 22.304688 14.859375 L 19.679688 12.234375 Z M 11.953125 19.953125 "/>
<path style=" stroke:none;fill-rule:nonzero;fill:rgb(100%,100%,100%);fill-opacity:1;" d="M 19.675781 12.238281 C 18.820312 11.382812 16.402344 12.421875 14.269531 14.554688 C 12.136719 16.683594 11.101562 19.105469 11.953125 19.957031 C 12.804688 20.8125 15.226562 19.773438 17.359375 17.644531 C 19.492188 15.511719 20.527344 13.089844 19.675781 12.238281 Z M 19.675781 12.238281 "/>
</g>
</svg>
