
<svg xmlns="http://www.w3.org/2000/svg" xmlns:xlink="http://www.w3.org/1999/xlink" width="32px" height="32px" viewBox="0 0 32 32" version="1.1">
<g id="surface1">
<path style=" stroke:none;fill-rule:nonzero;fill:rgb(36.078431%,41.960784%,75.294118%);fill-opacity:1;" d="M 2.695312 0 L 29.304688 0 C 30.792969 0 32 1.207031 32 2.695312 L 32 29.304688 C 32 30.792969 30.792969 32 29.304688 32 L 2.695312 32 C 1.207031 32 0 30.792969 0 29.304688 L 0 2.695312 C 0 1.207031 1.207031 0 2.695312 0 Z M 2.695312 0 "/>
<path style=" stroke:none;fill-rule:nonzero;fill:rgb(100%,100%,100%);fill-opacity:1;" d="M 26.160156 12.628906 L 5.839844 12.628906 L 8.964844 8.910156 C 9.113281 8.734375 9.332031 8.636719 9.558594 8.636719 L 22.441406 8.636719 C 22.667969 8.636719 22.886719 8.734375 23.035156 8.910156 Z M 26.160156 12.628906 "/>
<path style=" stroke:none;fill-rule:nonzero;fill:rgb(89.803922%,89.803922%,89.803922%);fill-opacity:1;" d="M 5.839844 12.628906 L 26.160156 12.628906 L 26.160156 20.851562 C 26.160156 21.277344 25.8125 21.625 25.386719 21.625 L 6.613281 21.625 C 6.1875 21.625 5.839844 21.277344 5.839844 20.851562 Z M 5.839844 12.628906 "/>
<path style=" stroke:none;fill-rule:nonzero;fill:rgb(16.078431%,71.372549%,96.470588%);fill-opacity:1;" d="M 23.890625 25.660156 L 8.109375 25.660156 C 7.890625 25.660156 7.6875 25.550781 7.558594 25.375 C 7.433594 25.195312 7.398438 24.96875 7.46875 24.761719 L 9.726562 18.296875 L 22.273438 18.296875 L 24.53125 24.761719 C 24.601562 24.96875 24.570312 25.195312 24.445312 25.375 C 24.316406 25.554688 24.109375 25.660156 23.890625 25.660156 Z M 23.890625 25.660156 "/>
<path style=" stroke:none;fill-rule:nonzero;fill:rgb(16.078431%,71.372549%,96.470588%);fill-opacity:1;" d="M 9.726562 8.636719 L 22.273438 8.636719 L 22.273438 14.113281 L 9.726562 14.113281 Z M 9.726562 8.636719 "/>
<path style=" stroke:none;fill-rule:nonzero;fill:rgb(100%,100%,100%);fill-opacity:1;" d="M 22.648438 24.03125 L 9.351562 24.03125 L 10.613281 19.21875 L 21.386719 19.21875 Z M 22.648438 24.03125 "/>
<path style=" stroke:none;fill-rule:nonzero;fill:rgb(79.607843%,79.607843%,79.607843%);fill-opacity:1;" d="M 5.839844 15.964844 L 26.160156 15.964844 L 26.160156 16.855469 L 5.839844 16.855469 Z M 5.839844 15.964844 "/>
<path style=" stroke:none;fill-rule:nonzero;fill:rgb(92.54902%,25.098039%,47.843137%);fill-opacity:1;" d="M 12.085938 20.039062 L 19.921875 20.039062 C 20.191406 20.039062 20.410156 20.257812 20.410156 20.53125 C 20.410156 20.800781 20.191406 21.019531 19.921875 21.019531 L 12.085938 21.019531 C 11.8125 21.019531 11.59375 20.800781 11.59375 20.53125 C 11.59375 20.257812 11.8125 20.039062 12.085938 20.039062 Z M 12.085938 20.039062 "/>
<path style=" stroke:none;fill-rule:nonzero;fill:rgb(92.54902%,25.098039%,47.843137%);fill-opacity:1;" d="M 11.464844 21.769531 L 20.539062 21.769531 C 20.8125 21.769531 21.03125 21.988281 21.03125 22.261719 C 21.03125 22.53125 20.8125 22.75 20.539062 22.75 L 11.464844 22.75 C 11.195312 22.75 10.976562 22.53125 10.976562 22.261719 C 10.976562 21.988281 11.195312 21.769531 11.464844 21.769531 Z M 11.464844 21.769531 "/>
<path style=" stroke:none;fill-rule:nonzero;fill:rgb(92.54902%,25.098039%,47.843137%);fill-opacity:1;" d="M 24.839844 14.335938 C 24.839844 14.714844 24.535156 15.019531 24.15625 15.019531 C 23.777344 15.019531 23.46875 14.714844 23.46875 14.335938 C 23.46875 13.957031 23.777344 13.648438 24.15625 13.648438 C 24.535156 13.648438 24.839844 13.957031 24.839844 14.335938 Z M 24.839844 14.335938 "/>
<path style=" stroke:none;fill-rule:nonzero;fill:rgb(100%,100%,100%);fill-opacity:1;" d="M 19.144531 6.339844 L 10.613281 6.339844 L 10.613281 11.171875 L 21.386719 11.171875 L 21.386719 8.398438 Z M 19.144531 6.339844 "/>
<path style=" stroke:none;fill-rule:nonzero;fill:rgb(79.607843%,79.607843%,79.607843%);fill-opacity:1;" d="M 19.144531 8.398438 L 21.386719 8.398438 L 19.144531 6.339844 Z M 19.144531 8.398438 "/>
</g>
</svg>
