
<svg xmlns="http://www.w3.org/2000/svg" xmlns:xlink="http://www.w3.org/1999/xlink" width="32px" height="32px" viewBox="0 0 32 32" version="1.1">
<g id="surface1">
<path style=" stroke:none;fill-rule:nonzero;fill:rgb(49.411765%,34.117647%,76.862745%);fill-opacity:1;" d="M 2.695312 0 L 29.304688 0 C 30.792969 0 32 1.207031 32 2.695312 L 32 29.304688 C 32 30.792969 30.792969 32 29.304688 32 L 2.695312 32 C 1.207031 32 0 30.792969 0 29.304688 L 0 2.695312 C 0 1.207031 1.207031 0 2.695312 0 Z M 2.695312 0 "/>
<path style=" stroke:none;fill-rule:nonzero;fill:rgb(100%,100%,100%);fill-opacity:1;" d="M 25.886719 25.621094 L 9.039062 25.621094 C 8.542969 25.621094 8.140625 25.21875 8.140625 24.71875 L 8.140625 10.425781 C 8.140625 9.929688 8.542969 9.523438 9.039062 9.523438 L 25.886719 9.523438 C 26.382812 9.523438 26.785156 9.929688 26.785156 10.425781 L 26.785156 24.71875 C 26.785156 25.21875 26.382812 25.621094 25.886719 25.621094 Z M 25.886719 25.621094 "/>
<path style=" stroke:none;fill-rule:nonzero;fill:rgb(92.54902%,25.098039%,47.843137%);fill-opacity:1;" d="M 9.046875 9.109375 L 25.886719 9.109375 C 26.613281 9.109375 27.203125 9.699219 27.203125 10.429688 L 27.203125 24.71875 C 27.203125 25.445312 26.613281 26.035156 25.886719 26.035156 L 9.046875 26.035156 C 8.320312 26.035156 7.730469 25.445312 7.730469 24.71875 L 7.730469 10.429688 C 7.730469 9.703125 8.316406 9.113281 9.046875 9.109375 Z M 25.886719 25.203125 C 26.160156 25.203125 26.386719 24.980469 26.386719 24.703125 L 26.386719 10.429688 C 26.386719 10.152344 26.160156 9.929688 25.886719 9.929688 L 9.046875 9.929688 C 8.769531 9.929688 8.546875 10.152344 8.546875 10.429688 L 8.546875 24.71875 C 8.546875 24.996094 8.769531 25.21875 9.046875 25.21875 Z M 25.886719 25.203125 "/>
<path style=" stroke:none;fill-rule:nonzero;fill:rgb(100%,100%,100%);fill-opacity:1;" d="M 22.953125 22.476562 L 6.109375 22.476562 C 5.613281 22.476562 5.210938 22.070312 5.210938 21.574219 L 5.210938 7.28125 C 5.210938 6.78125 5.613281 6.378906 6.109375 6.378906 L 22.953125 6.378906 C 23.453125 6.378906 23.855469 6.78125 23.855469 7.28125 L 23.855469 21.574219 C 23.855469 22.070312 23.453125 22.476562 22.953125 22.476562 Z M 22.953125 22.476562 "/>
<path style=" stroke:none;fill-rule:nonzero;fill:rgb(92.54902%,25.098039%,47.843137%);fill-opacity:1;" d="M 6.113281 5.964844 L 22.953125 5.964844 C 23.679688 5.964844 24.269531 6.554688 24.269531 7.28125 L 24.269531 21.570312 C 24.269531 22.296875 23.683594 22.886719 22.953125 22.890625 L 6.113281 22.890625 C 5.386719 22.890625 4.796875 22.300781 4.796875 21.570312 L 4.796875 7.28125 C 4.796875 6.554688 5.386719 5.964844 6.113281 5.964844 Z M 22.953125 22.054688 C 23.230469 22.054688 23.453125 21.832031 23.453125 21.554688 L 23.453125 7.28125 C 23.453125 7.003906 23.230469 6.78125 22.953125 6.78125 L 6.113281 6.78125 C 5.839844 6.78125 5.613281 7.003906 5.613281 7.28125 L 5.613281 21.570312 C 5.613281 21.847656 5.839844 22.070312 6.113281 22.070312 Z M 22.953125 22.054688 "/>
<path style=" stroke:none;fill-rule:nonzero;fill:rgb(92.54902%,25.098039%,47.843137%);fill-opacity:1;" d="M 24.15625 8.230469 L 4.953125 8.230469 L 4.953125 7.191406 C 4.953125 6.617188 5.421875 6.148438 5.996094 6.148438 L 23.109375 6.148438 C 23.683594 6.148438 24.148438 6.617188 24.148438 7.191406 L 24.148438 8.230469 Z M 24.15625 8.230469 "/>
<path style=" stroke:none;fill-rule:nonzero;fill:rgb(100%,100%,100%);fill-opacity:1;" d="M 19.363281 7.21875 C 19.363281 7.566406 19.082031 7.851562 18.734375 7.851562 C 18.386719 7.851562 18.105469 7.566406 18.105469 7.21875 C 18.105469 6.871094 18.386719 6.589844 18.734375 6.589844 C 19.082031 6.589844 19.363281 6.871094 19.363281 7.21875 Z M 19.363281 7.21875 "/>
<path style=" stroke:none;fill-rule:nonzero;fill:rgb(100%,100%,100%);fill-opacity:1;" d="M 21.464844 7.21875 C 21.464844 7.566406 21.183594 7.851562 20.835938 7.851562 C 20.488281 7.851562 20.203125 7.566406 20.203125 7.21875 C 20.203125 6.871094 20.488281 6.589844 20.835938 6.589844 C 21.183594 6.589844 21.464844 6.871094 21.464844 7.21875 Z M 21.464844 7.21875 "/>
<path style=" stroke:none;fill-rule:nonzero;fill:rgb(100%,100%,100%);fill-opacity:1;" d="M 23.570312 7.21875 C 23.570312 7.566406 23.289062 7.851562 22.941406 7.851562 C 22.59375 7.851562 22.308594 7.566406 22.308594 7.21875 C 22.308594 6.871094 22.59375 6.589844 22.941406 6.589844 C 23.289062 6.589844 23.570312 6.871094 23.570312 7.21875 Z M 23.570312 7.21875 "/>
</g>
</svg>
