
<svg xmlns="http://www.w3.org/2000/svg" xmlns:xlink="http://www.w3.org/1999/xlink" width="32px" height="32px" viewBox="0 0 32 32" version="1.1">
<defs>
<clipPath id="clip1">
  <path d="M 2.332031 0 L 14.332031 0 L 14.332031 32 L 2.332031 32 Z M 2.332031 0 "/>
</clipPath>
<clipPath id="clip2">
  <path d="M 2.695312 0 L 29.304688 0 C 30.792969 0 32 1.207031 32 2.695312 L 32 29.304688 C 32 30.792969 30.792969 32 29.304688 32 L 2.695312 32 C 1.207031 32 0 30.792969 0 29.304688 L 0 2.695312 C 0 1.207031 1.207031 0 2.695312 0 Z M 2.695312 0 "/>
</clipPath>
<clipPath id="clip3">
  <path d="M 8.332031 0 L 23.667969 0 L 23.667969 32 L 8.332031 32 Z M 8.332031 0 "/>
</clipPath>
<clipPath id="clip4">
  <path d="M 2.695312 0 L 29.304688 0 C 30.792969 0 32 1.207031 32 2.695312 L 32 29.304688 C 32 30.792969 30.792969 32 29.304688 32 L 2.695312 32 C 1.207031 32 0 30.792969 0 29.304688 L 0 2.695312 C 0 1.207031 1.207031 0 2.695312 0 Z M 2.695312 0 "/>
</clipPath>
<clipPath id="clip5">
  <path d="M 17.667969 0 L 29.332031 0 L 29.332031 32 L 17.667969 32 Z M 17.667969 0 "/>
</clipPath>
<clipPath id="clip6">
  <path d="M 2.695312 0 L 29.304688 0 C 30.792969 0 32 1.207031 32 2.695312 L 32 29.304688 C 32 30.792969 30.792969 32 29.304688 32 L 2.695312 32 C 1.207031 32 0 30.792969 0 29.304688 L 0 2.695312 C 0 1.207031 1.207031 0 2.695312 0 Z M 2.695312 0 "/>
</clipPath>
<clipPath id="clip7">
  <path d="M 13.667969 2.667969 L 18.667969 2.667969 L 18.667969 32 L 13.667969 32 Z M 13.667969 2.667969 "/>
</clipPath>
<clipPath id="clip8">
  <path d="M 2.695312 0 L 29.304688 0 C 30.792969 0 32 1.207031 32 2.695312 L 32 29.304688 C 32 30.792969 30.792969 32 29.304688 32 L 2.695312 32 C 1.207031 32 0 30.792969 0 29.304688 L 0 2.695312 C 0 1.207031 1.207031 0 2.695312 0 Z M 2.695312 0 "/>
</clipPath>
<clipPath id="clip9">
  <path d="M 18.332031 2.332031 L 18.667969 2.332031 L 18.667969 3 L 18.332031 3 Z M 18.332031 2.332031 "/>
</clipPath>
<clipPath id="clip10">
  <path d="M 2.695312 0 L 29.304688 0 C 30.792969 0 32 1.207031 32 2.695312 L 32 29.304688 C 32 30.792969 30.792969 32 29.304688 32 L 2.695312 32 C 1.207031 32 0 30.792969 0 29.304688 L 0 2.695312 C 0 1.207031 1.207031 0 2.695312 0 Z M 2.695312 0 "/>
</clipPath>
<clipPath id="clip11">
  <path d="M 13 2 L 18.667969 2 L 18.667969 32 L 13 32 Z M 13 2 "/>
</clipPath>
<clipPath id="clip12">
  <path d="M 2.695312 0 L 29.304688 0 C 30.792969 0 32 1.207031 32 2.695312 L 32 29.304688 C 32 30.792969 30.792969 32 29.304688 32 L 2.695312 32 C 1.207031 32 0 30.792969 0 29.304688 L 0 2.695312 C 0 1.207031 1.207031 0 2.695312 0 Z M 2.695312 0 "/>
</clipPath>
<clipPath id="clip13">
  <path d="M 13.332031 2.332031 L 18.667969 2.332031 L 18.667969 32 L 13.332031 32 Z M 13.332031 2.332031 "/>
</clipPath>
<clipPath id="clip14">
  <path d="M 2.695312 0 L 29.304688 0 C 30.792969 0 32 1.207031 32 2.695312 L 32 29.304688 C 32 30.792969 30.792969 32 29.304688 32 L 2.695312 32 C 1.207031 32 0 30.792969 0 29.304688 L 0 2.695312 C 0 1.207031 1.207031 0 2.695312 0 Z M 2.695312 0 "/>
</clipPath>
<clipPath id="clip15">
  <path d="M 10.332031 0 L 21.667969 0 L 21.667969 5.667969 L 10.332031 5.667969 Z M 10.332031 0 "/>
</clipPath>
<clipPath id="clip16">
  <path d="M 2.695312 0 L 29.304688 0 C 30.792969 0 32 1.207031 32 2.695312 L 32 29.304688 C 32 30.792969 30.792969 32 29.304688 32 L 2.695312 32 C 1.207031 32 0 30.792969 0 29.304688 L 0 2.695312 C 0 1.207031 1.207031 0 2.695312 0 Z M 2.695312 0 "/>
</clipPath>
<clipPath id="clip17">
  <path d="M 15 10 L 16.667969 10 L 16.667969 11.667969 L 15 11.667969 Z M 15 10 "/>
</clipPath>
<clipPath id="clip18">
  <path d="M 2.695312 0 L 29.304688 0 C 30.792969 0 32 1.207031 32 2.695312 L 32 29.304688 C 32 30.792969 30.792969 32 29.304688 32 L 2.695312 32 C 1.207031 32 0 30.792969 0 29.304688 L 0 2.695312 C 0 1.207031 1.207031 0 2.695312 0 Z M 2.695312 0 "/>
</clipPath>
<linearGradient id="linear0" gradientUnits="userSpaceOnUse" x1="30.56" y1="21.72" x2="33.25" y2="21.72" gradientTransform="matrix(0.5,0,0,0.5,0,0)">
<stop offset="0" style="stop-color:rgb(25.490196%,74.117647%,83.137255%);stop-opacity:1;"/>
<stop offset="1" style="stop-color:rgb(50.980392%,32.54902%,83.921569%);stop-opacity:1;"/>
</linearGradient>
<clipPath id="clip19">
  <path d="M 15 20.667969 L 16.667969 20.667969 L 16.667969 22.332031 L 15 22.332031 Z M 15 20.667969 "/>
</clipPath>
<clipPath id="clip20">
  <path d="M 2.695312 0 L 29.304688 0 C 30.792969 0 32 1.207031 32 2.695312 L 32 29.304688 C 32 30.792969 30.792969 32 29.304688 32 L 2.695312 32 C 1.207031 32 0 30.792969 0 29.304688 L 0 2.695312 C 0 1.207031 1.207031 0 2.695312 0 Z M 2.695312 0 "/>
</clipPath>
<linearGradient id="linear1" gradientUnits="userSpaceOnUse" x1="30.56" y1="42.73" x2="33.25" y2="42.73" gradientTransform="matrix(0.5,0,0,0.5,0,0)">
<stop offset="0" style="stop-color:rgb(25.490196%,74.117647%,83.137255%);stop-opacity:1;"/>
<stop offset="1" style="stop-color:rgb(50.980392%,32.54902%,83.921569%);stop-opacity:1;"/>
</linearGradient>
</defs>
<g id="surface1">
<path style=" stroke:none;fill-rule:nonzero;fill:rgb(32.941176%,29.803922%,40.784314%);fill-opacity:1;" d="M 2.695312 0 L 29.304688 0 C 30.792969 0 32 1.207031 32 2.695312 L 32 29.304688 C 32 30.792969 30.792969 32 29.304688 32 L 2.695312 32 C 1.207031 32 0 30.792969 0 29.304688 L 0 2.695312 C 0 1.207031 1.207031 0 2.695312 0 Z M 2.695312 0 "/>
<g clip-path="url(#clip1)" clip-rule="nonzero">
<g clip-path="url(#clip2)" clip-rule="nonzero">
<path style=" stroke:none;fill-rule:nonzero;fill:rgb(79.607843%,79.607843%,79.607843%);fill-opacity:1;" d="M 8.304688 0 C 6.183594 0 4 -3.035156 2.535156 -1.730469 C 2.875 4.433594 4.355469 22.820312 8.5 32 L 14.164062 32 C 9.414062 21.5 8.5 3.949219 8.351562 0 Z M 8.304688 0 "/>
</g>
</g>
<g clip-path="url(#clip3)" clip-rule="nonzero">
<g clip-path="url(#clip4)" clip-rule="nonzero">
<path style=" stroke:none;fill-rule:nonzero;fill:rgb(96.862745%,96.862745%,96.862745%);fill-opacity:1;" d="M 8.351562 0 C 8.5 3.949219 9.414062 21.5 14.164062 32 L 17.835938 32 C 22.585938 21.5 23.5 3.949219 23.648438 0 Z M 8.351562 0 "/>
</g>
</g>
<g clip-path="url(#clip5)" clip-rule="nonzero">
<g clip-path="url(#clip6)" clip-rule="nonzero">
<path style=" stroke:none;fill-rule:nonzero;fill:rgb(79.607843%,79.607843%,79.607843%);fill-opacity:1;" d="M 23.695312 0 L 23.648438 0 C 23.5 3.949219 22.585938 21.5 17.835938 32 L 23.5 32 C 27.644531 22.820312 29 6.050781 29.328125 -0.113281 C 27.863281 -1.414062 25.816406 0 23.695312 0 Z M 23.695312 0 "/>
</g>
</g>
<g clip-path="url(#clip7)" clip-rule="nonzero">
<g clip-path="url(#clip8)" clip-rule="nonzero">
<path style=" stroke:none;fill-rule:nonzero;fill:rgb(94.509804%,94.509804%,94.509804%);fill-opacity:1;" d="M 14.355469 32 L 17.953125 32 L 18.640625 2.785156 L 13.671875 2.785156 Z M 14.355469 32 "/>
</g>
</g>
<g clip-path="url(#clip9)" clip-rule="nonzero">
<g clip-path="url(#clip10)" clip-rule="nonzero">
<path style=" stroke:none;fill-rule:nonzero;fill:rgb(89.803922%,89.803922%,89.803922%);fill-opacity:1;" d="M 18.644531 2.785156 L 18.644531 2.515625 L 18.640625 2.785156 Z M 18.644531 2.785156 "/>
</g>
</g>
<g clip-path="url(#clip11)" clip-rule="nonzero">
<g clip-path="url(#clip12)" clip-rule="nonzero">
<path style=" stroke:none;fill-rule:nonzero;fill:rgb(89.803922%,89.803922%,89.803922%);fill-opacity:1;" d="M 13.394531 2.515625 L 18.644531 2.515625 L 18.644531 2.246094 L 13.121094 2.246094 L 13.820312 32 L 14.089844 32 Z M 13.394531 2.515625 "/>
</g>
</g>
<g clip-path="url(#clip13)" clip-rule="nonzero">
<g clip-path="url(#clip14)" clip-rule="nonzero">
<path style=" stroke:none;fill-rule:nonzero;fill:rgb(89.803922%,89.803922%,89.803922%);fill-opacity:1;" d="M 14.089844 32 L 14.355469 32 L 13.671875 2.785156 L 18.640625 2.785156 L 18.644531 2.515625 L 13.394531 2.515625 Z M 14.089844 32 "/>
</g>
</g>
<g clip-path="url(#clip15)" clip-rule="nonzero">
<g clip-path="url(#clip16)" clip-rule="nonzero">
<path style=" stroke:none;fill-rule:nonzero;fill:rgb(92.54902%,25.098039%,47.843137%);fill-opacity:1;" d="M 21.589844 0.523438 C 21.589844 0.433594 21.542969 0.351562 21.464844 0.304688 C 21.386719 0.257812 21.289062 0.253906 21.210938 0.296875 L 17.125 1.296875 C 17.027344 0.980469 16.734375 0.761719 16.40625 0.761719 L 15.40625 0.761719 C 15.105469 0.761719 14.835938 0.9375 14.710938 1.210938 L 10.789062 0.296875 C 10.710938 0.253906 10.613281 0.257812 10.535156 0.304688 C 10.457031 0.351562 10.410156 0.433594 10.410156 0.523438 L 10.410156 5.128906 C 10.410156 5.222656 10.457031 5.304688 10.535156 5.351562 C 10.613281 5.398438 10.710938 5.402344 10.789062 5.359375 L 14.859375 3.164062 C 15.003906 3.320312 15.203125 3.410156 15.414062 3.410156 L 16.414062 3.410156 C 16.648438 3.402344 16.863281 3.285156 17 3.09375 L 21.195312 5.359375 C 21.277344 5.402344 21.371094 5.398438 21.449219 5.351562 C 21.527344 5.304688 21.574219 5.222656 21.574219 5.128906 Z M 21.589844 0.523438 "/>
</g>
</g>
<g clip-path="url(#clip17)" clip-rule="nonzero">
<g clip-path="url(#clip18)" clip-rule="nonzero">
<path style=" stroke:none;fill-rule:nonzero;fill:url(#linear0);" d="M 16.628906 10.859375 C 16.628906 11.234375 16.328125 11.535156 15.953125 11.535156 C 15.582031 11.535156 15.28125 11.234375 15.28125 10.859375 C 15.28125 10.488281 15.582031 10.183594 15.953125 10.183594 C 16.328125 10.183594 16.628906 10.488281 16.628906 10.859375 Z M 16.628906 10.859375 "/>
</g>
</g>
<g clip-path="url(#clip19)" clip-rule="nonzero">
<g clip-path="url(#clip20)" clip-rule="nonzero">
<path style=" stroke:none;fill-rule:nonzero;fill:url(#linear1);" d="M 16.628906 21.363281 C 16.628906 21.738281 16.328125 22.039062 15.953125 22.039062 C 15.582031 22.039062 15.28125 21.738281 15.28125 21.363281 C 15.28125 20.992188 15.582031 20.691406 15.953125 20.691406 C 16.328125 20.691406 16.628906 20.992188 16.628906 21.363281 Z M 16.628906 21.363281 "/>
</g>
</g>
</g>
</svg>
