
<svg xmlns="http://www.w3.org/2000/svg" xmlns:xlink="http://www.w3.org/1999/xlink" width="32px" height="32px" viewBox="0 0 32 32" version="1.1">
<g id="surface1">
<path style=" stroke:none;fill-rule:nonzero;fill:rgb(49.411765%,34.117647%,76.862745%);fill-opacity:1;" d="M 2.695312 0 L 29.304688 0 C 30.792969 0 32 1.207031 32 2.695312 L 32 29.304688 C 32 30.792969 30.792969 32 29.304688 32 L 2.695312 32 C 1.207031 32 0 30.792969 0 29.304688 L 0 2.695312 C 0 1.207031 1.207031 0 2.695312 0 Z M 2.695312 0 "/>
<path style=" stroke:none;fill-rule:nonzero;fill:rgb(100%,100%,100%);fill-opacity:1;" d="M 17.714844 9.339844 C 17.714844 10.289062 16.945312 11.054688 16 11.054688 C 15.054688 11.054688 14.285156 10.289062 14.285156 9.339844 C 14.285156 8.394531 15.054688 7.625 16 7.625 C 16.945312 7.625 17.714844 8.394531 17.714844 9.339844 Z M 17.714844 9.339844 "/>
<path style=" stroke:none;fill-rule:nonzero;fill:rgb(100%,100%,100%);fill-opacity:1;" d="M 18.363281 13.695312 L 22.824219 11.78125 C 23.050781 11.691406 23.230469 11.515625 23.324219 11.296875 C 23.417969 11.074219 23.417969 10.824219 23.324219 10.601562 C 23.128906 10.144531 22.601562 9.929688 22.144531 10.125 L 18.496094 11.691406 C 17.714844 12.023438 16.875 12.191406 16.023438 12.191406 C 15.175781 12.191406 14.335938 12.023438 13.554688 11.691406 L 9.90625 10.125 C 9.449219 9.929688 8.917969 10.144531 8.726562 10.601562 C 8.632812 10.824219 8.632812 11.074219 8.726562 11.296875 C 8.820312 11.515625 9 11.691406 9.226562 11.78125 L 13.5 13.640625 C 13.753906 13.75 13.921875 14 13.921875 14.28125 L 13.765625 17.421875 C 13.761719 17.535156 13.726562 17.648438 13.671875 17.75 L 10.589844 23 C 10.480469 23.175781 10.449219 23.390625 10.5 23.59375 C 10.554688 23.792969 10.6875 23.964844 10.871094 24.066406 L 11.269531 24.285156 C 11.664062 24.488281 12.148438 24.339844 12.363281 23.953125 L 15.238281 18.886719 C 15.378906 18.644531 15.632812 18.5 15.910156 18.5 C 16.1875 18.496094 16.441406 18.640625 16.578125 18.878906 L 19.449219 23.953125 C 19.664062 24.34375 20.152344 24.488281 20.546875 24.285156 L 20.945312 24.066406 C 21.125 23.964844 21.257812 23.792969 21.3125 23.59375 C 21.363281 23.390625 21.332031 23.175781 21.226562 23 L 18.191406 17.828125 C 18.128906 17.730469 18.097656 17.617188 18.09375 17.5 L 17.941406 14.328125 C 17.941406 14.050781 18.109375 13.800781 18.363281 13.695312 Z M 18.363281 13.695312 "/>
</g>
</svg>
