
<svg xmlns="http://www.w3.org/2000/svg" xmlns:xlink="http://www.w3.org/1999/xlink" width="32px" height="32px" viewBox="0 0 32 32" version="1.1">
<g id="surface1">
<path style=" stroke:none;fill-rule:nonzero;fill:rgb(92.54902%,25.098039%,47.843137%);fill-opacity:1;" d="M 32 16 L 32 2.695312 C 32 1.207031 30.792969 0 29.304688 0 L 16 0 L 16 16 Z M 32 16 "/>
<path style=" stroke:none;fill-rule:nonzero;fill:rgb(91.764706%,92.156863%,93.72549%);fill-opacity:1;" d="M 16 0 L 2.695312 0 C 1.207031 0 0 1.207031 0 2.695312 L 0 16 L 16 16 Z M 16 0 "/>
<path style=" stroke:none;fill-rule:nonzero;fill:rgb(16.078431%,71.372549%,96.470588%);fill-opacity:1;" d="M 16 16 L 16 32 L 29.304688 32 C 30.792969 32 32 30.792969 32 29.304688 L 32 16 Z M 16 16 "/>
<path style=" stroke:none;fill-rule:nonzero;fill:rgb(63.137255%,38.431373%,96.862745%);fill-opacity:1;" d="M 0 16 L 0 29.304688 C 0 30.792969 1.207031 32 2.695312 32 L 16 32 L 16 16 Z M 0 16 "/>
<path style=" stroke:none;fill-rule:nonzero;fill:rgb(100%,100%,100%);fill-opacity:1;" d="M 25.34375 26.851562 L 22.929688 26.851562 C 22.355469 26.847656 21.886719 26.382812 21.886719 25.804688 L 21.886719 23.804688 C 21.886719 23.230469 22.355469 22.761719 22.929688 22.761719 L 24.460938 22.761719 C 24.636719 22.761719 24.78125 22.902344 24.78125 23.078125 C 24.78125 23.257812 24.636719 23.398438 24.460938 23.398438 L 22.929688 23.398438 C 22.707031 23.402344 22.527344 23.582031 22.523438 23.804688 L 22.523438 25.804688 C 22.527344 26.027344 22.707031 26.203125 22.929688 26.203125 L 25.34375 26.203125 C 25.453125 26.207031 25.554688 26.164062 25.632812 26.089844 C 25.707031 26.015625 25.75 25.910156 25.75 25.804688 L 25.75 23.804688 C 25.75 23.582031 25.570312 23.398438 25.34375 23.398438 L 25.023438 23.398438 L 25.023438 22.054688 C 25.011719 21.746094 24.753906 21.5 24.445312 21.5 L 24.070312 21.5 C 23.761719 21.503906 23.511719 21.75 23.5 22.054688 L 23.5 22.191406 C 23.515625 22.316406 23.457031 22.4375 23.351562 22.503906 C 23.246094 22.570312 23.109375 22.570312 23.003906 22.503906 C 22.898438 22.4375 22.839844 22.316406 22.855469 22.191406 L 22.855469 22.054688 C 22.859375 21.382812 23.402344 20.835938 24.074219 20.835938 L 24.449219 20.835938 C 25.125 20.835938 25.671875 21.378906 25.675781 22.054688 L 25.675781 22.785156 C 26.109375 22.925781 26.402344 23.328125 26.398438 23.785156 L 26.398438 25.785156 C 26.402344 26.066406 26.292969 26.339844 26.097656 26.539062 C 25.898438 26.738281 25.628906 26.851562 25.34375 26.851562 Z M 25.34375 26.851562 "/>
<path style=" stroke:none;fill-rule:nonzero;fill:rgb(100%,100%,100%);fill-opacity:1;" d="M 23.855469 6.195312 C 24.265625 6.195312 24.59375 6.527344 24.59375 6.933594 C 24.59375 7.34375 24.265625 7.675781 23.855469 7.675781 C 23.445312 7.675781 23.113281 7.34375 23.113281 6.933594 C 23.113281 6.738281 23.191406 6.550781 23.332031 6.410156 C 23.46875 6.269531 23.660156 6.195312 23.855469 6.195312 M 23.855469 5.601562 C 23.359375 5.570312 22.886719 5.816406 22.632812 6.242188 C 22.375 6.667969 22.375 7.199219 22.632812 7.625 C 22.886719 8.046875 23.359375 8.296875 23.855469 8.265625 C 24.351562 8.296875 24.820312 8.046875 25.078125 7.625 C 25.335938 7.199219 25.335938 6.667969 25.078125 6.242188 C 24.820312 5.816406 24.351562 5.570312 23.855469 5.601562 Z M 23.855469 5.601562 "/>
<path style=" stroke:none;fill-rule:nonzero;fill:rgb(100%,100%,100%);fill-opacity:1;" d="M 23.855469 9.160156 C 24.941406 9.160156 25.890625 9.886719 26.175781 10.933594 C 26.179688 10.945312 26.179688 10.957031 26.175781 10.964844 L 21.535156 10.964844 C 21.535156 10.964844 21.535156 10.941406 21.535156 10.933594 C 21.824219 9.886719 22.773438 9.160156 23.859375 9.160156 M 23.859375 8.566406 C 22.503906 8.5625 21.316406 9.472656 20.960938 10.78125 C 20.90625 10.96875 20.945312 11.167969 21.0625 11.324219 C 21.179688 11.476562 21.359375 11.570312 21.554688 11.570312 L 26.164062 11.570312 C 26.359375 11.566406 26.539062 11.476562 26.65625 11.320312 C 26.773438 11.167969 26.8125 10.964844 26.761719 10.78125 C 26.40625 9.472656 25.214844 8.5625 23.859375 8.566406 Z M 23.859375 8.566406 "/>
<path style=" stroke:none;fill-rule:nonzero;fill:rgb(50.196078%,50.196078%,50.196078%);fill-opacity:1;" d="M 10.761719 10.695312 L 10.761719 6.695312 C 10.757812 6.050781 10.238281 5.53125 9.59375 5.53125 L 7.59375 5.53125 C 6.953125 5.53125 6.429688 6.050781 6.429688 6.695312 L 6.429688 9.164062 C 6.300781 9.113281 6.164062 9.085938 6.023438 9.085938 C 5.558594 9.042969 5.144531 9.386719 5.101562 9.855469 C 5.148438 10.308594 5.542969 10.648438 6 10.621094 C 6.464844 10.65625 6.875 10.316406 6.921875 9.851562 L 6.921875 7.160156 C 6.917969 6.894531 7.128906 6.671875 7.394531 6.660156 L 9.734375 6.660156 C 10 6.671875 10.210938 6.894531 10.210938 7.160156 L 10.210938 10.070312 C 10.085938 10.019531 9.953125 9.996094 9.820312 9.996094 C 9.351562 9.957031 8.941406 10.300781 8.894531 10.765625 C 8.941406 11.230469 9.351562 11.574219 9.820312 11.535156 C 10.285156 11.574219 10.699219 11.230469 10.746094 10.765625 C 10.769531 10.738281 10.761719 10.714844 10.761719 10.695312 Z M 10.761719 10.695312 "/>
<path style=" stroke:none;fill-rule:nonzero;fill:rgb(100%,100%,100%);fill-opacity:1;" d="M 12.089844 22.34375 L 10.625 21.84375 C 10.515625 21.808594 10.441406 21.707031 10.441406 21.589844 C 10.441406 21.445312 10.320312 21.324219 10.175781 21.324219 L 5.773438 21.324219 C 5.628906 21.324219 5.511719 21.445312 5.511719 21.589844 L 5.511719 26.324219 C 5.511719 26.472656 5.628906 26.59375 5.773438 26.59375 L 10.175781 26.59375 C 10.246094 26.59375 10.3125 26.566406 10.363281 26.515625 C 10.414062 26.464844 10.441406 26.394531 10.441406 26.324219 C 10.441406 26.238281 10.480469 26.15625 10.550781 26.109375 C 10.625 26.058594 10.714844 26.046875 10.796875 26.074219 L 10.839844 26.074219 C 10.90625 26.097656 10.980469 26.089844 11.042969 26.058594 C 11.105469 26.027344 11.152344 25.972656 11.175781 25.90625 L 12.261719 22.664062 C 12.292969 22.53125 12.21875 22.394531 12.089844 22.34375 Z M 9.589844 25.476562 L 6.375 25.476562 C 6.226562 25.476562 6.109375 25.355469 6.105469 25.210938 L 6.105469 22.210938 C 6.105469 22.0625 6.226562 21.941406 6.375 21.941406 L 9.578125 21.941406 C 9.726562 21.941406 9.84375 22.0625 9.84375 22.210938 L 9.84375 25.210938 C 9.851562 25.285156 9.828125 25.359375 9.777344 25.414062 C 9.726562 25.46875 9.65625 25.5 9.578125 25.5 Z M 10.449219 24.875 L 10.449219 22.636719 C 10.449219 22.546875 10.492188 22.46875 10.5625 22.417969 C 10.632812 22.367188 10.722656 22.355469 10.804688 22.386719 L 11.535156 22.628906 C 11.601562 22.652344 11.65625 22.699219 11.691406 22.761719 C 11.722656 22.824219 11.726562 22.898438 11.703125 22.964844 L 11 25 C 10.976562 25.066406 10.929688 25.121094 10.867188 25.15625 C 10.804688 25.1875 10.730469 25.191406 10.664062 25.171875 L 10.605469 25.171875 C 10.488281 25.121094 10.421875 25 10.441406 24.875 Z M 10.449219 24.875 "/>
</g>
</svg>
