
<svg xmlns="http://www.w3.org/2000/svg" xmlns:xlink="http://www.w3.org/1999/xlink" width="32px" height="32px" viewBox="0 0 32 32" version="1.1">
<g id="surface1">
<path style=" stroke:none;fill-rule:nonzero;fill:rgb(49.411765%,34.117647%,76.862745%);fill-opacity:1;" d="M 2.695312 0 L 29.304688 0 C 30.792969 0 32 1.207031 32 2.695312 L 32 29.304688 C 32 30.792969 30.792969 32 29.304688 32 L 2.695312 32 C 1.207031 32 0 30.792969 0 29.304688 L 0 2.695312 C 0 1.207031 1.207031 0 2.695312 0 Z M 2.695312 0 "/>
<path style=" stroke:none;fill-rule:nonzero;fill:rgb(100%,100%,100%);fill-opacity:1;" d="M 26.824219 24.046875 L 5.179688 24.046875 C 4.683594 24.046875 4.28125 23.640625 4.28125 23.144531 L 4.28125 8.851562 C 4.28125 8.351562 4.683594 7.949219 5.179688 7.949219 L 26.824219 7.949219 C 27.320312 7.949219 27.726562 8.351562 27.726562 8.851562 L 27.726562 23.144531 C 27.726562 23.640625 27.320312 24.046875 26.824219 24.046875 Z M 26.824219 24.046875 "/>
<path style=" stroke:none;fill-rule:nonzero;fill:rgb(92.54902%,25.098039%,47.843137%);fill-opacity:1;" d="M 5.179688 7.535156 L 26.820312 7.535156 C 27.550781 7.535156 28.140625 8.125 28.140625 8.855469 L 28.140625 23.144531 C 28.140625 23.875 27.550781 24.464844 26.820312 24.464844 L 5.179688 24.464844 C 4.449219 24.464844 3.859375 23.875 3.859375 23.144531 L 3.859375 8.855469 C 3.859375 8.125 4.449219 7.535156 5.179688 7.535156 Z M 26.820312 23.628906 C 27.097656 23.628906 27.320312 23.40625 27.320312 23.128906 L 27.320312 8.855469 C 27.320312 8.578125 27.097656 8.355469 26.820312 8.355469 L 5.179688 8.355469 C 4.902344 8.355469 4.679688 8.578125 4.679688 8.855469 L 4.679688 23.144531 C 4.679688 23.421875 4.902344 23.644531 5.179688 23.644531 Z M 26.820312 23.628906 "/>
<path style=" stroke:none;fill-rule:nonzero;fill:rgb(92.54902%,25.098039%,47.843137%);fill-opacity:1;" d="M 28.039062 9.804688 L 4.039062 9.804688 L 4.039062 8.765625 C 4.039062 8.207031 4.480469 7.746094 5.039062 7.726562 L 26.980469 7.726562 C 27.257812 7.71875 27.527344 7.828125 27.726562 8.023438 C 27.929688 8.21875 28.039062 8.484375 28.039062 8.765625 Z M 28.039062 9.804688 "/>
<path style=" stroke:none;fill-rule:nonzero;fill:rgb(100%,100%,100%);fill-opacity:1;" d="M 23.230469 8.796875 C 23.230469 9.144531 22.949219 9.425781 22.601562 9.425781 C 22.253906 9.425781 21.96875 9.144531 21.96875 8.796875 C 21.96875 8.445312 22.253906 8.164062 22.601562 8.164062 C 22.949219 8.164062 23.230469 8.445312 23.230469 8.796875 Z M 23.230469 8.796875 "/>
<path style=" stroke:none;fill-rule:nonzero;fill:rgb(100%,100%,100%);fill-opacity:1;" d="M 25.335938 8.796875 C 25.335938 9.144531 25.054688 9.425781 24.703125 9.425781 C 24.355469 9.425781 24.074219 9.144531 24.074219 8.796875 C 24.074219 8.445312 24.355469 8.164062 24.703125 8.164062 C 25.054688 8.164062 25.335938 8.445312 25.335938 8.796875 Z M 25.335938 8.796875 "/>
<path style=" stroke:none;fill-rule:nonzero;fill:rgb(100%,100%,100%);fill-opacity:1;" d="M 27.441406 8.796875 C 27.441406 9.144531 27.15625 9.425781 26.808594 9.425781 C 26.460938 9.425781 26.179688 9.144531 26.179688 8.796875 C 26.179688 8.445312 26.460938 8.164062 26.808594 8.164062 C 27.15625 8.164062 27.441406 8.445312 27.441406 8.796875 Z M 27.441406 8.796875 "/>
</g>
</svg>
