
<svg xmlns="http://www.w3.org/2000/svg" xmlns:xlink="http://www.w3.org/1999/xlink" width="32px" height="32px" viewBox="0 0 32 32" version="1.1">
<g id="surface1">
<path style=" stroke:none;fill-rule:nonzero;fill:rgb(36.078431%,41.960784%,75.294118%);fill-opacity:1;" d="M 2.695312 0 L 29.304688 0 C 30.792969 0 32 1.207031 32 2.695312 L 32 29.304688 C 32 30.792969 30.792969 32 29.304688 32 L 2.695312 32 C 1.207031 32 0 30.792969 0 29.304688 L 0 2.695312 C 0 1.207031 1.207031 0 2.695312 0 Z M 2.695312 0 "/>
<path style=" stroke:none;fill-rule:nonzero;fill:rgb(16.078431%,71.372549%,96.470588%);fill-opacity:1;" d="M 21.839844 24 L 21.839844 16.414062 C 21.839844 15.863281 21.390625 15.414062 20.839844 15.414062 L 11.179688 15.414062 C 10.910156 15.410156 10.648438 15.511719 10.457031 15.699219 C 10.265625 15.886719 10.15625 16.144531 10.15625 16.414062 L 10.15625 24 Z M 21.839844 24 "/>
<path style=" stroke:none;fill-rule:nonzero;fill:rgb(100%,100%,100%);fill-opacity:1;" d="M 24.320312 10 L 22 7.679688 C 21.785156 7.46875 21.5 7.351562 21.199219 7.351562 L 9.410156 7.351562 C 8.273438 7.351562 7.351562 8.273438 7.351562 9.410156 L 7.351562 22.589844 C 7.351562 23.726562 8.273438 24.648438 9.410156 24.648438 L 22.589844 24.648438 C 23.726562 24.648438 24.648438 23.726562 24.648438 22.589844 L 24.648438 10.816406 C 24.652344 10.511719 24.535156 10.21875 24.320312 10 Z M 19.710938 9.714844 L 19.710938 11.324219 C 19.710938 11.632812 19.460938 11.886719 19.148438 11.886719 C 18.839844 11.886719 18.589844 11.632812 18.589844 11.324219 L 18.589844 9.730469 C 18.589844 9.421875 18.839844 9.171875 19.148438 9.171875 C 19.460938 9.171875 19.710938 9.421875 19.710938 9.730469 Z M 10.15625 23.714844 L 9.410156 23.714844 C 8.773438 23.714844 8.261719 23.199219 8.261719 22.566406 L 8.261719 9.410156 C 8.261719 8.773438 8.773438 8.261719 9.410156 8.261719 L 11.144531 8.261719 L 11.144531 12 C 11.144531 12.269531 11.253906 12.527344 11.445312 12.714844 C 11.640625 12.90625 11.902344 13.007812 12.171875 13 L 19.828125 13 C 20.386719 13 20.839844 12.554688 20.855469 12 L 20.855469 8.261719 L 21.183594 8.261719 C 21.242188 8.261719 21.296875 8.285156 21.339844 8.324219 L 23.675781 10.660156 C 23.714844 10.703125 23.738281 10.757812 23.738281 10.816406 L 23.738281 22.589844 C 23.738281 23.226562 23.226562 23.738281 22.589844 23.738281 L 10.15625 23.738281 Z M 10.15625 23.714844 "/>
<path style=" stroke:none;fill-rule:nonzero;fill:rgb(100%,100%,100%);fill-opacity:1;" d="M 12.21875 17.363281 L 19.773438 17.363281 L 19.773438 17.945312 L 12.21875 17.945312 Z M 12.21875 17.363281 "/>
<path style=" stroke:none;fill-rule:nonzero;fill:rgb(100%,100%,100%);fill-opacity:1;" d="M 12.21875 19.578125 L 19.773438 19.578125 L 19.773438 20.160156 L 12.21875 20.160156 Z M 12.21875 19.578125 "/>
<path style=" stroke:none;fill-rule:nonzero;fill:rgb(100%,100%,100%);fill-opacity:1;" d="M 12.21875 21.796875 L 19.773438 21.796875 L 19.773438 22.375 L 12.21875 22.375 Z M 12.21875 21.796875 "/>
</g>
</svg>
