
<svg xmlns="http://www.w3.org/2000/svg" xmlns:xlink="http://www.w3.org/1999/xlink" width="32px" height="32px" viewBox="0 0 32 32" version="1.1">
<g id="surface1">
<path style=" stroke:none;fill-rule:nonzero;fill:rgb(100%,100%,100%);fill-opacity:1;" d="M 25.890625 32 L 6.109375 32 C 2.734375 32 0 29.265625 0 25.890625 L 0 6.109375 C 0 2.734375 2.734375 0 6.109375 0 L 25.890625 0 C 29.265625 0 32 2.734375 32 6.109375 L 32 25.890625 C 32 29.265625 29.265625 32 25.890625 32 Z M 6.109375 3.5 C 4.671875 3.507812 3.507812 4.671875 3.5 6.109375 L 3.5 25.890625 C 3.507812 27.328125 4.671875 28.492188 6.109375 28.5 L 25.890625 28.5 C 27.328125 28.492188 28.492188 27.328125 28.5 25.890625 L 28.5 6.109375 C 28.492188 4.671875 27.328125 3.507812 25.890625 3.5 Z M 6.109375 3.5 "/>
<path style=" stroke:none;fill-rule:nonzero;fill:rgb(100%,100%,100%);fill-opacity:1;" d="M 6.796875 14.375 L 5.257812 12.257812 L 9.023438 9.5 L 5.257812 6.765625 L 6.796875 4.671875 L 12 8.460938 C 12.335938 8.710938 12.53125 9.101562 12.53125 9.523438 C 12.53125 9.9375 12.335938 10.328125 12 10.578125 Z M 6.796875 14.375 "/>
<path style=" stroke:none;fill-rule:nonzero;fill:rgb(100%,100%,100%);fill-opacity:1;" d="M 11.71875 11.71875 L 19.09375 11.71875 L 19.09375 14.34375 L 11.71875 14.34375 Z M 11.71875 11.71875 "/>
</g>
</svg>
