
<svg xmlns="http://www.w3.org/2000/svg" xmlns:xlink="http://www.w3.org/1999/xlink" width="32px" height="32px" viewBox="0 0 32 32" version="1.1">
<defs>
<linearGradient id="linear0" gradientUnits="userSpaceOnUse" x1="32" y1="3.8" x2="32" y2="23.49" gradientTransform="matrix(0.5,0,0,0.5,0,0)">
<stop offset="0" style="stop-color:rgb(16.078431%,71.372549%,96.470588%);stop-opacity:1;"/>
<stop offset="0.67" style="stop-color:rgb(39.607843%,45.098039%,82.745098%);stop-opacity:1;"/>
<stop offset="1" style="stop-color:rgb(49.411765%,34.117647%,76.862745%);stop-opacity:1;"/>
</linearGradient>
<linearGradient id="linear1" gradientUnits="userSpaceOnUse" x1="32" y1="60.9" x2="32" y2="18.72" gradientTransform="matrix(0.5,0,0,0.5,0,0)">
<stop offset="0" style="stop-color:rgb(86.27451%,87.058824%,88.627451%);stop-opacity:1;"/>
<stop offset="0.57" style="stop-color:rgb(87.058824%,87.843137%,89.411765%);stop-opacity:1;"/>
<stop offset="0.81" style="stop-color:rgb(89.803922%,90.588235%,91.764706%);stop-opacity:1;"/>
<stop offset="0.99" style="stop-color:rgb(94.901961%,95.294118%,95.686275%);stop-opacity:1;"/>
<stop offset="1" style="stop-color:rgb(95.294118%,95.686275%,96.078431%);stop-opacity:1;"/>
</linearGradient>
<linearGradient id="linear2" gradientUnits="userSpaceOnUse" x1="35.11" y1="50.92" x2="35.11" y2="31.48" gradientTransform="matrix(0.5,0,0,0.5,0,0)">
<stop offset="0" style="stop-color:rgb(75.294118%,75.294118%,75.294118%);stop-opacity:1;"/>
<stop offset="1" style="stop-color:rgb(55.686275%,55.686275%,55.686275%);stop-opacity:1;"/>
</linearGradient>
<linearGradient id="linear3" gradientUnits="userSpaceOnUse" x1="26.15" y1="50.92" x2="26.15" y2="31.48" gradientTransform="matrix(0.5,0,0,0.5,0,0)">
<stop offset="0" style="stop-color:rgb(75.294118%,75.294118%,75.294118%);stop-opacity:1;"/>
<stop offset="1" style="stop-color:rgb(55.686275%,55.686275%,55.686275%);stop-opacity:1;"/>
</linearGradient>
<linearGradient id="linear4" gradientUnits="userSpaceOnUse" x1="31.82" y1="50.92" x2="31.82" y2="31.48" gradientTransform="matrix(0.5,0,0,0.5,-0.00159315,0.00215387)">
<stop offset="0" style="stop-color:rgb(75.294118%,75.294118%,75.294118%);stop-opacity:1;"/>
<stop offset="1" style="stop-color:rgb(55.686275%,55.686275%,55.686275%);stop-opacity:1;"/>
</linearGradient>
<linearGradient id="linear5" gradientUnits="userSpaceOnUse" x1="32" y1="50.92" x2="32" y2="31.48" gradientTransform="matrix(0.5,0,0,0.5,0,0)">
<stop offset="0" style="stop-color:rgb(75.294118%,75.294118%,75.294118%);stop-opacity:1;"/>
<stop offset="1" style="stop-color:rgb(55.686275%,55.686275%,55.686275%);stop-opacity:1;"/>
</linearGradient>
</defs>
<g id="surface1">
<path style=" stroke:none;fill-rule:nonzero;fill:url(#linear0);" d="M 32 10.65625 C 31.996094 9.242188 30.851562 8.09375 29.433594 8.09375 L 20.726562 8.09375 C 18.945312 8.09375 17.492188 6.671875 17.453125 4.890625 C 17.484375 3.078125 16.039062 1.582031 14.226562 1.550781 L 1.691406 1.550781 C 0.757812 1.550781 0 2.304688 0 3.242188 L 0 11.710938 L 32 11.710938 Z M 32 10.65625 "/>
<path style=" stroke:none;fill-rule:nonzero;fill:url(#linear1);" d="M 29.433594 9.359375 L 2.566406 9.359375 C 1.148438 9.359375 0 10.507812 0 11.925781 L 0 27.890625 C 0.00390625 29.304688 1.148438 30.449219 2.566406 30.449219 L 29.433594 30.449219 C 30.851562 30.449219 31.996094 29.304688 32 27.890625 L 32 11.925781 C 32 10.507812 30.851562 9.359375 29.433594 9.359375 Z M 29.433594 9.359375 "/>
<path style=" stroke:none;fill-rule:nonzero;fill:url(#linear2);" d="M 18.375 17.546875 C 18.15625 17.402344 17.871094 17.433594 17.691406 17.621094 L 16.691406 18.621094 C 16.589844 18.714844 16.53125 18.847656 16.53125 18.984375 C 16.53125 19.125 16.589844 19.257812 16.691406 19.351562 C 16.785156 19.453125 16.917969 19.507812 17.054688 19.507812 C 17.195312 19.507812 17.324219 19.453125 17.421875 19.351562 L 18.460938 18.308594 C 18.5625 18.203125 18.613281 18.054688 18.597656 17.90625 C 18.582031 17.757812 18.5 17.625 18.375 17.546875 Z M 18.375 17.546875 "/>
<path style=" stroke:none;fill-rule:nonzero;fill:url(#linear3);" d="M 14.894531 20.03125 C 14.84375 19.773438 14.617188 19.59375 14.355469 19.601562 L 11.769531 19.601562 C 11.492188 19.601562 11.269531 19.824219 11.269531 20.101562 C 11.269531 20.375 11.492188 20.601562 11.769531 20.601562 L 14.382812 20.601562 C 14.53125 20.605469 14.671875 20.542969 14.773438 20.433594 C 14.871094 20.324219 14.914062 20.175781 14.894531 20.03125 Z M 14.894531 20.03125 "/>
<path style=" stroke:none;fill-rule:nonzero;fill:url(#linear4);" d="M 15.945312 19.5 C 16.289062 19.523438 16.554688 19.816406 16.535156 20.160156 C 16.515625 20.503906 16.222656 20.769531 15.875 20.75 C 15.53125 20.730469 15.269531 20.4375 15.289062 20.089844 C 15.304688 19.746094 15.601562 19.484375 15.945312 19.5 Z M 15.945312 19.5 "/>
<path style=" stroke:none;fill-rule:nonzero;fill:url(#linear5);" d="M 19.804688 16.226562 C 17.695312 14.117188 14.289062 14.078125 12.128906 16.128906 L 12.058594 16.199219 L 12.03125 16.230469 L 10.679688 17.585938 C 10.609375 17.65625 10.585938 17.765625 10.625 17.863281 C 10.664062 17.957031 10.757812 18.019531 10.859375 18.019531 L 13.429688 18.019531 C 13.53125 18.019531 13.625 17.957031 13.664062 17.863281 C 13.703125 17.765625 13.683594 17.65625 13.609375 17.585938 L 12.878906 16.851562 C 14.664062 15.175781 17.464844 15.253906 19.15625 17.019531 C 20.851562 18.789062 20.804688 21.589844 19.054688 23.300781 C 17.304688 25.011719 14.503906 24.996094 12.773438 23.265625 C 12.570312 23.058594 12.238281 23.054688 12.03125 23.257812 C 11.824219 23.460938 11.820312 23.792969 12.023438 24 C 13.40625 25.421875 15.445312 25.988281 17.363281 25.484375 C 19.28125 24.976562 20.78125 23.484375 21.285156 21.566406 C 21.789062 19.648438 21.226562 17.609375 19.804688 16.226562 Z M 19.804688 16.226562 "/>
</g>
</svg>
