
<svg xmlns="http://www.w3.org/2000/svg" xmlns:xlink="http://www.w3.org/1999/xlink" width="32px" height="32px" viewBox="0 0 32 32" version="1.1">
<defs>
<linearGradient id="linear0" gradientUnits="userSpaceOnUse" x1="32" y1="3.8" x2="32" y2="23.49" gradientTransform="matrix(0.5,0,0,0.5,0,0)">
<stop offset="0" style="stop-color:rgb(16.078431%,71.372549%,96.470588%);stop-opacity:1;"/>
<stop offset="0.67" style="stop-color:rgb(39.607843%,45.098039%,82.745098%);stop-opacity:1;"/>
<stop offset="1" style="stop-color:rgb(49.411765%,34.117647%,76.862745%);stop-opacity:1;"/>
</linearGradient>
<linearGradient id="linear1" gradientUnits="userSpaceOnUse" x1="32" y1="60.9" x2="32" y2="18.72" gradientTransform="matrix(0.5,0,0,0.5,0,0)">
<stop offset="0" style="stop-color:rgb(86.27451%,87.058824%,88.627451%);stop-opacity:1;"/>
<stop offset="0.57" style="stop-color:rgb(87.058824%,87.843137%,89.411765%);stop-opacity:1;"/>
<stop offset="0.81" style="stop-color:rgb(89.803922%,90.588235%,91.764706%);stop-opacity:1;"/>
<stop offset="0.99" style="stop-color:rgb(94.901961%,95.294118%,95.686275%);stop-opacity:1;"/>
<stop offset="1" style="stop-color:rgb(95.294118%,95.686275%,96.078431%);stop-opacity:1;"/>
</linearGradient>
<linearGradient id="linear2" gradientUnits="userSpaceOnUse" x1="29.32" y1="51.64" x2="29.32" y2="28.21" gradientTransform="matrix(0.5,0,0,0.5,0,0)">
<stop offset="0" style="stop-color:rgb(75.294118%,75.294118%,75.294118%);stop-opacity:1;"/>
<stop offset="1" style="stop-color:rgb(55.686275%,55.686275%,55.686275%);stop-opacity:1;"/>
</linearGradient>
<linearGradient id="linear3" gradientUnits="userSpaceOnUse" x1="30.58" y1="51.64" x2="30.58" y2="28.21" gradientTransform="matrix(0.5,0,0,0.5,0,0)">
<stop offset="0" style="stop-color:rgb(75.294118%,75.294118%,75.294118%);stop-opacity:1;"/>
<stop offset="1" style="stop-color:rgb(55.686275%,55.686275%,55.686275%);stop-opacity:1;"/>
</linearGradient>
<linearGradient id="linear4" gradientUnits="userSpaceOnUse" x1="33.42" y1="51.64" x2="33.42" y2="28.21" gradientTransform="matrix(0.5,0,0,0.5,0,0)">
<stop offset="0" style="stop-color:rgb(75.294118%,75.294118%,75.294118%);stop-opacity:1;"/>
<stop offset="1" style="stop-color:rgb(55.686275%,55.686275%,55.686275%);stop-opacity:1;"/>
</linearGradient>
<linearGradient id="linear5" gradientUnits="userSpaceOnUse" x1="30.58" y1="51.64" x2="30.58" y2="28.21" gradientTransform="matrix(0.5,0,0,0.5,0,0)">
<stop offset="0" style="stop-color:rgb(75.294118%,75.294118%,75.294118%);stop-opacity:1;"/>
<stop offset="1" style="stop-color:rgb(55.686275%,55.686275%,55.686275%);stop-opacity:1;"/>
</linearGradient>
<linearGradient id="linear6" gradientUnits="userSpaceOnUse" x1="30.58" y1="51.64" x2="30.58" y2="28.21" gradientTransform="matrix(0.5,0,0,0.5,0,0)">
<stop offset="0" style="stop-color:rgb(75.294118%,75.294118%,75.294118%);stop-opacity:1;"/>
<stop offset="1" style="stop-color:rgb(55.686275%,55.686275%,55.686275%);stop-opacity:1;"/>
</linearGradient>
<linearGradient id="linear7" gradientUnits="userSpaceOnUse" x1="30.58" y1="51.64" x2="30.58" y2="28.21" gradientTransform="matrix(0.5,0,0,0.5,0,0)">
<stop offset="0" style="stop-color:rgb(75.294118%,75.294118%,75.294118%);stop-opacity:1;"/>
<stop offset="1" style="stop-color:rgb(55.686275%,55.686275%,55.686275%);stop-opacity:1;"/>
</linearGradient>
<linearGradient id="linear8" gradientUnits="userSpaceOnUse" x1="29.08" y1="51.64" x2="29.08" y2="28.21" gradientTransform="matrix(0.5,0,0,0.5,0,0)">
<stop offset="0" style="stop-color:rgb(75.294118%,75.294118%,75.294118%);stop-opacity:1;"/>
<stop offset="1" style="stop-color:rgb(55.686275%,55.686275%,55.686275%);stop-opacity:1;"/>
</linearGradient>
<linearGradient id="linear9" gradientUnits="userSpaceOnUse" x1="33.59" y1="51.64" x2="33.59" y2="28.21" gradientTransform="matrix(0.5,0,0,0.5,0,0)">
<stop offset="0" style="stop-color:rgb(75.294118%,75.294118%,75.294118%);stop-opacity:1;"/>
<stop offset="1" style="stop-color:rgb(55.686275%,55.686275%,55.686275%);stop-opacity:1;"/>
</linearGradient>
<linearGradient id="linear10" gradientUnits="userSpaceOnUse" x1="27.57" y1="51.64" x2="27.57" y2="28.21" gradientTransform="matrix(0.5,0,0,0.5,0,0)">
<stop offset="0" style="stop-color:rgb(75.294118%,75.294118%,75.294118%);stop-opacity:1;"/>
<stop offset="1" style="stop-color:rgb(55.686275%,55.686275%,55.686275%);stop-opacity:1;"/>
</linearGradient>
</defs>
<g id="surface1">
<path style=" stroke:none;fill-rule:nonzero;fill:url(#linear0);" d="M 32 10.65625 C 31.996094 9.242188 30.851562 8.09375 29.433594 8.09375 L 20.726562 8.09375 C 18.945312 8.09375 17.492188 6.671875 17.453125 4.890625 C 17.484375 3.078125 16.039062 1.582031 14.226562 1.550781 L 1.691406 1.550781 C 0.757812 1.550781 0 2.304688 0 3.242188 L 0 11.710938 L 32 11.710938 Z M 32 10.65625 "/>
<path style=" stroke:none;fill-rule:nonzero;fill:url(#linear1);" d="M 29.433594 9.359375 L 2.566406 9.359375 C 1.148438 9.359375 0 10.507812 0 11.925781 L 0 27.890625 C 0.00390625 29.304688 1.148438 30.449219 2.566406 30.449219 L 29.433594 30.449219 C 30.851562 30.449219 31.996094 29.304688 32 27.890625 L 32 11.925781 C 32 10.507812 30.851562 9.359375 29.433594 9.359375 Z M 29.433594 9.359375 "/>
<path style=" stroke:none;fill-rule:nonzero;fill:url(#linear2);" d="M 14.429688 14.378906 C 14.238281 14.378906 14.085938 14.535156 14.085938 14.726562 C 14.085938 14.914062 14.238281 15.070312 14.429688 15.070312 L 15.230469 15.070312 C 15.214844 14.957031 15.207031 14.839844 15.203125 14.726562 C 15.203125 14.609375 15.214844 14.492188 15.230469 14.378906 Z M 14.429688 14.378906 "/>
<path style=" stroke:none;fill-rule:nonzero;fill:url(#linear3);" d="M 19.589844 24.609375 L 19.589844 14.726562 C 19.589844 14.535156 19.4375 14.378906 19.246094 14.378906 L 17.441406 14.378906 C 17.25 14.378906 17.09375 14.535156 17.09375 14.726562 C 17.09375 14.914062 17.25 15.070312 17.441406 15.070312 L 18.898438 15.070312 L 18.898438 24.269531 L 11.679688 24.269531 L 11.679688 15.070312 L 12.21875 15.070312 C 12.203125 14.957031 12.195312 14.839844 12.195312 14.726562 C 12.195312 14.609375 12.203125 14.492188 12.21875 14.378906 L 11.335938 14.378906 C 11.144531 14.378906 10.992188 14.535156 10.992188 14.726562 L 10.992188 24.609375 C 10.992188 24.800781 11.144531 24.953125 11.335938 24.953125 L 19.246094 24.953125 C 19.4375 24.953125 19.589844 24.800781 19.589844 24.609375 Z M 19.589844 24.609375 "/>
<path style=" stroke:none;fill-rule:nonzero;fill:url(#linear4);" d="M 20.664062 15.800781 C 20.476562 15.800781 20.320312 15.953125 20.320312 16.144531 L 20.320312 25.683594 L 12.753906 25.683594 C 12.5625 25.683594 12.410156 25.839844 12.410156 26.03125 C 12.410156 26.21875 12.5625 26.375 12.753906 26.375 L 20.664062 26.375 C 20.855469 26.375 21.007812 26.21875 21.007812 26.03125 L 21.007812 16.144531 C 21.007812 15.953125 20.855469 15.800781 20.664062 15.800781 Z M 20.664062 15.800781 "/>
<path style=" stroke:none;fill-rule:nonzero;fill:url(#linear5);" d="M 13.140625 18.164062 L 17.441406 18.164062 C 17.632812 18.164062 17.785156 18.011719 17.785156 17.820312 C 17.785156 17.628906 17.632812 17.476562 17.441406 17.476562 L 13.140625 17.476562 C 12.949219 17.476562 12.796875 17.628906 12.796875 17.820312 C 12.796875 18.011719 12.949219 18.164062 13.140625 18.164062 Z M 13.140625 18.164062 "/>
<path style=" stroke:none;fill-rule:nonzero;fill:url(#linear6);" d="M 13.140625 19.710938 L 17.441406 19.710938 C 17.632812 19.710938 17.785156 19.554688 17.785156 19.367188 C 17.785156 19.273438 17.75 19.1875 17.683594 19.125 C 17.617188 19.058594 17.53125 19.023438 17.441406 19.023438 L 13.140625 19.023438 C 13.046875 19.023438 12.960938 19.058594 12.898438 19.125 C 12.832031 19.1875 12.796875 19.273438 12.796875 19.367188 C 12.796875 19.554688 12.949219 19.710938 13.140625 19.710938 Z M 13.140625 19.710938 "/>
<path style=" stroke:none;fill-rule:nonzero;fill:url(#linear7);" d="M 13.140625 21.257812 L 17.441406 21.257812 C 17.632812 21.257812 17.785156 21.105469 17.785156 20.914062 C 17.785156 20.726562 17.632812 20.570312 17.441406 20.570312 L 13.140625 20.570312 C 12.949219 20.570312 12.796875 20.726562 12.796875 20.914062 C 12.796875 21.105469 12.949219 21.257812 13.140625 21.257812 Z M 13.140625 21.257812 "/>
<path style=" stroke:none;fill-rule:nonzero;fill:url(#linear8);" d="M 13.140625 22.804688 L 15.945312 22.804688 C 16.035156 22.804688 16.125 22.769531 16.1875 22.703125 C 16.25 22.640625 16.285156 22.550781 16.285156 22.460938 C 16.285156 22.367188 16.25 22.28125 16.1875 22.21875 C 16.125 22.15625 16.035156 22.117188 15.945312 22.121094 L 13.140625 22.121094 C 13.046875 22.117188 12.960938 22.15625 12.898438 22.21875 C 12.832031 22.28125 12.796875 22.367188 12.796875 22.460938 C 12.796875 22.648438 12.949219 22.804688 13.140625 22.804688 Z M 13.140625 22.804688 "/>
<path style=" stroke:none;fill-rule:nonzero;fill:url(#linear9);" d="M 17.441406 16.359375 C 17.632812 16.359375 17.785156 16.203125 17.785156 16.015625 C 17.785156 15.824219 17.632812 15.671875 17.441406 15.671875 C 17.050781 15.667969 16.703125 15.429688 16.558594 15.070312 C 16.519531 14.960938 16.496094 14.84375 16.496094 14.726562 C 16.496094 14.609375 16.519531 14.492188 16.558594 14.378906 C 16.703125 14.019531 17.050781 13.78125 17.441406 13.78125 C 17.632812 13.78125 17.785156 13.625 17.785156 13.433594 C 17.785156 13.242188 17.632812 13.089844 17.441406 13.089844 C 16.671875 13.089844 16.007812 13.625 15.84375 14.378906 C 15.820312 14.492188 15.804688 14.609375 15.804688 14.726562 C 15.8125 15.625 16.539062 16.351562 17.441406 16.359375 Z M 17.441406 16.359375 "/>
<path style=" stroke:none;fill-rule:nonzero;fill:url(#linear10);" d="M 14.429688 16.359375 C 14.621094 16.359375 14.773438 16.203125 14.773438 16.015625 C 14.773438 15.824219 14.621094 15.671875 14.429688 15.671875 C 14.042969 15.667969 13.695312 15.429688 13.550781 15.070312 C 13.507812 14.960938 13.484375 14.84375 13.484375 14.726562 C 13.484375 14.609375 13.507812 14.492188 13.550781 14.378906 C 13.695312 14.019531 14.042969 13.78125 14.429688 13.78125 C 14.621094 13.78125 14.773438 13.625 14.773438 13.433594 C 14.773438 13.242188 14.621094 13.089844 14.429688 13.089844 C 13.664062 13.09375 13 13.628906 12.835938 14.378906 C 12.808594 14.492188 12.796875 14.609375 12.796875 14.726562 C 12.804688 15.625 13.53125 16.351562 14.429688 16.359375 Z M 14.429688 16.359375 "/>
</g>
</svg>
