
<svg xmlns="http://www.w3.org/2000/svg" xmlns:xlink="http://www.w3.org/1999/xlink" width="32px" height="32px" viewBox="0 0 32 32" version="1.1">
<defs>
<linearGradient id="linear0" gradientUnits="userSpaceOnUse" x1="32" y1="3.8" x2="32" y2="23.49" gradientTransform="matrix(0.5,0,0,0.5,0,0)">
<stop offset="0" style="stop-color:rgb(16.078431%,71.372549%,96.470588%);stop-opacity:1;"/>
<stop offset="0.67" style="stop-color:rgb(39.607843%,45.098039%,82.745098%);stop-opacity:1;"/>
<stop offset="1" style="stop-color:rgb(49.411765%,34.117647%,76.862745%);stop-opacity:1;"/>
</linearGradient>
<linearGradient id="linear1" gradientUnits="userSpaceOnUse" x1="32" y1="60.9" x2="32" y2="18.72" gradientTransform="matrix(0.5,0,0,0.5,0,0)">
<stop offset="0" style="stop-color:rgb(86.27451%,87.058824%,88.627451%);stop-opacity:1;"/>
<stop offset="0.57" style="stop-color:rgb(87.058824%,87.843137%,89.411765%);stop-opacity:1;"/>
<stop offset="0.81" style="stop-color:rgb(89.803922%,90.588235%,91.764706%);stop-opacity:1;"/>
<stop offset="0.99" style="stop-color:rgb(94.901961%,95.294118%,95.686275%);stop-opacity:1;"/>
<stop offset="1" style="stop-color:rgb(95.294118%,95.686275%,96.078431%);stop-opacity:1;"/>
</linearGradient>
<linearGradient id="linear2" gradientUnits="userSpaceOnUse" x1="31.3" y1="51.94" x2="31.3" y2="35.8" gradientTransform="matrix(0.5,0,0,0.5,0,0)">
<stop offset="0" style="stop-color:rgb(75.294118%,75.294118%,75.294118%);stop-opacity:1;"/>
<stop offset="1" style="stop-color:rgb(55.686275%,55.686275%,55.686275%);stop-opacity:1;"/>
</linearGradient>
<linearGradient id="linear3" gradientUnits="userSpaceOnUse" x1="38.52" y1="34.71" x2="38.52" y2="27.38" gradientTransform="matrix(0.5,0,0,0.5,0,0)">
<stop offset="0" style="stop-color:rgb(75.294118%,75.294118%,75.294118%);stop-opacity:1;"/>
<stop offset="1" style="stop-color:rgb(55.686275%,55.686275%,55.686275%);stop-opacity:1;"/>
</linearGradient>
<linearGradient id="linear4" gradientUnits="userSpaceOnUse" x1="31.59" y1="33.82" x2="31.59" y2="28.35" gradientTransform="matrix(0.5,0,0,0.5,0,0)">
<stop offset="0" style="stop-color:rgb(75.294118%,75.294118%,75.294118%);stop-opacity:1;"/>
<stop offset="1" style="stop-color:rgb(55.686275%,55.686275%,55.686275%);stop-opacity:1;"/>
</linearGradient>
<linearGradient id="linear5" gradientUnits="userSpaceOnUse" x1="26.9" y1="35.08" x2="26.9" y2="30.33" gradientTransform="matrix(0.5,0,0,0.5,0,0)">
<stop offset="0" style="stop-color:rgb(75.294118%,75.294118%,75.294118%);stop-opacity:1;"/>
<stop offset="1" style="stop-color:rgb(55.686275%,55.686275%,55.686275%);stop-opacity:1;"/>
</linearGradient>
<linearGradient id="linear6" gradientUnits="userSpaceOnUse" x1="23.44" y1="37.56" x2="23.44" y2="33.39" gradientTransform="matrix(0.5,0,0,0.5,0,0)">
<stop offset="0" style="stop-color:rgb(75.294118%,75.294118%,75.294118%);stop-opacity:1;"/>
<stop offset="1" style="stop-color:rgb(55.686275%,55.686275%,55.686275%);stop-opacity:1;"/>
</linearGradient>
</defs>
<g id="surface1">
<path style=" stroke:none;fill-rule:nonzero;fill:url(#linear0);" d="M 32 10.65625 C 31.996094 9.242188 30.851562 8.09375 29.433594 8.09375 L 20.726562 8.09375 C 18.945312 8.09375 17.492188 6.671875 17.453125 4.890625 C 17.484375 3.078125 16.039062 1.582031 14.226562 1.550781 L 1.691406 1.550781 C 0.757812 1.550781 0 2.304688 0 3.242188 L 0 11.710938 L 32 11.710938 Z M 32 10.65625 "/>
<path style=" stroke:none;fill-rule:nonzero;fill:url(#linear1);" d="M 29.433594 9.359375 L 2.566406 9.359375 C 1.148438 9.359375 0 10.507812 0 11.925781 L 0 27.890625 C 0.00390625 29.304688 1.148438 30.449219 2.566406 30.449219 L 29.433594 30.449219 C 30.851562 30.449219 31.996094 29.304688 32 27.890625 L 32 11.925781 C 32 10.507812 30.851562 9.359375 29.433594 9.359375 Z M 29.433594 9.359375 "/>
<path style=" stroke:none;fill-rule:nonzero;fill:url(#linear2);" d="M 16.429688 25.964844 C 15.480469 25.9375 14.570312 25.585938 13.851562 24.964844 C 13.023438 24.332031 12.394531 23.476562 12.039062 22.5 C 11.527344 21.214844 11.996094 19.75 13.160156 19 C 13.996094 18.402344 14.976562 18.039062 16 17.945312 C 16.464844 17.898438 16.933594 17.886719 17.398438 17.914062 C 17.820312 17.9375 18.226562 18.054688 18.59375 18.257812 C 18.894531 18.414062 19.113281 18.6875 19.199219 19.015625 C 19.285156 19.339844 19.230469 19.6875 19.050781 19.96875 C 18.742188 20.457031 18.328125 20.867188 17.835938 21.171875 C 17.21875 21.578125 16.589844 21.964844 15.976562 22.375 C 15.792969 22.503906 15.625 22.648438 15.476562 22.816406 C 15.289062 22.953125 15.179688 23.167969 15.179688 23.398438 C 15.179688 23.625 15.289062 23.84375 15.476562 23.980469 C 15.632812 24.144531 15.820312 24.28125 16.03125 24.378906 C 16.28125 24.515625 16.589844 24.496094 16.820312 24.328125 C 17.054688 24.164062 17.171875 23.875 17.125 23.59375 C 17.070312 23.351562 17.195312 23.101562 17.425781 23 C 17.90625 22.738281 18.464844 22.660156 19 22.78125 C 19.171875 22.78125 19.328125 22.875 19.417969 23.019531 C 19.507812 23.164062 19.515625 23.347656 19.441406 23.5 C 19.101562 24.765625 18.0625 25.726562 16.769531 25.964844 C 16.65625 25.972656 16.542969 25.972656 16.429688 25.964844 Z M 16.429688 25.964844 "/>
<path style=" stroke:none;fill-rule:nonzero;fill:url(#linear3);" d="M 20.050781 13.730469 C 20.148438 13.738281 20.25 13.753906 20.351562 13.773438 C 20.570312 13.800781 20.769531 13.925781 20.882812 14.117188 C 21 14.308594 21.023438 14.539062 20.945312 14.75 C 20.75 15.4375 20.367188 16.054688 19.835938 16.53125 C 19.53125 16.847656 19.167969 17.101562 18.757812 17.265625 C 18.519531 17.402344 18.222656 17.40625 17.980469 17.273438 C 17.738281 17.136719 17.582031 16.886719 17.570312 16.609375 C 17.382812 15.445312 18.03125 14.304688 19.128906 13.867188 C 19.429688 13.789062 19.734375 13.730469 20.046875 13.691406 Z M 20.050781 13.730469 "/>
<path style=" stroke:none;fill-rule:nonzero;fill:url(#linear4);" d="M 14.949219 15.371094 C 14.9375 14.984375 15.109375 14.613281 15.410156 14.371094 C 15.605469 14.226562 15.851562 14.164062 16.09375 14.195312 C 16.421875 14.265625 16.648438 14.558594 16.632812 14.890625 C 16.667969 15.457031 16.527344 16.019531 16.226562 16.5 C 16.105469 16.695312 15.964844 16.90625 15.699219 16.898438 C 15.433594 16.894531 15.300781 16.675781 15.199219 16.464844 C 15.027344 16.125 14.941406 15.75 14.949219 15.371094 Z M 14.949219 15.371094 "/>
<path style=" stroke:none;fill-rule:nonzero;fill:url(#linear5);" d="M 12.714844 16.070312 C 12.691406 15.714844 12.890625 15.382812 13.214844 15.242188 C 13.355469 15.152344 13.53125 15.136719 13.683594 15.191406 C 13.839844 15.25 13.960938 15.375 14.015625 15.53125 C 14.167969 15.859375 14.222656 16.222656 14.175781 16.578125 C 14.148438 16.8125 14.085938 17.042969 14 17.257812 C 13.867188 17.578125 13.601562 17.621094 13.328125 17.394531 C 13.039062 17.140625 12.84375 16.796875 12.765625 16.421875 C 12.742188 16.304688 12.722656 16.1875 12.714844 16.070312 Z M 12.714844 16.070312 "/>
<path style=" stroke:none;fill-rule:nonzero;fill:url(#linear6);" d="M 11 17.601562 C 10.9375 17.269531 11.097656 16.9375 11.390625 16.769531 C 11.570312 16.648438 11.8125 16.679688 11.953125 16.839844 C 12.207031 17.117188 12.359375 17.46875 12.382812 17.839844 C 12.40625 18.019531 12.40625 18.203125 12.382812 18.382812 C 12.351562 18.742188 12.105469 18.882812 11.796875 18.699219 C 11.371094 18.480469 11.074219 18.070312 11 17.601562 Z M 11 17.601562 "/>
</g>
</svg>
