
<svg xmlns="http://www.w3.org/2000/svg" xmlns:xlink="http://www.w3.org/1999/xlink" width="32px" height="32px" viewBox="0 0 32 32" version="1.1">
<defs>
<linearGradient id="linear0" gradientUnits="userSpaceOnUse" x1="32" y1="3.8" x2="32" y2="23.49" gradientTransform="matrix(0.5,0,0,0.5,0,0)">
<stop offset="0" style="stop-color:rgb(16.078431%,71.372549%,96.470588%);stop-opacity:1;"/>
<stop offset="0.67" style="stop-color:rgb(39.607843%,45.098039%,82.745098%);stop-opacity:1;"/>
<stop offset="1" style="stop-color:rgb(49.411765%,34.117647%,76.862745%);stop-opacity:1;"/>
</linearGradient>
<linearGradient id="linear1" gradientUnits="userSpaceOnUse" x1="32" y1="60.9" x2="32" y2="18.72" gradientTransform="matrix(0.5,0,0,0.5,0,0)">
<stop offset="0" style="stop-color:rgb(86.27451%,87.058824%,88.627451%);stop-opacity:1;"/>
<stop offset="0.57" style="stop-color:rgb(87.058824%,87.843137%,89.411765%);stop-opacity:1;"/>
<stop offset="0.81" style="stop-color:rgb(89.803922%,90.588235%,91.764706%);stop-opacity:1;"/>
<stop offset="0.99" style="stop-color:rgb(94.901961%,95.294118%,95.686275%);stop-opacity:1;"/>
<stop offset="1" style="stop-color:rgb(95.294118%,95.686275%,96.078431%);stop-opacity:1;"/>
</linearGradient>
<linearGradient id="linear2" gradientUnits="userSpaceOnUse" x1="29.32" y1="51.81" x2="29.32" y2="28.38" gradientTransform="matrix(0.5,0,0,0.5,0,0)">
<stop offset="0" style="stop-color:rgb(75.294118%,75.294118%,75.294118%);stop-opacity:1;"/>
<stop offset="1" style="stop-color:rgb(55.686275%,55.686275%,55.686275%);stop-opacity:1;"/>
</linearGradient>
<linearGradient id="linear3" gradientUnits="userSpaceOnUse" x1="30.58" y1="51.81" x2="30.58" y2="28.38" gradientTransform="matrix(0.5,0,0,0.5,0,0)">
<stop offset="0" style="stop-color:rgb(75.294118%,75.294118%,75.294118%);stop-opacity:1;"/>
<stop offset="1" style="stop-color:rgb(55.686275%,55.686275%,55.686275%);stop-opacity:1;"/>
</linearGradient>
<linearGradient id="linear4" gradientUnits="userSpaceOnUse" x1="33.42" y1="51.81" x2="33.42" y2="28.38" gradientTransform="matrix(0.5,0,0,0.5,0,0)">
<stop offset="0" style="stop-color:rgb(75.294118%,75.294118%,75.294118%);stop-opacity:1;"/>
<stop offset="1" style="stop-color:rgb(55.686275%,55.686275%,55.686275%);stop-opacity:1;"/>
</linearGradient>
<linearGradient id="linear5" gradientUnits="userSpaceOnUse" x1="33.59" y1="51.81" x2="33.59" y2="28.38" gradientTransform="matrix(0.5,0,0,0.5,0,0)">
<stop offset="0" style="stop-color:rgb(75.294118%,75.294118%,75.294118%);stop-opacity:1;"/>
<stop offset="1" style="stop-color:rgb(55.686275%,55.686275%,55.686275%);stop-opacity:1;"/>
</linearGradient>
<linearGradient id="linear6" gradientUnits="userSpaceOnUse" x1="27.57" y1="51.81" x2="27.57" y2="28.38" gradientTransform="matrix(0.5,0,0,0.5,0,0)">
<stop offset="0" style="stop-color:rgb(75.294118%,75.294118%,75.294118%);stop-opacity:1;"/>
<stop offset="1" style="stop-color:rgb(55.686275%,55.686275%,55.686275%);stop-opacity:1;"/>
</linearGradient>
<linearGradient id="linear7" gradientUnits="userSpaceOnUse" x1="26.59" y1="40.56" x2="35.31" y2="40.56" gradientTransform="matrix(0.5,0,0,0.5,0,0)">
<stop offset="0" style="stop-color:rgb(75.294118%,75.294118%,75.294118%);stop-opacity:1;"/>
<stop offset="1" style="stop-color:rgb(55.686275%,55.686275%,55.686275%);stop-opacity:1;"/>
</linearGradient>
</defs>
<g id="surface1">
<path style=" stroke:none;fill-rule:nonzero;fill:url(#linear0);" d="M 32 10.65625 C 31.996094 9.242188 30.851562 8.09375 29.433594 8.09375 L 20.726562 8.09375 C 18.945312 8.09375 17.492188 6.671875 17.453125 4.890625 C 17.484375 3.078125 16.039062 1.582031 14.226562 1.550781 L 1.691406 1.550781 C 0.757812 1.550781 0 2.304688 0 3.242188 L 0 11.710938 L 32 11.710938 Z M 32 10.65625 "/>
<path style=" stroke:none;fill-rule:nonzero;fill:url(#linear1);" d="M 29.433594 9.359375 L 2.566406 9.359375 C 1.148438 9.359375 0 10.507812 0 11.925781 L 0 27.890625 C 0.00390625 29.304688 1.148438 30.449219 2.566406 30.449219 L 29.433594 30.449219 C 30.851562 30.449219 31.996094 29.304688 32 27.890625 L 32 11.925781 C 32 10.507812 30.851562 9.359375 29.433594 9.359375 Z M 29.433594 9.359375 "/>
<path style=" stroke:none;fill-rule:nonzero;fill:url(#linear2);" d="M 14.429688 14.464844 C 14.238281 14.464844 14.085938 14.617188 14.085938 14.808594 C 14.085938 15 14.238281 15.15625 14.429688 15.15625 L 15.230469 15.15625 C 15.214844 15.039062 15.207031 14.925781 15.203125 14.808594 C 15.207031 14.695312 15.214844 14.578125 15.230469 14.464844 Z M 14.429688 14.464844 "/>
<path style=" stroke:none;fill-rule:nonzero;fill:url(#linear3);" d="M 19.589844 24.699219 L 19.589844 14.808594 C 19.589844 14.617188 19.4375 14.464844 19.246094 14.464844 L 17.441406 14.464844 C 17.25 14.464844 17.09375 14.617188 17.09375 14.808594 C 17.09375 15 17.25 15.15625 17.441406 15.15625 L 18.898438 15.15625 L 18.898438 24.355469 L 11.679688 24.355469 L 11.679688 15.15625 L 12.21875 15.15625 C 12.203125 15.039062 12.195312 14.925781 12.195312 14.808594 C 12.195312 14.695312 12.203125 14.578125 12.21875 14.464844 L 11.335938 14.464844 C 11.144531 14.464844 10.992188 14.617188 10.992188 14.808594 L 10.992188 24.699219 C 10.992188 24.789062 11.027344 24.878906 11.09375 24.941406 C 11.15625 25.007812 11.242188 25.039062 11.335938 25.039062 L 19.246094 25.039062 C 19.335938 25.039062 19.421875 25.007812 19.488281 24.941406 C 19.554688 24.878906 19.589844 24.789062 19.589844 24.699219 Z M 19.589844 24.699219 "/>
<path style=" stroke:none;fill-rule:nonzero;fill:url(#linear4);" d="M 20.664062 15.882812 C 20.476562 15.882812 20.320312 16.039062 20.320312 16.230469 L 20.320312 25.773438 L 12.753906 25.773438 C 12.664062 25.773438 12.578125 25.808594 12.511719 25.875 C 12.445312 25.9375 12.410156 26.023438 12.410156 26.117188 C 12.410156 26.304688 12.5625 26.460938 12.753906 26.460938 L 20.664062 26.460938 C 20.855469 26.460938 21.007812 26.304688 21.007812 26.117188 L 21.007812 16.230469 C 21.007812 16.039062 20.855469 15.882812 20.664062 15.882812 Z M 20.664062 15.882812 "/>
<path style=" stroke:none;fill-rule:nonzero;fill:url(#linear5);" d="M 17.441406 16.445312 C 17.632812 16.445312 17.785156 16.289062 17.785156 16.101562 C 17.785156 15.910156 17.632812 15.753906 17.441406 15.753906 C 17.050781 15.753906 16.703125 15.515625 16.558594 15.15625 C 16.519531 15.046875 16.496094 14.929688 16.496094 14.808594 C 16.496094 14.691406 16.519531 14.574219 16.558594 14.464844 C 16.703125 14.101562 17.050781 13.867188 17.441406 13.867188 C 17.632812 13.867188 17.785156 13.710938 17.785156 13.519531 C 17.785156 13.328125 17.632812 13.175781 17.441406 13.175781 C 16.539062 13.183594 15.8125 13.910156 15.804688 14.808594 C 15.804688 14.925781 15.820312 15.042969 15.84375 15.15625 C 16.007812 15.90625 16.671875 16.445312 17.441406 16.445312 Z M 17.441406 16.445312 "/>
<path style=" stroke:none;fill-rule:nonzero;fill:url(#linear6);" d="M 14.429688 16.445312 C 14.621094 16.445312 14.773438 16.289062 14.773438 16.101562 C 14.773438 15.910156 14.621094 15.753906 14.429688 15.753906 C 14.042969 15.753906 13.695312 15.515625 13.550781 15.15625 C 13.507812 15.046875 13.484375 14.929688 13.484375 14.808594 C 13.484375 14.691406 13.507812 14.574219 13.550781 14.464844 C 13.695312 14.101562 14.042969 13.867188 14.429688 13.867188 C 14.621094 13.867188 14.773438 13.710938 14.773438 13.519531 C 14.773438 13.328125 14.621094 13.175781 14.429688 13.175781 C 13.53125 13.183594 12.804688 13.910156 12.796875 14.808594 C 12.796875 14.925781 12.808594 15.042969 12.835938 15.15625 C 13 15.90625 13.664062 16.441406 14.429688 16.445312 Z M 14.429688 16.445312 "/>
<path style=" stroke:none;fill-rule:nonzero;fill:url(#linear7);" d="M 17.183594 22.605469 C 17.035156 22.609375 16.882812 22.578125 16.746094 22.519531 C 16.632812 22.46875 16.53125 22.386719 16.460938 22.285156 C 16.382812 22.179688 16.328125 22.058594 16.300781 21.929688 C 16.269531 21.78125 16.253906 21.628906 16.253906 21.476562 L 16.253906 20.621094 C 15.957031 20.5 15.644531 20.425781 15.324219 20.394531 C 15.089844 20.371094 14.851562 20.394531 14.625 20.464844 C 14.449219 20.519531 14.296875 20.625 14.183594 20.769531 C 14.078125 20.914062 14.027344 21.089844 14.035156 21.269531 C 14.023438 21.488281 14.125 21.699219 14.300781 21.828125 C 14.511719 21.953125 14.753906 22.015625 15 22 C 15.125 22.007812 15.253906 21.996094 15.375 21.964844 C 15.484375 21.964844 15.59375 21.90625 15.710938 21.871094 C 15.777344 21.839844 15.855469 21.839844 15.925781 21.871094 C 15.980469 21.890625 16.023438 21.933594 16.050781 21.984375 C 16.070312 22.046875 16.070312 22.109375 16.050781 22.171875 C 16.027344 22.246094 15.980469 22.3125 15.914062 22.359375 C 15.789062 22.453125 15.644531 22.523438 15.492188 22.554688 C 15.289062 22.601562 15.085938 22.625 14.878906 22.625 C 14.679688 22.625 14.484375 22.59375 14.296875 22.539062 C 14.117188 22.484375 13.945312 22.394531 13.796875 22.28125 C 13.644531 22.160156 13.523438 22.007812 13.433594 21.835938 C 13.335938 21.636719 13.289062 21.417969 13.296875 21.195312 C 13.289062 20.910156 13.378906 20.632812 13.554688 20.410156 C 13.730469 20.183594 13.964844 20.011719 14.230469 19.910156 C 14.535156 19.800781 14.859375 19.753906 15.183594 19.773438 C 15.554688 19.796875 15.921875 19.890625 16.253906 20.054688 L 16.253906 19.5 C 16.261719 19.363281 16.230469 19.226562 16.171875 19.105469 C 16.113281 18.996094 16.035156 18.902344 15.933594 18.828125 C 15.832031 18.757812 15.71875 18.707031 15.59375 18.675781 C 15.460938 18.640625 15.324219 18.625 15.183594 18.625 C 15.015625 18.617188 14.84375 18.644531 14.683594 18.703125 C 14.578125 18.75 14.472656 18.804688 14.378906 18.875 L 14.160156 19.050781 C 14.082031 19.105469 13.984375 19.132812 13.890625 19.128906 C 13.808594 19.128906 13.730469 19.097656 13.671875 19.046875 C 13.601562 18.984375 13.5625 18.890625 13.570312 18.800781 C 13.574219 18.6875 13.617188 18.578125 13.691406 18.496094 C 13.78125 18.378906 13.894531 18.28125 14.023438 18.210938 C 14.179688 18.117188 14.351562 18.046875 14.523438 18 C 14.738281 17.945312 14.957031 17.917969 15.175781 17.921875 C 15.414062 17.917969 15.65625 17.953125 15.882812 18.023438 C 16.09375 18.085938 16.289062 18.1875 16.460938 18.324219 C 16.621094 18.453125 16.75 18.609375 16.84375 18.789062 C 16.945312 18.976562 16.996094 19.183594 17 19.394531 L 17 21.394531 C 16.996094 21.53125 17.007812 21.671875 17.039062 21.804688 C 17.070312 21.90625 17.109375 21.953125 17.171875 21.953125 L 17.269531 21.953125 C 17.375 21.949219 17.476562 21.984375 17.554688 22.050781 C 17.625 22.109375 17.667969 22.195312 17.664062 22.285156 C 17.664062 22.378906 17.621094 22.464844 17.546875 22.519531 C 17.4375 22.585938 17.3125 22.617188 17.183594 22.605469 Z M 17.183594 22.605469 "/>
</g>
</svg>
