
<svg xmlns="http://www.w3.org/2000/svg" xmlns:xlink="http://www.w3.org/1999/xlink" width="32px" height="32px" viewBox="0 0 32 32" version="1.1">
<defs>
<linearGradient id="linear0" gradientUnits="userSpaceOnUse" x1="32" y1="3.8" x2="32" y2="23.49" gradientTransform="matrix(0.5,0,0,0.5,0,0)">
<stop offset="0" style="stop-color:rgb(16.078431%,71.372549%,96.470588%);stop-opacity:1;"/>
<stop offset="0.67" style="stop-color:rgb(39.607843%,45.098039%,82.745098%);stop-opacity:1;"/>
<stop offset="1" style="stop-color:rgb(49.411765%,34.117647%,76.862745%);stop-opacity:1;"/>
</linearGradient>
<linearGradient id="linear1" gradientUnits="userSpaceOnUse" x1="32" y1="60.9" x2="32" y2="18.72" gradientTransform="matrix(0.5,0,0,0.5,0,0)">
<stop offset="0" style="stop-color:rgb(86.27451%,87.058824%,88.627451%);stop-opacity:1;"/>
<stop offset="0.57" style="stop-color:rgb(87.058824%,87.843137%,89.411765%);stop-opacity:1;"/>
<stop offset="0.81" style="stop-color:rgb(89.803922%,90.588235%,91.764706%);stop-opacity:1;"/>
<stop offset="0.99" style="stop-color:rgb(94.901961%,95.294118%,95.686275%);stop-opacity:1;"/>
<stop offset="1" style="stop-color:rgb(95.294118%,95.686275%,96.078431%);stop-opacity:1;"/>
</linearGradient>
<linearGradient id="linear2" gradientUnits="userSpaceOnUse" x1="32" y1="50.63" x2="32" y2="28.33" gradientTransform="matrix(0.5,0,0,0.5,0,0)">
<stop offset="0" style="stop-color:rgb(75.294118%,75.294118%,75.294118%);stop-opacity:1;"/>
<stop offset="1" style="stop-color:rgb(55.686275%,55.686275%,55.686275%);stop-opacity:1;"/>
</linearGradient>
<linearGradient id="linear3" gradientUnits="userSpaceOnUse" x1="32" y1="50.63" x2="32" y2="28.33" gradientTransform="matrix(0.5,0,0,0.5,0,0)">
<stop offset="0" style="stop-color:rgb(75.294118%,75.294118%,75.294118%);stop-opacity:1;"/>
<stop offset="1" style="stop-color:rgb(55.686275%,55.686275%,55.686275%);stop-opacity:1;"/>
</linearGradient>
</defs>
<g id="surface1">
<path style=" stroke:none;fill-rule:nonzero;fill:url(#linear0);" d="M 32 10.65625 C 31.996094 9.242188 30.851562 8.09375 29.433594 8.09375 L 20.726562 8.09375 C 18.945312 8.09375 17.492188 6.671875 17.453125 4.890625 C 17.484375 3.078125 16.039062 1.582031 14.226562 1.550781 L 1.691406 1.550781 C 0.757812 1.550781 0 2.304688 0 3.242188 L 0 11.710938 L 32 11.710938 Z M 32 10.65625 "/>
<path style=" stroke:none;fill-rule:nonzero;fill:url(#linear1);" d="M 29.433594 9.359375 L 2.566406 9.359375 C 1.148438 9.359375 0 10.507812 0 11.925781 L 0 27.890625 C 0.00390625 29.304688 1.148438 30.449219 2.566406 30.449219 L 29.433594 30.449219 C 30.851562 30.449219 31.996094 29.304688 32 27.890625 L 32 11.925781 C 32 10.507812 30.851562 9.359375 29.433594 9.359375 Z M 29.433594 9.359375 "/>
<path style=" stroke:none;fill-rule:nonzero;fill:url(#linear2);" d="M 16 15.691406 C 16.761719 15.691406 17.378906 16.308594 17.378906 17.070312 C 17.378906 17.832031 16.761719 18.449219 16 18.449219 C 15.632812 18.453125 15.28125 18.304688 15.023438 18.046875 C 14.632812 17.648438 14.515625 17.058594 14.726562 16.542969 C 14.9375 16.027344 15.441406 15.691406 16 15.691406 M 16 14.570312 C 14.617188 14.570312 13.5 15.6875 13.5 17.070312 C 13.5 18.453125 14.617188 19.570312 16 19.570312 C 17.382812 19.570312 18.5 18.453125 18.5 17.070312 C 18.5 15.6875 17.382812 14.570312 16 14.570312 Z M 16 14.570312 "/>
<path style=" stroke:none;fill-rule:nonzero;fill:url(#linear3);" d="M 16 21.242188 C 18.035156 21.238281 19.820312 22.601562 20.351562 24.566406 C 20.359375 24.582031 20.359375 24.601562 20.351562 24.621094 C 20.339844 24.625 20.328125 24.625 20.320312 24.621094 L 11.683594 24.621094 C 11.675781 24.625 11.664062 24.625 11.65625 24.621094 C 11.644531 24.601562 11.644531 24.582031 11.65625 24.566406 C 12.1875 22.601562 13.96875 21.238281 16 21.242188 M 16 20.125 C 13.460938 20.125 11.238281 21.820312 10.570312 24.269531 C 10.464844 24.625 10.53125 25.003906 10.75 25.300781 C 10.96875 25.59375 11.316406 25.769531 11.683594 25.769531 L 20.316406 25.769531 C 20.683594 25.769531 21.03125 25.59375 21.25 25.300781 C 21.46875 25.003906 21.535156 24.625 21.429688 24.269531 C 20.761719 21.820312 18.539062 20.125 16 20.125 Z M 16 20.125 "/>
</g>
</svg>
