
<svg xmlns="http://www.w3.org/2000/svg" xmlns:xlink="http://www.w3.org/1999/xlink" width="32px" height="32px" viewBox="0 0 32 32" version="1.1">
<defs>
<linearGradient id="linear0" gradientUnits="userSpaceOnUse" x1="32" y1="3.8" x2="32" y2="23.49" gradientTransform="matrix(0.5,0,0,0.5,0,0)">
<stop offset="0" style="stop-color:rgb(16.078431%,71.372549%,96.470588%);stop-opacity:1;"/>
<stop offset="0.67" style="stop-color:rgb(39.607843%,45.098039%,82.745098%);stop-opacity:1;"/>
<stop offset="1" style="stop-color:rgb(49.411765%,34.117647%,76.862745%);stop-opacity:1;"/>
</linearGradient>
<linearGradient id="linear1" gradientUnits="userSpaceOnUse" x1="32" y1="60.9" x2="32" y2="18.72" gradientTransform="matrix(0.5,0,0,0.5,0,0)">
<stop offset="0" style="stop-color:rgb(86.27451%,87.058824%,88.627451%);stop-opacity:1;"/>
<stop offset="0.57" style="stop-color:rgb(87.058824%,87.843137%,89.411765%);stop-opacity:1;"/>
<stop offset="0.81" style="stop-color:rgb(89.803922%,90.588235%,91.764706%);stop-opacity:1;"/>
<stop offset="0.99" style="stop-color:rgb(94.901961%,95.294118%,95.686275%);stop-opacity:1;"/>
<stop offset="1" style="stop-color:rgb(95.294118%,95.686275%,96.078431%);stop-opacity:1;"/>
</linearGradient>
<linearGradient id="linear2" gradientUnits="userSpaceOnUse" x1="32" y1="32.9" x2="32" y2="49.02" gradientTransform="matrix(0.5,0,0,0.5,0,0)">
<stop offset="0" style="stop-color:rgb(55.686275%,55.686275%,55.686275%);stop-opacity:1;"/>
<stop offset="1" style="stop-color:rgb(75.294118%,75.294118%,75.294118%);stop-opacity:1;"/>
</linearGradient>
<linearGradient id="linear3" gradientUnits="userSpaceOnUse" x1="32" y1="32.9" x2="32" y2="49.02" gradientTransform="matrix(0.5,0,0,0.5,0,0)">
<stop offset="0" style="stop-color:rgb(55.686275%,55.686275%,55.686275%);stop-opacity:1;"/>
<stop offset="1" style="stop-color:rgb(75.294118%,75.294118%,75.294118%);stop-opacity:1;"/>
</linearGradient>
</defs>
<g id="surface1">
<path style=" stroke:none;fill-rule:nonzero;fill:url(#linear0);" d="M 32 10.65625 C 31.996094 9.242188 30.851562 8.09375 29.433594 8.09375 L 20.726562 8.09375 C 18.945312 8.09375 17.492188 6.671875 17.453125 4.890625 C 17.484375 3.078125 16.039062 1.582031 14.226562 1.550781 L 1.691406 1.550781 C 0.757812 1.550781 0 2.304688 0 3.242188 L 0 11.710938 L 32 11.710938 Z M 32 10.65625 "/>
<path style=" stroke:none;fill-rule:nonzero;fill:url(#linear1);" d="M 29.433594 9.359375 L 2.566406 9.359375 C 1.148438 9.359375 0 10.507812 0 11.925781 L 0 27.890625 C 0.00390625 29.304688 1.148438 30.449219 2.566406 30.449219 L 29.433594 30.449219 C 30.851562 30.449219 31.996094 29.304688 32 27.890625 L 32 11.925781 C 32 10.507812 30.851562 9.359375 29.433594 9.359375 Z M 29.433594 9.359375 "/>
<path style=" stroke:none;fill-rule:nonzero;fill:url(#linear2);" d="M 19.765625 24.890625 L 12.234375 24.890625 C 11.152344 24.890625 10.273438 24.015625 10.269531 22.929688 L 10.269531 20.710938 C 10.269531 20.421875 10.503906 20.191406 10.789062 20.191406 C 11.078125 20.191406 11.308594 20.421875 11.308594 20.710938 L 11.308594 22.929688 C 11.308594 23.441406 11.726562 23.855469 12.234375 23.855469 L 19.765625 23.855469 C 20.273438 23.855469 20.691406 23.441406 20.691406 22.929688 L 20.691406 20.710938 C 20.691406 20.421875 20.921875 20.191406 21.210938 20.191406 C 21.496094 20.191406 21.730469 20.421875 21.730469 20.710938 L 21.730469 22.929688 C 21.726562 24.015625 20.847656 24.890625 19.765625 24.890625 Z M 19.765625 24.890625 "/>
<path style=" stroke:none;fill-rule:nonzero;fill:url(#linear3);" d="M 16 22.789062 C 15.816406 22.792969 15.636719 22.726562 15.5 22.605469 L 11.824219 19.375 C 11.589844 19.167969 11.507812 18.835938 11.621094 18.546875 C 11.722656 18.246094 12.003906 18.046875 12.320312 18.046875 L 13.265625 18.046875 L 13.265625 15.546875 C 13.265625 15.257812 13.5 15.023438 13.785156 15.023438 C 14.070312 15.023438 14.304688 15.257812 14.304688 15.546875 L 14.304688 18.335938 C 14.304688 18.746094 13.96875 19.078125 13.554688 19.078125 L 13.089844 19.078125 L 16 21.660156 L 18.90625 19.101562 L 18.441406 19.101562 C 18.027344 19.101562 17.695312 18.765625 17.695312 18.355469 L 17.695312 15.566406 C 17.695312 15.28125 17.925781 15.046875 18.210938 15.046875 C 18.5 15.046875 18.730469 15.28125 18.730469 15.566406 L 18.730469 18.066406 L 19.675781 18.066406 C 19.984375 18.0625 20.265625 18.257812 20.375 18.546875 C 20.488281 18.839844 20.40625 19.167969 20.175781 19.375 L 16.5 22.605469 C 16.363281 22.726562 16.183594 22.792969 16 22.789062 Z M 15.808594 21.824219 Z M 15.808594 21.824219 "/>
</g>
</svg>
