
<svg xmlns="http://www.w3.org/2000/svg" xmlns:xlink="http://www.w3.org/1999/xlink" width="32px" height="32px" viewBox="0 0 32 32" version="1.1">
<defs>
<linearGradient id="linear0" gradientUnits="userSpaceOnUse" x1="32" y1="3.8" x2="32" y2="23.49" gradientTransform="matrix(0.5,0,0,0.5,0,0)">
<stop offset="0" style="stop-color:rgb(16.078431%,71.372549%,96.470588%);stop-opacity:1;"/>
<stop offset="0.67" style="stop-color:rgb(39.607843%,45.098039%,82.745098%);stop-opacity:1;"/>
<stop offset="1" style="stop-color:rgb(49.411765%,34.117647%,76.862745%);stop-opacity:1;"/>
</linearGradient>
<linearGradient id="linear1" gradientUnits="userSpaceOnUse" x1="32" y1="60.9" x2="32" y2="18.72" gradientTransform="matrix(0.5,0,0,0.5,0,0)">
<stop offset="0" style="stop-color:rgb(86.27451%,87.058824%,88.627451%);stop-opacity:1;"/>
<stop offset="0.57" style="stop-color:rgb(87.058824%,87.843137%,89.411765%);stop-opacity:1;"/>
<stop offset="0.81" style="stop-color:rgb(89.803922%,90.588235%,91.764706%);stop-opacity:1;"/>
<stop offset="0.99" style="stop-color:rgb(94.901961%,95.294118%,95.686275%);stop-opacity:1;"/>
<stop offset="1" style="stop-color:rgb(95.294118%,95.686275%,96.078431%);stop-opacity:1;"/>
</linearGradient>
<linearGradient id="linear2" gradientUnits="userSpaceOnUse" x1="32.09" y1="34.84" x2="32.09" y2="28.02" gradientTransform="matrix(0.5,0,0,0.5,0,0)">
<stop offset="0" style="stop-color:rgb(75.294118%,75.294118%,75.294118%);stop-opacity:1;"/>
<stop offset="1" style="stop-color:rgb(55.686275%,55.686275%,55.686275%);stop-opacity:1;"/>
</linearGradient>
<linearGradient id="linear3" gradientUnits="userSpaceOnUse" x1="32" y1="52.02" x2="32" y2="30.8" gradientTransform="matrix(0.5,0,0,0.5,0,0)">
<stop offset="0" style="stop-color:rgb(75.294118%,75.294118%,75.294118%);stop-opacity:1;"/>
<stop offset="1" style="stop-color:rgb(55.686275%,55.686275%,55.686275%);stop-opacity:1;"/>
</linearGradient>
<linearGradient id="linear4" gradientUnits="userSpaceOnUse" x1="32.01" y1="45.76" x2="32.01" y2="44.14" gradientTransform="matrix(0.5,0,0,0.5,0,0)">
<stop offset="0" style="stop-color:rgb(75.294118%,75.294118%,75.294118%);stop-opacity:1;"/>
<stop offset="1" style="stop-color:rgb(55.686275%,55.686275%,55.686275%);stop-opacity:1;"/>
</linearGradient>
<linearGradient id="linear5" gradientUnits="userSpaceOnUse" x1="30.36" y1="48.61" x2="30.36" y2="46.98" gradientTransform="matrix(0.5,0,0,0.5,0,0)">
<stop offset="0" style="stop-color:rgb(75.294118%,75.294118%,75.294118%);stop-opacity:1;"/>
<stop offset="1" style="stop-color:rgb(55.686275%,55.686275%,55.686275%);stop-opacity:1;"/>
</linearGradient>
</defs>
<g id="surface1">
<path style=" stroke:none;fill-rule:nonzero;fill:url(#linear0);" d="M 32 10.65625 C 31.996094 9.242188 30.851562 8.09375 29.433594 8.09375 L 20.726562 8.09375 C 18.945312 8.09375 17.492188 6.671875 17.453125 4.890625 C 17.484375 3.078125 16.039062 1.582031 14.226562 1.550781 L 1.691406 1.550781 C 0.757812 1.550781 0 2.304688 0 3.242188 L 0 11.710938 L 32 11.710938 Z M 32 10.65625 "/>
<path style=" stroke:none;fill-rule:nonzero;fill:url(#linear1);" d="M 29.433594 9.359375 L 2.566406 9.359375 C 1.148438 9.359375 0 10.507812 0 11.925781 L 0 27.890625 C 0.00390625 29.304688 1.148438 30.449219 2.566406 30.449219 L 29.433594 30.449219 C 30.851562 30.449219 31.996094 29.304688 32 27.890625 L 32 11.925781 C 32 10.507812 30.851562 9.359375 29.433594 9.359375 Z M 29.433594 9.359375 "/>
<path style=" stroke:none;fill-rule:nonzero;fill:url(#linear2);" d="M 16.65625 14 C 16.71875 14.132812 16.765625 14.273438 16.796875 14.421875 C 16.808594 14.683594 16.808594 14.949219 16.796875 15.214844 C 16.796875 15.378906 16.867188 15.441406 17.019531 15.441406 C 17.1875 15.429688 17.351562 15.429688 17.519531 15.441406 C 17.613281 15.4375 17.699219 15.492188 17.738281 15.582031 C 17.773438 15.667969 17.753906 15.769531 17.683594 15.835938 C 17.183594 16.335938 16.683594 16.835938 16.183594 17.335938 C 16.140625 17.386719 16.074219 17.414062 16.007812 17.414062 C 15.9375 17.414062 15.875 17.386719 15.828125 17.335938 C 15.328125 16.835938 14.855469 16.367188 14.378906 15.871094 C 14.316406 15.796875 14.292969 15.695312 14.316406 15.601562 C 14.367188 15.523438 14.453125 15.46875 14.550781 15.460938 C 14.71875 15.445312 14.882812 15.445312 15.050781 15.460938 C 15.203125 15.460938 15.273438 15.394531 15.269531 15.234375 C 15.269531 14.96875 15.269531 14.699219 15.269531 14.441406 C 15.304688 14.296875 15.351562 14.15625 15.410156 14.019531 Z M 16.65625 14 "/>
<path style=" stroke:none;fill-rule:nonzero;fill:url(#linear3);" d="M 19.679688 18.179688 L 20.867188 18.179688 C 21.136719 18.15625 21.40625 18.253906 21.597656 18.445312 C 21.789062 18.640625 21.886719 18.90625 21.867188 19.179688 C 21.867188 20.425781 21.867188 21.667969 21.867188 22.90625 C 21.886719 23.175781 21.789062 23.445312 21.597656 23.636719 C 21.40625 23.828125 21.136719 23.929688 20.867188 23.90625 L 19.679688 23.90625 L 19.679688 24.621094 C 19.710938 24.996094 19.574219 25.367188 19.304688 25.636719 C 19.035156 25.902344 18.664062 26.035156 18.285156 26 L 13.714844 26 C 13.34375 26.027344 12.976562 25.890625 12.710938 25.625 C 12.449219 25.359375 12.3125 24.992188 12.34375 24.621094 L 12.34375 23.894531 L 11.074219 23.894531 C 10.628906 23.898438 10.242188 23.578125 10.160156 23.140625 C 10.152344 23.054688 10.152344 22.96875 10.160156 22.882812 C 10.160156 21.648438 10.160156 20.421875 10.160156 19.183594 C 10.140625 18.914062 10.238281 18.648438 10.429688 18.457031 C 10.625 18.265625 10.890625 18.164062 11.160156 18.183594 L 12.355469 18.183594 C 12.355469 17.65625 12.355469 17.148438 12.355469 16.644531 C 12.359375 15.996094 12.855469 15.460938 13.5 15.40625 C 13.746094 15.40625 13.894531 15.492188 13.910156 15.683594 C 13.925781 15.878906 13.800781 15.992188 13.550781 16.023438 C 13.25 16.050781 13.015625 16.296875 13 16.59375 C 13 17.09375 13 17.625 13 18.160156 L 19.046875 18.160156 C 19.046875 17.625 19.046875 17.101562 19.046875 16.570312 C 19.011719 16.265625 18.765625 16.035156 18.460938 16.023438 C 18.210938 15.992188 18.09375 15.878906 18.117188 15.679688 C 18.132812 15.480469 18.269531 15.390625 18.523438 15.40625 C 19.117188 15.445312 19.59375 15.90625 19.65625 16.5 C 19.695312 16.945312 19.65625 17.390625 19.65625 17.835938 Z M 13 21.160156 C 12.996094 21.203125 12.996094 21.242188 13 21.285156 C 13 22.429688 13 23.578125 13 24.726562 C 13 25.144531 13.269531 25.375 13.726562 25.375 L 18.335938 25.375 C 18.539062 25.402344 18.742188 25.335938 18.886719 25.191406 C 19.03125 25.046875 19.097656 24.84375 19.070312 24.640625 L 19.070312 21.382812 C 19.070312 21.308594 19.070312 21.234375 19.070312 21.160156 Z M 20.839844 20.089844 C 20.84375 19.960938 20.789062 19.835938 20.695312 19.746094 C 20.597656 19.65625 20.46875 19.613281 20.339844 19.625 C 20.210938 19.625 20.085938 19.675781 19.996094 19.773438 C 19.90625 19.867188 19.859375 19.996094 19.871094 20.125 C 19.886719 20.390625 20.105469 20.59375 20.371094 20.59375 C 20.5 20.597656 20.628906 20.542969 20.71875 20.445312 C 20.804688 20.351562 20.851562 20.21875 20.839844 20.089844 Z M 20.839844 20.089844 "/>
<path style=" stroke:none;fill-rule:nonzero;fill:url(#linear4);" d="M 17.921875 22.070312 L 17.921875 22.878906 L 14.09375 22.878906 L 14.09375 22.070312 Z M 17.921875 22.070312 "/>
<path style=" stroke:none;fill-rule:nonzero;fill:url(#linear5);" d="M 14.101562 23.5 L 16.253906 23.5 L 16.253906 24.316406 L 14.101562 24.316406 Z M 14.101562 23.5 "/>
</g>
</svg>
