
<svg xmlns="http://www.w3.org/2000/svg" xmlns:xlink="http://www.w3.org/1999/xlink" width="32px" height="32px" viewBox="0 0 32 32" version="1.1">
<defs>
<linearGradient id="linear0" gradientUnits="userSpaceOnUse" x1="32" y1="3.8" x2="32" y2="23.49" gradientTransform="matrix(0.5,0,0,0.5,0,0)">
<stop offset="0" style="stop-color:rgb(16.078431%,71.372549%,96.470588%);stop-opacity:1;"/>
<stop offset="0.67" style="stop-color:rgb(39.607843%,45.098039%,82.745098%);stop-opacity:1;"/>
<stop offset="1" style="stop-color:rgb(49.411765%,34.117647%,76.862745%);stop-opacity:1;"/>
</linearGradient>
<linearGradient id="linear1" gradientUnits="userSpaceOnUse" x1="32" y1="60.9" x2="32" y2="18.72" gradientTransform="matrix(0.5,0,0,0.5,0,0)">
<stop offset="0" style="stop-color:rgb(86.27451%,87.058824%,88.627451%);stop-opacity:1;"/>
<stop offset="0.57" style="stop-color:rgb(87.058824%,87.843137%,89.411765%);stop-opacity:1;"/>
<stop offset="0.81" style="stop-color:rgb(89.803922%,90.588235%,91.764706%);stop-opacity:1;"/>
<stop offset="0.99" style="stop-color:rgb(94.901961%,95.294118%,95.686275%);stop-opacity:1;"/>
<stop offset="1" style="stop-color:rgb(95.294118%,95.686275%,96.078431%);stop-opacity:1;"/>
</linearGradient>
<linearGradient id="linear2" gradientUnits="userSpaceOnUse" x1="32" y1="51.86" x2="32" y2="31.55" gradientTransform="matrix(0.5,0,0,0.5,0,0)">
<stop offset="0" style="stop-color:rgb(75.294118%,75.294118%,75.294118%);stop-opacity:1;"/>
<stop offset="1" style="stop-color:rgb(55.686275%,55.686275%,55.686275%);stop-opacity:1;"/>
</linearGradient>
<linearGradient id="linear3" gradientUnits="userSpaceOnUse" x1="32" y1="51.86" x2="32" y2="31.55" gradientTransform="matrix(0.5,0,0,0.5,0,0)">
<stop offset="0" style="stop-color:rgb(75.294118%,75.294118%,75.294118%);stop-opacity:1;"/>
<stop offset="1" style="stop-color:rgb(55.686275%,55.686275%,55.686275%);stop-opacity:1;"/>
</linearGradient>
</defs>
<g id="surface1">
<path style=" stroke:none;fill-rule:nonzero;fill:url(#linear0);" d="M 32 10.65625 C 31.996094 9.242188 30.851562 8.09375 29.433594 8.09375 L 20.726562 8.09375 C 18.945312 8.09375 17.492188 6.671875 17.453125 4.890625 C 17.484375 3.078125 16.039062 1.582031 14.226562 1.550781 L 1.691406 1.550781 C 0.757812 1.550781 0 2.304688 0 3.242188 L 0 11.710938 L 32 11.710938 Z M 32 10.65625 "/>
<path style=" stroke:none;fill-rule:nonzero;fill:url(#linear1);" d="M 29.433594 9.359375 L 2.566406 9.359375 C 1.148438 9.359375 0 10.507812 0 11.925781 L 0 27.890625 C 0.00390625 29.304688 1.148438 30.449219 2.566406 30.449219 L 29.433594 30.449219 C 30.851562 30.449219 31.996094 29.304688 32 27.890625 L 32 11.925781 C 32 10.507812 30.851562 9.359375 29.433594 9.359375 Z M 29.433594 9.359375 "/>
<path style=" stroke:none;fill-rule:nonzero;fill:url(#linear2);" d="M 17.535156 20.324219 C 17.535156 19.476562 16.847656 18.789062 16 18.789062 C 15.152344 18.789062 14.464844 19.476562 14.464844 20.324219 C 14.464844 21.171875 15.152344 21.859375 16 21.859375 C 16.847656 21.859375 17.535156 21.171875 17.535156 20.324219 Z M 15.191406 20.324219 C 15.191406 19.878906 15.554688 19.515625 16 19.515625 C 16.445312 19.515625 16.808594 19.878906 16.808594 20.324219 C 16.808594 20.773438 16.445312 21.132812 16 21.132812 C 15.785156 21.136719 15.578125 21.050781 15.425781 20.898438 C 15.273438 20.746094 15.1875 20.539062 15.191406 20.324219 Z M 15.191406 20.324219 "/>
<path style=" stroke:none;fill-rule:nonzero;fill:url(#linear3);" d="M 16 14.824219 C 12.960938 14.824219 10.5 17.289062 10.5 20.324219 C 10.5 23.363281 12.960938 25.824219 16 25.824219 C 19.039062 25.824219 21.5 23.363281 21.5 20.324219 C 21.5 17.289062 19.039062 14.824219 16 14.824219 Z M 19.800781 20.324219 C 19.796875 22.421875 18.097656 24.125 16 24.128906 L 16 23.71875 C 17.875 23.71875 19.390625 22.199219 19.394531 20.324219 Z M 13.382812 20.324219 C 13.382812 18.882812 14.554688 17.710938 16 17.710938 C 17.445312 17.710938 18.617188 18.882812 18.617188 20.324219 C 18.617188 21.769531 17.445312 22.941406 16 22.941406 C 14.554688 22.9375 13.386719 21.769531 13.382812 20.324219 Z M 16 25.171875 L 16 24.765625 C 18.453125 24.761719 20.4375 22.777344 20.441406 20.324219 L 20.84375 20.324219 C 20.84375 23 18.675781 25.167969 16 25.171875 Z M 16 25.171875 "/>
</g>
</svg>
