
<svg xmlns="http://www.w3.org/2000/svg" xmlns:xlink="http://www.w3.org/1999/xlink" width="32px" height="32px" viewBox="0 0 32 32" version="1.1">
<defs>
<linearGradient id="linear0" gradientUnits="userSpaceOnUse" x1="32" y1="60.27" x2="32" y2="4.37" gradientTransform="matrix(0.5,0,0,0.5,0,0)">
<stop offset="0" style="stop-color:rgb(92.54902%,25.098039%,47.843137%);stop-opacity:1;"/>
<stop offset="1" style="stop-color:rgb(49.411765%,34.117647%,76.862745%);stop-opacity:1;"/>
</linearGradient>
<linearGradient id="linear1" gradientUnits="userSpaceOnUse" x1="26.83" y1="31.6" x2="28.94" y2="38.82" gradientTransform="matrix(0.5,0,0,0.5,0,0)">
<stop offset="0" style="stop-color:rgb(86.27451%,87.058824%,88.627451%);stop-opacity:1;"/>
<stop offset="0.57" style="stop-color:rgb(87.058824%,87.843137%,89.411765%);stop-opacity:1;"/>
<stop offset="0.81" style="stop-color:rgb(89.803922%,90.588235%,91.764706%);stop-opacity:1;"/>
<stop offset="0.99" style="stop-color:rgb(94.901961%,95.294118%,95.686275%);stop-opacity:1;"/>
<stop offset="1" style="stop-color:rgb(95.294118%,95.686275%,96.078431%);stop-opacity:1;"/>
</linearGradient>
<linearGradient id="linear2" gradientUnits="userSpaceOnUse" x1="35.67" y1="31.6" x2="37.78" y2="38.82" gradientTransform="matrix(0.5,0,0,0.5,0,0)">
<stop offset="0" style="stop-color:rgb(86.27451%,87.058824%,88.627451%);stop-opacity:1;"/>
<stop offset="0.57" style="stop-color:rgb(87.058824%,87.843137%,89.411765%);stop-opacity:1;"/>
<stop offset="0.81" style="stop-color:rgb(89.803922%,90.588235%,91.764706%);stop-opacity:1;"/>
<stop offset="0.99" style="stop-color:rgb(94.901961%,95.294118%,95.686275%);stop-opacity:1;"/>
<stop offset="1" style="stop-color:rgb(95.294118%,95.686275%,96.078431%);stop-opacity:1;"/>
</linearGradient>
<linearGradient id="linear3" gradientUnits="userSpaceOnUse" x1="26.83" y1="40.44" x2="28.94" y2="47.66" gradientTransform="matrix(0.5,0,0,0.5,0,0)">
<stop offset="0" style="stop-color:rgb(86.27451%,87.058824%,88.627451%);stop-opacity:1;"/>
<stop offset="0.57" style="stop-color:rgb(87.058824%,87.843137%,89.411765%);stop-opacity:1;"/>
<stop offset="0.81" style="stop-color:rgb(89.803922%,90.588235%,91.764706%);stop-opacity:1;"/>
<stop offset="0.99" style="stop-color:rgb(94.901961%,95.294118%,95.686275%);stop-opacity:1;"/>
<stop offset="1" style="stop-color:rgb(95.294118%,95.686275%,96.078431%);stop-opacity:1;"/>
</linearGradient>
<linearGradient id="linear4" gradientUnits="userSpaceOnUse" x1="35.67" y1="40.44" x2="37.78" y2="47.66" gradientTransform="matrix(0.5,0,0,0.5,0,0)">
<stop offset="0" style="stop-color:rgb(86.27451%,87.058824%,88.627451%);stop-opacity:1;"/>
<stop offset="0.57" style="stop-color:rgb(87.058824%,87.843137%,89.411765%);stop-opacity:1;"/>
<stop offset="0.81" style="stop-color:rgb(89.803922%,90.588235%,91.764706%);stop-opacity:1;"/>
<stop offset="0.99" style="stop-color:rgb(94.901961%,95.294118%,95.686275%);stop-opacity:1;"/>
<stop offset="1" style="stop-color:rgb(95.294118%,95.686275%,96.078431%);stop-opacity:1;"/>
</linearGradient>
</defs>
<g id="surface1">
<path style=" stroke:none;fill-rule:nonzero;fill:url(#linear0);" d="M 25.535156 10.800781 L 17.535156 2.800781 C 17.132812 2.394531 16.582031 2.164062 16.007812 2.164062 C 15.4375 2.164062 14.890625 2.394531 14.484375 2.800781 L 6.484375 10.800781 L 3.257812 14 L 3.257812 30.734375 L 28.757812 30.734375 L 28.757812 14 Z M 25.535156 10.800781 "/>
<path style=" stroke:none;fill-rule:nonzero;fill:rgb(80.784314%,80.784314%,80.784314%);fill-opacity:1;" d="M 30.960938 18.230469 C 30.683594 18.226562 30.421875 18.117188 30.226562 17.925781 L 16 3.699219 L 1.773438 17.925781 C 1.359375 18.332031 0.695312 18.324219 0.289062 17.910156 C -0.117188 17.496094 -0.109375 16.832031 0.304688 16.425781 L 14.804688 1.925781 C 15.476562 1.257812 16.554688 1.257812 17.226562 1.925781 L 31.726562 16.425781 C 32.019531 16.722656 32.109375 17.171875 31.949219 17.558594 C 31.789062 17.945312 31.410156 18.203125 30.992188 18.203125 Z M 30.960938 18.230469 "/>
<path style=" stroke:none;fill-rule:nonzero;fill:url(#linear1);" d="M 12.425781 16.089844 L 15.460938 16.089844 L 15.460938 19.125 L 12.425781 19.125 Z M 12.425781 16.089844 "/>
<path style=" stroke:none;fill-rule:nonzero;fill:url(#linear2);" d="M 16.84375 16.089844 L 19.878906 16.089844 L 19.878906 19.125 L 16.84375 19.125 Z M 16.84375 16.089844 "/>
<path style=" stroke:none;fill-rule:nonzero;fill:url(#linear3);" d="M 12.425781 20.507812 L 15.460938 20.507812 L 15.460938 23.546875 L 12.425781 23.546875 Z M 12.425781 20.507812 "/>
<path style=" stroke:none;fill-rule:nonzero;fill:url(#linear4);" d="M 16.84375 20.507812 L 19.878906 20.507812 L 19.878906 23.546875 L 16.84375 23.546875 Z M 16.84375 20.507812 "/>
</g>
</svg>
