
<svg xmlns="http://www.w3.org/2000/svg" xmlns:xlink="http://www.w3.org/1999/xlink" width="32px" height="32px" viewBox="0 0 32 32" version="1.1">
<defs>
<linearGradient id="linear0" gradientUnits="userSpaceOnUse" x1="32" y1="3.8" x2="32" y2="23.49" gradientTransform="matrix(0.5,0,0,0.5,0,0)">
<stop offset="0" style="stop-color:rgb(16.078431%,71.372549%,96.470588%);stop-opacity:1;"/>
<stop offset="0.67" style="stop-color:rgb(39.607843%,45.098039%,82.745098%);stop-opacity:1;"/>
<stop offset="1" style="stop-color:rgb(49.411765%,34.117647%,76.862745%);stop-opacity:1;"/>
</linearGradient>
<linearGradient id="linear1" gradientUnits="userSpaceOnUse" x1="32" y1="60.9" x2="32" y2="18.72" gradientTransform="matrix(0.5,0,0,0.5,0,0)">
<stop offset="0" style="stop-color:rgb(86.27451%,87.058824%,88.627451%);stop-opacity:1;"/>
<stop offset="0.57" style="stop-color:rgb(87.058824%,87.843137%,89.411765%);stop-opacity:1;"/>
<stop offset="0.81" style="stop-color:rgb(89.803922%,90.588235%,91.764706%);stop-opacity:1;"/>
<stop offset="0.99" style="stop-color:rgb(94.901961%,95.294118%,95.686275%);stop-opacity:1;"/>
<stop offset="1" style="stop-color:rgb(95.294118%,95.686275%,96.078431%);stop-opacity:1;"/>
</linearGradient>
<linearGradient id="linear2" gradientUnits="userSpaceOnUse" x1="22.23" y1="50" x2="22.23" y2="31.89" gradientTransform="matrix(0.5,0,0,0.5,0,0)">
<stop offset="0" style="stop-color:rgb(75.294118%,75.294118%,75.294118%);stop-opacity:1;"/>
<stop offset="1" style="stop-color:rgb(55.686275%,55.686275%,55.686275%);stop-opacity:1;"/>
</linearGradient>
<linearGradient id="linear3" gradientUnits="userSpaceOnUse" x1="41.77" y1="50" x2="41.77" y2="31.89" gradientTransform="matrix(0.5,0,0,0.5,0,0)">
<stop offset="0" style="stop-color:rgb(75.294118%,75.294118%,75.294118%);stop-opacity:1;"/>
<stop offset="1" style="stop-color:rgb(55.686275%,55.686275%,55.686275%);stop-opacity:1;"/>
</linearGradient>
<linearGradient id="linear4" gradientUnits="userSpaceOnUse" x1="32" y1="50" x2="32" y2="31.89" gradientTransform="matrix(0.5,0,0,0.5,0,0)">
<stop offset="0" style="stop-color:rgb(75.294118%,75.294118%,75.294118%);stop-opacity:1;"/>
<stop offset="1" style="stop-color:rgb(55.686275%,55.686275%,55.686275%);stop-opacity:1;"/>
</linearGradient>
</defs>
<g id="surface1">
<path style=" stroke:none;fill-rule:nonzero;fill:url(#linear0);" d="M 32 10.65625 C 31.996094 9.242188 30.851562 8.09375 29.433594 8.09375 L 20.726562 8.09375 C 18.945312 8.09375 17.492188 6.671875 17.453125 4.890625 C 17.484375 3.078125 16.039062 1.582031 14.226562 1.550781 L 1.691406 1.550781 C 0.757812 1.550781 0 2.304688 0 3.242188 L 0 11.710938 L 32 11.710938 Z M 32 10.65625 "/>
<path style=" stroke:none;fill-rule:nonzero;fill:url(#linear1);" d="M 29.433594 9.359375 L 2.566406 9.359375 C 1.148438 9.359375 0 10.507812 0 11.925781 L 0 27.890625 C 0.00390625 29.304688 1.148438 30.449219 2.566406 30.449219 L 29.433594 30.449219 C 30.851562 30.449219 31.996094 29.304688 32 27.890625 L 32 11.925781 C 32 10.507812 30.851562 9.359375 29.433594 9.359375 Z M 29.433594 9.359375 "/>
<path style=" stroke:none;fill-rule:nonzero;fill:url(#linear2);" d="M 12.855469 24.628906 C 12.679688 24.632812 12.511719 24.554688 12.394531 24.421875 L 8.921875 20.460938 C 8.71875 20.226562 8.71875 19.886719 8.921875 19.65625 L 12.421875 15.695312 C 12.546875 15.488281 12.789062 15.375 13.03125 15.414062 C 13.273438 15.449219 13.46875 15.625 13.53125 15.863281 C 13.589844 16.101562 13.503906 16.351562 13.308594 16.5 L 10.191406 20.058594 L 13.308594 23.621094 C 13.421875 23.742188 13.484375 23.90625 13.472656 24.070312 C 13.460938 24.238281 13.382812 24.394531 13.253906 24.5 C 13.140625 24.589844 13 24.632812 12.855469 24.628906 Z M 12.855469 24.628906 "/>
<path style=" stroke:none;fill-rule:nonzero;fill:url(#linear3);" d="M 19.144531 24.628906 C 19 24.628906 18.855469 24.578125 18.746094 24.480469 C 18.625 24.375 18.546875 24.222656 18.539062 24.0625 C 18.527344 23.898438 18.582031 23.742188 18.691406 23.621094 L 21.808594 20.058594 L 18.691406 16.5 C 18.535156 16.335938 18.480469 16.105469 18.546875 15.890625 C 18.617188 15.675781 18.796875 15.515625 19.019531 15.476562 C 19.238281 15.4375 19.464844 15.519531 19.605469 15.695312 L 23.078125 19.65625 C 23.28125 19.886719 23.28125 20.226562 23.078125 20.460938 L 19.605469 24.421875 C 19.488281 24.554688 19.320312 24.632812 19.144531 24.628906 Z M 19.144531 24.628906 "/>
<path style=" stroke:none;fill-rule:nonzero;fill:url(#linear4);" d="M 14.621094 24.769531 C 14.554688 24.769531 14.488281 24.757812 14.425781 24.734375 C 14.105469 24.628906 13.933594 24.285156 14.039062 23.964844 L 16.804688 15.765625 C 16.925781 15.46875 17.257812 15.3125 17.5625 15.414062 C 17.867188 15.515625 18.042969 15.839844 17.960938 16.148438 L 15.195312 24.355469 C 15.113281 24.601562 14.882812 24.769531 14.621094 24.769531 Z M 14.621094 24.769531 "/>
</g>
</svg>
