
<svg xmlns="http://www.w3.org/2000/svg" xmlns:xlink="http://www.w3.org/1999/xlink" width="32px" height="32px" viewBox="0 0 32 32" version="1.1">
<defs>
<linearGradient id="linear0" gradientUnits="userSpaceOnUse" x1="32" y1="3.8" x2="32" y2="23.49" gradientTransform="matrix(0.5,0,0,0.5,0,0)">
<stop offset="0" style="stop-color:rgb(16.078431%,71.372549%,96.470588%);stop-opacity:1;"/>
<stop offset="0.67" style="stop-color:rgb(39.607843%,45.098039%,82.745098%);stop-opacity:1;"/>
<stop offset="1" style="stop-color:rgb(49.411765%,34.117647%,76.862745%);stop-opacity:1;"/>
</linearGradient>
<linearGradient id="linear1" gradientUnits="userSpaceOnUse" x1="32" y1="60.9" x2="32" y2="18.72" gradientTransform="matrix(0.5,0,0,0.5,0,0)">
<stop offset="0" style="stop-color:rgb(86.27451%,87.058824%,88.627451%);stop-opacity:1;"/>
<stop offset="0.57" style="stop-color:rgb(87.058824%,87.843137%,89.411765%);stop-opacity:1;"/>
<stop offset="0.81" style="stop-color:rgb(89.803922%,90.588235%,91.764706%);stop-opacity:1;"/>
<stop offset="0.99" style="stop-color:rgb(94.901961%,95.294118%,95.686275%);stop-opacity:1;"/>
<stop offset="1" style="stop-color:rgb(95.294118%,95.686275%,96.078431%);stop-opacity:1;"/>
</linearGradient>
<linearGradient id="linear2" gradientUnits="userSpaceOnUse" x1="32.37" y1="52.12" x2="32.37" y2="28.38" gradientTransform="matrix(0.66,0,0,0.66,-5.335,-6.445)">
<stop offset="0" style="stop-color:rgb(75.294118%,75.294118%,75.294118%);stop-opacity:1;"/>
<stop offset="1" style="stop-color:rgb(55.686275%,55.686275%,55.686275%);stop-opacity:1;"/>
</linearGradient>
<linearGradient id="linear3" gradientUnits="userSpaceOnUse" x1="32.36" y1="52.12" x2="32.36" y2="28.38" gradientTransform="matrix(0.657342,-0.0010719,0.0010719,0.657342,-5.333865,-6.445484)">
<stop offset="0" style="stop-color:rgb(75.294118%,75.294118%,75.294118%);stop-opacity:1;"/>
<stop offset="1" style="stop-color:rgb(55.686275%,55.686275%,55.686275%);stop-opacity:1;"/>
</linearGradient>
</defs>
<g id="surface1">
<path style=" stroke:none;fill-rule:nonzero;fill:url(#linear0);" d="M 32 10.65625 C 31.996094 9.242188 30.851562 8.09375 29.433594 8.09375 L 20.726562 8.09375 C 18.945312 8.09375 17.492188 6.671875 17.453125 4.890625 C 17.484375 3.078125 16.039062 1.582031 14.226562 1.550781 L 1.691406 1.550781 C 0.757812 1.550781 0 2.304688 0 3.242188 L 0 11.710938 L 32 11.710938 Z M 32 10.65625 "/>
<path style=" stroke:none;fill-rule:nonzero;fill:url(#linear1);" d="M 29.433594 9.359375 L 2.566406 9.359375 C 1.148438 9.359375 0 10.507812 0 11.925781 L 0 27.890625 C 0.00390625 29.304688 1.148438 30.449219 2.566406 30.449219 L 29.433594 30.449219 C 30.851562 30.449219 31.996094 29.304688 32 27.890625 L 32 11.925781 C 32 10.507812 30.851562 9.359375 29.433594 9.359375 Z M 29.433594 9.359375 "/>
<path style=" stroke:none;fill-rule:nonzero;fill:url(#linear2);" d="M 15.835938 14.246094 C 15.339844 14.347656 14.988281 14.785156 15 15.289062 L 15 21.625 C 15 22.179688 15.445312 22.625 16 22.625 C 16.554688 22.625 17 22.179688 17 21.625 L 17 15.234375 C 17 14.941406 16.871094 14.660156 16.648438 14.46875 C 16.421875 14.277344 16.125 14.195312 15.835938 14.246094 Z M 15.835938 14.246094 "/>
<path style=" stroke:none;fill-rule:nonzero;fill:url(#linear3);" d="M 17.023438 24.339844 C 17.394531 24.902344 17.238281 25.660156 16.671875 26.03125 C 16.109375 26.398438 15.355469 26.242188 14.984375 25.679688 C 14.613281 25.117188 14.773438 24.359375 15.335938 23.988281 C 15.898438 23.617188 16.652344 23.777344 17.023438 24.339844 Z M 17.023438 24.339844 "/>
</g>
</svg>
