
<svg xmlns="http://www.w3.org/2000/svg" xmlns:xlink="http://www.w3.org/1999/xlink" width="32px" height="32px" viewBox="0 0 32 32" version="1.1">
<defs>
<linearGradient id="linear0" gradientUnits="userSpaceOnUse" x1="32" y1="3.8" x2="32" y2="23.49" gradientTransform="matrix(0.5,0,0,0.5,0,0)">
<stop offset="0" style="stop-color:rgb(16.078431%,71.372549%,96.470588%);stop-opacity:1;"/>
<stop offset="0.67" style="stop-color:rgb(39.607843%,45.098039%,82.745098%);stop-opacity:1;"/>
<stop offset="1" style="stop-color:rgb(49.411765%,34.117647%,76.862745%);stop-opacity:1;"/>
</linearGradient>
<linearGradient id="linear1" gradientUnits="userSpaceOnUse" x1="32" y1="60.9" x2="32" y2="18.72" gradientTransform="matrix(0.5,0,0,0.5,0,0)">
<stop offset="0" style="stop-color:rgb(86.27451%,87.058824%,88.627451%);stop-opacity:1;"/>
<stop offset="0.57" style="stop-color:rgb(87.058824%,87.843137%,89.411765%);stop-opacity:1;"/>
<stop offset="0.81" style="stop-color:rgb(89.803922%,90.588235%,91.764706%);stop-opacity:1;"/>
<stop offset="0.99" style="stop-color:rgb(94.901961%,95.294118%,95.686275%);stop-opacity:1;"/>
<stop offset="1" style="stop-color:rgb(95.294118%,95.686275%,96.078431%);stop-opacity:1;"/>
</linearGradient>
<linearGradient id="linear2" gradientUnits="userSpaceOnUse" x1="32" y1="47.81" x2="32" y2="31.48" gradientTransform="matrix(0.5,0,0,0.5,0,0)">
<stop offset="0" style="stop-color:rgb(75.294118%,75.294118%,75.294118%);stop-opacity:1;"/>
<stop offset="1" style="stop-color:rgb(55.686275%,55.686275%,55.686275%);stop-opacity:1;"/>
</linearGradient>
</defs>
<g id="surface1">
<path style=" stroke:none;fill-rule:nonzero;fill:url(#linear0);" d="M 32 10.65625 C 31.996094 9.242188 30.851562 8.09375 29.433594 8.09375 L 20.726562 8.09375 C 18.945312 8.09375 17.492188 6.671875 17.453125 4.890625 C 17.484375 3.078125 16.039062 1.582031 14.226562 1.550781 L 1.691406 1.550781 C 0.757812 1.550781 0 2.304688 0 3.242188 L 0 11.710938 L 32 11.710938 Z M 32 10.65625 "/>
<path style=" stroke:none;fill-rule:nonzero;fill:url(#linear1);" d="M 29.433594 9.359375 L 2.566406 9.359375 C 1.148438 9.359375 0 10.507812 0 11.925781 L 0 27.890625 C 0.00390625 29.304688 1.148438 30.449219 2.566406 30.449219 L 29.433594 30.449219 C 30.851562 30.449219 31.996094 29.304688 32 27.890625 L 32 11.925781 C 32 10.507812 30.851562 9.359375 29.433594 9.359375 Z M 29.433594 9.359375 "/>
<path style=" stroke:none;fill-rule:nonzero;fill:url(#linear2);" d="M 19.859375 24.546875 C 21.367188 24.550781 22.722656 23.625 23.257812 22.214844 C 23.796875 20.808594 23.40625 19.210938 22.277344 18.214844 C 21.148438 17.214844 19.515625 17.019531 18.183594 17.726562 C 17.894531 16.164062 16.480469 15.070312 14.894531 15.179688 C 13.3125 15.296875 12.066406 16.578125 12 18.164062 C 12 18.214844 12 18.265625 12 18.316406 C 11.890625 18.316406 11.78125 18.316406 11.664062 18.316406 C 10.519531 18.269531 9.441406 18.855469 8.855469 19.839844 C 8.269531 20.824219 8.269531 22.050781 8.855469 23.035156 C 9.441406 24.019531 10.519531 24.605469 11.664062 24.558594 Z M 19.859375 24.546875 "/>
</g>
</svg>
