
<svg xmlns="http://www.w3.org/2000/svg" xmlns:xlink="http://www.w3.org/1999/xlink" width="32px" height="32px" viewBox="0 0 32 32" version="1.1">
<defs>
<linearGradient id="linear0" gradientUnits="userSpaceOnUse" x1="32" y1="3.8" x2="32" y2="23.49" gradientTransform="matrix(0.5,0,0,0.5,0,0)">
<stop offset="0" style="stop-color:rgb(16.078431%,71.372549%,96.470588%);stop-opacity:1;"/>
<stop offset="0.67" style="stop-color:rgb(39.607843%,45.098039%,82.745098%);stop-opacity:1;"/>
<stop offset="1" style="stop-color:rgb(49.411765%,34.117647%,76.862745%);stop-opacity:1;"/>
</linearGradient>
<linearGradient id="linear1" gradientUnits="userSpaceOnUse" x1="32" y1="60.9" x2="32" y2="18.72" gradientTransform="matrix(0.5,0,0,0.5,0,0)">
<stop offset="0" style="stop-color:rgb(86.27451%,87.058824%,88.627451%);stop-opacity:1;"/>
<stop offset="0.57" style="stop-color:rgb(87.058824%,87.843137%,89.411765%);stop-opacity:1;"/>
<stop offset="0.81" style="stop-color:rgb(89.803922%,90.588235%,91.764706%);stop-opacity:1;"/>
<stop offset="0.99" style="stop-color:rgb(94.901961%,95.294118%,95.686275%);stop-opacity:1;"/>
<stop offset="1" style="stop-color:rgb(95.294118%,95.686275%,96.078431%);stop-opacity:1;"/>
</linearGradient>
<linearGradient id="linear2" gradientUnits="userSpaceOnUse" x1="32" y1="46.24" x2="32" y2="39" gradientTransform="matrix(0.5,0,0,0.5,0,0)">
<stop offset="0" style="stop-color:rgb(75.294118%,75.294118%,75.294118%);stop-opacity:1;"/>
<stop offset="1" style="stop-color:rgb(55.686275%,55.686275%,55.686275%);stop-opacity:1;"/>
</linearGradient>
<linearGradient id="linear3" gradientUnits="userSpaceOnUse" x1="32" y1="52.62" x2="32" y2="29.91" gradientTransform="matrix(0.5,0,0,0.5,0,0)">
<stop offset="0" style="stop-color:rgb(75.294118%,75.294118%,75.294118%);stop-opacity:1;"/>
<stop offset="1" style="stop-color:rgb(55.686275%,55.686275%,55.686275%);stop-opacity:1;"/>
</linearGradient>
</defs>
<g id="surface1">
<path style=" stroke:none;fill-rule:nonzero;fill:url(#linear0);" d="M 32 10.65625 C 31.996094 9.242188 30.851562 8.09375 29.433594 8.09375 L 20.726562 8.09375 C 18.945312 8.09375 17.492188 6.671875 17.453125 4.890625 C 17.484375 3.078125 16.039062 1.582031 14.226562 1.550781 L 1.691406 1.550781 C 0.757812 1.550781 0 2.304688 0 3.242188 L 0 11.710938 L 32 11.710938 Z M 32 10.65625 "/>
<path style=" stroke:none;fill-rule:nonzero;fill:url(#linear1);" d="M 29.433594 9.359375 L 2.566406 9.359375 C 1.148438 9.359375 0 10.507812 0 11.925781 L 0 27.890625 C 0.00390625 29.304688 1.148438 30.449219 2.566406 30.449219 L 29.433594 30.449219 C 30.851562 30.449219 31.996094 29.304688 32 27.890625 L 32 11.925781 C 32 10.507812 30.851562 9.359375 29.433594 9.359375 Z M 29.433594 9.359375 "/>
<path style=" stroke:none;fill-rule:nonzero;fill:url(#linear2);" d="M 17.675781 21.132812 C 17.675781 22.0625 16.925781 22.808594 16 22.808594 C 15.074219 22.808594 14.324219 22.0625 14.324219 21.132812 C 14.324219 20.210938 15.074219 19.460938 16 19.460938 C 16.925781 19.460938 17.675781 20.210938 17.675781 21.132812 Z M 17.675781 21.132812 "/>
<path style=" stroke:none;fill-rule:nonzero;fill:url(#linear3);" d="M 20.199219 16.5 L 19 16.5 L 19 15.859375 C 18.988281 15.3125 18.546875 14.875 18 14.859375 L 14 14.859375 C 13.445312 14.859375 12.988281 15.304688 12.976562 15.859375 L 12.976562 16.5 L 11.800781 16.5 C 10.859375 16.503906 10.09375 17.265625 10.09375 18.210938 L 10.09375 23.632812 C 10.097656 24.574219 10.859375 25.335938 11.800781 25.339844 L 20.199219 25.339844 C 21.140625 25.335938 21.902344 24.574219 21.90625 23.632812 L 21.90625 18.210938 C 21.90625 17.265625 21.140625 16.503906 20.199219 16.5 Z M 16 24.210938 C 14.300781 24.210938 12.925781 22.832031 12.925781 21.132812 C 12.925781 19.4375 14.300781 18.058594 16 18.058594 C 17.699219 18.058594 19.074219 19.4375 19.074219 21.132812 C 19.070312 22.832031 17.695312 24.207031 16 24.210938 Z M 20 19.140625 C 19.613281 19.140625 19.300781 18.828125 19.300781 18.441406 C 19.300781 18.054688 19.613281 17.742188 20 17.742188 C 20.386719 17.742188 20.699219 18.054688 20.699219 18.441406 C 20.699219 18.828125 20.386719 19.140625 20 19.140625 Z M 20 19.140625 "/>
</g>
</svg>
