
<svg xmlns="http://www.w3.org/2000/svg" xmlns:xlink="http://www.w3.org/1999/xlink" width="32px" height="32px" viewBox="0 0 32 32" version="1.1">
<defs>
<linearGradient id="linear0" gradientUnits="userSpaceOnUse" x1="32" y1="3.8" x2="32" y2="23.49" gradientTransform="matrix(0.5,0,0,0.5,0,0)">
<stop offset="0" style="stop-color:rgb(16.078431%,71.372549%,96.470588%);stop-opacity:1;"/>
<stop offset="0.67" style="stop-color:rgb(39.607843%,45.098039%,82.745098%);stop-opacity:1;"/>
<stop offset="1" style="stop-color:rgb(49.411765%,34.117647%,76.862745%);stop-opacity:1;"/>
</linearGradient>
<linearGradient id="linear1" gradientUnits="userSpaceOnUse" x1="32" y1="60.9" x2="32" y2="18.72" gradientTransform="matrix(0.5,0,0,0.5,0,0)">
<stop offset="0" style="stop-color:rgb(86.27451%,87.058824%,88.627451%);stop-opacity:1;"/>
<stop offset="0.57" style="stop-color:rgb(87.058824%,87.843137%,89.411765%);stop-opacity:1;"/>
<stop offset="0.81" style="stop-color:rgb(89.803922%,90.588235%,91.764706%);stop-opacity:1;"/>
<stop offset="0.99" style="stop-color:rgb(94.901961%,95.294118%,95.686275%);stop-opacity:1;"/>
<stop offset="1" style="stop-color:rgb(95.294118%,95.686275%,96.078431%);stop-opacity:1;"/>
</linearGradient>
<linearGradient id="linear2" gradientUnits="userSpaceOnUse" x1="32" y1="49.65" x2="32" y2="33.14" gradientTransform="matrix(0.5,0,0,0.5,0,0)">
<stop offset="0" style="stop-color:rgb(75.294118%,75.294118%,75.294118%);stop-opacity:1;"/>
<stop offset="1" style="stop-color:rgb(55.686275%,55.686275%,55.686275%);stop-opacity:1;"/>
</linearGradient>
<linearGradient id="linear3" gradientUnits="userSpaceOnUse" x1="25.94" y1="49.65" x2="25.94" y2="33.14" gradientTransform="matrix(0.5,0,0,0.5,0,0)">
<stop offset="0" style="stop-color:rgb(75.294118%,75.294118%,75.294118%);stop-opacity:1;"/>
<stop offset="1" style="stop-color:rgb(55.686275%,55.686275%,55.686275%);stop-opacity:1;"/>
</linearGradient>
<linearGradient id="linear4" gradientUnits="userSpaceOnUse" x1="25.94" y1="49.65" x2="25.94" y2="33.14" gradientTransform="matrix(0.5,0,0,0.5,0,0)">
<stop offset="0" style="stop-color:rgb(75.294118%,75.294118%,75.294118%);stop-opacity:1;"/>
<stop offset="1" style="stop-color:rgb(55.686275%,55.686275%,55.686275%);stop-opacity:1;"/>
</linearGradient>
<linearGradient id="linear5" gradientUnits="userSpaceOnUse" x1="25.94" y1="49.65" x2="25.94" y2="33.14" gradientTransform="matrix(0.5,0,0,0.5,0,0)">
<stop offset="0" style="stop-color:rgb(75.294118%,75.294118%,75.294118%);stop-opacity:1;"/>
<stop offset="1" style="stop-color:rgb(55.686275%,55.686275%,55.686275%);stop-opacity:1;"/>
</linearGradient>
<linearGradient id="linear6" gradientUnits="userSpaceOnUse" x1="25.94" y1="49.65" x2="25.94" y2="33.14" gradientTransform="matrix(0.5,0,0,0.5,0,0)">
<stop offset="0" style="stop-color:rgb(75.294118%,75.294118%,75.294118%);stop-opacity:1;"/>
<stop offset="1" style="stop-color:rgb(55.686275%,55.686275%,55.686275%);stop-opacity:1;"/>
</linearGradient>
</defs>
<g id="surface1">
<path style=" stroke:none;fill-rule:nonzero;fill:url(#linear0);" d="M 32 10.65625 C 31.996094 9.242188 30.851562 8.09375 29.433594 8.09375 L 20.726562 8.09375 C 18.945312 8.09375 17.492188 6.671875 17.453125 4.890625 C 17.484375 3.078125 16.039062 1.582031 14.226562 1.550781 L 1.691406 1.550781 C 0.757812 1.550781 0 2.304688 0 3.242188 L 0 11.710938 L 32 11.710938 Z M 32 10.65625 "/>
<path style=" stroke:none;fill-rule:nonzero;fill:url(#linear1);" d="M 29.433594 9.359375 L 2.566406 9.359375 C 1.148438 9.359375 0 10.507812 0 11.925781 L 0 27.890625 C 0.00390625 29.304688 1.148438 30.449219 2.566406 30.449219 L 29.433594 30.449219 C 30.851562 30.449219 31.996094 29.304688 32 27.890625 L 32 11.925781 C 32 10.507812 30.851562 9.359375 29.433594 9.359375 Z M 29.433594 9.359375 "/>
<path style=" stroke:none;fill-rule:nonzero;fill:url(#linear2);" d="M 22.382812 16.839844 C 21.824219 16.609375 21.242188 16.429688 20.648438 16.300781 L 20.648438 13.800781 C 20.648438 13.703125 20.605469 13.613281 20.53125 13.550781 C 20.457031 13.492188 20.359375 13.464844 20.265625 13.480469 C 17.929688 13.894531 16.34375 15.980469 15.871094 16.714844 C 12.058594 15.269531 9.660156 16.78125 9.558594 16.84375 C 9.464844 16.90625 9.40625 17.007812 9.410156 17.121094 L 9.410156 24.828125 C 9.414062 24.945312 9.476562 25.054688 9.582031 25.109375 C 9.683594 25.167969 9.808594 25.164062 9.910156 25.105469 C 9.910156 25.105469 12.246094 23.65625 15.871094 25.105469 L 16.101562 25.105469 C 16.101562 25.105469 18.441406 23.65625 22.066406 25.105469 C 22.105469 25.125 22.148438 25.132812 22.191406 25.128906 C 22.253906 25.128906 22.316406 25.109375 22.371094 25.074219 C 22.460938 25.015625 22.515625 24.914062 22.515625 24.804688 L 22.515625 17.144531 C 22.53125 17.027344 22.480469 16.910156 22.382812 16.839844 Z M 15.675781 24.339844 C 14.714844 23.984375 13.699219 23.800781 12.675781 23.789062 C 11.785156 23.78125 10.902344 23.949219 10.078125 24.289062 L 10.078125 17.335938 C 10.632812 17.054688 12.695312 16.21875 15.691406 17.367188 Z M 21.933594 24.339844 C 20.976562 23.984375 19.960938 23.796875 18.933594 23.789062 C 18.257812 23.785156 17.585938 23.875 16.933594 24.066406 C 17.628906 23.230469 18.828125 22.089844 20.367188 21.820312 C 20.523438 21.796875 20.648438 21.664062 20.648438 21.5 L 20.648438 17 C 21.085938 17.097656 21.515625 17.226562 21.933594 17.390625 Z M 21.933594 24.339844 "/>
<path style=" stroke:none;fill-rule:nonzero;fill:url(#linear3);" d="M 10.921875 18.039062 C 10.757812 18.113281 10.679688 18.304688 10.753906 18.46875 C 10.828125 18.632812 11.019531 18.707031 11.183594 18.632812 C 12.355469 18.242188 13.632812 18.296875 14.757812 18.800781 C 14.800781 18.808594 14.84375 18.808594 14.882812 18.800781 C 15.019531 18.777344 15.125 18.675781 15.152344 18.539062 C 15.179688 18.40625 15.117188 18.269531 15 18.199219 C 13.710938 17.617188 12.25 17.5625 10.921875 18.039062 Z M 10.921875 18.039062 "/>
<path style=" stroke:none;fill-rule:nonzero;fill:url(#linear4);" d="M 15 19.664062 C 13.714844 19.082031 12.25 19.023438 10.921875 19.5 C 10.839844 19.535156 10.777344 19.597656 10.746094 19.679688 C 10.714844 19.761719 10.71875 19.851562 10.753906 19.929688 C 10.832031 20.089844 11.019531 20.164062 11.183594 20.09375 C 12.355469 19.695312 13.632812 19.753906 14.757812 20.257812 C 14.800781 20.273438 14.84375 20.28125 14.882812 20.285156 C 15.019531 20.289062 15.140625 20.203125 15.183594 20.078125 C 15.246094 19.914062 15.164062 19.730469 15 19.664062 Z M 15 19.664062 "/>
<path style=" stroke:none;fill-rule:nonzero;fill:url(#linear5);" d="M 15 21.132812 C 13.707031 20.566406 12.246094 20.515625 10.921875 21 C 10.757812 21.074219 10.679688 21.265625 10.753906 21.429688 C 10.828125 21.59375 11.019531 21.667969 11.183594 21.59375 C 12.355469 21.199219 13.632812 21.261719 14.757812 21.765625 C 14.800781 21.78125 14.84375 21.789062 14.882812 21.789062 C 15.066406 21.820312 15.238281 21.703125 15.269531 21.519531 C 15.300781 21.339844 15.179688 21.167969 15 21.132812 Z M 15 21.132812 "/>
<path style=" stroke:none;fill-rule:nonzero;fill:url(#linear6);" d="M 15 22.601562 C 13.707031 22.019531 12.242188 21.964844 10.910156 22.445312 C 10.832031 22.480469 10.769531 22.546875 10.738281 22.625 C 10.707031 22.707031 10.710938 22.796875 10.746094 22.875 C 10.820312 23.039062 11.011719 23.109375 11.175781 23.039062 C 12.34375 22.644531 13.621094 22.703125 14.75 23.203125 C 14.789062 23.222656 14.832031 23.230469 14.875 23.230469 C 15.007812 23.230469 15.125 23.152344 15.175781 23.03125 C 15.242188 22.863281 15.164062 22.671875 15 22.601562 Z M 15 22.601562 "/>
</g>
</svg>
