
<svg xmlns="http://www.w3.org/2000/svg" xmlns:xlink="http://www.w3.org/1999/xlink" width="32px" height="32px" viewBox="0 0 32 32" version="1.1">
<defs>
<linearGradient id="linear0" gradientUnits="userSpaceOnUse" x1="32" y1="3.8" x2="32" y2="23.49" gradientTransform="matrix(0.5,0,0,0.5,0,0)">
<stop offset="0" style="stop-color:rgb(16.078431%,71.372549%,96.470588%);stop-opacity:1;"/>
<stop offset="0.67" style="stop-color:rgb(39.607843%,45.098039%,82.745098%);stop-opacity:1;"/>
<stop offset="1" style="stop-color:rgb(49.411765%,34.117647%,76.862745%);stop-opacity:1;"/>
</linearGradient>
<linearGradient id="linear1" gradientUnits="userSpaceOnUse" x1="32" y1="60.9" x2="32" y2="18.72" gradientTransform="matrix(0.5,0,0,0.5,0,0)">
<stop offset="0" style="stop-color:rgb(86.27451%,87.058824%,88.627451%);stop-opacity:1;"/>
<stop offset="0.57" style="stop-color:rgb(87.058824%,87.843137%,89.411765%);stop-opacity:1;"/>
<stop offset="0.81" style="stop-color:rgb(89.803922%,90.588235%,91.764706%);stop-opacity:1;"/>
<stop offset="0.99" style="stop-color:rgb(94.901961%,95.294118%,95.686275%);stop-opacity:1;"/>
<stop offset="1" style="stop-color:rgb(95.294118%,95.686275%,96.078431%);stop-opacity:1;"/>
</linearGradient>
<linearGradient id="linear2" gradientUnits="userSpaceOnUse" x1="32" y1="52.32" x2="32" y2="28.32" gradientTransform="matrix(0.5,0,0,0.5,0,0)">
<stop offset="0" style="stop-color:rgb(75.294118%,75.294118%,75.294118%);stop-opacity:1;"/>
<stop offset="1" style="stop-color:rgb(55.686275%,55.686275%,55.686275%);stop-opacity:1;"/>
</linearGradient>
<linearGradient id="linear3" gradientUnits="userSpaceOnUse" x1="32" y1="44.29" x2="32" y2="36.33" gradientTransform="matrix(0.5,0,0,0.5,0,0)">
<stop offset="0" style="stop-color:rgb(75.294118%,75.294118%,75.294118%);stop-opacity:1;"/>
<stop offset="1" style="stop-color:rgb(55.686275%,55.686275%,55.686275%);stop-opacity:1;"/>
</linearGradient>
</defs>
<g id="surface1">
<path style=" stroke:none;fill-rule:nonzero;fill:url(#linear0);" d="M 32 10.65625 C 31.996094 9.242188 30.851562 8.09375 29.433594 8.09375 L 20.726562 8.09375 C 18.945312 8.09375 17.492188 6.671875 17.453125 4.890625 C 17.484375 3.078125 16.039062 1.582031 14.226562 1.550781 L 1.691406 1.550781 C 0.757812 1.550781 0 2.304688 0 3.242188 L 0 11.710938 L 32 11.710938 Z M 32 10.65625 "/>
<path style=" stroke:none;fill-rule:nonzero;fill:url(#linear1);" d="M 29.433594 9.359375 L 2.566406 9.359375 C 1.148438 9.359375 0 10.507812 0 11.925781 L 0 27.890625 C 0.00390625 29.304688 1.148438 30.449219 2.566406 30.449219 L 29.433594 30.449219 C 30.851562 30.449219 31.996094 29.304688 32 27.890625 L 32 11.925781 C 32 10.507812 30.851562 9.359375 29.433594 9.359375 Z M 29.433594 9.359375 "/>
<path style=" stroke:none;fill-rule:nonzero;fill:url(#linear2);" d="M 16.304688 26.160156 L 15.804688 26.160156 C 15.089844 26.050781 14.546875 25.457031 14.5 24.734375 C 14.5 24.539062 14.441406 24.382812 14.242188 24.308594 C 14.058594 24.25 13.859375 24.308594 13.742188 24.453125 C 13.125 24.984375 12.214844 24.960938 11.628906 24.398438 C 11.0625 23.839844 11.046875 22.929688 11.59375 22.351562 C 11.714844 22.214844 11.820312 22.085938 11.734375 21.898438 C 11.648438 21.714844 11.476562 21.679688 11.28125 21.675781 C 10.644531 21.671875 10.082031 21.273438 9.871094 20.675781 C 9.84375 20.601562 9.816406 20.53125 9.785156 20.453125 L 9.785156 19.953125 C 9.929688 19.234375 10.554688 18.714844 11.285156 18.699219 C 11.460938 18.722656 11.632812 18.628906 11.703125 18.464844 C 11.773438 18.300781 11.722656 18.109375 11.585938 18 C 11.3125 17.722656 11.164062 17.347656 11.171875 16.960938 C 11.179688 16.570312 11.34375 16.203125 11.625 15.933594 C 12.226562 15.382812 13.152344 15.382812 13.753906 15.933594 C 13.882812 16.078125 14.082031 16.117188 14.253906 16.039062 C 14.453125 15.960938 14.476562 15.804688 14.480469 15.628906 C 14.5 14.941406 14.992188 14.355469 15.664062 14.210938 C 15.695312 14.203125 15.726562 14.1875 15.753906 14.171875 L 16.253906 14.171875 C 16.277344 14.183594 16.296875 14.199219 16.320312 14.210938 C 17.007812 14.339844 17.515625 14.929688 17.539062 15.628906 C 17.554688 15.78125 17.640625 15.917969 17.769531 16 C 17.925781 16.027344 18.085938 15.984375 18.203125 15.882812 C 18.820312 15.34375 19.746094 15.359375 20.34375 15.921875 C 20.914062 16.492188 20.914062 17.417969 20.34375 17.992188 C 20.191406 18.109375 20.148438 18.320312 20.234375 18.492188 C 20.316406 18.683594 20.476562 18.710938 20.660156 18.710938 C 21.035156 18.683594 21.402344 18.824219 21.660156 19.09375 C 21.859375 19.367188 22.035156 19.652344 22.183594 19.949219 L 22.183594 20.449219 C 22.019531 21.195312 21.351562 21.71875 20.589844 21.699219 C 20.460938 21.71875 20.347656 21.800781 20.289062 21.921875 C 20.273438 22.070312 20.316406 22.21875 20.410156 22.339844 C 20.957031 22.929688 20.941406 23.84375 20.375 24.414062 C 19.773438 24.96875 18.851562 24.984375 18.230469 24.449219 C 18.113281 24.347656 17.957031 24.304688 17.804688 24.335938 C 17.671875 24.429688 17.589844 24.574219 17.574219 24.734375 C 17.574219 25.097656 17.429688 25.441406 17.171875 25.695312 C 16.894531 25.875 16.605469 26.027344 16.304688 26.160156 Z M 16.023438 25.191406 C 16.171875 25.203125 16.320312 25.15625 16.425781 25.050781 C 16.53125 24.945312 16.585938 24.796875 16.574219 24.648438 C 16.546875 24.101562 16.875 23.59375 17.382812 23.394531 C 17.894531 23.167969 18.488281 23.277344 18.882812 23.671875 C 19.097656 23.875 19.4375 23.875 19.648438 23.671875 C 19.761719 23.574219 19.824219 23.4375 19.824219 23.289062 C 19.824219 23.144531 19.761719 23.003906 19.648438 22.910156 C 19.25 22.539062 19.136719 21.953125 19.371094 21.460938 C 19.582031 20.972656 20.0625 20.65625 20.59375 20.660156 C 20.96875 20.632812 21.195312 20.429688 21.183594 20.128906 C 21.175781 19.828125 20.953125 19.628906 20.570312 19.628906 C 20.039062 19.644531 19.546875 19.335938 19.335938 18.84375 C 19.082031 18.34375 19.1875 17.734375 19.589844 17.34375 C 19.710938 17.257812 19.789062 17.117188 19.796875 16.964844 C 19.800781 16.8125 19.738281 16.664062 19.625 16.566406 C 19.515625 16.464844 19.371094 16.414062 19.226562 16.421875 C 19.078125 16.425781 18.9375 16.492188 18.839844 16.601562 C 18.445312 16.976562 17.867188 17.078125 17.367188 16.867188 C 16.859375 16.679688 16.523438 16.195312 16.53125 15.65625 C 16.527344 15.363281 16.292969 15.128906 16 15.125 C 15.855469 15.125 15.714844 15.183594 15.613281 15.289062 C 15.515625 15.390625 15.460938 15.535156 15.46875 15.679688 C 15.488281 16.21875 15.167969 16.714844 14.664062 16.914062 C 14.144531 17.160156 13.53125 17.058594 13.117188 16.660156 C 13.015625 16.550781 12.875 16.488281 12.726562 16.484375 C 12.582031 16.476562 12.4375 16.53125 12.328125 16.628906 C 12.21875 16.726562 12.15625 16.863281 12.15625 17.007812 C 12.15625 17.15625 12.21875 17.296875 12.328125 17.390625 C 12.726562 17.765625 12.835938 18.351562 12.605469 18.84375 C 12.40625 19.351562 11.917969 19.679688 11.375 19.675781 C 11.273438 19.675781 11.175781 19.699219 11.085938 19.742188 C 10.871094 19.835938 10.75 20.0625 10.796875 20.289062 C 10.847656 20.550781 11.085938 20.734375 11.351562 20.714844 C 11.910156 20.671875 12.433594 20.988281 12.660156 21.5 C 12.921875 22.003906 12.804688 22.625 12.378906 23 C 12.316406 23.0625 12.265625 23.140625 12.242188 23.226562 C 12.164062 23.445312 12.25 23.6875 12.445312 23.808594 C 12.660156 23.953125 12.945312 23.921875 13.125 23.742188 C 13.46875 23.398438 13.964844 23.265625 14.433594 23.382812 C 15.023438 23.5 15.460938 23.996094 15.5 24.59375 C 15.53125 24.96875 15.71875 25.183594 16.023438 25.191406 Z M 16.023438 25.191406 "/>
<path style=" stroke:none;fill-rule:nonzero;fill:url(#linear3);" d="M 16 22.144531 C 14.902344 22.121094 14.03125 21.214844 14.046875 20.117188 C 14.0625 19.015625 14.960938 18.136719 16.058594 18.144531 C 17.15625 18.152344 18.046875 19.046875 18.046875 20.144531 C 18.023438 21.257812 17.113281 22.148438 16 22.144531 Z M 17.054688 20.144531 C 17.0625 19.714844 16.808594 19.320312 16.414062 19.152344 C 16.015625 18.980469 15.558594 19.066406 15.25 19.371094 C 14.945312 19.671875 14.851562 20.132812 15.015625 20.53125 C 15.179688 20.929688 15.570312 21.1875 16 21.183594 C 16.574219 21.183594 17.039062 20.726562 17.058594 20.15625 Z M 17.054688 20.144531 "/>
</g>
</svg>
