
<svg xmlns="http://www.w3.org/2000/svg" xmlns:xlink="http://www.w3.org/1999/xlink" width="32px" height="32px" viewBox="0 0 32 32" version="1.1">
<defs>
<linearGradient id="linear0" gradientUnits="userSpaceOnUse" x1="32" y1="3.8" x2="32" y2="23.49" gradientTransform="matrix(0.5,0,0,0.5,0,0)">
<stop offset="0" style="stop-color:rgb(16.078431%,71.372549%,96.470588%);stop-opacity:1;"/>
<stop offset="0.67" style="stop-color:rgb(39.607843%,45.098039%,82.745098%);stop-opacity:1;"/>
<stop offset="1" style="stop-color:rgb(49.411765%,34.117647%,76.862745%);stop-opacity:1;"/>
</linearGradient>
<linearGradient id="linear1" gradientUnits="userSpaceOnUse" x1="32" y1="60.9" x2="32" y2="18.72" gradientTransform="matrix(0.5,0,0,0.5,0,0)">
<stop offset="0" style="stop-color:rgb(86.27451%,87.058824%,88.627451%);stop-opacity:1;"/>
<stop offset="0.57" style="stop-color:rgb(87.058824%,87.843137%,89.411765%);stop-opacity:1;"/>
<stop offset="0.81" style="stop-color:rgb(89.803922%,90.588235%,91.764706%);stop-opacity:1;"/>
<stop offset="0.99" style="stop-color:rgb(94.901961%,95.294118%,95.686275%);stop-opacity:1;"/>
<stop offset="1" style="stop-color:rgb(95.294118%,95.686275%,96.078431%);stop-opacity:1;"/>
</linearGradient>
<linearGradient id="linear2" gradientUnits="userSpaceOnUse" x1="32" y1="48.87" x2="32" y2="29.99" gradientTransform="matrix(0.5,0,0,0.5,0,0)">
<stop offset="0" style="stop-color:rgb(75.294118%,75.294118%,75.294118%);stop-opacity:1;"/>
<stop offset="1" style="stop-color:rgb(55.686275%,55.686275%,55.686275%);stop-opacity:1;"/>
</linearGradient>
</defs>
<g id="surface1">
<path style=" stroke:none;fill-rule:nonzero;fill:url(#linear0);" d="M 32 10.65625 C 31.996094 9.242188 30.851562 8.09375 29.433594 8.09375 L 20.726562 8.09375 C 18.945312 8.09375 17.492188 6.671875 17.453125 4.890625 C 17.484375 3.078125 16.039062 1.582031 14.226562 1.550781 L 1.691406 1.550781 C 0.757812 1.550781 0 2.304688 0 3.242188 L 0 11.710938 L 32 11.710938 Z M 32 10.65625 "/>
<path style=" stroke:none;fill-rule:nonzero;fill:url(#linear1);" d="M 29.433594 9.359375 L 2.566406 9.359375 C 1.148438 9.359375 0 10.507812 0 11.925781 L 0 27.890625 C 0.00390625 29.304688 1.148438 30.449219 2.566406 30.449219 L 29.433594 30.449219 C 30.851562 30.449219 31.996094 29.304688 32 27.890625 L 32 11.925781 C 32 10.507812 30.851562 9.359375 29.433594 9.359375 Z M 29.433594 9.359375 "/>
<path style=" stroke:none;fill-rule:nonzero;fill:url(#linear2);" d="M 21.71875 14.34375 L 21.066406 14.34375 C 20.898438 14.34375 20.757812 14.480469 20.757812 14.648438 L 20.757812 15.230469 C 20.757812 15.394531 20.625 15.53125 20.460938 15.53125 L 20 15.53125 C 19.921875 15.53125 19.84375 15.5 19.785156 15.445312 C 19.726562 15.386719 19.695312 15.3125 19.695312 15.230469 L 19.695312 14.648438 C 19.695312 14.480469 19.558594 14.34375 19.390625 14.34375 L 12.59375 14.34375 C 12.425781 14.34375 12.289062 14.480469 12.289062 14.648438 L 12.289062 15.230469 C 12.289062 15.3125 12.257812 15.386719 12.199219 15.445312 C 12.140625 15.5 12.066406 15.53125 11.984375 15.53125 L 11.539062 15.53125 C 11.375 15.53125 11.242188 15.394531 11.242188 15.230469 L 11.242188 14.648438 C 11.242188 14.480469 11.101562 14.34375 10.933594 14.34375 L 10.28125 14.34375 C 10.199219 14.34375 10.121094 14.375 10.066406 14.433594 C 10.007812 14.492188 9.976562 14.570312 9.980469 14.648438 L 9.980469 24.578125 C 9.976562 24.660156 10.007812 24.738281 10.066406 24.796875 C 10.121094 24.851562 10.199219 24.882812 10.28125 24.882812 L 10.933594 24.882812 C 11.101562 24.882812 11.242188 24.75 11.242188 24.578125 L 11.242188 24 C 11.242188 23.835938 11.375 23.699219 11.539062 23.699219 L 12 23.699219 C 12.078125 23.699219 12.15625 23.730469 12.214844 23.785156 C 12.273438 23.84375 12.304688 23.921875 12.304688 24 L 12.304688 24.578125 C 12.304688 24.75 12.441406 24.882812 12.609375 24.882812 L 19.40625 24.882812 C 19.574219 24.882812 19.710938 24.75 19.710938 24.578125 L 19.710938 24 C 19.710938 23.921875 19.742188 23.84375 19.800781 23.785156 C 19.859375 23.730469 19.933594 23.699219 20.015625 23.699219 L 20.460938 23.699219 C 20.625 23.699219 20.757812 23.835938 20.757812 24 L 20.757812 24.578125 C 20.757812 24.75 20.898438 24.882812 21.066406 24.882812 L 21.71875 24.882812 C 21.800781 24.882812 21.878906 24.851562 21.933594 24.796875 C 21.992188 24.738281 22.023438 24.660156 22.019531 24.578125 L 22.019531 14.648438 C 22.023438 14.570312 21.992188 14.492188 21.933594 14.433594 C 21.878906 14.375 21.800781 14.34375 21.71875 14.34375 Z M 12.289062 21.566406 C 12.289062 21.734375 12.152344 21.871094 11.984375 21.871094 L 11.539062 21.871094 C 11.460938 21.871094 11.382812 21.835938 11.328125 21.78125 C 11.269531 21.722656 11.238281 21.644531 11.242188 21.566406 L 11.242188 20.835938 C 11.238281 20.753906 11.269531 20.675781 11.328125 20.617188 C 11.382812 20.5625 11.460938 20.53125 11.539062 20.53125 L 12 20.53125 C 12.167969 20.53125 12.304688 20.667969 12.304688 20.835938 Z M 12.289062 18.394531 C 12.289062 18.5625 12.152344 18.699219 11.984375 18.699219 L 11.539062 18.699219 C 11.460938 18.699219 11.382812 18.667969 11.328125 18.609375 C 11.269531 18.554688 11.238281 18.476562 11.242188 18.394531 L 11.242188 17.664062 C 11.242188 17.5 11.375 17.363281 11.539062 17.359375 L 12 17.359375 C 12.167969 17.359375 12.304688 17.496094 12.304688 17.664062 Z M 17.601562 19.964844 L 14.855469 21.550781 C 14.714844 21.632812 14.539062 21.632812 14.398438 21.550781 C 14.257812 21.46875 14.167969 21.320312 14.171875 21.15625 L 14.171875 18 C 14.167969 17.835938 14.257812 17.6875 14.398438 17.601562 C 14.539062 17.523438 14.714844 17.523438 14.855469 17.605469 L 17.601562 19.191406 C 17.734375 19.273438 17.816406 19.421875 17.816406 19.578125 C 17.816406 19.734375 17.734375 19.882812 17.601562 19.964844 Z M 20.757812 21.566406 C 20.761719 21.644531 20.730469 21.722656 20.671875 21.78125 C 20.617188 21.835938 20.539062 21.871094 20.460938 21.871094 L 20 21.871094 C 19.832031 21.871094 19.695312 21.734375 19.695312 21.566406 L 19.695312 20.835938 C 19.695312 20.667969 19.832031 20.53125 20 20.53125 L 20.445312 20.53125 C 20.523438 20.53125 20.601562 20.5625 20.660156 20.617188 C 20.714844 20.675781 20.746094 20.753906 20.746094 20.835938 Z M 20.757812 18.394531 C 20.761719 18.476562 20.730469 18.554688 20.671875 18.609375 C 20.617188 18.667969 20.539062 18.699219 20.460938 18.699219 L 20 18.699219 C 19.832031 18.699219 19.695312 18.5625 19.695312 18.394531 L 19.695312 17.664062 C 19.695312 17.496094 19.832031 17.359375 20 17.359375 L 20.445312 17.359375 C 20.609375 17.363281 20.746094 17.5 20.746094 17.664062 Z M 20.757812 18.394531 "/>
</g>
</svg>
