
<svg xmlns="http://www.w3.org/2000/svg" xmlns:xlink="http://www.w3.org/1999/xlink" width="32px" height="32px" viewBox="0 0 32 32" version="1.1">
<defs>
<linearGradient id="linear0" gradientUnits="userSpaceOnUse" x1="32" y1="3.8" x2="32" y2="23.49" gradientTransform="matrix(0.5,0,0,0.5,0,0)">
<stop offset="0" style="stop-color:rgb(16.078431%,71.372549%,96.470588%);stop-opacity:1;"/>
<stop offset="0.67" style="stop-color:rgb(39.607843%,45.098039%,82.745098%);stop-opacity:1;"/>
<stop offset="1" style="stop-color:rgb(49.411765%,34.117647%,76.862745%);stop-opacity:1;"/>
</linearGradient>
<linearGradient id="linear1" gradientUnits="userSpaceOnUse" x1="32" y1="60.9" x2="32" y2="18.72" gradientTransform="matrix(0.5,0,0,0.5,0,0)">
<stop offset="0" style="stop-color:rgb(86.27451%,87.058824%,88.627451%);stop-opacity:1;"/>
<stop offset="0.57" style="stop-color:rgb(87.058824%,87.843137%,89.411765%);stop-opacity:1;"/>
<stop offset="0.81" style="stop-color:rgb(89.803922%,90.588235%,91.764706%);stop-opacity:1;"/>
<stop offset="0.99" style="stop-color:rgb(94.901961%,95.294118%,95.686275%);stop-opacity:1;"/>
<stop offset="1" style="stop-color:rgb(95.294118%,95.686275%,96.078431%);stop-opacity:1;"/>
</linearGradient>
<linearGradient id="linear2" gradientUnits="userSpaceOnUse" x1="32.26" y1="50.88" x2="32.26" y2="29.56" gradientTransform="matrix(0.5,0,0,0.5,0,0)">
<stop offset="0" style="stop-color:rgb(75.294118%,75.294118%,75.294118%);stop-opacity:1;"/>
<stop offset="1" style="stop-color:rgb(55.686275%,55.686275%,55.686275%);stop-opacity:1;"/>
</linearGradient>
</defs>
<g id="surface1">
<path style=" stroke:none;fill-rule:nonzero;fill:url(#linear0);" d="M 32 10.65625 C 31.996094 9.242188 30.851562 8.09375 29.433594 8.09375 L 20.726562 8.09375 C 18.945312 8.09375 17.492188 6.671875 17.453125 4.890625 C 17.484375 3.078125 16.039062 1.582031 14.226562 1.550781 L 1.691406 1.550781 C 0.757812 1.550781 0 2.304688 0 3.242188 L 0 11.710938 L 32 11.710938 Z M 32 10.65625 "/>
<path style=" stroke:none;fill-rule:nonzero;fill:url(#linear1);" d="M 29.433594 9.359375 L 2.566406 9.359375 C 1.148438 9.359375 0 10.507812 0 11.925781 L 0 27.890625 C 0.00390625 29.304688 1.148438 30.449219 2.566406 30.449219 L 29.433594 30.449219 C 30.851562 30.449219 31.996094 29.304688 32 27.890625 L 32 11.925781 C 32 10.507812 30.851562 9.359375 29.433594 9.359375 Z M 29.433594 9.359375 "/>
<path style=" stroke:none;fill-rule:nonzero;fill:url(#linear2);" d="M 19.621094 18.246094 L 16.65625 18.246094 L 16.65625 17.316406 C 16.65625 16.976562 16.929688 16.695312 17.269531 16.695312 L 18.144531 16.695312 C 18.875 16.695312 19.464844 16.105469 19.464844 15.375 L 19.464844 14.714844 C 19.46875 14.621094 19.429688 14.53125 19.363281 14.464844 C 19.296875 14.398438 19.210938 14.359375 19.117188 14.359375 C 18.917969 14.359375 18.757812 14.519531 18.757812 14.714844 L 18.757812 15.375 C 18.761719 15.539062 18.699219 15.699219 18.582031 15.816406 C 18.46875 15.933594 18.308594 16 18.144531 16 L 17.269531 16 C 16.539062 16.003906 15.949219 16.59375 15.949219 17.324219 L 15.949219 18.253906 L 12.644531 18.253906 C 10.890625 18.253906 9.394531 19.53125 9.125 21.265625 C 8.855469 23.003906 9.890625 24.675781 11.5625 25.207031 C 13.238281 25.738281 15.046875 24.972656 15.828125 23.398438 L 16.433594 23.398438 C 17.21875 24.972656 19.027344 25.738281 20.703125 25.207031 C 22.375 24.675781 23.410156 23.003906 23.140625 21.265625 C 22.871094 19.53125 21.375 18.253906 19.621094 18.253906 Z M 13.554688 22.050781 L 12.925781 22.050781 L 12.925781 22.710938 C 12.921875 22.890625 12.777344 23.039062 12.59375 23.039062 L 12.5 23.039062 C 12.320312 23.039062 12.175781 22.890625 12.175781 22.710938 L 12.175781 22.050781 L 11.5 22.050781 C 11.320312 22.046875 11.171875 21.902344 11.171875 21.71875 L 11.171875 21.609375 C 11.171875 21.429688 11.320312 21.285156 11.5 21.285156 L 12.148438 21.285156 L 12.148438 20.664062 C 12.148438 20.484375 12.296875 20.339844 12.476562 20.339844 L 12.585938 20.339844 C 12.765625 20.339844 12.914062 20.484375 12.914062 20.664062 L 12.914062 21.285156 L 13.546875 21.285156 C 13.726562 21.285156 13.871094 21.429688 13.871094 21.609375 L 13.871094 21.71875 C 13.871094 21.898438 13.730469 22.042969 13.554688 22.050781 Z M 16.867188 21.265625 C 16.863281 21.4375 16.722656 21.574219 16.550781 21.574219 L 15.769531 21.574219 C 15.597656 21.574219 15.457031 21.4375 15.453125 21.265625 L 15.453125 21.160156 C 15.453125 20.984375 15.59375 20.84375 15.769531 20.84375 L 16.550781 20.84375 C 16.722656 20.84375 16.867188 20.984375 16.867188 21.160156 Z M 19 22.050781 C 18.859375 22.199219 18.640625 22.246094 18.453125 22.167969 C 18.261719 22.09375 18.136719 21.910156 18.136719 21.703125 C 18.136719 21.5 18.261719 21.316406 18.453125 21.242188 C 18.640625 21.164062 18.859375 21.210938 19 21.359375 C 19.183594 21.554688 19.183594 21.855469 19 22.050781 Z M 19.34375 20.289062 C 19.484375 20.140625 19.703125 20.09375 19.890625 20.171875 C 20.082031 20.246094 20.207031 20.429688 20.207031 20.632812 C 20.207031 20.839844 20.082031 21.023438 19.890625 21.101562 C 19.703125 21.175781 19.484375 21.128906 19.34375 20.980469 C 19.15625 20.789062 19.148438 20.488281 19.328125 20.289062 Z M 20.070312 23.085938 C 19.875 23.269531 19.574219 23.269531 19.378906 23.085938 C 19.234375 22.945312 19.183594 22.726562 19.261719 22.539062 C 19.335938 22.347656 19.519531 22.222656 19.726562 22.222656 C 19.929688 22.222656 20.113281 22.347656 20.1875 22.539062 C 20.265625 22.726562 20.21875 22.945312 20.070312 23.085938 Z M 21.089844 22 C 20.949219 22.148438 20.734375 22.191406 20.542969 22.117188 C 20.355469 22.039062 20.230469 21.855469 20.230469 21.652344 C 20.230469 21.449219 20.355469 21.265625 20.542969 21.1875 C 20.734375 21.113281 20.949219 21.15625 21.089844 21.304688 C 21.277344 21.5 21.277344 21.804688 21.089844 22 Z M 21.089844 22 "/>
</g>
</svg>
