
<svg xmlns="http://www.w3.org/2000/svg" xmlns:xlink="http://www.w3.org/1999/xlink" width="32px" height="32px" viewBox="0 0 32 32" version="1.1">
<defs>
<linearGradient id="linear0" gradientUnits="userSpaceOnUse" x1="32" y1="3.8" x2="32" y2="23.49" gradientTransform="matrix(0.5,0,0,0.5,0,0)">
<stop offset="0" style="stop-color:rgb(16.078431%,71.372549%,96.470588%);stop-opacity:1;"/>
<stop offset="0.67" style="stop-color:rgb(39.607843%,45.098039%,82.745098%);stop-opacity:1;"/>
<stop offset="1" style="stop-color:rgb(49.411765%,34.117647%,76.862745%);stop-opacity:1;"/>
</linearGradient>
<linearGradient id="linear1" gradientUnits="userSpaceOnUse" x1="32" y1="60.9" x2="32" y2="18.72" gradientTransform="matrix(0.5,0,0,0.5,0,0)">
<stop offset="0" style="stop-color:rgb(86.27451%,87.058824%,88.627451%);stop-opacity:1;"/>
<stop offset="0.57" style="stop-color:rgb(87.058824%,87.843137%,89.411765%);stop-opacity:1;"/>
<stop offset="0.81" style="stop-color:rgb(89.803922%,90.588235%,91.764706%);stop-opacity:1;"/>
<stop offset="0.99" style="stop-color:rgb(94.901961%,95.294118%,95.686275%);stop-opacity:1;"/>
<stop offset="1" style="stop-color:rgb(95.294118%,95.686275%,96.078431%);stop-opacity:1;"/>
</linearGradient>
<linearGradient id="linear2" gradientUnits="userSpaceOnUse" x1="32" y1="52.36" x2="32" y2="27.36" gradientTransform="matrix(0.5,0,0,0.5,0,0)">
<stop offset="0" style="stop-color:rgb(75.294118%,75.294118%,75.294118%);stop-opacity:1;"/>
<stop offset="1" style="stop-color:rgb(55.686275%,55.686275%,55.686275%);stop-opacity:1;"/>
</linearGradient>
</defs>
<g id="surface1">
<path style=" stroke:none;fill-rule:nonzero;fill:url(#linear0);" d="M 32 10.65625 C 31.996094 9.242188 30.851562 8.09375 29.433594 8.09375 L 20.726562 8.09375 C 18.945312 8.09375 17.492188 6.671875 17.453125 4.890625 C 17.484375 3.078125 16.039062 1.582031 14.226562 1.550781 L 1.691406 1.550781 C 0.757812 1.550781 0 2.304688 0 3.242188 L 0 11.710938 L 32 11.710938 Z M 32 10.65625 "/>
<path style=" stroke:none;fill-rule:nonzero;fill:url(#linear1);" d="M 29.433594 9.359375 L 2.566406 9.359375 C 1.148438 9.359375 0 10.507812 0 11.925781 L 0 27.890625 C 0.00390625 29.304688 1.148438 30.449219 2.566406 30.449219 L 29.433594 30.449219 C 30.851562 30.449219 31.996094 29.304688 32 27.890625 L 32 11.925781 C 32 10.507812 30.851562 9.359375 29.433594 9.359375 Z M 29.433594 9.359375 "/>
<path style=" stroke:none;fill-rule:nonzero;fill:url(#linear2);" d="M 16.179688 26.179688 L 15.855469 26.179688 C 15.601562 26.15625 15.375 26.03125 15.210938 25.839844 C 13.515625 24.136719 11.8125 22.4375 10.109375 20.742188 C 9.921875 20.589844 9.792969 20.375 9.75 20.140625 L 9.75 19.714844 C 9.785156 19.480469 9.90625 19.265625 10.085938 19.109375 C 11.183594 18.023438 12.277344 16.929688 13.367188 15.835938 L 13.550781 15.648438 C 13.714844 15.492188 13.75 15.492188 13.910156 15.648438 L 15.101562 16.839844 C 15.191406 16.917969 15.230469 17.042969 15.199219 17.160156 C 15.082031 17.554688 15.265625 17.976562 15.632812 18.160156 C 15.714844 18.210938 15.753906 18.304688 15.742188 18.394531 L 15.742188 19.800781 C 15.742188 20.382812 15.742188 20.976562 15.742188 21.558594 C 15.757812 21.691406 15.6875 21.816406 15.570312 21.875 C 15.257812 22.066406 15.101562 22.4375 15.191406 22.796875 C 15.273438 23.164062 15.589844 23.429688 15.964844 23.460938 C 16.339844 23.488281 16.691406 23.265625 16.828125 22.914062 C 16.964844 22.566406 16.859375 22.164062 16.566406 21.929688 C 16.417969 21.835938 16.335938 21.664062 16.355469 21.492188 C 16.355469 20.519531 16.355469 19.546875 16.355469 18.570312 C 16.355469 18.476562 16.308594 18.351562 16.421875 18.300781 C 16.53125 18.25 16.59375 18.378906 16.664062 18.449219 C 16.996094 18.769531 17.316406 19.105469 17.664062 19.449219 C 17.789062 19.546875 17.839844 19.710938 17.796875 19.867188 C 17.714844 20.277344 17.949219 20.6875 18.34375 20.828125 C 18.734375 20.96875 19.164062 20.8125 19.375 20.460938 C 19.589844 20.105469 19.519531 19.648438 19.203125 19.378906 C 19.015625 19.203125 18.757812 19.132812 18.503906 19.179688 C 18.367188 19.214844 18.222656 19.164062 18.132812 19.050781 L 16.980469 17.894531 C 16.898438 17.820312 16.859375 17.707031 16.875 17.59375 C 16.929688 17.316406 16.84375 17.027344 16.640625 16.828125 C 16.441406 16.625 16.152344 16.539062 15.875 16.59375 C 15.765625 16.613281 15.652344 16.574219 15.574219 16.492188 L 14.351562 15.265625 C 14.199219 15.109375 14.199219 15.074219 14.351562 14.914062 C 14.632812 14.628906 14.929688 14.355469 15.199219 14.058594 C 15.351562 13.871094 15.570312 13.75 15.808594 13.726562 L 16.199219 13.726562 C 16.433594 13.753906 16.648438 13.875 16.800781 14.054688 C 18.503906 15.773438 20.210938 17.480469 21.929688 19.179688 C 22.121094 19.34375 22.242188 19.574219 22.269531 19.824219 L 22.269531 20.148438 C 22.242188 20.417969 22.105469 20.664062 21.894531 20.828125 C 20.226562 22.496094 18.5625 24.164062 16.894531 25.828125 C 16.710938 26.035156 16.453125 26.160156 16.179688 26.179688 Z M 16.179688 26.179688 "/>
</g>
</svg>
