
<svg xmlns="http://www.w3.org/2000/svg" xmlns:xlink="http://www.w3.org/1999/xlink" width="32px" height="32px" viewBox="0 0 32 32" version="1.1">
<defs>
<linearGradient id="linear0" gradientUnits="userSpaceOnUse" x1="32" y1="3.8" x2="32" y2="23.49" gradientTransform="matrix(0.5,0,0,0.5,0,0)">
<stop offset="0" style="stop-color:rgb(16.078431%,71.372549%,96.470588%);stop-opacity:1;"/>
<stop offset="0.67" style="stop-color:rgb(39.607843%,45.098039%,82.745098%);stop-opacity:1;"/>
<stop offset="1" style="stop-color:rgb(49.411765%,34.117647%,76.862745%);stop-opacity:1;"/>
</linearGradient>
<linearGradient id="linear1" gradientUnits="userSpaceOnUse" x1="32" y1="60.9" x2="32" y2="18.72" gradientTransform="matrix(0.5,0,0,0.5,0,0)">
<stop offset="0" style="stop-color:rgb(86.27451%,87.058824%,88.627451%);stop-opacity:1;"/>
<stop offset="0.57" style="stop-color:rgb(87.058824%,87.843137%,89.411765%);stop-opacity:1;"/>
<stop offset="0.81" style="stop-color:rgb(89.803922%,90.588235%,91.764706%);stop-opacity:1;"/>
<stop offset="0.99" style="stop-color:rgb(94.901961%,95.294118%,95.686275%);stop-opacity:1;"/>
<stop offset="1" style="stop-color:rgb(95.294118%,95.686275%,96.078431%);stop-opacity:1;"/>
</linearGradient>
<linearGradient id="linear2" gradientUnits="userSpaceOnUse" x1="32" y1="29.75" x2="32" y2="48.32" gradientTransform="matrix(0.5,0,0,0.5,0,0)">
<stop offset="0" style="stop-color:rgb(55.686275%,55.686275%,55.686275%);stop-opacity:1;"/>
<stop offset="1" style="stop-color:rgb(75.294118%,75.294118%,75.294118%);stop-opacity:1;"/>
</linearGradient>
</defs>
<g id="surface1">
<path style=" stroke:none;fill-rule:nonzero;fill:url(#linear0);" d="M 32 10.65625 C 31.996094 9.242188 30.851562 8.09375 29.433594 8.09375 L 20.726562 8.09375 C 18.945312 8.09375 17.492188 6.671875 17.453125 4.890625 C 17.484375 3.078125 16.039062 1.582031 14.226562 1.550781 L 1.691406 1.550781 C 0.757812 1.550781 0 2.304688 0 3.242188 L 0 11.710938 L 32 11.710938 Z M 32 10.65625 "/>
<path style=" stroke:none;fill-rule:nonzero;fill:url(#linear1);" d="M 29.433594 9.359375 L 2.566406 9.359375 C 1.148438 9.359375 0 10.507812 0 11.925781 L 0 27.890625 C 0.00390625 29.304688 1.148438 30.449219 2.566406 30.449219 L 29.433594 30.449219 C 30.851562 30.449219 31.996094 29.304688 32 27.890625 L 32 11.925781 C 32 10.507812 30.851562 9.359375 29.433594 9.359375 Z M 29.433594 9.359375 "/>
<path style=" stroke:none;fill-rule:nonzero;fill:url(#linear2);" d="M 22 16.746094 L 19.253906 15.828125 C 19.050781 15.761719 18.914062 15.570312 18.914062 15.355469 C 18.914062 15.078125 18.691406 14.855469 18.414062 14.855469 L 10.164062 14.855469 C 9.890625 14.855469 9.664062 15.078125 9.664062 15.355469 L 9.664062 24.21875 C 9.664062 24.496094 9.890625 24.71875 10.164062 24.71875 L 18.40625 24.71875 C 18.679688 24.71875 18.90625 24.496094 18.90625 24.21875 C 18.898438 24.054688 18.96875 23.898438 19.101562 23.796875 C 19.230469 23.699219 19.402344 23.667969 19.558594 23.71875 L 19.644531 23.746094 C 19.769531 23.789062 19.910156 23.777344 20.027344 23.71875 C 20.148438 23.660156 20.238281 23.554688 20.28125 23.429688 L 22.28125 17.367188 C 22.363281 17.117188 22.242188 16.847656 22 16.746094 Z M 17.285156 22.605469 L 11.285156 22.605469 C 11.007812 22.605469 10.785156 22.382812 10.785156 22.105469 L 10.785156 16.46875 C 10.785156 16.195312 11.007812 15.96875 11.285156 15.96875 L 17.285156 15.96875 C 17.5625 15.96875 17.785156 16.195312 17.785156 16.46875 L 17.785156 22.105469 C 17.785156 22.382812 17.5625 22.605469 17.285156 22.605469 Z M 18.90625 21.5 L 18.90625 17.289062 C 18.90625 17.128906 18.980469 16.980469 19.109375 16.886719 C 19.242188 16.792969 19.40625 16.765625 19.558594 16.816406 L 20.929688 17.273438 C 21.054688 17.316406 21.160156 17.40625 21.21875 17.527344 C 21.277344 17.648438 21.289062 17.785156 21.246094 17.910156 L 20 21.675781 C 19.914062 21.9375 19.632812 22.078125 19.371094 21.996094 L 19.257812 21.953125 C 19.058594 21.894531 18.914062 21.710938 18.90625 21.5 Z M 18.90625 21.5 "/>
</g>
</svg>
