
<svg xmlns="http://www.w3.org/2000/svg" xmlns:xlink="http://www.w3.org/1999/xlink" width="32px" height="32px" viewBox="0 0 32 32" version="1.1">
<defs>
<linearGradient id="linear0" gradientUnits="userSpaceOnUse" x1="32" y1="3.8" x2="32" y2="23.49" gradientTransform="matrix(0.5,0,0,0.5,0,0)">
<stop offset="0" style="stop-color:rgb(16.078431%,71.372549%,96.470588%);stop-opacity:1;"/>
<stop offset="0.67" style="stop-color:rgb(39.607843%,45.098039%,82.745098%);stop-opacity:1;"/>
<stop offset="1" style="stop-color:rgb(49.411765%,34.117647%,76.862745%);stop-opacity:1;"/>
</linearGradient>
<linearGradient id="linear1" gradientUnits="userSpaceOnUse" x1="32" y1="60.9" x2="32" y2="18.72" gradientTransform="matrix(0.5,0,0,0.5,0,0)">
<stop offset="0" style="stop-color:rgb(86.27451%,87.058824%,88.627451%);stop-opacity:1;"/>
<stop offset="0.57" style="stop-color:rgb(87.058824%,87.843137%,89.411765%);stop-opacity:1;"/>
<stop offset="0.81" style="stop-color:rgb(89.803922%,90.588235%,91.764706%);stop-opacity:1;"/>
<stop offset="0.99" style="stop-color:rgb(94.901961%,95.294118%,95.686275%);stop-opacity:1;"/>
<stop offset="1" style="stop-color:rgb(95.294118%,95.686275%,96.078431%);stop-opacity:1;"/>
</linearGradient>
<linearGradient id="linear2" gradientUnits="userSpaceOnUse" x1="32" y1="51.33" x2="32" y2="29.83" gradientTransform="matrix(0.5,0,0,0.5,0,0)">
<stop offset="0" style="stop-color:rgb(75.294118%,75.294118%,75.294118%);stop-opacity:1;"/>
<stop offset="1" style="stop-color:rgb(55.686275%,55.686275%,55.686275%);stop-opacity:1;"/>
</linearGradient>
</defs>
<g id="surface1">
<path style=" stroke:none;fill-rule:nonzero;fill:url(#linear0);" d="M 32 10.65625 C 31.996094 9.242188 30.851562 8.09375 29.433594 8.09375 L 20.726562 8.09375 C 18.945312 8.09375 17.492188 6.671875 17.453125 4.890625 C 17.484375 3.078125 16.039062 1.582031 14.226562 1.550781 L 1.691406 1.550781 C 0.757812 1.550781 0 2.304688 0 3.242188 L 0 11.710938 L 32 11.710938 Z M 32 10.65625 "/>
<path style=" stroke:none;fill-rule:nonzero;fill:url(#linear1);" d="M 29.433594 9.359375 L 2.566406 9.359375 C 1.148438 9.359375 0 10.507812 0 11.925781 L 0 27.890625 C 0.00390625 29.304688 1.148438 30.449219 2.566406 30.449219 L 29.433594 30.449219 C 30.851562 30.449219 31.996094 29.304688 32 27.890625 L 32 11.925781 C 32 10.507812 30.851562 9.359375 29.433594 9.359375 Z M 29.433594 9.359375 "/>
<path style=" stroke:none;fill-rule:nonzero;fill:url(#linear2);" d="M 20.691406 21.855469 L 20.691406 21.640625 C 20.695312 21.03125 20.421875 20.453125 19.945312 20.070312 L 18.535156 18.910156 C 19.367188 17.640625 19.140625 15.953125 17.996094 14.953125 C 16.851562 13.957031 15.148438 13.957031 14.003906 14.953125 C 12.859375 15.953125 12.632812 17.640625 13.464844 18.910156 L 12.050781 20.070312 C 11.578125 20.453125 11.304688 21.03125 11.308594 21.640625 L 11.308594 21.855469 C 10.484375 22.023438 9.921875 22.789062 10.007812 23.625 C 10.089844 24.464844 10.796875 25.101562 11.636719 25.101562 C 12.480469 25.101562 13.183594 24.464844 13.269531 23.625 C 13.351562 22.789062 12.789062 22.023438 11.964844 21.855469 L 11.964844 21.640625 C 11.960938 21.226562 12.148438 20.835938 12.464844 20.574219 L 13.882812 19.414062 C 14.367188 19.890625 15 20.1875 15.675781 20.257812 L 15.675781 22.328125 C 14.851562 22.496094 14.289062 23.257812 14.375 24.09375 C 14.457031 24.929688 15.160156 25.566406 16 25.566406 C 16.839844 25.566406 17.542969 24.929688 17.625 24.09375 C 17.710938 23.257812 17.148438 22.496094 16.324219 22.328125 L 16.324219 20.257812 C 17 20.1875 17.632812 19.890625 18.117188 19.414062 L 19.535156 20.574219 C 19.851562 20.835938 20.039062 21.226562 20.035156 21.640625 L 20.035156 21.855469 C 19.210938 22.023438 18.648438 22.789062 18.730469 23.625 C 18.816406 24.464844 19.519531 25.101562 20.363281 25.101562 C 21.203125 25.101562 21.910156 24.464844 21.992188 23.625 C 22.078125 22.789062 21.515625 22.023438 20.691406 21.855469 Z M 12.441406 23.460938 C 12.441406 23.90625 12.078125 24.265625 11.632812 24.265625 C 11.191406 24.265625 10.828125 23.90625 10.828125 23.460938 C 10.828125 23.015625 11.191406 22.65625 11.632812 22.65625 C 12.078125 22.65625 12.441406 23.015625 12.441406 23.460938 Z M 16.804688 23.933594 C 16.804688 24.378906 16.445312 24.742188 16 24.742188 C 15.554688 24.742188 15.195312 24.378906 15.195312 23.933594 C 15.195312 23.492188 15.554688 23.128906 16 23.128906 C 16.445312 23.128906 16.804688 23.492188 16.804688 23.933594 Z M 16 19.210938 C 14.910156 19.210938 14.027344 18.332031 14.023438 17.242188 C 14.023438 16.15625 14.90625 15.269531 15.992188 15.269531 C 17.082031 15.269531 17.964844 16.152344 17.964844 17.242188 C 17.964844 18.328125 17.085938 19.207031 16 19.210938 Z M 20.367188 24.265625 C 19.921875 24.265625 19.558594 23.90625 19.558594 23.460938 C 19.558594 23.015625 19.921875 22.65625 20.367188 22.65625 C 20.808594 22.65625 21.171875 23.015625 21.171875 23.460938 C 21.171875 23.90625 20.808594 24.265625 20.367188 24.265625 Z M 20.367188 24.265625 "/>
</g>
</svg>
