
<svg xmlns="http://www.w3.org/2000/svg" xmlns:xlink="http://www.w3.org/1999/xlink" width="32px" height="32px" viewBox="0 0 32 32" version="1.1">
<defs>
<linearGradient id="linear0" gradientUnits="userSpaceOnUse" x1="32" y1="3.8" x2="32" y2="23.49" gradientTransform="matrix(0.5,0,0,0.5,0,0)">
<stop offset="0" style="stop-color:rgb(16.078431%,71.372549%,96.470588%);stop-opacity:1;"/>
<stop offset="0.67" style="stop-color:rgb(39.607843%,45.098039%,82.745098%);stop-opacity:1;"/>
<stop offset="1" style="stop-color:rgb(49.411765%,34.117647%,76.862745%);stop-opacity:1;"/>
</linearGradient>
<linearGradient id="linear1" gradientUnits="userSpaceOnUse" x1="32" y1="60.9" x2="32" y2="18.72" gradientTransform="matrix(0.5,0,0,0.5,0,0)">
<stop offset="0" style="stop-color:rgb(86.27451%,87.058824%,88.627451%);stop-opacity:1;"/>
<stop offset="0.57" style="stop-color:rgb(87.058824%,87.843137%,89.411765%);stop-opacity:1;"/>
<stop offset="0.81" style="stop-color:rgb(89.803922%,90.588235%,91.764706%);stop-opacity:1;"/>
<stop offset="0.99" style="stop-color:rgb(94.901961%,95.294118%,95.686275%);stop-opacity:1;"/>
<stop offset="1" style="stop-color:rgb(95.294118%,95.686275%,96.078431%);stop-opacity:1;"/>
</linearGradient>
<linearGradient id="linear2" gradientUnits="userSpaceOnUse" x1="32" y1="51.89" x2="32" y2="31.52" gradientTransform="matrix(0.5,0,0,0.5,0,0)">
<stop offset="0" style="stop-color:rgb(75.294118%,75.294118%,75.294118%);stop-opacity:1;"/>
<stop offset="1" style="stop-color:rgb(55.686275%,55.686275%,55.686275%);stop-opacity:1;"/>
</linearGradient>
<linearGradient id="linear3" gradientUnits="userSpaceOnUse" x1="32.01" y1="51.89" x2="32.01" y2="31.52" gradientTransform="matrix(0.5,0,0,0.5,0,0)">
<stop offset="0" style="stop-color:rgb(75.294118%,75.294118%,75.294118%);stop-opacity:1;"/>
<stop offset="1" style="stop-color:rgb(55.686275%,55.686275%,55.686275%);stop-opacity:1;"/>
</linearGradient>
<linearGradient id="linear4" gradientUnits="userSpaceOnUse" x1="32" y1="51.89" x2="32" y2="31.52" gradientTransform="matrix(0.5,0,0,0.5,0,0)">
<stop offset="0" style="stop-color:rgb(75.294118%,75.294118%,75.294118%);stop-opacity:1;"/>
<stop offset="1" style="stop-color:rgb(55.686275%,55.686275%,55.686275%);stop-opacity:1;"/>
</linearGradient>
</defs>
<g id="surface1">
<path style=" stroke:none;fill-rule:nonzero;fill:url(#linear0);" d="M 32 10.65625 C 31.996094 9.242188 30.851562 8.09375 29.433594 8.09375 L 20.726562 8.09375 C 18.945312 8.09375 17.492188 6.671875 17.453125 4.890625 C 17.484375 3.078125 16.039062 1.582031 14.226562 1.550781 L 1.691406 1.550781 C 0.757812 1.550781 0 2.304688 0 3.242188 L 0 11.710938 L 32 11.710938 Z M 32 10.65625 "/>
<path style=" stroke:none;fill-rule:nonzero;fill:url(#linear1);" d="M 29.433594 9.359375 L 2.566406 9.359375 C 1.148438 9.359375 0 10.507812 0 11.925781 L 0 27.890625 C 0.00390625 29.304688 1.148438 30.449219 2.566406 30.449219 L 29.433594 30.449219 C 30.851562 30.449219 31.996094 29.304688 32 27.890625 L 32 11.925781 C 32 10.507812 30.851562 9.359375 29.433594 9.359375 Z M 29.433594 9.359375 "/>
<path style=" stroke:none;fill-rule:nonzero;fill:url(#linear2);" d="M 12.109375 16.230469 C 9.960938 18.378906 9.964844 21.859375 12.109375 24.007812 C 14.257812 26.15625 17.742188 26.15625 19.890625 24.007812 C 22.035156 21.859375 22.039062 18.378906 19.890625 16.230469 C 17.742188 14.082031 14.257812 14.082031 12.109375 16.230469 Z M 19.203125 23.320312 C 17.578125 24.929688 15.003906 25.078125 13.203125 23.660156 L 15.304688 21.566406 C 15.421875 21.460938 15.480469 21.308594 15.46875 21.15625 C 15.453125 21 15.371094 20.859375 15.242188 20.773438 C 15.023438 20.632812 14.734375 20.664062 14.554688 20.855469 L 12.480469 22.929688 C 10.96875 21.023438 11.234375 18.257812 13.082031 16.675781 C 14.929688 15.089844 17.699219 15.25 19.351562 17.039062 C 21.007812 18.824219 20.953125 21.601562 19.230469 23.320312 Z M 19.203125 23.320312 "/>
<path style=" stroke:none;fill-rule:nonzero;fill:url(#linear3);" d="M 15.921875 16.558594 C 15.671875 16.617188 15.492188 16.839844 15.5 17.09375 L 15.5 18.539062 C 15.5 18.824219 15.730469 19.054688 16.015625 19.054688 C 16.300781 19.054688 16.53125 18.824219 16.53125 18.539062 L 16.53125 17.070312 C 16.539062 16.914062 16.46875 16.765625 16.351562 16.664062 C 16.230469 16.5625 16.070312 16.523438 15.921875 16.558594 Z M 15.921875 16.558594 "/>
<path style=" stroke:none;fill-rule:nonzero;fill:url(#linear4);" d="M 15.375 20.125 C 15.375 20.382812 15.523438 20.613281 15.761719 20.710938 C 15.996094 20.808594 16.269531 20.757812 16.449219 20.574219 C 16.632812 20.394531 16.683594 20.121094 16.585938 19.886719 C 16.488281 19.648438 16.257812 19.5 16 19.5 C 15.65625 19.503906 15.378906 19.78125 15.375 20.125 Z M 15.375 20.125 "/>
</g>
</svg>
