
<svg xmlns="http://www.w3.org/2000/svg" xmlns:xlink="http://www.w3.org/1999/xlink" width="32px" height="32px" viewBox="0 0 32 32" version="1.1">
<defs>
<linearGradient id="linear0" gradientUnits="userSpaceOnUse" x1="21.91" y1="9.34" x2="44.22" y2="59.46" gradientTransform="matrix(0.5,0,0,0.5,0,0)">
<stop offset="0" style="stop-color:rgb(25.490196%,74.509804%,83.529412%);stop-opacity:1;"/>
<stop offset="1" style="stop-color:rgb(51.372549%,32.54902%,84.313725%);stop-opacity:1;"/>
</linearGradient>
</defs>
<g id="surface1">
<path style=" stroke:none;fill-rule:nonzero;fill:rgb(26.666667%,53.72549%,75.686275%);fill-opacity:1;" d="M 0.746094 13.859375 C -0.417969 15.296875 -0.246094 17.390625 1.136719 18.617188 C 2.515625 19.84375 4.617188 19.769531 5.90625 18.445312 L 11.269531 13.078125 C 7.972656 11 3.699219 11.316406 0.746094 13.859375 Z M 0.746094 13.859375 "/>
<path style=" stroke:none;fill-rule:nonzero;fill:rgb(39.215686%,27.45098%,75.686275%);fill-opacity:1;" d="M 31 13.554688 C 29.648438 12.207031 27.460938 12.207031 26.109375 13.554688 L 20.628906 19 C 23.957031 21.105469 28.273438 20.761719 31.230469 18.160156 C 32.335938 16.789062 32.238281 14.808594 31 13.554688 Z M 31 13.554688 "/>
<path style=" stroke:none;fill-rule:nonzero;fill:url(#linear0);" d="M 20 19.671875 C 19.445312 19.316406 18.933594 18.90625 18.46875 18.445312 C 15.007812 14.980469 15.007812 9.367188 18.46875 5.90625 C 19.824219 4.546875 19.820312 2.347656 18.464844 0.996094 C 17.109375 -0.359375 14.910156 -0.355469 13.554688 1 L 7.285156 7.285156 L 1 13.554688 C 4.460938 10.089844 10.082031 10.085938 13.546875 13.546875 C 17.015625 17.011719 17.019531 22.628906 13.554688 26.09375 C 12.199219 27.445312 12.195312 29.636719 13.546875 30.992188 C 14.898438 32.347656 17.089844 32.351562 18.445312 31 L 24.714844 24.714844 L 31 18.445312 C 28.070312 21.371094 23.503906 21.878906 20 19.671875 Z M 20 19.671875 "/>
</g>
</svg>
