
<svg xmlns="http://www.w3.org/2000/svg" xmlns:xlink="http://www.w3.org/1999/xlink" width="32px" height="32px" viewBox="0 0 32 32" version="1.1">
<defs>
<linearGradient id="linear0" gradientUnits="userSpaceOnUse" x1="5.67" y1="32.07" x2="58.33" y2="32.07" gradientTransform="matrix(0.5,0,0,0.5,0,0)">
<stop offset="0" style="stop-color:rgb(83.921569%,85.098039%,86.666667%);stop-opacity:1;"/>
<stop offset="0.27" style="stop-color:rgb(82.352941%,83.921569%,85.490196%);stop-opacity:1;"/>
<stop offset="0.5" style="stop-color:rgb(78.431373%,79.607843%,81.960784%);stop-opacity:1;"/>
<stop offset="0.73" style="stop-color:rgb(71.372549%,72.941176%,76.078431%);stop-opacity:1;"/>
<stop offset="0.92" style="stop-color:rgb(62.352941%,64.705882%,69.019608%);stop-opacity:1;"/>
</linearGradient>
</defs>
<g id="surface1">
<path style=" stroke:none;fill-rule:nonzero;fill:url(#linear0);" d="M 5.746094 27.585938 L 2.835938 5.691406 C 2.835938 2.679688 8.730469 0.234375 16 0.234375 C 23.269531 0.234375 29.164062 2.679688 29.164062 5.691406 L 26.253906 27.585938 C 26.253906 29.929688 21.664062 31.835938 16 31.835938 C 10.335938 31.835938 5.746094 29.929688 5.746094 27.585938 Z M 5.746094 27.585938 "/>
<path style=" stroke:none;fill-rule:nonzero;fill:rgb(36.078431%,49.019608%,84.705882%);fill-opacity:1;" d="M 16 10.644531 C 8.425781 10.644531 3.335938 8.085938 3.335938 5.691406 C 3.335938 3.296875 8.425781 0.734375 16 0.734375 C 23.574219 0.734375 28.664062 3.300781 28.664062 5.691406 C 28.664062 8.078125 23.574219 10.644531 16 10.644531 Z M 16 10.644531 "/>
<path style=" stroke:none;fill-rule:nonzero;fill:rgb(100%,100%,100%);fill-opacity:1;" d="M 16 1.234375 C 22.964844 1.234375 28.164062 3.589844 28.164062 5.691406 C 28.164062 7.789062 22.964844 10.144531 16 10.144531 C 9.035156 10.144531 3.835938 7.796875 3.835938 5.691406 C 3.835938 3.585938 9.035156 1.234375 16 1.234375 M 16 0.234375 C 8.730469 0.234375 2.835938 2.679688 2.835938 5.691406 C 2.835938 8.699219 8.730469 11.144531 16 11.144531 C 23.269531 11.144531 29.164062 8.703125 29.164062 5.691406 C 29.164062 2.675781 23.269531 0.234375 16 0.234375 Z M 16 0.234375 "/>
<path style=" stroke:none;fill-rule:nonzero;fill:rgb(29.411765%,42.352941%,71.764706%);fill-opacity:1;" d="M 16.414062 17 C 16.378906 16.425781 16.78125 15.917969 17.351562 15.824219 C 17.941406 15.679688 18.5625 15.921875 18.894531 16.433594 L 20.242188 18.570312 C 20.285156 18.640625 20.269531 18.671875 20.199219 18.703125 L 18.046875 19.871094 C 17.96875 19.914062 17.941406 19.90625 17.894531 19.828125 L 16.570312 17.644531 C 16.46875 17.445312 16.417969 17.222656 16.414062 17 Z M 16.414062 17 "/>
<path style=" stroke:none;fill-rule:nonzero;fill:rgb(29.411765%,42.352941%,71.764706%);fill-opacity:1;" d="M 19.5 23.414062 C 19.933594 23.429688 20.34375 23.632812 20.617188 23.96875 C 20.796875 24.230469 20.867188 24.550781 20.804688 24.863281 C 20.742188 25.171875 20.5625 25.445312 20.296875 25.621094 C 20.039062 25.792969 19.742188 25.882812 19.433594 25.882812 L 16.820312 25.882812 C 16.71875 25.882812 16.679688 25.882812 16.679688 25.753906 C 16.679688 24.996094 16.679688 24.253906 16.679688 23.503906 C 16.679688 23.410156 16.679688 23.382812 16.800781 23.382812 Z M 19.5 23.414062 "/>
<path style=" stroke:none;fill-rule:nonzero;fill:rgb(29.411765%,42.352941%,71.764706%);fill-opacity:1;" d="M 11.632812 23.5 C 11.171875 23.527344 10.726562 23.296875 10.476562 22.90625 C 10.230469 22.511719 10.214844 22.011719 10.441406 21.605469 C 10.875 20.875 11.328125 20.148438 11.769531 19.425781 C 11.808594 19.355469 11.84375 19.359375 11.910156 19.390625 C 12.636719 19.796875 13.359375 20.183594 14.074219 20.554688 C 14.160156 20.601562 14.15625 20.628906 14.109375 20.699219 C 13.660156 21.40625 13.21875 22.121094 12.757812 22.816406 C 12.507812 23.203125 12.09375 23.453125 11.632812 23.5 Z M 11.632812 23.5 "/>
<path style=" stroke:none;fill-rule:nonzero;fill:rgb(36.078431%,49.019608%,84.705882%);fill-opacity:1;" d="M 18.058594 22.378906 L 19.65625 20.074219 C 19.679688 20.039062 19.71875 20.019531 19.757812 20.019531 L 21.894531 19.90625 L 22.75 19.859375 C 22.75 19.910156 22.695312 19.910156 22.671875 19.925781 L 21.648438 20.5 C 21.574219 20.539062 21.566406 20.566406 21.609375 20.632812 C 21.859375 21.023438 22.109375 21.414062 22.34375 21.808594 C 22.46875 22.035156 22.5 22.300781 22.433594 22.550781 C 22.359375 22.886719 22.234375 23.207031 22.054688 23.5 C 21.644531 24.167969 21.15625 24.785156 20.601562 25.335938 C 20.65625 25.117188 20.699219 24.894531 20.730469 24.671875 C 20.765625 24.4375 20.722656 24.203125 20.605469 24 C 20.179688 23.265625 19.710938 22.558594 19.253906 21.84375 C 19.210938 21.78125 19.179688 21.796875 19.125 21.84375 L 18.085938 22.398438 Z M 18.058594 22.378906 "/>
<path style=" stroke:none;fill-rule:nonzero;fill:rgb(36.078431%,49.019608%,84.705882%);fill-opacity:1;" d="M 10.394531 22.773438 C 10.441406 22.773438 10.460938 22.808594 10.492188 22.835938 C 10.519531 22.859375 10.675781 23 10.773438 23.078125 C 11.019531 23.296875 11.339844 23.410156 11.664062 23.394531 C 12.515625 23.394531 13.367188 23.394531 14.210938 23.394531 C 14.316406 23.394531 14.34375 23.371094 14.339844 23.265625 C 14.339844 22.894531 14.339844 22.523438 14.339844 22.148438 C 14.382812 22.148438 14.382812 22.191406 14.398438 22.214844 L 15.683594 24.585938 C 15.722656 24.632812 15.722656 24.703125 15.683594 24.753906 L 14.382812 27.15625 C 14.382812 27.15625 14.359375 27.195312 14.339844 27.242188 C 14.339844 27.183594 14.339844 27.148438 14.339844 27.121094 C 14.339844 26.757812 14.339844 26.398438 14.339844 26.039062 C 14.339844 25.953125 14.339844 25.921875 14.234375 25.925781 C 13.734375 25.925781 13.269531 25.925781 12.789062 25.925781 C 12.628906 25.925781 12.472656 25.878906 12.335938 25.796875 C 11.980469 25.589844 11.679688 25.304688 11.460938 24.960938 C 11.007812 24.289062 10.648438 23.558594 10.390625 22.789062 C 10.390625 22.789062 10.390625 22.785156 10.394531 22.773438 Z M 10.394531 22.773438 "/>
<path style=" stroke:none;fill-rule:nonzero;fill:rgb(36.078431%,49.019608%,84.705882%);fill-opacity:1;" d="M 11.75 16.769531 L 12.84375 17.355469 C 12.910156 17.390625 12.945312 17.398438 12.992188 17.324219 C 13.21875 16.929688 13.453125 16.546875 13.691406 16.160156 C 13.769531 16.046875 13.878906 15.957031 14.007812 15.90625 C 14.300781 15.78125 14.609375 15.703125 14.925781 15.679688 C 15.796875 15.605469 16.671875 15.628906 17.535156 15.746094 L 17.859375 15.746094 C 17.859375 15.773438 17.804688 15.773438 17.773438 15.785156 C 17.589844 15.832031 17.40625 15.890625 17.230469 15.960938 C 16.972656 16.046875 16.753906 16.226562 16.617188 16.460938 C 16.203125 17.148438 15.773438 17.835938 15.351562 18.515625 C 15.304688 18.589844 15.300781 18.625 15.390625 18.671875 C 15.710938 18.835938 16.023438 19.007812 16.339844 19.171875 C 16.375 19.183594 16.410156 19.210938 16.429688 19.246094 L 15.605469 19.210938 C 14.984375 19.179688 14.367188 19.140625 13.742188 19.125 C 13.519531 19.140625 13.3125 19.023438 13.203125 18.835938 C 12.75 18.15625 12.265625 17.496094 11.796875 16.835938 L 11.734375 16.734375 Z M 11.75 16.769531 "/>
</g>
</svg>
