
<svg xmlns="http://www.w3.org/2000/svg" xmlns:xlink="http://www.w3.org/1999/xlink" width="32px" height="32px" viewBox="0 0 32 32" version="1.1">
<defs>
<filter id="alpha" filterUnits="objectBoundingBox" x="0%" y="0%" width="100%" height="100%">
  <feColorMatrix type="matrix" in="SourceGraphic" values="0 0 0 0 1 0 0 0 0 1 0 0 0 0 1 0 0 0 1 0"/>
</filter>
<mask id="mask0">
  <g filter="url(#alpha)">
<rect x="0" y="0" width="32" height="32" style="fill:rgb(0%,0%,0%);fill-opacity:0.501961;stroke:none;"/>
  </g>
</mask>
<clipPath id="clip1">
  <rect x="0" y="0" width="32" height="32"/>
</clipPath>
<g id="surface5" clip-path="url(#clip1)">
<path style=" stroke:none;fill-rule:nonzero;fill:rgb(100%,100%,100%);fill-opacity:1;" d="M 16 24.789062 C 11.144531 24.789062 7.210938 20.855469 7.210938 16 C 7.210938 11.144531 11.144531 7.210938 16 7.210938 C 20.855469 7.210938 24.789062 11.144531 24.789062 16 C 24.789062 20.851562 20.851562 24.789062 16 24.789062 Z M 16 8.390625 C 11.796875 8.390625 8.390625 11.796875 8.390625 16 C 8.390625 20.203125 11.796875 23.609375 16 23.609375 C 20.203125 23.609375 23.609375 20.203125 23.609375 16 C 23.605469 11.800781 20.199219 8.394531 16 8.390625 Z M 16 8.390625 "/>
</g>
</defs>
<g id="surface1">
<path style=" stroke:none;fill-rule:nonzero;fill:rgb(36.078431%,41.960784%,75.294118%);fill-opacity:1;" d="M 2.695312 0 L 29.304688 0 C 30.792969 0 32 1.207031 32 2.695312 L 32 29.304688 C 32 30.792969 30.792969 32 29.304688 32 L 2.695312 32 C 1.207031 32 0 30.792969 0 29.304688 L 0 2.695312 C 0 1.207031 1.207031 0 2.695312 0 Z M 2.695312 0 "/>
<path style=" stroke:none;fill-rule:nonzero;fill:rgb(100%,100%,100%);fill-opacity:1;" d="M 16 11.125 C 16.5625 11.125 17.019531 11.582031 17.019531 12.144531 C 17.019531 12.707031 16.5625 13.164062 16 13.164062 C 15.4375 13.164062 14.980469 12.707031 14.980469 12.144531 C 14.980469 11.582031 15.4375 11.125 16 11.125 Z M 16 11.125 "/>
<path style=" stroke:none;fill-rule:nonzero;fill:rgb(100%,100%,100%);fill-opacity:1;" d="M 16 14.144531 C 16.5625 14.144531 17.019531 14.601562 17.019531 15.164062 L 17.019531 19.855469 C 17.019531 20.417969 16.5625 20.875 16 20.875 C 15.4375 20.875 14.980469 20.417969 14.980469 19.855469 L 14.980469 15.164062 C 14.980469 14.601562 15.4375 14.144531 16 14.144531 Z M 16 14.144531 "/>
<use xlink:href="#surface5" mask="url(#mask0)"/>
</g>
</svg>
