
<svg xmlns="http://www.w3.org/2000/svg" xmlns:xlink="http://www.w3.org/1999/xlink" width="22px" height="22px" viewBox="0 0 22 22" version="1.1">
<g id="surface1">
<path style=" stroke:none;fill-rule:nonzero;fill:rgb(49.411765%,34.117647%,76.862745%);fill-opacity:1;" d="M 1.851562 0 L 20.148438 0 C 21.171875 0 22 0.828125 22 1.851562 L 22 20.148438 C 22 21.171875 21.171875 22 20.148438 22 L 1.851562 22 C 0.828125 22 0 21.171875 0 20.148438 L 0 1.851562 C 0 0.828125 0.828125 0 1.851562 0 Z M 1.851562 0 "/>
<path style=" stroke:none;fill-rule:nonzero;fill:rgb(100%,100%,100%);fill-opacity:1;" d="M 4.039062 5.210938 L 5.894531 5.210938 C 6.25 5.210938 6.535156 5.496094 6.535156 5.851562 L 6.535156 7.707031 C 6.535156 8.058594 6.25 8.347656 5.894531 8.347656 L 4.039062 8.347656 C 3.6875 8.347656 3.398438 8.058594 3.398438 7.707031 L 3.398438 5.851562 C 3.398438 5.496094 3.6875 5.210938 4.039062 5.210938 Z M 4.039062 5.210938 "/>
<path style=" stroke:none;fill-rule:nonzero;fill:rgb(100%,100%,100%);fill-opacity:1;" d="M 8.0625 5.210938 L 9.917969 5.210938 C 10.269531 5.210938 10.558594 5.496094 10.558594 5.851562 L 10.558594 7.707031 C 10.558594 8.058594 10.269531 8.347656 9.917969 8.347656 L 8.0625 8.347656 C 7.707031 8.347656 7.421875 8.058594 7.421875 7.707031 L 7.421875 5.851562 C 7.421875 5.496094 7.707031 5.210938 8.0625 5.210938 Z M 8.0625 5.210938 "/>
<path style=" stroke:none;fill-rule:nonzero;fill:rgb(100%,100%,100%);fill-opacity:1;" d="M 12.082031 5.210938 L 13.9375 5.210938 C 14.292969 5.210938 14.578125 5.496094 14.578125 5.851562 L 14.578125 7.707031 C 14.578125 8.058594 14.292969 8.347656 13.9375 8.347656 L 12.082031 8.347656 C 11.730469 8.347656 11.441406 8.058594 11.441406 7.707031 L 11.441406 5.851562 C 11.441406 5.496094 11.730469 5.210938 12.082031 5.210938 Z M 12.082031 5.210938 "/>
<path style=" stroke:none;fill-rule:nonzero;fill:rgb(100%,100%,100%);fill-opacity:1;" d="M 16.101562 5.210938 L 17.957031 5.210938 C 18.3125 5.210938 18.597656 5.496094 18.597656 5.851562 L 18.597656 7.707031 C 18.597656 8.058594 18.3125 8.347656 17.957031 8.347656 L 16.101562 8.347656 C 15.75 8.347656 15.460938 8.058594 15.460938 7.707031 L 15.460938 5.851562 C 15.460938 5.496094 15.75 5.210938 16.101562 5.210938 Z M 16.101562 5.210938 "/>
<path style=" stroke:none;fill-rule:nonzero;fill:rgb(100%,100%,100%);fill-opacity:1;" d="M 4.039062 9.898438 L 5.894531 9.898438 C 6.25 9.898438 6.535156 10.1875 6.535156 10.539062 L 6.535156 12.394531 C 6.535156 12.75 6.25 13.035156 5.894531 13.035156 L 4.039062 13.035156 C 3.6875 13.035156 3.398438 12.75 3.398438 12.394531 L 3.398438 10.539062 C 3.398438 10.1875 3.6875 9.898438 4.039062 9.898438 Z M 4.039062 9.898438 "/>
<path style=" stroke:none;fill-rule:nonzero;fill:rgb(100%,100%,100%);fill-opacity:1;" d="M 8.0625 9.898438 L 9.917969 9.898438 C 10.269531 9.898438 10.558594 10.1875 10.558594 10.539062 L 10.558594 12.394531 C 10.558594 12.75 10.269531 13.035156 9.917969 13.035156 L 8.0625 13.035156 C 7.707031 13.035156 7.421875 12.75 7.421875 12.394531 L 7.421875 10.539062 C 7.421875 10.1875 7.707031 9.898438 8.0625 9.898438 Z M 8.0625 9.898438 "/>
</g>
</svg>
