
<svg xmlns="http://www.w3.org/2000/svg" xmlns:xlink="http://www.w3.org/1999/xlink" width="22px" height="22px" viewBox="0 0 22 22" version="1.1">
<defs>
<linearGradient id="linear0" gradientUnits="userSpaceOnUse" x1="32.85" y1="53" x2="32.85" y2="54.61" gradientTransform="matrix(0.34375,0,0,0.34375,-0.04125,0.0171875)">
<stop offset="0" style="stop-color:rgb(86.27451%,87.058824%,88.627451%);stop-opacity:1;"/>
<stop offset="0.57" style="stop-color:rgb(87.058824%,87.843137%,89.411765%);stop-opacity:1;"/>
<stop offset="0.81" style="stop-color:rgb(89.803922%,90.588235%,91.764706%);stop-opacity:1;"/>
<stop offset="0.99" style="stop-color:rgb(94.901961%,95.294118%,95.686275%);stop-opacity:1;"/>
<stop offset="1" style="stop-color:rgb(95.294118%,95.686275%,96.078431%);stop-opacity:1;"/>
</linearGradient>
</defs>
<g id="surface1">
<path style=" stroke:none;fill-rule:nonzero;fill:rgb(49.411765%,34.117647%,76.862745%);fill-opacity:1;" d="M 1.851562 0 L 20.148438 0 C 21.171875 0 22 0.828125 22 1.851562 L 22 20.148438 C 22 21.171875 21.171875 22 20.148438 22 L 1.851562 22 C 0.828125 22 0 21.171875 0 20.148438 L 0 1.851562 C 0 0.828125 0.828125 0 1.851562 0 Z M 1.851562 0 "/>
<path style=" stroke:none;fill-rule:nonzero;fill:url(#linear0);" d="M 15.082031 18.695312 L 14.4375 18.695312 C 14.15625 18.695312 13.933594 18.46875 13.933594 18.191406 L 13.933594 15.863281 L 8.59375 15.863281 L 8.59375 18.1875 C 8.59375 18.464844 8.367188 18.691406 8.089844 18.691406 L 7.417969 18.691406 C 7.144531 18.691406 6.917969 18.917969 6.917969 19.191406 C 6.917969 19.464844 7.144531 19.691406 7.417969 19.691406 L 15.082031 19.691406 C 15.214844 19.691406 15.34375 19.636719 15.4375 19.546875 C 15.53125 19.453125 15.585938 19.324219 15.585938 19.191406 C 15.582031 18.917969 15.359375 18.695312 15.082031 18.695312 Z M 15.082031 18.695312 "/>
<path style=" stroke:none;fill-rule:nonzero;fill:rgb(92.54902%,25.098039%,47.843137%);fill-opacity:1;" d="M 3.140625 4.078125 L 18.859375 4.078125 C 19.21875 4.078125 19.515625 4.371094 19.515625 4.734375 L 19.515625 15.109375 C 19.515625 15.46875 19.21875 15.765625 18.859375 15.765625 L 3.140625 15.765625 C 2.78125 15.765625 2.484375 15.46875 2.484375 15.109375 L 2.484375 4.734375 C 2.484375 4.371094 2.78125 4.078125 3.140625 4.078125 Z M 3.140625 4.078125 "/>
<path style=" stroke:none;fill-rule:nonzero;fill:rgb(100%,100%,100%);fill-opacity:1;" d="M 18.859375 16.066406 L 3.140625 16.066406 C 2.617188 16.066406 2.191406 15.648438 2.183594 15.125 L 2.183594 4.734375 C 2.1875 4.207031 2.613281 3.78125 3.140625 3.78125 L 18.859375 3.78125 C 19.386719 3.78125 19.816406 4.210938 19.816406 4.738281 L 19.816406 15.125 C 19.808594 15.648438 19.382812 16.066406 18.859375 16.066406 Z M 3.140625 4.378906 C 2.953125 4.378906 2.796875 4.53125 2.796875 4.722656 L 2.796875 15.125 C 2.796875 15.316406 2.953125 15.46875 3.140625 15.46875 L 18.859375 15.46875 C 19.046875 15.46875 19.203125 15.316406 19.203125 15.125 L 19.203125 4.734375 C 19.203125 4.542969 19.046875 4.390625 18.859375 4.390625 Z M 3.140625 4.378906 "/>
<path style=" stroke:none;fill-rule:nonzero;fill:rgb(100%,100%,100%);fill-opacity:1;" d="M 2.269531 14.4375 L 19.699219 14.4375 L 19.699219 15.195312 C 19.699219 15.609375 19.363281 15.949219 18.945312 15.949219 L 3.023438 15.949219 C 2.609375 15.949219 2.269531 15.609375 2.269531 15.195312 Z M 2.269531 14.4375 "/>
<path style=" stroke:none;fill-rule:nonzero;fill:rgb(100%,100%,100%);fill-opacity:1;" d="M 7.832031 11.949219 L 8.679688 11.949219 C 8.839844 11.949219 8.96875 12.078125 8.96875 12.238281 L 8.96875 13.085938 C 8.96875 13.246094 8.839844 13.375 8.679688 13.375 L 7.832031 13.375 C 7.671875 13.375 7.542969 13.246094 7.542969 13.085938 L 7.542969 12.238281 C 7.542969 12.078125 7.671875 11.949219 7.832031 11.949219 Z M 7.832031 11.949219 "/>
<path style=" stroke:none;fill-rule:nonzero;fill:rgb(100%,100%,100%);fill-opacity:1;" d="M 9.660156 11.949219 L 10.507812 11.949219 C 10.667969 11.949219 10.796875 12.078125 10.796875 12.238281 L 10.796875 13.085938 C 10.796875 13.246094 10.667969 13.375 10.507812 13.375 L 9.660156 13.375 C 9.5 13.375 9.371094 13.246094 9.371094 13.085938 L 9.371094 12.238281 C 9.371094 12.078125 9.5 11.949219 9.660156 11.949219 Z M 9.660156 11.949219 "/>
<path style=" stroke:none;fill-rule:nonzero;fill:rgb(100%,100%,100%);fill-opacity:1;" d="M 11.492188 11.949219 L 12.339844 11.949219 C 12.5 11.949219 12.628906 12.078125 12.628906 12.238281 L 12.628906 13.085938 C 12.628906 13.246094 12.5 13.375 12.339844 13.375 L 11.492188 13.375 C 11.332031 13.375 11.203125 13.246094 11.203125 13.085938 L 11.203125 12.238281 C 11.203125 12.078125 11.332031 11.949219 11.492188 11.949219 Z M 11.492188 11.949219 "/>
<path style=" stroke:none;fill-rule:nonzero;fill:rgb(100%,100%,100%);fill-opacity:1;" d="M 13.320312 11.949219 L 14.167969 11.949219 C 14.328125 11.949219 14.457031 12.078125 14.457031 12.238281 L 14.457031 13.085938 C 14.457031 13.246094 14.328125 13.375 14.167969 13.375 L 13.320312 13.375 C 13.160156 13.375 13.03125 13.246094 13.03125 13.085938 L 13.03125 12.238281 C 13.03125 12.078125 13.160156 11.949219 13.320312 11.949219 Z M 13.320312 11.949219 "/>
</g>
</svg>
