
<svg xmlns="http://www.w3.org/2000/svg" xmlns:xlink="http://www.w3.org/1999/xlink" width="22px" height="22px" viewBox="0 0 22 22" version="1.1">
<g id="surface1">
<path style=" stroke:none;fill-rule:nonzero;fill:rgb(79.607843%,79.607843%,79.607843%);fill-opacity:1;" d="M 22 11 L 22 1.851562 C 22 0.828125 21.171875 0 20.148438 0 L 11 0 L 11 11 Z M 22 11 "/>
<path style=" stroke:none;fill-rule:nonzero;fill:rgb(49.411765%,34.117647%,76.862745%);fill-opacity:1;" d="M 14.277344 5.308594 C 14.183594 4.828125 13.820312 4.449219 13.347656 4.335938 C 12.875 4.222656 12.378906 4.394531 12.074219 4.773438 C 11.964844 4.921875 11.796875 5.007812 11.613281 5.011719 L 11.457031 5.011719 C 11.203125 5.011719 11 4.804688 11 4.550781 L 11 0 L 1.851562 0 C 0.828125 0 0 0.828125 0 1.851562 L 0 11 L 11 11 L 11 6.53125 C 11 6.277344 11.203125 6.074219 11.457031 6.074219 L 11.613281 6.074219 C 11.796875 6.078125 11.964844 6.164062 12.074219 6.3125 C 12.433594 6.769531 13.0625 6.921875 13.589844 6.671875 C 14.117188 6.425781 14.402344 5.847656 14.277344 5.28125 Z M 14.277344 5.308594 "/>
<path style=" stroke:none;fill-rule:nonzero;fill:rgb(91.764706%,92.156863%,93.72549%);fill-opacity:1;" d="M 5.886719 10.65625 L 5.886719 10.199219 C 5.886719 10.015625 5.976562 9.84375 6.121094 9.734375 C 6.582031 9.378906 6.730469 8.75 6.484375 8.222656 C 6.238281 7.695312 5.660156 7.410156 5.089844 7.53125 C 4.613281 7.625 4.234375 7.988281 4.117188 8.464844 C 4.003906 8.9375 4.175781 9.433594 4.558594 9.734375 C 4.710938 9.839844 4.804688 10.011719 4.8125 10.199219 L 4.8125 10.609375 C 4.828125 10.707031 4.796875 10.808594 4.730469 10.882812 C 4.664062 10.957031 4.570312 11 4.46875 11 L 0 11 L 0 20.148438 C 0 21.171875 0.828125 22 1.851562 22 L 11 22 L 11 11 L 6.21875 11 C 6.03125 10.996094 5.886719 10.84375 5.886719 10.65625 Z M 5.886719 10.65625 "/>
<path style=" stroke:none;fill-rule:nonzero;fill:rgb(92.54902%,25.098039%,47.843137%);fill-opacity:1;" d="M 17.109375 10.558594 L 17.109375 10.167969 C 17.113281 9.984375 17.203125 9.8125 17.347656 9.703125 C 17.808594 9.34375 17.957031 8.71875 17.710938 8.191406 C 17.464844 7.664062 16.886719 7.378906 16.316406 7.5 C 15.84375 7.601562 15.472656 7.96875 15.363281 8.441406 C 15.253906 8.914062 15.429688 9.40625 15.8125 9.703125 C 15.960938 9.8125 16.046875 9.984375 16.050781 10.167969 L 16.050781 10.511719 C 16.058594 10.636719 16.015625 10.765625 15.929688 10.855469 C 15.84375 10.949219 15.722656 11 15.597656 11 L 11 11 L 11 15.46875 C 11 15.710938 10.804688 15.910156 10.558594 15.910156 L 10.1875 15.910156 C 10.003906 15.902344 9.832031 15.816406 9.722656 15.667969 C 9.378906 15.242188 8.800781 15.089844 8.292969 15.285156 C 7.785156 15.484375 7.464844 15.988281 7.503906 16.53125 C 7.539062 17.078125 7.925781 17.535156 8.457031 17.660156 C 8.929688 17.773438 9.421875 17.597656 9.722656 17.21875 C 9.835938 17.070312 10.003906 16.984375 10.1875 16.980469 L 10.515625 16.980469 C 10.636719 16.972656 10.757812 17.015625 10.847656 17.09375 C 10.9375 17.175781 10.992188 17.289062 11 17.410156 L 11 22 L 20.148438 22 C 21.171875 22 22 21.171875 22 20.148438 L 22 11 L 17.53125 11 C 17.296875 10.992188 17.109375 10.796875 17.109375 10.558594 Z M 17.109375 10.558594 "/>
</g>
</svg>
