
<svg xmlns="http://www.w3.org/2000/svg" xmlns:xlink="http://www.w3.org/1999/xlink" width="22px" height="22px" viewBox="0 0 22 22" version="1.1">
<g id="surface1">
<path style=" stroke:none;fill-rule:nonzero;fill:rgb(92.54902%,25.098039%,47.843137%);fill-opacity:1;" d="M 1.851562 0 L 20.148438 0 C 21.171875 0 22 0.828125 22 1.851562 L 22 20.148438 C 22 21.171875 21.171875 22 20.148438 22 L 1.851562 22 C 0.828125 22 0 21.171875 0 20.148438 L 0 1.851562 C 0 0.828125 0.828125 0 1.851562 0 Z M 1.851562 0 "/>
<path style=" stroke:none;fill-rule:nonzero;fill:rgb(100%,100%,100%);fill-opacity:1;" d="M 11.042969 5.53125 C 11.027344 5.511719 11.015625 5.496094 11.007812 5.476562 L 11.007812 5.445312 L 11.007812 5.460938 L 11.007812 5.445312 L 11.007812 5.476562 C 10.890625 5.738281 9.289062 7.46875 5.996094 7.824219 C 5.945312 8.835938 6.074219 9.847656 6.371094 10.816406 L 11.042969 10.816406 Z M 11.042969 5.53125 "/>
<path style=" stroke:none;fill-rule:nonzero;fill:rgb(16.078431%,71.372549%,96.470588%);fill-opacity:1;" d="M 11.042969 16.527344 C 13.269531 15.308594 14.921875 13.253906 15.644531 10.816406 L 11.042969 10.816406 Z M 11.042969 16.527344 "/>
<path style=" stroke:none;fill-rule:nonzero;fill:rgb(100%,100%,100%);fill-opacity:1;" d="M 11 16.902344 C 10.9375 16.902344 10.878906 16.886719 10.824219 16.855469 C 10.804688 16.839844 10.785156 16.828125 10.769531 16.8125 C 8.535156 15.574219 6.859375 13.53125 6.082031 11.097656 C 5.730469 10.035156 5.578125 8.914062 5.636719 7.792969 C 5.652344 7.628906 5.78125 7.5 5.941406 7.484375 C 8.878906 7.167969 10.410156 5.722656 10.65625 5.367188 C 10.6875 5.230469 10.792969 5.128906 10.925781 5.105469 C 10.972656 5.097656 11.023438 5.097656 11.070312 5.105469 C 11.199219 5.128906 11.304688 5.222656 11.339844 5.351562 C 12.597656 6.609375 14.269531 7.363281 16.042969 7.476562 C 16.210938 7.488281 16.347656 7.621094 16.363281 7.789062 C 16.421875 8.910156 16.269531 10.03125 15.917969 11.097656 C 15.140625 13.527344 13.46875 15.574219 11.238281 16.8125 C 11.21875 16.828125 11.199219 16.84375 11.179688 16.855469 C 11.125 16.886719 11.0625 16.902344 11 16.902344 Z M 6.3125 8.132812 C 6.316406 11.457031 8.105469 14.519531 11 16.15625 C 13.027344 15.011719 14.546875 13.140625 15.253906 10.921875 C 15.539062 10.023438 15.6875 9.085938 15.6875 8.144531 C 13.933594 7.960938 12.289062 7.210938 11 6.007812 C 10.382812 6.671875 8.808594 7.792969 6.3125 8.132812 Z M 6.3125 8.132812 "/>
</g>
</svg>
