
<svg xmlns="http://www.w3.org/2000/svg" xmlns:xlink="http://www.w3.org/1999/xlink" width="22px" height="22px" viewBox="0 0 22 22" version="1.1">
<defs>
<linearGradient id="linear0" gradientUnits="userSpaceOnUse" x1="31.18" y1="-3.52" x2="31.18" y2="47.91" gradientTransform="matrix(0.34375,0,0,0.34375,0,0)">
<stop offset="0" style="stop-color:rgb(16.078431%,71.372549%,96.470588%);stop-opacity:1;"/>
<stop offset="1" style="stop-color:rgb(49.411765%,34.117647%,76.862745%);stop-opacity:1;"/>
</linearGradient>
</defs>
<g id="surface1">
<path style=" stroke:none;fill-rule:nonzero;fill:rgb(91.764706%,92.156863%,93.72549%);fill-opacity:1;" d="M 1.851562 0 L 20.148438 0 C 21.171875 0 22 0.828125 22 1.851562 L 22 20.148438 C 22 21.171875 21.171875 22 20.148438 22 L 1.851562 22 C 0.828125 22 0 21.171875 0 20.148438 L 0 1.851562 C 0 0.828125 0.828125 0 1.851562 0 Z M 1.851562 0 "/>
<path style=" stroke:none;fill-rule:nonzero;fill:url(#linear0);" d="M 16.808594 10.808594 C 16.453125 10.453125 15.890625 10.277344 15.125 10.277344 C 14.695312 10.277344 14.273438 10.339844 13.863281 10.46875 C 13.46875 10.589844 13.09375 10.765625 12.75 11 L 12.75 11.859375 C 12.75 11.925781 12.75 11.960938 12.796875 11.972656 C 12.847656 11.984375 12.863281 11.972656 12.902344 11.933594 C 13.222656 11.699219 13.566406 11.507812 13.933594 11.367188 C 14.277344 11.238281 14.636719 11.175781 15 11.179688 C 15.199219 11.175781 15.402344 11.195312 15.597656 11.246094 C 15.753906 11.28125 15.894531 11.355469 16.011719 11.46875 C 16.132812 11.589844 16.21875 11.742188 16.257812 11.90625 C 16.320312 12.140625 16.347656 12.375 16.339844 12.617188 L 16.339844 12.71875 L 14.316406 13.011719 C 13.699219 13.0625 13.117188 13.324219 12.667969 13.75 L 10.128906 6.1875 C 9.929688 5.597656 9.375 5.195312 8.753906 5.191406 C 8.128906 5.195312 7.574219 5.597656 7.378906 6.1875 L 4.125 15.871094 C 4.03125 16.148438 4.078125 16.457031 4.25 16.695312 C 4.421875 16.933594 4.699219 17.074219 4.992188 17.074219 C 5.386719 17.074219 5.738281 16.820312 5.859375 16.441406 L 6.574219 14.253906 C 6.660156 13.992188 6.902344 13.816406 7.175781 13.816406 L 10.3125 13.816406 C 10.589844 13.8125 10.835938 13.996094 10.917969 14.257812 L 11.605469 16.4375 C 11.726562 16.816406 12.078125 17.074219 12.472656 17.074219 L 14.230469 17.109375 C 14.636719 17.109375 15.039062 17.011719 15.402344 16.832031 C 15.585938 16.742188 15.757812 16.625 15.910156 16.488281 C 16.0625 16.359375 16.191406 16.203125 16.292969 16.027344 L 16.316406 16.597656 C 16.324219 16.875 16.554688 17.097656 16.832031 17.089844 C 17.109375 17.082031 17.328125 16.851562 17.320312 16.574219 L 17.320312 12.550781 C 17.335938 11.746094 17.167969 11.164062 16.808594 10.808594 Z M 9.511719 12.277344 L 7.984375 12.277344 C 7.78125 12.277344 7.59375 12.183594 7.472656 12.019531 C 7.351562 11.855469 7.320312 11.644531 7.378906 11.453125 L 8.441406 8.070312 C 8.480469 7.933594 8.605469 7.835938 8.75 7.835938 C 8.890625 7.835938 9.019531 7.933594 9.054688 8.070312 L 10.117188 11.453125 C 10.179688 11.644531 10.144531 11.855469 10.023438 12.019531 C 9.90625 12.183594 9.714844 12.277344 9.511719 12.277344 Z M 16.386719 14.339844 C 16.386719 14.585938 16.332031 14.828125 16.230469 15.050781 C 16.132812 15.28125 15.988281 15.488281 15.8125 15.667969 C 15.636719 15.84375 15.429688 15.992188 15.199219 16.097656 C 14.976562 16.207031 14.726562 16.265625 14.476562 16.261719 C 14.144531 16.277344 13.816406 16.175781 13.550781 15.976562 C 13.433594 15.886719 13.34375 15.769531 13.285156 15.632812 L 13.269531 15.582031 C 13.21875 15.449219 13.191406 15.304688 13.191406 15.164062 C 13.167969 14.78125 13.320312 14.410156 13.605469 14.15625 C 13.914062 13.910156 14.285156 13.753906 14.679688 13.710938 L 16.113281 13.535156 C 16.179688 13.527344 16.25 13.546875 16.304688 13.59375 C 16.359375 13.640625 16.386719 13.707031 16.386719 13.777344 Z M 16.386719 14.339844 "/>
</g>
</svg>
