
<svg xmlns="http://www.w3.org/2000/svg" xmlns:xlink="http://www.w3.org/1999/xlink" width="22px" height="22px" viewBox="0 0 22 22" version="1.1">
<g id="surface1">
<path style=" stroke:none;fill-rule:nonzero;fill:rgb(49.411765%,34.117647%,76.862745%);fill-opacity:1;" d="M 1.851562 0 L 20.148438 0 C 21.171875 0 22 0.828125 22 1.851562 L 22 20.148438 C 22 21.171875 21.171875 22 20.148438 22 L 1.851562 22 C 0.828125 22 0 21.171875 0 20.148438 L 0 1.851562 C 0 0.828125 0.828125 0 1.851562 0 Z M 1.851562 0 "/>
<path style=" stroke:none;fill-rule:nonzero;fill:rgb(100%,100%,100%);fill-opacity:1;" d="M 17.820312 10.757812 C 17.71875 10.546875 17.597656 10.347656 17.457031 10.160156 C 17.304688 10.03125 17.105469 9.96875 16.90625 9.984375 C 16.3125 10.03125 15.753906 9.6875 15.53125 9.132812 C 15.300781 8.597656 15.421875 7.976562 15.832031 7.5625 C 16.230469 7.160156 16.230469 6.515625 15.832031 6.113281 C 15.652344 5.929688 15.40625 5.824219 15.144531 5.820312 C 14.855469 5.828125 14.578125 5.9375 14.363281 6.128906 C 14.070312 6.363281 13.707031 6.496094 13.332031 6.503906 C 13.179688 6.503906 13.027344 6.476562 12.886719 6.421875 C 12.40625 6.183594 12.082031 5.710938 12.03125 5.175781 C 12.046875 4.65625 11.671875 4.203125 11.160156 4.125 L 11.09375 4.105469 L 10.890625 4.105469 C 10.859375 4.117188 10.832031 4.125 10.800781 4.132812 C 10.320312 4.222656 9.972656 4.648438 9.984375 5.140625 C 10.007812 5.714844 9.671875 6.246094 9.144531 6.476562 C 8.605469 6.710938 7.976562 6.585938 7.5625 6.167969 C 7.355469 5.980469 7.089844 5.875 6.8125 5.871094 C 6.554688 5.875 6.308594 5.976562 6.125 6.15625 C 5.734375 6.558594 5.734375 7.199219 6.125 7.601562 C 6.53125 7.992188 6.664062 8.589844 6.46875 9.121094 C 6.261719 9.664062 5.742188 10.027344 5.160156 10.03125 C 4.691406 10.0625 4.339844 10.222656 4.128906 10.890625 L 4.128906 11.214844 C 4.148438 11.265625 4.167969 11.320312 4.1875 11.371094 C 4.320312 11.773438 4.695312 12.050781 5.121094 12.058594 C 5.722656 11.988281 6.300781 12.316406 6.542969 12.867188 C 6.789062 13.421875 6.640625 14.070312 6.183594 14.464844 C 5.8125 14.867188 5.8125 15.488281 6.183594 15.890625 C 6.371094 16.082031 6.628906 16.191406 6.898438 16.191406 C 7.144531 16.175781 7.378906 16.078125 7.5625 15.910156 C 7.839844 15.640625 8.207031 15.484375 8.59375 15.464844 C 9.378906 15.46875 10.011719 16.109375 10.007812 16.890625 C 10.042969 17.347656 10.203125 17.691406 10.863281 17.921875 L 11.117188 17.921875 L 11.273438 17.835938 C 11.484375 17.738281 11.679688 17.617188 11.863281 17.476562 C 12 17.292969 12.070312 17.0625 12.0625 16.832031 C 12.101562 16.316406 12.394531 15.851562 12.839844 15.589844 C 13.011719 15.492188 13.207031 15.445312 13.40625 15.449219 C 13.78125 15.457031 14.144531 15.589844 14.4375 15.824219 C 14.65625 16.015625 14.933594 16.121094 15.222656 16.125 C 15.480469 16.128906 15.726562 16.023438 15.910156 15.839844 C 16.308594 15.425781 16.308594 14.769531 15.910156 14.359375 C 15.621094 13.996094 15.496094 13.535156 15.566406 13.078125 C 15.714844 12.5 16.21875 12.085938 16.8125 12.046875 C 17.351562 12.082031 17.832031 11.714844 17.945312 11.183594 L 17.945312 10.933594 Z M 11 13.589844 C 9.570312 13.589844 8.410156 12.429688 8.410156 11 C 8.410156 9.570312 9.570312 8.410156 11 8.410156 C 12.429688 8.410156 13.589844 9.570312 13.589844 11 C 13.582031 12.425781 12.425781 13.582031 11 13.589844 Z M 11 13.589844 "/>
</g>
</svg>
