
<svg xmlns="http://www.w3.org/2000/svg" xmlns:xlink="http://www.w3.org/1999/xlink" width="22px" height="22px" viewBox="0 0 22 22" version="1.1">
<g id="surface1">
<path style=" stroke:none;fill-rule:nonzero;fill:rgb(91.764706%,92.156863%,93.72549%);fill-opacity:1;" d="M 1.851562 0 L 20.148438 0 C 21.171875 0 22 0.828125 22 1.851562 L 22 20.148438 C 22 21.171875 21.171875 22 20.148438 22 L 1.851562 22 C 0.828125 22 0 21.171875 0 20.148438 L 0 1.851562 C 0 0.828125 0.828125 0 1.851562 0 Z M 1.851562 0 "/>
<path style=" stroke:none;fill-rule:nonzero;fill:rgb(49.411765%,34.117647%,76.862745%);fill-opacity:1;" d="M 12.226562 7.78125 L 5.550781 7.78125 L 5.550781 6.722656 L 8.277344 6.722656 L 8.277344 5.324219 L 9.515625 5.324219 L 9.515625 6.722656 L 12.226562 6.722656 Z M 8.894531 12.894531 C 8.492188 12.902344 8.09375 12.84375 7.710938 12.71875 C 7.402344 12.609375 7.121094 12.4375 6.875 12.222656 C 6.65625 12.035156 6.480469 11.800781 6.363281 11.535156 C 6.25 11.289062 6.1875 11.019531 6.1875 10.75 L 6.1875 10.371094 C 6.1875 10.09375 6.242188 9.820312 6.355469 9.570312 C 6.476562 9.304688 6.648438 9.070312 6.867188 8.882812 C 7.117188 8.671875 7.40625 8.511719 7.714844 8.40625 C 8.097656 8.277344 8.496094 8.214844 8.898438 8.222656 C 9.304688 8.214844 9.703125 8.277344 10.085938 8.40625 C 10.394531 8.511719 10.683594 8.675781 10.929688 8.890625 C 11.148438 9.078125 11.324219 9.3125 11.441406 9.578125 C 11.554688 9.824219 11.613281 10.09375 11.613281 10.367188 L 11.613281 10.746094 C 11.613281 11.015625 11.554688 11.285156 11.441406 11.53125 C 11.324219 11.796875 11.148438 12.03125 10.929688 12.21875 C 10.683594 12.4375 10.394531 12.609375 10.082031 12.71875 C 9.699219 12.84375 9.296875 12.902344 8.894531 12.894531 Z M 8.894531 11.898438 C 9.125 11.902344 9.351562 11.867188 9.566406 11.792969 C 9.742188 11.738281 9.90625 11.644531 10.042969 11.527344 C 10.167969 11.417969 10.265625 11.285156 10.328125 11.132812 C 10.390625 10.992188 10.421875 10.839844 10.421875 10.683594 L 10.421875 10.433594 C 10.421875 10.28125 10.390625 10.128906 10.328125 9.984375 C 10.265625 9.835938 10.167969 9.703125 10.042969 9.59375 C 9.90625 9.472656 9.742188 9.382812 9.570312 9.324219 C 9.132812 9.191406 8.660156 9.191406 8.222656 9.324219 C 8.046875 9.382812 7.886719 9.472656 7.746094 9.59375 C 7.625 9.703125 7.527344 9.835938 7.464844 9.984375 C 7.402344 10.128906 7.371094 10.28125 7.371094 10.433594 L 7.371094 10.683594 C 7.371094 10.839844 7.402344 10.992188 7.464844 11.132812 C 7.527344 11.285156 7.625 11.417969 7.746094 11.527344 C 7.886719 11.648438 8.050781 11.738281 8.230469 11.792969 C 8.445312 11.867188 8.667969 11.902344 8.894531 11.898438 Z M 8.746094 15.855469 L 14.933594 15.855469 L 14.933594 16.941406 L 7.496094 16.941406 L 7.496094 13.726562 L 8.746094 13.726562 Z M 16.253906 9.96875 L 14.597656 9.96875 L 14.597656 13.878906 L 13.363281 13.878906 L 13.363281 5.4375 L 14.597656 5.4375 L 14.597656 8.894531 L 16.253906 8.894531 Z M 16.253906 9.96875 "/>
<path style=" stroke:none;fill-rule:nonzero;fill:rgb(92.54902%,25.098039%,47.843137%);fill-opacity:1;" d="M 14.238281 16.664062 L 13.140625 17.058594 L 12.988281 10.988281 L 16.722656 15.769531 L 15.5625 16.1875 L 16.1875 17.929688 L 14.863281 18.40625 Z M 14.238281 16.664062 "/>
<path style=" stroke:none;fill-rule:nonzero;fill:rgb(100%,100%,100%);fill-opacity:1;" d="M 13.386719 12.105469 L 16.113281 15.597656 L 15.082031 15.964844 L 15.710938 17.707031 L 15.082031 17.933594 L 14.460938 16.191406 L 13.5 16.535156 L 13.386719 12.105469 M 12.585938 9.878906 L 12.644531 12.121094 L 12.757812 16.554688 L 12.785156 17.585938 L 13.746094 17.242188 L 14.015625 17.144531 L 14.640625 18.863281 L 15.328125 18.613281 L 15.953125 18.386719 L 16.640625 18.136719 L 16.015625 16.417969 L 16.359375 16.296875 L 17.320312 15.953125 L 16.699219 15.125 L 13.964844 11.644531 L 12.589844 9.878906 Z M 12.585938 9.878906 "/>
</g>
</svg>
