
<svg xmlns="http://www.w3.org/2000/svg" xmlns:xlink="http://www.w3.org/1999/xlink" width="22px" height="22px" viewBox="0 0 22 22" version="1.1">
<g id="surface1">
<path style=" stroke:none;fill-rule:nonzero;fill:rgb(92.54902%,25.098039%,47.843137%);fill-opacity:1;" d="M 1.851562 0 L 20.148438 0 C 21.171875 0 22 0.828125 22 1.851562 L 22 20.148438 C 22 21.171875 21.171875 22 20.148438 22 L 1.851562 22 C 0.828125 22 0 21.171875 0 20.148438 L 0 1.851562 C 0 0.828125 0.828125 0 1.851562 0 Z M 1.851562 0 "/>
<path style=" stroke:none;fill-rule:nonzero;fill:rgb(16.078431%,71.372549%,96.470588%);fill-opacity:1;" d="M 7.21875 15.289062 L 8.054688 13.976562 L 8.261719 13.652344 L 12.523438 13.652344 C 12.726562 12.988281 13.339844 12.535156 14.035156 12.535156 L 14.09375 12.535156 C 14.042969 12.5 13.996094 12.460938 13.9375 12.429688 L 11.929688 11.296875 C 11.679688 11.15625 11.527344 10.890625 11.53125 10.609375 L 11.53125 10.078125 C 12.175781 9.652344 12.566406 8.929688 12.5625 8.15625 L 12.5625 7.4375 C 12.597656 6.59375 12.164062 5.800781 11.441406 5.371094 C 10.714844 4.9375 9.8125 4.9375 9.085938 5.371094 C 8.359375 5.800781 7.929688 6.59375 7.960938 7.4375 L 7.960938 8.15625 C 7.960938 8.929688 8.347656 9.652344 8.992188 10.078125 L 8.992188 10.617188 C 8.996094 10.902344 8.84375 11.167969 8.597656 11.304688 L 6.589844 12.441406 C 5.738281 12.921875 5.214844 13.824219 5.214844 14.800781 L 5.214844 15.832031 L 6.933594 15.832031 L 6.882812 15.789062 Z M 7.21875 15.289062 "/>
<path style=" stroke:none;fill-rule:nonzero;fill:rgb(89.803922%,89.803922%,89.803922%);fill-opacity:1;" d="M 13.167969 14.941406 L 8.261719 14.941406 L 8.214844 15.007812 L 8.003906 15.339844 L 13.167969 15.339844 Z M 13.167969 14.941406 "/>
<path style=" stroke:none;fill-rule:nonzero;fill:rgb(100%,100%,100%);fill-opacity:1;" d="M 16.597656 13.230469 L 14.035156 13.230469 C 13.546875 13.230469 13.152344 13.625 13.152344 14.113281 L 13.152344 14.351562 L 8.636719 14.351562 L 8.214844 15.007812 L 8.261719 14.941406 L 13.167969 14.941406 L 13.167969 15.339844 L 8.011719 15.339844 L 7.808594 15.664062 L 7.980469 15.824219 L 8.644531 16.4375 L 13.152344 16.4375 L 13.152344 16.675781 C 13.152344 17.164062 13.546875 17.558594 14.035156 17.5625 L 16.597656 17.5625 C 17.089844 17.558594 17.484375 17.164062 17.484375 16.675781 L 17.484375 14.113281 C 17.484375 13.625 17.085938 13.230469 16.597656 13.230469 Z M 16.660156 15.882812 C 16.660156 16.140625 16.449219 16.347656 16.191406 16.347656 C 16.125 16.347656 16.0625 16.335938 16.003906 16.308594 C 15.835938 16.234375 15.722656 16.066406 15.722656 15.882812 L 15.722656 14.910156 C 15.726562 14.734375 15.824219 14.574219 15.984375 14.496094 C 16.046875 14.460938 16.117188 14.445312 16.191406 14.441406 C 16.449219 14.441406 16.660156 14.652344 16.660156 14.910156 Z M 16.660156 15.882812 "/>
<path style=" stroke:none;fill-rule:nonzero;fill:rgb(100%,100%,100%);fill-opacity:1;" d="M 7.984375 15.339844 L 8.003906 15.339844 L 8.214844 15.007812 Z M 7.984375 15.339844 "/>
</g>
</svg>
