
<svg xmlns="http://www.w3.org/2000/svg" xmlns:xlink="http://www.w3.org/1999/xlink" width="22px" height="22px" viewBox="0 0 22 22" version="1.1">
<g id="surface1">
<path style=" stroke:none;fill-rule:nonzero;fill:rgb(36.078431%,41.960784%,75.294118%);fill-opacity:1;" d="M 1.851562 0 L 20.148438 0 C 21.171875 0 22 0.828125 22 1.851562 L 22 20.148438 C 22 21.171875 21.171875 22 20.148438 22 L 1.851562 22 C 0.828125 22 0 21.171875 0 20.148438 L 0 1.851562 C 0 0.828125 0.828125 0 1.851562 0 Z M 1.851562 0 "/>
<path style=" stroke:none;fill-rule:nonzero;fill:rgb(100%,100%,100%);fill-opacity:1;" d="M 17.984375 8.683594 L 4.015625 8.683594 L 6.164062 6.125 C 6.265625 6.003906 6.414062 5.9375 6.574219 5.9375 L 15.425781 5.9375 C 15.585938 5.9375 15.734375 6.003906 15.835938 6.125 Z M 17.984375 8.683594 "/>
<path style=" stroke:none;fill-rule:nonzero;fill:rgb(89.803922%,89.803922%,89.803922%);fill-opacity:1;" d="M 4.015625 8.683594 L 17.984375 8.683594 L 17.984375 14.335938 C 17.984375 14.628906 17.746094 14.867188 17.453125 14.867188 L 4.546875 14.867188 C 4.253906 14.867188 4.015625 14.628906 4.015625 14.335938 Z M 4.015625 8.683594 "/>
<path style=" stroke:none;fill-rule:nonzero;fill:rgb(16.078431%,71.372549%,96.470588%);fill-opacity:1;" d="M 16.425781 17.640625 L 5.574219 17.640625 C 5.425781 17.640625 5.285156 17.566406 5.199219 17.445312 C 5.109375 17.320312 5.085938 17.164062 5.136719 17.023438 L 6.6875 12.578125 L 15.3125 12.578125 L 16.863281 17.023438 C 16.914062 17.164062 16.894531 17.324219 16.804688 17.445312 C 16.71875 17.570312 16.574219 17.640625 16.425781 17.640625 Z M 16.425781 17.640625 "/>
<path style=" stroke:none;fill-rule:nonzero;fill:rgb(16.078431%,71.372549%,96.470588%);fill-opacity:1;" d="M 6.6875 5.9375 L 15.3125 5.9375 L 15.3125 9.703125 L 6.6875 9.703125 Z M 6.6875 5.9375 "/>
<path style=" stroke:none;fill-rule:nonzero;fill:rgb(100%,100%,100%);fill-opacity:1;" d="M 15.570312 16.519531 L 6.429688 16.519531 L 7.296875 13.214844 L 14.703125 13.214844 Z M 15.570312 16.519531 "/>
<path style=" stroke:none;fill-rule:nonzero;fill:rgb(79.607843%,79.607843%,79.607843%);fill-opacity:1;" d="M 4.015625 10.976562 L 17.984375 10.976562 L 17.984375 11.589844 L 4.015625 11.589844 Z M 4.015625 10.976562 "/>
<path style=" stroke:none;fill-rule:nonzero;fill:rgb(92.54902%,25.098039%,47.843137%);fill-opacity:1;" d="M 8.308594 13.777344 L 13.695312 13.777344 C 13.878906 13.777344 14.03125 13.929688 14.03125 14.113281 C 14.03125 14.300781 13.878906 14.449219 13.695312 14.449219 L 8.308594 14.449219 C 8.121094 14.449219 7.972656 14.300781 7.972656 14.113281 C 7.972656 13.929688 8.121094 13.777344 8.308594 13.777344 Z M 8.308594 13.777344 "/>
<path style=" stroke:none;fill-rule:nonzero;fill:rgb(92.54902%,25.098039%,47.843137%);fill-opacity:1;" d="M 7.882812 14.964844 L 14.121094 14.964844 C 14.308594 14.964844 14.457031 15.117188 14.457031 15.304688 C 14.457031 15.492188 14.308594 15.640625 14.121094 15.640625 L 7.882812 15.640625 C 7.695312 15.640625 7.546875 15.492188 7.546875 15.304688 C 7.546875 15.117188 7.695312 14.964844 7.882812 14.964844 Z M 7.882812 14.964844 "/>
<path style=" stroke:none;fill-rule:nonzero;fill:rgb(92.54902%,25.098039%,47.843137%);fill-opacity:1;" d="M 17.078125 9.855469 C 17.078125 10.117188 16.867188 10.324219 16.605469 10.324219 C 16.347656 10.324219 16.136719 10.117188 16.136719 9.855469 C 16.136719 9.59375 16.347656 9.382812 16.605469 9.382812 C 16.867188 9.382812 17.078125 9.59375 17.078125 9.855469 Z M 17.078125 9.855469 "/>
<path style=" stroke:none;fill-rule:nonzero;fill:rgb(100%,100%,100%);fill-opacity:1;" d="M 13.160156 4.359375 L 7.296875 4.359375 L 7.296875 7.679688 L 14.703125 7.679688 L 14.703125 5.773438 Z M 13.160156 4.359375 "/>
<path style=" stroke:none;fill-rule:nonzero;fill:rgb(79.607843%,79.607843%,79.607843%);fill-opacity:1;" d="M 13.160156 5.773438 L 14.703125 5.773438 L 13.160156 4.359375 Z M 13.160156 5.773438 "/>
</g>
</svg>
