
<svg xmlns="http://www.w3.org/2000/svg" xmlns:xlink="http://www.w3.org/1999/xlink" width="22px" height="22px" viewBox="0 0 22 22" version="1.1">
<g id="surface1">
<path style=" stroke:none;fill-rule:nonzero;fill:rgb(49.411765%,34.117647%,76.862745%);fill-opacity:1;" d="M 1.851562 0 L 20.148438 0 C 21.171875 0 22 0.828125 22 1.851562 L 22 20.148438 C 22 21.171875 21.171875 22 20.148438 22 L 1.851562 22 C 0.828125 22 0 21.171875 0 20.148438 L 0 1.851562 C 0 0.828125 0.828125 0 1.851562 0 Z M 1.851562 0 "/>
<path style=" stroke:none;fill-rule:nonzero;fill:rgb(92.54902%,25.098039%,47.843137%);fill-opacity:1;" d="M 12.335938 9.242188 C 13.019531 8.796875 13.4375 8.035156 13.441406 7.21875 L 13.441406 6.445312 C 13.4375 5.097656 12.347656 4.007812 11 4.003906 C 9.652344 4.007812 8.5625 5.097656 8.558594 6.445312 L 8.558594 7.21875 C 8.5625 8.039062 8.976562 8.804688 9.664062 9.253906 L 9.664062 9.828125 C 9.664062 10.125 9.503906 10.398438 9.242188 10.546875 L 7.113281 11.75 C 6.207031 12.257812 5.648438 13.21875 5.648438 14.253906 L 5.648438 15.351562 L 9.003906 15.351562 L 11 13.976562 L 11.6875 14.070312 L 13.0625 15.339844 L 16.371094 15.339844 L 16.371094 14.246094 C 16.371094 13.207031 15.808594 12.25 14.90625 11.738281 L 12.773438 10.535156 C 12.515625 10.390625 12.355469 10.113281 12.355469 9.816406 L 12.355469 9.242188 "/>
<path style=" stroke:none;fill-rule:nonzero;fill:rgb(100%,100%,100%);fill-opacity:1;" d="M 13.109375 13.5 L 12.992188 13.5 L 12.992188 12.355469 C 12.992188 11.632812 12.410156 11.046875 11.6875 11.042969 L 10.402344 11.042969 C 9.679688 11.046875 9.097656 11.632812 9.097656 12.355469 L 9.097656 13.5 L 8.890625 13.5 C 8.742188 13.5 8.601562 13.558594 8.5 13.660156 C 8.394531 13.765625 8.339844 13.90625 8.339844 14.050781 L 8.339844 17.445312 C 8.339844 17.589844 8.394531 17.730469 8.5 17.835938 C 8.601562 17.9375 8.742188 17.996094 8.890625 17.996094 L 13.109375 17.996094 C 13.414062 17.996094 13.660156 17.75 13.660156 17.445312 L 13.660156 14.050781 C 13.660156 13.75 13.414062 13.5 13.109375 13.5 Z M 11.265625 15.71875 L 11.265625 16.84375 C 11.265625 16.988281 11.144531 17.109375 11 17.109375 C 10.855469 17.109375 10.734375 16.988281 10.734375 16.84375 L 10.734375 15.71875 C 10.421875 15.59375 10.242188 15.261719 10.308594 14.929688 C 10.371094 14.601562 10.664062 14.363281 11 14.363281 C 11.335938 14.363281 11.628906 14.601562 11.691406 14.929688 C 11.757812 15.261719 11.578125 15.59375 11.265625 15.71875 Z M 12.296875 13.5 L 9.785156 13.5 L 9.785156 12.355469 C 9.785156 12.011719 10.058594 11.734375 10.402344 11.734375 L 11.6875 11.734375 C 12.03125 11.734375 12.304688 12.011719 12.304688 12.355469 Z M 12.296875 13.5 "/>
</g>
</svg>
