
<svg xmlns="http://www.w3.org/2000/svg" xmlns:xlink="http://www.w3.org/1999/xlink" width="22px" height="22px" viewBox="0 0 22 22" version="1.1">
<g id="surface1">
<path style=" stroke:none;fill-rule:nonzero;fill:rgb(92.54902%,25.098039%,47.843137%);fill-opacity:1;" d="M 1.851562 0 L 20.148438 0 C 21.171875 0 22 0.828125 22 1.851562 L 22 20.148438 C 22 21.171875 21.171875 22 20.148438 22 L 1.851562 22 C 0.828125 22 0 21.171875 0 20.148438 L 0 1.851562 C 0 0.828125 0.828125 0 1.851562 0 Z M 1.851562 0 "/>
<path style=" stroke:none;fill-rule:nonzero;fill:rgb(100%,100%,100%);fill-opacity:1;" d="M 11.058594 4.136719 L 7.648438 5.96875 L 11.058594 7.796875 L 14.46875 5.96875 Z M 11.058594 4.136719 "/>
<path style=" stroke:none;fill-rule:nonzero;fill:rgb(79.607843%,79.607843%,79.607843%);fill-opacity:1;" d="M 11.058594 11.441406 L 7.648438 9.613281 L 7.648438 5.96875 L 11.058594 7.796875 Z M 11.058594 11.441406 "/>
<path style=" stroke:none;fill-rule:nonzero;fill:rgb(16.078431%,71.372549%,96.470588%);fill-opacity:1;" d="M 11.058594 7.796875 L 14.46875 5.96875 L 14.46875 9.613281 L 11.058594 11.441406 Z M 11.058594 7.796875 "/>
<path style=" stroke:none;fill-rule:nonzero;fill:rgb(100%,100%,100%);fill-opacity:1;" d="M 7.601562 10.558594 L 4.191406 12.386719 L 7.601562 14.214844 L 11.011719 12.386719 Z M 7.601562 10.558594 "/>
<path style=" stroke:none;fill-rule:nonzero;fill:rgb(79.607843%,79.607843%,79.607843%);fill-opacity:1;" d="M 7.601562 17.859375 L 4.191406 16.03125 L 4.191406 12.386719 L 7.601562 14.214844 Z M 7.601562 17.859375 "/>
<path style=" stroke:none;fill-rule:nonzero;fill:rgb(16.078431%,71.372549%,96.470588%);fill-opacity:1;" d="M 7.601562 14.214844 L 11.011719 12.386719 L 11.011719 16.03125 L 7.601562 17.859375 Z M 7.601562 14.214844 "/>
<path style=" stroke:none;fill-rule:nonzero;fill:rgb(100%,100%,100%);fill-opacity:1;" d="M 14.398438 10.558594 L 10.988281 12.386719 L 14.398438 14.214844 L 17.808594 12.386719 Z M 14.398438 10.558594 "/>
<path style=" stroke:none;fill-rule:nonzero;fill:rgb(79.607843%,79.607843%,79.607843%);fill-opacity:1;" d="M 14.398438 17.859375 L 10.988281 16.03125 L 10.988281 12.386719 L 14.398438 14.214844 Z M 14.398438 17.859375 "/>
<path style=" stroke:none;fill-rule:nonzero;fill:rgb(16.078431%,71.372549%,96.470588%);fill-opacity:1;" d="M 14.398438 14.214844 L 17.808594 12.386719 L 17.808594 16.03125 L 14.398438 17.859375 Z M 14.398438 14.214844 "/>
</g>
</svg>
