
<svg xmlns="http://www.w3.org/2000/svg" xmlns:xlink="http://www.w3.org/1999/xlink" width="22px" height="22px" viewBox="0 0 22 22" version="1.1">
<g id="surface1">
<path style=" stroke:none;fill-rule:nonzero;fill:rgb(49.411765%,34.117647%,76.862745%);fill-opacity:1;" d="M 1.851562 0 L 20.148438 0 C 21.171875 0 22 0.828125 22 1.851562 L 22 20.148438 C 22 21.171875 21.171875 22 20.148438 22 L 1.851562 22 C 0.828125 22 0 21.171875 0 20.148438 L 0 1.851562 C 0 0.828125 0.828125 0 1.851562 0 Z M 1.851562 0 "/>
<path style=" stroke:none;fill-rule:nonzero;fill:rgb(100%,100%,100%);fill-opacity:1;" d="M 12.179688 6.421875 C 12.179688 7.074219 11.652344 7.601562 11 7.601562 C 10.347656 7.601562 9.820312 7.074219 9.820312 6.421875 C 9.820312 5.769531 10.347656 5.242188 11 5.242188 C 11.652344 5.242188 12.179688 5.769531 12.179688 6.421875 Z M 12.179688 6.421875 "/>
<path style=" stroke:none;fill-rule:nonzero;fill:rgb(100%,100%,100%);fill-opacity:1;" d="M 12.625 9.414062 L 15.691406 8.097656 C 15.847656 8.039062 15.96875 7.917969 16.035156 7.765625 C 16.101562 7.613281 16.101562 7.441406 16.035156 7.289062 C 15.902344 6.972656 15.539062 6.828125 15.222656 6.960938 L 12.714844 8.035156 C 12.179688 8.265625 11.601562 8.382812 11.015625 8.378906 C 10.433594 8.382812 9.855469 8.265625 9.320312 8.035156 L 6.808594 6.960938 C 6.496094 6.828125 6.132812 6.972656 6 7.289062 C 5.933594 7.441406 5.933594 7.613281 6 7.765625 C 6.0625 7.917969 6.1875 8.039062 6.34375 8.097656 L 9.28125 9.378906 C 9.457031 9.453125 9.570312 9.625 9.570312 9.816406 L 9.464844 11.976562 C 9.460938 12.054688 9.4375 12.132812 9.398438 12.203125 L 7.28125 15.8125 C 7.207031 15.933594 7.183594 16.082031 7.21875 16.21875 C 7.257812 16.359375 7.347656 16.476562 7.472656 16.542969 L 7.746094 16.695312 C 8.019531 16.835938 8.351562 16.734375 8.5 16.46875 L 10.476562 12.984375 C 10.570312 12.820312 10.75 12.71875 10.9375 12.71875 C 11.128906 12.714844 11.304688 12.816406 11.398438 12.980469 L 13.371094 16.46875 C 13.519531 16.738281 13.855469 16.835938 14.125 16.695312 L 14.398438 16.542969 C 14.523438 16.476562 14.613281 16.359375 14.652344 16.21875 C 14.6875 16.082031 14.667969 15.933594 14.59375 15.8125 L 12.503906 12.257812 C 12.464844 12.191406 12.441406 12.109375 12.441406 12.03125 L 12.332031 9.851562 C 12.335938 9.660156 12.449219 9.488281 12.625 9.414062 Z M 12.625 9.414062 "/>
</g>
</svg>
