
<svg xmlns="http://www.w3.org/2000/svg" xmlns:xlink="http://www.w3.org/1999/xlink" width="22px" height="22px" viewBox="0 0 22 22" version="1.1">
<g id="surface1">
<path style=" stroke:none;fill-rule:nonzero;fill:rgb(49.411765%,34.117647%,76.862745%);fill-opacity:1;" d="M 1.851562 0 L 20.148438 0 C 21.171875 0 22 0.828125 22 1.851562 L 22 20.148438 C 22 21.171875 21.171875 22 20.148438 22 L 1.851562 22 C 0.828125 22 0 21.171875 0 20.148438 L 0 1.851562 C 0 0.828125 0.828125 0 1.851562 0 Z M 1.851562 0 "/>
<path style=" stroke:none;fill-rule:nonzero;fill:rgb(100%,100%,100%);fill-opacity:1;" d="M 12.335938 10.570312 C 13.023438 10.121094 13.441406 9.355469 13.441406 8.53125 L 13.441406 7.773438 C 13.4375 6.425781 12.347656 5.332031 11 5.332031 C 9.652344 5.332031 8.5625 6.425781 8.558594 7.773438 L 8.558594 8.535156 C 8.5625 9.355469 8.976562 10.121094 9.664062 10.570312 L 9.664062 11.144531 C 9.664062 11.441406 9.503906 11.714844 9.242188 11.863281 L 7.113281 13.0625 C 6.207031 13.574219 5.648438 14.53125 5.648438 15.566406 L 5.648438 16.664062 L 16.351562 16.664062 L 16.351562 15.570312 C 16.351562 14.53125 15.792969 13.574219 14.886719 13.0625 L 12.757812 11.859375 C 12.496094 11.710938 12.339844 11.4375 12.335938 11.140625 L 12.335938 10.570312 "/>
</g>
</svg>
