
<svg xmlns="http://www.w3.org/2000/svg" xmlns:xlink="http://www.w3.org/1999/xlink" width="22px" height="22px" viewBox="0 0 22 22" version="1.1">
<g id="surface1">
<path style=" stroke:none;fill-rule:nonzero;fill:rgb(36.078431%,41.960784%,75.294118%);fill-opacity:1;" d="M 1.851562 0 L 20.148438 0 C 21.171875 0 22 0.828125 22 1.851562 L 22 20.148438 C 22 21.171875 21.171875 22 20.148438 22 L 1.851562 22 C 0.828125 22 0 21.171875 0 20.148438 L 0 1.851562 C 0 0.828125 0.828125 0 1.851562 0 Z M 1.851562 0 "/>
<path style=" stroke:none;fill-rule:nonzero;fill:rgb(16.078431%,71.372549%,96.470588%);fill-opacity:1;" d="M 15.015625 16.5 L 15.015625 11.285156 C 15.015625 10.90625 14.707031 10.597656 14.328125 10.597656 L 7.6875 10.597656 C 7.5 10.59375 7.320312 10.664062 7.1875 10.792969 C 7.054688 10.921875 6.980469 11.101562 6.980469 11.285156 L 6.980469 16.5 Z M 15.015625 16.5 "/>
<path style=" stroke:none;fill-rule:nonzero;fill:rgb(100%,100%,100%);fill-opacity:1;" d="M 16.71875 6.875 L 15.125 5.28125 C 14.976562 5.136719 14.78125 5.054688 14.574219 5.054688 L 6.46875 5.054688 C 5.6875 5.054688 5.054688 5.6875 5.054688 6.46875 L 5.054688 15.53125 C 5.054688 16.3125 5.6875 16.945312 6.46875 16.945312 L 15.53125 16.945312 C 16.3125 16.945312 16.945312 16.3125 16.945312 15.53125 L 16.945312 7.433594 C 16.949219 7.226562 16.867188 7.023438 16.71875 6.875 Z M 13.550781 6.679688 L 13.550781 7.785156 C 13.550781 8 13.378906 8.171875 13.164062 8.171875 C 12.953125 8.171875 12.78125 8 12.78125 7.785156 L 12.78125 6.6875 C 12.78125 6.476562 12.953125 6.304688 13.164062 6.304688 C 13.378906 6.304688 13.550781 6.476562 13.550781 6.6875 Z M 6.980469 16.304688 L 6.46875 16.304688 C 6.03125 16.304688 5.679688 15.949219 5.679688 15.511719 L 5.679688 6.46875 C 5.679688 6.03125 6.03125 5.679688 6.46875 5.679688 L 7.664062 5.679688 L 7.664062 8.25 C 7.664062 8.433594 7.738281 8.613281 7.871094 8.742188 C 8.003906 8.871094 8.179688 8.941406 8.367188 8.9375 L 13.632812 8.9375 C 14.015625 8.9375 14.328125 8.632812 14.335938 8.25 L 14.335938 5.679688 L 14.566406 5.679688 C 14.605469 5.679688 14.640625 5.695312 14.671875 5.722656 L 16.277344 7.328125 C 16.304688 7.355469 16.320312 7.394531 16.320312 7.433594 L 16.320312 15.53125 C 16.320312 15.96875 15.96875 16.320312 15.53125 16.320312 L 6.980469 16.320312 Z M 6.980469 16.304688 "/>
<path style=" stroke:none;fill-rule:nonzero;fill:rgb(100%,100%,100%);fill-opacity:1;" d="M 8.402344 11.9375 L 13.59375 11.9375 L 13.59375 12.335938 L 8.402344 12.335938 Z M 8.402344 11.9375 "/>
<path style=" stroke:none;fill-rule:nonzero;fill:rgb(100%,100%,100%);fill-opacity:1;" d="M 8.402344 13.460938 L 13.59375 13.460938 L 13.59375 13.859375 L 8.402344 13.859375 Z M 8.402344 13.460938 "/>
<path style=" stroke:none;fill-rule:nonzero;fill:rgb(100%,100%,100%);fill-opacity:1;" d="M 8.402344 14.984375 L 13.59375 14.984375 L 13.59375 15.382812 L 8.402344 15.382812 Z M 8.402344 14.984375 "/>
</g>
</svg>
