
<svg xmlns="http://www.w3.org/2000/svg" xmlns:xlink="http://www.w3.org/1999/xlink" width="22px" height="22px" viewBox="0 0 22 22" version="1.1">
<g id="surface1">
<path style=" stroke:none;fill-rule:nonzero;fill:rgb(100%,100%,100%);fill-opacity:1;" d="M 17.800781 22 L 4.199219 22 C 1.878906 22 0 20.121094 0 17.800781 L 0 4.199219 C 0 1.878906 1.878906 0 4.199219 0 L 17.800781 0 C 20.121094 0 22 1.878906 22 4.199219 L 22 17.800781 C 22 20.121094 20.121094 22 17.800781 22 Z M 4.199219 2.40625 C 3.210938 2.410156 2.410156 3.210938 2.40625 4.199219 L 2.40625 17.800781 C 2.410156 18.789062 3.210938 19.589844 4.199219 19.59375 L 17.800781 19.59375 C 18.789062 19.589844 19.589844 18.789062 19.59375 17.800781 L 19.59375 4.199219 C 19.589844 3.210938 18.789062 2.410156 17.800781 2.40625 Z M 4.199219 2.40625 "/>
<path style=" stroke:none;fill-rule:nonzero;fill:rgb(100%,100%,100%);fill-opacity:1;" d="M 4.671875 9.882812 L 3.613281 8.425781 L 6.203125 6.53125 L 3.613281 4.652344 L 4.671875 3.210938 L 8.25 5.816406 C 8.480469 5.988281 8.617188 6.257812 8.617188 6.546875 C 8.617188 6.832031 8.480469 7.101562 8.25 7.273438 Z M 4.671875 9.882812 "/>
<path style=" stroke:none;fill-rule:nonzero;fill:rgb(100%,100%,100%);fill-opacity:1;" d="M 8.054688 8.054688 L 13.125 8.054688 L 13.125 9.859375 L 8.054688 9.859375 Z M 8.054688 8.054688 "/>
</g>
</svg>
