
<svg xmlns="http://www.w3.org/2000/svg" xmlns:xlink="http://www.w3.org/1999/xlink" width="22px" height="22px" viewBox="0 0 22 22" version="1.1">
<g id="surface1">
<path style=" stroke:none;fill-rule:nonzero;fill:rgb(100%,100%,100%);fill-opacity:1;" d="M 11.535156 22 L 10.65625 22 C 9.324219 21.628906 8.472656 20.828125 8.359375 19.390625 C 8.332031 19.046875 8.253906 18.746094 7.894531 18.609375 C 7.539062 18.472656 7.289062 18.652344 7.027344 18.882812 C 5.949219 19.871094 4.28125 19.832031 3.253906 18.789062 C 2.230469 17.75 2.210938 16.082031 3.214844 15.019531 C 3.429688 14.769531 3.609375 14.535156 3.457031 14.191406 C 3.308594 13.847656 2.996094 13.792969 2.652344 13.785156 C 1.511719 13.761719 0.507812 13.019531 0.152344 11.9375 C 0.101562 11.804688 0.0507812 11.6875 0 11.535156 L 0 10.65625 C 0.375 9.300781 1.195312 8.453125 2.65625 8.355469 C 2.972656 8.382812 3.265625 8.199219 3.386719 7.90625 C 3.488281 7.605469 3.394531 7.277344 3.152344 7.074219 C 2.09375 6.007812 2.097656 4.289062 3.164062 3.230469 C 4.230469 2.171875 5.949219 2.175781 7.007812 3.242188 C 7.230469 3.5 7.597656 3.582031 7.90625 3.4375 C 8.25 3.285156 8.292969 2.996094 8.308594 2.675781 C 8.3125 1.433594 9.175781 0.355469 10.390625 0.0820312 C 10.449219 0.0585938 10.507812 0.03125 10.558594 0 L 11.441406 0 C 11.476562 0.03125 11.515625 0.0546875 11.558594 0.0742188 C 12.90625 0.441406 13.589844 1.285156 13.726562 2.679688 C 13.75 2.960938 13.90625 3.214844 14.140625 3.367188 C 14.414062 3.414062 14.695312 3.339844 14.910156 3.160156 C 16.09375 2.179688 17.660156 2.191406 18.710938 3.222656 C 19.730469 4.265625 19.75 5.929688 18.761719 7.003906 C 18.507812 7.222656 18.429688 7.578125 18.5625 7.886719 C 18.707031 8.230469 18.996094 8.289062 19.320312 8.292969 C 19.980469 8.25 20.625 8.511719 21.074219 9 C 21.425781 9.492188 21.738281 10.015625 22 10.558594 L 22 11.441406 C 21.582031 12.847656 20.710938 13.6875 19.171875 13.738281 C 18.9375 13.773438 18.734375 13.921875 18.636719 14.136719 C 18.605469 14.410156 18.683594 14.6875 18.851562 14.910156 C 19.828125 16.089844 19.816406 17.679688 18.785156 18.71875 C 17.726562 19.730469 16.0625 19.753906 14.972656 18.777344 C 14.765625 18.59375 14.488281 18.519531 14.21875 18.570312 C 13.984375 18.742188 13.835938 19.007812 13.808594 19.296875 C 13.75 19.984375 13.59375 20.625 13.089844 21.0625 C 12.601562 21.421875 12.082031 21.734375 11.535156 22 Z M 11.046875 20.230469 C 11.3125 20.238281 11.566406 20.140625 11.753906 19.953125 C 11.9375 19.765625 12.039062 19.511719 12.03125 19.25 C 12.054688 18.195312 12.496094 17.386719 13.472656 16.953125 C 14.378906 16.519531 15.460938 16.714844 16.15625 17.4375 C 16.535156 17.808594 17.144531 17.800781 17.511719 17.417969 C 17.882812 17.039062 17.875 16.433594 17.492188 16.0625 C 16.785156 15.371094 16.589844 14.308594 17 13.40625 C 17.398438 12.449219 18.171875 12.011719 19.175781 11.9375 C 19.839844 11.894531 20.242188 11.519531 20.230469 10.96875 C 20.214844 10.417969 19.8125 10.074219 19.136719 10.042969 C 18.175781 10.058594 17.304688 9.488281 16.941406 8.601562 C 16.503906 7.691406 16.683594 6.605469 17.390625 5.882812 C 17.835938 5.390625 17.851562 4.851562 17.453125 4.449219 C 17.054688 4.046875 16.527344 4.105469 16.058594 4.511719 C 15.367188 5.199219 14.324219 5.394531 13.433594 4.996094 C 12.457031 4.597656 12.011719 3.8125 11.949219 2.785156 C 11.910156 2.160156 11.535156 1.753906 11 1.753906 C 10.734375 1.757812 10.484375 1.871094 10.304688 2.066406 C 10.125 2.261719 10.035156 2.519531 10.054688 2.785156 C 10.015625 3.816406 9.589844 4.628906 8.628906 5.039062 C 7.707031 5.488281 6.605469 5.304688 5.878906 4.582031 C 5.511719 4.203125 4.902344 4.191406 4.523438 4.5625 C 4.144531 4.929688 4.136719 5.535156 4.503906 5.917969 C 5.214844 6.617188 5.414062 7.683594 5 8.59375 C 4.664062 9.507812 3.792969 10.117188 2.816406 10.117188 C 2.636719 10.117188 2.457031 10.15625 2.296875 10.234375 C 1.910156 10.410156 1.699219 10.832031 1.785156 11.246094 C 1.863281 11.722656 2.289062 12.0625 2.769531 12.03125 C 3.824219 12.054688 4.632812 12.496094 5.0625 13.476562 C 5.492188 14.382812 5.292969 15.464844 4.5625 16.15625 C 4.449219 16.273438 4.363281 16.414062 4.3125 16.570312 C 4.171875 16.96875 4.324219 17.414062 4.683594 17.640625 C 5.058594 17.902344 5.570312 17.847656 5.886719 17.519531 C 6.488281 16.894531 7.378906 16.644531 8.21875 16.863281 C 9.296875 17.089844 10.078125 18.027344 10.105469 19.125 C 10.167969 19.824219 10.503906 20.214844 11.046875 20.230469 Z M 11.046875 20.230469 "/>
<path style=" stroke:none;fill-rule:nonzero;fill:rgb(100%,100%,100%);fill-opacity:1;" d="M 11 14.648438 C 8.984375 14.648438 7.351562 13.015625 7.351562 11 C 7.351562 8.984375 8.984375 7.351562 11 7.351562 C 13.015625 7.351562 14.648438 8.984375 14.648438 11 C 14.632812 13.007812 13.007812 14.632812 11 14.648438 Z M 12.878906 11 C 12.878906 10.238281 12.414062 9.550781 11.707031 9.265625 C 11 8.976562 10.191406 9.144531 9.65625 9.6875 C 9.125 10.234375 8.972656 11.046875 9.269531 11.746094 C 9.570312 12.449219 10.265625 12.898438 11.027344 12.886719 C 12.050781 12.855469 12.867188 12.023438 12.878906 11 Z M 12.878906 11 "/>
</g>
</svg>
