
<svg xmlns="http://www.w3.org/2000/svg" xmlns:xlink="http://www.w3.org/1999/xlink" width="22px" height="22px" viewBox="0 0 22 22" version="1.1">
<g id="surface1">
<path style=" stroke:none;fill-rule:nonzero;fill:rgb(37.647059%,41.960784%,50.980392%);fill-opacity:1;" d="M 20.851562 19.699219 L 18.90625 19.699219 L 18.90625 5.34375 C 18.90625 4.53125 18.25 3.882812 17.445312 3.882812 L 17.144531 3.882812 C 16.757812 3.882812 16.382812 4.035156 16.113281 4.308594 C 15.839844 4.582031 15.683594 4.953125 15.683594 5.34375 L 15.683594 19.699219 L 13.75 19.699219 L 13.75 10.230469 C 13.75 9.425781 13.101562 8.769531 12.292969 8.769531 L 11.988281 8.769531 C 11.183594 8.769531 10.527344 9.425781 10.527344 10.230469 L 10.527344 19.699219 L 8.59375 19.699219 L 8.59375 14.253906 C 8.59375 13.867188 8.4375 13.496094 8.164062 13.222656 C 7.890625 12.949219 7.519531 12.800781 7.132812 12.800781 L 6.832031 12.800781 C 6.027344 12.800781 5.371094 13.449219 5.371094 14.253906 L 5.371094 19.699219 L 2.804688 19.699219 C 2.523438 19.699219 2.296875 19.476562 2.296875 19.195312 L 2.296875 1.148438 C 2.320312 0.726562 2.109375 0.320312 1.746094 0.101562 C 1.378906 -0.117188 0.925781 -0.117188 0.558594 0.101562 C 0.1875 0.320312 -0.0234375 0.726562 0 1.148438 L 0 19.195312 C 0 20.742188 1.257812 22 2.804688 22 L 20.851562 22 C 21.273438 22.023438 21.679688 21.8125 21.898438 21.441406 C 22.117188 21.074219 22.117188 20.621094 21.898438 20.253906 C 21.679688 19.890625 21.273438 19.679688 20.851562 19.699219 Z M 20.851562 19.699219 "/>
</g>
</svg>
