
<svg xmlns="http://www.w3.org/2000/svg" xmlns:xlink="http://www.w3.org/1999/xlink" width="22px" height="22px" viewBox="0 0 22 22" version="1.1">
<g id="surface1">
<path style=" stroke:none;fill-rule:nonzero;fill:rgb(37.647059%,41.960784%,50.980392%);fill-opacity:1;" d="M 21.355469 18.804688 L 21.355469 4.265625 C 21.351562 1.914062 19.449219 0.00390625 17.097656 0 L 9.75 0 C 7.402344 0.0117188 5.5 1.914062 5.5 4.265625 L 5.5 13.292969 C 5.027344 13.101562 4.523438 13.003906 4.011719 13.003906 C 2.144531 13.003906 0.625 14.265625 0.625 15.824219 C 0.625 17.378906 2.144531 18.644531 4.011719 18.644531 C 5.882812 18.644531 7.394531 17.378906 7.394531 15.824219 C 7.394531 15.78125 7.394531 15.738281 7.394531 15.695312 L 7.417969 15.695312 L 7.417969 5.96875 C 7.417969 5.007812 8.203125 4.226562 9.164062 4.226562 L 17.703125 4.226562 C 18.664062 4.234375 19.4375 5.007812 19.441406 5.96875 L 19.441406 16.625 C 18.980469 16.445312 18.492188 16.351562 18.003906 16.351562 C 16.132812 16.351562 14.621094 17.613281 14.621094 19.167969 C 14.621094 20.726562 16.132812 22 18.003906 22 C 19.875 22 21.386719 20.738281 21.386719 19.179688 C 21.386719 19.050781 21.375 18.929688 21.355469 18.804688 Z M 21.355469 18.804688 "/>
<path style=" stroke:none;fill-rule:nonzero;fill:rgb(37.647059%,41.960784%,50.980392%);fill-opacity:1;" d="M 16.804688 9.667969 L 10.832031 6.230469 C 10.652344 6.128906 10.425781 6.128906 10.242188 6.230469 C 10.058594 6.335938 9.945312 6.53125 9.945312 6.742188 L 9.945312 13.632812 C 9.945312 13.839844 10.058594 14.035156 10.242188 14.136719 C 10.425781 14.242188 10.652344 14.242188 10.832031 14.140625 L 16.804688 10.703125 C 16.992188 10.601562 17.113281 10.402344 17.113281 10.1875 C 17.113281 9.96875 16.992188 9.769531 16.804688 9.667969 Z M 16.804688 9.667969 "/>
</g>
</svg>
