
<svg xmlns="http://www.w3.org/2000/svg" xmlns:xlink="http://www.w3.org/1999/xlink" width="22px" height="22px" viewBox="0 0 22 22" version="1.1">
<g id="surface1">
<path style=" stroke:none;fill-rule:nonzero;fill:rgb(37.647059%,41.960784%,50.980392%);fill-opacity:1;" d="M 11.042969 7.367188 C 10.339844 7.359375 9.703125 7.777344 9.429688 8.425781 C 9.15625 9.074219 9.296875 9.824219 9.792969 10.324219 C 10.289062 10.824219 11.035156 10.976562 11.6875 10.707031 C 12.339844 10.441406 12.761719 9.804688 12.761719 9.101562 C 12.757812 8.152344 11.992188 7.382812 11.042969 7.367188 Z M 11.042969 7.367188 "/>
<path style=" stroke:none;fill-rule:nonzero;fill:rgb(37.647059%,41.960784%,50.980392%);fill-opacity:1;" d="M 19.890625 1.355469 L 2.109375 1.355469 C 1.550781 1.355469 1.011719 1.578125 0.617188 1.972656 C 0.222656 2.371094 0 2.90625 0 3.46875 L 0 14.125 C 0 15.289062 0.945312 16.234375 2.109375 16.234375 L 7.21875 16.234375 C 7.796875 16.253906 8.253906 16.726562 8.25 17.304688 L 8.25 17.460938 C 8.25 18.039062 7.792969 18.507812 7.21875 18.523438 L 5.382812 18.523438 C 4.820312 18.558594 4.382812 19.023438 4.382812 19.585938 C 4.382812 20.148438 4.820312 20.613281 5.382812 20.644531 L 16.617188 20.644531 C 17.179688 20.613281 17.617188 20.148438 17.617188 19.585938 C 17.617188 19.023438 17.179688 18.558594 16.617188 18.523438 L 14.796875 18.523438 C 14.21875 18.515625 13.75 18.042969 13.75 17.460938 L 13.75 17.304688 C 13.75 16.71875 14.226562 16.246094 14.8125 16.246094 L 19.890625 16.246094 C 21.054688 16.246094 22 15.300781 22 14.136719 L 22 3.480469 C 22.003906 2.917969 21.78125 2.375 21.386719 1.976562 C 20.992188 1.578125 20.453125 1.355469 19.890625 1.355469 Z M 15.835938 9.660156 C 15.273438 9.675781 14.773438 10.023438 14.5625 10.542969 C 14.347656 11.0625 14.460938 11.660156 14.851562 12.066406 C 14.960938 12.171875 15.027344 12.320312 15.027344 12.476562 C 15.027344 12.628906 14.960938 12.777344 14.851562 12.882812 C 14.742188 12.988281 14.597656 13.042969 14.445312 13.039062 C 14.296875 13.035156 14.15625 12.972656 14.050781 12.863281 C 13.644531 12.433594 13.003906 12.316406 12.46875 12.570312 C 11.929688 12.796875 11.59375 13.335938 11.625 13.917969 C 11.632812 14.074219 11.574219 14.222656 11.464844 14.335938 C 11.359375 14.445312 11.210938 14.503906 11.054688 14.503906 C 10.734375 14.503906 10.539062 14.261719 10.5 13.855469 C 10.464844 13.289062 10.101562 12.792969 9.566406 12.589844 C 9.035156 12.386719 8.433594 12.511719 8.027344 12.914062 C 7.839844 13.109375 7.539062 13.140625 7.320312 12.988281 C 7.121094 12.851562 7.039062 12.601562 7.117188 12.375 C 7.148438 12.285156 7.199219 12.203125 7.261719 12.132812 C 7.695312 11.726562 7.816406 11.085938 7.5625 10.546875 C 7.339844 10.007812 6.796875 9.667969 6.214844 9.699219 C 5.933594 9.71875 5.6875 9.523438 5.636719 9.246094 C 5.589844 9.003906 5.714844 8.757812 5.941406 8.652344 C 6.035156 8.609375 6.136719 8.585938 6.242188 8.582031 C 6.8125 8.582031 7.324219 8.226562 7.523438 7.691406 C 7.765625 7.15625 7.640625 6.53125 7.21875 6.128906 C 7.0625 5.988281 6.996094 5.777344 7.046875 5.574219 C 7.101562 5.371094 7.257812 5.214844 7.464844 5.164062 C 7.667969 5.117188 7.878906 5.1875 8.015625 5.34375 C 8.445312 5.769531 9.09375 5.878906 9.636719 5.613281 C 10.164062 5.390625 10.496094 4.863281 10.46875 4.289062 C 10.453125 4.082031 10.554688 3.882812 10.734375 3.769531 C 10.914062 3.660156 11.136719 3.660156 11.316406 3.769531 C 11.496094 3.882812 11.597656 4.082031 11.582031 4.289062 C 11.585938 4.855469 11.929688 5.367188 12.453125 5.585938 C 12.972656 5.808594 13.578125 5.695312 13.988281 5.304688 C 14.207031 5.085938 14.566406 5.085938 14.785156 5.308594 C 15.003906 5.527344 15.003906 5.886719 14.78125 6.105469 C 14.363281 6.527344 14.257812 7.164062 14.515625 7.699219 L 15.8125 8.546875 C 16.210938 8.566406 16.449219 8.765625 16.457031 9.089844 C 16.460938 9.410156 16.226562 9.625 15.835938 9.660156 Z M 15.835938 9.660156 "/>
</g>
</svg>
