
<svg xmlns="http://www.w3.org/2000/svg" xmlns:xlink="http://www.w3.org/1999/xlink" width="22px" height="22px" viewBox="0 0 22 22" version="1.1">
<g id="surface1">
<path style=" stroke:none;fill-rule:nonzero;fill:rgb(37.647059%,41.960784%,50.980392%);fill-opacity:1;" d="M 11 22 C 4.925781 22 0 17.074219 0 11 C 0 4.925781 4.925781 0 11 0 C 17.074219 0 22 4.925781 22 11 C 22 17.074219 17.074219 22 11 22 Z M 11 2.308594 C 6.199219 2.308594 2.308594 6.199219 2.308594 11 C 2.308594 15.800781 6.199219 19.691406 11 19.691406 C 15.800781 19.691406 19.691406 15.800781 19.691406 11 C 19.683594 6.203125 15.796875 2.316406 11 2.308594 Z M 11 2.308594 "/>
<path style=" stroke:none;fill-rule:nonzero;fill:rgb(37.647059%,41.960784%,50.980392%);fill-opacity:1;" d="M 10.683594 14.78125 C 7.1875 14.804688 3.765625 13.78125 0.855469 11.84375 L 1.542969 10.917969 C 4.265625 12.691406 7.4375 13.632812 10.683594 13.625 C 14.109375 13.578125 17.472656 12.730469 20.511719 11.148438 L 21.085938 12.148438 C 17.878906 13.847656 14.3125 14.75 10.683594 14.78125 Z M 10.683594 14.78125 "/>
<path style=" stroke:none;fill-rule:nonzero;fill:rgb(37.647059%,41.960784%,50.980392%);fill-opacity:1;" d="M 20.457031 10.507812 C 17.734375 8.734375 14.5625 7.792969 11.316406 7.796875 C 7.890625 7.84375 4.527344 8.691406 1.488281 10.273438 L 0.914062 9.28125 C 4.121094 7.589844 7.6875 6.6875 11.316406 6.65625 C 14.8125 6.632812 18.234375 7.652344 21.144531 9.585938 Z M 20.457031 10.507812 "/>
<path style=" stroke:none;fill-rule:nonzero;fill:rgb(37.647059%,41.960784%,50.980392%);fill-opacity:1;" d="M 9 20.878906 C 8.847656 20.6875 5.242188 16.226562 5.242188 10.394531 C 5.242188 4.566406 9.28125 0.65625 9.4375 0.496094 L 10.230469 1.332031 C 10.195312 1.375 6.398438 5.039062 6.398438 10.394531 C 6.398438 15.753906 9.859375 20.105469 9.898438 20.148438 Z M 9 20.878906 "/>
<path style=" stroke:none;fill-rule:nonzero;fill:rgb(37.647059%,41.960784%,50.980392%);fill-opacity:1;" d="M 12.5625 20.929688 L 11.769531 20.09375 C 11.804688 20.054688 15.601562 16.390625 15.601562 11.027344 C 15.601562 5.667969 12.136719 1.320312 12.101562 1.277344 L 13 0.546875 C 13.152344 0.730469 16.757812 5.199219 16.757812 11.027344 C 16.757812 16.859375 12.734375 20.769531 12.5625 20.929688 Z M 12.5625 20.929688 "/>
<path style=" stroke:none;fill-rule:nonzero;fill:rgb(37.647059%,41.960784%,50.980392%);fill-opacity:1;" d="M 10.421875 1.0625 L 11.578125 1.0625 L 11.578125 21.601562 L 10.421875 21.601562 Z M 10.421875 1.0625 "/>
</g>
</svg>
