
<svg xmlns="http://www.w3.org/2000/svg" xmlns:xlink="http://www.w3.org/1999/xlink" width="22px" height="22px" viewBox="0 0 22 22" version="1.1">
<g id="surface1">
<path style=" stroke:none;fill-rule:nonzero;fill:rgb(37.647059%,41.960784%,50.980392%);fill-opacity:1;" d="M 11 19.832031 C 4.9375 19.832031 0 15.871094 0 11 C 0 6.128906 4.9375 2.167969 11 2.167969 C 17.0625 2.167969 22 6.128906 22 11 C 21.996094 12.308594 21.636719 13.59375 20.96875 14.71875 C 20.6875 15.207031 20.191406 15.535156 19.636719 15.601562 C 19.066406 15.679688 18.492188 15.488281 18.085938 15.082031 L 16.554688 13.542969 C 16.332031 13.296875 15.988281 13.191406 15.664062 13.273438 C 15.34375 13.355469 15.089844 13.605469 15.007812 13.929688 C 14.925781 14.253906 15.03125 14.59375 15.277344 14.820312 L 16.402344 15.941406 C 16.847656 16.386719 17.035156 17.023438 16.902344 17.632812 C 16.777344 18.238281 16.355469 18.734375 15.78125 18.957031 C 14.253906 19.542969 12.632812 19.839844 11 19.832031 Z M 11 4.042969 C 5.96875 4.042969 1.875 7.164062 1.875 11 C 1.875 14.835938 5.96875 17.957031 11 17.957031 C 12.402344 17.964844 13.792969 17.710938 15.105469 17.210938 L 13.953125 16.15625 C 12.863281 15.074219 12.859375 13.3125 13.945312 12.226562 C 15.027344 11.136719 16.789062 11.132812 17.875 12.21875 L 19.414062 13.75 C 19.871094 12.90625 20.117188 11.960938 20.125 11 C 20.125 7.164062 16.03125 4.042969 11 4.042969 Z M 11 4.042969 "/>
<path style=" stroke:none;fill-rule:nonzero;fill:rgb(37.647059%,41.960784%,50.980392%);fill-opacity:1;" d="M 10.976562 8.957031 C 10.976562 7.664062 9.695312 6.617188 8.113281 6.617188 C 6.53125 6.617188 5.25 7.664062 5.25 8.957031 C 5.25 10.25 6.53125 11.300781 8.113281 11.300781 C 9.695312 11.300781 10.976562 10.25 10.976562 8.957031 Z M 10.976562 8.957031 "/>
<path style=" stroke:none;fill-rule:nonzero;fill:rgb(37.647059%,41.960784%,50.980392%);fill-opacity:1;" d="M 10.328125 13.828125 C 10.328125 12.902344 9.320312 12.148438 8.074219 12.148438 C 6.828125 12.148438 5.820312 12.902344 5.820312 13.828125 C 5.820312 14.757812 6.828125 15.511719 8.074219 15.511719 C 9.320312 15.511719 10.328125 14.757812 10.328125 13.828125 Z M 10.328125 13.828125 "/>
</g>
</svg>
