
<svg xmlns="http://www.w3.org/2000/svg" xmlns:xlink="http://www.w3.org/1999/xlink" width="22px" height="22px" viewBox="0 0 22 22" version="1.1">
<g id="surface1">
<path style=" stroke:none;fill-rule:nonzero;fill:rgb(37.647059%,41.960784%,50.980392%);fill-opacity:1;" d="M 16.167969 4.726562 L 16.167969 17.691406 L 16.757812 18.71875 L 18.652344 22 L 20.550781 18.71875 L 21.140625 17.691406 L 21.140625 4.726562 Z M 16.167969 4.726562 "/>
<path style=" stroke:none;fill-rule:nonzero;fill:rgb(37.647059%,41.960784%,50.980392%);fill-opacity:1;" d="M 21.140625 3.566406 L 16.15625 3.566406 L 16.15625 1.765625 C 16.15625 1.292969 16.34375 0.84375 16.675781 0.515625 C 17.011719 0.183594 17.460938 -0.00390625 17.933594 0 L 19.375 0 C 20.351562 0 21.140625 0.789062 21.140625 1.765625 Z M 21.140625 3.566406 "/>
<path style=" stroke:none;fill-rule:nonzero;fill:rgb(37.647059%,41.960784%,50.980392%);fill-opacity:1;" d="M 16.4375 22 L 4.023438 22 C 2.277344 22 0.859375 20.582031 0.859375 18.835938 L 0.859375 3.164062 C 0.859375 1.417969 2.277344 0 4.023438 0 L 14.242188 0 L 14.242188 1.171875 L 4.023438 1.171875 C 2.921875 1.171875 2.03125 2.0625 2.03125 3.164062 L 2.03125 18.835938 C 2.03125 19.9375 2.921875 20.828125 4.023438 20.828125 L 16.4375 20.828125 Z M 16.4375 22 "/>
<path style=" stroke:none;fill-rule:nonzero;fill:rgb(37.647059%,41.960784%,50.980392%);fill-opacity:1;" d="M 5.085938 3.238281 L 13.179688 3.238281 C 13.726562 3.238281 14.167969 3.679688 14.167969 4.226562 L 14.167969 5.632812 C 14.167969 6.175781 13.726562 6.621094 13.179688 6.621094 L 5.085938 6.621094 C 4.542969 6.621094 4.101562 6.175781 4.101562 5.632812 L 4.101562 4.226562 C 4.101562 3.679688 4.542969 3.238281 5.085938 3.238281 Z M 5.085938 3.238281 "/>
<path style=" stroke:none;fill-rule:nonzero;fill:rgb(37.647059%,41.960784%,50.980392%);fill-opacity:1;" d="M 4.800781 8.382812 L 5.976562 8.382812 C 6.398438 8.382812 6.742188 8.726562 6.742188 9.148438 L 6.742188 10.324219 C 6.742188 10.742188 6.398438 11.085938 5.976562 11.085938 L 4.800781 11.085938 C 4.382812 11.085938 4.039062 10.742188 4.039062 10.324219 L 4.039062 9.148438 C 4.039062 8.726562 4.382812 8.382812 4.800781 8.382812 Z M 4.800781 8.382812 "/>
<path style=" stroke:none;fill-rule:nonzero;fill:rgb(37.647059%,41.960784%,50.980392%);fill-opacity:1;" d="M 8.546875 8.382812 L 9.722656 8.382812 C 10.140625 8.382812 10.484375 8.726562 10.484375 9.148438 L 10.484375 10.324219 C 10.484375 10.742188 10.140625 11.085938 9.722656 11.085938 L 8.546875 11.085938 C 8.125 11.085938 7.78125 10.742188 7.78125 10.324219 L 7.78125 9.148438 C 7.78125 8.726562 8.125 8.382812 8.546875 8.382812 Z M 8.546875 8.382812 "/>
<path style=" stroke:none;fill-rule:nonzero;fill:rgb(37.647059%,41.960784%,50.980392%);fill-opacity:1;" d="M 12.292969 8.382812 L 13.46875 8.382812 C 13.890625 8.382812 14.234375 8.726562 14.234375 9.148438 L 14.234375 10.324219 C 14.234375 10.742188 13.890625 11.085938 13.46875 11.085938 L 12.292969 11.085938 C 11.871094 11.085938 11.53125 10.742188 11.53125 10.324219 L 11.53125 9.148438 C 11.53125 8.726562 11.871094 8.382812 12.292969 8.382812 Z M 12.292969 8.382812 "/>
<path style=" stroke:none;fill-rule:nonzero;fill:rgb(37.647059%,41.960784%,50.980392%);fill-opacity:1;" d="M 4.800781 12.21875 L 5.976562 12.21875 C 6.398438 12.21875 6.742188 12.558594 6.742188 12.980469 L 6.742188 14.15625 C 6.742188 14.578125 6.398438 14.921875 5.976562 14.921875 L 4.800781 14.921875 C 4.382812 14.921875 4.039062 14.578125 4.039062 14.15625 L 4.039062 12.980469 C 4.039062 12.558594 4.382812 12.21875 4.800781 12.21875 Z M 4.800781 12.21875 "/>
<path style=" stroke:none;fill-rule:nonzero;fill:rgb(37.647059%,41.960784%,50.980392%);fill-opacity:1;" d="M 8.546875 12.21875 L 9.722656 12.21875 C 10.140625 12.21875 10.484375 12.558594 10.484375 12.980469 L 10.484375 14.15625 C 10.484375 14.578125 10.140625 14.921875 9.722656 14.921875 L 8.546875 14.921875 C 8.125 14.921875 7.78125 14.578125 7.78125 14.15625 L 7.78125 12.980469 C 7.78125 12.558594 8.125 12.21875 8.546875 12.21875 Z M 8.546875 12.21875 "/>
<path style=" stroke:none;fill-rule:nonzero;fill:rgb(37.647059%,41.960784%,50.980392%);fill-opacity:1;" d="M 12.292969 12.21875 L 13.46875 12.21875 C 13.890625 12.21875 14.234375 12.558594 14.234375 12.980469 L 14.234375 14.15625 C 14.234375 14.578125 13.890625 14.921875 13.46875 14.921875 L 12.292969 14.921875 C 11.871094 14.921875 11.53125 14.578125 11.53125 14.15625 L 11.53125 12.980469 C 11.53125 12.558594 11.871094 12.21875 12.292969 12.21875 Z M 12.292969 12.21875 "/>
<path style=" stroke:none;fill-rule:nonzero;fill:rgb(37.647059%,41.960784%,50.980392%);fill-opacity:1;" d="M 4.800781 16.046875 L 5.976562 16.046875 C 6.398438 16.046875 6.742188 16.390625 6.742188 16.8125 L 6.742188 17.988281 C 6.742188 18.414062 6.398438 18.75 5.976562 18.75 L 4.800781 18.75 C 4.382812 18.75 4.039062 18.414062 4.039062 17.988281 L 4.039062 16.8125 C 4.039062 16.390625 4.382812 16.046875 4.800781 16.046875 Z M 4.800781 16.046875 "/>
<path style=" stroke:none;fill-rule:nonzero;fill:rgb(37.647059%,41.960784%,50.980392%);fill-opacity:1;" d="M 8.546875 16.046875 L 9.722656 16.046875 C 10.140625 16.046875 10.484375 16.390625 10.484375 16.8125 L 10.484375 17.988281 C 10.484375 18.414062 10.140625 18.75 9.722656 18.75 L 8.546875 18.75 C 8.125 18.75 7.78125 18.414062 7.78125 17.988281 L 7.78125 16.8125 C 7.78125 16.390625 8.125 16.046875 8.546875 16.046875 Z M 8.546875 16.046875 "/>
<path style=" stroke:none;fill-rule:nonzero;fill:rgb(37.647059%,41.960784%,50.980392%);fill-opacity:1;" d="M 12.292969 16.046875 L 13.46875 16.046875 C 13.890625 16.046875 14.234375 16.390625 14.234375 16.8125 L 14.234375 17.988281 C 14.234375 18.414062 13.890625 18.75 13.46875 18.75 L 12.292969 18.75 C 11.871094 18.75 11.53125 18.414062 11.53125 17.988281 L 11.53125 16.8125 C 11.53125 16.390625 11.871094 16.046875 12.292969 16.046875 Z M 12.292969 16.046875 "/>
</g>
</svg>
