
<svg xmlns="http://www.w3.org/2000/svg" xmlns:xlink="http://www.w3.org/1999/xlink" width="22px" height="22px" viewBox="0 0 22 22" version="1.1">
<g id="surface1">
<path style=" stroke:none;fill-rule:nonzero;fill:rgb(37.647059%,41.960784%,50.980392%);fill-opacity:1;" d="M 21.785156 4.871094 C 21.773438 4.601562 21.609375 4.367188 21.359375 4.265625 L 11.21875 0.0859375 C 11.046875 0.0117188 10.855469 0.0117188 10.679688 0.0859375 L 0.539062 4.265625 C 0.273438 4.367188 0.0976562 4.628906 0.101562 4.914062 C 0.101562 4.9375 0.101562 4.953125 0.101562 4.972656 C 0.03125 5.085938 0 5.214844 0 5.347656 L 0 17.078125 C -0.00390625 17.363281 0.171875 17.628906 0.433594 17.730469 L 10.546875 21.914062 C 10.632812 21.953125 10.726562 21.96875 10.824219 21.96875 C 10.882812 21.957031 10.941406 21.941406 11 21.914062 C 11.058594 21.941406 11.117188 21.957031 11.175781 21.96875 C 11.273438 21.96875 11.367188 21.953125 11.449219 21.914062 L 21.566406 17.730469 C 21.828125 17.628906 22.003906 17.363281 22 17.078125 L 22 5.347656 C 21.996094 5.167969 21.914062 4.996094 21.785156 4.871094 Z M 10.113281 20.207031 L 1.414062 16.605469 L 1.414062 6.402344 L 10.113281 10 Z M 20.585938 16.605469 L 11.886719 20.207031 L 11.886719 10 L 20.585938 6.402344 Z M 20.585938 16.605469 "/>
</g>
</svg>
