
<svg xmlns="http://www.w3.org/2000/svg" xmlns:xlink="http://www.w3.org/1999/xlink" width="22px" height="22px" viewBox="0 0 22 22" version="1.1">
<g id="surface1">
<path style=" stroke:none;fill-rule:nonzero;fill:rgb(36.078431%,41.960784%,75.294118%);fill-opacity:1;" d="M 1.851562 0 L 20.148438 0 C 21.171875 0 22 0.828125 22 1.851562 L 22 20.148438 C 22 21.171875 21.171875 22 20.148438 22 L 1.851562 22 C 0.828125 22 0 21.171875 0 20.148438 L 0 1.851562 C 0 0.828125 0.828125 0 1.851562 0 Z M 1.851562 0 "/>
<path style=" stroke:none;fill-rule:nonzero;fill:rgb(100%,100%,100%);fill-opacity:1;" d="M 12.074219 11 L 14.625 8.449219 C 14.832031 8.242188 14.832031 7.90625 14.625 7.699219 L 11.625 4.699219 C 11.472656 4.546875 11.246094 4.503906 11.046875 4.585938 C 10.851562 4.667969 10.71875 4.859375 10.71875 5.074219 L 10.71875 9.640625 L 8.152344 7.078125 C 7.945312 6.871094 7.613281 6.871094 7.402344 7.078125 C 7.195312 7.285156 7.195312 7.621094 7.402344 7.828125 L 10.578125 11 L 7.375 14.199219 C 7.191406 14.410156 7.203125 14.726562 7.402344 14.921875 C 7.597656 15.121094 7.910156 15.132812 8.121094 14.953125 L 10.71875 12.375 L 10.71875 16.925781 C 10.722656 17.144531 10.859375 17.335938 11.0625 17.414062 C 11.125 17.441406 11.195312 17.457031 11.265625 17.457031 C 11.40625 17.453125 11.539062 17.398438 11.640625 17.300781 L 14.640625 14.300781 C 14.847656 14.09375 14.847656 13.757812 14.640625 13.550781 Z M 11.78125 6.355469 L 13.5 8.074219 L 11.78125 9.792969 Z M 11.78125 15.636719 L 11.78125 12.199219 L 13.5 13.917969 Z M 11.78125 15.636719 "/>
</g>
</svg>
