
<svg xmlns="http://www.w3.org/2000/svg" xmlns:xlink="http://www.w3.org/1999/xlink" width="22px" height="22px" viewBox="0 0 22 22" version="1.1">
<defs>
<linearGradient id="linear0" gradientUnits="userSpaceOnUse" x1="32.86" y1="52.99" x2="32.86" y2="54.6" gradientTransform="matrix(0.34375,0,0,0.34375,-0.0446875,0.0171875)">
<stop offset="0" style="stop-color:rgb(86.27451%,87.058824%,88.627451%);stop-opacity:1;"/>
<stop offset="0.57" style="stop-color:rgb(87.058824%,87.843137%,89.411765%);stop-opacity:1;"/>
<stop offset="0.81" style="stop-color:rgb(89.803922%,90.588235%,91.764706%);stop-opacity:1;"/>
<stop offset="0.99" style="stop-color:rgb(94.901961%,95.294118%,95.686275%);stop-opacity:1;"/>
<stop offset="1" style="stop-color:rgb(95.294118%,95.686275%,96.078431%);stop-opacity:1;"/>
</linearGradient>
</defs>
<g id="surface1">
<path style=" stroke:none;fill-rule:nonzero;fill:rgb(36.078431%,41.960784%,75.294118%);fill-opacity:1;" d="M 1.851562 0 L 20.148438 0 C 21.171875 0 22 0.828125 22 1.851562 L 22 20.148438 C 22 21.171875 21.171875 22 20.148438 22 L 1.851562 22 C 0.828125 22 0 21.171875 0 20.148438 L 0 1.851562 C 0 0.828125 0.828125 0 1.851562 0 Z M 1.851562 0 "/>
<path style=" stroke:none;fill-rule:nonzero;fill:url(#linear0);" d="M 15.082031 18.695312 L 14.4375 18.695312 C 14.15625 18.695312 13.933594 18.46875 13.933594 18.191406 L 13.933594 15.863281 L 8.59375 15.863281 L 8.59375 18.1875 C 8.59375 18.464844 8.367188 18.691406 8.089844 18.691406 L 7.417969 18.691406 C 7.144531 18.691406 6.917969 18.917969 6.917969 19.191406 C 6.917969 19.464844 7.144531 19.691406 7.417969 19.691406 L 15.082031 19.691406 C 15.214844 19.691406 15.34375 19.636719 15.4375 19.546875 C 15.53125 19.453125 15.585938 19.324219 15.585938 19.191406 C 15.582031 18.917969 15.359375 18.695312 15.082031 18.695312 Z M 15.082031 18.695312 "/>
<path style=" stroke:none;fill-rule:nonzero;fill:rgb(16.078431%,71.372549%,96.470588%);fill-opacity:1;" d="M 3.140625 4.078125 L 18.859375 4.078125 C 19.21875 4.078125 19.515625 4.371094 19.515625 4.734375 L 19.515625 15.109375 C 19.515625 15.46875 19.21875 15.765625 18.859375 15.765625 L 3.140625 15.765625 C 2.78125 15.765625 2.484375 15.46875 2.484375 15.109375 L 2.484375 4.734375 C 2.484375 4.371094 2.78125 4.078125 3.140625 4.078125 Z M 3.140625 4.078125 "/>
<path style=" stroke:none;fill-rule:nonzero;fill:rgb(100%,100%,100%);fill-opacity:1;" d="M 18.859375 16.066406 L 3.140625 16.066406 C 2.617188 16.066406 2.191406 15.648438 2.183594 15.125 L 2.183594 4.734375 C 2.1875 4.207031 2.613281 3.78125 3.140625 3.78125 L 18.859375 3.78125 C 19.386719 3.78125 19.816406 4.210938 19.816406 4.738281 L 19.816406 15.125 C 19.808594 15.648438 19.382812 16.066406 18.859375 16.066406 Z M 3.140625 4.378906 C 2.953125 4.378906 2.796875 4.53125 2.796875 4.722656 L 2.796875 15.125 C 2.796875 15.316406 2.953125 15.46875 3.140625 15.46875 L 18.859375 15.46875 C 19.046875 15.46875 19.203125 15.316406 19.203125 15.125 L 19.203125 4.734375 C 19.203125 4.542969 19.046875 4.390625 18.859375 4.390625 Z M 3.140625 4.378906 "/>
<path style=" stroke:none;fill-rule:nonzero;fill:rgb(100%,100%,100%);fill-opacity:1;" d="M 2.269531 14.4375 L 19.699219 14.4375 L 19.699219 15.195312 C 19.699219 15.609375 19.363281 15.949219 18.945312 15.949219 L 3.023438 15.949219 C 2.609375 15.949219 2.269531 15.609375 2.269531 15.195312 Z M 2.269531 14.4375 "/>
<path style=" stroke:none;fill-rule:nonzero;fill:rgb(100%,100%,100%);fill-opacity:1;" d="M 14.222656 8.898438 C 14.144531 8.832031 14.046875 8.800781 13.945312 8.808594 C 13.648438 8.832031 13.371094 8.664062 13.257812 8.386719 C 13.140625 8.121094 13.203125 7.808594 13.40625 7.601562 C 13.605469 7.398438 13.605469 7.074219 13.40625 6.875 C 13.316406 6.78125 13.191406 6.726562 13.0625 6.726562 C 12.917969 6.730469 12.78125 6.785156 12.671875 6.878906 C 12.527344 6.996094 12.347656 7.0625 12.160156 7.066406 C 12.085938 7.070312 12.011719 7.054688 11.941406 7.027344 C 11.699219 6.910156 11.535156 6.675781 11.507812 6.40625 C 11.519531 6.144531 11.332031 5.917969 11.074219 5.878906 L 10.898438 5.878906 C 10.65625 5.921875 10.484375 6.136719 10.492188 6.378906 C 10.503906 6.667969 10.335938 6.933594 10.070312 7.046875 C 9.980469 7.082031 9.882812 7.105469 9.785156 7.105469 C 9.601562 7.105469 9.417969 7.035156 9.28125 6.910156 C 9.179688 6.8125 9.046875 6.761719 8.90625 6.757812 C 8.777344 6.757812 8.652344 6.8125 8.5625 6.902344 C 8.363281 7.101562 8.363281 7.421875 8.5625 7.621094 C 8.765625 7.820312 8.832031 8.117188 8.730469 8.378906 C 8.632812 8.65625 8.371094 8.835938 8.078125 8.835938 C 7.824219 8.832031 7.605469 9.011719 7.5625 9.261719 L 7.5625 9.421875 C 7.570312 9.449219 7.578125 9.476562 7.589844 9.5 C 7.65625 9.703125 7.84375 9.839844 8.058594 9.84375 C 8.355469 9.808594 8.640625 9.972656 8.765625 10.246094 C 8.886719 10.519531 8.816406 10.839844 8.59375 11.042969 C 8.40625 11.242188 8.40625 11.550781 8.59375 11.753906 C 8.683594 11.84375 8.808594 11.898438 8.9375 11.902344 C 9.0625 11.898438 9.183594 11.847656 9.28125 11.765625 C 9.421875 11.628906 9.605469 11.546875 9.800781 11.542969 C 9.882812 11.542969 9.96875 11.558594 10.046875 11.589844 C 10.324219 11.695312 10.503906 11.960938 10.503906 12.253906 C 10.507812 12.503906 10.6875 12.71875 10.929688 12.761719 L 11.058594 12.761719 L 11.136719 12.71875 C 11.242188 12.667969 11.339844 12.605469 11.429688 12.535156 C 11.496094 12.445312 11.53125 12.332031 11.527344 12.214844 C 11.550781 11.957031 11.695312 11.726562 11.917969 11.59375 C 12 11.554688 12.089844 11.53125 12.179688 11.53125 C 12.363281 11.539062 12.542969 11.605469 12.683594 11.722656 C 12.792969 11.816406 12.933594 11.871094 13.074219 11.871094 C 13.203125 11.871094 13.328125 11.820312 13.417969 11.730469 C 13.621094 11.523438 13.621094 11.195312 13.417969 10.988281 C 13.277344 10.8125 13.210938 10.582031 13.246094 10.355469 C 13.320312 10.0625 13.570312 9.851562 13.871094 9.832031 C 14.140625 9.851562 14.382812 9.667969 14.4375 9.402344 L 14.4375 9.28125 L 14.394531 9.203125 C 14.347656 9.097656 14.289062 8.992188 14.222656 8.898438 Z M 11.003906 10.617188 C 10.480469 10.621094 10.007812 10.304688 9.808594 9.820312 C 9.605469 9.339844 9.714844 8.78125 10.085938 8.410156 C 10.457031 8.042969 11.011719 7.929688 11.496094 8.132812 C 11.980469 8.332031 12.292969 8.804688 12.292969 9.328125 C 12.277344 10.035156 11.707031 10.601562 11 10.609375 Z M 11.003906 10.617188 "/>
<path style=" stroke:none;fill-rule:nonzero;fill:rgb(100%,100%,100%);fill-opacity:1;" d="M 11 8.652344 C 10.730469 8.648438 10.484375 8.808594 10.378906 9.058594 C 10.273438 9.308594 10.328125 9.597656 10.519531 9.789062 C 10.710938 9.980469 11 10.039062 11.25 9.933594 C 11.5 9.832031 11.660156 9.585938 11.660156 9.316406 C 11.648438 8.957031 11.359375 8.667969 11 8.652344 Z M 11 8.652344 "/>
</g>
</svg>
