
<svg xmlns="http://www.w3.org/2000/svg" xmlns:xlink="http://www.w3.org/1999/xlink" width="22px" height="22px" viewBox="0 0 22 22" version="1.1">
<defs>
<clipPath id="clip1">
  <path d="M 10.542969 3 L 11.230469 3 L 11.230469 5.269531 L 10.542969 5.269531 Z M 10.542969 3 "/>
</clipPath>
<clipPath id="clip2">
  <path d="M 19 11 C 19 15.417969 15.417969 19 11 19 C 6.582031 19 3 15.417969 3 11 C 3 6.582031 6.582031 3 11 3 C 15.417969 3 19 6.582031 19 11 Z M 19 11 "/>
</clipPath>
<clipPath id="clip3">
  <path d="M 10.542969 16.730469 L 11.230469 16.730469 L 11.230469 19 L 10.542969 19 Z M 10.542969 16.730469 "/>
</clipPath>
<clipPath id="clip4">
  <path d="M 19 11 C 19 15.417969 15.417969 19 11 19 C 6.582031 19 3 15.417969 3 11 C 3 6.582031 6.582031 3 11 3 C 15.417969 3 19 6.582031 19 11 Z M 19 11 "/>
</clipPath>
<clipPath id="clip5">
  <path d="M 16.730469 10.769531 L 19 10.769531 L 19 11.457031 L 16.730469 11.457031 Z M 16.730469 10.769531 "/>
</clipPath>
<clipPath id="clip6">
  <path d="M 19 11 C 19 15.417969 15.417969 19 11 19 C 6.582031 19 3 15.417969 3 11 C 3 6.582031 6.582031 3 11 3 C 15.417969 3 19 6.582031 19 11 Z M 19 11 "/>
</clipPath>
<clipPath id="clip7">
  <path d="M 3 10.769531 L 5.042969 10.769531 L 5.042969 11.230469 L 3 11.230469 Z M 3 10.769531 "/>
</clipPath>
<clipPath id="clip8">
  <path d="M 19 11 C 19 15.417969 15.417969 19 11 19 C 6.582031 19 3 15.417969 3 11 C 3 6.582031 6.582031 3 11 3 C 15.417969 3 19 6.582031 19 11 Z M 19 11 "/>
</clipPath>
<clipPath id="clip9">
  <path d="M 16.5 14.207031 L 19 14.207031 L 19 16.957031 L 16.5 16.957031 Z M 16.5 14.207031 "/>
</clipPath>
<clipPath id="clip10">
  <path d="M 19 11 C 19 15.417969 15.417969 19 11 19 C 6.582031 19 3 15.417969 3 11 C 3 6.582031 6.582031 3 11 3 C 15.417969 3 19 6.582031 19 11 Z M 19 11 "/>
</clipPath>
<clipPath id="clip11">
  <path d="M 3 5.042969 L 5.269531 5.042969 L 5.269531 7.792969 L 3 7.792969 Z M 3 5.042969 "/>
</clipPath>
<clipPath id="clip12">
  <path d="M 19 11 C 19 15.417969 15.417969 19 11 19 C 6.582031 19 3 15.417969 3 11 C 3 6.582031 6.582031 3 11 3 C 15.417969 3 19 6.582031 19 11 Z M 19 11 "/>
</clipPath>
<clipPath id="clip13">
  <path d="M 13.75 16.730469 L 16.269531 16.730469 L 16.269531 19 L 13.75 19 Z M 13.75 16.730469 "/>
</clipPath>
<clipPath id="clip14">
  <path d="M 19 11 C 19 15.417969 15.417969 19 11 19 C 6.582031 19 3 15.417969 3 11 C 3 6.582031 6.582031 3 11 3 C 15.417969 3 19 6.582031 19 11 Z M 19 11 "/>
</clipPath>
<clipPath id="clip15">
  <path d="M 5.5 3 L 8 3 L 8 5.269531 L 5.5 5.269531 Z M 5.5 3 "/>
</clipPath>
<clipPath id="clip16">
  <path d="M 19 11 C 19 15.417969 15.417969 19 11 19 C 6.582031 19 3 15.417969 3 11 C 3 6.582031 6.582031 3 11 3 C 15.417969 3 19 6.582031 19 11 Z M 19 11 "/>
</clipPath>
<clipPath id="clip17">
  <path d="M 3 14.207031 L 5.269531 14.207031 L 5.269531 16.957031 L 3 16.957031 Z M 3 14.207031 "/>
</clipPath>
<clipPath id="clip18">
  <path d="M 19 11 C 19 15.417969 15.417969 19 11 19 C 6.582031 19 3 15.417969 3 11 C 3 6.582031 6.582031 3 11 3 C 15.417969 3 19 6.582031 19 11 Z M 19 11 "/>
</clipPath>
<clipPath id="clip19">
  <path d="M 16.5 5.042969 L 19 5.042969 L 19 7.792969 L 16.5 7.792969 Z M 16.5 5.042969 "/>
</clipPath>
<clipPath id="clip20">
  <path d="M 19 11 C 19 15.417969 15.417969 19 11 19 C 6.582031 19 3 15.417969 3 11 C 3 6.582031 6.582031 3 11 3 C 15.417969 3 19 6.582031 19 11 Z M 19 11 "/>
</clipPath>
<clipPath id="clip21">
  <path d="M 5.5 16.730469 L 8 16.730469 L 8 19 L 5.5 19 Z M 5.5 16.730469 "/>
</clipPath>
<clipPath id="clip22">
  <path d="M 19 11 C 19 15.417969 15.417969 19 11 19 C 6.582031 19 3 15.417969 3 11 C 3 6.582031 6.582031 3 11 3 C 15.417969 3 19 6.582031 19 11 Z M 19 11 "/>
</clipPath>
<clipPath id="clip23">
  <path d="M 13.75 3 L 16.269531 3 L 16.269531 5.269531 L 13.75 5.269531 Z M 13.75 3 "/>
</clipPath>
<clipPath id="clip24">
  <path d="M 19 11 C 19 15.417969 15.417969 19 11 19 C 6.582031 19 3 15.417969 3 11 C 3 6.582031 6.582031 3 11 3 C 15.417969 3 19 6.582031 19 11 Z M 19 11 "/>
</clipPath>
</defs>
<g id="surface1">
<path style=" stroke:none;fill-rule:nonzero;fill:rgb(91.764706%,92.156863%,93.72549%);fill-opacity:1;" d="M 1.851562 0 L 20.148438 0 C 21.171875 0 22 0.828125 22 1.851562 L 22 20.148438 C 22 21.171875 21.171875 22 20.148438 22 L 1.851562 22 C 0.828125 22 0 21.171875 0 20.148438 L 0 1.851562 C 0 0.828125 0.828125 0 1.851562 0 Z M 1.851562 0 "/>
<path style=" stroke:none;fill-rule:nonzero;fill:rgb(49.411765%,34.117647%,76.862745%);fill-opacity:1;" d="M 19 11 C 19 15.417969 15.417969 19 11 19 C 6.582031 19 3 15.417969 3 11 C 3 6.582031 6.582031 3 11 3 C 15.417969 3 19 6.582031 19 11 Z M 19 11 "/>
<path style=" stroke:none;fill-rule:nonzero;fill:rgb(100%,100%,100%);fill-opacity:1;" d="M 10.921875 6.402344 C 11.0625 6.402344 11.179688 6.519531 11.179688 6.660156 L 11.179688 10.804688 C 11.179688 10.945312 11.0625 11.0625 10.921875 11.0625 C 10.777344 11.0625 10.664062 10.945312 10.664062 10.804688 L 10.664062 6.660156 C 10.664062 6.519531 10.777344 6.402344 10.921875 6.402344 Z M 10.921875 6.402344 "/>
<path style=" stroke:none;fill-rule:nonzero;fill:rgb(100%,40%,84.313725%);fill-opacity:1;" d="M 11.125 11.03125 L 15.386719 15.296875 C 15.433594 15.339844 15.433594 15.414062 15.386719 15.460938 C 15.34375 15.507812 15.269531 15.507812 15.222656 15.460938 L 10.957031 11.199219 C 10.914062 11.152344 10.914062 11.078125 10.957031 11.03125 C 11.003906 10.988281 11.078125 10.988281 11.125 11.03125 Z M 11.125 11.03125 "/>
<path style=" stroke:none;fill-rule:nonzero;fill:rgb(100%,100%,100%);fill-opacity:1;" d="M 11.398438 11 C 11.398438 11.25 11.195312 11.449219 10.949219 11.449219 C 10.699219 11.449219 10.496094 11.25 10.496094 11 C 10.496094 10.75 10.699219 10.550781 10.949219 10.550781 C 11.195312 10.550781 11.398438 10.75 11.398438 11 Z M 11.398438 11 "/>
<g clip-path="url(#clip1)" clip-rule="nonzero">
<g clip-path="url(#clip2)" clip-rule="nonzero">
<path style=" stroke:none;fill-rule:nonzero;fill:rgb(100%,100%,100%);fill-opacity:1;" d="M 10.921875 1 C 11.046875 1 11.148438 1.101562 11.148438 1.226562 L 11.148438 4.878906 C 11.148438 5.003906 11.046875 5.105469 10.921875 5.105469 C 10.796875 5.105469 10.695312 5.003906 10.695312 4.878906 L 10.695312 1.226562 C 10.695312 1.101562 10.796875 1 10.921875 1 Z M 10.921875 1 "/>
</g>
</g>
<g clip-path="url(#clip3)" clip-rule="nonzero">
<g clip-path="url(#clip4)" clip-rule="nonzero">
<path style=" stroke:none;fill-rule:nonzero;fill:rgb(100%,100%,100%);fill-opacity:1;" d="M 10.921875 16.894531 C 11.046875 16.894531 11.148438 16.996094 11.148438 17.121094 L 11.148438 20.773438 C 11.148438 20.898438 11.046875 21 10.921875 21 C 10.796875 21 10.695312 20.898438 10.695312 20.773438 L 10.695312 17.121094 C 10.695312 16.996094 10.796875 16.894531 10.921875 16.894531 Z M 10.921875 16.894531 "/>
</g>
</g>
<g clip-path="url(#clip5)" clip-rule="nonzero">
<g clip-path="url(#clip6)" clip-rule="nonzero">
<path style=" stroke:none;fill-rule:nonzero;fill:rgb(100%,100%,100%);fill-opacity:1;" d="M 20.921875 11.003906 C 20.921875 11.128906 20.820312 11.230469 20.695312 11.230469 L 17.042969 11.230469 C 16.917969 11.230469 16.816406 11.128906 16.816406 11.003906 C 16.816406 10.878906 16.917969 10.777344 17.042969 10.777344 L 20.695312 10.777344 C 20.820312 10.777344 20.921875 10.878906 20.921875 11.003906 Z M 20.921875 11.003906 "/>
</g>
</g>
<g clip-path="url(#clip7)" clip-rule="nonzero">
<g clip-path="url(#clip8)" clip-rule="nonzero">
<path style=" stroke:none;fill-rule:nonzero;fill:rgb(100%,100%,100%);fill-opacity:1;" d="M 5.027344 11 C 5.027344 11.125 4.925781 11.226562 4.800781 11.226562 L 1.148438 11.226562 C 1.023438 11.226562 0.921875 11.125 0.921875 11 C 0.921875 10.875 1.023438 10.773438 1.148438 10.773438 L 4.800781 10.773438 C 4.925781 10.773438 5.027344 10.875 5.027344 11 Z M 5.027344 11 "/>
</g>
</g>
<g clip-path="url(#clip9)" clip-rule="nonzero">
<g clip-path="url(#clip10)" clip-rule="nonzero">
<path style=" stroke:none;fill-rule:nonzero;fill:rgb(100%,100%,100%);fill-opacity:1;" d="M 20.726562 16.71875 C 20.703125 16.761719 20.648438 16.773438 20.609375 16.75 L 16.734375 14.488281 C 16.695312 14.464844 16.679688 14.414062 16.703125 14.375 C 16.726562 14.332031 16.777344 14.320312 16.820312 14.34375 L 20.695312 16.605469 C 20.734375 16.628906 20.75 16.679688 20.726562 16.71875 Z M 20.726562 16.71875 "/>
</g>
</g>
<g clip-path="url(#clip11)" clip-rule="nonzero">
<g clip-path="url(#clip12)" clip-rule="nonzero">
<path style=" stroke:none;fill-rule:nonzero;fill:rgb(100%,100%,100%);fill-opacity:1;" d="M 5.140625 7.628906 C 5.117188 7.667969 5.0625 7.679688 5.023438 7.65625 L 1.148438 5.394531 C 1.109375 5.371094 1.09375 5.320312 1.117188 5.28125 C 1.140625 5.242188 1.191406 5.226562 1.234375 5.25 L 5.109375 7.511719 C 5.148438 7.535156 5.164062 7.585938 5.140625 7.628906 Z M 5.140625 7.628906 "/>
</g>
</g>
<g clip-path="url(#clip13)" clip-rule="nonzero">
<g clip-path="url(#clip14)" clip-rule="nonzero">
<path style=" stroke:none;fill-rule:nonzero;fill:rgb(100%,100%,100%);fill-opacity:1;" d="M 16.089844 21.109375 C 16.046875 21.132812 15.996094 21.113281 15.972656 21.070312 L 13.933594 17.078125 C 13.914062 17.035156 13.929688 16.984375 13.972656 16.960938 C 14.011719 16.941406 14.0625 16.957031 14.085938 17 L 16.125 20.996094 C 16.144531 21.039062 16.128906 21.089844 16.089844 21.109375 Z M 16.089844 21.109375 "/>
</g>
</g>
<g clip-path="url(#clip15)" clip-rule="nonzero">
<g clip-path="url(#clip16)" clip-rule="nonzero">
<path style=" stroke:none;fill-rule:nonzero;fill:rgb(100%,100%,100%);fill-opacity:1;" d="M 7.875 5.046875 C 7.832031 5.066406 7.78125 5.050781 7.761719 5.007812 L 5.71875 1.011719 C 5.699219 0.96875 5.714844 0.917969 5.757812 0.898438 C 5.796875 0.875 5.847656 0.894531 5.871094 0.9375 L 7.910156 4.929688 C 7.933594 4.972656 7.917969 5.023438 7.875 5.046875 Z M 7.875 5.046875 "/>
</g>
</g>
<g clip-path="url(#clip17)" clip-rule="nonzero">
<g clip-path="url(#clip18)" clip-rule="nonzero">
<path style=" stroke:none;fill-rule:nonzero;fill:rgb(100%,100%,100%);fill-opacity:1;" d="M 5.140625 14.371094 C 5.164062 14.410156 5.152344 14.464844 5.109375 14.488281 L 1.234375 16.746094 C 1.195312 16.773438 1.140625 16.757812 1.117188 16.71875 C 1.09375 16.679688 1.109375 16.628906 1.148438 16.601562 L 5.023438 14.339844 C 5.066406 14.316406 5.117188 14.332031 5.140625 14.371094 Z M 5.140625 14.371094 "/>
</g>
</g>
<g clip-path="url(#clip19)" clip-rule="nonzero">
<g clip-path="url(#clip20)" clip-rule="nonzero">
<path style=" stroke:none;fill-rule:nonzero;fill:rgb(100%,100%,100%);fill-opacity:1;" d="M 20.664062 5.199219 C 20.6875 5.238281 20.671875 5.289062 20.628906 5.3125 L 16.773438 7.554688 C 16.730469 7.578125 16.679688 7.566406 16.65625 7.527344 C 16.632812 7.488281 16.648438 7.433594 16.6875 7.410156 L 20.546875 5.167969 C 20.585938 5.144531 20.640625 5.15625 20.664062 5.199219 Z M 20.664062 5.199219 "/>
</g>
</g>
<g clip-path="url(#clip21)" clip-rule="nonzero">
<g clip-path="url(#clip22)" clip-rule="nonzero">
<path style=" stroke:none;fill-rule:nonzero;fill:rgb(100%,100%,100%);fill-opacity:1;" d="M 7.875 16.960938 C 7.914062 16.980469 7.929688 17.03125 7.910156 17.074219 L 5.871094 21.070312 C 5.847656 21.113281 5.796875 21.128906 5.753906 21.109375 C 5.714844 21.085938 5.699219 21.035156 5.71875 20.992188 L 7.757812 17 C 7.78125 16.957031 7.832031 16.941406 7.875 16.960938 Z M 7.875 16.960938 "/>
</g>
</g>
<g clip-path="url(#clip23)" clip-rule="nonzero">
<g clip-path="url(#clip24)" clip-rule="nonzero">
<path style=" stroke:none;fill-rule:nonzero;fill:rgb(100%,100%,100%);fill-opacity:1;" d="M 16.082031 0.894531 C 16.125 0.914062 16.140625 0.96875 16.121094 1.011719 L 14.078125 5.003906 C 14.058594 5.046875 14.007812 5.0625 13.964844 5.042969 C 13.921875 5.023438 13.90625 4.96875 13.929688 4.929688 L 15.96875 0.933594 C 15.992188 0.890625 16.042969 0.875 16.082031 0.894531 Z M 16.082031 0.894531 "/>
</g>
</g>
</g>
</svg>
