
<svg xmlns="http://www.w3.org/2000/svg" xmlns:xlink="http://www.w3.org/1999/xlink" width="22px" height="22px" viewBox="0 0 22 22" version="1.1">
<g id="surface1">
<path style=" stroke:none;fill-rule:nonzero;fill:rgb(36.078431%,41.960784%,75.294118%);fill-opacity:1;" d="M 1.851562 0 L 20.148438 0 C 21.171875 0 22 0.828125 22 1.851562 L 22 20.148438 C 22 21.171875 21.171875 22 20.148438 22 L 1.851562 22 C 0.828125 22 0 21.171875 0 20.148438 L 0 1.851562 C 0 0.828125 0.828125 0 1.851562 0 Z M 1.851562 0 "/>
<path style=" stroke:none;fill-rule:nonzero;fill:rgb(16.078431%,71.372549%,96.470588%);fill-opacity:1;" d="M 16.039062 9.054688 L 15.15625 9.054688 L 15.15625 7.5625 C 15.148438 7.167969 14.832031 6.851562 14.4375 6.84375 L 8.28125 6.84375 C 7.390625 6.84375 6.671875 6.121094 6.667969 5.230469 L 6.667969 4.46875 L 7.5625 4.46875 L 7.5625 5.242188 C 7.5625 5.644531 7.886719 5.972656 8.292969 5.972656 L 14.4375 5.972656 C 15.328125 5.972656 16.050781 6.695312 16.054688 7.585938 Z M 16.039062 9.054688 "/>
<path style=" stroke:none;fill-rule:nonzero;fill:rgb(100%,100%,100%);fill-opacity:1;" d="M 17.144531 8.523438 L 4.855469 8.523438 C 4.34375 8.523438 3.929688 8.941406 3.929688 9.453125 L 3.929688 16.613281 C 3.929688 17.125 4.34375 17.542969 4.855469 17.542969 L 17.144531 17.542969 C 17.65625 17.542969 18.070312 17.125 18.070312 16.613281 L 18.070312 9.453125 C 18.070312 8.941406 17.65625 8.523438 17.144531 8.523438 Z M 17.144531 8.523438 "/>
<path style=" stroke:none;fill-rule:nonzero;fill:rgb(79.607843%,79.607843%,79.607843%);fill-opacity:1;" d="M 14.371094 14.390625 L 7.621094 14.390625 C 7.503906 14.390625 7.390625 14.4375 7.308594 14.519531 C 7.226562 14.601562 7.179688 14.714844 7.179688 14.832031 L 7.179688 15.382812 C 7.1875 15.621094 7.382812 15.8125 7.621094 15.8125 L 14.371094 15.8125 C 14.488281 15.8125 14.601562 15.769531 14.683594 15.683594 C 14.769531 15.601562 14.816406 15.492188 14.816406 15.371094 L 14.816406 14.824219 C 14.816406 14.578125 14.617188 14.378906 14.371094 14.378906 Z M 14.371094 14.390625 "/>
<path style=" stroke:none;fill-rule:nonzero;fill:rgb(92.54902%,25.098039%,47.843137%);fill-opacity:1;" d="M 6.261719 14.390625 L 5.949219 14.390625 C 5.832031 14.386719 5.714844 14.433594 5.632812 14.515625 C 5.546875 14.601562 5.5 14.714844 5.5 14.832031 L 5.5 15.382812 C 5.503906 15.625 5.707031 15.816406 5.949219 15.8125 L 6.261719 15.8125 C 6.378906 15.8125 6.488281 15.769531 6.574219 15.683594 C 6.65625 15.601562 6.703125 15.492188 6.703125 15.371094 L 6.703125 14.824219 C 6.703125 14.578125 6.503906 14.378906 6.261719 14.378906 Z M 6.261719 14.390625 "/>
<path style=" stroke:none;fill-rule:nonzero;fill:rgb(79.607843%,79.607843%,79.607843%);fill-opacity:1;" d="M 16.125 14.390625 L 15.8125 14.390625 C 15.566406 14.390625 15.371094 14.585938 15.371094 14.832031 L 15.371094 15.382812 C 15.375 15.621094 15.570312 15.8125 15.8125 15.8125 L 16.121094 15.8125 C 16.238281 15.8125 16.351562 15.769531 16.4375 15.683594 C 16.519531 15.601562 16.566406 15.492188 16.566406 15.371094 L 16.566406 14.824219 C 16.566406 14.578125 16.367188 14.378906 16.121094 14.378906 Z M 16.125 14.390625 "/>
<path style=" stroke:none;fill-rule:nonzero;fill:rgb(79.607843%,79.607843%,79.607843%);fill-opacity:1;" d="M 9.425781 12.34375 L 9.113281 12.34375 C 8.871094 12.34375 8.671875 12.542969 8.671875 12.785156 L 8.671875 13.332031 C 8.671875 13.449219 8.71875 13.5625 8.800781 13.648438 C 8.882812 13.730469 8.996094 13.777344 9.113281 13.777344 L 9.425781 13.777344 C 9.542969 13.777344 9.65625 13.730469 9.738281 13.648438 C 9.820312 13.5625 9.867188 13.449219 9.867188 13.332031 L 9.867188 12.785156 C 9.867188 12.542969 9.667969 12.34375 9.425781 12.34375 Z M 9.425781 12.34375 "/>
<path style=" stroke:none;fill-rule:nonzero;fill:rgb(92.54902%,25.098039%,47.843137%);fill-opacity:1;" d="M 7.859375 12.34375 L 5.949219 12.34375 C 5.832031 12.339844 5.71875 12.386719 5.632812 12.46875 C 5.546875 12.550781 5.5 12.664062 5.5 12.785156 L 5.5 13.332031 C 5.5 13.578125 5.699219 13.777344 5.941406 13.777344 L 7.851562 13.777344 C 8.097656 13.777344 8.292969 13.578125 8.292969 13.332031 L 8.292969 12.785156 C 8.292969 12.667969 8.25 12.554688 8.164062 12.472656 C 8.082031 12.390625 7.96875 12.34375 7.851562 12.34375 Z M 7.859375 12.34375 "/>
<path style=" stroke:none;fill-rule:nonzero;fill:rgb(79.607843%,79.607843%,79.607843%);fill-opacity:1;" d="M 11.097656 12.34375 L 10.789062 12.34375 C 10.671875 12.34375 10.558594 12.390625 10.476562 12.472656 C 10.394531 12.554688 10.347656 12.667969 10.347656 12.785156 L 10.347656 13.332031 C 10.347656 13.578125 10.546875 13.777344 10.789062 13.777344 L 11.097656 13.777344 C 11.34375 13.777344 11.542969 13.578125 11.542969 13.332031 L 11.542969 12.785156 C 11.542969 12.667969 11.496094 12.554688 11.414062 12.472656 C 11.328125 12.390625 11.214844 12.34375 11.097656 12.34375 Z M 11.097656 12.34375 "/>
<path style=" stroke:none;fill-rule:nonzero;fill:rgb(79.607843%,79.607843%,79.607843%);fill-opacity:1;" d="M 12.777344 12.34375 L 12.464844 12.34375 C 12.222656 12.347656 12.03125 12.542969 12.03125 12.785156 L 12.03125 13.332031 C 12.03125 13.449219 12.074219 13.5625 12.160156 13.648438 C 12.242188 13.730469 12.351562 13.777344 12.472656 13.777344 L 12.785156 13.777344 C 12.902344 13.777344 13.015625 13.730469 13.097656 13.648438 C 13.179688 13.5625 13.226562 13.449219 13.222656 13.332031 L 13.222656 12.785156 C 13.222656 12.542969 13.027344 12.34375 12.785156 12.34375 Z M 12.777344 12.34375 "/>
<path style=" stroke:none;fill-rule:nonzero;fill:rgb(79.607843%,79.607843%,79.607843%);fill-opacity:1;" d="M 14.4375 12.34375 L 14.128906 12.34375 C 14.011719 12.34375 13.898438 12.390625 13.8125 12.472656 C 13.730469 12.554688 13.683594 12.667969 13.683594 12.785156 L 13.683594 13.332031 C 13.683594 13.578125 13.882812 13.777344 14.128906 13.777344 L 14.4375 13.777344 C 14.683594 13.777344 14.878906 13.578125 14.878906 13.332031 L 14.878906 12.785156 C 14.878906 12.667969 14.835938 12.554688 14.75 12.472656 C 14.667969 12.390625 14.554688 12.34375 14.4375 12.34375 Z M 14.4375 12.34375 "/>
<path style=" stroke:none;fill-rule:nonzero;fill:rgb(79.607843%,79.607843%,79.607843%);fill-opacity:1;" d="M 16.125 12.34375 L 15.8125 12.34375 C 15.695312 12.34375 15.582031 12.390625 15.5 12.472656 C 15.414062 12.554688 15.371094 12.667969 15.371094 12.785156 L 15.371094 13.332031 C 15.371094 13.578125 15.566406 13.777344 15.8125 13.777344 L 16.121094 13.777344 C 16.367188 13.777344 16.566406 13.578125 16.566406 13.332031 L 16.566406 12.785156 C 16.566406 12.667969 16.519531 12.554688 16.4375 12.472656 C 16.351562 12.390625 16.238281 12.34375 16.121094 12.34375 Z M 16.125 12.34375 "/>
<path style=" stroke:none;fill-rule:nonzero;fill:rgb(79.607843%,79.607843%,79.607843%);fill-opacity:1;" d="M 8.496094 10.3125 L 8.183594 10.3125 C 8.066406 10.3125 7.953125 10.355469 7.871094 10.441406 C 7.789062 10.523438 7.742188 10.632812 7.742188 10.753906 L 7.742188 11.300781 C 7.742188 11.546875 7.9375 11.746094 8.183594 11.746094 L 8.496094 11.746094 C 8.613281 11.746094 8.730469 11.699219 8.8125 11.609375 C 8.898438 11.523438 8.941406 11.40625 8.9375 11.285156 L 8.9375 10.734375 C 8.929688 10.496094 8.730469 10.3125 8.496094 10.3125 Z M 8.496094 10.3125 "/>
<path style=" stroke:none;fill-rule:nonzero;fill:rgb(79.607843%,79.607843%,79.607843%);fill-opacity:1;" d="M 10.171875 10.3125 L 9.859375 10.3125 C 9.742188 10.3125 9.628906 10.355469 9.546875 10.441406 C 9.460938 10.523438 9.414062 10.632812 9.414062 10.753906 L 9.414062 11.300781 C 9.414062 11.546875 9.613281 11.746094 9.859375 11.746094 L 10.171875 11.746094 C 10.289062 11.746094 10.402344 11.699219 10.484375 11.617188 C 10.566406 11.53125 10.613281 11.417969 10.613281 11.300781 L 10.613281 10.753906 C 10.613281 10.507812 10.414062 10.3125 10.171875 10.3125 Z M 10.171875 10.3125 "/>
<path style=" stroke:none;fill-rule:nonzero;fill:rgb(79.607843%,79.607843%,79.607843%);fill-opacity:1;" d="M 11.847656 10.3125 L 11.53125 10.3125 C 11.289062 10.3125 11.09375 10.507812 11.09375 10.753906 L 11.09375 11.300781 C 11.09375 11.417969 11.136719 11.53125 11.21875 11.617188 C 11.304688 11.699219 11.414062 11.746094 11.53125 11.746094 L 11.847656 11.746094 C 11.964844 11.746094 12.074219 11.699219 12.160156 11.617188 C 12.242188 11.53125 12.285156 11.417969 12.285156 11.300781 L 12.285156 10.753906 C 12.285156 10.507812 12.089844 10.3125 11.847656 10.3125 Z M 11.847656 10.3125 "/>
<path style=" stroke:none;fill-rule:nonzero;fill:rgb(79.607843%,79.607843%,79.607843%);fill-opacity:1;" d="M 13.519531 10.3125 L 13.210938 10.3125 C 13.09375 10.3125 12.980469 10.355469 12.898438 10.441406 C 12.8125 10.523438 12.765625 10.632812 12.765625 10.753906 L 12.765625 11.300781 C 12.765625 11.546875 12.964844 11.746094 13.210938 11.746094 L 13.519531 11.746094 C 13.765625 11.746094 13.964844 11.546875 13.964844 11.300781 L 13.964844 10.753906 C 13.964844 10.632812 13.917969 10.523438 13.832031 10.441406 C 13.75 10.355469 13.636719 10.3125 13.519531 10.3125 Z M 13.519531 10.3125 "/>
<path style=" stroke:none;fill-rule:nonzero;fill:rgb(79.607843%,79.607843%,79.607843%);fill-opacity:1;" d="M 16.050781 10.3125 L 14.835938 10.3125 C 14.71875 10.3125 14.605469 10.355469 14.523438 10.441406 C 14.4375 10.523438 14.394531 10.632812 14.394531 10.753906 L 14.394531 11.300781 C 14.394531 11.546875 14.589844 11.746094 14.835938 11.746094 L 16.050781 11.746094 C 16.171875 11.75 16.289062 11.699219 16.375 11.613281 C 16.460938 11.527344 16.503906 11.40625 16.5 11.285156 L 16.5 10.734375 C 16.492188 10.496094 16.289062 10.308594 16.050781 10.3125 Z M 16.050781 10.3125 "/>
<path style=" stroke:none;fill-rule:nonzero;fill:rgb(92.54902%,25.098039%,47.843137%);fill-opacity:1;" d="M 6.742188 10.3125 L 5.898438 10.3125 C 5.65625 10.3125 5.457031 10.507812 5.457031 10.753906 L 5.457031 11.300781 C 5.457031 11.417969 5.503906 11.53125 5.585938 11.617188 C 5.667969 11.699219 5.78125 11.746094 5.898438 11.746094 L 6.742188 11.746094 C 6.984375 11.746094 7.183594 11.546875 7.183594 11.300781 L 7.183594 10.753906 C 7.183594 10.632812 7.136719 10.523438 7.054688 10.441406 C 6.972656 10.355469 6.859375 10.3125 6.742188 10.3125 Z M 6.742188 10.3125 "/>
</g>
</svg>
