
<svg xmlns="http://www.w3.org/2000/svg" xmlns:xlink="http://www.w3.org/1999/xlink" width="22px" height="22px" viewBox="0 0 22 22" version="1.1">
<defs>
<clipPath id="clip1">
  <path d="M 10.3125 17.417969 L 18 17.417969 L 18 22 L 10.3125 22 Z M 10.3125 17.417969 "/>
</clipPath>
<clipPath id="clip2">
  <path d="M 1.851562 0 L 20.148438 0 C 21.171875 0 22 0.828125 22 1.851562 L 22 20.148438 C 22 21.171875 21.171875 22 20.148438 22 L 1.851562 22 C 0.828125 22 0 21.171875 0 20.148438 L 0 1.851562 C 0 0.828125 0.828125 0 1.851562 0 Z M 1.851562 0 "/>
</clipPath>
<clipPath id="clip3">
  <path d="M 13.519531 15.355469 L 17.1875 15.355469 L 17.1875 17.417969 L 13.519531 17.417969 Z M 13.519531 15.355469 "/>
</clipPath>
<clipPath id="clip4">
  <path d="M 1.851562 0 L 20.148438 0 C 21.171875 0 22 0.828125 22 1.851562 L 22 20.148438 C 22 21.171875 21.171875 22 20.148438 22 L 1.851562 22 C 0.828125 22 0 21.171875 0 20.148438 L 0 1.851562 C 0 0.828125 0.828125 0 1.851562 0 Z M 1.851562 0 "/>
</clipPath>
<clipPath id="clip5">
  <path d="M 16.730469 16.269531 L 17.417969 16.269531 L 17.417969 16.730469 L 16.730469 16.730469 Z M 16.730469 16.269531 "/>
</clipPath>
<clipPath id="clip6">
  <path d="M 1.851562 0 L 20.148438 0 C 21.171875 0 22 0.828125 22 1.851562 L 22 20.148438 C 22 21.171875 21.171875 22 20.148438 22 L 1.851562 22 C 0.828125 22 0 21.171875 0 20.148438 L 0 1.851562 C 0 0.828125 0.828125 0 1.851562 0 Z M 1.851562 0 "/>
</clipPath>
<clipPath id="clip7">
  <path d="M 9 16.269531 L 11 16.269531 L 11 17 L 9 17 Z M 9 16.269531 "/>
</clipPath>
<clipPath id="clip8">
  <path d="M 1.851562 0 L 20.148438 0 C 21.171875 0 22 0.828125 22 1.851562 L 22 20.148438 C 22 21.171875 21.171875 22 20.148438 22 L 1.851562 22 C 0.828125 22 0 21.171875 0 20.148438 L 0 1.851562 C 0 0.828125 0.828125 0 1.851562 0 Z M 1.851562 0 "/>
</clipPath>
<clipPath id="clip9">
  <path d="M 12.605469 16.730469 L 13 16.730469 L 13 17.1875 L 12.605469 17.1875 Z M 12.605469 16.730469 "/>
</clipPath>
<clipPath id="clip10">
  <path d="M 1.851562 0 L 20.148438 0 C 21.171875 0 22 0.828125 22 1.851562 L 22 20.148438 C 22 21.171875 21.171875 22 20.148438 22 L 1.851562 22 C 0.828125 22 0 21.171875 0 20.148438 L 0 1.851562 C 0 0.828125 0.828125 0 1.851562 0 Z M 1.851562 0 "/>
</clipPath>
<clipPath id="clip11">
  <path d="M 7.105469 14.207031 L 9.394531 14.207031 L 9.394531 16.5 L 7.105469 16.5 Z M 7.105469 14.207031 "/>
</clipPath>
<clipPath id="clip12">
  <path d="M 1.851562 0 L 20.148438 0 C 21.171875 0 22 0.828125 22 1.851562 L 22 20.148438 C 22 21.171875 21.171875 22 20.148438 22 L 1.851562 22 C 0.828125 22 0 21.171875 0 20.148438 L 0 1.851562 C 0 0.828125 0.828125 0 1.851562 0 Z M 1.851562 0 "/>
</clipPath>
<clipPath id="clip13">
  <path d="M 0 0 L 20.394531 0 L 20.394531 20.625 L 0 20.625 Z M 0 0 "/>
</clipPath>
<clipPath id="clip14">
  <path d="M 1.851562 0 L 20.148438 0 C 21.171875 0 22 0.828125 22 1.851562 L 22 20.148438 C 22 21.171875 21.171875 22 20.148438 22 L 1.851562 22 C 0.828125 22 0 21.171875 0 20.148438 L 0 1.851562 C 0 0.828125 0.828125 0 1.851562 0 Z M 1.851562 0 "/>
</clipPath>
<clipPath id="clip15">
  <path d="M 9.625 14.4375 L 11.457031 14.4375 L 11.457031 16.269531 L 9.625 16.269531 Z M 9.625 14.4375 "/>
</clipPath>
<clipPath id="clip16">
  <path d="M 1.851562 0 L 20.148438 0 C 21.171875 0 22 0.828125 22 1.851562 L 22 20.148438 C 22 21.171875 21.171875 22 20.148438 22 L 1.851562 22 C 0.828125 22 0 21.171875 0 20.148438 L 0 1.851562 C 0 0.828125 0.828125 0 1.851562 0 Z M 1.851562 0 "/>
</clipPath>
<clipPath id="clip17">
  <path d="M 11.917969 15 L 12.605469 15 L 12.605469 15.582031 L 11.917969 15.582031 Z M 11.917969 15 "/>
</clipPath>
<clipPath id="clip18">
  <path d="M 1.851562 0 L 20.148438 0 C 21.171875 0 22 0.828125 22 1.851562 L 22 20.148438 C 22 21.171875 21.171875 22 20.148438 22 L 1.851562 22 C 0.828125 22 0 21.171875 0 20.148438 L 0 1.851562 C 0 0.828125 0.828125 0 1.851562 0 Z M 1.851562 0 "/>
</clipPath>
<clipPath id="clip19">
  <path d="M 12.832031 15 L 13.292969 15 L 13.292969 15.582031 L 12.832031 15.582031 Z M 12.832031 15 "/>
</clipPath>
<clipPath id="clip20">
  <path d="M 1.851562 0 L 20.148438 0 C 21.171875 0 22 0.828125 22 1.851562 L 22 20.148438 C 22 21.171875 21.171875 22 20.148438 22 L 1.851562 22 C 0.828125 22 0 21.171875 0 20.148438 L 0 1.851562 C 0 0.828125 0.828125 0 1.851562 0 Z M 1.851562 0 "/>
</clipPath>
<clipPath id="clip21">
  <path d="M 11.457031 15.355469 L 12.375 15.355469 L 12.375 16.5 L 11.457031 16.5 Z M 11.457031 15.355469 "/>
</clipPath>
<clipPath id="clip22">
  <path d="M 1.851562 0 L 20.148438 0 C 21.171875 0 22 0.828125 22 1.851562 L 22 20.148438 C 22 21.171875 21.171875 22 20.148438 22 L 1.851562 22 C 0.828125 22 0 21.171875 0 20.148438 L 0 1.851562 C 0 0.828125 0.828125 0 1.851562 0 Z M 1.851562 0 "/>
</clipPath>
<clipPath id="clip23">
  <path d="M 9.394531 9.394531 L 10 9.394531 L 10 10.082031 L 9.394531 10.082031 Z M 9.394531 9.394531 "/>
</clipPath>
<clipPath id="clip24">
  <path d="M 1.851562 0 L 20.148438 0 C 21.171875 0 22 0.828125 22 1.851562 L 22 20.148438 C 22 21.171875 21.171875 22 20.148438 22 L 1.851562 22 C 0.828125 22 0 21.171875 0 20.148438 L 0 1.851562 C 0 0.828125 0.828125 0 1.851562 0 Z M 1.851562 0 "/>
</clipPath>
<clipPath id="clip25">
  <path d="M 7.792969 12.832031 L 9.394531 12.832031 L 9.394531 13.980469 L 7.792969 13.980469 Z M 7.792969 12.832031 "/>
</clipPath>
<clipPath id="clip26">
  <path d="M 1.851562 0 L 20.148438 0 C 21.171875 0 22 0.828125 22 1.851562 L 22 20.148438 C 22 21.171875 21.171875 22 20.148438 22 L 1.851562 22 C 0.828125 22 0 21.171875 0 20.148438 L 0 1.851562 C 0 0.828125 0.828125 0 1.851562 0 Z M 1.851562 0 "/>
</clipPath>
<clipPath id="clip27">
  <path d="M 11.6875 5.269531 L 13.980469 5.269531 L 13.980469 8 L 11.6875 8 Z M 11.6875 5.269531 "/>
</clipPath>
<clipPath id="clip28">
  <path d="M 1.851562 0 L 20.148438 0 C 21.171875 0 22 0.828125 22 1.851562 L 22 20.148438 C 22 21.171875 21.171875 22 20.148438 22 L 1.851562 22 C 0.828125 22 0 21.171875 0 20.148438 L 0 1.851562 C 0 0.828125 0.828125 0 1.851562 0 Z M 1.851562 0 "/>
</clipPath>
<clipPath id="clip29">
  <path d="M 11.230469 7.5625 L 11.917969 7.5625 L 11.917969 8.480469 L 11.230469 8.480469 Z M 11.230469 7.5625 "/>
</clipPath>
<clipPath id="clip30">
  <path d="M 1.851562 0 L 20.148438 0 C 21.171875 0 22 0.828125 22 1.851562 L 22 20.148438 C 22 21.171875 21.171875 22 20.148438 22 L 1.851562 22 C 0.828125 22 0 21.171875 0 20.148438 L 0 1.851562 C 0 0.828125 0.828125 0 1.851562 0 Z M 1.851562 0 "/>
</clipPath>
<clipPath id="clip31">
  <path d="M 9.855469 12.375 L 10.769531 12.375 L 10.769531 13 L 9.855469 13 Z M 9.855469 12.375 "/>
</clipPath>
<clipPath id="clip32">
  <path d="M 1.851562 0 L 20.148438 0 C 21.171875 0 22 0.828125 22 1.851562 L 22 20.148438 C 22 21.171875 21.171875 22 20.148438 22 L 1.851562 22 C 0.828125 22 0 21.171875 0 20.148438 L 0 1.851562 C 0 0.828125 0.828125 0 1.851562 0 Z M 1.851562 0 "/>
</clipPath>
<clipPath id="clip33">
  <path d="M 9.394531 10.542969 L 10.3125 10.542969 L 10.3125 11.917969 L 9.394531 11.917969 Z M 9.394531 10.542969 "/>
</clipPath>
<clipPath id="clip34">
  <path d="M 1.851562 0 L 20.148438 0 C 21.171875 0 22 0.828125 22 1.851562 L 22 20.148438 C 22 21.171875 21.171875 22 20.148438 22 L 1.851562 22 C 0.828125 22 0 21.171875 0 20.148438 L 0 1.851562 C 0 0.828125 0.828125 0 1.851562 0 Z M 1.851562 0 "/>
</clipPath>
<clipPath id="clip35">
  <path d="M 10 12.144531 L 10.3125 12.144531 L 10.3125 12.605469 L 10 12.605469 Z M 10 12.144531 "/>
</clipPath>
<clipPath id="clip36">
  <path d="M 1.851562 0 L 20.148438 0 C 21.171875 0 22 0.828125 22 1.851562 L 22 20.148438 C 22 21.171875 21.171875 22 20.148438 22 L 1.851562 22 C 0.828125 22 0 21.171875 0 20.148438 L 0 1.851562 C 0 0.828125 0.828125 0 1.851562 0 Z M 1.851562 0 "/>
</clipPath>
<clipPath id="clip37">
  <path d="M 2.292969 12.375 L 2.75 12.375 L 2.75 13 L 2.292969 13 Z M 2.292969 12.375 "/>
</clipPath>
<clipPath id="clip38">
  <path d="M 1.851562 0 L 20.148438 0 C 21.171875 0 22 0.828125 22 1.851562 L 22 20.148438 C 22 21.171875 21.171875 22 20.148438 22 L 1.851562 22 C 0.828125 22 0 21.171875 0 20.148438 L 0 1.851562 C 0 0.828125 0.828125 0 1.851562 0 Z M 1.851562 0 "/>
</clipPath>
</defs>
<g id="surface1">
<path style=" stroke:none;fill-rule:nonzero;fill:rgb(49.411765%,34.117647%,76.862745%);fill-opacity:1;" d="M 1.851562 0 L 20.148438 0 C 21.171875 0 22 0.828125 22 1.851562 L 22 20.148438 C 22 21.171875 21.171875 22 20.148438 22 L 1.851562 22 C 0.828125 22 0 21.171875 0 20.148438 L 0 1.851562 C 0 0.828125 0.828125 0 1.851562 0 Z M 1.851562 0 "/>
<g clip-path="url(#clip1)" clip-rule="nonzero">
<g clip-path="url(#clip2)" clip-rule="nonzero">
<path style=" stroke:none;fill-rule:nonzero;fill:rgb(27.058824%,89.019608%,100%);fill-opacity:1;" d="M 17.742188 20.28125 L 17.203125 19.542969 C 17.191406 19.457031 17.121094 19.390625 17.035156 19.378906 L 17.015625 19.378906 C 16.921875 19.152344 16.734375 18.976562 16.5 18.898438 C 16.503906 18.878906 16.503906 18.855469 16.5 18.832031 C 16.652344 18.609375 16.546875 18.445312 16.375 18.296875 L 16.265625 18.167969 C 15.867188 18.113281 16.039062 17.597656 15.726562 17.457031 C 15.589844 17.628906 15.652344 17.800781 15.660156 17.957031 C 15.464844 18.664062 15.199219 18.71875 14.585938 18.175781 C 14.554688 18.148438 14.511719 18.140625 14.476562 18.15625 C 14.40625 17.976562 14.597656 17.9375 14.667969 17.8125 C 14.738281 17.46875 14.492188 17.660156 14.371094 17.636719 L 14.144531 17.53125 C 14.113281 17.546875 14.074219 17.539062 14.050781 17.511719 L 13.933594 17.605469 L 13.628906 17.605469 C 13.605469 17.628906 13.589844 17.65625 13.585938 17.6875 C 13.558594 17.683594 13.53125 17.699219 13.523438 17.722656 C 13.355469 17.820312 13.453125 18.167969 13.140625 18.121094 C 12.796875 17.746094 12.605469 17.992188 12.453125 18.316406 C 12.425781 18.328125 12.394531 18.335938 12.363281 18.335938 C 12.332031 18.53125 11.886719 18.441406 12.046875 18.78125 L 11.628906 19.105469 C 11.34375 19.238281 10.988281 19.21875 10.769531 19.496094 C 10.378906 19.59375 10.460938 19.90625 10.460938 20.183594 C 10.46875 20.351562 10.503906 20.523438 10.570312 20.679688 C 10.589844 20.8125 10.667969 20.929688 10.785156 21 C 10.785156 21.253906 10.902344 21.484375 10.90625 21.746094 C 10.914062 22.007812 11.082031 22.226562 11.417969 22.050781 C 11.589844 21.988281 11.6875 21.761719 11.917969 21.832031 C 11.917969 21.804688 11.953125 21.78125 11.96875 21.75 L 12.265625 21.75 C 12.429688 21.78125 12.453125 21.652344 12.496094 21.542969 L 12.691406 21.441406 C 13.175781 21.199219 13.734375 21.164062 14.246094 21.335938 C 14.394531 21.480469 14.324219 21.859375 14.695312 21.753906 C 14.828125 21.796875 14.921875 21.914062 14.933594 22.050781 L 15.113281 22.074219 C 15.277344 22.585938 15.574219 22.867188 16.144531 22.707031 C 16.179688 22.707031 16.230469 22.75 16.277344 22.773438 C 16.886719 22.839844 17.089844 22.429688 17.242188 21.957031 C 17.375 21.898438 17.5 21.824219 17.457031 21.644531 L 17.632812 21.316406 C 17.632812 21.253906 17.632812 21.1875 17.652344 21.128906 L 17.703125 21.128906 C 17.925781 21 17.898438 20.785156 17.894531 20.578125 C 17.882812 20.460938 17.828125 20.355469 17.742188 20.28125 Z M 16.367188 20.910156 Z M 14.480469 18.90625 Z M 14.480469 18.816406 L 14.480469 18.796875 Z M 16.394531 19.109375 Z M 16.394531 19.109375 "/>
</g>
</g>
<g clip-path="url(#clip3)" clip-rule="nonzero">
<g clip-path="url(#clip4)" clip-rule="nonzero">
<path style=" stroke:none;fill-rule:nonzero;fill:rgb(27.058824%,89.019608%,100%);fill-opacity:1;" d="M 16.289062 16.425781 C 16.289062 16.128906 16.0625 16.082031 15.851562 16.046875 C 15.675781 16 15.457031 16.003906 15.335938 15.898438 C 14.992188 15.613281 14.75 15.746094 14.476562 15.953125 C 14.394531 15.953125 14.273438 15.953125 14.253906 15.855469 C 14.183594 15.398438 13.933594 15.4375 13.625 15.617188 C 13.644531 15.644531 13.660156 15.675781 13.664062 15.710938 C 13.925781 15.894531 14.136719 16.160156 14.476562 16.21875 L 14.792969 16.324219 L 15.03125 16.667969 C 15.03125 16.746094 14.878906 16.804688 15.003906 16.902344 C 15.144531 16.808594 15.222656 16.933594 15.320312 16.996094 C 15.417969 17.078125 15.546875 17.113281 15.671875 17.085938 C 15.800781 17.058594 15.902344 16.972656 15.957031 16.855469 L 16.273438 16.855469 C 16.375 16.890625 16.390625 16.972656 16.386719 17.066406 C 16.550781 17.148438 16.652344 17.355469 16.882812 17.308594 C 16.96875 17.308594 17.089844 17.195312 17.027344 17.175781 C 16.652344 17.046875 16.769531 16.441406 16.289062 16.425781 Z M 16.289062 16.425781 "/>
</g>
</g>
<g clip-path="url(#clip5)" clip-rule="nonzero">
<g clip-path="url(#clip6)" clip-rule="nonzero">
<path style=" stroke:none;fill-rule:nonzero;fill:rgb(27.058824%,89.019608%,100%);fill-opacity:1;" d="M 17.332031 16.320312 C 17.1875 16.40625 16.988281 16.296875 16.84375 16.472656 C 16.957031 16.589844 17.097656 16.554688 17.226562 16.566406 C 17.1875 16.457031 17.570312 16.523438 17.332031 16.320312 Z M 17.332031 16.320312 "/>
</g>
</g>
<g clip-path="url(#clip7)" clip-rule="nonzero">
<g clip-path="url(#clip8)" clip-rule="nonzero">
<path style=" stroke:none;fill-rule:nonzero;fill:rgb(27.058824%,89.019608%,100%);fill-opacity:1;" d="M 10.875 16.894531 L 10.441406 16.796875 C 10.28125 16.707031 10.128906 16.574219 9.925781 16.675781 L 9.140625 16.46875 C 9.183594 16.941406 9.53125 16.847656 9.828125 16.835938 C 10.011719 16.8125 10.125 17.058594 10.324219 16.96875 L 10.761719 17 Z M 10.875 16.894531 "/>
</g>
</g>
<g clip-path="url(#clip9)" clip-rule="nonzero">
<g clip-path="url(#clip10)" clip-rule="nonzero">
<path style=" stroke:none;fill-rule:nonzero;fill:rgb(27.058824%,89.019608%,100%);fill-opacity:1;" d="M 12.636719 17.105469 L 12.980469 16.988281 C 12.8125 16.84375 12.648438 16.757812 12.636719 17.105469 Z M 12.636719 17.105469 "/>
</g>
</g>
<g clip-path="url(#clip11)" clip-rule="nonzero">
<g clip-path="url(#clip12)" clip-rule="nonzero">
<path style=" stroke:none;fill-rule:nonzero;fill:rgb(27.058824%,89.019608%,100%);fill-opacity:1;" d="M 9.207031 15.933594 C 9.300781 15.898438 9.289062 15.835938 9.238281 15.777344 C 9.132812 15.652344 9.066406 15.804688 8.980469 15.824219 L 8.878906 15.707031 L 8.777344 15.605469 C 8.726562 15.511719 8.835938 15.351562 8.652344 15.3125 C 8.582031 15.285156 8.476562 15.3125 8.449219 15.191406 C 8.425781 15.195312 8.402344 15.195312 8.378906 15.191406 C 8.378906 15.15625 8.378906 15.125 8.378906 15.089844 C 8.25 14.886719 8.089844 14.703125 7.90625 14.539062 C 7.734375 14.375 7.542969 14.246094 7.3125 14.464844 C 7.691406 14.996094 8.078125 15.519531 8.460938 16.046875 C 8.628906 16.285156 8.804688 16.511719 9.148438 16.460938 L 9.230469 15.9375 Z M 9.207031 15.933594 "/>
</g>
</g>
<g clip-path="url(#clip13)" clip-rule="nonzero">
<g clip-path="url(#clip14)" clip-rule="nonzero">
<path style=" stroke:none;fill-rule:nonzero;fill:rgb(27.058824%,89.019608%,100%);fill-opacity:1;" d="M 20.207031 1.03125 L 20.164062 0.929688 C 20.183594 0.742188 19.894531 0.6875 19.980469 0.476562 C 20.0625 0.476562 20.140625 0.476562 20.183594 0.398438 L 20.28125 0.398438 L 20.28125 0.1875 C 20.308594 0.167969 20.324219 0.132812 20.320312 0.0976562 C 20.332031 -0.0273438 20.316406 -0.15625 20.28125 -0.273438 C 20.28125 -0.359375 20.28125 -0.449219 20.28125 -0.539062 C 20.332031 -0.644531 20.332031 -0.761719 20.28125 -0.867188 C 19.890625 -1.050781 19.453125 -1.125 19.023438 -1.085938 C 18.792969 -1.191406 18.550781 -1.335938 18.679688 -0.863281 C 18.738281 -0.65625 18.570312 -0.730469 18.464844 -0.753906 L 18.28125 -0.753906 C 18.179688 -1.027344 18.035156 -1.097656 17.820312 -0.855469 C 17.792969 -0.847656 17.765625 -0.847656 17.738281 -0.855469 C 17.53125 -1.160156 17.277344 -1.03125 17.015625 -0.976562 C 16.628906 -0.871094 16.753906 -1.441406 16.429688 -1.421875 C 16.21875 -1.550781 15.953125 -1.550781 15.742188 -1.421875 L 15.539062 -1.375 L 14.78125 -1.78125 C 14.542969 -2.058594 14.203125 -1.722656 13.953125 -1.921875 C 13.746094 -1.921875 13.589844 -2.191406 13.351562 -2.039062 C 13.3125 -1.914062 13.117188 -1.980469 13.101562 -1.828125 C 13.082031 -1.675781 12.875 -1.714844 12.792969 -1.609375 L 12.683594 -1.582031 C 12.230469 -1.78125 11.832031 -1.546875 11.417969 -1.425781 C 11.292969 -1.425781 11.246094 -1.535156 11.183594 -1.621094 C 11.148438 -1.75 11.03125 -1.839844 10.902344 -1.839844 L 10.785156 -2.046875 C 10.867188 -2.070312 10.992188 -2.160156 10.96875 -2.167969 C 10.71875 -2.226562 10.425781 -2.570312 10.246094 -2.351562 C 10.011719 -2.0625 9.761719 -2.183594 9.519531 -2.136719 C 9.289062 -2.261719 9.082031 -2.480469 8.777344 -2.359375 C 8.722656 -2.390625 8.6875 -2.359375 8.660156 -2.316406 L 8.410156 -2.265625 C 8.390625 -2.328125 8.367188 -2.386719 8.34375 -2.445312 C 8.203125 -2.339844 8.066406 -2.480469 7.921875 -2.445312 L 7.921875 -2.480469 C 7.773438 -2.539062 7.644531 -2.429688 7.503906 -2.417969 L 7.53125 -2.457031 L 7.601562 -2.457031 C 7.734375 -2.472656 7.851562 -2.550781 7.917969 -2.664062 C 8.035156 -2.714844 8.152344 -2.78125 8.261719 -2.851562 C 8.464844 -3.015625 8.5625 -3.195312 8.222656 -3.320312 C 7.992188 -3.535156 7.640625 -3.5625 7.378906 -3.390625 L 6.875 -3.824219 C 6.496094 -3.851562 6.1875 -3.78125 6.207031 -3.324219 L 5.5 -3.191406 L 5.316406 -3.222656 C 4.773438 -3.25 4.230469 -3.128906 3.746094 -2.878906 C 3.621094 -2.773438 3.746094 -2.515625 3.492188 -2.488281 L 3.292969 -2.488281 C 3.191406 -2.414062 3.070312 -2.460938 2.949219 -2.425781 L 2.917969 -2.40625 C 2.828125 -2.449219 2.722656 -2.449219 2.632812 -2.40625 C 2.40625 -2.230469 2.484375 -2.0625 2.851562 -1.859375 L 2.832031 -1.859375 L 2.832031 -1.832031 C 2.9375 -1.738281 2.925781 -1.617188 2.933594 -1.488281 C 2.898438 -1.566406 2.863281 -1.644531 2.835938 -1.726562 C 2.683594 -1.707031 2.53125 -1.746094 2.40625 -1.828125 C 2.332031 -1.921875 2.207031 -1.949219 2.101562 -1.902344 L 1.667969 -1.808594 C 1.523438 -1.847656 1.371094 -1.8125 1.253906 -1.71875 C 1.214844 -1.617188 1.273438 -1.554688 1.324219 -1.488281 L 1.261719 -1.390625 C 1.089844 -1.046875 1.148438 -0.816406 1.511719 -0.742188 C 1.476562 -0.71875 1.460938 -0.664062 1.472656 -0.558594 C 1.472656 -0.492188 1.449219 -0.425781 1.4375 -0.359375 C 1.234375 -0.0625 0.863281 0.0742188 0.515625 -0.015625 C 0.542969 -0.234375 0.9375 -0.015625 0.882812 -0.324219 L 0.976562 -0.417969 C 1.28125 -0.761719 0.949219 -1.144531 1.078125 -1.5 L 0.941406 -1.601562 C 0.933594 -1.636719 0.933594 -1.671875 0.941406 -1.707031 C 1.105469 -1.804688 1.035156 -1.957031 1.027344 -2.09375 C 0.757812 -2.089844 0.40625 -2.195312 0.40625 -1.71875 C 0.230469 -1.675781 -0.0078125 -1.71875 0.0820312 -1.394531 C 0.222656 -1.238281 -0.09375 -1.148438 0.0195312 -0.992188 C 0.0390625 -0.949219 0.0585938 -0.90625 0.0820312 -0.867188 C 0.0195312 -0.894531 -0.0507812 -0.90625 -0.117188 -0.894531 C -0.3125 -0.816406 -0.460938 -1.011719 -0.644531 -0.992188 C -0.773438 -1.128906 -0.898438 -1.160156 -1.011719 -0.992188 C -0.941406 -0.824219 -1.121094 -0.785156 -1.175781 -0.6875 C -1.246094 -0.648438 -1.3125 -0.796875 -1.386719 -0.6875 C -1.671875 -0.773438 -1.976562 -0.738281 -2.230469 -0.585938 C -2.449219 -1.023438 -2.652344 -0.585938 -2.867188 -0.585938 L -3.339844 -0.386719 C -3.480469 -0.0429688 -3.707031 -0.210938 -3.914062 -0.285156 C -3.914062 -0.394531 -3.914062 -0.46875 -3.773438 -0.476562 C -3.5625 -0.476562 -3.640625 -0.601562 -3.714844 -0.699219 C -3.855469 -0.742188 -4.003906 -0.8125 -4.058594 -0.589844 C -4.105469 -0.441406 -4.171875 -0.292969 -4.023438 -0.164062 C -4.0625 -0.117188 -4.101562 -0.0703125 -4.140625 -0.0234375 L -4.445312 -0.046875 C -4.53125 0.0078125 -4.6875 -0.046875 -4.679688 0.136719 L -4.714844 0.136719 C -4.824219 0.214844 -4.871094 0.351562 -4.835938 0.480469 L -4.894531 0.5 C -5.019531 0.5 -5.132812 0.320312 -5.261719 0.476562 C -5.300781 0.527344 -5.261719 0.566406 -5.207031 0.585938 C -5.203125 0.617188 -5.203125 0.652344 -5.207031 0.683594 C -5.550781 0.683594 -5.84375 0.605469 -5.828125 0.164062 C -5.859375 0.109375 -5.890625 0.0546875 -5.925781 0.00390625 C -6.003906 -0.0625 -6.105469 -0.109375 -6.140625 -0.21875 C -6.113281 -0.222656 -6.085938 -0.234375 -6.066406 -0.25 C -6.03125 -0.15625 -5.945312 -0.0898438 -5.84375 -0.0820312 L -5.789062 -0.0820312 C -5.738281 -0.0195312 -5.675781 0.03125 -5.601562 0.0664062 C -5.371094 0.132812 -5.132812 0.289062 -4.914062 0.0664062 C -4.851562 0.00390625 -4.789062 -0.0625 -4.734375 -0.128906 L -4.695312 -0.160156 L -4.652344 -0.226562 C -4.683594 -0.359375 -4.714844 -0.503906 -4.890625 -0.527344 C -5.066406 -0.550781 -5.234375 -0.757812 -5.425781 -0.839844 C -5.46875 -0.933594 -5.542969 -0.917969 -5.625 -0.894531 C -5.632812 -0.886719 -5.640625 -0.878906 -5.644531 -0.867188 C -5.777344 -0.914062 -5.941406 -0.839844 -6.058594 -0.972656 C -6.089844 -0.96875 -6.125 -0.96875 -6.15625 -0.972656 C -6.15625 -1 -6.15625 -1.03125 -6.15625 -1.058594 L -6.355469 -1.058594 L -6.480469 -1.1875 C -6.457031 -1.214844 -6.457031 -1.257812 -6.480469 -1.285156 C -6.847656 -1.53125 -7.246094 -1.335938 -7.628906 -1.363281 L -8.25 -0.996094 L -8.574219 -0.886719 C -8.976562 -0.859375 -9.082031 -0.492188 -9.308594 -0.253906 C -9.707031 -0.207031 -9.695312 0.113281 -9.753906 0.386719 L -9.851562 0.480469 L -10.140625 0.609375 L -10.160156 0.714844 L -10.402344 0.902344 C -10.632812 0.902344 -10.746094 1.109375 -10.917969 1.199219 C -11.167969 1.570312 -10.945312 1.914062 -10.859375 2.269531 C -10.640625 2.351562 -10.394531 2.261719 -10.273438 2.0625 L -9.96875 1.996094 C -9.96875 2.234375 -9.871094 2.457031 -9.695312 2.617188 C -9.695312 2.765625 -9.761719 2.867188 -9.933594 2.855469 C -9.929688 2.898438 -9.910156 2.941406 -9.875 2.96875 C -9.839844 2.996094 -9.796875 3.007812 -9.753906 3 C -9.699219 3.019531 -9.644531 2.992188 -9.625 2.941406 C -9.601562 2.964844 -9.574219 2.980469 -9.546875 2.988281 C -8.925781 2.882812 -8.769531 2.675781 -8.949219 2.171875 L -8.914062 2.171875 C -8.753906 2.171875 -8.617188 2.136719 -8.605469 1.933594 C -8.613281 1.917969 -8.617188 1.902344 -8.625 1.882812 C -8.554688 1.714844 -8.667969 1.6875 -8.765625 1.652344 C -8.792969 1.605469 -8.800781 1.550781 -8.792969 1.496094 C -8.796875 1.429688 -8.828125 1.371094 -8.875 1.328125 L -8.761719 1.042969 L -8.417969 0.824219 L -8.25 0.824219 C -8.1875 0.777344 -8.148438 0.710938 -8.140625 0.632812 C -8.140625 0.632812 -8.140625 0.609375 -8.140625 0.597656 C -8.082031 0.46875 -8.15625 0.28125 -8.019531 0.183594 L -7.488281 0.167969 C -7.269531 0.472656 -7.722656 0.488281 -7.722656 0.699219 C -7.863281 0.828125 -8.125 0.851562 -8.117188 1.128906 C -8.097656 1.300781 -8.140625 1.472656 -8.015625 1.636719 L -7.808594 1.789062 C -7.699219 1.816406 -7.585938 1.832031 -7.464844 1.859375 L -7.429688 1.859375 C -7.488281 1.875 -7.546875 1.910156 -7.589844 1.957031 C -7.683594 1.992188 -7.734375 2.078125 -7.683594 2.15625 C -7.339844 2.691406 -7.765625 2.519531 -8.003906 2.519531 C -8.203125 2.617188 -8.164062 2.765625 -8.101562 2.925781 C -8.101562 3.136719 -8.371094 3.082031 -8.425781 3.242188 L -8.628906 3.222656 C -8.75 3.082031 -8.851562 3.179688 -8.953125 3.253906 C -9.1875 3.375 -9.46875 3.367188 -9.699219 3.234375 C -9.773438 3.34375 -9.925781 3.375 -10.042969 3.308594 C -10.066406 3.265625 -10.101562 3.234375 -10.140625 3.207031 C -10.164062 3.203125 -10.1875 3.203125 -10.214844 3.207031 C -10.257812 3.027344 -10.1875 2.835938 -10.035156 2.730469 L -10.011719 2.617188 C -10.035156 2.542969 -9.992188 2.394531 -10.097656 2.417969 C -10.199219 2.445312 -10.421875 2.507812 -10.414062 2.730469 C -10.484375 2.917969 -10.363281 3.074219 -10.320312 3.25 C -10.320312 3.308594 -10.347656 3.375 -10.355469 3.4375 C -10.6875 3.390625 -11.019531 3.542969 -11.195312 3.828125 C -11.292969 3.988281 -11.445312 3.992188 -11.59375 4.027344 C -11.777344 3.609375 -12.042969 3.238281 -12.375 2.933594 C -12.402344 2.886719 -12.460938 2.820312 -12.449219 2.796875 C -12.171875 2.371094 -12.613281 2.324219 -12.792969 2.296875 C -13.023438 2.257812 -12.976562 2.542969 -13.011719 2.707031 C -12.828125 2.84375 -12.792969 3.117188 -12.585938 3.226562 C -12.644531 3.332031 -12.738281 3.425781 -12.726562 3.570312 L -12.707031 3.609375 L -12.902344 3.890625 C -12.890625 3.917969 -12.867188 3.9375 -12.839844 3.945312 C -12.8125 3.953125 -12.78125 3.945312 -12.761719 3.925781 C -12.761719 4.0625 -12.78125 4.199219 -12.589844 4.207031 C -12.542969 4.171875 -12.488281 4.144531 -12.433594 4.128906 C -12.3125 4.175781 -12.179688 4.175781 -12.0625 4.128906 L -11.859375 4.085938 L -11.636719 4.109375 C -11.636719 4.144531 -11.636719 4.183594 -11.636719 4.222656 C -11.785156 4.476562 -12.125 4.339844 -12.324219 4.535156 C -12.40625 4.652344 -12.648438 4.507812 -12.667969 4.738281 L -12.324219 5.164062 C -12.246094 5.335938 -12.246094 5.535156 -12.324219 5.710938 C -12.359375 5.730469 -12.382812 5.773438 -12.375 5.816406 C -12.765625 5.742188 -13.167969 5.734375 -13.5625 5.789062 C -13.742188 6.175781 -13.582031 6.582031 -13.644531 6.972656 C -13.644531 7.316406 -13.363281 7.074219 -13.246094 7.175781 C -13.246094 7.15625 -13.246094 7.132812 -13.246094 7.117188 C -13.148438 7.191406 -13.085938 7.328125 -12.933594 7.3125 C -12.808594 7.183594 -12.628906 7.242188 -12.480469 7.195312 C -12.445312 7.203125 -12.40625 7.210938 -12.371094 7.226562 C -12.246094 7.210938 -12.152344 7.109375 -12.152344 6.984375 C -11.769531 6.683594 -11.480469 6.28125 -11.3125 5.828125 C -11.273438 5.847656 -11.234375 5.867188 -11.195312 5.894531 C -10.910156 5.984375 -10.601562 5.90625 -10.390625 5.691406 L -10.359375 5.660156 C -10.300781 5.664062 -10.242188 5.652344 -10.191406 5.617188 C -10.105469 5.886719 -9.894531 6.101562 -9.625 6.1875 L -9.324219 6.339844 L -9.085938 6.625 C -9.113281 6.757812 -9.195312 6.875 -9.316406 6.945312 C -9.433594 6.976562 -9.582031 6.800781 -9.660156 6.980469 C -9.660156 7.003906 -9.5 7.105469 -9.414062 7.175781 C -9.253906 7.175781 -9.15625 7.117188 -9.246094 6.9375 C -9.027344 6.882812 -8.839844 6.800781 -8.902344 6.519531 L -8.867188 6.519531 C -8.90625 6.257812 -9.023438 6.082031 -9.320312 6.105469 C -9.480469 6.054688 -9.460938 5.878906 -9.550781 5.761719 C -9.621094 5.683594 -9.683594 5.597656 -9.734375 5.507812 L -9.699219 5.488281 C -9.371094 5.386719 -9.289062 5.851562 -8.980469 5.796875 L -8.945312 5.777344 L -8.476562 6.078125 C -8.441406 6.207031 -8.535156 6.371094 -8.398438 6.480469 C -8.410156 6.585938 -8.355469 6.691406 -8.257812 6.734375 L -8.25 6.734375 C -8.21875 6.828125 -8.089844 6.890625 -8.171875 7.015625 C -8.035156 7.160156 -7.945312 7.160156 -7.808594 6.980469 C -7.601562 6.714844 -7.945312 6.664062 -7.957031 6.492188 C -7.796875 6.261719 -7.554688 6.28125 -7.316406 6.273438 C -7.226562 6.371094 -7.296875 6.566406 -7.125 6.617188 C -7.125 6.714844 -7.230469 6.820312 -7.097656 6.902344 C -6.964844 7.1875 -6.753906 7.300781 -6.460938 7.136719 C -6.429688 7.132812 -6.398438 7.121094 -6.367188 7.109375 C -6.199219 7.1875 -6.023438 7.382812 -5.855469 7.109375 C -5.761719 7.21875 -5.535156 7.109375 -5.511719 7.316406 C -5.566406 7.699219 -5.722656 8.0625 -5.964844 8.367188 L -6.152344 8.367188 C -6.285156 8.222656 -6.5 8.183594 -6.671875 8.277344 C -6.96875 8.355469 -7.28125 8.332031 -7.5625 8.21875 C -7.84375 8.125 -8.175781 7.644531 -8.367188 8.316406 C -8.367188 8.347656 -8.382812 8.382812 -8.390625 8.417969 C -8.808594 8.535156 -9.078125 8.207031 -9.421875 8.074219 L -10.039062 7.875 C -10.15625 7.792969 -10.195312 7.695312 -10.089844 7.574219 C -9.949219 7.292969 -10.042969 7.132812 -10.355469 7.128906 C -10.664062 7.125 -10.871094 7.160156 -11.128906 7.179688 C -11.554688 7.132812 -11.980469 7.253906 -12.308594 7.523438 C -12.320312 7.519531 -12.332031 7.519531 -12.34375 7.527344 C -12.351562 7.53125 -12.363281 7.539062 -12.363281 7.550781 C -12.535156 7.40625 -12.742188 7.496094 -12.933594 7.464844 L -12.933594 7.425781 C -13.15625 7.523438 -13.246094 7.863281 -13.566406 7.796875 C -13.738281 7.992188 -13.8125 8.257812 -13.769531 8.519531 C -13.914062 8.894531 -14.5 8.863281 -14.535156 9.347656 L -14.730469 9.589844 C -14.757812 9.585938 -14.789062 9.585938 -14.820312 9.589844 C -14.738281 9.839844 -15.164062 10 -14.996094 10.277344 L -15.039062 10.378906 C -15.078125 10.691406 -14.976562 11.015625 -15.144531 11.316406 C -15.148438 11.339844 -15.148438 11.367188 -15.144531 11.390625 C -14.964844 11.636719 -15.058594 12.019531 -14.734375 12.191406 C -14.535156 12.292969 -14.457031 12.503906 -14.328125 12.660156 L -14.109375 12.964844 L -14.007812 12.964844 C -13.691406 13.046875 -13.457031 13.507812 -13.054688 13.167969 C -12.824219 13.128906 -12.585938 13.164062 -12.375 13.269531 L -11.527344 12.953125 L -11.105469 12.953125 L -11 13.0625 C -10.972656 13.386719 -10.742188 13.257812 -10.566406 13.253906 L -10.464844 13.28125 L -10.261719 13.3125 L -10.160156 13.488281 C -10.320312 14.074219 -10.351562 14.625 -9.746094 15 C -9.585938 15.429688 -9.507812 15.882812 -9.515625 16.339844 C -9.78125 16.429688 -9.671875 16.730469 -9.820312 16.886719 L -9.820312 16.976562 C -9.90625 17.558594 -9.417969 17.945312 -9.308594 18.457031 C -9.308594 18.574219 -9.351562 18.699219 -9.21875 18.800781 C -9.210938 18.828125 -9.210938 18.859375 -9.21875 18.890625 C -9.371094 19.054688 -9.179688 19.121094 -9.121094 19.234375 C -8.9375 19.578125 -8.675781 19.894531 -8.691406 20.324219 C -8.691406 20.46875 -8.597656 20.542969 -8.464844 20.574219 C -8.476562 20.585938 -8.476562 20.605469 -8.464844 20.621094 L -8.347656 20.621094 L -8.347656 20.578125 C -7.839844 20.417969 -7.203125 20.660156 -6.84375 20.070312 C -6.546875 20.011719 -6.464844 19.75 -6.320312 19.539062 L -6.234375 19.539062 C -6.078125 19.359375 -6.058594 19.09375 -6.1875 18.894531 C -6.183594 18.871094 -6.195312 18.851562 -6.214844 18.84375 C -5.964844 18.84375 -5.8125 18.648438 -5.597656 18.574219 C -5.671875 18.046875 -5.738281 17.523438 -5.140625 17.230469 C -5.027344 17.246094 -4.921875 17.199219 -4.855469 17.113281 L -4.714844 17.003906 C -4.683594 16.863281 -4.660156 16.722656 -4.632812 16.582031 C -4.359375 16.195312 -4.675781 15.851562 -4.714844 15.480469 C -4.863281 15.21875 -4.683594 14.945312 -4.734375 14.679688 C -4.621094 14.492188 -4.390625 14.390625 -4.34375 14.152344 L -4.3125 14.050781 C -4.082031 14.050781 -3.96875 13.824219 -3.792969 13.726562 C -3.394531 13.4375 -3.097656 13.03125 -2.945312 12.5625 C -2.761719 12.417969 -2.867188 12.21875 -2.847656 12.039062 C -3.210938 11.882812 -3.632812 11.957031 -3.914062 12.230469 C -4.15625 12.132812 -4.199219 11.886719 -4.300781 11.691406 L -4.34375 11.691406 C -4.414062 11.574219 -4.519531 11.480469 -4.644531 11.421875 L -4.957031 11.277344 C -4.953125 11.246094 -4.953125 11.210938 -4.957031 11.179688 C -5.128906 10.53125 -5.40625 9.914062 -5.777344 9.355469 L -5.894531 9.066406 L -5.671875 8.859375 C -5.640625 8.847656 -5.609375 8.839844 -5.574219 8.839844 C -5.4375 9.207031 -5.222656 9.539062 -4.945312 9.808594 C -4.878906 9.980469 -4.945312 10.195312 -4.761719 10.328125 C -4.765625 10.34375 -4.765625 10.359375 -4.761719 10.375 C -4.753906 10.574219 -4.613281 10.742188 -4.417969 10.785156 L -4.378906 10.785156 C -4.3125 10.871094 -4.253906 10.96875 -4.207031 11.070312 C -4.230469 11.136719 -4.242188 11.203125 -4.242188 11.273438 C -4.253906 11.347656 -4.226562 11.421875 -4.171875 11.472656 L -4.09375 11.527344 C -4.09375 11.710938 -4.050781 11.851562 -3.828125 11.773438 C -3.605469 11.695312 -3.355469 11.582031 -3.121094 11.484375 C -2.78125 11.339844 -2.457031 11.167969 -2.144531 10.96875 L -1.957031 10.96875 L -1.417969 10.335938 C -0.890625 9.910156 -1.347656 9.835938 -1.648438 9.703125 C -1.75 9.527344 -1.792969 9.1875 -2.070312 9.582031 C -2.191406 9.765625 -2.414062 9.652344 -2.589844 9.714844 C -2.589844 9.742188 -2.589844 9.773438 -2.589844 9.804688 L -2.617188 9.804688 C -2.597656 9.777344 -2.589844 9.75 -2.589844 9.71875 C -2.589844 9.503906 -2.667969 9.375 -2.898438 9.375 C -2.898438 9.054688 -3.214844 8.910156 -3.320312 8.644531 C -3.296875 8.625 -3.285156 8.597656 -3.289062 8.566406 C -3.261719 8.570312 -3.238281 8.554688 -3.222656 8.53125 C -2.933594 8.460938 -2.792969 8.621094 -2.683594 8.855469 C -2.660156 8.953125 -2.582031 8.976562 -2.492188 8.980469 C -2.386719 9.175781 -2.148438 9.25 -1.949219 9.15625 C -1.90625 9.128906 -1.855469 9.117188 -1.804688 9.125 C -1.75 9.132812 -1.707031 9.164062 -1.675781 9.207031 C -1.457031 9.453125 -1.117188 9.5625 -0.796875 9.480469 L -0.0507812 9.480469 L 0.160156 9.609375 C 0.214844 9.75 0.332031 9.859375 0.476562 9.90625 C 0.671875 9.996094 0.402344 10.128906 0.511719 10.226562 C 0.675781 10.226562 0.789062 10.417969 0.972656 10.332031 C 1.011719 10.304688 1.035156 10.253906 1.03125 10.207031 C 1.058594 10.265625 1.097656 10.316406 1.125 10.371094 C 1.070312 10.449219 1.105469 10.542969 1.125 10.632812 C 1.089844 10.90625 1.183594 11.183594 1.375 11.382812 C 1.421875 11.753906 1.71875 12.042969 1.71875 12.433594 C 1.855469 12.433594 1.972656 12.882812 2.128906 12.433594 C 2.378906 12.335938 2.265625 12.039062 2.425781 11.890625 C 2.484375 11.835938 2.484375 11.746094 2.429688 11.6875 C 2.429688 11.589844 2.429688 11.484375 2.414062 11.382812 C 2.414062 11.367188 2.414062 11.355469 2.414062 11.339844 C 2.449219 11.316406 2.480469 11.285156 2.503906 11.246094 C 2.496094 11.222656 2.496094 11.195312 2.503906 11.171875 C 2.679688 11.171875 2.757812 11.007812 2.894531 10.949219 C 2.910156 10.917969 2.921875 10.886719 2.925781 10.851562 C 3.050781 10.828125 3.164062 10.757812 3.242188 10.65625 C 3.566406 10.578125 3.628906 10.128906 4.003906 10.121094 C 4.203125 10.203125 4.53125 9.753906 4.628906 10.269531 C 4.65625 10.378906 4.75 10.414062 4.84375 10.457031 C 4.871094 10.589844 4.941406 10.710938 5.046875 10.800781 C 5.046875 10.972656 4.839844 11.277344 5.28125 11.207031 L 5.28125 11.164062 C 5.601562 10.953125 5.671875 11.09375 5.625 11.40625 C 5.523438 11.585938 5.78125 11.667969 5.738281 11.832031 L 5.738281 12.035156 C 5.738281 12.144531 5.738281 12.257812 5.738281 12.378906 C 5.738281 12.5 5.542969 12.507812 5.714844 12.617188 C 5.898438 12.761719 6.023438 12.972656 6.058594 13.207031 L 6.058594 13.417969 C 6.199219 13.601562 6.351562 13.785156 6.628906 13.730469 C 6.628906 13.523438 6.691406 13.308594 6.550781 13.125 C 6.523438 12.992188 6.398438 12.90625 6.261719 12.925781 L 6.21875 12.925781 L 5.933594 12.453125 L 5.910156 12.132812 C 5.914062 12.101562 5.914062 12.066406 5.914062 12.03125 C 6.03125 11.613281 6.257812 11.71875 6.414062 11.972656 C 6.511719 12.132812 6.679688 12.230469 6.863281 12.238281 C 6.902344 12.359375 6.820312 12.441406 6.765625 12.535156 C 7.070312 12.550781 7.175781 12.257812 7.394531 12.132812 C 7.773438 11.964844 7.6875 11.679688 7.574219 11.390625 C 7.464844 11.101562 6.925781 10.925781 7.074219 10.441406 L 7.289062 10.234375 L 7.597656 10.234375 C 7.613281 10.261719 7.632812 10.289062 7.660156 10.316406 C 7.785156 10.398438 7.46875 10.59375 7.738281 10.632812 C 8.003906 10.667969 7.898438 10.488281 7.894531 10.363281 C 7.894531 10.238281 8.074219 10.226562 8.132812 10.125 L 8.445312 10.015625 C 8.496094 9.957031 8.605469 9.96875 8.667969 9.921875 C 8.773438 9.957031 8.878906 9.988281 8.972656 9.886719 C 8.972656 9.859375 8.972656 9.832031 8.972656 9.804688 C 9.472656 9.675781 9.496094 9.148438 9.785156 8.839844 C 9.808594 8.738281 9.984375 8.648438 9.804688 8.53125 C 9.910156 8.261719 9.839844 7.953125 9.625 7.757812 C 9.558594 7.695312 9.519531 7.605469 9.519531 7.511719 C 9.519531 7.417969 9.558594 7.328125 9.625 7.261719 C 9.714844 7.242188 9.871094 7.261719 9.820312 7.113281 C 9.730469 6.800781 9.53125 7.222656 9.410156 7.0625 C 9.414062 7.035156 9.40625 7.003906 9.386719 6.980469 C 9.367188 6.953125 9.339844 6.941406 9.308594 6.941406 C 9.167969 6.832031 9.210938 6.730469 9.308594 6.632812 C 9.4375 6.617188 9.550781 6.535156 9.613281 6.417969 C 9.707031 6.394531 9.855469 6.253906 9.875 6.335938 C 9.984375 6.757812 10.539062 6.585938 10.667969 6.953125 C 10.820312 7.136719 10.640625 7.386719 10.789062 7.570312 C 11.183594 7.585938 11.414062 7.476562 11.210938 7.03125 L 11.074219 6.847656 C 11.054688 6.734375 10.917969 6.65625 10.984375 6.503906 C 11.273438 6.453125 11.328125 6.199219 11.429688 5.980469 L 11.625 5.886719 L 11.625 5.855469 L 11.738281 5.855469 C 11.90625 5.972656 12.042969 5.90625 12.160156 5.773438 L 12.648438 5.292969 L 12.71875 5.292969 C 13.027344 5.117188 13.25 4.816406 13.324219 4.46875 C 13.320312 4.308594 13.347656 4.144531 13.40625 3.996094 C 13.40625 3.996094 13.40625 3.96875 13.40625 3.960938 C 13.414062 4.023438 13.449219 4.078125 13.5 4.113281 C 13.488281 4.128906 13.488281 4.148438 13.5 4.160156 L 13.476562 4.160156 C 13.257812 4.421875 13.246094 4.800781 13.453125 5.070312 C 13.503906 5.082031 13.554688 5.074219 13.597656 5.054688 C 13.601562 4.78125 13.675781 4.515625 13.8125 4.285156 C 13.820312 4.167969 13.78125 4.050781 13.703125 3.964844 C 13.660156 3.796875 13.820312 3.550781 13.625 3.460938 C 13.433594 3.371094 13.589844 3.738281 13.394531 3.738281 C 13.339844 3.625 13.34375 3.488281 13.222656 3.417969 L 13.066406 3.226562 L 12.859375 3.339844 L 12.648438 3.339844 C 12.535156 3.230469 12.386719 3.160156 12.332031 2.996094 L 12.445312 2.902344 L 12.542969 2.792969 L 13.101562 2.40625 C 13.53125 1.886719 14.105469 1.925781 14.6875 1.992188 L 14.796875 1.878906 L 15.007812 1.910156 C 15.070312 1.925781 15.128906 1.953125 15.183594 1.988281 C 15.183594 2.117188 15.253906 2.15625 15.425781 2.101562 C 15.597656 2.046875 15.769531 2.023438 15.769531 1.777344 C 15.902344 1.714844 16.007812 1.597656 16.054688 1.457031 L 16.082031 1.355469 L 16.390625 1.308594 C 16.640625 1.257812 16.710938 1.652344 16.988281 1.546875 C 17.191406 1.546875 17.296875 1.386719 17.445312 1.296875 C 17.386719 1.363281 17.371094 1.457031 17.402344 1.539062 C 17.316406 1.503906 17.261719 1.515625 17.234375 1.59375 C 17.195312 1.601562 17.15625 1.621094 17.125 1.644531 C 17.042969 1.917969 16.703125 1.945312 16.601562 2.199219 C 16.472656 2.230469 16.339844 2.257812 16.289062 2.410156 L 16.183594 2.527344 C 15.839844 2.738281 16.050781 3.074219 16.011719 3.351562 C 16.011719 3.390625 16.011719 3.425781 15.988281 3.46875 C 16.09375 3.621094 16.050781 3.9375 16.382812 3.859375 C 16.515625 3.804688 16.488281 3.683594 16.5 3.578125 L 16.6875 3.5625 C 16.75 3.421875 16.835938 3.296875 16.941406 3.191406 C 17.214844 3.027344 17.316406 2.679688 17.175781 2.394531 C 17.175781 2.316406 16.972656 2.269531 17.101562 2.214844 C 17.3125 2.117188 17.328125 1.910156 17.445312 1.769531 C 17.566406 1.769531 17.691406 1.820312 17.789062 1.695312 C 17.820312 1.699219 17.851562 1.6875 17.875 1.664062 C 17.882812 1.644531 17.898438 1.628906 17.917969 1.621094 L 17.875 1.664062 L 18.195312 1.640625 L 18.617188 1.671875 C 18.746094 1.652344 18.855469 1.570312 18.90625 1.449219 C 19.25 1.367188 19.496094 1.105469 19.859375 1.105469 C 19.984375 1.101562 20.121094 1.167969 20.207031 1.03125 Z M -9.054688 11.554688 L -9.128906 11.554688 Z M -8.15625 13.503906 Z M -6.460938 11.277344 Z M -8.152344 11.277344 L -8.179688 11.277344 Z M -9.296875 13.339844 L -9.324219 13.339844 L -9.28125 13.339844 Z M -6.351562 13.480469 Z M -13.96875 11.261719 Z M -12.375 9.480469 Z M -12.375 11.269531 Z M -12.257812 11.269531 C -12.257812 11.289062 -12.257812 11.304688 -12.257812 11.324219 Z M -12.375 9.695312 Z M -9.332031 13.40625 C -9.308594 13.457031 -9.355469 13.40625 -9.332031 13.382812 C -9.335938 13.390625 -9.335938 13.398438 -9.332031 13.40625 Z M -6.359375 13.578125 Z M -10.164062 11.269531 Z M -8.367188 18.777344 Z M 7.121094 -2.371094 C 7.140625 -2.339844 7.167969 -2.3125 7.199219 -2.285156 C 7.136719 -2.253906 7.082031 -2.210938 7.039062 -2.160156 C 7.019531 -2.164062 7 -2.164062 6.976562 -2.160156 C 6.960938 -2.242188 6.996094 -2.324219 7.066406 -2.367188 L 7.121094 -2.367188 Z M -6.355469 -0.464844 Z M -6.355469 -0.355469 Z M 4.960938 -0.386719 L 4.976562 -0.359375 L 4.960938 -0.359375 Z M -0.644531 3.457031 Z M 5.066406 1.445312 Z M 6.964844 5.6875 L 6.984375 5.6875 C 6.976562 5.6875 6.972656 5.6875 6.964844 5.6875 Z M 7.082031 5.667969 Z M 7.082031 1.542969 L 7.082031 1.507812 C 7.078125 1.523438 7.078125 1.535156 7.082031 1.546875 Z M 2.957031 3.554688 Z M 7.082031 1.441406 Z M 8.777344 1.441406 Z M -2.652344 1.550781 Z M -0.644531 7.257812 Z M 1.15625 7.363281 L 1.15625 7.335938 L 1.15625 7.378906 Z M 7.082031 7.363281 L 7.097656 7.363281 Z M 12.582031 -0.375 C 12.582031 -0.375 12.570312 -0.34375 12.570312 -0.363281 Z M 10.882812 -0.34375 C 10.882812 -0.34375 10.882812 -0.34375 10.882812 -0.363281 Z M 8.871094 -0.34375 Z M 8.765625 -0.34375 Z M 1.152344 1.453125 Z M -0.644531 -0.34375 L -0.644531 -0.390625 C -0.644531 -0.375 -0.644531 -0.359375 -0.644531 -0.34375 Z M -3.195312 6.628906 C -3.125 6.566406 -3.078125 6.476562 -3.074219 6.382812 C -3.070312 6.289062 -3.105469 6.195312 -3.167969 6.125 C -3.304688 6.011719 -3.398438 5.855469 -3.4375 5.683594 C -3.4375 5.574219 -3.476562 5.46875 -3.496094 5.367188 L -3.257812 5.167969 L -2.667969 4.921875 C -2.371094 5.03125 -2.273438 5.164062 -2.625 5.332031 C -2.734375 5.382812 -2.863281 5.414062 -2.792969 5.578125 C -2.828125 5.800781 -2.480469 5.835938 -2.554688 6.078125 C -2.480469 6.15625 -2.429688 6.164062 -2.390625 6.132812 C -2.363281 6.164062 -2.34375 6.203125 -2.328125 6.238281 C -2.375 6.242188 -2.417969 6.257812 -2.457031 6.285156 C -2.671875 6.574219 -2.226562 6.542969 -2.246094 6.734375 L -2.246094 7.175781 C -2.257812 7.152344 -2.269531 7.132812 -2.28125 7.113281 C -2.441406 7.003906 -2.65625 7.011719 -2.808594 7.132812 C -2.835938 7.128906 -2.867188 7.128906 -2.898438 7.132812 L -2.953125 7.15625 C -3.210938 7.035156 -3.171875 6.820312 -3.195312 6.628906 Z M 8.765625 7.367188 Z M 8.867188 7.367188 Z M 16.5 -0.46875 C 16.492188 -0.460938 16.488281 -0.449219 16.484375 -0.441406 Z M 16.382812 -1.15625 C 16.339844 -1.132812 16.382812 -1.171875 16.382812 -1.175781 Z M -0.859375 7.480469 L -0.859375 7.523438 C -0.859375 7.507812 -0.859375 7.492188 -0.882812 7.480469 Z M -0.859375 8.621094 Z M 3.164062 10.429688 Z M 17.652344 1.351562 Z M -7.035156 1.71875 L -6.96875 1.71875 L -6.992188 1.738281 C -7.039062 1.78125 -7.097656 1.808594 -7.160156 1.816406 C -7.109375 1.796875 -7.066406 1.761719 -7.035156 1.71875 Z M -6.300781 6.1875 C -6.464844 6.050781 -6.703125 6.0625 -6.855469 6.210938 C -6.890625 5.75 -6.539062 5.449219 -6.378906 5.066406 C -6.308594 5.210938 -6.152344 5.257812 -6.007812 5.320312 L -5.988281 5.320312 C -6.027344 5.449219 -5.941406 5.507812 -5.804688 5.503906 C -5.726562 5.488281 -5.652344 5.457031 -5.585938 5.414062 L -5.742188 5.285156 C -5.667969 5.25 -5.609375 5.195312 -5.566406 5.128906 C -5.554688 5.105469 -5.535156 5.082031 -5.515625 5.0625 C -5.449219 5.054688 -5.382812 5.039062 -5.316406 5.007812 L -5.238281 5.027344 C -5.128906 5.027344 -5.003906 5.027344 -5.132812 5.179688 C -5.136719 5.195312 -5.136719 5.210938 -5.132812 5.226562 C -5.222656 5.308594 -5.398438 5.386719 -5.132812 5.496094 L -5.082031 5.496094 C -5.097656 5.511719 -5.113281 5.523438 -5.136719 5.535156 C -5.125 5.605469 -5.082031 5.667969 -5.019531 5.707031 C -4.957031 5.742188 -4.878906 5.746094 -4.8125 5.71875 C -4.855469 5.925781 -4.722656 6.011719 -4.542969 6.0625 C -4.503906 6.09375 -4.5 6.015625 -4.480469 6.011719 C -4.480469 6.023438 -4.488281 6.039062 -4.496094 6.046875 C -4.507812 6.070312 -4.507812 6.097656 -4.496094 6.117188 C -4.652344 6.089844 -4.707031 6.210938 -4.769531 6.316406 C -4.832031 6.3125 -4.890625 6.3125 -4.949219 6.316406 C -5.152344 6.285156 -5.386719 6.316406 -5.519531 6.125 C -5.765625 5.976562 -6.074219 5.992188 -6.300781 6.167969 Z M -6.300781 6.1875 "/>
</g>
</g>
<g clip-path="url(#clip15)" clip-rule="nonzero">
<g clip-path="url(#clip16)" clip-rule="nonzero">
<path style=" stroke:none;fill-rule:nonzero;fill:rgb(27.058824%,89.019608%,100%);fill-opacity:1;" d="M 10.5625 15.199219 C 10.320312 15.042969 10.082031 15.421875 9.832031 15.199219 C 9.785156 15.15625 9.699219 15.222656 9.71875 15.308594 C 9.761719 15.542969 9.894531 15.902344 10.027344 15.898438 C 10.347656 15.898438 10.667969 16.300781 10.984375 15.921875 C 11.074219 15.539062 11.585938 15.234375 11.242188 14.757812 C 11.167969 14.558594 11.035156 14.585938 10.898438 14.664062 C 10.894531 14.859375 10.816406 15.046875 10.671875 15.179688 Z M 10.5625 15.199219 "/>
</g>
</g>
<g clip-path="url(#clip17)" clip-rule="nonzero">
<g clip-path="url(#clip18)" clip-rule="nonzero">
<path style=" stroke:none;fill-rule:nonzero;fill:rgb(27.058824%,89.019608%,100%);fill-opacity:1;" d="M 11.921875 15.296875 C 12.117188 15.433594 12.378906 15.433594 12.574219 15.296875 L 12.574219 15.09375 C 12.390625 15.285156 12.089844 15.082031 11.921875 15.296875 Z M 11.921875 15.296875 "/>
</g>
</g>
<g clip-path="url(#clip19)" clip-rule="nonzero">
<g clip-path="url(#clip20)" clip-rule="nonzero">
<path style=" stroke:none;fill-rule:nonzero;fill:rgb(27.058824%,89.019608%,100%);fill-opacity:1;" d="M 13.003906 15.105469 C 12.96875 15.253906 13 15.414062 13.097656 15.539062 C 13.359375 15.183594 13.351562 15.148438 13.003906 15.105469 Z M 13.003906 15.105469 "/>
</g>
</g>
<g clip-path="url(#clip21)" clip-rule="nonzero">
<g clip-path="url(#clip22)" clip-rule="nonzero">
<path style=" stroke:none;fill-rule:nonzero;fill:rgb(27.058824%,89.019608%,100%);fill-opacity:1;" d="M 11.6875 16.449219 C 11.808594 16.320312 11.828125 16.125 11.738281 15.972656 C 11.78125 16 11.828125 16.015625 11.875 16.015625 C 11.871094 16.0625 11.886719 16.113281 11.921875 16.144531 C 11.996094 16.238281 12.074219 16.277344 12.152344 16.144531 L 12.03125 15.933594 C 11.976562 15.800781 12.085938 15.714844 12.136719 15.617188 C 12.003906 15.457031 11.847656 15.71875 11.707031 15.589844 L 11.707031 15.617188 L 11.730469 15.617188 C 11.296875 15.882812 11.597656 16.15625 11.6875 16.449219 Z M 11.6875 16.449219 "/>
</g>
</g>
<g clip-path="url(#clip23)" clip-rule="nonzero">
<g clip-path="url(#clip24)" clip-rule="nonzero">
<path style=" stroke:none;fill-rule:nonzero;fill:rgb(27.058824%,89.019608%,100%);fill-opacity:1;" d="M 9.582031 9.925781 C 9.609375 9.976562 9.648438 10.019531 9.695312 10.046875 C 9.867188 9.925781 9.832031 9.703125 9.957031 9.449219 C 9.65625 9.574219 9.527344 9.695312 9.582031 9.925781 Z M 9.582031 9.925781 "/>
</g>
</g>
<g clip-path="url(#clip25)" clip-rule="nonzero">
<g clip-path="url(#clip26)" clip-rule="nonzero">
<path style=" stroke:none;fill-rule:nonzero;fill:rgb(27.058824%,89.019608%,100%);fill-opacity:1;" d="M 8.566406 13.714844 C 8.765625 13.714844 8.753906 13.546875 8.773438 13.410156 C 8.933594 13.222656 9.355469 13.515625 9.382812 13.082031 C 9.1875 13.015625 9.011719 12.773438 8.777344 13.011719 L 8.558594 13.289062 C 8.488281 13.363281 8.414062 13.4375 8.347656 13.511719 C 8.175781 13.582031 7.980469 13.621094 7.894531 13.820312 C 8.117188 13.929688 8.386719 13.890625 8.566406 13.714844 Z M 8.566406 13.714844 "/>
</g>
</g>
<g clip-path="url(#clip27)" clip-rule="nonzero">
<g clip-path="url(#clip28)" clip-rule="nonzero">
<path style=" stroke:none;fill-rule:nonzero;fill:rgb(27.058824%,89.019608%,100%);fill-opacity:1;" d="M 13.03125 6.660156 C 13 6.757812 12.957031 6.855469 12.90625 6.949219 L 12.824219 7.066406 C 12.753906 7.03125 12.671875 7.03125 12.597656 7.066406 L 12.441406 7.371094 C 12.414062 7.410156 12.363281 7.433594 12.332031 7.46875 L 11.832031 7.46875 L 11.789062 7.5625 C 11.675781 7.609375 11.699219 7.691406 11.730469 7.78125 C 11.847656 7.863281 11.996094 7.902344 12.140625 7.886719 C 12.222656 7.804688 12.238281 7.675781 12.175781 7.574219 L 12.300781 7.59375 L 12.300781 7.617188 C 12.335938 7.695312 12.40625 7.753906 12.492188 7.769531 C 12.632812 7.65625 12.804688 7.585938 12.984375 7.5625 C 13.113281 7.542969 13.359375 7.5625 13.304688 7.277344 C 13.304688 6.953125 13.75 6.691406 13.414062 6.328125 C 13.363281 6.136719 13.339844 5.964844 13.632812 6.003906 C 13.925781 6.046875 14.007812 5.941406 13.867188 5.660156 L 13.636719 5.382812 C 13.476562 5.382812 13.425781 5.527344 13.375 5.652344 C 13.371094 5.671875 13.371094 5.695312 13.375 5.71875 L 13.316406 5.71875 C 13.191406 5.730469 13.082031 5.808594 13.03125 5.921875 C 12.972656 6.066406 13.03125 6.230469 13.160156 6.3125 L 13.195312 6.3125 C 13.117188 6.414062 13.058594 6.53125 13.03125 6.660156 Z M 13.03125 6.660156 "/>
</g>
</g>
<g clip-path="url(#clip29)" clip-rule="nonzero">
<g clip-path="url(#clip30)" clip-rule="nonzero">
<path style=" stroke:none;fill-rule:nonzero;fill:rgb(27.058824%,89.019608%,100%);fill-opacity:1;" d="M 11.40625 8.121094 L 11.511719 8.261719 C 11.597656 8.222656 11.664062 8.144531 11.6875 8.054688 C 11.710938 7.960938 11.691406 7.863281 11.636719 7.785156 C 11.371094 7.769531 11.316406 7.90625 11.40625 8.121094 Z M 11.40625 8.121094 "/>
</g>
</g>
<g clip-path="url(#clip31)" clip-rule="nonzero">
<g clip-path="url(#clip32)" clip-rule="nonzero">
<path style=" stroke:none;fill-rule:nonzero;fill:rgb(27.058824%,89.019608%,100%);fill-opacity:1;" d="M 10.683594 12.648438 C 10.683594 12.558594 10.683594 12.457031 10.5625 12.425781 L 10.363281 12.578125 C 10.195312 12.515625 10.003906 12.59375 9.929688 12.761719 L 10.035156 12.792969 C 10.140625 12.742188 10.230469 12.734375 10.269531 12.875 C 10.3125 13.011719 10.398438 12.945312 10.457031 12.988281 C 10.515625 13.027344 10.578125 12.96875 10.601562 12.902344 C 10.601562 12.890625 10.601562 12.878906 10.601562 12.867188 L 10.65625 12.867188 C 10.722656 12.796875 10.832031 12.734375 10.683594 12.648438 Z M 10.683594 12.648438 "/>
</g>
</g>
<g clip-path="url(#clip33)" clip-rule="nonzero">
<g clip-path="url(#clip34)" clip-rule="nonzero">
<path style=" stroke:none;fill-rule:nonzero;fill:rgb(27.058824%,89.019608%,100%);fill-opacity:1;" d="M 9.757812 10.761719 C 9.636719 10.929688 9.589844 11.140625 9.625 11.34375 C 9.625 11.367188 9.667969 11.386719 9.695312 11.414062 C 9.667969 11.757812 9.953125 11.6875 10.148438 11.730469 C 10.175781 11.632812 10.128906 11.527344 10.039062 11.484375 L 9.839844 11.390625 C 9.871094 11.316406 9.898438 11.238281 9.9375 11.160156 C 10.058594 10.898438 9.902344 10.613281 9.757812 10.761719 Z M 9.757812 10.761719 "/>
</g>
</g>
<g clip-path="url(#clip35)" clip-rule="nonzero">
<g clip-path="url(#clip36)" clip-rule="nonzero">
<path style=" stroke:none;fill-rule:nonzero;fill:rgb(27.058824%,89.019608%,100%);fill-opacity:1;" d="M 10.15625 12.183594 C 10.070312 12.15625 10.042969 12.214844 10.042969 12.289062 C 10.050781 12.34375 10.066406 12.398438 10.085938 12.449219 C 10.132812 12.386719 10.175781 12.351562 10.183594 12.308594 C 10.1875 12.269531 10.179688 12.191406 10.15625 12.183594 Z M 10.15625 12.183594 "/>
</g>
</g>
<g clip-path="url(#clip37)" clip-rule="nonzero">
<g clip-path="url(#clip38)" clip-rule="nonzero">
<path style=" stroke:none;fill-rule:nonzero;fill:rgb(27.058824%,89.019608%,100%);fill-opacity:1;" d="M 2.476562 12.421875 C 2.304688 12.386719 2.308594 12.542969 2.308594 12.671875 C 2.300781 12.738281 2.320312 12.808594 2.363281 12.863281 C 2.40625 12.921875 2.46875 12.953125 2.535156 12.964844 C 2.65625 12.964844 2.738281 12.925781 2.726562 12.773438 C 2.652344 12.65625 2.652344 12.453125 2.476562 12.421875 Z M 2.476562 12.421875 "/>
</g>
</g>
</g>
</svg>
