
<svg xmlns="http://www.w3.org/2000/svg" xmlns:xlink="http://www.w3.org/1999/xlink" width="22px" height="22px" viewBox="0 0 22 22" version="1.1">
<g id="surface1">
<path style=" stroke:none;fill-rule:nonzero;fill:rgb(36.078431%,41.960784%,75.294118%);fill-opacity:1;" d="M 1.851562 0 L 20.148438 0 C 21.171875 0 22 0.828125 22 1.851562 L 22 20.148438 C 22 21.171875 21.171875 22 20.148438 22 L 1.851562 22 C 0.828125 22 0 21.171875 0 20.148438 L 0 1.851562 C 0 0.828125 0.828125 0 1.851562 0 Z M 1.851562 0 "/>
<path style=" stroke:none;fill-rule:nonzero;fill:rgb(100%,100%,100%);fill-opacity:1;" d="M 11.734375 7.40625 L 11.230469 7.40625 L 11.230469 9.574219 C 11.453125 9.664062 11.597656 9.882812 11.597656 10.125 L 11.597656 11.5 C 11.597656 11.828125 11.332031 12.097656 11 12.097656 C 10.667969 12.097656 10.402344 11.828125 10.402344 11.5 L 10.402344 10.125 C 10.402344 9.882812 10.546875 9.664062 10.769531 9.574219 L 10.769531 7.40625 L 10.265625 7.40625 C 8.484375 7.414062 7.046875 8.851562 7.039062 10.632812 L 7.039062 14.5 C 7.164062 16.59375 8.894531 18.226562 10.992188 18.226562 C 13.089844 18.226562 14.824219 16.59375 14.945312 14.5 L 14.945312 10.632812 C 14.941406 8.859375 13.507812 7.421875 11.734375 7.40625 Z M 11.734375 7.40625 "/>
<path style=" stroke:none;fill-rule:nonzero;fill:rgb(16.078431%,71.372549%,96.470588%);fill-opacity:1;" d="M 11.308594 7.40625 L 10.757812 7.40625 L 10.757812 7.132812 C 10.757812 6.375 11.375 5.757812 12.132812 5.757812 L 13.148438 5.757812 C 13.605469 5.757812 13.976562 5.386719 13.976562 4.929688 C 13.976562 4.472656 13.605469 4.101562 13.148438 4.101562 L 8.023438 4.101562 L 8.023438 3.539062 L 13.152344 3.539062 C 13.910156 3.539062 14.527344 4.15625 14.527344 4.914062 C 14.527344 5.675781 13.910156 6.289062 13.152344 6.289062 L 12.136719 6.289062 C 11.679688 6.289062 11.308594 6.660156 11.308594 7.121094 Z M 11.308594 7.40625 "/>
</g>
</svg>
