
<svg xmlns="http://www.w3.org/2000/svg" xmlns:xlink="http://www.w3.org/1999/xlink" width="22px" height="22px" viewBox="0 0 22 22" version="1.1">
<defs>
<linearGradient id="linear0" gradientUnits="userSpaceOnUse" x1="-571.81" y1="-2840.37" x2="-571.81" y2="-2826.56" gradientTransform="matrix(0.243068,-0.243068,0.243068,0.243068,837.899146,560.095941)">
<stop offset="0" style="stop-color:rgb(100%,100%,100%);stop-opacity:0;"/>
<stop offset="1" style="stop-color:rgb(100%,100%,100%);stop-opacity:1;"/>
</linearGradient>
</defs>
<g id="surface1">
<path style=" stroke:none;fill-rule:nonzero;fill:rgb(36.078431%,41.960784%,75.294118%);fill-opacity:1;" d="M 1.851562 0 L 20.148438 0 C 21.171875 0 22 0.828125 22 1.851562 L 22 20.148438 C 22 21.171875 21.171875 22 20.148438 22 L 1.851562 22 C 0.828125 22 0 21.171875 0 20.148438 L 0 1.851562 C 0 0.828125 0.828125 0 1.851562 0 Z M 1.851562 0 "/>
<path style=" stroke:none;fill-rule:nonzero;fill:rgb(100%,100%,100%);fill-opacity:1;" d="M 10.042969 5.300781 C 10.253906 5.289062 10.464844 5.363281 10.625 5.507812 L 17.617188 12.5 C 18.207031 13.085938 17.488281 14.75 16.027344 16.214844 C 14.910156 17.332031 13.675781 18.011719 12.890625 18.011719 C 12.675781 18.023438 12.464844 17.949219 12.304688 17.804688 L 5.3125 10.8125 C 4.722656 10.222656 5.433594 8.558594 6.902344 7.089844 C 8.019531 5.972656 9.25 5.292969 10.035156 5.292969 M 10.035156 4.777344 C 9.078125 4.777344 7.738281 5.523438 6.539062 6.726562 C 5.042969 8.25 4.015625 10.242188 4.953125 11.183594 L 11.484375 17.714844 L 11.949219 18.175781 C 12.203125 18.417969 12.546875 18.539062 12.898438 18.519531 C 13.851562 18.519531 15.195312 17.777344 16.398438 16.574219 C 17.09375 15.898438 17.660156 15.101562 18.070312 14.222656 C 18.597656 12.996094 18.242188 12.382812 17.988281 12.128906 L 16.175781 10.3125 L 11 5.15625 C 10.742188 4.917969 10.402344 4.792969 10.050781 4.8125 Z M 10.035156 4.777344 "/>
<path style=" stroke:none;fill-rule:nonzero;fill:url(#linear0);" d="M 5.316406 10.816406 L 10.625 5.511719 L 14.746094 9.632812 L 9.4375 14.941406 Z M 5.316406 10.816406 "/>
<path style=" stroke:none;fill-rule:nonzero;fill:rgb(100%,100%,100%);fill-opacity:1;" d="M 10.625 5.507812 C 10.039062 4.917969 8.375 5.632812 6.90625 7.097656 C 5.441406 8.5625 4.726562 10.226562 5.316406 10.816406 C 5.902344 11.402344 7.566406 10.6875 9.03125 9.222656 C 10.496094 7.757812 11.210938 6.09375 10.625 5.507812 Z M 10.625 5.507812 "/>
<path style=" stroke:none;fill-rule:nonzero;fill:rgb(70.196078%,70.196078%,70.196078%);fill-opacity:1;" d="M 8.871094 5.882812 C 8.519531 5.53125 7.523438 5.957031 6.644531 6.835938 C 5.769531 7.714844 5.339844 8.710938 5.695312 9.0625 C 6.046875 9.414062 7.042969 8.988281 7.917969 8.109375 C 8.796875 7.230469 9.222656 6.234375 8.871094 5.882812 Z M 8.871094 5.882812 "/>
<path style=" stroke:none;fill-rule:nonzero;fill:rgb(100%,100%,100%);fill-opacity:1;" d="M 8.332031 5.375 C 7.980469 5.023438 6.980469 5.449219 6.105469 6.328125 C 5.226562 7.207031 4.800781 8.203125 5.152344 8.554688 C 5.503906 8.90625 6.5 8.480469 7.378906 7.601562 C 8.257812 6.722656 8.683594 5.726562 8.332031 5.375 Z M 8.332031 5.375 "/>
<path style=" stroke:none;fill-rule:nonzero;fill:rgb(16.078431%,71.372549%,96.470588%);fill-opacity:1;" d="M 10.5 16 L 12.304688 17.804688 C 12.894531 18.394531 14.558594 17.683594 16.027344 16.214844 C 17.492188 14.746094 18.207031 13.085938 17.617188 12.5 L 15.8125 10.695312 Z M 10.5 16 "/>
<path style=" stroke:none;fill-rule:nonzero;fill:rgb(100%,100%,100%);fill-opacity:1;" d="M 15.808594 10.695312 C 15.222656 10.109375 13.558594 10.820312 12.09375 12.289062 C 10.625 13.753906 9.914062 15.417969 10.5 16.003906 C 11.085938 16.589844 12.75 15.878906 14.214844 14.414062 C 15.683594 12.945312 16.394531 11.28125 15.808594 10.695312 Z M 15.808594 10.695312 "/>
<path style=" stroke:none;fill-rule:nonzero;fill:rgb(16.078431%,71.372549%,96.470588%);fill-opacity:1;" d="M 8.21875 13.71875 L 10.023438 15.523438 C 10.613281 16.113281 12.277344 15.398438 13.742188 13.933594 C 15.210938 12.464844 15.921875 10.804688 15.335938 10.214844 L 13.53125 8.410156 Z M 8.21875 13.71875 "/>
<path style=" stroke:none;fill-rule:nonzero;fill:rgb(100%,100%,100%);fill-opacity:1;" d="M 13.527344 8.414062 C 12.941406 7.828125 11.277344 8.539062 9.808594 10.003906 C 8.34375 11.472656 7.632812 13.136719 8.21875 13.722656 C 8.804688 14.308594 10.46875 13.59375 11.933594 12.128906 C 13.398438 10.664062 14.113281 9 13.527344 8.414062 Z M 13.527344 8.414062 "/>
</g>
</svg>
