
<svg xmlns="http://www.w3.org/2000/svg" xmlns:xlink="http://www.w3.org/1999/xlink" width="22px" height="22px" viewBox="0 0 22 22" version="1.1">
<g id="surface1">
<path style=" stroke:none;fill-rule:nonzero;fill:rgb(49.411765%,34.117647%,76.862745%);fill-opacity:1;" d="M 1.851562 0 L 20.148438 0 C 21.171875 0 22 0.828125 22 1.851562 L 22 20.148438 C 22 21.171875 21.171875 22 20.148438 22 L 1.851562 22 C 0.828125 22 0 21.171875 0 20.148438 L 0 1.851562 C 0 0.828125 0.828125 0 1.851562 0 Z M 1.851562 0 "/>
<path style=" stroke:none;fill-rule:nonzero;fill:rgb(100%,100%,100%);fill-opacity:1;" d="M 17.796875 17.613281 L 6.214844 17.613281 C 5.875 17.613281 5.597656 17.335938 5.597656 16.996094 L 5.597656 7.167969 C 5.597656 6.824219 5.875 6.546875 6.214844 6.546875 L 17.796875 6.546875 C 18.136719 6.546875 18.414062 6.824219 18.414062 7.167969 L 18.414062 16.996094 C 18.414062 17.335938 18.136719 17.613281 17.796875 17.613281 Z M 17.796875 17.613281 "/>
<path style=" stroke:none;fill-rule:nonzero;fill:rgb(92.54902%,25.098039%,47.843137%);fill-opacity:1;" d="M 6.21875 6.261719 L 17.796875 6.261719 C 18.296875 6.261719 18.703125 6.667969 18.703125 7.171875 L 18.703125 16.996094 C 18.703125 17.496094 18.296875 17.898438 17.796875 17.898438 L 6.21875 17.898438 C 5.71875 17.898438 5.316406 17.496094 5.316406 16.996094 L 5.316406 7.171875 C 5.316406 6.671875 5.71875 6.265625 6.21875 6.261719 Z M 17.796875 17.328125 C 17.984375 17.328125 18.140625 17.175781 18.140625 16.984375 L 18.140625 7.171875 C 18.140625 6.980469 17.984375 6.828125 17.796875 6.828125 L 6.21875 6.828125 C 6.027344 6.828125 5.875 6.980469 5.875 7.171875 L 5.875 16.996094 C 5.875 17.183594 6.027344 17.339844 6.21875 17.339844 Z M 17.796875 17.328125 "/>
<path style=" stroke:none;fill-rule:nonzero;fill:rgb(100%,100%,100%);fill-opacity:1;" d="M 15.78125 15.453125 L 4.199219 15.453125 C 3.859375 15.453125 3.582031 15.175781 3.582031 14.832031 L 3.582031 5.003906 C 3.582031 4.664062 3.859375 4.386719 4.199219 4.386719 L 15.78125 4.386719 C 16.125 4.386719 16.402344 4.664062 16.402344 5.003906 L 16.402344 14.832031 C 16.402344 15.175781 16.125 15.453125 15.78125 15.453125 Z M 15.78125 15.453125 "/>
<path style=" stroke:none;fill-rule:nonzero;fill:rgb(92.54902%,25.098039%,47.843137%);fill-opacity:1;" d="M 4.203125 4.101562 L 15.78125 4.101562 C 16.28125 4.101562 16.683594 4.503906 16.683594 5.003906 L 16.683594 14.828125 C 16.683594 15.328125 16.28125 15.734375 15.78125 15.738281 L 4.203125 15.738281 C 3.703125 15.738281 3.296875 15.332031 3.296875 14.828125 L 3.296875 5.003906 C 3.296875 4.503906 3.703125 4.101562 4.203125 4.101562 Z M 15.78125 15.164062 C 15.972656 15.164062 16.125 15.007812 16.125 14.820312 L 16.125 5.003906 C 16.125 4.816406 15.972656 4.660156 15.78125 4.660156 L 4.203125 4.660156 C 4.015625 4.660156 3.859375 4.816406 3.859375 5.003906 L 3.859375 14.828125 C 3.859375 15.019531 4.015625 15.171875 4.203125 15.171875 Z M 15.78125 15.164062 "/>
<path style=" stroke:none;fill-rule:nonzero;fill:rgb(92.54902%,25.098039%,47.843137%);fill-opacity:1;" d="M 16.605469 5.660156 L 3.40625 5.660156 L 3.40625 4.941406 C 3.40625 4.546875 3.726562 4.226562 4.121094 4.226562 L 15.886719 4.226562 C 16.285156 4.226562 16.601562 4.546875 16.601562 4.941406 L 16.601562 5.660156 Z M 16.605469 5.660156 "/>
<path style=" stroke:none;fill-rule:nonzero;fill:rgb(100%,100%,100%);fill-opacity:1;" d="M 13.3125 4.964844 C 13.3125 5.203125 13.121094 5.398438 12.878906 5.398438 C 12.640625 5.398438 12.449219 5.203125 12.449219 4.964844 C 12.449219 4.726562 12.640625 4.53125 12.878906 4.53125 C 13.121094 4.53125 13.3125 4.726562 13.3125 4.964844 Z M 13.3125 4.964844 "/>
<path style=" stroke:none;fill-rule:nonzero;fill:rgb(100%,100%,100%);fill-opacity:1;" d="M 14.757812 4.964844 C 14.757812 5.203125 14.5625 5.398438 14.324219 5.398438 C 14.085938 5.398438 13.890625 5.203125 13.890625 4.964844 C 13.890625 4.726562 14.085938 4.53125 14.324219 4.53125 C 14.5625 4.53125 14.757812 4.726562 14.757812 4.964844 Z M 14.757812 4.964844 "/>
<path style=" stroke:none;fill-rule:nonzero;fill:rgb(100%,100%,100%);fill-opacity:1;" d="M 16.203125 4.964844 C 16.203125 5.203125 16.011719 5.398438 15.769531 5.398438 C 15.53125 5.398438 15.339844 5.203125 15.339844 4.964844 C 15.339844 4.726562 15.53125 4.53125 15.769531 4.53125 C 16.011719 4.53125 16.203125 4.726562 16.203125 4.964844 Z M 16.203125 4.964844 "/>
</g>
</svg>
