
<svg xmlns="http://www.w3.org/2000/svg" xmlns:xlink="http://www.w3.org/1999/xlink" width="22px" height="22px" viewBox="0 0 22 22" version="1.1">
<defs>
<clipPath id="clip1">
  <path d="M 1.605469 0 L 9.855469 0 L 9.855469 22 L 1.605469 22 Z M 1.605469 0 "/>
</clipPath>
<clipPath id="clip2">
  <path d="M 1.851562 0 L 20.148438 0 C 21.171875 0 22 0.828125 22 1.851562 L 22 20.148438 C 22 21.171875 21.171875 22 20.148438 22 L 1.851562 22 C 0.828125 22 0 21.171875 0 20.148438 L 0 1.851562 C 0 0.828125 0.828125 0 1.851562 0 Z M 1.851562 0 "/>
</clipPath>
<clipPath id="clip3">
  <path d="M 5.730469 0 L 16.269531 0 L 16.269531 22 L 5.730469 22 Z M 5.730469 0 "/>
</clipPath>
<clipPath id="clip4">
  <path d="M 1.851562 0 L 20.148438 0 C 21.171875 0 22 0.828125 22 1.851562 L 22 20.148438 C 22 21.171875 21.171875 22 20.148438 22 L 1.851562 22 C 0.828125 22 0 21.171875 0 20.148438 L 0 1.851562 C 0 0.828125 0.828125 0 1.851562 0 Z M 1.851562 0 "/>
</clipPath>
<clipPath id="clip5">
  <path d="M 12.144531 0 L 20.167969 0 L 20.167969 22 L 12.144531 22 Z M 12.144531 0 "/>
</clipPath>
<clipPath id="clip6">
  <path d="M 1.851562 0 L 20.148438 0 C 21.171875 0 22 0.828125 22 1.851562 L 22 20.148438 C 22 21.171875 21.171875 22 20.148438 22 L 1.851562 22 C 0.828125 22 0 21.171875 0 20.148438 L 0 1.851562 C 0 0.828125 0.828125 0 1.851562 0 Z M 1.851562 0 "/>
</clipPath>
<clipPath id="clip7">
  <path d="M 9.394531 1.832031 L 12.832031 1.832031 L 12.832031 22 L 9.394531 22 Z M 9.394531 1.832031 "/>
</clipPath>
<clipPath id="clip8">
  <path d="M 1.851562 0 L 20.148438 0 C 21.171875 0 22 0.828125 22 1.851562 L 22 20.148438 C 22 21.171875 21.171875 22 20.148438 22 L 1.851562 22 C 0.828125 22 0 21.171875 0 20.148438 L 0 1.851562 C 0 0.828125 0.828125 0 1.851562 0 Z M 1.851562 0 "/>
</clipPath>
<clipPath id="clip9">
  <path d="M 9 1.375 L 12.832031 1.375 L 12.832031 22 L 9 22 Z M 9 1.375 "/>
</clipPath>
<clipPath id="clip10">
  <path d="M 1.851562 0 L 20.148438 0 C 21.171875 0 22 0.828125 22 1.851562 L 22 20.148438 C 22 21.171875 21.171875 22 20.148438 22 L 1.851562 22 C 0.828125 22 0 21.171875 0 20.148438 L 0 1.851562 C 0 0.828125 0.828125 0 1.851562 0 Z M 1.851562 0 "/>
</clipPath>
<clipPath id="clip11">
  <path d="M 9.167969 1.605469 L 12.832031 1.605469 L 12.832031 22 L 9.167969 22 Z M 9.167969 1.605469 "/>
</clipPath>
<clipPath id="clip12">
  <path d="M 1.851562 0 L 20.148438 0 C 21.171875 0 22 0.828125 22 1.851562 L 22 20.148438 C 22 21.171875 21.171875 22 20.148438 22 L 1.851562 22 C 0.828125 22 0 21.171875 0 20.148438 L 0 1.851562 C 0 0.828125 0.828125 0 1.851562 0 Z M 1.851562 0 "/>
</clipPath>
<clipPath id="clip13">
  <path d="M 7.105469 0 L 14.894531 0 L 14.894531 3.894531 L 7.105469 3.894531 Z M 7.105469 0 "/>
</clipPath>
<clipPath id="clip14">
  <path d="M 1.851562 0 L 20.148438 0 C 21.171875 0 22 0.828125 22 1.851562 L 22 20.148438 C 22 21.171875 21.171875 22 20.148438 22 L 1.851562 22 C 0.828125 22 0 21.171875 0 20.148438 L 0 1.851562 C 0 0.828125 0.828125 0 1.851562 0 Z M 1.851562 0 "/>
</clipPath>
<clipPath id="clip15">
  <path d="M 10.3125 7 L 11.457031 7 L 11.457031 8 L 10.3125 8 Z M 10.3125 7 "/>
</clipPath>
<clipPath id="clip16">
  <path d="M 1.851562 0 L 20.148438 0 C 21.171875 0 22 0.828125 22 1.851562 L 22 20.148438 C 22 21.171875 21.171875 22 20.148438 22 L 1.851562 22 C 0.828125 22 0 21.171875 0 20.148438 L 0 1.851562 C 0 0.828125 0.828125 0 1.851562 0 Z M 1.851562 0 "/>
</clipPath>
<linearGradient id="linear0" gradientUnits="userSpaceOnUse" x1="30.56" y1="21.72" x2="33.25" y2="21.72" gradientTransform="matrix(0.34375,0,0,0.34375,0,0)">
<stop offset="0" style="stop-color:rgb(25.490196%,74.117647%,83.137255%);stop-opacity:1;"/>
<stop offset="1" style="stop-color:rgb(50.980392%,32.54902%,83.921569%);stop-opacity:1;"/>
</linearGradient>
<clipPath id="clip17">
  <path d="M 10.3125 14.207031 L 11.457031 14.207031 L 11.457031 15.355469 L 10.3125 15.355469 Z M 10.3125 14.207031 "/>
</clipPath>
<clipPath id="clip18">
  <path d="M 1.851562 0 L 20.148438 0 C 21.171875 0 22 0.828125 22 1.851562 L 22 20.148438 C 22 21.171875 21.171875 22 20.148438 22 L 1.851562 22 C 0.828125 22 0 21.171875 0 20.148438 L 0 1.851562 C 0 0.828125 0.828125 0 1.851562 0 Z M 1.851562 0 "/>
</clipPath>
<linearGradient id="linear1" gradientUnits="userSpaceOnUse" x1="30.56" y1="42.73" x2="33.25" y2="42.73" gradientTransform="matrix(0.34375,0,0,0.34375,0,0)">
<stop offset="0" style="stop-color:rgb(25.490196%,74.117647%,83.137255%);stop-opacity:1;"/>
<stop offset="1" style="stop-color:rgb(50.980392%,32.54902%,83.921569%);stop-opacity:1;"/>
</linearGradient>
</defs>
<g id="surface1">
<path style=" stroke:none;fill-rule:nonzero;fill:rgb(32.941176%,29.803922%,40.784314%);fill-opacity:1;" d="M 1.851562 0 L 20.148438 0 C 21.171875 0 22 0.828125 22 1.851562 L 22 20.148438 C 22 21.171875 21.171875 22 20.148438 22 L 1.851562 22 C 0.828125 22 0 21.171875 0 20.148438 L 0 1.851562 C 0 0.828125 0.828125 0 1.851562 0 Z M 1.851562 0 "/>
<g clip-path="url(#clip1)" clip-rule="nonzero">
<g clip-path="url(#clip2)" clip-rule="nonzero">
<path style=" stroke:none;fill-rule:nonzero;fill:rgb(79.607843%,79.607843%,79.607843%);fill-opacity:1;" d="M 5.710938 0 C 4.253906 0 2.75 -2.085938 1.742188 -1.191406 C 1.976562 3.050781 2.996094 15.6875 5.84375 22 L 9.738281 22 C 6.472656 14.78125 5.84375 2.714844 5.742188 0 Z M 5.710938 0 "/>
</g>
</g>
<g clip-path="url(#clip3)" clip-rule="nonzero">
<g clip-path="url(#clip4)" clip-rule="nonzero">
<path style=" stroke:none;fill-rule:nonzero;fill:rgb(96.862745%,96.862745%,96.862745%);fill-opacity:1;" d="M 5.742188 0 C 5.84375 2.714844 6.472656 14.78125 9.738281 22 L 12.261719 22 C 15.527344 14.78125 16.15625 2.714844 16.257812 0 Z M 5.742188 0 "/>
</g>
</g>
<g clip-path="url(#clip5)" clip-rule="nonzero">
<g clip-path="url(#clip6)" clip-rule="nonzero">
<path style=" stroke:none;fill-rule:nonzero;fill:rgb(79.607843%,79.607843%,79.607843%);fill-opacity:1;" d="M 16.289062 0 L 16.257812 0 C 16.15625 2.714844 15.527344 14.78125 12.261719 22 L 16.15625 22 C 19.003906 15.6875 19.9375 4.160156 20.164062 -0.078125 C 19.15625 -0.972656 17.746094 0 16.289062 0 Z M 16.289062 0 "/>
</g>
</g>
<g clip-path="url(#clip7)" clip-rule="nonzero">
<g clip-path="url(#clip8)" clip-rule="nonzero">
<path style=" stroke:none;fill-rule:nonzero;fill:rgb(94.509804%,94.509804%,94.509804%);fill-opacity:1;" d="M 9.871094 22 L 12.34375 22 L 12.816406 1.914062 L 9.398438 1.914062 Z M 9.871094 22 "/>
</g>
</g>
<g clip-path="url(#clip9)" clip-rule="nonzero">
<g clip-path="url(#clip10)" clip-rule="nonzero">
<path style=" stroke:none;fill-rule:nonzero;fill:rgb(89.803922%,89.803922%,89.803922%);fill-opacity:1;" d="M 9.207031 1.730469 L 12.816406 1.730469 L 12.816406 1.542969 L 9.019531 1.542969 L 9.5 22 L 9.6875 22 Z M 9.207031 1.730469 "/>
</g>
</g>
<g clip-path="url(#clip11)" clip-rule="nonzero">
<g clip-path="url(#clip12)" clip-rule="nonzero">
<path style=" stroke:none;fill-rule:nonzero;fill:rgb(89.803922%,89.803922%,89.803922%);fill-opacity:1;" d="M 9.6875 22 L 9.871094 22 L 9.398438 1.914062 L 12.816406 1.914062 L 12.816406 1.730469 L 9.207031 1.730469 Z M 9.6875 22 "/>
</g>
</g>
<g clip-path="url(#clip13)" clip-rule="nonzero">
<g clip-path="url(#clip14)" clip-rule="nonzero">
<path style=" stroke:none;fill-rule:nonzero;fill:rgb(92.54902%,25.098039%,47.843137%);fill-opacity:1;" d="M 14.84375 0.359375 C 14.84375 0.300781 14.808594 0.242188 14.757812 0.207031 C 14.703125 0.175781 14.636719 0.171875 14.582031 0.203125 L 11.773438 0.890625 C 11.707031 0.671875 11.503906 0.523438 11.277344 0.523438 L 10.589844 0.523438 C 10.386719 0.523438 10.199219 0.644531 10.113281 0.832031 L 7.417969 0.203125 C 7.363281 0.171875 7.296875 0.175781 7.242188 0.207031 C 7.191406 0.242188 7.15625 0.300781 7.15625 0.359375 L 7.15625 3.527344 C 7.15625 3.589844 7.191406 3.648438 7.242188 3.679688 C 7.296875 3.710938 7.363281 3.714844 7.417969 3.683594 L 10.214844 2.175781 C 10.3125 2.28125 10.453125 2.34375 10.597656 2.34375 L 11.285156 2.34375 C 11.445312 2.339844 11.59375 2.257812 11.6875 2.128906 L 14.570312 3.683594 C 14.628906 3.714844 14.695312 3.710938 14.746094 3.679688 C 14.800781 3.648438 14.832031 3.589844 14.832031 3.527344 Z M 14.84375 0.359375 "/>
</g>
</g>
<g clip-path="url(#clip15)" clip-rule="nonzero">
<g clip-path="url(#clip16)" clip-rule="nonzero">
<path style=" stroke:none;fill-rule:nonzero;fill:url(#linear0);" d="M 11.433594 7.464844 C 11.433594 7.722656 11.226562 7.929688 10.96875 7.929688 C 10.710938 7.929688 10.503906 7.722656 10.503906 7.464844 C 10.503906 7.210938 10.710938 7.003906 10.96875 7.003906 C 11.226562 7.003906 11.433594 7.210938 11.433594 7.464844 Z M 11.433594 7.464844 "/>
</g>
</g>
<g clip-path="url(#clip17)" clip-rule="nonzero">
<g clip-path="url(#clip18)" clip-rule="nonzero">
<path style=" stroke:none;fill-rule:nonzero;fill:url(#linear1);" d="M 11.433594 14.6875 C 11.433594 14.945312 11.226562 15.152344 10.96875 15.152344 C 10.710938 15.152344 10.503906 14.945312 10.503906 14.6875 C 10.503906 14.433594 10.710938 14.222656 10.96875 14.222656 C 11.226562 14.222656 11.433594 14.433594 11.433594 14.6875 Z M 11.433594 14.6875 "/>
</g>
</g>
</g>
</svg>
