
<svg xmlns="http://www.w3.org/2000/svg" xmlns:xlink="http://www.w3.org/1999/xlink" width="22px" height="22px" viewBox="0 0 22 22" version="1.1">
<g id="surface1">
<path style=" stroke:none;fill-rule:nonzero;fill:rgb(49.411765%,34.117647%,76.862745%);fill-opacity:1;" d="M 1.851562 0 L 20.148438 0 C 21.171875 0 22 0.828125 22 1.851562 L 22 20.148438 C 22 21.171875 21.171875 22 20.148438 22 L 1.851562 22 C 0.828125 22 0 21.171875 0 20.148438 L 0 1.851562 C 0 0.828125 0.828125 0 1.851562 0 Z M 1.851562 0 "/>
<path style=" stroke:none;fill-rule:nonzero;fill:rgb(100%,100%,100%);fill-opacity:1;" d="M 18.441406 16.53125 L 3.5625 16.53125 C 3.21875 16.53125 2.941406 16.253906 2.941406 15.910156 L 2.941406 6.085938 C 2.941406 5.742188 3.21875 5.464844 3.5625 5.464844 L 18.441406 5.464844 C 18.785156 5.464844 19.0625 5.742188 19.0625 6.085938 L 19.0625 15.910156 C 19.0625 16.253906 18.785156 16.53125 18.441406 16.53125 Z M 18.441406 16.53125 "/>
<path style=" stroke:none;fill-rule:nonzero;fill:rgb(92.54902%,25.098039%,47.843137%);fill-opacity:1;" d="M 3.5625 5.179688 L 18.4375 5.179688 C 18.941406 5.179688 19.347656 5.585938 19.347656 6.089844 L 19.347656 15.910156 C 19.347656 16.414062 18.941406 16.820312 18.4375 16.820312 L 3.5625 16.820312 C 3.058594 16.820312 2.652344 16.414062 2.652344 15.910156 L 2.652344 6.089844 C 2.652344 5.585938 3.058594 5.179688 3.5625 5.179688 Z M 18.4375 16.246094 C 18.628906 16.246094 18.78125 16.09375 18.78125 15.902344 L 18.78125 6.089844 C 18.78125 5.898438 18.628906 5.746094 18.4375 5.746094 L 3.5625 5.746094 C 3.371094 5.746094 3.21875 5.898438 3.21875 6.089844 L 3.21875 15.910156 C 3.21875 16.101562 3.371094 16.253906 3.5625 16.253906 Z M 18.4375 16.246094 "/>
<path style=" stroke:none;fill-rule:nonzero;fill:rgb(92.54902%,25.098039%,47.843137%);fill-opacity:1;" d="M 19.277344 6.742188 L 2.777344 6.742188 L 2.777344 6.027344 C 2.777344 5.640625 3.082031 5.324219 3.464844 5.3125 L 18.550781 5.3125 C 18.742188 5.308594 18.925781 5.382812 19.0625 5.515625 C 19.199219 5.648438 19.277344 5.832031 19.277344 6.027344 Z M 19.277344 6.742188 "/>
<path style=" stroke:none;fill-rule:nonzero;fill:rgb(100%,100%,100%);fill-opacity:1;" d="M 15.972656 6.046875 C 15.972656 6.285156 15.777344 6.480469 15.539062 6.480469 C 15.296875 6.480469 15.105469 6.285156 15.105469 6.046875 C 15.105469 5.808594 15.296875 5.613281 15.539062 5.613281 C 15.777344 5.613281 15.972656 5.808594 15.972656 6.046875 Z M 15.972656 6.046875 "/>
<path style=" stroke:none;fill-rule:nonzero;fill:rgb(100%,100%,100%);fill-opacity:1;" d="M 17.417969 6.046875 C 17.417969 6.285156 17.222656 6.480469 16.984375 6.480469 C 16.746094 6.480469 16.550781 6.285156 16.550781 6.046875 C 16.550781 5.808594 16.746094 5.613281 16.984375 5.613281 C 17.222656 5.613281 17.417969 5.808594 17.417969 6.046875 Z M 17.417969 6.046875 "/>
<path style=" stroke:none;fill-rule:nonzero;fill:rgb(100%,100%,100%);fill-opacity:1;" d="M 18.863281 6.046875 C 18.863281 6.285156 18.671875 6.480469 18.433594 6.480469 C 18.191406 6.480469 18 6.285156 18 6.046875 C 18 5.808594 18.191406 5.613281 18.433594 5.613281 C 18.671875 5.613281 18.863281 5.808594 18.863281 6.046875 Z M 18.863281 6.046875 "/>
</g>
</svg>
