
<svg xmlns="http://www.w3.org/2000/svg" xmlns:xlink="http://www.w3.org/1999/xlink" width="22px" height="22px" viewBox="0 0 22 22" version="1.1">
<g id="surface1">
<path style=" stroke:none;fill-rule:nonzero;fill:rgb(92.54902%,25.098039%,47.843137%);fill-opacity:1;" d="M 22 11 L 22 1.851562 C 22 0.828125 21.171875 0 20.148438 0 L 11 0 L 11 11 Z M 22 11 "/>
<path style=" stroke:none;fill-rule:nonzero;fill:rgb(91.764706%,92.156863%,93.72549%);fill-opacity:1;" d="M 11 0 L 1.851562 0 C 0.828125 0 0 0.828125 0 1.851562 L 0 11 L 11 11 Z M 11 0 "/>
<path style=" stroke:none;fill-rule:nonzero;fill:rgb(16.078431%,71.372549%,96.470588%);fill-opacity:1;" d="M 11 11 L 11 22 L 20.148438 22 C 21.171875 22 22 21.171875 22 20.148438 L 22 11 Z M 11 11 "/>
<path style=" stroke:none;fill-rule:nonzero;fill:rgb(63.137255%,38.431373%,96.862745%);fill-opacity:1;" d="M 0 11 L 0 20.148438 C 0 21.171875 0.828125 22 1.851562 22 L 11 22 L 11 11 Z M 0 11 "/>
<path style=" stroke:none;fill-rule:nonzero;fill:rgb(100%,100%,100%);fill-opacity:1;" d="M 17.425781 18.460938 L 15.765625 18.460938 C 15.367188 18.457031 15.046875 18.136719 15.046875 17.742188 L 15.046875 16.367188 C 15.046875 15.96875 15.367188 15.648438 15.765625 15.648438 L 16.816406 15.648438 C 16.9375 15.648438 17.035156 15.746094 17.035156 15.867188 C 17.035156 15.988281 16.9375 16.085938 16.816406 16.085938 L 15.765625 16.085938 C 15.609375 16.089844 15.488281 16.210938 15.484375 16.367188 L 15.484375 17.742188 C 15.488281 17.894531 15.613281 18.015625 15.765625 18.015625 L 17.425781 18.015625 C 17.5 18.015625 17.570312 17.988281 17.621094 17.9375 C 17.671875 17.886719 17.703125 17.8125 17.703125 17.742188 L 17.703125 16.367188 C 17.703125 16.210938 17.578125 16.085938 17.425781 16.085938 L 17.203125 16.085938 L 17.203125 15.164062 C 17.195312 14.949219 17.019531 14.78125 16.804688 14.78125 L 16.546875 14.78125 C 16.335938 14.785156 16.164062 14.953125 16.15625 15.164062 L 16.15625 15.253906 C 16.167969 15.339844 16.128906 15.425781 16.054688 15.472656 C 15.980469 15.519531 15.886719 15.519531 15.816406 15.472656 C 15.742188 15.425781 15.703125 15.339844 15.714844 15.253906 L 15.714844 15.164062 C 15.714844 14.699219 16.089844 14.324219 16.550781 14.324219 L 16.808594 14.324219 C 17.273438 14.324219 17.648438 14.699219 17.652344 15.164062 L 17.652344 15.664062 C 17.949219 15.761719 18.152344 16.039062 18.148438 16.351562 L 18.148438 17.726562 C 18.152344 17.921875 18.078125 18.109375 17.941406 18.246094 C 17.804688 18.382812 17.617188 18.460938 17.425781 18.460938 Z M 17.425781 18.460938 "/>
<path style=" stroke:none;fill-rule:nonzero;fill:rgb(100%,100%,100%);fill-opacity:1;" d="M 16.402344 4.257812 C 16.683594 4.257812 16.910156 4.488281 16.910156 4.769531 C 16.910156 5.050781 16.683594 5.277344 16.402344 5.277344 C 16.121094 5.277344 15.890625 5.050781 15.890625 4.769531 C 15.890625 4.632812 15.945312 4.503906 16.039062 4.40625 C 16.136719 4.3125 16.265625 4.257812 16.402344 4.257812 M 16.402344 3.851562 C 16.058594 3.828125 15.734375 4 15.558594 4.292969 C 15.382812 4.582031 15.382812 4.949219 15.558594 5.242188 C 15.734375 5.53125 16.058594 5.703125 16.402344 5.683594 C 16.742188 5.703125 17.066406 5.53125 17.242188 5.242188 C 17.417969 4.949219 17.417969 4.582031 17.242188 4.292969 C 17.066406 4 16.742188 3.828125 16.402344 3.851562 Z M 16.402344 3.851562 "/>
<path style=" stroke:none;fill-rule:nonzero;fill:rgb(100%,100%,100%);fill-opacity:1;" d="M 16.402344 6.296875 C 17.144531 6.296875 17.800781 6.796875 17.996094 7.519531 C 18 7.523438 18 7.53125 17.996094 7.539062 L 14.804688 7.539062 C 14.804688 7.539062 14.804688 7.519531 14.804688 7.519531 C 15.003906 6.796875 15.65625 6.296875 16.402344 6.296875 M 16.402344 5.886719 C 15.472656 5.886719 14.652344 6.511719 14.410156 7.410156 C 14.375 7.539062 14.398438 7.679688 14.480469 7.785156 C 14.558594 7.890625 14.683594 7.953125 14.820312 7.953125 L 17.988281 7.953125 C 18.121094 7.953125 18.246094 7.890625 18.328125 7.785156 C 18.40625 7.675781 18.433594 7.539062 18.398438 7.410156 C 18.152344 6.511719 17.335938 5.886719 16.402344 5.886719 Z M 16.402344 5.886719 "/>
<path style=" stroke:none;fill-rule:nonzero;fill:rgb(50.196078%,50.196078%,50.196078%);fill-opacity:1;" d="M 7.398438 7.351562 L 7.398438 4.601562 C 7.394531 4.160156 7.039062 3.804688 6.597656 3.800781 L 5.222656 3.800781 C 4.78125 3.800781 4.421875 4.160156 4.421875 4.601562 L 4.421875 6.300781 C 4.332031 6.265625 4.238281 6.246094 4.140625 6.246094 C 3.820312 6.21875 3.535156 6.453125 3.507812 6.777344 C 3.539062 7.089844 3.8125 7.320312 4.125 7.300781 C 4.445312 7.328125 4.726562 7.089844 4.757812 6.773438 L 4.757812 4.921875 C 4.757812 4.738281 4.902344 4.585938 5.082031 4.578125 L 6.691406 4.578125 C 6.875 4.585938 7.019531 4.738281 7.019531 4.921875 L 7.019531 6.921875 C 6.933594 6.890625 6.84375 6.871094 6.75 6.871094 C 6.429688 6.84375 6.148438 7.082031 6.113281 7.402344 C 6.148438 7.722656 6.429688 7.957031 6.75 7.929688 C 7.070312 7.957031 7.355469 7.722656 7.386719 7.402344 C 7.402344 7.382812 7.398438 7.367188 7.398438 7.351562 Z M 7.398438 7.351562 "/>
<path style=" stroke:none;fill-rule:nonzero;fill:rgb(100%,100%,100%);fill-opacity:1;" d="M 8.3125 15.363281 L 7.304688 15.019531 C 7.230469 14.992188 7.175781 14.921875 7.175781 14.84375 C 7.175781 14.742188 7.097656 14.660156 6.996094 14.660156 L 3.96875 14.660156 C 3.871094 14.660156 3.789062 14.742188 3.789062 14.84375 L 3.789062 18.097656 C 3.789062 18.199219 3.867188 18.28125 3.96875 18.285156 L 6.996094 18.285156 C 7.042969 18.285156 7.089844 18.265625 7.125 18.230469 C 7.160156 18.195312 7.179688 18.148438 7.175781 18.097656 C 7.175781 18.039062 7.207031 17.984375 7.253906 17.949219 C 7.304688 17.914062 7.367188 17.90625 7.421875 17.925781 L 7.453125 17.925781 C 7.5 17.941406 7.550781 17.9375 7.59375 17.917969 C 7.636719 17.894531 7.667969 17.855469 7.683594 17.808594 L 8.429688 15.582031 C 8.449219 15.492188 8.398438 15.394531 8.3125 15.363281 Z M 6.59375 17.515625 L 4.382812 17.515625 C 4.28125 17.515625 4.199219 17.433594 4.199219 17.332031 L 4.199219 15.269531 C 4.199219 15.167969 4.28125 15.082031 4.382812 15.082031 L 6.585938 15.082031 C 6.6875 15.085938 6.769531 15.167969 6.769531 15.269531 L 6.769531 17.332031 C 6.773438 17.382812 6.757812 17.433594 6.722656 17.472656 C 6.6875 17.511719 6.636719 17.53125 6.585938 17.53125 Z M 7.183594 17.101562 L 7.183594 15.5625 C 7.183594 15.5 7.214844 15.445312 7.261719 15.414062 C 7.308594 15.378906 7.371094 15.371094 7.429688 15.390625 L 7.929688 15.558594 C 7.976562 15.574219 8.015625 15.605469 8.035156 15.648438 C 8.058594 15.691406 8.0625 15.742188 8.046875 15.789062 L 7.5625 17.1875 C 7.546875 17.234375 7.515625 17.273438 7.472656 17.292969 C 7.429688 17.316406 7.378906 17.320312 7.332031 17.304688 L 7.292969 17.304688 C 7.210938 17.269531 7.164062 17.1875 7.175781 17.101562 Z M 7.183594 17.101562 "/>
</g>
</svg>
