
<svg xmlns="http://www.w3.org/2000/svg" xmlns:xlink="http://www.w3.org/1999/xlink" width="22px" height="22px" viewBox="0 0 22 22" version="1.1">
<g id="surface1">
<path style=" stroke:none;fill-rule:nonzero;fill:rgb(37.647059%,41.960784%,50.980392%);fill-opacity:1;" d="M 19.894531 1.03125 L 15.222656 1.03125 C 14.308594 1.035156 13.496094 1.632812 13.222656 2.503906 L 0 2.503906 L 0 4.53125 L 13.222656 4.53125 C 13.496094 5.402344 14.304688 6 15.222656 6.003906 L 19.894531 6.003906 C 21.058594 6 22 5.058594 22 3.898438 L 22 3.132812 C 21.996094 1.972656 21.054688 1.035156 19.894531 1.03125 Z M 19.894531 1.03125 "/>
<path style=" stroke:none;fill-rule:nonzero;fill:rgb(37.647059%,41.960784%,50.980392%);fill-opacity:1;" d="M 2.105469 13.488281 L 6.777344 13.488281 C 7.691406 13.488281 8.492188 12.894531 8.777344 12.03125 L 22 12.03125 L 22 10 L 8.777344 10 C 8.503906 9.132812 7.691406 8.535156 6.777344 8.53125 L 2.105469 8.53125 C 0.949219 8.535156 0.0117188 9.464844 0 10.617188 L 0 11.386719 C 0.00390625 12.546875 0.945312 13.480469 2.105469 13.488281 Z M 2.105469 13.488281 "/>
<path style=" stroke:none;fill-rule:nonzero;fill:rgb(37.647059%,41.960784%,50.980392%);fill-opacity:1;" d="M 19.894531 15.996094 L 15.222656 15.996094 C 14.308594 16 13.496094 16.597656 13.222656 17.464844 L 0 17.464844 L 0 19.496094 L 13.222656 19.496094 C 13.503906 20.367188 14.308594 20.964844 15.222656 20.96875 L 19.894531 20.96875 C 21.054688 20.96875 22 20.023438 22 18.863281 L 22 18.101562 C 21.996094 16.941406 21.054688 16 19.894531 15.996094 Z M 19.894531 15.996094 "/>
</g>
</svg>
