
<svg xmlns="http://www.w3.org/2000/svg" xmlns:xlink="http://www.w3.org/1999/xlink" width="22px" height="22px" viewBox="0 0 22 22" version="1.1">
<g id="surface1">
<path style=" stroke:none;fill-rule:nonzero;fill:rgb(37.647059%,41.960784%,50.980392%);fill-opacity:1;" d="M 13.253906 2.253906 C 13.253906 3.496094 12.246094 4.503906 11 4.503906 C 9.753906 4.503906 8.746094 3.496094 8.746094 2.253906 C 8.746094 1.007812 9.753906 0 11 0 C 12.246094 0 13.253906 1.007812 13.253906 2.253906 Z M 13.253906 2.253906 "/>
<path style=" stroke:none;fill-rule:nonzero;fill:rgb(37.647059%,41.960784%,50.980392%);fill-opacity:1;" d="M 14.09375 7.96875 L 19.9375 5.457031 C 20.539062 5.203125 20.816406 4.507812 20.5625 3.910156 C 20.300781 3.308594 19.609375 3.03125 19.011719 3.289062 L 14.21875 5.351562 C 13.199219 5.785156 12.105469 6.007812 11 6.007812 C 9.882812 6.007812 8.78125 5.78125 7.757812 5.34375 L 2.964844 3.28125 C 2.367188 3.023438 1.675781 3.300781 1.417969 3.898438 C 1.160156 4.496094 1.4375 5.191406 2.039062 5.449219 L 7.738281 7.90625 C 8.074219 8.050781 8.292969 8.378906 8.292969 8.742188 L 8.082031 12.867188 C 8.078125 13.023438 8.035156 13.171875 7.957031 13.300781 L 3.898438 20.175781 C 3.753906 20.410156 3.714844 20.691406 3.78125 20.957031 C 3.847656 21.222656 4.023438 21.445312 4.261719 21.582031 L 4.789062 21.867188 C 5.308594 22.132812 5.945312 21.941406 6.226562 21.433594 L 10.003906 14.78125 C 10.183594 14.46875 10.519531 14.277344 10.882812 14.28125 C 11.246094 14.277344 11.582031 14.46875 11.761719 14.78125 L 15.542969 21.4375 C 15.824219 21.945312 16.460938 22.136719 16.976562 21.871094 L 17.507812 21.585938 C 17.746094 21.449219 17.917969 21.226562 17.988281 20.964844 C 18.054688 20.703125 18.015625 20.421875 17.875 20.1875 L 13.875 13.40625 C 13.792969 13.273438 13.753906 13.121094 13.75 12.964844 L 13.550781 8.808594 C 13.546875 8.445312 13.761719 8.117188 14.09375 7.96875 Z M 14.09375 7.96875 "/>
</g>
</svg>
