
<svg xmlns="http://www.w3.org/2000/svg" xmlns:xlink="http://www.w3.org/1999/xlink" width="96px" height="96px" viewBox="0 0 96 96" version="1.1">
<g id="surface1">
<path style=" stroke:none;fill-rule:nonzero;fill:rgb(100%,100%,100%);fill-opacity:1;" d="M 65.640625 95.574219 L 27.066406 95.574219 C 17.847656 95.574219 10.363281 88.089844 10.347656 78.871094 L 10.347656 46.566406 C 10.363281 37.347656 17.847656 29.878906 27.066406 29.863281 L 49.5 29.863281 C 52.347656 29.863281 54.648438 32.164062 54.648438 35.011719 C 54.648438 37.859375 52.347656 40.160156 49.5 40.160156 L 27.066406 40.160156 C 23.523438 40.160156 20.640625 43.023438 20.640625 46.566406 L 20.640625 78.871094 C 20.640625 82.414062 23.523438 85.296875 27.066406 85.296875 L 65.640625 85.296875 C 69.1875 85.296875 72.066406 82.414062 72.066406 78.871094 L 72.066406 46.566406 C 72.066406 43.023438 69.1875 40.160156 65.640625 40.160156 L 60.496094 40.160156 L 60.496094 19.160156 C 60.496094 14.0625 56.371094 9.9375 51.289062 9.9375 L 45.289062 9.9375 C 40.191406 9.9375 36.066406 14.0625 36.066406 19.160156 L 36.066406 21.289062 C 36.066406 24.121094 33.765625 26.4375 30.9375 26.4375 C 28.089844 26.4375 25.789062 24.121094 25.789062 21.289062 L 25.789062 19.074219 C 25.789062 8.316406 34.515625 -0.425781 45.289062 -0.425781 L 51.289062 -0.425781 C 62.0625 -0.425781 70.789062 8.316406 70.789062 19.074219 L 70.789062 30.683594 C 77.675781 32.914062 82.347656 39.324219 82.347656 46.566406 L 82.347656 78.871094 C 82.328125 88.089844 74.863281 95.558594 65.640625 95.574219 Z M 65.640625 95.574219 "/>
</g>
</svg>
