
<svg xmlns="http://www.w3.org/2000/svg" xmlns:xlink="http://www.w3.org/1999/xlink" width="96px" height="96px" viewBox="0 0 96 96" version="1.1">
<g id="surface1">
<path style=" stroke:none;fill-rule:nonzero;fill:rgb(100%,100%,100%);fill-opacity:1;" d="M 48 96 C 30.816406 95.984375 15.339844 85.621094 8.777344 69.75 C 2.214844 53.863281 5.863281 35.609375 18 23.453125 C 20.265625 21.1875 23.949219 21.1875 26.214844 23.453125 C 28.484375 25.722656 28.484375 29.402344 26.214844 31.671875 C 14.164062 43.722656 14.164062 63.289062 26.214844 75.339844 C 38.285156 87.410156 57.835938 87.410156 69.902344 75.339844 C 81.953125 63.289062 81.953125 43.722656 69.902344 31.671875 C 68.128906 30.289062 67.3125 28.023438 67.789062 25.839844 C 68.265625 23.660156 69.972656 21.9375 72.152344 21.425781 C 74.316406 20.914062 76.601562 21.714844 78 23.453125 C 90.136719 35.609375 93.785156 53.863281 87.222656 69.75 C 80.660156 85.621094 65.183594 95.984375 48 96 Z M 48 96 "/>
<path style=" stroke:none;fill-rule:nonzero;fill:rgb(100%,100%,100%);fill-opacity:1;" d="M 48 53.199219 C 44.796875 53.199219 42.1875 50.609375 42.1875 47.402344 L 42.1875 5.8125 C 42.1875 2.589844 44.796875 0 48 0 C 51.203125 0 53.8125 2.589844 53.8125 5.8125 L 53.8125 47.402344 C 53.8125 50.609375 51.203125 53.199219 48 53.199219 Z M 48 53.199219 "/>
</g>
</svg>
