
<svg xmlns="http://www.w3.org/2000/svg" xmlns:xlink="http://www.w3.org/1999/xlink" width="96px" height="96px" viewBox="0 0 96 96" version="1.1">
<g id="surface1">
<path style=" stroke:none;fill-rule:nonzero;fill:rgb(100%,100%,100%);fill-opacity:1;" d="M 80.300781 32.335938 C 78.101562 30.496094 74.847656 30.714844 72.921875 32.828125 C 70.996094 34.941406 71.0625 38.199219 73.089844 40.210938 L 75.800781 42.683594 L 52.5 42.683594 C 50.523438 42.5625 48.664062 43.566406 47.640625 45.253906 C 46.621094 46.941406 46.621094 49.074219 47.640625 50.761719 C 48.664062 52.449219 50.523438 53.4375 52.5 53.335938 L 75.339844 53.335938 L 72.785156 56.113281 C 70.789062 58.277344 70.925781 61.652344 73.074219 63.648438 C 75.238281 65.640625 78.613281 65.503906 80.609375 63.339844 L 96 46.6875 Z M 80.300781 32.335938 "/>
<path style=" stroke:none;fill-rule:nonzero;fill:rgb(100%,100%,100%);fill-opacity:1;" d="M 59.0625 68.0625 C 48 79.140625 30.035156 79.140625 18.953125 68.0625 C 7.875 56.984375 7.875 39.015625 18.953125 27.9375 C 30.035156 16.859375 48 16.859375 59.0625 27.9375 C 61.191406 29.625 64.246094 29.4375 66.152344 27.527344 C 68.0625 25.621094 68.25 22.566406 66.5625 20.4375 C 54.085938 7.941406 34.773438 5.386719 19.484375 14.214844 C 4.175781 23.046875 -3.273438 41.046875 1.296875 58.109375 C 5.878906 75.152344 21.339844 87.015625 39 87 C 49.363281 87.035156 59.300781 82.910156 66.597656 75.5625 C 68.285156 73.449219 68.097656 70.398438 66.1875 68.488281 C 64.261719 66.578125 61.226562 66.390625 59.097656 68.0625 Z M 59.0625 68.0625 "/>
</g>
</svg>
