
<svg xmlns="http://www.w3.org/2000/svg" xmlns:xlink="http://www.w3.org/1999/xlink" width="16px" height="16px" viewBox="0 0 16 16" version="1.1">
<defs>
<linearGradient id="linear0" gradientUnits="userSpaceOnUse" x1="32" y1="3.8" x2="32" y2="23.49" gradientTransform="matrix(0.25,0,0,0.25,0,0)">
<stop offset="0" style="stop-color:rgb(16.078431%,71.372549%,96.470588%);stop-opacity:1;"/>
<stop offset="0.67" style="stop-color:rgb(39.607843%,45.098039%,82.745098%);stop-opacity:1;"/>
<stop offset="1" style="stop-color:rgb(49.411765%,34.117647%,76.862745%);stop-opacity:1;"/>
</linearGradient>
<linearGradient id="linear1" gradientUnits="userSpaceOnUse" x1="32" y1="60.9" x2="32" y2="18.72" gradientTransform="matrix(0.25,0,0,0.25,0,0)">
<stop offset="0" style="stop-color:rgb(86.27451%,87.058824%,88.627451%);stop-opacity:1;"/>
<stop offset="0.57" style="stop-color:rgb(87.058824%,87.843137%,89.411765%);stop-opacity:1;"/>
<stop offset="0.81" style="stop-color:rgb(89.803922%,90.588235%,91.764706%);stop-opacity:1;"/>
<stop offset="0.99" style="stop-color:rgb(94.901961%,95.294118%,95.686275%);stop-opacity:1;"/>
<stop offset="1" style="stop-color:rgb(95.294118%,95.686275%,96.078431%);stop-opacity:1;"/>
</linearGradient>
<linearGradient id="linear2" gradientUnits="userSpaceOnUse" x1="35.11" y1="50.92" x2="35.11" y2="31.48" gradientTransform="matrix(0.25,0,0,0.25,0,0)">
<stop offset="0" style="stop-color:rgb(75.294118%,75.294118%,75.294118%);stop-opacity:1;"/>
<stop offset="1" style="stop-color:rgb(55.686275%,55.686275%,55.686275%);stop-opacity:1;"/>
</linearGradient>
<linearGradient id="linear3" gradientUnits="userSpaceOnUse" x1="26.15" y1="50.92" x2="26.15" y2="31.48" gradientTransform="matrix(0.25,0,0,0.25,0,0)">
<stop offset="0" style="stop-color:rgb(75.294118%,75.294118%,75.294118%);stop-opacity:1;"/>
<stop offset="1" style="stop-color:rgb(55.686275%,55.686275%,55.686275%);stop-opacity:1;"/>
</linearGradient>
<linearGradient id="linear4" gradientUnits="userSpaceOnUse" x1="31.82" y1="50.92" x2="31.82" y2="31.48" gradientTransform="matrix(0.25,0,0,0.25,-0.000796576,0.00107694)">
<stop offset="0" style="stop-color:rgb(75.294118%,75.294118%,75.294118%);stop-opacity:1;"/>
<stop offset="1" style="stop-color:rgb(55.686275%,55.686275%,55.686275%);stop-opacity:1;"/>
</linearGradient>
<linearGradient id="linear5" gradientUnits="userSpaceOnUse" x1="32" y1="50.92" x2="32" y2="31.48" gradientTransform="matrix(0.25,0,0,0.25,0,0)">
<stop offset="0" style="stop-color:rgb(75.294118%,75.294118%,75.294118%);stop-opacity:1;"/>
<stop offset="1" style="stop-color:rgb(55.686275%,55.686275%,55.686275%);stop-opacity:1;"/>
</linearGradient>
</defs>
<g id="surface1">
<path style=" stroke:none;fill-rule:nonzero;fill:url(#linear0);" d="M 16 5.328125 C 16 4.621094 15.425781 4.046875 14.71875 4.046875 L 10.363281 4.046875 C 9.472656 4.046875 8.746094 3.335938 8.726562 2.445312 C 8.742188 1.539062 8.019531 0.792969 7.113281 0.773438 L 0.84375 0.773438 C 0.378906 0.773438 0 1.152344 0 1.621094 L 0 5.855469 L 16 5.855469 Z M 16 5.328125 "/>
<path style=" stroke:none;fill-rule:nonzero;fill:url(#linear1);" d="M 14.71875 4.679688 L 1.28125 4.679688 C 0.574219 4.679688 0 5.253906 0 5.960938 L 0 13.945312 C 0 14.652344 0.574219 15.226562 1.28125 15.226562 L 14.71875 15.226562 C 15.425781 15.226562 16 14.652344 16 13.945312 L 16 5.960938 C 16 5.253906 15.425781 4.679688 14.71875 4.679688 Z M 14.71875 4.679688 "/>
<path style=" stroke:none;fill-rule:nonzero;fill:url(#linear2);" d="M 9.1875 8.773438 C 9.078125 8.699219 8.9375 8.71875 8.84375 8.808594 L 8.34375 9.308594 C 8.292969 9.355469 8.265625 9.421875 8.265625 9.492188 C 8.265625 9.5625 8.292969 9.628906 8.34375 9.675781 C 8.390625 9.726562 8.457031 9.753906 8.527344 9.753906 C 8.597656 9.753906 8.664062 9.726562 8.710938 9.675781 L 9.230469 9.15625 C 9.28125 9.101562 9.308594 9.027344 9.300781 8.953125 C 9.289062 8.878906 9.25 8.8125 9.1875 8.773438 Z M 9.1875 8.773438 "/>
<path style=" stroke:none;fill-rule:nonzero;fill:url(#linear3);" d="M 7.449219 10.015625 C 7.421875 9.886719 7.308594 9.796875 7.179688 9.800781 L 5.886719 9.800781 C 5.746094 9.800781 5.636719 9.914062 5.636719 10.050781 C 5.636719 10.1875 5.746094 10.300781 5.886719 10.300781 L 7.191406 10.300781 C 7.265625 10.300781 7.335938 10.273438 7.386719 10.21875 C 7.4375 10.160156 7.457031 10.089844 7.449219 10.015625 Z M 7.449219 10.015625 "/>
<path style=" stroke:none;fill-rule:nonzero;fill:url(#linear4);" d="M 7.972656 9.75 C 8.144531 9.761719 8.277344 9.90625 8.269531 10.082031 C 8.257812 10.253906 8.109375 10.382812 7.9375 10.375 C 7.765625 10.367188 7.632812 10.21875 7.644531 10.046875 C 7.652344 9.875 7.800781 9.742188 7.972656 9.75 Z M 7.972656 9.75 "/>
<path style=" stroke:none;fill-rule:nonzero;fill:url(#linear5);" d="M 9.902344 8.113281 C 8.847656 7.058594 7.144531 7.039062 6.066406 8.066406 L 5.339844 8.792969 C 5.304688 8.828125 5.292969 8.882812 5.3125 8.929688 C 5.332031 8.980469 5.378906 9.007812 5.429688 9.007812 L 6.714844 9.007812 C 6.765625 9.007812 6.8125 8.980469 6.832031 8.929688 C 6.851562 8.882812 6.839844 8.828125 6.804688 8.792969 L 6.441406 8.425781 C 7.332031 7.589844 8.734375 7.625 9.578125 8.511719 C 10.425781 9.394531 10.402344 10.792969 9.527344 11.648438 C 8.652344 12.507812 7.253906 12.5 6.386719 11.632812 C 6.285156 11.527344 6.121094 11.527344 6.015625 11.628906 C 5.914062 11.730469 5.910156 11.894531 6.011719 12 C 6.703125 12.710938 7.722656 12.992188 8.683594 12.742188 C 9.640625 12.488281 10.390625 11.742188 10.640625 10.78125 C 10.894531 9.824219 10.613281 8.804688 9.902344 8.113281 Z M 9.902344 8.113281 "/>
</g>
</svg>
