
<svg xmlns="http://www.w3.org/2000/svg" xmlns:xlink="http://www.w3.org/1999/xlink" width="48px" height="48px" viewBox="0 0 48 48" version="1.1">
<g id="surface1">
<path style=" stroke:none;fill-rule:nonzero;fill:rgb(100%,100%,100%);fill-opacity:1;" d="M 24 48 C 15.410156 47.992188 7.671875 42.808594 4.390625 34.875 C 1.109375 26.933594 2.933594 17.804688 9 11.726562 C 10.132812 10.59375 11.972656 10.59375 13.109375 11.726562 C 14.242188 12.859375 14.242188 14.703125 13.109375 15.835938 C 7.082031 21.859375 7.082031 31.644531 13.109375 37.671875 C 19.140625 43.703125 28.917969 43.703125 34.953125 37.671875 C 40.976562 31.644531 40.976562 21.859375 34.953125 15.835938 C 34.066406 15.144531 33.65625 14.011719 33.894531 12.921875 C 34.132812 11.828125 34.984375 10.96875 36.078125 10.714844 C 37.160156 10.457031 38.300781 10.859375 39 11.726562 C 45.066406 17.804688 46.890625 26.933594 43.609375 34.875 C 40.328125 42.808594 32.589844 47.992188 24 48 Z M 24 48 "/>
<path style=" stroke:none;fill-rule:nonzero;fill:rgb(100%,100%,100%);fill-opacity:1;" d="M 24 26.597656 C 22.398438 26.597656 21.09375 25.304688 21.09375 23.703125 L 21.09375 2.90625 C 21.09375 1.296875 22.398438 0 24 0 C 25.601562 0 26.90625 1.296875 26.90625 2.90625 L 26.90625 23.703125 C 26.90625 25.304688 25.601562 26.597656 24 26.597656 Z M 24 26.597656 "/>
</g>
</svg>
