
<svg xmlns="http://www.w3.org/2000/svg" xmlns:xlink="http://www.w3.org/1999/xlink" width="48px" height="48px" viewBox="0 0 48 48" version="1.1">
<g id="surface1">
<path style=" stroke:none;fill-rule:nonzero;fill:rgb(100%,100%,100%);fill-opacity:1;" d="M 40.152344 16.167969 C 39.050781 15.246094 37.421875 15.359375 36.460938 16.414062 C 35.496094 17.472656 35.53125 19.097656 36.546875 20.105469 L 37.902344 21.339844 L 26.25 21.339844 C 25.261719 21.28125 24.332031 21.785156 23.820312 22.628906 C 23.308594 23.472656 23.308594 24.535156 23.820312 25.378906 C 24.332031 26.222656 25.261719 26.71875 26.25 26.667969 L 37.671875 26.667969 L 36.390625 28.058594 C 35.394531 29.140625 35.464844 30.828125 36.535156 31.824219 C 37.621094 32.820312 39.308594 32.753906 40.304688 31.671875 L 48 23.34375 Z M 40.152344 16.167969 "/>
<path style=" stroke:none;fill-rule:nonzero;fill:rgb(100%,100%,100%);fill-opacity:1;" d="M 29.53125 34.03125 C 24 39.570312 15.015625 39.570312 9.476562 34.03125 C 3.9375 28.492188 3.9375 19.507812 9.476562 13.96875 C 15.015625 8.429688 24 8.429688 29.53125 13.96875 C 30.597656 14.8125 32.121094 14.71875 33.078125 13.765625 C 34.03125 12.808594 34.125 11.285156 33.28125 10.21875 C 27.042969 3.972656 17.386719 2.691406 9.742188 7.109375 C 2.089844 11.523438 -1.636719 20.523438 0.648438 29.054688 C 2.941406 37.578125 10.671875 43.507812 19.5 43.5 C 24.683594 43.515625 29.652344 41.453125 33.296875 37.78125 C 34.140625 36.722656 34.046875 35.199219 33.09375 34.246094 C 32.128906 33.289062 30.613281 33.195312 29.546875 34.03125 Z M 29.53125 34.03125 "/>
</g>
</svg>
