
<svg xmlns="http://www.w3.org/2000/svg" xmlns:xlink="http://www.w3.org/1999/xlink" width="48px" height="48px" viewBox="0 0 48 48" version="1.1">
<g id="surface1">
<path style=" stroke:none;fill-rule:nonzero;fill:rgb(100%,100%,100%);fill-opacity:1;" d="M 32.820312 47.785156 L 13.535156 47.785156 C 8.921875 47.785156 5.183594 44.046875 5.171875 39.433594 L 5.171875 23.285156 C 5.183594 18.671875 8.921875 14.941406 13.535156 14.933594 L 24.75 14.933594 C 26.171875 14.933594 27.324219 16.082031 27.324219 17.503906 C 27.324219 18.929688 26.171875 20.078125 24.75 20.078125 L 13.535156 20.078125 C 11.761719 20.078125 10.320312 21.511719 10.320312 23.285156 L 10.320312 39.433594 C 10.320312 41.207031 11.761719 42.648438 13.535156 42.648438 L 32.820312 42.648438 C 34.59375 42.648438 36.035156 41.207031 36.035156 39.433594 L 36.035156 23.285156 C 36.035156 21.511719 34.59375 20.078125 32.820312 20.078125 L 30.246094 20.078125 L 30.246094 9.578125 C 30.246094 7.03125 28.183594 4.96875 25.644531 4.96875 L 22.644531 4.96875 C 20.097656 4.96875 18.035156 7.03125 18.035156 9.578125 L 18.035156 10.644531 C 18.035156 12.058594 16.882812 13.21875 15.46875 13.21875 C 14.046875 13.21875 12.894531 12.058594 12.894531 10.644531 L 12.894531 9.535156 C 12.894531 4.160156 17.257812 -0.214844 22.644531 -0.214844 L 25.644531 -0.214844 C 31.03125 -0.214844 35.394531 4.160156 35.394531 9.535156 L 35.394531 15.339844 C 38.839844 16.457031 41.171875 19.660156 41.171875 23.285156 L 41.171875 39.433594 C 41.164062 44.046875 37.433594 47.777344 32.820312 47.785156 Z M 32.820312 47.785156 "/>
</g>
</svg>
