
<svg xmlns="http://www.w3.org/2000/svg" xmlns:xlink="http://www.w3.org/1999/xlink" width="24px" height="24px" viewBox="0 0 24 24" version="1.1">
<defs>
<linearGradient id="linear0" gradientUnits="userSpaceOnUse" x1="32.07" y1="43.53" x2="33.1" y2="13.73" gradientTransform="matrix(0.375,0,0,0.375,0,0)">
<stop offset="0" style="stop-color:rgb(83.137255%,83.137255%,83.137255%);stop-opacity:1;"/>
<stop offset="0.55" style="stop-color:rgb(83.921569%,83.921569%,83.921569%);stop-opacity:1;"/>
<stop offset="0.78" style="stop-color:rgb(86.666667%,86.666667%,86.666667%);stop-opacity:1;"/>
<stop offset="0.96" style="stop-color:rgb(91.764706%,91.764706%,91.764706%);stop-opacity:1;"/>
<stop offset="1" style="stop-color:rgb(93.333333%,93.333333%,93.333333%);stop-opacity:1;"/>
</linearGradient>
<linearGradient id="linear1" gradientUnits="userSpaceOnUse" x1="0.79" y1="47.36" x2="63.23" y2="47.36" gradientTransform="matrix(0.375,0,0,0.375,0,0)">
<stop offset="0" style="stop-color:rgb(16.078431%,71.372549%,96.470588%);stop-opacity:1;"/>
<stop offset="1" style="stop-color:rgb(49.411765%,34.117647%,76.862745%);stop-opacity:1;"/>
</linearGradient>
</defs>
<g id="surface1">
<path style=" stroke:none;fill-rule:nonzero;fill:url(#linear0);" d="M 23.964844 15.539062 L 23.964844 15.464844 C 23.949219 15.371094 23.917969 15.28125 23.886719 15.191406 L 20.835938 4.214844 L 20.835938 4.425781 C 20.824219 3.613281 20.167969 2.957031 19.359375 2.949219 L 4.617188 2.949219 C 3.941406 2.949219 3.351562 3.410156 3.1875 4.074219 L 0.113281 15.191406 C 0.0820312 15.28125 0.0585938 15.371094 0.0351562 15.464844 L 0.0195312 15.539062 C 0 15.632812 0 15.726562 0 15.824219 L 0 18.402344 C 0 19.503906 0.894531 20.402344 1.996094 20.410156 L 21.996094 20.410156 C 23.097656 20.410156 24 19.511719 24 18.402344 L 24 15.824219 C 23.996094 15.726562 23.980469 15.632812 23.964844 15.539062 Z M 23.964844 15.539062 "/>
<path style=" stroke:none;fill-rule:nonzero;fill:url(#linear1);" d="M 2.003906 14.765625 L 22.003906 14.765625 C 22.945312 14.765625 23.714844 15.527344 23.714844 16.476562 L 23.714844 19.054688 C 23.714844 19.996094 22.945312 20.765625 22.003906 20.765625 L 2.003906 20.765625 C 1.058594 20.765625 0.300781 19.996094 0.300781 19.054688 L 0.300781 16.476562 C 0.300781 15.527344 1.058594 14.765625 2.003906 14.765625 Z M 2.003906 14.765625 "/>
<path style=" stroke:none;fill-rule:nonzero;fill:rgb(94.901961%,94.901961%,94.901961%);fill-opacity:1;" d="M 22.003906 15.050781 C 22.78125 15.050781 23.414062 15.683594 23.417969 16.472656 L 23.417969 19.050781 C 23.417969 19.832031 22.785156 20.464844 22.003906 20.472656 L 2.003906 20.472656 C 1.21875 20.472656 0.585938 19.832031 0.585938 19.050781 L 0.585938 16.472656 C 0.585938 15.683594 1.222656 15.050781 2.003906 15.050781 L 22.003906 15.050781 M 22.003906 14.472656 L 2.003906 14.472656 C 0.902344 14.472656 0.0078125 15.363281 0 16.472656 L 0 19.050781 C 0 20.15625 0.894531 21.050781 2.003906 21.050781 L 22.003906 21.050781 C 23.105469 21.046875 24 20.15625 24 19.050781 L 24 16.472656 C 23.996094 15.371094 23.105469 14.472656 22.003906 14.472656 Z M 22.003906 14.472656 "/>
<path style=" stroke:none;fill-rule:nonzero;fill:rgb(100%,100%,100%);fill-opacity:1;" d="M 21.773438 17.859375 C 21.773438 18.28125 21.425781 18.632812 21 18.632812 C 20.574219 18.632812 20.226562 18.28125 20.226562 17.859375 C 20.226562 17.433594 20.574219 17.085938 21 17.085938 C 21.425781 17.085938 21.773438 17.433594 21.773438 17.859375 Z M 21.773438 17.859375 "/>
</g>
</svg>
