
<svg xmlns="http://www.w3.org/2000/svg" xmlns:xlink="http://www.w3.org/1999/xlink" width="24px" height="24px" viewBox="0 0 24 24" version="1.1">
<defs>
<linearGradient id="linear0" gradientUnits="userSpaceOnUse" x1="32.9" y1="55.46" x2="32.9" y2="57.44" gradientTransform="matrix(0.375,0,0,0.375,0,0)">
<stop offset="0" style="stop-color:rgb(80.392157%,81.568627%,83.921569%);stop-opacity:1;"/>
<stop offset="0.56" style="stop-color:rgb(81.176471%,82.352941%,84.313725%);stop-opacity:1;"/>
<stop offset="0.79" style="stop-color:rgb(83.921569%,84.705882%,86.27451%);stop-opacity:1;"/>
<stop offset="0.97" style="stop-color:rgb(89.019608%,89.019608%,89.411765%);stop-opacity:1;"/>
<stop offset="1" style="stop-color:rgb(90.196078%,90.196078%,90.196078%);stop-opacity:1;"/>
</linearGradient>
<linearGradient id="linear1" gradientUnits="userSpaceOnUse" x1="10.4" y1="2.59" x2="55.09" y2="50.6" gradientTransform="matrix(0.375,0,0,0.375,0,0)">
<stop offset="0" style="stop-color:rgb(16.078431%,71.372549%,96.470588%);stop-opacity:1;"/>
<stop offset="0.67" style="stop-color:rgb(39.607843%,45.098039%,82.745098%);stop-opacity:1;"/>
<stop offset="1" style="stop-color:rgb(49.411765%,34.117647%,76.862745%);stop-opacity:1;"/>
</linearGradient>
</defs>
<g id="surface1">
<path style=" stroke:none;fill-rule:nonzero;fill:url(#linear0);" d="M 17.464844 21.417969 L 16.574219 21.417969 C 16.207031 21.417969 15.902344 21.117188 15.902344 20.742188 L 15.902344 17.625 L 8.777344 17.625 L 8.777344 20.738281 C 8.777344 21.113281 8.472656 21.410156 8.097656 21.410156 L 7.207031 21.410156 C 6.839844 21.410156 6.539062 21.707031 6.539062 22.078125 C 6.539062 22.449219 6.839844 22.746094 7.207031 22.746094 L 17.464844 22.746094 C 17.835938 22.746094 18.136719 22.449219 18.136719 22.078125 C 18.136719 21.714844 17.835938 21.417969 17.464844 21.417969 Z M 17.464844 21.417969 "/>
<path style=" stroke:none;fill-rule:nonzero;fill:url(#linear1);" d="M 1.480469 1.546875 L 22.519531 1.546875 C 23.167969 1.546875 23.695312 2.082031 23.695312 2.730469 L 23.695312 16.617188 C 23.695312 17.269531 23.167969 17.792969 22.519531 17.792969 L 1.480469 17.792969 C 0.832031 17.792969 0.304688 17.269531 0.304688 16.617188 L 0.304688 2.730469 C 0.304688 2.082031 0.832031 1.546875 1.480469 1.546875 Z M 1.480469 1.546875 "/>
<path style=" stroke:none;fill-rule:nonzero;fill:rgb(90.196078%,90.196078%,90.196078%);fill-opacity:1;" d="M 22.519531 1.851562 C 22.753906 1.851562 22.972656 1.945312 23.136719 2.109375 C 23.300781 2.273438 23.390625 2.496094 23.390625 2.730469 L 23.390625 16.605469 C 23.390625 16.839844 23.300781 17.0625 23.136719 17.226562 C 22.972656 17.390625 22.753906 17.484375 22.519531 17.484375 L 1.5 17.484375 C 1.265625 17.484375 1.042969 17.390625 0.878906 17.226562 C 0.714844 17.0625 0.621094 16.839844 0.621094 16.605469 L 0.621094 2.730469 C 0.621094 2.246094 1.011719 1.851562 1.5 1.851562 L 22.519531 1.851562 M 22.519531 1.246094 L 1.5 1.246094 C 0.675781 1.246094 0 1.921875 0 2.746094 L 0 16.621094 C 0 17.457031 0.675781 18.121094 1.5 18.121094 L 22.519531 18.121094 C 23.347656 18.121094 24.019531 17.457031 24.019531 16.621094 L 24.019531 2.746094 C 24.003906 1.925781 23.339844 1.265625 22.519531 1.265625 Z M 22.519531 1.246094 "/>
<path style=" stroke:none;fill-rule:nonzero;fill:rgb(90.196078%,90.196078%,90.196078%);fill-opacity:1;" d="M 22.628906 17.71875 L 1.332031 17.71875 C 1.058594 17.71875 0.800781 17.613281 0.613281 17.417969 C 0.421875 17.230469 0.316406 16.972656 0.316406 16.707031 L 0.316406 15.691406 L 23.644531 15.691406 L 23.644531 16.707031 C 23.644531 17.269531 23.191406 17.71875 22.628906 17.71875 Z M 22.628906 17.71875 "/>
</g>
</svg>
