
<svg xmlns="http://www.w3.org/2000/svg" xmlns:xlink="http://www.w3.org/1999/xlink" width="32px" height="32px" viewBox="0 0 32 32" version="1.1">
<g id="surface1">
<path style=" stroke:none;fill-rule:nonzero;fill:rgb(100%,100%,100%);fill-opacity:1;" d="M 16 32 C 10.273438 31.996094 5.113281 28.539062 2.925781 23.25 C 0.738281 17.953125 1.953125 11.871094 6 7.816406 C 6.753906 7.0625 7.984375 7.0625 8.738281 7.816406 C 9.496094 8.574219 9.496094 9.800781 8.738281 10.558594 C 4.722656 14.574219 4.722656 21.097656 8.738281 25.113281 C 12.761719 29.136719 19.277344 29.136719 23.300781 25.113281 C 27.316406 21.097656 27.316406 14.574219 23.300781 10.558594 C 22.710938 10.097656 22.4375 9.339844 22.597656 8.613281 C 22.753906 7.886719 23.324219 7.3125 24.050781 7.140625 C 24.773438 6.972656 25.535156 7.238281 26 7.816406 C 30.046875 11.871094 31.261719 17.953125 29.074219 23.25 C 26.886719 28.539062 21.726562 31.996094 16 32 Z M 16 32 "/>
<path style=" stroke:none;fill-rule:nonzero;fill:rgb(100%,100%,100%);fill-opacity:1;" d="M 16 17.734375 C 14.933594 17.734375 14.0625 16.871094 14.0625 15.800781 L 14.0625 1.9375 C 14.0625 0.863281 14.933594 0 16 0 C 17.066406 0 17.9375 0.863281 17.9375 1.9375 L 17.9375 15.800781 C 17.9375 16.871094 17.066406 17.734375 16 17.734375 Z M 16 17.734375 "/>
</g>
</svg>
