
<svg xmlns="http://www.w3.org/2000/svg" xmlns:xlink="http://www.w3.org/1999/xlink" width="32px" height="32px" viewBox="0 0 32 32" version="1.1">
<g id="surface1">
<path style=" stroke:none;fill-rule:nonzero;fill:rgb(100%,100%,100%);fill-opacity:1;" d="M 21.878906 31.859375 L 9.023438 31.859375 C 5.949219 31.859375 3.453125 29.363281 3.449219 26.289062 L 3.449219 15.523438 C 3.453125 12.449219 5.949219 9.960938 9.023438 9.953125 L 16.5 9.953125 C 17.449219 9.953125 18.214844 10.722656 18.214844 11.671875 C 18.214844 12.621094 17.449219 13.386719 16.5 13.386719 L 9.023438 13.386719 C 7.839844 13.386719 6.878906 14.339844 6.878906 15.523438 L 6.878906 26.289062 C 6.878906 27.472656 7.839844 28.433594 9.023438 28.433594 L 21.878906 28.433594 C 23.0625 28.433594 24.023438 27.472656 24.023438 26.289062 L 24.023438 15.523438 C 24.023438 14.339844 23.0625 13.386719 21.878906 13.386719 L 20.164062 13.386719 L 20.164062 6.386719 C 20.164062 4.6875 18.789062 3.3125 17.097656 3.3125 L 15.097656 3.3125 C 13.398438 3.3125 12.023438 4.6875 12.023438 6.386719 L 12.023438 7.097656 C 12.023438 8.039062 11.253906 8.8125 10.3125 8.8125 C 9.363281 8.8125 8.597656 8.039062 8.597656 7.097656 L 8.597656 6.359375 C 8.597656 2.773438 11.503906 -0.140625 15.097656 -0.140625 L 17.097656 -0.140625 C 20.6875 -0.140625 23.597656 2.773438 23.597656 6.359375 L 23.597656 10.226562 C 25.890625 10.972656 27.449219 13.109375 27.449219 15.523438 L 27.449219 26.289062 C 27.441406 29.363281 24.953125 31.851562 21.878906 31.859375 Z M 21.878906 31.859375 "/>
</g>
</svg>
