
<svg xmlns="http://www.w3.org/2000/svg" xmlns:xlink="http://www.w3.org/1999/xlink" width="32px" height="32px" viewBox="0 0 32 32" version="1.1">
<g id="surface1">
<path style=" stroke:none;fill-rule:nonzero;fill:rgb(100%,100%,100%);fill-opacity:1;" d="M 26.765625 10.777344 C 26.035156 10.164062 24.949219 10.238281 24.308594 10.941406 C 23.664062 11.648438 23.6875 12.734375 24.363281 13.402344 L 25.265625 14.226562 L 17.5 14.226562 C 16.839844 14.1875 16.222656 14.523438 15.878906 15.085938 C 15.539062 15.648438 15.539062 16.359375 15.878906 16.921875 C 16.222656 17.484375 16.839844 17.8125 17.5 17.777344 L 25.113281 17.777344 L 24.261719 18.703125 C 23.597656 19.425781 23.640625 20.550781 24.359375 21.214844 C 25.078125 21.878906 26.203125 21.835938 26.871094 21.113281 L 32 15.5625 Z M 26.765625 10.777344 "/>
<path style=" stroke:none;fill-rule:nonzero;fill:rgb(100%,100%,100%);fill-opacity:1;" d="M 19.6875 22.6875 C 16 26.378906 10.011719 26.378906 6.316406 22.6875 C 2.625 18.996094 2.625 13.003906 6.316406 9.3125 C 10.011719 5.621094 16 5.621094 19.6875 9.3125 C 20.398438 9.875 21.414062 9.8125 22.050781 9.175781 C 22.6875 8.539062 22.75 7.523438 22.1875 6.8125 C 18.027344 2.648438 11.589844 1.796875 6.496094 4.738281 C 1.390625 7.683594 -1.089844 13.683594 0.433594 19.371094 C 1.960938 25.050781 7.113281 29.003906 13 29 C 16.453125 29.011719 19.765625 27.636719 22.199219 25.1875 C 22.761719 24.484375 22.699219 23.464844 22.0625 22.828125 C 21.421875 22.191406 20.410156 22.128906 19.699219 22.6875 Z M 19.6875 22.6875 "/>
</g>
</svg>
